<?xml version="1.0" encoding="utf-8"?>
<!-- Generator: Adobe Illustrator 16.0.0, SVG Export Plug-In . SVG Version: 6.00 Build 0)  -->
<!DOCTYPE svg PUBLIC "-//W3C//DTD SVG 1.1//EN" "http://www.w3.org/Graphics/SVG/1.1/DTD/svg11.dtd">
<svg version="1.1" id="Layer_1" xmlns="http://www.w3.org/2000/svg" xmlns:xlink="http://www.w3.org/1999/xlink" x="0px" y="0px"
	 width="584.377px" height="215.94px" viewBox="0 0 584.377 215.94" enable-background="new 0 0 584.377 215.94"
	 xml:space="preserve">
<polygon fill="#FFFFFF" points="584.377,215.94 515.356,0 501.981,0 495.809,0 482.736,0 416.516,206.306 350.574,0 337.199,0 
	331.025,0 317.953,0 251.732,206.306 185.791,0 166.242,0 235.559,215.94 248.63,215.94 254.803,215.94 268.178,215.94 
	334.12,9.636 400.341,215.94 413.413,215.94 419.594,215.94 432.961,215.94 498.911,9.636 565.124,215.94 "/>
<path fill="#FFFFFF" d="M126.365,196.081c-12.729,12.732-31.512,19.691-53.939,19.691H0V0h72.426
	c22.427,0,41.209,6.96,53.939,19.691c21.82,21.815,20.928,56.064,20.928,85.161C147.293,133.943,148.182,174.244,126.365,196.081z
	 M114.051,32.731c-12.187-12.481-28.513-16.35-45.445-16.35H17.49v183.009h51.116c16.932,0,33.258-3.868,45.445-16.35
	c16.932-17.22,15.72-54.669,15.72-78.129C129.771,81.448,130.982,49.953,114.051,32.731z"/>
</svg>
