<?xml version="1.0" encoding="utf-8"?>
<!-- Generator: Adobe Illustrator 16.0.0, SVG Export Plug-In . SVG Version: 6.00 Build 0)  -->
<!DOCTYPE svg PUBLIC "-//W3C//DTD SVG 1.1//EN" "http://www.w3.org/Graphics/SVG/1.1/DTD/svg11.dtd">
<svg version="1.1" id="Layer_1" xmlns="http://www.w3.org/2000/svg" xmlns:xlink="http://www.w3.org/1999/xlink" x="0px" y="0px"
	 width="81px" height="30px" viewBox="251.688 92.97 81 30" enable-background="new 251.688 92.97 81 30" xml:space="preserve">
<polygon fill="#FFFFFF" points="332.781,122.97 323.192,92.97 321.334,92.97 320.477,92.97 318.661,92.97 309.461,121.632 
	300.3,92.97 298.441,92.97 297.584,92.97 295.768,92.97 286.568,121.632 277.407,92.97 274.691,92.97 284.321,122.97 
	286.137,122.97 286.995,122.97 288.853,122.97 298.014,94.309 307.214,122.97 309.03,122.97 309.889,122.97 311.746,122.97 
	320.908,94.309 330.106,122.97 "/>
<path fill="#FFFFFF" d="M269.151,120.211c-1.768,1.769-4.378,2.735-7.494,2.735h-10.062V92.97h10.062
	c3.116,0,5.725,0.967,7.494,2.735c3.032,3.031,2.908,7.789,2.908,11.832C272.059,111.578,272.182,117.177,269.151,120.211z
	 M267.44,97.517c-1.693-1.734-3.961-2.271-6.314-2.271h-7.101v25.425h7.101c2.353,0,4.621-0.538,6.314-2.271
	c2.352-2.393,2.184-7.596,2.184-10.854C269.624,104.285,269.792,99.91,267.44,97.517z"/>
</svg>
