<?xml version="1.0" encoding="utf-8"?>
<!-- Generator: Adobe Illustrator 15.0.0, SVG Export Plug-In  -->
<!DOCTYPE svg PUBLIC "-//W3C//DTD SVG 1.1//EN" "http://www.w3.org/Graphics/SVG/1.1/DTD/svg11.dtd" [
	<!ENTITY ns_flows "http://ns.adobe.com/Flows/1.0/">
]>
<svg version="1.1"
	 xmlns="http://www.w3.org/2000/svg" xmlns:xlink="http://www.w3.org/1999/xlink" xmlns:a="http://ns.adobe.com/AdobeSVGViewerExtensions/3.0/"
	 x="0px" y="0px" width="640px" height="1080px" viewBox="83.776 15.295 640 1080"
	 overflow="visible" enable-background="new 83.776 15.295 640 1080" xml:space="preserve">
<defs>
</defs>
<linearGradient id="SVGID_2_" gradientUnits="userSpaceOnUse" x1="29.5303" y1="315.501" x2="855.793" y2="844.9203">
	<stop  offset="0" style="stop-color:#95DCEF"/>
	<stop  offset="1" style="stop-color:#67B8EF"/>
</linearGradient>
<rect x="83.776" y="15.295" fill="url(#SVGID_2_)" width="640" height="1080"/>
<polygon opacity="0.23" fill="#FFFFFF" points="119.527,65.75 185.834,65.75 699.674,777.875 119.527,777.875 "/>
<g>
	<defs>
		<rect id="SVGID_1_" x="83.776" y="15.295" width="640" height="1080"/>
	</defs>
	<clipPath id="SVGID_3_">
		<use xlink:href="#SVGID_1_"  overflow="visible"/>
	</clipPath>
	<g clip-path="url(#SVGID_3_)">
		<path fill="#8CC63F" d="M390.208,909.381c-39.93,19.866-90.216,141.533-90.216,141.533s249.174,633.222,262.94,650.645
			c13.773,17.442,123.175,152.528,160.713,163.607c37.541,11.079,525.888-246.345,540.44-253.173
			c14.564-6.812,134.363-104.27,134.363-104.27l19.143-70.662c0,0-326.73-728.085-351.68-750.752
			c-24.944-22.652-183.197-31.278-183.197-31.278L390.208,909.381z"/>
		<path fill="#A3D350" d="M766.065,1854.429c-72.138-60.853-135.686-164.791-159.093-173.488
			c-26.535-9.876-274.934-613.302-278.982-643.131c-4.044-29.84,43.549-94.476,43.549-94.476l-12.988-2.445
			c-30.7,42.684-58.559,110.025-58.559,110.025s249.174,633.222,262.94,650.645c13.773,17.442,123.175,152.528,160.713,163.607
			C729.126,1866.777,744.257,1862.649,766.065,1854.429z"/>
		<path fill="#7CAA33" d="M501.989,862.951c23.802,50.808,108.389,61.429,188.939,23.707
			c80.543-37.739,126.54-109.521,102.744-160.342c-3.26-6.961-7.763-13.087-13.134-18.512L498.443,853.482
			C499.383,856.704,500.542,859.857,501.989,862.951z"/>
		<path d="M880.897,1813.807c-0.013-0.004-0.013-0.004-0.013-0.004c-139.853,65.512-153.253,61.557-159.688,59.659
			c-43.141-12.731-163.83-164.984-165.046-166.531c-13.87-17.551-222.521-546.896-264.208-652.837l-1.285-3.26l1.329-3.221
			c5.289-12.752,52.724-125.265,94.369-145.989l494.486-255.367l2.343,0.132c16.52,0.903,162.092,9.495,188.542,33.511
			c25.558,23.216,320.238,678.929,353.765,753.616l1.253,2.812l-20.665,76.354l-2.178,1.765
			c-12.34,10.034-121.051,98.32-136.141,105.389c-1.781,0.833-12.941,6.622-28.393,14.604
			C1175.724,1667.38,1006.69,1754.872,880.897,1813.807z M309.332,1051.023c98.941,251.364,249.033,628.333,260.524,645.351
			c38.371,48.556,127.233,151.92,156.241,160.493c3.656,0.622,25.581-1.641,147.437-58.733
			c125.495-58.776,294.326-146.163,357.881-179.059c18.669-9.656,26.997-13.975,29.006-14.905
			c9.755-4.58,84.215-63.848,130.407-101.387l17.597-64.99c-130.035-289.742-329.209-725.235-348.407-745.148
			c-16.22-14.73-115.163-25.426-175.413-28.851L394.18,917.06C364.648,931.762,324.218,1015.803,309.332,1051.023z"/>
		<polygon fill="#788958" points="421.507,1096.753 492.523,1122.999 527.589,1028.067 456.573,1001.822 		"/>
		<polygon fill="#57633E" points="578.048,1115.723 647.909,1086.573 638.42,1063.812 568.565,1092.95 		"/>
		
			<linearGradient id="SVGID_4_" gradientUnits="userSpaceOnUse" x1="216.3936" y1="822.2256" x2="706.7101" y2="1116.4183" gradientTransform="matrix(0.9056 -0.4242 0.4242 0.9056 -90.204 -185.998)">
			<stop  offset="0" style="stop-color:#FFD8BF"/>
			<stop  offset="1" style="stop-color:#EFA57F"/>
		</linearGradient>
		<path fill="url(#SVGID_4_)" d="M172.688,622.635c-83.695-178.696-6.687-391.429,171.994-475.131
			c178.703-83.709,391.435-6.702,475.132,171.995c83.709,178.701,6.705,391.419-171.994,475.13
			C469.131,878.342,256.398,801.334,172.688,622.635z"/>
		<path d="M651.492,802.469c-182.729,85.598-401.035,6.571-486.627-176.17c-85.597-182.729-6.585-401.04,176.157-486.632
			c182.729-85.597,401.035-6.571,486.632,176.158C913.252,498.555,834.239,716.865,651.492,802.469z M348.36,155.333
			C174.266,236.885,98.979,444.864,180.53,618.961c81.553,174.095,289.546,249.389,463.629,167.83
			c174.091-81.54,249.37-289.536,167.825-463.614C730.432,149.08,522.439,73.788,348.36,155.333z"/>
		<polygon fill="#FFDA6A" points="347.63,487.171 256.404,549.063 231.028,511.68 322.261,449.775 		"/>
		<path fill="#F9E3AC" d="M231.028,511.68l12.339,18.191c0.634-1.832,0.405-4.213,2.115-5.925c2.421,1.982,4.666,4.646,7.388,6.079
			c-2.045-4.578,3.566-23.217,9.297-15.079c-0.277-3.73,2.93-9.619,7.038-6.981c-0.468-3.365,1.779-6.48,2.987-9.448
			c5.879,3.98,13.645,3.445,14.688-5.587c0.501,1.915,1.44,2.583,2.902,3.739c0.736-3.228,0.655-7.544,3.326-9.848
			c3.594,4.601,9.247,11.92,14.925,13.975c-0.86-3.313-2.077-6.845-2.783-10.55c-0.652-3.269-4.811-10.105-4.347-13.074
			c1.776-11.261,13.479,1.265,16.816,4.086c1.565-3.376-0.831-7.275,0.586-10.944c1.152,0.492,3.293,0.311,4.263,0.811
			c-0.153-2.669-2.115-4.47-1.52-7.106c3.507,1.449,6.038,3.575,9.863,4.318c0.455-1.881-0.06-4.503-1.014-7.312l-7.638-11.249
			L231.028,511.68z"/>
		<path d="M353.639,488.316l-98.397,66.762l-30.22-44.544l98.397-66.762L353.639,488.316z M257.562,543.06l84.066-57.045
			l-20.512-30.231l-84.07,57.058L257.562,543.06z"/>
		<polygon fill="#FFDA6A" points="605.538,366.359 711.495,335.893 699.017,292.469 593.046,322.93 		"/>
		<path fill="#F9E3AC" d="M699.017,292.469l6.067,21.119c-1.813-0.686-3.486-2.382-5.907-2.168c-0.014,3.131,0.602,6.55-0.058,9.567
			c-2.204-4.517-20.121-12.123-17.538-2.51c-2.688-2.601-9.264-3.906-9.867,0.939c-2.272-2.51-6.1-2.791-9.171-3.753
			c-0.692,7.068-6.087,12.688-13.681,7.713c1.155,1.598,1.036,2.749,1.001,4.619c-2.952-1.501-6.21-4.338-9.677-3.757
			c1.219,5.713,3.234,14.748,1.185,20.412c-2.015-2.775-3.962-5.974-6.339-8.896c-2.098-2.582-4.689-10.151-7.267-11.697
			c-9.788-5.843-7.642,11.169-7.624,15.536c-3.583-0.953-5.053-5.309-8.78-6.568c-0.363,1.212-1.886,2.737-2.105,3.793
			c-1.942-1.808-2.083-4.474-4.491-5.703c-1.146,3.618-1.103,6.919-2.983,10.346c-1.745-0.871-3.43-2.944-4.984-5.462l-3.751-13.069
			L699.017,292.469z"/>
		<path d="M587.692,319.977l114.277-32.861l14.88,51.731l-114.266,32.865L587.692,319.977z M696.052,297.818l-97.644,28.084
			l10.083,35.104l97.657-28.08L696.052,297.818z"/>
		<path fill="#FFFFFF" d="M404.398,580.173c0,0-14.759,73.322-95.795,44.885C227.573,596.605,332.491,454.688,404.398,580.173z"/>
		<g>
			<path fill="#EDBA9D" d="M401.113,579.925c2.515,2.627,4.922,5.546,7.168,8.912C406.392,585.479,404.01,582.481,401.113,579.925z"
				/>
			<path fill="#EDBA9D" d="M313.011,634.463c-10.51-1.086-16.775-4.488-19.844-9.214c-0.741,6.542,0.131,12.967,2.902,18.884
				c10.602,22.656,44.615,29.114,75.916,14.441c31.325-14.662,48.1-44.912,37.499-67.57c-0.21-0.449-0.493-0.864-0.736-1.311
				C408.134,590.98,383.229,641.662,313.011,634.463z"/>
		</g>
		<g>
			<path fill="#E0A486" d="M632.721,471.442c0.396,3.609,1.102,7.313,2.26,11.213C633.615,479.039,632.822,475.288,632.721,471.442z
				"/>
			<path fill="#E0A486" d="M731.009,438.648c5.904-8.766,7.303-15.758,5.63-21.127c5.489,3.615,9.881,8.401,12.643,14.3
				c10.616,22.661-6.177,52.92-37.489,67.588c-31.312,14.667-65.309,8.2-75.912-14.457c-0.21-0.449-0.349-0.932-0.555-1.395
				C636.726,483.9,691.591,497.204,731.009,438.648z"/>
		</g>
		<path d="M307.912,581.09c0.901,0.938,1.769,1.926,2.345,3.18c2.868,6.102,0.244,13.351-5.866,16.202
			c-3.889,1.833-8.146,1.218-11.549-0.896c-0.062,2.935,0.444,5.912,1.761,8.749c4.572,9.734,16.166,13.932,25.896,9.372
			c9.735-4.57,13.928-16.15,9.374-25.895C325.908,583.362,316.67,579.094,307.912,581.09z"/>
		<path fill="#FFFFFF" d="M630.81,474.126c0,0,65.784,35.583,95.794-44.884C756.626,348.779,580.435,338.543,630.81,474.126z"/>
		<path d="M636.709,436.578c0.149,1.278,0.349,2.59,0.929,3.83c2.869,6.102,10.12,8.727,16.217,5.871
			c3.89-1.833,6.153-5.494,6.695-9.464c2.294,1.831,4.271,4.129,5.593,6.954c4.567,9.748,0.37,21.341-9.374,25.895
			c-9.729,4.559-21.324,0.361-25.881-9.369C626.927,451.841,629.573,442.016,636.709,436.578z"/>
		<path d="M507.593,600.084c0.91,0.539,22.601,12.825,54.314-1.801l0,0c0.163-0.076,0.311-0.156,0.474-0.232l0,0
			c31.552-14.999,35.982-39.531,36.203-40.93l-6.322-3.573c-0.038,0.225-4.363,22.9-33.78,36.79
			c-29.412,13.667-49.555,2.597-49.572,2.605l0,0L507.593,600.084z"/>
		<path fill="#FFD8BF" d="M795.056,270.793l6.015-17.105l24.878-9.395l22.05,2.546l21.688,14.064l16.77,37.181l-0.638,35.883
			l-12.818,41.884l-35.445,16.89c0,0,45.725-48.253,6.086-90.127c-25.543-1.853-23.476,5.601-23.476,5.601l1.203-13.186
			l14.303-12.939l14.903-4.657C850.573,277.434,847.655,240.562,795.056,270.793z"/>
		<path fill="#E8B8A7" d="M780.046,268.899l15.01,1.894l24.789-16.073l28.127,8.897l12.152,25.966l5.608,17.682l5.017,30.492
			l-16.033,35.835l-17.162,19.148C837.554,392.741,785.612,285.745,780.046,268.899z"/>
		<g>
			<path d="M780.007,269.005c-0.012,0.115-0.023,0.229-0.025,0.319L780.007,269.005z"/>
			<path d="M827.607,236.411c-18.142,0.602-35.116,11.395-46.579,29.647c-0.557,0.875-0.838,1.863-0.982,2.841l15.01,1.894
				c8.82-12.564,20.447-19.676,33.007-20.089c27.229-0.911,50.427,29.65,51.701,68.092c1.164,34.952-16.658,65.122-40.594,70.467
				l-0.757,14.632c0.763,0.246-4.541,0.461-3.711,0.434c0.081-0.016,0.174-0.027,0.263-0.024
				c34.672-2.414,60.636-40.181,59.104-85.991C892.528,271.98,862.714,235.229,827.607,236.411z"/>
		</g>
		<path fill="none" stroke="#000000" stroke-miterlimit="10" d="M853.569,282.028c-1.226-10.644-23.293,2.292-26.719,5.815
			c-5.275,5.454-13.825,19.132-11.285,26.473c0.787-6.137,9.85-8.891,14.829-10.06c6.033-1.401,9.149-2.169,13.863,1.927
			c9.56,8.33,14.051,26.623,14.218,39.199c0.152,10.182-5.376,30.031-18.912,25.877c-5.977-1.849-8.147-8.52-9.889-13.899
			c-2.762-8.587-4.663-15.13,1.434-22.855"/>
		<g>
			<path fill="#FFD8BF" d="M149.407,573.238l-17.003-6.335l-23.129,13.104L97.13,598.583l-3.104,25.655l17.845,36.689l27.962,22.473
				l40.397,16.97l35.665-16.423c0,0-66.34,4.244-73.138-53.016c14.925-20.81,19.33-14.45,19.33-14.45l-10.915-7.521l-19.092,2.692
				l-13.112,8.5C118.969,620.153,92.514,594.298,149.407,573.238z"/>
			<path fill="#E8B8A7" d="M160.228,558.039l-8.159,12.758l-28.21,8.74l-11.174,27.32l12.156,25.953l9.996,15.625l20.221,23.359
				l37.794,10.621l21.354,1.575C214.206,683.991,169.593,573.093,160.228,558.039z"/>
			<g>
				<path d="M157.662,560.544c0.102,0.052,0.197,0.116,0.275,0.189L157.662,560.544z"/>
				<path d="M104.432,579.033c12.074-13.552,31.245-19.683,52.604-16.804c1.023,0.146,1.956,0.544,2.812,1.062l-8.157,12.76
					c-15.308-1.285-28.213,3.094-36.562,12.498c-18.143,20.331-9.507,57.704,19.212,83.289c26.102,23.28,60.69,28.899,81.794,10.581
					l11.427,10.888c-1.975,4.095,0.553-0.621,0,0c-0.056,0.07,0.069-0.063,0,0c-24.049,25.094-68.521,19.72-102.754-10.774
					C90.2,651.68,81.065,605.253,104.432,579.033z"/>
			</g>
			<path fill="none" stroke="#000000" stroke-width="3" stroke-miterlimit="10" d="M120.585,625.385
				c-7.382-7.751,16.665-16.415,21.566-16.792c7.571-0.575,23.547,1.624,27.549,8.27c-5.201-3.332-13.13,1.864-17.221,4.952
				c-4.92,3.73-7.519,5.629-7.396,11.887c0.294,12.681,11.474,27.841,21.034,36.005c7.725,6.635,26.514,15.094,31.975,2.031
				c2.417-5.771-1.318-11.709-4.342-16.478c-4.824-7.631-8.646-13.287-18.471-13.54"/>
		</g>
		<path d="M650.483,669.224c-7.263-15.504-33.33-18.622-58.203-6.97c-24.891,11.661-39.165,33.676-31.908,49.193
			c7.269,15.488,33.328,18.635,58.205,6.97C643.469,706.756,657.74,684.74,650.483,669.224z"/>
		<path fill="#BA3131" d="M595.015,719.102c0.962,2.052,2.27,3.883,3.853,5.489c6.402-1.06,13.091-3.074,19.71-6.174
			c24.892-11.661,39.163-33.677,31.906-49.193c-0.964-2.036-2.273-3.869-3.853-5.487c-6.401,1.059-13.091,3.074-19.715,6.186
			C602.025,681.585,587.753,703.601,595.015,719.102z"/>
		<g>
			<path fill="#FFDA6A" d="M761.193,218.449c0,0-87.342-17.205-145.34-59.318c-58.003-42.101-453.223,90.375-482.914,77.999
				c-29.678-12.371,127.802,272.804,24.097,325.1c0,0-119.467-45.426-146.589-216.651
				c-27.141-171.217,235.105-284.5,329.428-302.421c94.336-17.916,377.662-131.752,490.679,183.298
				C846.433,329.016,761.193,218.449,761.193,218.449z"/>
			<path d="M157.518,571.506l-3.503-1.331c-1.287-0.49-31.93-12.379-66.067-46.006c-19.928-19.63-36.974-42.685-50.664-68.524
				C20.238,423.476,8.386,386.892,2.052,346.908c-12.204-76.99,30.216-152.021,122.674-216.981
				c73.11-51.366,161.954-85.314,213.562-95.12c10.377-1.971,23.19-5.152,38.027-8.836C420.453,15.01,480.902,0,545.086,0
				c63.108,0,118.188,14.971,163.711,44.496c56.653,36.745,100.31,96.999,129.758,179.089l0.274,0.766l0.125,0.804
				c3.772,24.37,2.378,39.397-4.389,47.293c-3.423,3.993-8.071,6.103-13.444,6.103c-6.954,0-19.042-2.943-43.632-28.395
				c-9.507-9.84-17.496-19.563-21.056-24.016c-16.469-3.548-92.261-21.42-145.574-60.132c-4.193-3.044-13.921-6.673-36.439-6.673
				c-66.467,0-190.918,31.168-290.917,56.211c-68.934,17.264-123.381,30.9-144.407,30.903c-0.175,0-0.349-0.001-0.521-0.002
				c2.477,10.214,9.405,29.609,15.68,47.17c15.089,42.236,35.754,100.081,43.749,152.364c4.525,29.602,4.498,53.563-0.084,73.254
				c-5.581,23.979-18.049,40.997-37.057,50.583L157.518,571.506z M545.086,17c-62.104,0-121.387,14.721-164.674,25.469
				c-15.083,3.745-28.11,6.98-38.951,9.039c-41.625,7.909-131.093,39.024-206.962,92.329
				C73.984,186.354,4.796,255.636,18.843,344.248c13.648,86.167,51.601,138.816,81.035,167.81
				c25.15,24.775,48.189,36.787,56.703,40.717c59.372-35.907,8.972-177.001-18.335-253.438
				c-16.303-45.631-20.764-59.125-15.398-66.74c2.84-4.028,8.05-5.475,13.242-3.362c0.192,0.046,1.03,0.216,3.004,0.215
				c18.931-0.003,75.165-14.086,140.279-30.394c100.904-25.271,226.483-56.721,295.047-56.721c22.047,0,37.233,3.244,46.427,9.917
				c55.763,40.49,141.136,57.689,141.991,57.858l3.133,0.619l1.953,2.53c0.098,0.126,9.881,12.771,21.889,25.186
				c21.271,21.992,29.812,23.106,31.309,23.106c0.256,0,0.395-0.031,0.427-0.042c0.023-0.021,5.05-4.368,0.729-32.953
				C770.976,86.195,680.301,17,545.086,17z"/>
		</g>
		<path fill="#FFDA6A" d="M780.046,268.899c0,0-183.552,36.251-241.553-5.849c-58.004-42.101-269.272,83.14-298.951,70.768
			c-29.675-12.385,21.199,176.115-82.506,228.411c0,0-119.467-45.426-146.589-216.651
			c-27.141-171.217,235.105-284.5,329.428-302.421c94.336-17.916,377.662-131.752,490.679,183.298
			C846.433,329.016,780.046,268.899,780.046,268.899z"/>
		<path fill="#F9E3AC" d="M180.724,105.088C85.464,157.902-6.151,240.875,10.447,345.578
			c25.538,161.198,132.878,210.881,145.368,216.15l5.399-2.542l-3.704,0.124c0,0-50.081-40.593-77.911-84.884
			C51.793,430.188-53.81,243.309,180.724,105.088z"/>
		<path fill="#CEBA8D" d="M772.206,257.966c0,0-215.836,26.163-245.645-20.382C496.734,191.046,772.206,257.966,772.206,257.966z"/>
		<path fill="#CEBA8D" d="M271.918,313.86c0,0-43.964,28.04-55.46,6.614C204.958,299.061,271.918,313.86,271.918,313.86z"/>
	</g>
</g>
<g>
	<path fill="#1D1D1B" d="M720.776,18.295v1074h-634v-1074H720.776 M723.776,15.295h-640v1080h640V15.295L723.776,15.295z"/>
</g>
</svg>
