<?xml version="1.0" encoding="utf-8"?>
<!-- Generator: Adobe Illustrator 15.0.0, SVG Export Plug-In  -->
<!DOCTYPE svg PUBLIC "-//W3C//DTD SVG 1.1//EN" "http://www.w3.org/Graphics/SVG/1.1/DTD/svg11.dtd" [
	<!ENTITY ns_flows "http://ns.adobe.com/Flows/1.0/">
]>
<svg version="1.1"
	 xmlns="http://www.w3.org/2000/svg" xmlns:xlink="http://www.w3.org/1999/xlink" xmlns:a="http://ns.adobe.com/AdobeSVGViewerExtensions/3.0/"
	 x="0px" y="0px" width="640px" height="1080px" viewBox="431.439 115.994 640 1080"
	 overflow="visible" enable-background="new 431.439 115.994 640 1080" xml:space="preserve">
<defs>
	
		<pattern  x="431.439" y="115.994" width="4.575" height="4.408" patternUnits="userSpaceOnUse" id="Nouveau_motif" viewBox="0 -4.408 4.575 4.408" overflow="visible">
		<g>
			<polygon fill="none" points="0,0 4.575,0 4.575,-4.408 0,-4.408 			"/>
			<polygon fill="#7BA538" points="1.539,-2.869 0,-2.869 0,-4.408 1.539,-4.408 			"/>
			<polygon fill="#7BA538" points="4.575,-2.869 3.036,-2.869 3.036,-4.408 4.575,-4.408 			"/>
			<polygon fill="#7BA538" points="4.575,0 3.036,0 3.036,-1.54 4.575,-1.54 			"/>
			<polygon fill="#7BA538" points="1.539,0 0,0 0,-1.54 1.539,-1.54 			"/>
		</g>
	</pattern>
	
		<pattern  x="431.439" y="115.994" width="4.575" height="4.408" patternUnits="userSpaceOnUse" id="m2" viewBox="0 -4.408 4.575 4.408" overflow="visible">
		<g>
			<polygon fill="none" points="0,0 4.575,0 4.575,-4.408 0,-4.408 			"/>
			<polygon fill="#1C995D" points="1.539,-2.869 0,-2.869 0,-4.408 1.539,-4.408 			"/>
			<polygon fill="#1C995D" points="4.575,-2.869 3.036,-2.869 3.036,-4.408 4.575,-4.408 			"/>
			<polygon fill="#1C995D" points="4.575,0 3.036,0 3.036,-1.54 4.575,-1.54 			"/>
			<polygon fill="#1C995D" points="1.539,0 0,0 0,-1.54 1.539,-1.54 			"/>
		</g>
	</pattern>
</defs>
<g>
	<defs>
		<rect id="SVGID_1_" x="431.439" y="115.994" width="640" height="1080"/>
	</defs>
	<clipPath id="SVGID_2_">
		<use xlink:href="#SVGID_1_"  overflow="visible"/>
	</clipPath>
	<g clip-path="url(#SVGID_2_)">
		<g>
			<linearGradient id="SVGID_3_" gradientUnits="userSpaceOnUse" x1="422.8638" y1="208.5488" x2="1488.4047" y2="891.2832">
				<stop  offset="0" style="stop-color:#95DCEF"/>
				<stop  offset="1" style="stop-color:#67B8EF"/>
			</linearGradient>
			<rect x="320.542" y="90.277" fill="url(#SVGID_3_)" width="1169.891" height="855.015"/>
			<path fill="#2B2B2B" d="M1419.486,899.754l22.524-81.48c0,0,7.949-51.011-8.613-51.011c-16.561,0-47.034,0-47.034,0
				s-12.589-9.272-12.589-38.424c0,0-2.647-8.941-8.941-8.941c-5.14,0-23.191,0-29.645,0c-1.449,0-2.32,0-2.32,0
				c-6.454,0-24.505,0-29.643,0c-6.295,0-8.943,8.941-8.943,8.941c0,29.151-12.589,38.424-12.589,38.424s-30.473,0-47.034,0
				c-16.562,0-8.614,51.011-8.614,51.011l32.462,81.48l-36.435,39.83h110.795h2.32h110.797L1419.486,899.754z"/>
			<path fill="#2B2B2B" d="M1037.198,899.754l22.524-81.48c0,0,7.949-51.011-8.614-51.011c-16.561,0-47.034,0-47.034,0
				s-12.589-9.272-12.589-38.424c0,0-2.647-8.941-8.941-8.941c-5.14,0-23.191,0-29.645,0c-1.449,0-2.32,0-2.32,0
				c-6.454,0-24.505,0-29.643,0c-6.295,0-8.943,8.941-8.943,8.941c0,29.151-12.589,38.424-12.589,38.424s-30.473,0-47.034,0
				c-16.562,0-8.614,51.011-8.614,51.011l32.462,81.48l-36.435,39.83H950.58h2.32h110.797L1037.198,899.754z"/>
			<path fill="#2B2B2B" d="M670.047,899.754l22.524-81.48c0,0,7.949-51.011-8.614-51.011c-16.56,0-47.034,0-47.034,0
				s-12.589-9.272-12.589-38.424c0,0-2.647-8.941-8.941-8.941c-5.139,0-23.191,0-29.645,0c-1.449,0-2.32,0-2.32,0
				c-6.454,0-24.505,0-29.643,0c-6.295,0-8.943,8.941-8.943,8.941c0,29.151-12.589,38.424-12.589,38.424s-30.473,0-47.034,0
				c-16.562,0-8.613,51.011-8.613,51.011l32.462,81.48l-36.436,39.83h110.795h2.32h110.797L670.047,899.754z"/>
			<g>
				
					<radialGradient id="SVGID_4_" cx="1047.7417" cy="638.5889" r="14.7278" fx="1039.4833" fy="628.4963" gradientTransform="matrix(1 0 0 -1 244 1407.9883)" gradientUnits="userSpaceOnUse">
					<stop  offset="0" style="stop-color:#FFF6BF"/>
					<stop  offset="0.5644" style="stop-color:#FFAC00"/>
					<stop  offset="1" style="stop-color:#FFC900"/>
				</radialGradient>
				<circle fill="url(#SVGID_4_)" stroke="#D19A00" stroke-miterlimit="10" cx="1291.742" cy="769.399" r="14.728"/>
				
					<radialGradient id="SVGID_5_" cx="1065.4351" cy="614.1895" r="14.7278" fx="1057.1766" fy="604.0969" gradientTransform="matrix(1 0 0 -1 244 1407.9883)" gradientUnits="userSpaceOnUse">
					<stop  offset="0" style="stop-color:#FFF6BF"/>
					<stop  offset="0.5644" style="stop-color:#FFAC00"/>
					<stop  offset="1" style="stop-color:#FFC900"/>
				</radialGradient>
				<circle fill="url(#SVGID_5_)" stroke="#D19A00" stroke-miterlimit="10" cx="1309.433" cy="793.799" r="14.728"/>
				
					<radialGradient id="SVGID_6_" cx="1089.188" cy="598.4038" r="14.7285" fx="1080.9291" fy="588.3108" gradientTransform="matrix(1 0 0 -1 244 1407.9883)" gradientUnits="userSpaceOnUse">
					<stop  offset="0" style="stop-color:#FFF6BF"/>
					<stop  offset="0.5644" style="stop-color:#FFAC00"/>
					<stop  offset="1" style="stop-color:#FFC900"/>
				</radialGradient>
				<circle fill="url(#SVGID_6_)" stroke="#D19A00" stroke-miterlimit="10" cx="1333.189" cy="809.584" r="14.728"/>
				
					<radialGradient id="SVGID_7_" cx="1118.6484" cy="614.1895" r="14.7278" fx="1110.39" fy="604.0969" gradientTransform="matrix(1 0 0 -1 244 1407.9883)" gradientUnits="userSpaceOnUse">
					<stop  offset="0" style="stop-color:#FFF6BF"/>
					<stop  offset="0.5644" style="stop-color:#FFAC00"/>
					<stop  offset="1" style="stop-color:#FFC900"/>
				</radialGradient>
				<circle fill="url(#SVGID_7_)" stroke="#D19A00" stroke-miterlimit="10" cx="1362.648" cy="793.799" r="14.728"/>
				
					<radialGradient id="SVGID_8_" cx="1140.2114" cy="637.8682" r="14.7278" fx="1131.9529" fy="627.7756" gradientTransform="matrix(1 0 0 -1 244 1407.9883)" gradientUnits="userSpaceOnUse">
					<stop  offset="0" style="stop-color:#FFF6BF"/>
					<stop  offset="0.5644" style="stop-color:#FFAC00"/>
					<stop  offset="1" style="stop-color:#FFC900"/>
				</radialGradient>
				<circle fill="url(#SVGID_8_)" stroke="#D19A00" stroke-miterlimit="10" cx="1384.211" cy="770.12" r="14.728"/>
			</g>
			<g>
				<radialGradient id="SVGID_9_" cx="905.5059" cy="769.3994" r="14.7278" gradientUnits="userSpaceOnUse">
					<stop  offset="0" style="stop-color:#FFFFFF"/>
					<stop  offset="0.5215" style="stop-color:#D3D3D3"/>
					<stop  offset="1" style="stop-color:#727272"/>
				</radialGradient>
				<circle fill="url(#SVGID_9_)" stroke="#727272" stroke-miterlimit="10" cx="905.506" cy="769.399" r="14.728"/>
				<radialGradient id="SVGID_10_" cx="923.1997" cy="793.7988" r="14.7278" gradientUnits="userSpaceOnUse">
					<stop  offset="0" style="stop-color:#FFFFFF"/>
					<stop  offset="0.5215" style="stop-color:#D3D3D3"/>
					<stop  offset="1" style="stop-color:#727272"/>
				</radialGradient>
				<circle fill="url(#SVGID_10_)" stroke="#727272" stroke-miterlimit="10" cx="923.198" cy="793.799" r="14.728"/>
				<radialGradient id="SVGID_11_" cx="946.9521" cy="809.584" r="14.7288" gradientUnits="userSpaceOnUse">
					<stop  offset="0" style="stop-color:#FFFFFF"/>
					<stop  offset="0.5215" style="stop-color:#D3D3D3"/>
					<stop  offset="1" style="stop-color:#727272"/>
				</radialGradient>
				<circle fill="url(#SVGID_11_)" stroke="#727272" stroke-miterlimit="10" cx="946.954" cy="809.584" r="14.728"/>
				<radialGradient id="SVGID_12_" cx="976.4131" cy="793.7988" r="14.7278" gradientUnits="userSpaceOnUse">
					<stop  offset="0" style="stop-color:#FFFFFF"/>
					<stop  offset="0.5215" style="stop-color:#D3D3D3"/>
					<stop  offset="1" style="stop-color:#727272"/>
				</radialGradient>
				<circle fill="url(#SVGID_12_)" stroke="#727272" stroke-miterlimit="10" cx="976.413" cy="793.799" r="14.728"/>
				<radialGradient id="SVGID_13_" cx="997.9756" cy="770.1201" r="14.7278" gradientUnits="userSpaceOnUse">
					<stop  offset="0" style="stop-color:#FFFFFF"/>
					<stop  offset="0.5215" style="stop-color:#D3D3D3"/>
					<stop  offset="1" style="stop-color:#727272"/>
				</radialGradient>
				<circle fill="url(#SVGID_13_)" stroke="#727272" stroke-miterlimit="10" cx="997.976" cy="770.12" r="14.728"/>
			</g>
			<g>
				
					<radialGradient id="SVGID_14_" cx="303.6973" cy="638.5889" r="14.7278" fx="295.4388" fy="628.4963" gradientTransform="matrix(1 0 0 -1 244 1407.9883)" gradientUnits="userSpaceOnUse">
					<stop  offset="0" style="stop-color:#FFF6BF"/>
					<stop  offset="0.5644" style="stop-color:#FFAC00"/>
					<stop  offset="1" style="stop-color:#FFC900"/>
				</radialGradient>
				<circle fill="url(#SVGID_14_)" stroke="#D19A00" stroke-miterlimit="10" cx="547.697" cy="769.399" r="14.728"/>
				
					<radialGradient id="SVGID_15_" cx="321.3906" cy="614.1895" r="14.7278" fx="313.1322" fy="604.0969" gradientTransform="matrix(1 0 0 -1 244 1407.9883)" gradientUnits="userSpaceOnUse">
					<stop  offset="0" style="stop-color:#FFF6BF"/>
					<stop  offset="0.5644" style="stop-color:#FFAC00"/>
					<stop  offset="1" style="stop-color:#FFC900"/>
				</radialGradient>
				<circle fill="url(#SVGID_15_)" stroke="#D19A00" stroke-miterlimit="10" cx="565.389" cy="793.799" r="14.728"/>
				
					<radialGradient id="SVGID_16_" cx="345.1436" cy="598.4038" r="14.7285" fx="336.8846" fy="588.3108" gradientTransform="matrix(1 0 0 -1 244 1407.9883)" gradientUnits="userSpaceOnUse">
					<stop  offset="0" style="stop-color:#FFF6BF"/>
					<stop  offset="0.5644" style="stop-color:#FFAC00"/>
					<stop  offset="1" style="stop-color:#FFC900"/>
				</radialGradient>
				<circle fill="url(#SVGID_16_)" stroke="#D19A00" stroke-miterlimit="10" cx="589.145" cy="809.584" r="14.728"/>
				
					<radialGradient id="SVGID_17_" cx="374.6045" cy="614.1895" r="14.7275" fx="366.3462" fy="604.0971" gradientTransform="matrix(1 0 0 -1 244 1407.9883)" gradientUnits="userSpaceOnUse">
					<stop  offset="0" style="stop-color:#FFF6BF"/>
					<stop  offset="0.5644" style="stop-color:#FFAC00"/>
					<stop  offset="1" style="stop-color:#FFC900"/>
				</radialGradient>
				<circle fill="url(#SVGID_17_)" stroke="#D19A00" stroke-miterlimit="10" cx="618.604" cy="793.799" r="14.728"/>
				
					<radialGradient id="SVGID_18_" cx="396.167" cy="637.8682" r="14.7278" fx="387.9085" fy="627.7756" gradientTransform="matrix(1 0 0 -1 244 1407.9883)" gradientUnits="userSpaceOnUse">
					<stop  offset="0" style="stop-color:#FFF6BF"/>
					<stop  offset="0.5644" style="stop-color:#FFAC00"/>
					<stop  offset="1" style="stop-color:#FFC900"/>
				</radialGradient>
				<circle fill="url(#SVGID_18_)" stroke="#D19A00" stroke-miterlimit="10" cx="640.167" cy="770.12" r="14.728"/>
			</g>
			<circle fill="#3A3837" cx="1239.833" cy="780.905" r="4.44"/>
			<linearGradient id="SVGID_19_" gradientUnits="userSpaceOnUse" x1="905.4868" y1="844.7861" x2="905.4868" y2="146.8713">
				<stop  offset="0" style="stop-color:#5E3F2F"/>
				<stop  offset="0.6442" style="stop-color:#4F3529"/>
				<stop  offset="0.9387" style="stop-color:#4F3529"/>
			</linearGradient>
			<path fill="url(#SVGID_19_)" stroke="#3D251A" stroke-width="3" stroke-miterlimit="10" d="M1490.433,40.289H320.542h-49.99
				v955.343h49.99h1169.891h49.989V40.289H1490.433z M1490.433,945.643H320.542V90.277h1169.891V945.643z"/>
			<linearGradient id="SVGID_20_" gradientUnits="userSpaceOnUse" x1="329.9634" y1="293.3423" x2="329.9633" y2="814.4546">
				<stop  offset="0" style="stop-color:#5E3F2F"/>
				<stop  offset="0.6442" style="stop-color:#4F3529"/>
				<stop  offset="0.9387" style="stop-color:#4F3529"/>
			</linearGradient>
			<polyline fill="url(#SVGID_20_)" stroke="#3D251A" stroke-width="2" stroke-miterlimit="10" points="324.006,91.578 
				339.385,107.379 339.385,945.643 320.542,945.643 320.542,91.578 324.006,91.578 			"/>
			<linearGradient id="SVGID_21_" gradientUnits="userSpaceOnUse" x1="907.2192" y1="102.1162" x2="907.2192" y2="95.6278">
				<stop  offset="0" style="stop-color:#5E3F2F"/>
				<stop  offset="0.6442" style="stop-color:#4F3529"/>
				<stop  offset="0.9387" style="stop-color:#4F3529"/>
			</linearGradient>
			<polygon fill="url(#SVGID_21_)" stroke="#3D251A" stroke-width="2" stroke-miterlimit="10" points="324.006,91.578 
				339.385,107.379 1490.433,107.379 1490.433,86.331 			"/>
			<polygon fill="#4F2F25" points="778.098,982.174 284.792,982.174 279.859,342.133 306.498,375.824 306.498,965.401 
				744.553,965.401 			"/>
			<polygon fill="#4F2F25" points="1030.671,982.174 1523.977,982.174 1528.91,342.133 1502.271,375.824 1502.271,965.401 
				1064.216,965.401 			"/>
			<polygon fill="#6B3F37" points="1030.671,52.13 1523.977,52.13 1528.91,586.393 1502.271,552.703 1502.271,68.903 
				1064.216,68.903 			"/>
			<polygon fill="#6B3F37" points="779.879,52.13 286.573,52.13 281.64,586.393 308.278,552.703 308.278,68.903 746.334,68.903 			
				"/>
			<polygon fill="#6B3F37" points="816.528,52.13 323.222,52.13 318.289,586.393 344.927,552.703 344.927,68.903 782.983,68.903 			
				"/>
			<polygon opacity="0.23" fill="#FFFFFF" points="361.748,124.479 843.215,124.479 1457.475,903.677 916.881,903.677 			"/>
			<polygon opacity="0.23" fill="#FFFFFF" points="923.2,124.479 1128.415,124.479 1254.701,319.261 1075.797,319.261 			"/>
		</g>
		<linearGradient id="SVGID_22_" gradientUnits="userSpaceOnUse" x1="786.9355" y1="469.189" x2="1133.4719" y2="677.1128">
			<stop  offset="0" style="stop-color:#FFD8BF"/>
			<stop  offset="1" style="stop-color:#EFA57F"/>
		</linearGradient>
		<path fill="url(#SVGID_22_)" d="M559.826,484.435c0-139.462,113.061-252.53,252.523-252.53
			c139.469,0,252.529,113.067,252.529,252.53c0,139.475-113.06,252.536-252.529,252.536
			C672.887,736.971,559.826,623.91,559.826,484.435z"/>
		<g>
			<path fill="#6B5038" d="M893.585,705.798c0-2.229,1.832-4.062,4.08-4.062c2.256,0,4.083,1.833,4.083,4.062
				c0,2.262-1.827,4.094-4.083,4.094C895.417,709.892,893.585,708.06,893.585,705.798z"/>
			<g>
				<path fill="#6B5038" d="M921.013,641.59c0-2.248,1.826-4.074,4.082-4.074c2.248,0,4.074,1.826,4.074,4.074
					c0,2.262-1.826,4.082-4.074,4.082C922.839,645.672,921.013,643.853,921.013,641.59z"/>
				<path fill="#6B5038" d="M960.651,678.281c0-2.248,1.825-4.061,4.074-4.061c2.256,0,4.081,1.812,4.081,4.061
					c0,2.263-1.825,4.075-4.081,4.075C962.476,682.356,960.651,680.544,960.651,678.281z"/>
			</g>
		</g>
		<path d="M812.349,743.086c-142.617,0-258.638-116.028-258.638-258.651c0-142.61,116.021-258.639,258.638-258.639
			c142.616,0,258.645,116.028,258.645,258.639C1070.994,627.058,954.965,743.086,812.349,743.086z M812.349,238.026
			c-135.864,0-246.408,110.537-246.408,246.408c0,135.877,110.543,246.421,246.408,246.421
			c135.87,0,246.421-110.544,246.421-246.421C1058.77,348.563,948.219,238.026,812.349,238.026z"/>
		<path fill="#22B573" d="M742.222,67.667c0-34,27.561-61.552,61.548-61.552c33.999,0,61.562,27.552,61.562,61.552
			s-27.563,61.555-61.562,61.555C769.783,129.222,742.222,101.667,742.222,67.667z"/>
		<path opacity="0.34" fill="url(#m2)" d="M742.222,67.667c0-34,27.561-61.552,61.548-61.552c33.999,0,61.562,27.552,61.562,61.552
			s-27.563,61.555-61.562,61.555C769.783,129.222,742.222,101.667,742.222,67.667z"/>
		<path fill="#4AD392" d="M807.697,6.31c-0.007,0-0.013,0-0.026,0l-6.156-0.084c-4.175,0.155-8.244,0.715-12.171,1.658
			l-23.701,11.525c-3.935,3.109-7.458,6.693-10.526,10.66l-10.525,54.352c0.013,0.034,0.013,0.06,0.027,0.088l12.787,10.485
			C766.662,14.278,807.596,6.33,807.697,6.31z"/>
		<path fill="#1C995D" d="M799.105,84.536l34.737,7.894l26.932-1.57c1.759-4.323,3-8.915,3.745-13.667l-1.597-26.421
			c-5.021-17.607-17.654-31.966-34.141-39.32c0.309,0.443,0.57,0.826,0.899,1.286C867.901,66.25,799.105,84.536,799.105,84.536z"/>
		<path fill="#1D1D1B" d="M803.77,135.337c-37.309,0-67.665-30.354-67.665-67.67S766.461,0,803.77,0
			c37.322,0,67.675,30.352,67.675,67.667S841.092,135.337,803.77,135.337z M803.77,12.227c-30.571,0-55.434,24.877-55.434,55.44
			c0,30.562,24.863,55.439,55.434,55.439c30.575,0,55.446-24.877,55.446-55.439C859.216,37.104,834.345,12.227,803.77,12.227z"/>
		<path fill="#8CC63F" d="M1047.184,306.952C1032.913,185.145,929.41,90.597,803.77,90.597
			c-128.588,0-233.976,99.039-244.247,224.988C589.83,309.369,713.954,290.466,1047.184,306.952z"/>
		<path opacity="0.18" fill="url(#Nouveau_motif)" d="M1047.184,306.952C1032.913,185.145,929.41,90.597,803.77,90.597
			c-128.588,0-233.976,99.039-244.247,224.988C589.83,309.369,713.954,290.466,1047.184,306.952z"/>
		<path fill="#BAEA6E" d="M716.848,106.533c-0.262,0.101-0.524,0.194-0.792,0.295l-51.989,27.501
			c-0.054,0.033-0.101,0.067-0.154,0.101l-50.989,47.586c-0.074,0.101-0.155,0.201-0.235,0.295l-38.946,68.878
			c-0.055,0.141-0.101,0.275-0.148,0.423l-9.424,57.205c0,0,0,2.235,0.026,5.854c3.168-0.591,6.947-1.249,11.505-1.947
			c0.229-2.739,0.464-5.538,0.706-8.492C588.441,155.26,801.011,92.625,807.703,90.691c-1.309-0.021-2.605-0.095-3.933-0.095
			c-15.849,0-31.349,1.524-46.365,4.397L716.848,106.533z"/>
		<path fill="#7EAA39" d="M837.83,298.441l207.93,4.779l-12.922-54.647c-0.274-0.718-0.562-1.443-0.838-2.162l-33.725-49.694
			l-31-43.323l-36.113-27.092c-8.68-5.289-17.708-10.062-27.066-14.258L855.35,96.102c-1.438-0.302-2.874-0.638-4.317-0.919
			l-17.191,3.437C1104.025,258.903,837.83,298.441,837.83,298.441z"/>
		<path fill="#1D1D1B" d="M552.771,323.204l0.659-8.123c10.538-129.305,120.504-230.6,250.341-230.6
			c127.432,0,234.68,95.333,249.481,221.759l0.839,7.169l-7.216-0.363c-88.23-4.356-168.877-6.572-239.688-6.572
			c-155.942,0-224.291,10.559-246.428,15.097L552.771,323.204z M803.77,96.712c-120.814,0-223.545,92.191-237.358,211.341
			c28.998-5.102,99.279-13.808,240.775-13.808c69.053,0,147.389,2.101,232.962,6.236C1022.93,183.815,922.563,96.712,803.77,96.712z
			"/>
		<path fill="#22B573" d="M539.453,318.525c0,0,1.349,50.956,25.682,64.958c24.333,14.009,493.076-13.996,498.803,0
			c5.731,14.009-3.236-56.017,0-73.523C1067.173,292.446,564.463,294.594,539.453,318.525z"/>
		<path opacity="0.18" fill="url(#m2)" d="M539.453,318.525c0,0,1.349,50.956,25.682,64.958c24.333,14.009,493.076-13.996,498.803,0
			c5.731,14.009-3.236-56.017,0-73.523C1067.173,292.446,564.463,294.594,539.453,318.525z"/>
		<path fill="#4AD392" d="M539.533,320.27c0.014,0.336,0.041,0.699,0.061,1.114l11.122,45.753c2.176,4.175,4.813,7.935,7.902,11.09
			l16.392,7.444c1.014,0.114,2.088,0.221,3.229,0.329c-3.531-6.344-17.258-32.349-24.528-65.234
			c-0.611-2.745-1.209-5.055-1.779-7.048c-5.94,1.396-10.036,2.879-12.022,4.47C539.734,319.102,539.6,319.827,539.533,320.27z"/>
		<path fill="#1C995D" d="M1063.938,309.959c1.986-10.781-187.779-14.11-339.795-9.492l-98.07,4.591
			c-42.331,2.928-73.478,6.828-83.809,11.734v10.888c143.712-18.346,481.069-12.23,484.123-4.477
			c3.06,7.759,16.317,5.497,10.203,19.782c-6.123,14.277,0,35.657,0,35.657l29.052-6.887
			C1064.737,353.229,1061.891,321.056,1063.938,309.959z"/>
		<path fill="#1D1D1B" d="M631.563,395.035c-56.654,0-65.931-2.611-70.173-5.055c-27.188-15.647-29.288-65.602-29.442-71.248
			l-0.093-3.322l2.403-2.296c22.52-21.561,296.442-22.178,327.596-22.178c196.472,0,204.823,10.029,207.562,13.325
			c1.665,2,2.363,4.571,1.899,7.055c-1.402,7.599-0.046,29.321,0.955,45.189c1.671,26.864,1.765,30.435-1.471,33.865l-2.228,2.37
			l-3.438,0.094c-2.772-0.013-5.021-1.275-6.712-3.786c-3.773-0.832-15.48-2.101-51.586-2.101c-45.586,0-111.712,1.913-181.705,3.94
			C754.76,392.928,682.015,395.035,631.563,395.035z M547.172,322.673c1.148,15.318,6.417,45.498,21.708,54.305
			c1.948,0.859,12.271,3.047,62.683,3.047c50.238,0,122.883-2.101,193.123-4.142c70.114-2.034,136.348-3.94,182.148-3.94
			c27.434,0,42.692,0.672,51.398,1.906c-0.228-4.927-0.604-11.008-0.94-16.406c-0.98-15.586-2.053-32.932-1.343-43.625
			c-16.472-4.061-84.86-7.874-194.096-7.874C707.476,305.945,570.875,313.329,547.172,322.673z"/>
		<polygon fill="#6B5038" points="712.545,487.133 636.8,468.821 644.31,437.781 720.05,456.094 		"/>
		<path fill="#89674A" d="M644.31,437.781l-3.644,15.09c1.248-0.537,2.382-1.786,4.095-1.705c0.114,2.201-0.215,4.645,0.329,6.753
			c1.43-3.249,13.841-9.169,12.317-2.302c1.812-1.92,6.417-3.027,6.988,0.369c1.538-1.839,4.235-2.154,6.37-2.934
			c0.699,4.961,4.672,8.781,9.895,5.035c-0.778,1.168-0.659,1.98-0.577,3.296c2.034-1.155,4.256-3.249,6.725-2.954
			c-0.69,4.081-1.838,10.512-0.221,14.453c1.329-2.007,2.611-4.33,4.209-6.465c1.396-1.886,2.995-7.31,4.773-8.478
			c6.732-4.424,5.738,7.639,5.853,10.746c2.504-0.798,3.41-3.899,6.002-4.9c0.288,0.839,1.41,1.873,1.591,2.605
			c1.329-1.336,1.342-3.222,3.006-4.168c0.914,2.537,0.994,4.86,2.424,7.222c1.202-0.658,2.323-2.181,3.35-4.014l2.256-9.337
			L644.31,437.781z"/>
		<path fill="#1D1D1B" d="M714.793,490.818l-81.679-19.768l8.948-36.974l81.679,19.769L714.793,490.818z M640.491,466.559
			l69.798,16.889l6.068-25.105l-69.798-16.875L640.491,466.559z"/>
		<polygon fill="#6B5038" points="902.982,484.435 978.714,466.109 971.21,435.069 895.478,453.396 		"/>
		<path fill="#89674A" d="M971.21,435.069l3.651,15.104c-1.255-0.551-2.39-1.799-4.101-1.705c-0.115,2.202,0.221,4.645-0.33,6.739
			c-1.422-3.249-13.841-9.169-12.31-2.309c-1.82-1.899-6.424-3.021-6.996,0.376c-1.53-1.839-4.228-2.154-6.362-2.92
			c-0.699,4.96-4.687,8.767-9.896,5.021c0.765,1.168,0.659,1.98,0.578,3.296c-2.04-1.155-4.263-3.249-6.726-2.934
			c0.691,4.075,1.839,10.505,0.214,14.446c-1.328-2.027-2.604-4.33-4.202-6.478c-1.402-1.886-3.008-7.296-4.779-8.478
			c-6.733-4.411-5.733,7.659-5.854,10.74c-2.509-0.778-3.403-3.893-6-4.9c-0.288,0.839-1.41,1.873-1.599,2.625
			c-1.314-1.349-1.334-3.222-2.993-4.168c-0.914,2.517-0.993,4.86-2.431,7.209c-1.194-0.658-2.322-2.168-3.342-4l-2.256-9.337
			L971.21,435.069z"/>
		<path fill="#1D1D1B" d="M891.786,451.133l81.678-19.756l8.948,36.974l-81.686,19.769L891.786,451.133z M968.96,438.755
			l-69.798,16.889l6.075,25.091l69.792-16.875L968.96,438.755z"/>
		<path fill="#FFFFFF" d="M720.854,534.074c0,0-31.441,25.984-74.771,0C602.753,508.083,712.444,471.774,720.854,534.074z"/>
		<path fill="#FFFFFF" d="M720.854,534.074c0,0-31.441,25.984-74.771,0C602.753,508.083,712.444,471.774,720.854,534.074z"/>
		<g>
			<path fill="#EDBA9D" d="M718.821,525.59c0.827,2.43,1.484,5.021,1.913,7.853C720.533,530.718,719.909,528.093,718.821,525.59z"/>
			<path fill="#EDBA9D" d="M646.083,534.074c-6.404-3.84-9.391-7.9-9.935-11.841c-2.437,3.954-3.806,8.351-3.806,12.949
				c0,17.687,19.822,32.012,44.263,32.012c24.434,0,44.249-14.325,44.249-32.012c0-0.356-0.066-0.705-0.073-1.047
				C719.996,534.766,688.87,559.73,646.083,534.074z"/>
		</g>
		<g>
			<path fill="#E0A486" d="M899.572,525.59c-0.819,2.43-1.476,5.021-1.907,7.853C897.868,530.718,898.492,528.093,899.572,525.59z"
				/>
			<path fill="#E0A486" d="M972.316,534.074c6.398-3.84,9.393-7.9,9.942-11.841c2.429,3.954,3.799,8.351,3.799,12.949
				c0,17.687-19.822,32.012-44.257,32.012c-24.44,0-44.256-14.325-44.256-32.012c0-0.356,0.062-0.705,0.075-1.047
				C898.404,534.766,929.531,559.73,972.316,534.074z"/>
		</g>
		<path d="M669.302,509.781c0.296,0.866,0.558,1.752,0.558,2.725c0,4.767-3.861,8.62-8.62,8.62c-3.041,0-5.579-1.665-7.122-4.048
			c-0.925,1.859-1.497,3.914-1.497,6.128c0,7.599,6.169,13.761,13.768,13.761c7.592,0,13.754-6.162,13.754-13.761
			C680.143,516.614,675.505,511.11,669.302,509.781z"/>
		<path fill="#FFFFFF" d="M897.544,534.074c0,0,31.443,25.984,74.772,0C1015.647,508.083,905.956,471.774,897.544,534.074z"/>
		<path d="M912.581,509.781c-0.289,0.866-0.551,1.752-0.551,2.725c0,4.767,3.854,8.62,8.62,8.62c3.034,0,5.585-1.665,7.122-4.048
			c0.919,1.859,1.498,3.914,1.498,6.128c0,7.599-6.163,13.761-13.761,13.761c-7.6,0-13.761-6.162-13.761-13.761
			C901.748,516.614,906.393,511.11,912.581,509.781z"/>
		<path fill="#1D1D1B" d="M757.559,671.925c-2.805,0-5.336-1.946-5.96-4.806c-0.732-3.303,1.356-6.552,4.659-7.283l114.658-25.227
			c3.27-0.751,6.559,1.35,7.291,4.659c0.726,3.296-1.363,6.551-4.659,7.283l-114.665,25.226
			C758.438,671.865,758.003,671.925,757.559,671.925z"/>
		<path fill="#1D1D1B" d="M763.339,570.403c0.638,0.631,15.876,14.99,52.769,15.137l0,0c0.188,0,0.362,0,0.544,0l0,0
			c36.899-0.147,52.136-14.52,52.969-15.345l-4.443-4.182c-0.135,0.134-14.427,13.337-48.794,13.412
			c-34.255-0.074-48.553-13.19-48.58-13.19l0,0L763.339,570.403z"/>
		<path fill="#FFD8BF" d="M1063.629,445.843l8.975-9.156l18.742,1.457l13.338,8.244l9.679,15.492l-0.423,28.838l-11.162,22.763
			l-20.77,22.977l-27.737,0.182c0,0,43.727-17.178,30.905-55.863c-15.788-8.84-16.7-3.457-16.7-3.457l4.725-8.082l13.036-4
			l10.941,1.497C1097.178,466.733,1106.361,442.265,1063.629,445.843z"/>
		<path fill="#E8B8A7" d="M1054.594,440.131l9.035,5.712l20.682-2.853l15.339,14.124v20.265l-1.719,12.989l-5.934,21.031
			l-21.002,18.117l-16.722,7.122C1054.271,536.639,1053.104,452.59,1054.594,440.131z"/>
		<g>
			<path d="M1054.526,440.191c-0.039,0.06-0.067,0.141-0.107,0.195L1054.526,440.191z"/>
			<path d="M1094.762,433.6c-11.773-5.068-25.883-3.242-38.706,5c-0.604,0.41-1.087,0.947-1.463,1.531l9.035,5.712
				c9.418-5.397,18.984-6.464,27.146-2.967c17.702,7.579,23.387,34.094,12.68,59.078c-9.733,22.722-30.186,36.691-47.109,32.945
				l-4.873,9.123c0.409,0.389-3.041-1.061-2.504-0.839c0.061,0.033,0.121,0.047,0.182,0.081c22.91,8.84,50.849-7.545,63.603-37.323
				C1125.66,475.815,1117.585,443.367,1094.762,433.6z"/>
		</g>
		<path fill="none" stroke="#000000" stroke-width="3" stroke-miterlimit="10" d="M1097.709,470.573
			c2.41-7.163-15.593-5.518-18.842-4.29c-5.008,1.92-14.58,8.109-15.157,13.566c2.336-3.685,8.968-2.745,12.512-1.993
			c4.276,0.899,6.499,1.349,8.291,5.383c3.618,8.209,1,21.266-2.658,29.354c-2.955,6.565-12.439,17.614-19.851,10.901
			c-3.275-2.987-2.671-7.901-2.168-11.854c0.799-6.33,1.551-11.096,7.768-14.211"/>
		<g>
			<path fill="#FFD8BF" d="M559.732,445.843l-8.976-9.156l-18.742,1.457l-13.345,8.244l-9.672,15.492l0.417,28.838l11.169,22.763
				l20.763,22.977l27.75,0.182c0,0-43.74-17.178-30.918-55.863c15.788-8.84,16.7-3.457,16.7-3.457l-4.725-8.082l-13.023-4
				l-10.941,1.497C526.189,466.733,516.999,442.265,559.732,445.843z"/>
			<path fill="#E8B8A7" d="M571.204,439.365l-9.036,5.713l-20.688-2.866l-15.332,14.137v20.246l1.711,12.996l5.927,21.03
				l21.011,18.131l13.203,7.417C568.001,536.169,572.694,451.812,571.204,439.365z"/>
			<g>
				<path d="M568.828,440.191c0.046,0.06,0.08,0.141,0.108,0.195L568.828,440.191z"/>
				<path d="M529.21,436.07c11.786-5.048,25.89-3.235,38.704,5.008c0.611,0.403,1.087,0.946,1.477,1.523l-9.042,5.719
					c-9.417-5.396-18.99-6.463-27.146-2.953c-17.701,7.565-23.379,34.08-12.679,59.064c9.733,22.716,30.192,36.685,49.177,31.308
					l4.054,10.384c-2.484,2.021,0.537-0.241,0,0c-0.054,0.027,0.053-0.013,0,0c-22.911,8.841-49.775-7.927-62.535-37.711
					C498.318,478.292,506.387,445.843,529.21,436.07z"/>
			</g>
			<path fill="none" stroke="#000000" stroke-width="3" stroke-miterlimit="10" d="M525.645,470.573
				c-2.396-7.163,15.593-5.518,18.843-4.29c5.02,1.92,14.58,8.109,15.157,13.566c-2.336-3.685-8.961-2.745-12.499-1.993
				c-4.283,0.899-6.512,1.349-8.297,5.383c-3.625,8.209-1.007,21.266,2.658,29.354c2.954,6.565,12.446,17.614,19.856,10.901
				c3.27-2.987,2.659-7.901,2.163-11.854c-0.807-6.33-1.558-11.096-7.768-14.211"/>
		</g>
		<path fill="#567EAF" d="M632.033,726.948c-31.516,0.746-100.178,63.543-100.178,63.543s-30.369,479.973-26.772,495.258
			c3.586,15.292,33.102,134.541,53.803,152.888c20.708,18.345,410.431,0,421.789,0c11.372,0,117.256-26.469,117.256-26.469
			l33.443-39.477c0,0,9.169-563.943,0-585.933c-9.175-21.971-107.872-74.934-107.872-74.934L632.033,726.948z"/>
		<polygon fill="#426B93" points="820.114,765.64 820.114,1297.979 869.621,751.013 		"/>
		<polygon fill="#3F6382" points="820.114,1297.979 893.585,775.4 844.864,782.818 		"/>
		<polygon fill="#3F6382" points="820.114,1297.979 788.867,785.322 820.114,785.039 		"/>
		<path fill="#4C7791" d="M1074.188,1418.027c13.935-3.403,23.742-5.859,23.742-5.859l33.443-39.477c0,0,9.169-563.943,0-585.933
			c-9.175-21.971-107.872-74.934-107.872-74.934l-10.673,0.403l19.675,19.197c0,0,60.903,48.022,67.146,122.809
			c6.235,74.785,12.989,401.448-20.971,542.869C1076.866,1404.677,1075.417,1411.57,1074.188,1418.027z"/>
		<path fill="#6392C1" d="M589.261,1444.482c-27.932-60.581-37.443-146.142-49.808-158.733
			c-14.029-14.285,7.9-474.946,14.257-495.258c6.35-20.306,56.198-47.405,56.198-47.405l-7.592-5.471
			c-32.442,18.124-70.461,52.876-70.461,52.876s-30.369,479.973-26.772,495.258c3.586,15.292,33.102,134.541,53.803,152.888
			C561.907,1441.301,572.828,1443.194,589.261,1444.482z"/>
		<path fill="#4C7791" d="M1097.93,1412.168l33.443-39.477c0,0-100.905-5.397-131.487,14.781
			c-30.569,20.185-65.227,4.282-98.138,0.188c-32.912-4.075-128.125,56.822-128.125,56.822l2.006,0.974
			c100.636-2.31,199.413-6.819,205.044-6.819C992.046,1438.637,1097.93,1412.168,1097.93,1412.168z"/>
		<polygon fill="#6D665A" points="625.119,968.335 580.44,931.027 617.426,886.729 662.106,924.031 		"/>
		<polygon fill="#89847D" points="700.395,1025.553 665.019,1018.438 676.391,961.844 711.766,968.959 		"/>
		<polygon fill="#776E62" points="642.976,1056.606 608.337,1066.723 599.564,1036.704 634.194,1026.573 		"/>
		<path d="M674.927,1452.907c0,0,0,0-0.013,0c-109.147,0-116.531-6.552-120.082-9.7c-23.797-21.084-55.393-154.713-55.708-156.062
			c-3.611-15.392,21.548-416.74,26.635-497.044l0.148-2.456l1.826-1.679c7.203-6.579,71.301-64.354,104.154-65.133l393.045-15.184
			l1.457,0.779c10.311,5.53,100.897,54.66,110.624,77.979c9.398,22.508,1.409,530.534,0.477,588.377l-0.041,2.182l-36.127,42.672
			l-1.913,0.477c-10.908,2.719-106.959,26.636-118.733,26.636c-1.383,0-10.264,0.343-22.547,0.826
			C907.527,1447.584,773.106,1452.907,674.927,1452.907z M537.802,793.356c-12.043,190.545-28.999,476.806-26.743,491.15
			c10.001,42.565,35.892,135.367,51.881,149.544c2.155,1.497,16.87,6.626,111.974,6.626c97.945,0,232.19-5.323,282.73-7.316
			c14.841-0.585,21.473-0.84,23.031-0.84c7.613,0,73.041-15.621,113.866-25.796l30.751-36.309
			c3.639-224.438,6.727-562.869,0.41-581.375c-5.968-14.285-66.086-50.795-103.623-71.04l-389.81,15.043
			C608.969,733.614,557.892,775.266,537.802,793.356z"/>
		<path fill="#567EAF" d="M599.564,730.514c-24.636-1.981-134.77,32.146-134.77,32.146s-97.723,53.615-95.682,89.3
			c2.027,35.683-52.956,24.439-24.448,61.628c28.522,37.194,2.041,13.593-18.325,18.265c-20.36,4.665-26.475,18.93-22.407,37.263
			c0,0,112.699,14.941,110.323,82.833c-2.37,67.879,125.989,359.066-210.059,194.103c0,0-24.447-20.372-14.258-61.104
			c0,0-11.21-9.411-16.553,2.799c-5.35,12.217-36.651,103.549,170.313,122.962c94.702-9.129,147.934-47.633,165.157-69.2h33.409
			l11.446-90.299l17.789-126.714l8.941-50.661l19.124-139.636C599.564,834.196,629.173,732.896,599.564,730.514z"/>
		<path fill="#426B93" d="M527.948,1041.504c0,0,41.53,143.905,15.33,205.499c-26.206,61.616-34.422-5.497-34.422-5.497"/>
		<path fill="#6392C1" d="M344.37,940.109c14.821,1.872,29.71,13.283,41.148,22.634c10.687,8.733,23.648,17.085,34.261,26.783
			c11.176,10.217,27.125,21.548,36.558,33.282c6.545,8.142,9.438,22.198,13.397,32.018c7.653,18.958,7.068,34.457,7.647,54.884
			c0.429,15.211,3.618,29.556,3.06,44.888c-0.464,12.377-6.545,24.146-4.322,36.194c15.116-16.728,21.037-63.609,22.326-85.909
			c1.241-21.627-1-36.764-7.499-57.419c-4.49-14.238-5.081-32.791-12.431-45.545c-12.224-21.22-46.305-42.008-66.832-53.775
			c-20.319-11.646-50.801-22.406-74.577-20.366c4.296,2.651,4.504,5.753,7.263,9.276"/>
		<path fill="#6392C1" d="M446.684,773.077c-0.422,13.023,1.034,26.241,1.021,39.37c-0.014,16.131,6.041,25.702,11.982,40.121
			c11.418,27.757,18.285,58.689,19.742,88.548c9.149-12.318,10.639-26.885,10.861-41.739c0.229-16.051-8.767-26.214-16.956-39.391
			c-8.377-13.485-20.057-27.246-19.285-43.263c0.321-6.673,5.833-47.016-7.365-42.625"/>
		<g>
			<path fill="#567EAF" d="M498.773,1251.815c0,0,70.107-114.093,17.292-247.796"/>
			<path fill="#1D1D1B" d="M501.378,1253.421l-5.208-3.209c0.69-1.12,68.663-114.41,17.056-245.072l5.686-2.248
				C571.672,1136.474,502.091,1252.267,501.378,1253.421z"/>
		</g>
		<path fill="#426B93" d="M543.134,1150.857c-0.057,0-0.113-0.001-0.171-0.003c-2.76-0.093-4.922-2.405-4.829-5.165
			c1.826-54.391,8.006-232.494,10.851-240.725c0.597-1.726,2.252-5.05,5.643-11.805c6.282-12.517,16.795-33.467,23.875-52.697
			c11.074-30.076,6.762-37.282,5.177-38.774c-2.011-1.893-2.107-5.057-0.214-7.067c1.892-2.012,5.057-2.107,7.068-0.214
			c14.829,13.956-4.198,57.866-26.968,103.238c-2.358,4.698-4.589,9.145-5.089,10.476c-2.041,9.214-7.301,147.146-10.349,237.904
			C548.037,1148.728,545.817,1150.857,543.134,1150.857z"/>
		<path fill="#6392C1" d="M351.667,876.022c3.518,0.121,6.371,2.88,9.767,3.451c3.074,0.522,5.544-0.691,8.545-0.484
			c8.062,0.545,16.943,3.391,24.44,6.284c10.177,3.926,14.889,11.746,23.011,18.722c5.914,5.095,12.264,7.867,17.178,14.021
			c3.792,4.739,6.282,10.358,9.982,15.124c6.148,7.888,16.834,13.605,20.473,23.246c1.128-5.934-4.9-14.104-7.859-19.018
			c-4.907-8.156-6.559-16.204-10.848-24.595c-7.969-15.601-27-26.857-43.136-32.657c-5.276-1.919-23.991-2.88-26.978-8.483
			c-4.243-7.956,8.263-9.862,12.271-12.574c9.243-6.235,5.296-13.458,8.975-22.238c3.658-8.727,13.157-14.405,20.178-19.95
			c7.538-5.955,14.654-12.546,20.346-20.293c2.431-3.316,5.209-9.25,7.82-9.994c-12.062-0.021-20.527,2.772-30.381,9.947
			c-10.036,7.316-23.541,14.722-30.872,25.167c-6.82,9.692-12.727,22.567-17.808,33.06
			C362.561,863.438,357.809,868.592,351.667,876.022"/>
		<path fill="#1D1D1B" d="M297.818,969.187c-0.222-18.661,3.671-31.608,11.901-39.61c9.881-9.579,22.884-9.021,31.496-8.666
			c0.443,0.021,0.92,0.034,1.403,0.061c-16.869-26.481-16.372-31.624,4.31-45.754l2.625-1.798
			c12.029-8.278,13.398-13.433,13.546-14.493l-0.369-0.812l0.161-1.617c9.424-94.856,233.619-130.555,243.159-132.024l1.86,12.097
			c-2.229,0.342-222.43,35.342-232.728,120.035c0.9,4.511-0.215,14.164-18.688,26.885l-2.659,1.831
			c-6.028,4.122-10.793,7.357-10.995,9.352c-0.342,3.355,5.713,12.861,10.136,19.781c1.853,2.921,5.719,8.976,2.725,14.191
			c-2.879,4.994-8.753,4.752-15.002,4.483c-7.283-0.302-16.358-0.69-22.454,5.229c-5.618,5.457-8.37,15.769-8.189,30.684
			L297.818,969.187z"/>
		<g>
			<linearGradient id="SVGID_23_" gradientUnits="userSpaceOnUse" x1="188.1406" y1="1132.9961" x2="435.6729" y2="1132.9961">
				<stop  offset="0" style="stop-color:#FFD8BF"/>
				<stop  offset="1" style="stop-color:#EFA57F"/>
			</linearGradient>
			<path fill="url(#SVGID_23_)" d="M300.704,971.959c0,0-74.396,10.445-96.823,40.317c-22.427,29.871,6.37,92.306-13.942,172.669
				c-20.312,80.363,136.656,123.929,207.877,104.488c71.214-19.433,21.306-198.761,14.848-252.744
				C406.22,982.707,300.704,971.959,300.704,971.959z"/>
			<path d="M358.265,1300.154c-0.014,0-0.014,0-0.02,0c-55.178,0-130.607-21.568-161.741-61.555
				c-13.244-17.01-17.453-35.564-12.499-55.152c10.035-39.691,7.773-75.537,5.947-104.34c-1.906-30.127-3.41-53.917,9.036-70.503
				c23.682-31.536,97.729-42.263,100.871-42.7l0.725-0.121l0.745,0.088c4.498,0.45,110.463,11.915,117.411,70.088
				c1.148,9.545,3.719,23.359,6.706,39.369c14.13,75.772,37.792,202.601-26.019,220.014
				C387.72,1298.537,373.866,1300.154,358.265,1300.154z M300.818,978.122c-7.686,1.182-72.55,11.854-92.044,37.839
				c-9.733,12.963-8.364,34.759-6.611,62.381c1.866,29.656,4.202,66.556-6.297,108.101c-3.98,15.741-0.517,30.771,10.291,44.646
				c28.737,36.92,99.804,56.837,152.088,56.837c0.006,0,0.006,0,0.02,0c14.513,0,27.28-1.472,37.94-4.391
				c52.943-14.453,29.703-139.026,17.211-205.957c-3.021-16.219-5.639-30.234-6.82-40.156
				C401.065,991.131,309.975,979.197,300.818,978.122z"/>
		</g>
		<path fill="#567EAF" d="M1064.877,736.628c0,0,144.464,22.468,159.754,98.515c15.284,76.04,42.799,160.795,30.569,174.992
			c-12.224,14.176-18.338,60.515-4.584,87.029c13.76,26.528,18.346,119.78,18.346,136.608c0,16.815-10.701,82.553-9.169,107.014
			c1.524,24.454,4.584,41.275-1.531,62.676c-6.115,21.413-15.795,149.316-15.795,149.316s-151.167-0.611-168.333-28.852
			c-17.164-28.221,25.629-155.189,27.676-173.254c2.04-18.043,1.478-114.188-0.288-153.766
			c-1.752-39.585-17.608-149.29-17.608-149.29l0.396-136.944"/>
		<path fill="#4C7791" d="M1242.467,1552.778c0,0,9.68-127.903,15.795-149.316c6.115-21.4,3.055-38.222,1.531-62.676
			c-1.531-24.461,9.169-90.198,9.169-107.014c0-16.828-4.585-110.08-18.346-136.608c-13.754-26.515-7.64-72.854,4.584-87.029
			c12.23-14.197-15.285-98.952-30.569-174.992c-15.291-76.047-159.754-98.515-159.754-98.515l3.397,30.47
			c20.232,4.463,124.688,29.165,128.836,61.93c4.59,36.296,32.105,173.879,21.406,184.584c-10.7,10.699-3.062,43.539-22.931,53.111
			c-19.882,9.578-34.388,6.987-28.663,24.326c5.727,17.352,31.718,4.062,45.479,0c13.754-4.048,25.985-19.83,25.985,8.692
			c0,28.536-15.285,77.458-15.285,77.458s16.814,58.104,15.285,68.804c-1.524,10.7-4.397,25.984,0.101,41.276
			c4.489,15.285,6.208,50.372,0,57.279c-6.216,6.928,2.959,37.503-4.687,42.088c-7.645,4.585-30.576,59.124-29.046,66.261
			c1.531,7.128,18.347,34.992,18.347,34.992l-11.788,64.071C1229.74,1552.717,1242.467,1552.778,1242.467,1552.778z"/>
		<path fill="#1D1D1B" d="M1248.132,1558.926l-5.699-0.033c-25.817-0.101-155.492-2.142-173.522-31.785
			c-13.097-21.52,2.323-84.303,19.252-146.771c3.806-14.076,7.102-26.247,7.565-30.335c1.967-17.325,1.489-112.35-0.31-152.813
			c-1.717-38.833-17.406-147.597-17.56-148.705l-0.061-0.886l0.397-136.938l12.23,0.034l-0.397,136.502
			c1.249,8.693,15.903,110.879,17.607,149.438c1.692,38.221,2.437,135.413,0.249,154.732c-0.569,5.034-3.645,16.412-7.921,32.16
			c-10.41,38.43-32.065,118.384-20.607,137.227c10.854,17.834,99.938,25.191,157.445,25.87
			c1.987-25.407,10.049-125.46,15.58-144.839c4.692-16.426,3.611-30.295,2.236-47.814c-0.317-4.061-0.652-8.303-0.928-12.793
			c-0.952-15.198,2.478-44.352,5.505-70.068c1.886-15.915,3.652-30.951,3.652-37.335c0-16.936-4.806-109.02-17.654-133.789
			c-14.352-27.656-9.042-77.114,5.383-93.856c6.404-7.418-5.887-58.178-15.761-98.957c-5.619-23.233-11.445-47.224-16.179-70.818
			c-14.271-70.98-153.302-93.46-154.698-93.669l1.879-12.096c6.069,0.946,148.859,24.038,164.809,103.354
			c4.693,23.347,10.485,47.237,16.07,70.348c15.54,64.16,23.18,98.199,13.143,109.833c-10.666,12.364-16.459,55.821-3.799,80.236
			c15.022,28.944,19.037,127.198,19.037,139.414c0,7.103-1.726,21.763-3.733,38.759c-2.818,23.965-6.33,53.775-5.45,67.879
			c0.275,4.424,0.605,8.599,0.919,12.6c1.417,18.016,2.625,33.576-2.671,52.143c-4.705,16.461-12.25,104.074-15.586,148.096
			L1248.132,1558.926z"/>
		<g>
			<linearGradient id="SVGID_24_" gradientUnits="userSpaceOnUse" x1="6.2539" y1="857.0947" x2="326.6216" y2="857.0947">
				<stop  offset="0" style="stop-color:#EDEDED"/>
				<stop  offset="1" style="stop-color:#B2B2B2"/>
			</linearGradient>
			<path fill="url(#SVGID_24_)" d="M326.622,1026.708l-133.789-207.95c0,0-161.835-169.548-177.972-166.359
				c0,0-30.489,138.166,23.306,208.764l200.681,200.674L326.622,1026.708z"/>
			<path fill="#F6F6F6" d="M243.64,1000.374L103.997,834.196c0,0-73.718-56.641-71.51-171.501
				c-8.746-6.894-15.049-10.82-17.627-10.297c0,0-30.489,138.166,23.306,208.764l174.629,174.629l30.844-2.847V1000.374z"/>
			<path d="M237.384,1069.019L33.307,864.859c-54.883-72-25.696-208.038-24.421-213.798l0.859-3.907l5.612-0.932
				c19.198,0,133.602,117.713,181.899,168.325l0.718,0.914l137.804,214.166L237.384,1069.019z M42.785,857.127l197.54,197.532
				l77.142-30.872l-129.46-201.224C129.25,761.029,43.221,675.436,19.492,660.595C14.363,689.043-1.639,798.358,42.785,857.127z"/>
		</g>
		<g>
			
				<linearGradient id="SVGID_25_" gradientUnits="userSpaceOnUse" x1="1029.5732" y1="1762.9258" x2="1168.7275" y2="1762.9258" gradientTransform="matrix(0.6573 0.7536 -0.7536 0.6573 917.9745 -983.0828)">
				<stop  offset="0" style="stop-color:#FFD8BF"/>
				<stop  offset="1" style="stop-color:#EFA57F"/>
			</linearGradient>
			<path fill="url(#SVGID_25_)" d="M357.634,1056.444c-14.257,12.439-35.899,10.969-48.345-3.302l-46.411-53.218
				c-12.445-14.251-10.969-35.906,3.296-48.352l0,0c14.258-12.438,35.906-10.954,48.351,3.304l46.411,53.218
				C373.369,1022.365,371.898,1044.007,357.634,1056.444L357.634,1056.444z"/>
			<path d="M335.133,1071.013c-11.68,0-22.783-5.056-30.462-13.849l-46.404-53.219c-7.089-8.129-10.586-18.526-9.861-29.286
				c0.739-10.762,5.612-20.596,13.748-27.697c7.357-6.418,16.782-9.941,26.529-9.941c11.68,0,22.769,5.041,30.449,13.835
				l46.417,53.225c14.627,16.781,12.881,42.351-3.894,56.978C354.305,1067.474,344.887,1071.013,335.133,1071.013z M288.682,949.251
				c-6.793,0-13.358,2.464-18.487,6.94c-5.672,4.947-9.075,11.795-9.586,19.306c-0.51,7.492,1.934,14.747,6.881,20.413
				l46.404,53.218c5.356,6.13,13.09,9.654,21.239,9.654c6.793,0,13.358-2.472,18.486-6.941
				c11.694-10.203,12.909-28.025,2.712-39.733l-46.417-53.203C304.564,952.774,296.818,949.251,288.682,949.251z"/>
		</g>
		<g>
			
				<linearGradient id="SVGID_26_" gradientUnits="userSpaceOnUse" x1="69.6396" y1="626.6377" x2="207.1641" y2="626.6377" gradientTransform="matrix(0.9748 -0.3049 0.3761 1.2024 -157.3713 341.7078)">
				<stop  offset="0" style="stop-color:#FFD8BF"/>
				<stop  offset="1" style="stop-color:#EFA57F"/>
			</linearGradient>
			<path fill="url(#SVGID_26_)" d="M280.25,1032.012c7.028,22.48-2.04,45.337-20.285,51.049l-68.026,21.279
				c-18.231,5.698-38.719-7.908-45.747-30.395l0,0c-7.028-22.494,2.047-45.331,20.279-51.044l68.026-21.285
				C252.729,995.924,273.209,1009.53,280.25,1032.012L280.25,1032.012z"/>
			<path d="M183.415,1111.744c-18.729,0-36.437-14.788-43.062-35.98c-8.021-25.662,2.88-51.996,24.293-58.708l68.025-21.267
				c3.35-1.046,6.834-1.591,10.352-1.591c18.721,0,36.436,14.809,43.061,35.987c8.022,25.676-2.866,52.002-24.293,58.702
				l-68.026,21.285C190.422,1111.221,186.938,1111.744,183.415,1111.744z M243.023,1006.429c-2.283,0-4.538,0.363-6.7,1.035
				l-68.026,21.265c-14.982,4.692-22.279,24.166-16.271,43.391c5.048,16.123,17.963,27.395,31.389,27.395
				c2.289,0,4.538-0.343,6.706-1.013l68.019-21.287c14.989-4.672,22.286-24.146,16.278-43.37
				C269.363,1017.7,256.455,1006.429,243.023,1006.429z"/>
		</g>
		<g>
			
				<linearGradient id="SVGID_27_" gradientUnits="userSpaceOnUse" x1="599.1162" y1="672" x2="736.644" y2="672" gradientTransform="matrix(1.5357 -0.4804 0.3761 1.2024 -1004.8207 606.4016)">
				<stop  offset="0" style="stop-color:#FFD8BF"/>
				<stop  offset="1" style="stop-color:#EFA57F"/>
			</linearGradient>
			<path fill="url(#SVGID_27_)" d="M379.188,1060.547c7.028,22.467-10.552,47.994-39.289,56.983l-107.174,33.516
				c-28.73,8.976-57.702-1.966-64.744-24.447l0,0c-7.035-22.48,10.546-48.001,39.275-56.997l107.181-33.509
				C343.155,1027.11,372.134,1038.052,379.188,1060.547L379.188,1060.547z"/>
			<path d="M212.534,1160.304c-24.548,0-44.331-12.513-50.386-31.879c-3.974-12.707-1.483-26.508,7.021-38.846
				c8.196-11.881,21.071-21.058,36.262-25.812l107.181-33.509c7.256-2.275,14.654-3.416,22.011-3.416
				c24.541,0,44.33,12.498,50.398,31.864c8.028,25.67-11.391,54.676-43.296,64.657l-107.174,33.521
				C227.295,1159.148,219.884,1160.304,212.534,1160.304z M334.624,1039.073c-6.115,0-12.285,0.946-18.353,2.846l-107.188,33.53
				c-12.593,3.939-23.185,11.418-29.837,21.07c-6.33,9.17-8.25,19.211-5.431,28.254c4.43,14.143,19.627,23.3,38.719,23.3
				c6.115,0,12.29-0.974,18.365-2.86l107.174-33.53c25.468-7.967,41.296-30.078,35.282-49.317
				C368.911,1048.216,353.714,1039.073,334.624,1039.073z"/>
		</g>
		<g>
			
				<linearGradient id="SVGID_28_" gradientUnits="userSpaceOnUse" x1="525.0566" y1="737.0615" x2="662.5791" y2="737.0615" gradientTransform="matrix(1.4177 -0.4434 0.3761 1.2024 -826.5701 551.2645)">
				<stop  offset="0" style="stop-color:#FFD8BF"/>
				<stop  offset="1" style="stop-color:#EFA57F"/>
			</linearGradient>
			<path fill="url(#SVGID_28_)" d="M389.976,1143.716c7.035,22.481-8.753,47.431-35.282,55.735l-98.931,30.952
				c-26.515,8.282-53.714-3.222-60.75-25.702l0,0c-7.028-22.481,8.76-47.439,35.282-55.742l98.931-30.946
				C355.741,1109.724,382.94,1121.235,389.976,1143.716L389.976,1143.716z"/>
			<path d="M238.364,1239.196c-23.306,0-43.068-13.123-49.19-32.671c-8.028-25.676,9.613-54.104,39.296-63.394l98.931-30.952
				c6.31-1.979,12.768-2.967,19.225-2.967c23.306,0,43.068,13.131,49.19,32.672c3.947,12.619,1.906,26.232-5.726,38.294
				c-7.431,11.747-19.366,20.668-33.57,25.119l-98.93,30.952C251.279,1238.21,244.808,1239.196,238.364,1239.196z M346.625,1121.443
				c-5.216,0-10.458,0.812-15.573,2.411l-98.931,30.95c-23.253,7.271-37.283,28.839-31.274,48.062
				c4.504,14.42,19.587,24.099,37.517,24.099c5.209,0,10.451-0.805,15.566-2.41l98.938-30.95
				c11.452-3.565,20.997-10.668,26.89-19.979c5.679-8.975,7.243-18.956,4.391-28.084
				C379.631,1131.122,364.548,1121.443,346.625,1121.443z"/>
		</g>
		<g>
			
				<linearGradient id="SVGID_29_" gradientUnits="userSpaceOnUse" x1="410.5688" y1="798.6953" x2="548.0879" y2="798.6953" gradientTransform="matrix(1.2406 -0.388 0.3761 1.2024 -560.1152 467.9521)">
				<stop  offset="0" style="stop-color:#FFD8BF"/>
				<stop  offset="1" style="stop-color:#EFA57F"/>
			</linearGradient>
			<path fill="url(#SVGID_29_)" d="M420.236,1215.655c7.035,22.481-6.068,46.593-29.28,53.849l-86.573,27.078
				c-23.206,7.258-47.714-5.074-54.755-27.574l0,0c-7.021-22.48,6.082-46.594,29.281-53.862l86.58-27.085
				C388.687,1180.824,413.188,1193.154,420.236,1215.655L420.236,1215.655z"/>
			<path d="M290.851,1304.785c-21.796,0-40.706-13.64-47.049-33.945c-8.028-25.676,6.9-53.264,33.281-61.528l86.58-27.079
				c5.001-1.557,10.163-2.355,15.345-2.355c21.789,0,40.706,13.641,47.069,33.945c8.028,25.678-6.915,53.266-33.295,61.529
				l-86.566,27.064C301.208,1303.987,296.039,1304.785,290.851,1304.785z M379.007,1192.107c-3.94,0-7.874,0.598-11.693,1.799
				l-86.58,27.086c-19.943,6.229-31.281,26.959-25.267,46.189c4.752,15.164,18.97,25.373,35.383,25.373
				c3.953,0,7.887-0.617,11.707-1.799l86.573-27.086c19.95-6.248,31.294-26.957,25.28-46.188
				C409.651,1202.298,395.426,1192.107,379.007,1192.107z"/>
		</g>
		<path fill="#992533" d="M853.033,731.714c25.1,12.796,79.365,40.867,76.135,42.64c-4.194,2.289-19.521,60.876-50.821,67.261
			c-9.37,1.92-16.373,5.8-21.259,10.403l40.437,16.064l46.889-117.908l-39.531-15.721l-50.136-7.042L853.033,731.714z"/>
		<polygon fill="#C1272D" points="937.217,868.082 1008.915,834.196 969.479,716.275 897.786,750.174 		"/>
		<path fill="#E03845" d="M974.641,731.714c-21.113,12.796-66.752,40.867-64.032,42.64c3.524,2.289,16.418,60.876,42.746,67.261
			c7.879,1.92,13.767,5.8,17.875,10.403l-34.013,16.064l-39.431-117.908l33.242-15.721l42.174-7.042L974.641,731.714z"/>
		<polygon fill="#992533" points="937.217,868.082 1008.915,834.196 1013.398,847.595 1013.311,847.642 1023.501,881.359 
			1018.655,883.426 1008.531,849.904 1003.296,852.374 1013.398,885.81 1008.559,887.877 998.517,854.637 993.026,857.234 
			1003.431,891.67 998.597,893.737 988.24,859.496 981.641,862.61 991.965,896.765 987.133,898.839 976.861,864.873 
			969.961,868.142 980.071,901.611 975.236,903.68 965.175,870.404 959.61,873.029 969.793,906.707 964.947,908.773 
			954.824,875.292 946.655,879.158 956.61,912.083 951.769,914.15 941.876,881.42 941.714,881.494 		"/>
		<polygon fill="#992533" points="897.524,868.082 812.281,834.196 806.951,847.595 807.046,847.642 794.937,881.359 
			800.681,883.426 812.731,849.904 818.966,852.374 806.951,885.81 812.704,887.877 824.645,854.637 831.17,857.234 818.793,891.67 
			824.552,893.737 836.862,859.496 844.703,862.61 832.433,896.765 838.186,898.839 850.396,864.873 858.598,868.142 
			846.569,901.611 852.329,903.68 864.292,870.404 870.909,873.029 858.799,906.707 864.56,908.773 876.595,875.292 
			886.308,879.158 874.474,912.083 880.227,914.15 891.993,881.42 892.188,881.494 		"/>
		<g>
			<path fill="#C1272D" d="M618.702,785.369c0,0-28.528-77.907-12.23-85.043c16.305-7.115,19.131-15.285,25.871-23.44
				c6.74-8.136,384.626-57.071,388.312-40.766c3.692,16.312,11.848,64.73,11.848,64.73s10.195,13.225,13.257,28.267
				c3.055,15.05,9.169,27.583-9.175,30.489c-18.347,2.906-291.497-16.057-326.147,4.632
				C675.78,784.932,624.38,802.258,618.702,785.369z"/>
			<path fill="#992533" d="M1036.584,759.605c18.344-2.906,12.23-15.439,9.175-30.489c-3.062-15.042-13.257-28.267-13.257-28.267
				s-8.156-48.418-11.848-64.73c-3.686-16.305-381.573,32.63-388.312,40.766c-0.114,0.134-0.201,0.275-0.309,0.41
				c80.042-7.794,368.108-35.162,376.009-25.509c9.175,11.21-25.475,28.549-39.236,32.609c-13.761,4.089,5.6,31.745,21.911,21.984
				l18.849,2.068v10.612c0,0-3.559,13.25-8.659,16.304c-5.095,3.062-9.17,11.211-6.108,15.292c1.39,1.859,2.175,5.195,4.611,8.572
				C1019.251,759.887,1032.946,760.189,1036.584,759.605z"/>
			<path fill="#E03845" d="M788.867,754.746c-24.796-3.478-57.46-6.861-73.342-3.323c-27.521,6.115-78.732,52.741-89.433,24.454
				c-7.988-21.098-16.399-55.822-17.608-76.537c-0.684,0.328-1.269,0.671-2.014,0.986c-16.298,7.136,12.23,85.043,12.23,85.043
				c5.679,16.889,57.078-0.438,91.736-21.132C720.493,758.242,750.673,755.571,788.867,754.746z"/>
			<path fill="#992533" d="M939.983,679.302l-299.317,50.97C640.666,730.271,911.151,710.912,939.983,679.302z"/>
		</g>
		<polygon fill="#C1272D" points="897.524,868.082 812.281,834.196 859.169,716.275 944.413,750.174 		"/>
		<g>
			<circle fill="#6B5038" cx="705.439" cy="625.994" r="7.5"/>
			<circle fill="#6B5038" cx="679.939" cy="648.494" r="7.5"/>
			<circle fill="#6B5038" cx="741.439" cy="612.494" r="7.5"/>
			<circle fill="#6B5038" cx="777.439" cy="609.494" r="7.5"/>
			<circle fill="#6B5038" cx="817.439" cy="606.494" r="7.5"/>
			<circle fill="#6B5038" cx="851.939" cy="605.494" r="7.5"/>
			<circle fill="#6B5038" cx="886.939" cy="608.994" r="7.5"/>
			<circle fill="#6B5038" cx="925.439" cy="618.994" r="7.5"/>
			<circle fill="#6B5038" cx="962.939" cy="623.994" r="7.5"/>
			<circle fill="#6B5038" cx="818.439" cy="632.494" r="7.5"/>
			<circle fill="#6B5038" cx="778.439" cy="629.994" r="7.5"/>
			<circle fill="#6B5038" cx="743.939" cy="638.494" r="7.5"/>
			<circle fill="#6B5038" cx="710.439" cy="648.494" r="7.5"/>
			<circle fill="#6B5038" cx="902.939" cy="628.494" r="7.5"/>
			<circle fill="#6B5038" cx="855.939" cy="623.494" r="7.5"/>
			<circle fill="#6B5038" cx="992.439" cy="621.994" r="7.5"/>
		</g>
	</g>
</g>
<g display="none">
	<path display="inline" fill="#1D1D1B" d="M1068.439,118.994v1074h-634v-1074H1068.439 M1071.439,115.994h-640v1080h640V115.994
		L1071.439,115.994z"/>
</g>
</svg>
