<?xml version="1.0" encoding="utf-8"?>
<!-- Generator: Adobe Illustrator 15.0.0, SVG Export Plug-In  -->
<!DOCTYPE svg PUBLIC "-//W3C//DTD SVG 1.1//EN" "http://www.w3.org/Graphics/SVG/1.1/DTD/svg11.dtd" [
	<!ENTITY ns_flows "http://ns.adobe.com/Flows/1.0/">
]>
<svg version="1.1"
	 xmlns="http://www.w3.org/2000/svg" xmlns:xlink="http://www.w3.org/1999/xlink" xmlns:a="http://ns.adobe.com/AdobeSVGViewerExtensions/3.0/"
	 x="0px" y="0px" width="640px" height="1080px" viewBox="335 13.236 640 1080"
	 overflow="visible" enable-background="new 335 13.236 640 1080" xml:space="preserve">
<defs>
</defs>
<linearGradient id="SVGID_4_" gradientUnits="userSpaceOnUse" x1="655" y1="243.0244" x2="654.9999" y2="945.1973">
	<stop  offset="0" style="stop-color:#EDEDED"/>
	<stop  offset="1" style="stop-color:#C6C6C6"/>
</linearGradient>
<rect x="335" y="12.236" fill="url(#SVGID_4_)" width="640" height="1080"/>
<path opacity="0.54" fill="#B5B5B5" d="M937.713,1070.236l0.771-546.692C748.159,758.601,509.289,963.306,377,1069.449
	L937.713,1070.236z"/>
<g>
	<defs>
		<rect id="SVGID_1_" x="335" y="12.236" width="640" height="1080"/>
	</defs>
	<clipPath id="SVGID_5_">
		<use xlink:href="#SVGID_1_"  overflow="visible"/>
	</clipPath>
	<rect x="66.76" clip-path="url(#SVGID_5_)" fill="#68492C" width="702.071" height="855.086"/>
	<polygon clip-path="url(#SVGID_5_)" fill="#7A5A40" points="300.758,795.996 534.807,795.996 597.813,579.058 0,534.736 	"/>
	<g clip-path="url(#SVGID_5_)">
		<path fill="#BFA450" d="M473.066,271.301c0,26.428-21.423,47.853-47.852,47.853c-26.429,0-47.854-21.425-47.854-47.853
			c0-26.427,21.425-47.852,47.854-47.852C451.643,223.449,473.066,244.874,473.066,271.301"/>
		<rect x="310.994" y="576.932" fill="#E9E0D6" width="15.39" height="203.914"/>
		<rect x="397.561" y="576.932" fill="#E9E0D6" width="15.39" height="203.914"/>
		<rect x="280.214" y="376.865" fill="#666666" width="167.364" height="200.066"/>
		<path fill="#E9E0D6" d="M447.578,283.314c0,45.292-37.466,82.008-83.681,82.008c-46.217,0-83.683-36.715-83.683-82.008
			c0-45.292,37.466-82.007,83.683-82.007C410.112,201.307,447.578,238.023,447.578,283.314"/>
		<rect x="280.214" y="282.603" fill="#E9E0D6" width="167.364" height="94.263"/>
		<rect x="280.214" y="559.617" fill="#CCCCCC" width="167.364" height="17.314"/>
		<polygon fill="#4D4D4D" points="391.79,376.865 413.431,416.62 387.709,424.6 413.431,430.086 362.934,526.941 362.934,376.865 		
			"/>
		<polygon fill="#4D4D4D" points="334.401,376.865 311.956,416.62 338.482,424.6 311.956,430.086 362.934,526.941 362.934,376.865 
					"/>
		<path fill="#CCCCCC" d="M335.041,376.865c0,64.123,27.893,150.076,27.893,150.076V376.865H335.041z"/>
		<path fill="#CCCCCC" d="M391.79,376.865c0,64.123-28.856,150.076-28.856,150.076V376.865H391.79z"/>
		<path fill="#363943" d="M334.798,766.53c-3.826-16.083-9.63-28.007-16.22-28.007h-0.563c-9.709,3.486-17.854,24.406-20.377,55.788
			h37.161h4.157C338.146,783.851,336.71,774.137,334.798,766.53"/>
		<path fill="#363943" d="M421.365,766.53c-3.827-16.083-9.63-28.007-16.22-28.007h-0.563c-9.709,3.486-17.854,24.406-20.378,55.788
			h37.162h4.157C424.713,783.851,423.277,774.137,421.365,766.53"/>
		<path fill="#E9E0D6" d="M445.654,375.68c0,14.323-37.035,25.934-82.721,25.934c-45.684,0-82.72-11.61-82.72-25.934
			c0-14.324,37.036-25.934,82.72-25.934C408.619,349.746,445.654,361.356,445.654,375.68"/>
		<rect x="280.214" y="376.865" fill="#FBB03B" width="167.364" height="5.771"/>
		<path fill="#FBB03B" d="M371.729,391.843c0,4.73-3.834,8.567-8.564,8.567c-4.732,0-8.567-3.836-8.567-8.567
			c0-4.73,3.834-8.566,8.567-8.566C367.895,383.277,371.729,387.113,371.729,391.843"/>
		<path fill="#E9E0D6" d="M389.866,260.539c-16.346-21.024-79.596,5.607-109.579,19.903c-0.032,0.956-0.074,1.91-0.074,2.873
			c0,45.292,37.466,82.009,83.683,82.009c45.607,0,82.665-35.763,83.636-80.227C429.067,283.183,403.005,277.437,389.866,260.539"/>
		<path fill="#FFDA6A" d="M363.896,201.306c-45.232,0-82.059,35.175-83.609,79.133c29.983-14.294,93.232-40.925,109.579-19.9
			c13.139,16.897,39.201,22.644,57.667,24.556c0.011-0.595,0.045-1.184,0.045-1.782
			C447.578,238.022,410.112,201.306,363.896,201.306"/>
		<polyline fill="none" stroke="#666666" stroke-width="10" stroke-miterlimit="10" points="437.959,392.715 468.727,457.894 
			471.734,537.087 		"/>
		<polygon fill="#666666" points="447.578,576.932 280.214,576.932 270.596,680.812 274.924,680.812 280.214,650.671 
			285.504,680.812 457.196,680.812 		"/>
		<path fill="#F2F2F2" d="M417.3,313.596c0,10.996-7.475,19.911-16.699,19.911s-16.701-8.915-16.701-19.911
			c0-10.996,7.477-19.911,16.701-19.911S417.3,302.6,417.3,313.596"/>
		<path fill="#00A1BF" d="M411.456,319.071c0,5.223-3.551,9.457-7.932,9.457c-4.382,0-7.933-4.234-7.933-9.457
			s3.55-9.457,7.933-9.457C407.904,309.614,411.456,313.848,411.456,319.071"/>
		<path fill="#F2F2F2" d="M403.104,313.098c0,3.024-2.055,5.475-4.593,5.475c-2.537,0-4.592-2.451-4.592-5.475
			c0-3.024,2.055-5.475,4.592-5.475C401.049,307.623,403.104,310.074,403.104,313.098"/>
		<path fill="#F2F2F2" d="M342.275,313.596c0,10.994-7.475,19.911-16.699,19.911c-9.225,0-16.701-8.917-16.701-19.911
			c0-10.998,7.476-19.911,16.701-19.911C334.8,293.686,342.275,302.599,342.275,313.596"/>
		<path fill="#00A1BF" d="M336.431,319.071c0,5.223-3.551,9.457-7.932,9.457c-4.383,0-7.934-4.234-7.934-9.457
			s3.551-9.457,7.934-9.457C332.88,309.614,336.431,313.848,336.431,319.071"/>
		<path fill="#F2F2F2" d="M328.08,313.097c0,3.024-2.056,5.477-4.594,5.477c-2.536,0-4.591-2.453-4.591-5.477
			c0-3.023,2.056-5.474,4.591-5.474C326.024,307.623,328.08,310.073,328.08,313.097"/>
		<line fill="none" stroke="#000000" stroke-miterlimit="10" x1="341.773" y1="356.666" x2="380.248" y2="356.666"/>
		
			<line fill="none" stroke="#FBB03B" stroke-width="3" stroke-miterlimit="10" x1="462.083" y1="523.627" x2="481.573" y2="523.232"/>
		<polygon fill="#B04733" points="487.976,605.787 462.581,605.787 455.272,605.787 455.272,532.686 487.976,532.686 		"/>
		<g opacity="0.2">
			<g>
				<defs>
					<rect id="SVGID_3_" x="460.39" y="544.361" width="8.685" height="61.426"/>
				</defs>
				<clipPath id="SVGID_6_">
					<use xlink:href="#SVGID_3_"  overflow="visible"/>
				</clipPath>
				<polygon clip-path="url(#SVGID_6_)" points="467.636,544.361 469.075,605.787 460.39,605.787 				"/>
			</g>
		</g>
		<g opacity="0.2">
			<g>
				<defs>
					<rect id="SVGID_2_" x="470.967" y="544.361" width="11.94" height="61.426"/>
				</defs>
				<clipPath id="SVGID_7_">
					<use xlink:href="#SVGID_2_"  overflow="visible"/>
				</clipPath>
				<polygon clip-path="url(#SVGID_7_)" points="470.967,544.361 475.06,605.787 482.907,605.787 				"/>
			</g>
		</g>
		<polygon fill="#B04733" points="464.893,566.576 457.907,573.191 269.799,374.366 276.786,367.754 		"/>
		<path fill="#E9E0D6" d="M486.027,552.958c-0.477,13.044-7.007,22.316-14.586,20.716c-7.583-1.597-13.344-13.472-12.87-26.514
			c0.475-13.041,7.007-22.317,14.588-20.717C480.741,528.044,486.503,539.917,486.027,552.958"/>
		<polyline fill="none" stroke="#666666" stroke-width="10" stroke-miterlimit="10" points="289.835,401.614 255.208,476.898 
			257.774,568.274 		"/>
		<path fill="#E9E0D6" d="M272.495,579.891c-0.478,13.042-7.007,22.315-14.586,20.715c-7.583-1.597-13.344-13.472-12.871-26.513
			c0.476-13.042,7.007-22.318,14.588-20.718C267.208,554.976,272.971,566.849,272.495,579.891"/>
	</g>
</g>
<text transform="matrix(1 0 0 1 354.7896 99.0098)" fill="#FFDA6A" font-family="'EccentricStd'" font-size="72">VOUS SERVIR</text>
</svg>
