<?xml version="1.0" encoding="utf-8"?>
<!-- Generator: Adobe Illustrator 15.0.0, SVG Export Plug-In  -->
<!DOCTYPE svg PUBLIC "-//W3C//DTD SVG 1.1//EN" "http://www.w3.org/Graphics/SVG/1.1/DTD/svg11.dtd" [
	<!ENTITY ns_flows "http://ns.adobe.com/Flows/1.0/">
]>
<svg version="1.1"
	 xmlns="http://www.w3.org/2000/svg" xmlns:xlink="http://www.w3.org/1999/xlink" xmlns:a="http://ns.adobe.com/AdobeSVGViewerExtensions/3.0/"
	 x="0px" y="0px" width="640px" height="1080px" viewBox="335 12.236 640 1080"
	 overflow="visible" enable-background="new 335 12.236 640 1080" xml:space="preserve">
<defs>
</defs>
<linearGradient id="SVGID_6_" gradientUnits="userSpaceOnUse" x1="944.999" y1="482.4482" x2="944.9989" y2="-219.7247" gradientTransform="matrix(1 0 0 -1 -290 725.4727)">
	<stop  offset="0" style="stop-color:#EDEDED"/>
	<stop  offset="1" style="stop-color:#C6C6C6"/>
</linearGradient>
<rect x="335" y="12.236" fill="url(#SVGID_6_)" width="640" height="1080"/>
<path opacity="0.54" fill="#B5B5B5" enable-background="new    " d="M937.713,1070.236l0.771-546.692
	C748.159,758.601,509.289,963.306,377,1069.449L937.713,1070.236z"/>
<g>
	<defs>
		<rect id="SVGID_5_" x="335" y="12.236" width="640" height="1080"/>
	</defs>
	<clipPath id="SVGID_7_">
		<use xlink:href="#SVGID_5_"  overflow="visible"/>
	</clipPath>
	<rect x="66.76" clip-path="url(#SVGID_7_)" fill="#68492C" width="702.071" height="855.086"/>
</g>
<g>
	<defs>
		<rect id="SVGID_4_" x="335" y="12.236" width="640" height="1080"/>
	</defs>
	<clipPath id="SVGID_8_">
		<use xlink:href="#SVGID_4_"  overflow="visible"/>
	</clipPath>
	<polygon clip-path="url(#SVGID_8_)" fill="#7A5A40" points="300.758,795.996 534.807,795.996 597.812,579.058 0,534.736 	"/>
</g>
<g>
	<defs>
		<rect id="SVGID_3_" x="335" y="12.236" width="640" height="1080"/>
	</defs>
	<clipPath id="SVGID_9_">
		<use xlink:href="#SVGID_3_"  overflow="visible"/>
	</clipPath>
	<g clip-path="url(#SVGID_9_)">
		<path fill="#BFA450" d="M473.066,271.301c0,26.428-21.424,47.853-47.853,47.853s-47.854-21.425-47.854-47.853
			c0-26.427,21.425-47.852,47.854-47.852S473.066,244.874,473.066,271.301"/>
		<rect x="310.994" y="576.932" fill="#E9E0D6" width="15.39" height="203.914"/>
		<rect x="397.561" y="576.932" fill="#E9E0D6" width="15.391" height="203.914"/>
		<rect x="280.214" y="376.865" fill="#666666" width="167.364" height="200.065"/>
		<path fill="#E9E0D6" d="M447.578,283.314c0,45.292-37.466,82.008-83.681,82.008c-46.218,0-83.684-36.715-83.684-82.008
			c0-45.292,37.466-82.007,83.683-82.007C410.112,201.307,447.578,238.023,447.578,283.314"/>
		<rect x="280.214" y="282.603" fill="#E9E0D6" width="167.364" height="94.263"/>
		<rect x="280.214" y="559.617" fill="#CCCCCC" width="167.364" height="17.313"/>
		<polygon fill="#4D4D4D" points="391.79,376.865 413.431,416.62 387.709,424.6 413.431,430.086 362.934,526.941 362.934,376.865 		
			"/>
		<polygon fill="#4D4D4D" points="334.401,376.865 311.956,416.62 338.482,424.6 311.956,430.086 362.934,526.941 362.934,376.865 
					"/>
		<path fill="#CCCCCC" d="M335.041,376.865c0,64.123,27.893,150.076,27.893,150.076V376.865H335.041z"/>
		<path fill="#CCCCCC" d="M391.79,376.865c0,64.123-28.856,150.076-28.856,150.076V376.865H391.79z"/>
		<path fill="#363943" d="M334.798,766.53c-3.826-16.083-9.63-28.007-16.22-28.007h-0.563c-9.709,3.485-17.854,24.405-20.376,55.787
			h37.161h4.157C338.146,783.851,336.71,774.137,334.798,766.53"/>
		<path fill="#363943" d="M421.365,766.53c-3.827-16.083-9.63-28.007-16.221-28.007h-0.562
			c-9.709,3.485-17.854,24.405-20.378,55.787h37.162h4.157C424.713,783.851,423.277,774.137,421.365,766.53"/>
		<path fill="#E9E0D6" d="M445.654,375.68c0,14.323-37.035,25.934-82.722,25.934c-45.684,0-82.72-11.61-82.72-25.934
			c0-14.324,37.036-25.934,82.72-25.934C408.619,349.746,445.654,361.356,445.654,375.68"/>
		<rect x="280.214" y="376.865" fill="#FBB03B" width="167.364" height="5.771"/>
		<path fill="#FBB03B" d="M371.729,391.843c0,4.73-3.834,8.567-8.563,8.567c-4.732,0-8.567-3.836-8.567-8.567
			c0-4.73,3.834-8.566,8.567-8.566C367.895,383.277,371.729,387.113,371.729,391.843"/>
		<path fill="#E9E0D6" d="M389.866,260.539c-16.347-21.024-79.597,5.607-109.579,19.903c-0.032,0.956-0.074,1.91-0.074,2.873
			c0,45.292,37.466,82.009,83.684,82.009c45.606,0,82.664-35.763,83.636-80.227C429.067,283.183,403.005,277.437,389.866,260.539"/>
		<path fill="#FFDA6A" d="M363.896,201.306c-45.232,0-82.06,35.175-83.609,79.133c29.982-14.294,93.231-40.925,109.579-19.9
			c13.139,16.897,39.201,22.644,57.667,24.556c0.011-0.595,0.045-1.184,0.045-1.782
			C447.578,238.022,410.112,201.306,363.896,201.306"/>
		<polyline fill="none" stroke="#666666" stroke-width="10" stroke-miterlimit="10" points="437.959,392.715 468.727,457.894 
			471.734,537.087 		"/>
		<polygon fill="#666666" points="447.578,576.932 280.214,576.932 270.596,680.812 274.924,680.812 280.214,650.671 
			285.504,680.812 457.196,680.812 		"/>
		<path fill="#F2F2F2" d="M417.3,313.596c0,10.996-7.475,19.911-16.699,19.911c-9.224,0-16.7-8.915-16.7-19.911
			c0-10.996,7.477-19.911,16.7-19.911C409.825,293.685,417.3,302.6,417.3,313.596"/>
		<path fill="#00A1BF" d="M411.456,319.071c0,5.223-3.551,9.457-7.932,9.457c-4.383,0-7.934-4.234-7.934-9.457
			c0-5.223,3.55-9.457,7.934-9.457C407.904,309.614,411.456,313.848,411.456,319.071"/>
		<path fill="#F2F2F2" d="M403.104,313.098c0,3.024-2.055,5.475-4.593,5.475c-2.537,0-4.592-2.451-4.592-5.475
			s2.055-5.475,4.592-5.475C401.049,307.623,403.104,310.074,403.104,313.098"/>
		<path fill="#F2F2F2" d="M342.275,313.596c0,10.994-7.476,19.911-16.699,19.911c-9.226,0-16.701-8.917-16.701-19.911
			c0-10.998,7.476-19.911,16.701-19.911C334.8,293.686,342.275,302.599,342.275,313.596"/>
		<path fill="#00A1BF" d="M336.431,319.071c0,5.223-3.551,9.457-7.932,9.457c-4.383,0-7.934-4.234-7.934-9.457
			c0-5.223,3.551-9.457,7.934-9.457C332.88,309.614,336.431,313.848,336.431,319.071"/>
		<path fill="#F2F2F2" d="M328.08,313.097c0,3.024-2.056,5.477-4.594,5.477c-2.536,0-4.592-2.453-4.592-5.477
			c0-3.023,2.057-5.474,4.592-5.474C326.024,307.623,328.08,310.073,328.08,313.097"/>
		<line fill="none" stroke="#000000" stroke-miterlimit="10" x1="341.773" y1="356.666" x2="380.248" y2="356.666"/>
		
			<line fill="none" stroke="#FBB03B" stroke-width="3" stroke-miterlimit="10" x1="462.083" y1="523.627" x2="481.573" y2="523.232"/>
		<polygon fill="#B04733" points="487.976,605.787 462.581,605.787 455.272,605.787 455.272,532.686 487.976,532.686 		"/>
		<g>
			<g opacity="0.2">
				<g>
					<defs>
						<rect id="SVGID_2_" x="460.39" y="544.361" width="8.686" height="61.426"/>
					</defs>
					<clipPath id="SVGID_10_">
						<use xlink:href="#SVGID_2_"  overflow="visible"/>
					</clipPath>
					<polygon clip-path="url(#SVGID_10_)" points="467.636,544.361 469.075,605.787 460.39,605.787 					"/>
				</g>
			</g>
			<g>
				<g opacity="0.2">
					<g>
						<defs>
							<rect id="SVGID_1_" x="470.967" y="544.361" width="11.94" height="61.426"/>
						</defs>
						<clipPath id="SVGID_11_">
							<use xlink:href="#SVGID_1_"  overflow="visible"/>
						</clipPath>
						<polygon clip-path="url(#SVGID_11_)" points="470.967,544.361 475.06,605.787 482.907,605.787 						"/>
					</g>
				</g>
				<polygon fill="#B04733" points="464.893,566.576 457.907,573.191 269.799,374.366 276.786,367.754 				"/>
				<path fill="#E9E0D6" d="M486.027,552.958c-0.478,13.044-7.008,22.316-14.586,20.716c-7.583-1.597-13.345-13.472-12.87-26.514
					c0.475-13.041,7.007-22.317,14.588-20.717C480.741,528.044,486.503,539.917,486.027,552.958"/>
				<polyline fill="none" stroke="#666666" stroke-width="10" stroke-miterlimit="10" points="289.835,401.614 255.208,476.898 
					257.774,568.274 				"/>
				<path fill="#E9E0D6" d="M272.495,579.891c-0.478,13.042-7.007,22.315-14.586,20.716c-7.583-1.598-13.344-13.473-12.871-26.514
					c0.476-13.042,7.007-22.317,14.588-20.718C267.208,554.976,272.971,566.849,272.495,579.891"/>
			</g>
		</g>
		<g enable-background="new    ">
			<path fill="#FFDA6A" d="M364.583,99.01v-2.736c1.008-0.144,2.808,0,2.808-1.224c0-1.009-0.936-5.113-1.512-7.993l-6.769-33.339
				c-0.432-2.088-1.152-2.736-2.736-2.952v-2.736h8.209v2.736c-1.368,0.144-2.304,0.072-2.304,1.08c0,0.432,0.936,4.896,1.512,7.705
				l6.408,32.115h0.144l6.121-32.115c0.576-2.808,1.512-7.272,1.512-7.705c0-1.008-0.936-0.936-2.304-1.08v-2.736h8.209v2.736
				c-1.584,0.216-2.305,0.864-2.736,2.952l-6.553,33.339c-0.576,2.88-1.296,6.984-1.296,7.993c0,1.224,1.8,1.08,2.808,1.224v2.736
				H364.583z"/>
			<path fill="#FFDA6A" d="M386.973,76.688c0-17.57,3.312-29.523,11.521-29.523c8.137,0,12.601,11.953,12.601,29.523
				c0,13.249-3.744,23.186-11.665,23.186C390.934,99.874,386.973,89.937,386.973,76.688z M399.43,96.418
				c5.185,0,7.85-8.497,7.85-19.73c0-14.401-3.241-26.066-8.857-26.066c-5.256,0-7.633,11.665-7.633,26.066
				C390.79,87.921,393.67,96.418,399.43,96.418z"/>
			<path fill="#FFDA6A" d="M438.527,86.337c0,8.496-1.872,13.537-10.368,13.537c-8.137,0-9.938-5.041-9.938-13.537V53.574
				c0-2.088,0-2.52-2.736-2.808v-2.736h9.146v2.736c-2.809,0.288-2.809,0.72-2.809,2.808v33.051c0,6.48,1.296,9.793,6.48,9.793
				c5.328,0,6.625-3.312,6.625-9.793V53.574c0-2.088,0-2.52-2.809-2.808v-2.736h9.145v2.736c-2.736,0.288-2.736,0.72-2.736,2.808
				V86.337z"/>
			<path fill="#FFDA6A" d="M456.238,53.79c-2.376-2.088-3.312-3.168-4.681-3.168s-2.088,1.008-2.088,2.088
				c0,2.52,3.024,6.12,7.488,14.329c3.457,6.265,7.705,14.545,7.705,21.53c0,7.272-4.824,11.305-10.297,11.305
				c-1.944,0-4.177-0.792-5.545-1.656l-1.296,0.792h-1.872l-1.008-7.921l2.304-0.864c1.297,2.881,2.881,6.193,7.417,6.193
				c3.816,0,6.696-3.24,6.696-7.273c0-6.264-3.6-13.609-6.984-19.729c-4.969-9.361-8.209-13.537-8.209-17.137
				c0-3.24,1.944-5.113,5.041-5.113c0.576,0,1.08,0.072,1.656,0.144l1.296-0.936h2.16l2.592,6.553L456.238,53.79z"/>
			<path fill="#FFDA6A" d="M494.901,53.79c-2.376-2.088-3.312-3.168-4.681-3.168s-2.088,1.008-2.088,2.088
				c0,2.52,3.024,6.12,7.488,14.329c3.457,6.265,7.705,14.545,7.705,21.53c0,7.272-4.824,11.305-10.297,11.305
				c-1.944,0-4.177-0.792-5.545-1.656l-1.296,0.792h-1.872l-1.008-7.921l2.304-0.864c1.297,2.881,2.881,6.193,7.417,6.193
				c3.816,0,6.696-3.24,6.696-7.273c0-6.264-3.6-13.609-6.984-19.729c-4.969-9.361-8.209-13.537-8.209-17.137
				c0-3.24,1.944-5.113,5.041-5.113c0.576,0,1.08,0.072,1.656,0.144l1.296-0.936h2.16l2.592,6.553L494.901,53.79z"/>
			<path fill="#FFDA6A" d="M507.932,99.01v-2.736c3.24-0.36,3.24-0.72,3.24-2.809V53.574c0-2.088,0-2.52-3.24-2.808v-2.736h8.713
				c1.728,0,4.536,0,7.128-1.08l2.593,4.896l-2.16,1.224c-1.152-0.936-1.729-1.872-4.104-1.872h-5.328v6.192h6.769
				c2.376,0,2.592-0.792,2.664-2.016h2.16v7.201h-2.16c-0.216-1.08-0.504-2.016-2.521-2.016h-6.912v35.283h7.416
				c3.312,0,3.816-1.513,5.041-3.024l2.16,1.44l-2.593,5.616c-1.368-0.36-3.096-0.576-4.896-0.721
				c-1.728-0.144-3.456-0.144-4.752-0.144H507.932z"/>
			<path fill="#FFDA6A" d="M532.772,99.01v-2.736c2.952-0.36,2.952-0.72,2.952-2.809V53.574c0-2.088,0-2.52-2.952-2.808v-2.736
				h13.104c6.265,0,8.137,2.521,8.137,5.905c0,2.232-0.792,4.68-4.176,5.616c0,7.057,0.864,23.114,2.664,29.811
				c1.296,4.968,2.521,6.552,4.969,6.912v2.736h-5.473c-0.937-2.088-1.872-4.393-2.809-7.921
				c-2.304-8.641-2.952-24.122-2.952-31.322h-6.912v33.698c0,1.944,0,2.448,2.952,2.809v2.736H532.772z M545.876,56.598
				c2.881,0,4.32-0.648,4.32-2.736c0-1.872-1.943-2.664-4.32-2.664h-6.552v5.4H545.876z"/>
			<path fill="#FFDA6A" d="M567.188,99.01v-2.736c1.008-0.144,2.809,0,2.809-1.224c0-1.009-0.937-5.113-1.513-7.993l-6.769-33.339
				c-0.432-2.088-1.152-2.736-2.736-2.952v-2.736h8.209v2.736c-1.368,0.144-2.305,0.072-2.305,1.08c0,0.432,0.937,4.896,1.513,7.705
				l6.408,32.115h0.145l6.12-32.115c0.576-2.808,1.512-7.272,1.512-7.705c0-1.008-0.936-0.936-2.304-1.08v-2.736h8.209v2.736
				c-1.584,0.216-2.305,0.864-2.736,2.952l-6.553,33.339c-0.576,2.88-1.296,6.984-1.296,7.993c0,1.224,1.8,1.08,2.808,1.224v2.736
				H567.188z"/>
			<path fill="#FFDA6A" d="M590.659,99.01v-2.736c2.953-0.36,2.953-0.72,2.953-2.809V53.574c0-2.088,0-2.52-2.953-2.808v-2.736
				h9.505v2.736c-2.952,0.288-2.952,0.72-2.952,2.808v39.891c0,1.944,0,2.448,2.952,2.809v2.736H590.659z"/>
			<path fill="#FFDA6A" d="M605.275,99.01v-2.736c2.952-0.36,2.952-0.72,2.952-2.809V53.574c0-2.088,0-2.52-2.952-2.808v-2.736
				h13.104c6.265,0,8.137,2.521,8.137,5.905c0,2.232-0.792,4.68-4.176,5.616c0,7.057,0.864,23.114,2.664,29.811
				c1.296,4.968,2.521,6.552,4.969,6.912v2.736H624.5c-0.937-2.088-1.872-4.393-2.809-7.921c-2.304-8.641-2.952-24.122-2.952-31.322
				h-6.912v33.698c0,1.944,0,2.448,2.952,2.809v2.736H605.275z M618.379,56.598c2.881,0,4.32-0.648,4.32-2.736
				c0-1.872-1.943-2.664-4.32-2.664h-6.552v5.4H618.379z"/>
		</g>
	</g>
</g>
</svg>
