<?xml version="1.0" encoding="utf-8"?>
<!-- Generator: Adobe Illustrator 15.0.0, SVG Export Plug-In  -->
<!DOCTYPE svg PUBLIC "-//W3C//DTD SVG 1.1//EN" "http://www.w3.org/Graphics/SVG/1.1/DTD/svg11.dtd" [
	<!ENTITY ns_flows "http://ns.adobe.com/Flows/1.0/">
]>
<svg version="1.1"
	 xmlns="http://www.w3.org/2000/svg" xmlns:xlink="http://www.w3.org/1999/xlink" xmlns:a="http://ns.adobe.com/AdobeSVGViewerExtensions/3.0/"
	 x="0px" y="0px" width="246px" height="102px" viewBox="0 0 246 102" overflow="visible" enable-background="new 0 0 246 102"
	 xml:space="preserve">
<defs>
</defs>
<path fill="#FFED00" d="M236.68,33.071c-8.991-9.179-27.234-14.079-39.235-18.681c-12.259-4.699-28.144-11.419-41.56-9.643
	c6.806,5.624,10.429,10.011,14.625,17.561C143.103,7.276,114.993,2.84,83.722,3.654C61.187,4.242,25.78,9.312,12.049,28.579
	C4.661,38.944-0.647,51.991,7.953,61.532c10.679,11.845,32.545,17.906,47.623,21.396c30.842,7.143,65.928,10.153,97.354,6.266
	c6.846-0.848,13.243-1.902,19.547-4.369c-2.737,5.519-8.456,10.919-14.283,13.319c11.299-0.413,27.048,0.098,40.037-2.916
	c9.481-2.199,23.464-2.662,31.521-7.579c18.062-11.022,14.479-41.322,5.146-56.359"/>
<path fill="#F37C00" d="M158.191,101.708c-1.669,0-3.123-1.165-3.48-2.809c-0.364-1.688,0.53-3.393,2.127-4.05
	c1.959-0.807,3.945-2.043,5.776-3.539c-2.92,0.571-5.968,1.013-9.246,1.42c-29.957,3.702-64.972,1.457-98.596-6.33
	c-15.838-3.666-38.198-9.986-49.465-22.484c-8.219-9.116-6.855-22.399,3.842-37.404C25.191,4.001,66.58,0.537,83.629,0.093
	c29.755-0.771,53.768,3.234,75.925,12.869c-1.694-1.796-3.614-3.548-5.939-5.467c-1.092-0.903-1.544-2.368-1.155-3.73
	c0.392-1.362,1.553-2.363,2.959-2.55c13.307-1.764,28.368,4.071,40.474,8.758l2.826,1.091c2.387,0.915,5.024,1.841,7.783,2.812
	c10.436,3.669,22.109,7.775,30.022,14.242c0.485,0.249,0.921,0.612,1.259,1.081c0.5,0.449,0.982,0.909,1.442,1.38
	c0.813,0.829,1.137,1.953,0.979,3.018c4.729,9.86,7.851,24.499,4.719,37.651c-2.063,8.664-6.666,15.387-13.314,19.444
	c-6.158,3.759-14.714,5.063-22.988,6.322c-3.479,0.529-6.764,1.03-9.586,1.685c-10.509,2.439-22.342,2.645-32.785,2.821
	c-2.805,0.05-5.47,0.094-7.927,0.185C158.279,101.708,158.235,101.708,158.191,101.708z M172.474,81.261
	c0.982,0,1.94,0.406,2.63,1.155c0.993,1.086,1.22,2.672,0.565,3.991c-1.378,2.78-3.407,5.509-5.805,7.92
	c9.109-0.186,18.975-0.578,27.561-2.572c3.086-0.713,6.505-1.234,10.123-1.788c7.225-1.1,15.412-2.346,20.348-5.359
	c5.062-3.09,8.459-8.139,10.095-15.011c2.921-12.269-0.607-27.049-5.694-35.723c-6.975-5.827-18.63-9.926-28.157-13.277
	c-2.829-0.993-5.527-1.943-7.972-2.881l-2.85-1.1c-8.647-3.348-18.908-7.321-28.389-8.346c3.308,3.535,5.893,7.261,8.695,12.305
	c0.771,1.387,0.53,3.118-0.588,4.244c-1.119,1.126-2.849,1.375-4.239,0.612C144.203,11.944,117.999,6.319,83.815,7.217
	C71.346,7.542,29.53,10.191,14.951,30.646c-6.052,8.491-11.719,20.325-4.353,28.499c9.922,11.006,30.879,16.861,45.78,20.314
	c32.835,7.599,66.971,9.805,96.113,6.196c7.093-0.877,12.985-1.918,18.685-4.147C171.6,81.341,172.04,81.261,172.474,81.261z"/>
</svg>
