<?xml version="1.0" encoding="utf-8"?>
<!-- Generator: Adobe Illustrator 15.0.0, SVG Export Plug-In  -->
<!DOCTYPE svg PUBLIC "-//W3C//DTD SVG 1.1//EN" "http://www.w3.org/Graphics/SVG/1.1/DTD/svg11.dtd" [
	<!ENTITY ns_flows "http://ns.adobe.com/Flows/1.0/">
]>
<svg version="1.1"
	 xmlns="http://www.w3.org/2000/svg" xmlns:xlink="http://www.w3.org/1999/xlink" xmlns:a="http://ns.adobe.com/AdobeSVGViewerExtensions/3.0/"
	 x="0px" y="0px" width="299px" height="330px" viewBox="0 0 299 330" overflow="visible" enable-background="new 0 0 299 330"
	 xml:space="preserve">
<defs>
</defs>
<linearGradient id="SVGID_1_" gradientUnits="userSpaceOnUse" x1="189.3999" y1="263.1782" x2="189.3999" y2="150.9727">
	<stop  offset="0" style="stop-color:#4B514E"/>
	<stop  offset="1" style="stop-color:#3A3F3D"/>
</linearGradient>
<path fill="url(#SVGID_1_)" d="M26.824,131.416v116.11c0,0-4.127,80.503,202.806,80.503s88.759-109.917,88.759-109.917
	l-128.989-66.57L29.471,131.416"/>
<path fill="#1D1D1B" d="M229.629,330.425c-118.035,0-167.846-26.351-188.848-48.456c-16.603-17.477-16.405-33.145-16.355-34.495
	V131.416h4.794v1.985l0.549-4.364l160.35,20.179l129.66,66.917l0.241,0.224c1.841,1.711,44.926,42.305,31.94,75.332
	C341.855,317.392,300.697,330.425,229.629,330.425z M29.221,133.8l-0.002,113.848c-0.006,0.137-0.448,14.854,15.255,31.245
	c20.427,21.322,69.132,46.739,185.156,46.739c37.336,0,66.454-3.635,86.545-10.803c16.623-5.931,27.162-14.306,31.324-24.894
	c11.348-28.862-27.147-66.626-30.513-69.85l-128.308-66.218L29.221,133.8z"/>
<linearGradient id="SVGID_2_" gradientUnits="userSpaceOnUse" x1="123.582" y1="10.146" x2="123.582" y2="38.5325">
	<stop  offset="0" style="stop-color:#4B514E"/>
	<stop  offset="1" style="stop-color:#3A3F3D"/>
</linearGradient>
<path fill="url(#SVGID_2_)" d="M197.634,39.56c0,0-41.284-36.639-113.014-36.639C76.881-2.755,49.53,39.56,49.53,39.56
	l65.022,30.962L197.634,39.56z"/>
<path fill="#1D1D1B" d="M114.438,73.123L46.035,40.551l1.481-2.292c0.061-0.094,6.143-9.482,13.301-18.746
	C74.332,2.023,79.916,0,82.94,0c0.831,0,1.622,0.18,2.33,0.525c37.186,0.116,66.067,10.137,83.784,18.55
	c19.373,9.2,29.739,18.309,30.171,18.692l2.982,2.647L114.438,73.123z M53.037,38.576l61.629,29.346l78.166-29.13
	c-4.404-3.327-13.252-9.427-26.014-15.47C149.474,15.108,121.135,5.318,84.62,5.318h-0.784l-0.633-0.464
	c-0.026-0.019-0.082-0.06-0.262-0.06C78.1,4.794,64.265,21.591,53.037,38.576z"/>
<linearGradient id="SVGID_3_" gradientUnits="userSpaceOnUse" x1="11.3423" y1="95.5049" x2="17.0424" y2="95.5049">
	<stop  offset="0" style="stop-color:#4B514E"/>
	<stop  offset="1" style="stop-color:#3A3F3D"/>
</linearGradient>
<path fill="url(#SVGID_3_)" d="M35.081,52.289c0,0-27.867-4.816-32.684,2.064v76.031c0,0,9.288,9.977,21.331,9.977
	C35.77,140.36,35.081,52.289,35.081,52.289z"/>
<path fill="#1D1D1B" d="M23.728,142.757c-12.938,0-22.677-10.302-23.085-10.741L0,131.327v-77.73l0.434-0.619
	c2.226-3.179,7.56-4.725,16.307-4.725c8.96,0,18.353,1.605,18.749,1.674l1.973,0.341l0.016,2.002
	c0.001,0.193,0.139,19.598-0.926,39.959c-2.195,41.962-7.29,47.096-8.963,48.784C26.158,142.455,24.7,142.757,23.728,142.757z
	 M4.794,129.384c2.201,2.082,9.803,8.579,18.934,8.579c0.028,0,0.188-0.056,0.458-0.327c6.475-6.526,8.631-53.668,8.511-83.292
	c-3.199-0.465-9.777-1.297-15.956-1.297c-8.014,0-10.921,1.387-11.946,2.23V129.384z"/>
<linearGradient id="SVGID_4_" gradientUnits="userSpaceOnUse" x1="178.917" y1="56.0718" x2="178.917" y2="74.6493">
	<stop  offset="0" style="stop-color:#3A3F3D"/>
	<stop  offset="1" style="stop-color:#323232"/>
</linearGradient>
<path fill="url(#SVGID_4_)" d="M303.768,36.806H51.252c0,0-15.828,0-15.828,8.947c0,0-57.107,123.85,46.101,123.85
	c103.209,0,175.454,39.906,175.454,68.805c0,28.898,81.19-100.8,81.19-100.8L303.768,36.806z"/>
<path fill="#1D1D1B" d="M259.263,245.005c0,0-0.001,0-0.002,0c-1.407-0.001-4.68-0.645-4.68-6.597
	c0-13.668-18.236-30.161-47.59-43.044C172.663,180.297,128.105,172,81.524,172c-26.489,0-45.085-8.067-55.27-23.979
	c-9.857-15.401-11.653-37.514-5.336-65.725c4.28-19.115,10.854-34.263,12.122-37.094c0.46-8.502,11.583-10.794,18.211-10.794
	h254.231l35.323,103.505l-0.605,0.967c-0.165,0.263-16.668,26.596-34.57,52.589c-10.534,15.294-19.49,27.489-26.622,36.248
	C266.606,242.949,262.066,245.005,259.263,245.005z M259.262,240.211v2.397V240.211
	C259.263,240.211,259.263,240.211,259.262,240.211z M51.252,39.203c-0.132,0-13.431,0.205-13.431,6.55v0.526l-0.22,0.478
	c-0.295,0.64-29.242,64.424-7.304,98.687c9.247,14.441,26.482,21.763,51.228,21.763c47.229,0,92.472,8.441,127.394,23.768
	c31.594,13.867,50.458,31.6,50.458,47.435c0,0.946,0.104,1.483,0.187,1.763c1.912-0.454,10.5-5.514,42.112-51.409
	c15.914-23.105,30.723-46.488,33.856-51.461l-33.478-98.098H51.252z"/>
</svg>
