<?xml version="1.0" encoding="utf-8"?>
<!-- Generator: Adobe Illustrator 16.0.0, SVG Export Plug-In . SVG Version: 6.00 Build 0)  -->
<!DOCTYPE svg PUBLIC "-//W3C//DTD SVG 1.1//EN" "http://www.w3.org/Graphics/SVG/1.1/DTD/svg11.dtd">
<svg version="1.1" id="Calque_1" xmlns="http://www.w3.org/2000/svg" xmlns:xlink="http://www.w3.org/1999/xlink" x="0px" y="0px"
	 width="149px" height="54px" viewBox="0 0 149 54" enable-background="new 0 0 149 54" xml:space="preserve">
<g id="Calque_1_1_" display="none">
	
		<line display="inline" fill="none" stroke="#000000" stroke-width="2" stroke-miterlimit="10" x1="304.933" y1="549.342" x2="0.45" y2="714.181"/>
	<path display="inline" fill="#4C4B4B" d="M304.933,0l-344.6-43L-125,687.555L0.45,714.181L305,549L304.933,0z M121,647.757
		L-0.186,713.496L-0.311,101.57L121,124.855V647.757z"/>
	<rect x="305" y="-19" display="inline" fill="#7A7A7A" width="998" height="569"/>
	<polygon display="inline" fill="#C9A69B" points="-39.667,808.333 0.45,714.181 305,549 1303,549 1295.558,820.113 0,826.109 	"/>
</g>
<g id="Calque_4" display="none">
	<polygon display="inline" fill="#353535" points="1260,388 580.131,388 528.923,428 1260,428 1260,427.862 	"/>
	
		<rect x="0.5" y="125.5" display="inline" opacity="0.85" fill="#C7EEFF" stroke="#C4E4FF" stroke-miterlimit="10" enable-background="new    " width="124" height="521"/>
	
		<ellipse display="inline" opacity="0.3" fill="#8B8B8B" enable-background="new    " cx="333.308" cy="721.838" rx="195.692" ry="24.839"/>
</g>
<g id="Calque_5" display="none">
	
		<polygon display="inline" opacity="0.2" fill="#C4E4FF" stroke="#83C8F6" stroke-miterlimit="10" enable-background="new    " points="
		1260.5,387.5 1260.5,314.805 1277.5,311.239 1277.5,310.696 1260.672,315.5 579.5,315.5 579.5,387.5 580.131,387.5 581.27,387.5 	
		"/>
	<rect x="529" y="428" display="inline" fill="#7F5441" width="731" height="173"/>
	<g display="inline">
		<path stroke="#000000" stroke-miterlimit="10" d="M571.595,420.279c-0.28,0.373-1.026,0.082-1.673-0.644l0,0
			c-0.645-0.729-0.943-1.626-0.665-2.002l6.403-8.524c0.28-0.369,1.03-0.08,1.674,0.648l0,0c0.646,0.729,0.941,1.62,0.664,1.993
			L571.595,420.279z"/>
		<path stroke="#000000" stroke-miterlimit="10" d="M579.025,410.383c-0.278,0.376-1.027,0.083-1.672-0.648l0,0
			c-0.647-0.726-0.943-1.616-0.664-1.991l6.402-8.522c0.277-0.376,1.028-0.086,1.673,0.645l0,0c0.647,0.729,0.943,1.623,0.664,1.994
			L579.025,410.383z"/>
		<path fill="#FFFFFF" stroke="#000000" stroke-miterlimit="10" d="M581.094,411.466c-0.797,1.064-2.666,0.545-4.172-1.157
			c-1.508-1.703-2.081-3.941-1.282-5.002c0.798-1.063,2.667-0.548,4.173,1.153C581.319,408.161,581.895,410.402,581.094,411.466z"/>
	</g>
	<g display="inline">
		<path stroke="#000000" stroke-miterlimit="10" d="M586.376,420.279c-0.279,0.373-1.027,0.082-1.672-0.644l0,0
			c-0.646-0.729-0.943-1.626-0.665-2.002l6.404-8.524c0.277-0.369,1.028-0.08,1.674,0.648l0,0c0.646,0.729,0.939,1.62,0.664,1.993
			L586.376,420.279z"/>
		<path stroke="#000000" stroke-miterlimit="10" d="M593.808,410.383c-0.276,0.376-1.025,0.083-1.672-0.648l0,0
			c-0.646-0.726-0.942-1.616-0.664-1.991l6.404-8.522c0.278-0.376,1.028-0.086,1.673,0.645l0,0c0.646,0.729,0.942,1.623,0.663,1.994
			L593.808,410.383z"/>
		<path fill="#FFFFFF" stroke="#000000" stroke-miterlimit="10" d="M595.877,411.466c-0.798,1.064-2.666,0.545-4.172-1.157
			c-1.508-1.703-2.081-3.941-1.283-5.002c0.799-1.063,2.667-0.548,4.173,1.153S596.677,410.402,595.877,411.466z"/>
	</g>
	<g display="inline">
		<path stroke="#000000" stroke-miterlimit="10" d="M599.681,420.279c-0.278,0.373-1.025,0.082-1.672-0.644l0,0
			c-0.645-0.729-0.942-1.626-0.665-2.002l6.403-8.524c0.279-0.369,1.03-0.08,1.674,0.648l0,0c0.647,0.729,0.942,1.62,0.664,1.993
			L599.681,420.279z"/>
		<path stroke="#000000" stroke-miterlimit="10" d="M607.111,410.383c-0.278,0.376-1.027,0.083-1.672-0.648l0,0
			c-0.647-0.726-0.943-1.616-0.664-1.991l6.403-8.522c0.277-0.376,1.027-0.086,1.672,0.645l0,0c0.647,0.729,0.943,1.623,0.664,1.994
			L607.111,410.383z"/>
		<path fill="#FFFFFF" stroke="#000000" stroke-miterlimit="10" d="M609.181,411.466c-0.797,1.064-2.665,0.545-4.171-1.157
			c-1.508-1.703-2.083-3.941-1.284-5.002c0.801-1.063,2.667-0.548,4.174,1.153C609.405,408.161,609.981,410.402,609.181,411.466z"/>
	</g>
	<g display="inline">
		<path stroke="#000000" stroke-miterlimit="10" d="M612.986,420.279c-0.28,0.373-1.028,0.082-1.673-0.644l0,0
			c-0.646-0.729-0.944-1.626-0.665-2.002l6.401-8.524c0.28-0.369,1.029-0.08,1.677,0.648l0,0c0.646,0.729,0.939,1.62,0.661,1.993
			L612.986,420.279z"/>
		<path stroke="#000000" stroke-miterlimit="10" d="M620.417,410.383c-0.278,0.376-1.028,0.083-1.672-0.648l0,0
			c-0.647-0.726-0.944-1.616-0.664-1.991l6.404-8.522c0.274-0.376,1.026-0.086,1.673,0.645l0,0c0.646,0.729,0.94,1.623,0.663,1.994
			L620.417,410.383z"/>
		<path fill="#FFFFFF" stroke="#000000" stroke-miterlimit="10" d="M622.485,411.466c-0.798,1.064-2.665,0.545-4.173-1.157
			c-1.509-1.703-2.08-3.941-1.282-5.002c0.799-1.063,2.667-0.548,4.171,1.153C622.71,408.161,623.285,410.402,622.485,411.466z"/>
	</g>
	<g display="inline">
		<path stroke="#000000" stroke-miterlimit="10" d="M627.768,420.279c-0.277,0.373-1.025,0.082-1.672-0.644l0,0
			c-0.645-0.729-0.941-1.626-0.666-2.002l6.403-8.524c0.281-0.369,1.031-0.08,1.675,0.648l0,0c0.646,0.729,0.942,1.62,0.664,1.993
			L627.768,420.279z"/>
		<path stroke="#000000" stroke-miterlimit="10" d="M635.198,410.383c-0.278,0.376-1.026,0.083-1.673-0.648l0,0
			c-0.646-0.726-0.943-1.616-0.662-1.991l6.402-8.522c0.277-0.376,1.027-0.086,1.674,0.645l0,0c0.646,0.729,0.941,1.623,0.664,1.994
			L635.198,410.383z"/>
		<path fill="#FFFFFF" stroke="#000000" stroke-miterlimit="10" d="M637.268,411.466c-0.798,1.064-2.666,0.545-4.172-1.157
			c-1.508-1.703-2.081-3.941-1.283-5.002c0.802-1.063,2.67-0.548,4.175,1.153S638.067,410.402,637.268,411.466z"/>
	</g>
	<g display="inline">
		<path stroke="#000000" stroke-miterlimit="10" d="M641.072,420.279c-0.279,0.373-1.027,0.082-1.673-0.644l0,0
			c-0.646-0.729-0.943-1.626-0.665-2.002l6.401-8.524c0.279-0.369,1.03-0.08,1.675,0.648l0,0c0.646,0.729,0.941,1.62,0.663,1.993
			L641.072,420.279z"/>
		<path stroke="#000000" stroke-miterlimit="10" d="M648.503,410.383c-0.278,0.376-1.027,0.083-1.673-0.648l0,0
			c-0.646-0.726-0.943-1.616-0.663-1.991l6.404-8.522c0.274-0.376,1.025-0.086,1.672,0.645l0,0c0.646,0.729,0.941,1.623,0.663,1.994
			L648.503,410.383z"/>
		<path fill="#FFFFFF" stroke="#000000" stroke-miterlimit="10" d="M650.572,411.466c-0.798,1.064-2.665,0.545-4.172-1.157
			c-1.51-1.703-2.082-3.941-1.282-5.002c0.798-1.063,2.666-0.548,4.171,1.153C650.796,408.161,651.372,410.402,650.572,411.466z"/>
	</g>
	<g display="inline">
		<path stroke="#000000" stroke-miterlimit="10" d="M654.377,420.279c-0.279,0.373-1.027,0.082-1.674-0.644l0,0
			c-0.646-0.729-0.943-1.626-0.665-2.002l6.404-8.524c0.277-0.369,1.027-0.08,1.674,0.648l0,0c0.646,0.729,0.94,1.62,0.664,1.993
			L654.377,420.279z"/>
		<path stroke="#000000" stroke-miterlimit="10" d="M661.808,410.383c-0.276,0.376-1.025,0.083-1.673-0.648l0,0
			c-0.646-0.726-0.941-1.616-0.663-1.991l6.403-8.522c0.277-0.376,1.028-0.086,1.673,0.645l0,0c0.647,0.729,0.942,1.623,0.664,1.994
			L661.808,410.383z"/>
		<path fill="#FFFFFF" stroke="#000000" stroke-miterlimit="10" d="M663.877,411.466c-0.799,1.064-2.666,0.545-4.173-1.157
			c-1.508-1.703-2.081-3.941-1.282-5.002c0.799-1.063,2.667-0.548,4.171,1.153C664.101,408.161,664.676,410.402,663.877,411.466z"/>
	</g>
	<g display="inline">
		<path stroke="#000000" stroke-miterlimit="10" d="M669.158,420.279c-0.279,0.373-1.027,0.082-1.672-0.644l0,0
			c-0.646-0.729-0.942-1.626-0.665-2.002l6.4-8.524c0.28-0.369,1.031-0.08,1.678,0.648l0,0c0.646,0.729,0.938,1.62,0.661,1.993
			L669.158,420.279z"/>
		<path stroke="#000000" stroke-miterlimit="10" d="M676.589,410.383c-0.278,0.376-1.026,0.083-1.672-0.648l0,0
			c-0.647-0.726-0.943-1.616-0.664-1.991l6.404-8.522c0.275-0.376,1.025-0.086,1.673,0.645l0,0c0.646,0.729,0.943,1.623,0.664,1.994
			L676.589,410.383z"/>
		<path fill="#FFFFFF" stroke="#000000" stroke-miterlimit="10" d="M678.659,411.466c-0.798,1.064-2.666,0.545-4.173-1.157
			c-1.508-1.703-2.081-3.941-1.282-5.002c0.798-1.063,2.667-0.548,4.172,1.153C678.883,408.161,679.458,410.402,678.659,411.466z"/>
	</g>
	<g display="inline">
		<path stroke="#000000" stroke-miterlimit="10" d="M682.464,420.279c-0.28,0.373-1.028,0.082-1.673-0.644l0,0
			c-0.646-0.729-0.943-1.626-0.666-2.002l6.403-8.524c0.277-0.369,1.027-0.08,1.675,0.648l0,0c0.645,0.729,0.939,1.62,0.662,1.993
			L682.464,420.279z"/>
		<path stroke="#000000" stroke-miterlimit="10" d="M689.894,410.383c-0.276,0.376-1.026,0.083-1.672-0.648l0,0
			c-0.646-0.726-0.942-1.616-0.664-1.991l6.403-8.522c0.277-0.376,1.028-0.086,1.674,0.645l0,0c0.647,0.729,0.943,1.623,0.663,1.994
			L689.894,410.383z"/>
		<path fill="#FFFFFF" stroke="#000000" stroke-miterlimit="10" d="M691.964,411.466c-0.799,1.064-2.666,0.545-4.173-1.157
			c-1.508-1.703-2.082-3.941-1.282-5.002c0.797-1.063,2.666-0.548,4.171,1.153C692.188,408.161,692.763,410.402,691.964,411.466z"/>
	</g>
	<g display="inline">
		<path stroke="#000000" stroke-miterlimit="10" d="M805.157,420.279c-0.277,0.373-1.026,0.082-1.673-0.644l0,0
			c-0.646-0.729-0.943-1.626-0.664-2.002l6.401-8.524c0.279-0.369,1.029-0.08,1.675,0.648l0,0c0.646,0.729,0.939,1.62,0.661,1.993
			L805.157,420.279z"/>
		<path stroke="#000000" stroke-miterlimit="10" d="M812.588,410.383c-0.278,0.376-1.028,0.083-1.672-0.648l0,0
			c-0.646-0.726-0.943-1.616-0.663-1.991l6.402-8.522c0.275-0.376,1.026-0.086,1.674,0.645l0,0c0.646,0.729,0.942,1.623,0.662,1.994
			L812.588,410.383z"/>
		<path fill="#FFFFFF" stroke="#000000" stroke-miterlimit="10" d="M814.658,411.466c-0.798,1.064-2.666,0.545-4.172-1.157
			c-1.512-1.703-2.082-3.941-1.283-5.002c0.798-1.063,2.666-0.548,4.172,1.153C814.882,408.161,815.458,410.402,814.658,411.466z"/>
	</g>
	<g display="inline">
		<path stroke="#000000" stroke-miterlimit="10" d="M819.939,420.279c-0.277,0.373-1.027,0.082-1.675-0.644l0,0
			c-0.645-0.729-0.942-1.626-0.664-2.002l6.403-8.524c0.279-0.369,1.028-0.08,1.675,0.648l0,0c0.646,0.729,0.94,1.62,0.662,1.993
			L819.939,420.279z"/>
		<path stroke="#000000" stroke-miterlimit="10" d="M827.371,410.383c-0.277,0.376-1.028,0.083-1.672-0.648l0,0
			c-0.648-0.726-0.945-1.616-0.665-1.991l6.403-8.522c0.277-0.376,1.027-0.086,1.674,0.645l0,0c0.646,0.729,0.941,1.623,0.663,1.994
			L827.371,410.383z"/>
		<path fill="#FFFFFF" stroke="#000000" stroke-miterlimit="10" d="M829.44,411.466c-0.801,1.064-2.666,0.545-4.174-1.157
			c-1.509-1.703-2.081-3.941-1.281-5.002c0.798-1.063,2.666-0.548,4.172,1.153C829.665,408.161,830.24,410.402,829.44,411.466z"/>
	</g>
	<g display="inline">
		<path stroke="#000000" stroke-miterlimit="10" d="M833.244,420.279c-0.278,0.373-1.027,0.082-1.673-0.644l0,0
			c-0.646-0.729-0.944-1.626-0.664-2.002l6.4-8.524c0.279-0.369,1.029-0.08,1.677,0.648l0,0c0.645,0.729,0.939,1.62,0.663,1.993
			L833.244,420.279z"/>
		<path stroke="#000000" stroke-miterlimit="10" d="M840.675,410.383c-0.275,0.376-1.025,0.083-1.672-0.648l0,0
			c-0.646-0.726-0.944-1.616-0.664-1.991l6.404-8.522c0.275-0.376,1.025-0.086,1.672,0.645l0,0c0.646,0.729,0.943,1.623,0.663,1.994
			L840.675,410.383z"/>
		<path fill="#FFFFFF" stroke="#000000" stroke-miterlimit="10" d="M842.746,411.466c-0.8,1.064-2.667,0.545-4.174-1.157
			c-1.508-1.703-2.082-3.941-1.282-5.002c0.798-1.063,2.666-0.548,4.171,1.153C842.969,408.161,843.544,410.402,842.746,411.466z"/>
	</g>
	<g display="inline">
		<path stroke="#000000" stroke-miterlimit="10" d="M846.549,420.279c-0.279,0.373-1.025,0.082-1.674-0.644l0,0
			c-0.645-0.729-0.943-1.626-0.664-2.002l6.403-8.524c0.277-0.369,1.027-0.08,1.674,0.648l0,0c0.646,0.729,0.942,1.62,0.663,1.993
			L846.549,420.279z"/>
		<path stroke="#000000" stroke-miterlimit="10" d="M853.979,410.383c-0.276,0.376-1.026,0.083-1.673-0.648l0,0
			c-0.646-0.726-0.941-1.616-0.663-1.991l6.403-8.522c0.277-0.376,1.028-0.086,1.673,0.645l0,0c0.647,0.729,0.942,1.623,0.663,1.994
			L853.979,410.383z"/>
		<path fill="#FFFFFF" stroke="#000000" stroke-miterlimit="10" d="M856.05,411.466c-0.8,1.064-2.667,0.545-4.173-1.157
			c-1.509-1.703-2.082-3.941-1.283-5.002c0.798-1.063,2.667-0.548,4.171,1.153C856.273,408.161,856.849,410.402,856.05,411.466z"/>
	</g>
	<g display="inline">
		<path stroke="#000000" stroke-miterlimit="10" d="M861.33,420.279c-0.277,0.373-1.027,0.082-1.672-0.644l0,0
			c-0.646-0.729-0.944-1.626-0.664-2.002l6.402-8.524c0.277-0.369,1.027-0.08,1.675,0.648l0,0c0.645,0.729,0.938,1.62,0.662,1.993
			L861.33,420.279z"/>
		<path stroke="#000000" stroke-miterlimit="10" d="M868.761,410.383c-0.275,0.376-1.025,0.083-1.671-0.648l0,0
			c-0.646-0.726-0.943-1.616-0.664-1.991l6.403-8.522c0.276-0.376,1.026-0.086,1.673,0.645l0,0c0.646,0.729,0.943,1.623,0.664,1.994
			L868.761,410.383z"/>
		<path fill="#FFFFFF" stroke="#000000" stroke-miterlimit="10" d="M870.832,411.466c-0.799,1.064-2.667,0.545-4.173-1.157
			c-1.509-1.703-2.082-3.941-1.283-5.002c0.798-1.063,2.667-0.548,4.173,1.153S871.631,410.402,870.832,411.466z"/>
	</g>
	<g display="inline">
		<path stroke="#000000" stroke-miterlimit="10" d="M874.635,420.279c-0.276,0.373-1.025,0.082-1.672-0.644l0,0
			c-0.646-0.729-0.943-1.626-0.665-2.002l6.402-8.524c0.278-0.369,1.028-0.08,1.675,0.648l0,0c0.645,0.729,0.941,1.62,0.663,1.993
			L874.635,420.279z"/>
		<path stroke="#000000" stroke-miterlimit="10" d="M882.065,410.383c-0.276,0.376-1.027,0.083-1.673-0.648l0,0
			c-0.646-0.726-0.943-1.616-0.664-1.991l6.402-8.522c0.277-0.376,1.028-0.086,1.674,0.645l0,0c0.647,0.729,0.943,1.623,0.663,1.994
			L882.065,410.383z"/>
		<path fill="#FFFFFF" stroke="#000000" stroke-miterlimit="10" d="M884.136,411.466c-0.799,1.064-2.666,0.545-4.172-1.157
			c-1.509-1.703-2.083-3.941-1.283-5.002c0.798-1.063,2.667-0.548,4.171,1.153C884.359,408.161,884.935,410.402,884.136,411.466z"/>
	</g>
	<g display="inline">
		<path stroke="#000000" stroke-miterlimit="10" d="M887.94,420.279c-0.28,0.373-1.029,0.082-1.676-0.644l0,0
			c-0.646-0.729-0.941-1.626-0.665-2.002l6.403-8.524c0.28-0.369,1.029-0.08,1.675,0.648l0,0c0.646,0.729,0.941,1.62,0.662,1.993
			L887.94,420.279z"/>
		<path stroke="#000000" stroke-miterlimit="10" d="M895.37,410.383c-0.277,0.376-1.028,0.083-1.673-0.648l0,0
			c-0.647-0.726-0.944-1.616-0.663-1.991l6.403-8.522c0.275-0.376,1.026-0.086,1.675,0.645l0,0c0.646,0.729,0.939,1.623,0.661,1.994
			L895.37,410.383z"/>
		<path fill="#FFFFFF" stroke="#000000" stroke-miterlimit="10" d="M897.439,411.466c-0.801,1.064-2.666,0.545-4.174-1.157
			c-1.508-1.703-2.08-3.941-1.28-5.002c0.798-1.063,2.666-0.548,4.171,1.153C897.664,408.161,898.239,410.402,897.439,411.466z"/>
	</g>
	<g display="inline">
		<path stroke="#000000" stroke-miterlimit="10" d="M902.723,420.279c-0.276,0.373-1.025,0.082-1.674-0.644l0,0
			c-0.645-0.729-0.942-1.626-0.664-2.002l6.402-8.524c0.28-0.369,1.03-0.08,1.675,0.648l0,0c0.646,0.729,0.941,1.62,0.663,1.993
			L902.723,420.279z"/>
		<path stroke="#000000" stroke-miterlimit="10" d="M910.152,410.383c-0.277,0.376-1.027,0.083-1.672-0.648l0,0
			c-0.647-0.726-0.944-1.616-0.663-1.991l6.4-8.522c0.278-0.376,1.028-0.086,1.673,0.645l0,0c0.648,0.729,0.943,1.623,0.663,1.994
			L910.152,410.383z"/>
		<path fill="#FFFFFF" stroke="#000000" stroke-miterlimit="10" d="M912.223,411.466c-0.799,1.064-2.667,0.545-4.173-1.157
			c-1.508-1.703-2.081-3.941-1.283-5.002c0.801-1.063,2.667-0.548,4.174,1.153C912.446,408.161,913.021,410.402,912.223,411.466z"/>
	</g>
	<g display="inline">
		<path stroke="#000000" stroke-miterlimit="10" d="M916.026,420.279c-0.278,0.373-1.027,0.082-1.673-0.644l0,0
			c-0.646-0.729-0.944-1.626-0.665-2.002l6.401-8.524c0.28-0.369,1.029-0.08,1.675,0.648l0,0c0.646,0.729,0.94,1.62,0.661,1.993
			L916.026,420.279z"/>
		<path stroke="#000000" stroke-miterlimit="10" d="M923.456,410.383c-0.277,0.376-1.028,0.083-1.671-0.648l0,0
			c-0.648-0.726-0.944-1.616-0.664-1.991l6.402-8.522c0.275-0.376,1.026-0.086,1.675,0.645l0,0c0.646,0.729,0.939,1.623,0.661,1.994
			L923.456,410.383z"/>
		<path fill="#FFFFFF" stroke="#000000" stroke-miterlimit="10" d="M925.526,411.466c-0.798,1.064-2.666,0.545-4.173-1.157
			c-1.51-1.703-2.08-3.941-1.282-5.002c0.798-1.063,2.666-0.548,4.173,1.153C925.75,408.161,926.326,410.402,925.526,411.466z"/>
	</g>
	<g display="inline">
		<path stroke="#000000" stroke-miterlimit="10" d="M1075.678,420.279c-0.279,0.373-1.026,0.082-1.674-0.644l0,0
			c-0.646-0.729-0.943-1.626-0.664-2.002l6.402-8.524c0.28-0.369,1.029-0.08,1.674,0.648l0,0c0.646,0.729,0.942,1.62,0.663,1.993
			L1075.678,420.279z"/>
		<path stroke="#000000" stroke-miterlimit="10" d="M1083.107,410.383c-0.277,0.376-1.028,0.083-1.672-0.648l0,0
			c-0.647-0.726-0.944-1.616-0.664-1.991l6.401-8.522c0.278-0.376,1.028-0.086,1.673,0.645l0,0c0.648,0.729,0.943,1.623,0.663,1.994
			L1083.107,410.383z"/>
		<path fill="#FFFFFF" stroke="#000000" stroke-miterlimit="10" d="M1085.178,411.466c-0.799,1.064-2.667,0.545-4.173-1.157
			c-1.507-1.703-2.081-3.941-1.283-5.002c0.798-1.063,2.666-0.548,4.173,1.153C1085.4,408.161,1085.977,410.402,1085.178,411.466z"
			/>
	</g>
	<g display="inline">
		<path stroke="#000000" stroke-miterlimit="10" d="M1090.459,420.279c-0.278,0.373-1.027,0.082-1.673-0.644l0,0
			c-0.646-0.729-0.943-1.626-0.664-2.002l6.402-8.524c0.277-0.369,1.027-0.08,1.675,0.648l0,0c0.645,0.729,0.941,1.62,0.662,1.993
			L1090.459,420.279z"/>
		<path stroke="#000000" stroke-miterlimit="10" d="M1097.89,410.383c-0.275,0.376-1.026,0.083-1.672-0.648l0,0
			c-0.646-0.726-0.942-1.616-0.664-1.991l6.403-8.522c0.278-0.376,1.028-0.086,1.674,0.645l0,0c0.646,0.729,0.943,1.623,0.662,1.994
			L1097.89,410.383z"/>
		<path fill="#FFFFFF" stroke="#000000" stroke-miterlimit="10" d="M1099.96,411.466c-0.799,1.064-2.666,0.545-4.173-1.157
			c-1.508-1.703-2.082-3.941-1.282-5.002c0.798-1.063,2.666-0.548,4.171,1.153C1100.184,408.161,1100.759,410.402,1099.96,411.466z"
			/>
	</g>
	<g display="inline">
		<path stroke="#000000" stroke-miterlimit="10" d="M1103.764,420.279c-0.277,0.373-1.025,0.082-1.674-0.644l0,0
			c-0.645-0.729-0.94-1.626-0.664-2.002l6.403-8.524c0.28-0.369,1.029-0.08,1.675,0.648l0,0c0.646,0.729,0.941,1.62,0.662,1.993
			L1103.764,420.279z"/>
		<path stroke="#000000" stroke-miterlimit="10" d="M1111.194,410.383c-0.278,0.376-1.028,0.083-1.673-0.648l0,0
			c-0.647-0.726-0.944-1.616-0.663-1.991l6.401-8.522c0.277-0.376,1.027-0.086,1.674,0.645l0,0c0.646,0.729,0.942,1.623,0.662,1.994
			L1111.194,410.383z"/>
		<path fill="#FFFFFF" stroke="#000000" stroke-miterlimit="10" d="M1113.265,411.466c-0.8,1.064-2.667,0.545-4.173-1.157
			c-1.508-1.703-2.082-3.941-1.283-5.002c0.8-1.063,2.668-0.548,4.174,1.153S1114.062,410.402,1113.265,411.466z"/>
	</g>
	<g display="inline">
		<path stroke="#000000" stroke-miterlimit="10" d="M1117.068,420.279c-0.279,0.373-1.028,0.082-1.674-0.644l0,0
			c-0.646-0.729-0.944-1.626-0.664-2.002l6.4-8.524c0.28-0.369,1.029-0.08,1.676,0.648l0,0c0.646,0.729,0.94,1.62,0.661,1.993
			L1117.068,420.279z"/>
		<path stroke="#000000" stroke-miterlimit="10" d="M1124.498,410.383c-0.276,0.376-1.028,0.083-1.672-0.648l0,0
			c-0.648-0.726-0.943-1.616-0.664-1.991l6.404-8.522c0.275-0.376,1.025-0.086,1.673,0.645l0,0c0.646,0.729,0.939,1.623,0.663,1.994
			L1124.498,410.383z"/>
		<path fill="#FFFFFF" stroke="#000000" stroke-miterlimit="10" d="M1126.568,411.466c-0.799,1.064-2.666,0.545-4.174-1.157
			c-1.509-1.703-2.08-3.941-1.281-5.002c0.797-1.063,2.666-0.548,4.172,1.153C1126.792,408.161,1127.367,410.402,1126.568,411.466z"
			/>
	</g>
	<g display="inline">
		<path stroke="#000000" stroke-miterlimit="10" d="M1131.85,420.279c-0.275,0.373-1.025,0.082-1.672-0.644l0,0
			c-0.646-0.729-0.942-1.626-0.665-2.002l6.403-8.524c0.279-0.369,1.029-0.08,1.674,0.648l0,0c0.646,0.729,0.941,1.62,0.662,1.993
			L1131.85,420.279z"/>
		<path stroke="#000000" stroke-miterlimit="10" d="M1139.28,410.383c-0.276,0.376-1.028,0.083-1.671-0.648l0,0
			c-0.648-0.726-0.944-1.616-0.664-1.991l6.4-8.522c0.277-0.376,1.028-0.086,1.676,0.645l0,0c0.646,0.729,0.94,1.623,0.662,1.994
			L1139.28,410.383z"/>
		<path fill="#FFFFFF" stroke="#000000" stroke-miterlimit="10" d="M1141.351,411.466c-0.798,1.064-2.666,0.545-4.172-1.157
			c-1.509-1.703-2.081-3.941-1.282-5.002c0.799-1.063,2.666-0.548,4.174,1.153C1141.574,408.161,1142.15,410.402,1141.351,411.466z"
			/>
	</g>
	<g display="inline">
		<path stroke="#000000" stroke-miterlimit="10" d="M1145.154,420.279c-0.279,0.373-1.028,0.082-1.673-0.644l0,0
			c-0.646-0.729-0.944-1.626-0.663-2.002l6.399-8.524c0.28-0.369,1.029-0.08,1.677,0.648l0,0c0.645,0.729,0.939,1.62,0.662,1.993
			L1145.154,420.279z"/>
		<path stroke="#000000" stroke-miterlimit="10" d="M1152.584,410.383c-0.276,0.376-1.027,0.083-1.671-0.648l0,0
			c-0.648-0.726-0.944-1.616-0.664-1.991l6.404-8.522c0.274-0.376,1.024-0.086,1.673,0.645l0,0c0.646,0.729,0.941,1.623,0.662,1.994
			L1152.584,410.383z"/>
		<path fill="#FFFFFF" stroke="#000000" stroke-miterlimit="10" d="M1154.654,411.466c-0.797,1.064-2.666,0.545-4.172-1.157
			c-1.51-1.703-2.081-3.941-1.283-5.002c0.799-1.063,2.667-0.548,4.173,1.153S1155.454,410.402,1154.654,411.466z"/>
	</g>
	<g display="inline">
		<path stroke="#000000" stroke-miterlimit="10" d="M1158.459,420.279c-0.279,0.373-1.028,0.082-1.673-0.644l0,0
			c-0.646-0.729-0.944-1.626-0.664-2.002l6.401-8.524c0.278-0.369,1.027-0.08,1.675,0.648l0,0c0.646,0.729,0.939,1.62,0.663,1.993
			L1158.459,420.279z"/>
		<path stroke="#000000" stroke-miterlimit="10" d="M1165.889,410.383c-0.274,0.376-1.025,0.083-1.671-0.648l0,0
			c-0.647-0.726-0.942-1.616-0.665-1.991l6.404-8.522c0.276-0.376,1.028-0.086,1.674,0.645l0,0c0.646,0.729,0.941,1.623,0.662,1.994
			L1165.889,410.383z"/>
		<path fill="#FFFFFF" stroke="#000000" stroke-miterlimit="10" d="M1167.959,411.466c-0.798,1.064-2.667,0.545-4.172-1.157
			c-1.509-1.703-2.082-3.941-1.283-5.002c0.799-1.063,2.666-0.548,4.172,1.153C1168.184,408.161,1168.76,410.402,1167.959,411.466z"
			/>
	</g>
	<g display="inline">
		<path stroke="#000000" stroke-miterlimit="10" d="M1173.242,420.279c-0.279,0.373-1.028,0.082-1.674-0.644l0,0
			c-0.646-0.729-0.944-1.626-0.664-2.002l6.4-8.524c0.28-0.369,1.029-0.08,1.676,0.648l0,0c0.646,0.729,0.94,1.62,0.662,1.993
			L1173.242,420.279z"/>
		<path stroke="#000000" stroke-miterlimit="10" d="M1180.672,410.383c-0.277,0.376-1.027,0.083-1.673-0.648l0,0
			c-0.647-0.726-0.942-1.616-0.663-1.991l6.404-8.522c0.275-0.376,1.027-0.086,1.673,0.645l0,0c0.646,0.729,0.941,1.623,0.662,1.994
			L1180.672,410.383z"/>
		<path fill="#FFFFFF" stroke="#000000" stroke-miterlimit="10" d="M1182.741,411.466c-0.798,1.064-2.666,0.545-4.172-1.157
			c-1.51-1.703-2.081-3.941-1.283-5.002c0.798-1.063,2.666-0.548,4.173,1.153C1182.965,408.161,1183.541,410.402,1182.741,411.466z"
			/>
	</g>
	<g display="inline">
		<path stroke="#000000" stroke-miterlimit="10" d="M1186.546,420.279c-0.279,0.373-1.028,0.082-1.674-0.644l0,0
			c-0.646-0.729-0.944-1.626-0.663-2.002l6.401-8.524c0.28-0.369,1.027-0.08,1.675,0.648l0,0c0.646,0.729,0.941,1.62,0.662,1.993
			L1186.546,420.279z"/>
		<path stroke="#000000" stroke-miterlimit="10" d="M1193.976,410.383c-0.275,0.376-1.026,0.083-1.672-0.648l0,0
			c-0.646-0.726-0.941-1.616-0.664-1.991l6.404-8.522c0.277-0.376,1.028-0.086,1.673,0.645l0,0c0.647,0.729,0.943,1.623,0.662,1.994
			L1193.976,410.383z"/>
		<path fill="#FFFFFF" stroke="#000000" stroke-miterlimit="10" d="M1196.046,411.466c-0.798,1.064-2.667,0.545-4.173-1.157
			c-1.507-1.703-2.08-3.941-1.283-5.002c0.799-1.063,2.666-0.548,4.173,1.153S1196.846,410.402,1196.046,411.466z"/>
	</g>
	<g display="inline">
		<path stroke="#000000" stroke-miterlimit="10" d="M1202.807,420.279c-0.276,0.373-1.025,0.082-1.674-0.644l0,0
			c-0.645-0.729-0.941-1.626-0.664-2.002l6.403-8.524c0.279-0.369,1.029-0.08,1.674,0.648l0,0c0.646,0.729,0.942,1.62,0.663,1.993
			L1202.807,420.279z"/>
		<path stroke="#000000" stroke-miterlimit="10" d="M1210.237,410.383c-0.278,0.376-1.028,0.083-1.673-0.648l0,0
			c-0.647-0.726-0.944-1.616-0.663-1.991l6.401-8.522c0.277-0.376,1.027-0.086,1.674,0.645l0,0c0.646,0.729,0.941,1.623,0.662,1.994
			L1210.237,410.383z"/>
		<path fill="#FFFFFF" stroke="#000000" stroke-miterlimit="10" d="M1212.308,411.466c-0.8,1.064-2.667,0.545-4.173-1.157
			c-1.51-1.703-2.082-3.941-1.283-5.002c0.8-1.063,2.666-0.548,4.173,1.153C1212.53,408.161,1213.105,410.402,1212.308,411.466z"/>
	</g>
	<g display="inline">
		<path stroke="#000000" stroke-miterlimit="10" d="M1217.588,420.279c-0.277,0.373-1.027,0.082-1.672-0.644l0,0
			c-0.646-0.729-0.943-1.626-0.665-2.002l6.402-8.524c0.278-0.369,1.028-0.08,1.676,0.648l0,0c0.645,0.729,0.938,1.62,0.662,1.993
			L1217.588,420.279z"/>
		<path stroke="#000000" stroke-miterlimit="10" d="M1225.02,410.383c-0.276,0.376-1.026,0.083-1.673-0.648l0,0
			c-0.646-0.726-0.942-1.616-0.663-1.991l6.403-8.522c0.277-0.376,1.027-0.086,1.673,0.645l0,0c0.646,0.729,0.943,1.623,0.663,1.994
			L1225.02,410.383z"/>
		<path fill="#FFFFFF" stroke="#000000" stroke-miterlimit="10" d="M1227.09,411.466c-0.799,1.064-2.667,0.545-4.173-1.157
			c-1.509-1.703-2.082-3.941-1.283-5.002c0.798-1.063,2.667-0.548,4.171,1.153C1227.312,408.161,1227.889,410.402,1227.09,411.466z"
			/>
	</g>
	<g display="inline">
		<path stroke="#000000" stroke-miterlimit="10" d="M1230.893,420.279c-0.276,0.373-1.025,0.082-1.673-0.644l0,0
			c-0.646-0.729-0.942-1.626-0.665-2.002l6.403-8.524c0.279-0.369,1.029-0.08,1.675,0.648l0,0c0.646,0.729,0.941,1.62,0.662,1.993
			L1230.893,420.279z"/>
		<path stroke="#000000" stroke-miterlimit="10" d="M1238.323,410.383c-0.277,0.376-1.028,0.083-1.672-0.648l0,0
			c-0.647-0.726-0.944-1.616-0.664-1.991l6.401-8.522c0.277-0.376,1.028-0.086,1.676,0.645l0,0c0.646,0.729,0.94,1.623,0.66,1.994
			L1238.323,410.383z"/>
		<path fill="#FFFFFF" stroke="#000000" stroke-miterlimit="10" d="M1240.395,411.466c-0.8,1.064-2.666,0.545-4.174-1.157
			c-1.509-1.703-2.082-3.941-1.28-5.002c0.797-1.063,2.666-0.548,4.171,1.153C1240.617,408.161,1241.192,410.402,1240.395,411.466z"
			/>
	</g>
	<g display="inline">
		<path stroke="#000000" stroke-miterlimit="10" d="M932.287,420.279c-0.278,0.373-1.027,0.082-1.674-0.644l0,0
			c-0.646-0.729-0.944-1.626-0.663-2.002l6.4-8.524c0.28-0.369,1.028-0.08,1.677,0.648l0,0c0.646,0.729,0.938,1.62,0.662,1.993
			L932.287,420.279z"/>
		<path stroke="#000000" stroke-miterlimit="10" d="M939.717,410.383c-0.277,0.376-1.027,0.083-1.671-0.648l0,0
			c-0.647-0.726-0.944-1.616-0.665-1.991l6.404-8.522c0.277-0.376,1.027-0.086,1.673,0.645l0,0c0.646,0.729,0.942,1.623,0.662,1.994
			L939.717,410.383z"/>
		<path fill="#FFFFFF" stroke="#000000" stroke-miterlimit="10" d="M941.786,411.466c-0.797,1.064-2.665,0.545-4.171-1.157
			c-1.51-1.703-2.081-3.941-1.283-5.002c0.799-1.063,2.666-0.548,4.172,1.153C942.011,408.161,942.587,410.402,941.786,411.466z"/>
	</g>
	<g display="inline">
		<path stroke="#000000" stroke-miterlimit="10" d="M947.069,420.279c-0.278,0.373-1.028,0.082-1.673-0.644l0,0
			c-0.646-0.729-0.945-1.626-0.664-2.002l6.399-8.524c0.281-0.369,1.029-0.08,1.679,0.648l0,0c0.645,0.729,0.938,1.62,0.659,1.993
			L947.069,420.279z"/>
		<path stroke="#000000" stroke-miterlimit="10" d="M954.5,410.383c-0.277,0.376-1.028,0.083-1.672-0.648l0,0
			c-0.648-0.726-0.944-1.616-0.665-1.991l6.404-8.522c0.275-0.376,1.026-0.086,1.673,0.645l0,0c0.646,0.729,0.942,1.623,0.663,1.994
			L954.5,410.383z"/>
		<path fill="#FFFFFF" stroke="#000000" stroke-miterlimit="10" d="M956.569,411.466c-0.798,1.064-2.666,0.545-4.173-1.157
			c-1.509-1.703-2.08-3.941-1.282-5.002c0.799-1.063,2.667-0.548,4.172,1.153C956.794,408.161,957.369,410.402,956.569,411.466z"/>
	</g>
	<g display="inline">
		<path stroke="#000000" stroke-miterlimit="10" d="M960.373,420.279c-0.277,0.373-1.027,0.082-1.673-0.644l0,0
			c-0.646-0.729-0.944-1.626-0.664-2.002l6.403-8.524c0.277-0.369,1.026-0.08,1.675,0.648l0,0c0.645,0.729,0.938,1.62,0.662,1.993
			L960.373,420.279z"/>
		<path stroke="#000000" stroke-miterlimit="10" d="M967.805,410.383c-0.276,0.376-1.026,0.083-1.672-0.648l0,0
			c-0.646-0.726-0.945-1.616-0.665-1.991l6.404-8.522c0.276-0.376,1.028-0.086,1.673,0.645l0,0c0.646,0.729,0.942,1.623,0.663,1.994
			L967.805,410.383z"/>
		<path fill="#FFFFFF" stroke="#000000" stroke-miterlimit="10" d="M969.875,411.466c-0.8,1.064-2.667,0.545-4.173-1.157
			c-1.509-1.703-2.082-3.941-1.283-5.002c0.798-1.063,2.666-0.548,4.172,1.153C970.099,408.161,970.674,410.402,969.875,411.466z"/>
	</g>
	<g display="inline">
		<path fill="#211E1D" d="M732,413h31.734c0,0-8.033-64.934,13.298-64.6L754,349.747V325h-7"/>
		<path fill="#211E1D" d="M763,413h-30.599c0,0,7.967-64.934-13.366-64.6L742,349.747V325h8"/>
	</g>
	<g display="inline">
		<g>
			<g>
				<path fill="#D7A70E" d="M735.388,349.652c0.333,0.853,0.478,1.611,0.318,1.705c-0.157,0.096-0.556-0.518-0.888-1.365
					c-0.333-0.85-0.479-1.614-0.318-1.707C734.655,348.193,735.054,348.807,735.388,349.652z"/>
				<path fill="#D7A70E" d="M735.669,351.954c-0.405,0-0.834-0.576-1.278-1.711c-0.538-1.364-0.568-2.201-0.101-2.481l0.101-0.061
					l0.144-0.006c0.406,0,0.84,0.57,1.281,1.707c0.535,1.367,0.57,2.199,0.102,2.483l-0.102,0.058L735.669,351.954z"/>
			</g>
			<g>
				<path fill="#D7A70E" d="M737.29,354.324c0.334,0.846,0.475,1.611,0.317,1.707c-0.158,0.092-0.558-0.521-0.887-1.372
					c-0.337-0.847-0.477-1.609-0.316-1.704C736.56,352.863,736.957,353.473,737.29,354.324z"/>
				<path fill="#D7A70E" d="M737.574,356.62c-0.405,0-0.835-0.574-1.28-1.706c-0.538-1.367-0.57-2.203-0.1-2.486l0.1-0.057
					l0.143-0.007c0.405,0,0.84,0.575,1.28,1.704c0.539,1.371,0.572,2.205,0.103,2.486l-0.103,0.06L737.574,356.62z"/>
			</g>
			<g>
				<g>
					<path fill="#D7A70E" d="M739.194,358.992c0.333,0.847,0.474,1.611,0.315,1.706c-0.152,0.092-0.555-0.521-0.887-1.367
						c-0.334-0.853-0.475-1.613-0.32-1.708C738.461,357.535,738.861,358.146,739.194,358.992z"/>
					<path fill="#D7A70E" d="M739.479,361.287c-0.405,0-0.837-0.57-1.279-1.706c-0.539-1.367-0.57-2.198-0.1-2.483l0.1-0.057
						l0.142-0.011c0.407,0,0.839,0.575,1.284,1.713c0.536,1.364,0.571,2.198,0.096,2.479l-0.096,0.059L739.479,361.287z"/>
				</g>
				<g>
					<path fill="#D7A70E" d="M741.095,363.662c0.337,0.85,0.479,1.609,0.321,1.702c-0.159,0.096-0.556-0.517-0.89-1.365
						c-0.332-0.851-0.474-1.612-0.318-1.705C740.366,362.201,740.763,362.812,741.095,363.662z"/>
					<path fill="#D7A70E" d="M741.381,365.96c-0.406,0-0.838-0.576-1.282-1.707c-0.536-1.367-0.567-2.202-0.098-2.483l0.098-0.061
						l0.146-0.008c0.406,0,0.839,0.576,1.282,1.709c0.534,1.365,0.571,2.199,0.099,2.482l-0.099,0.058L741.381,365.96z"/>
				</g>
			</g>
			<g>
				<g>
					<path fill="#D7A70E" d="M742.999,368.331c0.333,0.851,0.478,1.61,0.319,1.703c-0.157,0.094-0.557-0.517-0.889-1.367
						c-0.334-0.849-0.476-1.608-0.316-1.705C742.27,366.872,742.668,367.486,742.999,368.331z"/>
					<path fill="#D7A70E" d="M743.285,370.629c-0.407,0-0.839-0.574-1.283-1.71c-0.536-1.364-0.57-2.202-0.1-2.479l0.1-0.058
						l0.146-0.011c0.403,0,0.834,0.576,1.277,1.705c0.538,1.369,0.569,2.206,0.103,2.486l-0.103,0.06L743.285,370.629z"/>
				</g>
				<g>
					<path fill="#D7A70E" d="M744.904,373.001c0.332,0.849,0.476,1.61,0.316,1.705c-0.156,0.09-0.557-0.521-0.888-1.369
						c-0.334-0.846-0.477-1.61-0.319-1.704C744.173,371.541,744.569,372.15,744.904,373.001z"/>
					<path fill="#D7A70E" d="M745.186,375.298c-0.401,0-0.836-0.575-1.276-1.708c-0.54-1.367-0.572-2.203-0.103-2.482l0.103-0.061
						l0.14-0.005c0.411,0,0.841,0.567,1.287,1.706c0.533,1.367,0.567,2.202,0.097,2.482l-0.097,0.059L745.186,375.298z"/>
				</g>
			</g>
		</g>
		<g>
			<g>
				<path fill="#D7A70E" d="M760.512,349.652c-0.332,0.853-0.474,1.611-0.316,1.705c0.154,0.096,0.556-0.518,0.887-1.365
					c0.336-0.85,0.477-1.614,0.321-1.707C761.242,348.193,760.844,348.807,760.512,349.652z"/>
				<path fill="#D7A70E" d="M760.229,353L760.229,353h-0.107l-0.133-0.591c-0.476-0.281-0.439-1.728,0.098-3.093
					c0.443-1.135,0.873-2.316,1.282-2.316h0.104l0.134,0.41c0.476,0.281,0.44,1.814-0.097,3.188
					C761.065,351.729,760.633,353,760.229,353z"/>
			</g>
			<g>
				<path fill="#D7A70E" d="M758.607,354.324c-0.332,0.846-0.476,1.611-0.317,1.707c0.155,0.092,0.555-0.521,0.888-1.372
					c0.333-0.847,0.479-1.609,0.319-1.704C759.34,352.863,758.942,353.473,758.607,354.324z"/>
				<path fill="#D7A70E" d="M758.324,358L758.324,358h-0.108l-0.132-0.757c-0.474-0.281-0.441-1.144,0.096-2.511
					c0.442-1.133,0.877-1.731,1.282-1.731h0.11h0.13c0.476,0,0.441,1.519-0.095,2.89C759.162,357.021,758.729,358,758.324,358z"/>
			</g>
			<g>
				<g>
					<path fill="#D7A70E" d="M756.708,358.992c-0.336,0.847-0.478,1.611-0.321,1.706c0.159,0.092,0.558-0.521,0.889-1.367
						c0.336-0.853,0.476-1.613,0.317-1.708C757.438,357.535,757.04,358.146,756.708,358.992z"/>
					<path fill="#D7A70E" d="M756.421,361L756.421,361h-0.105l-0.136,0.076c-0.475-0.278-0.438-0.561,0.101-1.924
						c0.442-1.137,0.875-1.152,1.277-1.152h0.109l0.134-0.418c0.476,0.282,0.438,0.732-0.099,2.098
						C757.258,360.812,756.831,361,756.421,361z"/>
				</g>
				<g>
					<path fill="#D7A70E" d="M754.804,363.662c-0.335,0.85-0.477,1.609-0.317,1.702c0.152,0.096,0.557-0.517,0.888-1.365
						c0.331-0.851,0.476-1.612,0.317-1.705C755.532,362.201,755.137,362.812,754.804,363.662z"/>
					<path fill="#D7A70E" d="M754.519,366L754.519,366h-0.104l-0.135-0.089c-0.476-0.283-0.441-1.478,0.097-2.845
						c0.444-1.131,0.876-2.066,1.28-2.066h0.107l0.133,0.419c0.476,0.283,0.44,1.312-0.099,2.679
						C755.355,365.227,754.924,366,754.519,366z"/>
				</g>
			</g>
			<g>
				<g>
					<path fill="#D7A70E" d="M752.899,368.331c-0.335,0.851-0.478,1.61-0.318,1.703c0.156,0.094,0.556-0.517,0.886-1.367
						c0.335-0.849,0.479-1.608,0.322-1.705C753.628,366.872,753.233,367.486,752.899,368.331z"/>
					<path fill="#D7A70E" d="M752.613,371L752.613,371h-0.104l-0.134-0.252c-0.476-0.282-0.443-1.395,0.095-2.766
						c0.444-1.131,0.876-1.982,1.282-1.982h0.107l0.131,0.251c0.477,0.28,0.441,1.396-0.099,2.758
						C753.452,370.146,753.021,371,752.613,371z"/>
				</g>
				<g>
					<path fill="#D7A70E" d="M750.997,373.001c-0.334,0.849-0.479,1.61-0.321,1.705c0.158,0.09,0.558-0.521,0.891-1.369
						c0.333-0.846,0.477-1.61,0.318-1.704C751.727,371.541,751.329,372.15,750.997,373.001z"/>
					<path fill="#D7A70E" d="M750.708,375L750.708,375h-0.104l-0.131,0.084c-0.475-0.285-0.442-1.062,0.098-2.434
						c0.442-1.133,0.875-1.65,1.278-1.65h0.109l0.131,0.082c0.478,0.283,0.44,0.982-0.095,2.35
						C751.55,374.564,751.118,375,750.708,375z"/>
				</g>
			</g>
		</g>
		<g>
			<path fill="#D7A70E" d="M750.387,378.012c0,1.571-1.039,2.844-2.316,2.844c-1.283,0-2.317-1.271-2.317-2.844
				c0-1.57,1.034-2.844,2.317-2.844C749.348,375.168,750.387,376.441,750.387,378.012z"/>
			<path fill="#D7A70E" d="M748.068,381.438c-1.541,0-2.795-1.537-2.795-3.427c0-1.892,1.254-3.431,2.795-3.431
				s2.797,1.539,2.797,3.431S749.609,381.438,748.068,381.438z M748.068,375.749c-1.019,0-1.847,1.013-1.847,2.263
				c0,1.243,0.828,2.264,1.847,2.264c1.016,0,1.843-1.021,1.843-2.264C749.911,376.762,749.084,375.749,748.068,375.749z"/>
		</g>
	</g>
	<g display="inline">
		<path fill="#211E1D" d="M1011,412h32.122c0,0-8.229-65.339,13.103-65.005L1033,347.934V322h-6"/>
		<path fill="#211E1D" d="M1044,412h-32.21c0,0,7.771-65.339-13.562-65.005l22.771,0.938V322h10"/>
	</g>
	<g display="inline">
		<g>
			<g>
				<path fill="#D7A70E" d="M1014.775,347.84c0.334,0.852,0.477,1.61,0.317,1.705c-0.155,0.093-0.556-0.52-0.888-1.365
					c-0.334-0.849-0.479-1.615-0.319-1.707C1014.044,346.381,1014.441,346.993,1014.775,347.84z"/>
				<path fill="#D7A70E" d="M1015.059,350.143c-0.403,0-0.836-0.578-1.278-1.713c-0.537-1.365-0.57-2.201-0.102-2.48l0.102-0.061
					l0.143-0.009c0.406,0,0.839,0.573,1.282,1.708c0.537,1.367,0.571,2.201,0.1,2.484l-0.1,0.056L1015.059,350.143z"/>
			</g>
			<g>
				<path fill="#D7A70E" d="M1016.678,352.51c0.334,0.848,0.478,1.61,0.317,1.706c-0.156,0.093-0.556-0.519-0.885-1.37
					c-0.337-0.847-0.478-1.607-0.316-1.703C1015.948,351.051,1016.345,351.66,1016.678,352.51z"/>
				<path fill="#D7A70E" d="M1016.963,354.807c-0.406,0-0.836-0.574-1.28-1.707c-0.536-1.367-0.568-2.201-0.101-2.484l0.101-0.057
					l0.146-0.008c0.402,0,0.836,0.577,1.277,1.706c0.539,1.368,0.571,2.202,0.102,2.487l-0.102,0.056L1016.963,354.807z"/>
			</g>
			<g>
				<g>
					<path fill="#D7A70E" d="M1018.582,357.178c0.334,0.85,0.476,1.615,0.318,1.706c-0.155,0.093-0.557-0.521-0.889-1.366
						c-0.335-0.853-0.476-1.612-0.318-1.707C1017.85,355.72,1018.249,356.333,1018.582,357.178z"/>
					<path fill="#D7A70E" d="M1018.867,359.477c-0.407,0-0.837-0.572-1.282-1.709c-0.538-1.367-0.57-2.199-0.098-2.482l0.098-0.057
						l0.144-0.012c0.406,0,0.84,0.576,1.283,1.713c0.537,1.363,0.571,2.199,0.099,2.482l-0.099,0.059L1018.867,359.477z"/>
				</g>
				<g>
					<path fill="#D7A70E" d="M1020.482,361.848c0.338,0.852,0.479,1.612,0.32,1.705c-0.158,0.096-0.557-0.518-0.891-1.365
						c-0.331-0.85-0.473-1.615-0.316-1.707C1019.755,360.386,1020.152,361,1020.482,361.848z"/>
					<path fill="#D7A70E" d="M1020.771,364.146c-0.408,0-0.842-0.576-1.282-1.707c-0.537-1.367-0.569-2.203-0.101-2.483l0.101-0.062
						l0.144-0.008c0.406,0,0.837,0.576,1.28,1.708c0.538,1.366,0.573,2.202,0.1,2.484l-0.1,0.056L1020.771,364.146z"/>
				</g>
			</g>
			<g>
				<g>
					<path fill="#D7A70E" d="M1022.388,366.518c0.332,0.851,0.479,1.612,0.318,1.705c-0.157,0.094-0.554-0.517-0.885-1.367
						c-0.336-0.852-0.479-1.61-0.32-1.707C1021.658,365.057,1022.056,365.671,1022.388,366.518z"/>
					<path fill="#D7A70E" d="M1022.674,368.816c-0.406,0-0.839-0.573-1.283-1.709c-0.535-1.366-0.568-2.202-0.1-2.483l0.1-0.056
						l0.146-0.012c0.404,0,0.835,0.577,1.279,1.707c0.539,1.369,0.567,2.204,0.102,2.483l-0.102,0.063L1022.674,368.816z"/>
				</g>
				<g>
					<path fill="#D7A70E" d="M1024.292,371.186c0.332,0.852,0.478,1.612,0.319,1.707c-0.158,0.09-0.558-0.521-0.891-1.369
						c-0.333-0.847-0.477-1.611-0.316-1.705C1023.562,369.729,1023.959,370.337,1024.292,371.186z"/>
					<path fill="#D7A70E" d="M1024.575,373.484c-0.404,0-0.836-0.573-1.278-1.707c-0.541-1.367-0.573-2.201-0.104-2.483l0.104-0.06
						l0.141-0.004c0.408,0,0.84,0.567,1.284,1.707c0.535,1.367,0.567,2.201,0.099,2.479l-0.099,0.062L1024.575,373.484z"/>
				</g>
			</g>
		</g>
		<g>
			<g>
				<path fill="#D7A70E" d="M1039.9,347.84c-0.332,0.852-0.476,1.61-0.317,1.705c0.155,0.093,0.554-0.52,0.886-1.365
					c0.337-0.849,0.479-1.615,0.32-1.707S1040.232,346.993,1039.9,347.84z"/>
				<path fill="#D7A70E" d="M1039.617,350L1039.617,350h-0.11l-0.13,0.002c-0.474-0.282-0.441-1.521,0.097-2.888
					c0.443-1.136,0.872-2.114,1.281-2.114h0.106l0.131,0.503c0.476,0.282,0.441,1.269-0.096,2.638
					C1040.455,349.273,1040.021,350,1039.617,350z"/>
			</g>
			<g>
				<path fill="#D7A70E" d="M1037.996,352.51c-0.332,0.848-0.475,1.61-0.318,1.706c0.157,0.093,0.557-0.519,0.891-1.37
					c0.334-0.847,0.477-1.607,0.317-1.703C1038.729,351.051,1038.333,351.66,1037.996,352.51z"/>
				<path fill="#D7A70E" d="M1037.713,357L1037.713,357h-0.107l-0.132-1.161c-0.476-0.284-0.44-1.944,0.097-3.31
					c0.439-1.133,0.877-2.529,1.281-2.529h0.109l0.129,0.342c0.478,0.28,0.443,2.348-0.095,3.721
					C1038.55,355.196,1038.116,357,1037.713,357z"/>
			</g>
			<g>
				<g>
					<path fill="#D7A70E" d="M1036.097,357.178c-0.337,0.85-0.479,1.615-0.32,1.706c0.159,0.093,0.556-0.521,0.888-1.366
						c0.335-0.853,0.477-1.612,0.316-1.707C1036.826,355.72,1036.428,356.333,1036.097,357.178z"/>
					<path fill="#D7A70E" d="M1035.811,359L1035.811,359h-0.106l-0.132,0.171c-0.479-0.278-0.442-0.106,0.098-1.47
						c0.444-1.137,0.875-0.701,1.278-0.701h0.107l0.136-0.825c0.473,0.285,0.438,0.435-0.102,1.802
						C1036.646,359.109,1036.219,359,1035.811,359z"/>
				</g>
				<g>
					<path fill="#D7A70E" d="M1034.191,361.848c-0.334,0.852-0.479,1.612-0.318,1.705c0.154,0.096,0.557-0.518,0.888-1.365
						c0.331-0.85,0.478-1.615,0.317-1.707C1034.922,360.386,1034.524,361,1034.191,361.848z"/>
					<path fill="#D7A70E" d="M1033.907,365L1033.907,365h-0.106l-0.136-0.493c-0.474-0.284-0.44-1.774,0.098-3.142
						c0.443-1.131,0.876-2.365,1.281-2.365h0.108l0.132,0.512c0.474,0.281,0.439,1.766-0.099,3.131
						C1034.743,363.773,1034.312,365,1033.907,365z"/>
				</g>
			</g>
			<g>
				<g>
					<path fill="#D7A70E" d="M1032.288,366.518c-0.335,0.851-0.479,1.612-0.319,1.705c0.158,0.094,0.558-0.517,0.887-1.367
						c0.334-0.852,0.479-1.61,0.321-1.707C1033.018,365.057,1032.621,365.671,1032.288,366.518z"/>
					<path fill="#D7A70E" d="M1032.002,369L1032.002,369h-0.105l-0.132-0.159c-0.478-0.28-0.441-0.942,0.095-2.31
						c0.443-1.133,0.877-1.531,1.283-1.531h0.105l0.132-0.155c0.476,0.28,0.442,1.099-0.097,2.462
						C1032.841,368.443,1032.409,369,1032.002,369z"/>
				</g>
				<g>
					<path fill="#D7A70E" d="M1030.385,371.186c-0.333,0.852-0.478,1.612-0.318,1.707c0.156,0.09,0.557-0.521,0.888-1.369
						c0.334-0.847,0.477-1.611,0.321-1.705C1031.116,369.729,1030.717,370.337,1030.385,371.186z"/>
					<path fill="#D7A70E" d="M1030.097,374L1030.097,374h-0.104l-0.131-0.324c-0.477-0.281-0.445-1.357,0.096-2.728
						c0.443-1.134,0.874-1.948,1.28-1.948h0.106l0.135,0.176c0.475,0.282,0.438,1.438-0.098,2.805
						C1030.938,373.109,1030.506,374,1030.097,374z"/>
				</g>
			</g>
		</g>
		<g>
			<ellipse fill="#D7A70E" cx="1027.457" cy="376.198" rx="2.317" ry="2.846"/>
			<path fill="#D7A70E" d="M1027.456,379.627c-1.54,0-2.795-1.538-2.795-3.429c0-1.892,1.255-3.431,2.795-3.431
				c1.542,0,2.798,1.539,2.798,3.431C1030.254,378.089,1028.998,379.627,1027.456,379.627z M1027.456,373.936
				c-1.017,0-1.843,1.015-1.843,2.263c0,1.243,0.826,2.261,1.843,2.261s1.843-1.018,1.843-2.261
				C1029.299,374.95,1028.473,373.936,1027.456,373.936z"/>
		</g>
	</g>
	
		<rect x="528.5" y="317.5" display="inline" opacity="0.2" fill="#C4E4FF" stroke="#83C8F6" stroke-miterlimit="10" enable-background="new    " width="731" height="114"/>
</g>
<g id="Calque_3" display="none">
	
		<polygon display="inline" opacity="0.2" fill="#C4E4FF" stroke="#83C8F6" stroke-miterlimit="10" enable-background="new    " points="
		579.5,389.118 528.5,431.504 528.5,315.684 579.5,291.816 	"/>
</g>
<g id="Calque_8" display="none">
	<g display="inline">
		<ellipse opacity="0.3" fill="#8B8B8B" enable-background="new    " cx="790.301" cy="724.04" rx="111.578" ry="18.231"/>
		<path opacity="0.3" fill="#8B8B8B" enable-background="new    " d="M1190.23,732.909c0,10.069-43.026,18.229-96.102,18.229
			c-53.081,0-96.105-8.161-96.105-18.229c0-10.07,43.024-18.232,96.105-18.232C1147.204,714.677,1190.23,722.839,1190.23,732.909z"
			/>
		<polygon fill="#7C7C7C" points="974.176,541.716 970.798,539 963.962,539 951.396,525.764 930.886,516.835 904.646,514.865 
			898.919,518.501 893.93,518.654 892.636,521.596 885.36,536 885.615,556.509 888.693,571.414 894.298,568.764 899.808,568.962 
			901.584,564.142 905.302,560.94 906.053,557.737 912.463,562.172 924.787,561.432 926.512,555.028 940.312,555.271 
			946.156,556.506 952.383,565.621 964.948,567.638 965.194,558.83 971.097,567.638 977,565.376 977,544.678 		"/>
		<polygon points="800,720 708,720 708,703.59 765.876,688 800,688 		"/>
		<polygon points="809,735 718,735 718,716.894 776.224,703 809,703 		"/>
		<polyline fill="none" stroke="#A2A2A2" stroke-miterlimit="10" points="718.5,720 718.5,716.894 776.224,702.5 800,702.5 		"/>
		<polygon fill="#424242" points="870.646,600.078 768.463,688 791.007,688 887.832,605.604 		"/>
		<polygon fill="#424242" points="1109.199,698.025 1088.504,732 1042.309,732 916.598,637.045 808.745,711.431 783.26,697.464 
			889.69,607.347 952.135,606.751 1046.005,666.628 1072.982,672.809 		"/>
		<polygon points="998.7,549.482 1040.091,559.46 1102.916,630.786 1115.48,704.329 1072.982,672.916 1046.005,666.635 
			1016.158,647.598 998.7,616.005 1024.939,618.222 1027.157,600.112 1017.548,579.047 998.7,567.592 978.005,571.656 		"/>
		<polygon fill="#FBFBFB" points="888.693,571.411 894.298,568.763 977.912,571.749 998.653,567.638 1017.523,579.07 
			1027.146,600.124 1024.934,618.229 998.697,616.007 1016.156,647.6 981.051,625.826 968.643,608 887.092,608 870.646,600.359 
			865.166,591.614 867.875,584.407 874.036,583.146 887.832,576.723 		"/>
		
			<line opacity="0.2" fill="none" stroke="#8D8D8D" stroke-miterlimit="10" enable-background="new    " x1="968.643" y1="608.244" x2="1000.158" y2="616.131"/>
		<polygon fill="#D5B68B" points="977,545.91 998.197,549.482 977.661,571.749 899.773,568.962 901.566,564.142 905.295,560.94 
			906.049,557.737 912.46,562.172 924.786,561.432 926.511,555.028 923.064,552.81 923.804,547.636 932.427,546.896 
			939.078,549.482 940.803,552.81 940.312,555.271 946.156,556.506 952.383,565.621 964.948,567.638 965.194,558.83 
			971.097,567.638 977,565.376 		"/>
		<polygon fill="#FFFFFF" points="885.615,556.504 867.506,558.83 857.527,564.635 851.061,575.906 854.941,584.438 
			865.672,590.325 867.875,584.438 		"/>
		<polygon fill="#D5B68B" points="861,566.852 861,577.199 868.135,584.438 874.164,583.16 887.896,576.73 888.727,571.411 
			885.631,556.504 872.946,558.83 		"/>
		<rect x="868.158" y="578.087" transform="matrix(0.3942 0.919 -0.919 0.3942 1060.592 -451.3711)" width="9.051" height="1.479"/>
		
			<rect x="872.267" y="575.484" transform="matrix(0.3948 0.9188 -0.9188 0.3948 1060.3033 -457.2058)" width="9.857" height="1.481"/>
		<polygon points="884.001,578.535 880.521,570.516 881.882,569.933 885.36,577.951 		"/>
		
			<line opacity="0.2" fill="none" stroke="#000000" stroke-miterlimit="10" enable-background="new    " x1="867.875" y1="584.438" x2="865.672" y2="590.325"/>
		<polygon fill="#5E3F2F" points="924.852,569.854 923.073,569.794 925.273,554.231 926.512,555.028 		"/>
		<ellipse opacity="0.3" fill="#8B8B8B" enable-background="new    " cx="868.605" cy="764.606" rx="50.582" ry="11.534"/>
	</g>
</g>
<g id="Calque_11" display="none">
	<polygon display="inline" fill="#5E3F2F" points="1260,429.04 1260,428.597 1260,428.132 1260,600.391 1278,618.887 1278,439.688 	
		"/>
	<polygon display="inline" fill="#353535" points="1261.395,427.862 1260.656,428.132 1261.395,428.596 	"/>
	<polygon display="inline" fill="#353535" points="1261.395,428.596 1260.656,428.132 1261.395,428.597 	"/>
	
		<polygon display="inline" opacity="0.2" fill="#C4E4FF" stroke="#83C8F6" stroke-miterlimit="10" enable-background="new    " points="
		579.923,291.232 579.923,291.788 581.154,291.232 	"/>
	
		<polygon display="inline" opacity="0.2" fill="#C4E4FF" stroke="#83C8F6" stroke-miterlimit="10" enable-background="new    " points="
		528.923,315.5 579.5,315.5 579.5,291.788 	"/>
	
		<polygon display="inline" opacity="0.2" fill="#C4E4FF" stroke="#83C8F6" stroke-miterlimit="10" enable-background="new    " points="
		1277.5,310.696 1277.5,290.5 581.154,290.5 579.5,291.788 579.5,315.5 1260.672,315.5 	"/>
	<polygon display="inline" opacity="0.2" fill="#C4E4FF" enable-background="new    " points="1278,310.696 1278,293 581.154,293 
		579,291.788 579,316 1260.672,316 	"/>
	<polygon display="inline" fill="#5E3F2F" points="1260,428.597 1260,429.04 1278,439.688 1278,439.253 	"/>
	<polygon display="inline" opacity="0.2" fill="#C4E4FF" enable-background="new    " points="1260,428.597 1260,429.04 
		1278,439.688 1278,439.253 	"/>
	<polygon display="inline" fill="#353535" points="1278,421.616 1260,427.862 1260,428.596 1278,439.243 	"/>
	<polygon display="inline" opacity="0.2" fill="#C4E4FF" enable-background="new    " points="1278,421.616 1260,427.862 
		1260,428.596 1278,439.243 	"/>
	<polygon display="inline" fill="#353535" points="1278,439.243 1261.33,429 1261.299,429 1278,439.253 	"/>
	<polygon display="inline" opacity="0.2" fill="#C4E4FF" enable-background="new    " points="1278,439.243 1261.33,429 
		1261.299,429 1278,439.253 	"/>
	
		<polygon display="inline" opacity="0.2" fill="#C4E4FF" stroke="#83C8F6" stroke-miterlimit="10" enable-background="new    " points="
		1277.5,320.773 1260.5,314.805 1260.5,387.5 1277.5,387.5 	"/>
	<polygon display="inline" opacity="0.2" fill="#C4E4FF" enable-background="new    " points="1278,320.773 1260,314.805 1260,387 
		1278,387 	"/>
	<polygon display="inline" fill="#353535" points="1278,388 1260,388 1260,427.862 1278,421.616 	"/>
	<polygon display="inline" opacity="0.2" fill="#C4E4FF" enable-background="new    " points="1278,388 1260,388 1260,427.862 
		1278,421.616 	"/>
	
		<polygon display="inline" opacity="0.2" fill="#C4E4FF" stroke="#83C8F6" stroke-miterlimit="10" enable-background="new    " points="
		1277.5,311.239 1260.5,314.805 1277.5,320.773 	"/>
	<polygon display="inline" opacity="0.2" fill="#C4E4FF" enable-background="new    " points="1041,434.46 1029.5,436.873 
		1041,440.91 	"/>
</g>
<g id="Calque_6" display="none">
	<g display="inline">
		<path fill="#211E1D" d="M846,299h32.516c0,0-7.924-53.504,13.406-53.23L869,246.298V226h-6"/>
		<path fill="#211E1D" d="M879,299h-31.817c0,0,8.577-53.504-12.757-53.23L858,246.298V226h8"/>
	</g>
</g>
<g id="Calque_10">
	<polygon opacity="0.7" fill="#666666" enable-background="new    " points="135.736,49.961 136.724,49.316 72.847,26.639 
		53.812,22.254 53.812,26.739 79.452,42.676 82.193,42.414 59.181,25.436 	"/>
	<polygon fill="#CC0000" points="57.562,50.795 4.312,14.558 2.812,1.296 49.062,5.046 148.062,37.795 136.812,49.295 
		54.562,22.795 81.062,43.045 	"/>
	<polygon opacity="0.5" fill="#7A7A7A" enable-background="new    " points="53.812,21.795 37.812,15.88 37.812,11.796 
		42.229,10.713 	"/>
</g>
<g id="Calque_13" display="none">
	<path display="inline" d="M884.316,751.494l0.577-0.354h1.049l0.849,0.683h2.546l0.578,0.416l0.336,3.559
		c0,0,0.937,0.114,0.937,1.227c0,1.107-2.008,1.336-3.234,1.463c-1.229,0.125-2.564,0.111-1.763,2.713c0.805,2.598,2.7,4.1,2.7,4.1
		v0.178c0.379,0.139,0.49,0.505,0.49,0.505c0.491,0.14,0.513,0.49,0.513,0.49c0.357,0.114,0.648,0.468,0.648,0.468
		c0.358,0.113,0.535,0.468,0.535,0.468c0.399,0.202,0.578,0.543,0.578,0.543c0.47,0.15,0.536,0.466,0.536,0.466
		c0.534,0.104,0.669,0.467,0.669,0.467c0.536,0.151,0.516,0.48,0.516,0.48c0.445,0.111,0.535,0.479,0.535,0.479
		c0.513,0.151,0.492,0.479,0.492,0.479c0.556,0.115,0.466,0.504,0.466,0.504c0.538,0.165,0.447,0.468,0.447,0.468
		c0.559,0.127,0.379,0.492,0.379,0.492c0.56,0.113,0.4,0.466,0.4,0.466c0.604,0.127,0.381,0.469,0.381,0.469
		c0.514,0.126,0.243,0.517,0.243,0.517c0.38,0.025,0.403,0.367,0.403,0.367c0.558,0.238,0.624,1.361,0.624,1.361
		s0.201,0.479-0.87,0.945c-1.07,0.467-1.338,0.416-1.338,0.416h-1.586v0.201h-0.938v0.177c0,0,0.827,0.304,1.141,0.759
		c0.312,0.452-0.579,0.692-0.579,0.692s-0.737,0.216-1.541,0.439c-0.803,0.229-1.739,0.229-1.739,0.229s-10.2,0-11.247,0
		c-1.049,0-1.027-0.442-1.027-0.442V777.7c0-0.138,0.181-0.238,0.181-0.238l0.624-0.252c-3.189,0.075-2.679-1.212-2.611-1.516
		c0.067-0.302,0.067-0.958-0.201-1.109c-0.269-0.148-0.288-0.275-0.288-0.275l0.177-0.063c-0.577-0.151-0.223-0.504-0.223-0.504
		c-0.691-0.152-0.354-0.504-0.354-0.504c-0.782-0.039-0.403-0.443-0.403-0.443c-0.4,0.052-0.422-0.102-0.422-0.102
		s-0.292-0.365-1.005-0.519c-0.714-0.148-0.959-0.438-0.78-0.618c0.176-0.177,0.176-0.325,0.176-0.518
		c0-0.188,0.247-0.252,0.247-0.252c-0.247-0.227-0.135-0.467-0.135-0.467c-0.578-0.126-0.354-0.521-0.354-0.521
		c-0.49,0-0.382-0.414-0.382-0.414c-0.246,0.102-0.869-0.365-1.517-0.633c-0.647-0.264-0.716-0.34-0.472-0.844
		c0.247-0.505,0.094-1.021,0.094-1.021c-0.582-0.127-0.315-0.454-0.315-0.454c-0.624-0.101-0.334-0.441-0.334-0.441
		s-0.224,0.228-0.49-0.364c-0.27-0.594-2.187-1.262-3.86-0.707c-1.676,0.558-3.305,0.468-3.305,0.468h-10.979
		c0,0-2.565,0.062-1.895-1.188c0.666-1.248,0.911-2.284,0.196-3.292c-0.715-1.01-1.807-0.996-1.807-0.996s-0.852,0-2.901,0
		c-2.053,0-1.72-0.253-1.72-0.253h-8.902v-0.161h-1.02l-0.435,0.245h-5.274c-1.998,0-1.841-1.043-1.841-1.043l-0.201-1.224
		c-0.581,0-0.491-0.217-0.491-0.217s0-0.629,0-0.807s0.335-0.202,0.335-0.202v-0.705h-0.579c-0.714-1.515,0-2.763,0-2.763h0.561
		v-0.807l0.646-0.366h1.695c0.312-0.29,0.703,0,0.703,0c15.38-0.103,56.188,0.148,56.188,0.148L884.316,751.494z M861.643,760.021
		l-7.161-0.467c0,0-2.436-0.253-2.457,0.896c-0.021,1.146-0.624,2.953,3.794,3.229c4.417,0.278,6.673,0.075,6.673,0.075
		s-0.736-0.137-0.113-0.833C863.004,762.23,863.918,761.221,861.643,760.021z M863.783,763.682c0,0,3.146-0.254,1.983-1.956
		C865.769,761.726,865.504,762.495,863.783,763.682z"/>
</g>
<g id="Calque_9" display="none">
	<g display="inline">
		<g>
			<polygon fill="#19151C" points="204.559,679 168,679 168,636.33 168,594.938 182.016,558 218.232,558 			"/>
			
				<ellipse transform="matrix(-0.9731 -0.2306 0.2306 -0.9731 288.231 1154.0448)" fill="#19151C" cx="211.55" cy="560.18" rx="9.608" ry="12.565"/>
			<polygon fill="#19151C" points="175.82,426.543 241.391,434.549 242.993,486.657 237.695,508.768 214.29,565 179.797,565 
				172.223,456.658 			"/>
			<path opacity="0.5" fill="#FFFFFF" enable-background="new    " d="M238.682,495.377l-5.509,23.679l-17.715,42.008
				c0,0,1.755,5.964,1.2,10.885s-4.338,7.841-4.338,7.841l-11.211,98.179l-1.379,1.232l5.938-101.752l15.029-54.819L238.682,495.377
				"/>
			<path opacity="0.5" fill="#FFFFFF" enable-background="new    " d="M193.102,695h2.957l0.556,6.975l55.634,16.19l0.753,0.484
				v3.419c0,0-51.938-7.302-52.216-7.207c-0.278,0.093-9.432-11.871-9.432-11.871L193.102,695z"/>
			<rect x="178" y="675" fill="#FFFFFF" width="21" height="17"/>
			<polygon points="173.884,687 202,687 202,693.98 259,710.98 259,722 172.406,722 			"/>
			<rect x="172" y="684" fill="#FFFFFF" width="21" height="17"/>
			<polygon fill="#19151C" points="198.645,689 160,689 160,645.199 160,603.808 176.102,568 212.318,568 			"/>
			
				<ellipse transform="matrix(-0.973 -0.2307 0.2307 -0.973 274.432 1170.2056)" fill="#19151C" cx="205.624" cy="569.06" rx="9.608" ry="12.565"/>
			<polygon fill="#19151C" points="169.908,435.413 239.667,443.049 237.08,495.527 231.783,518.201 208.377,575 173.884,575 
				166.309,466.094 			"/>
			<polygon points="167.973,697 195,697 195,702.851 252,719.851 252,732 166.493,732 			"/>
			<polygon fill="#92BEFF" points="174.993,266.768 162.798,291.898 160.21,336.615 167.602,362.484 174.993,390.201 
				176.841,414.593 166.309,436.767 169.908,435.413 239.667,443.049 243.361,446.744 239.667,404.984 234.75,317.896 
				208.993,277.115 			"/>
			<polygon opacity="0.5" fill="#383838" enable-background="new    " points="211.148,439.927 179.428,386.875 166.309,313.333 
				165.581,316.581 178.504,387.521 208.747,438.615 			"/>
			<polygon opacity="0.5" fill="#383838" enable-background="new    " points="206.406,376.158 217.7,396.299 238.203,443.188 
				238.581,442.193 218.509,396.114 207.838,375.65 214.999,307.881 213.797,303.725 213.797,303.725 			"/>
			<polyline fill="#92BEFF" points="166.309,313.333 179.428,386.875 196.797,417.18 221.436,456.229 241.391,450.562 
				217.861,396.114 207.145,375.789 213.797,303.725 			"/>
			<polyline fill="#EFBB95" points="229.564,496.389 247.305,494.419 252.725,476.926 238.689,451.33 223.682,455.592 
				225.13,468.057 231.782,483.086 228.58,496.389 			"/>
			<polygon points="234.555,495.896 233.172,495.988 236.49,483.568 237.916,483.958 			"/>
			<polygon points="239.25,495.314 237.669,495.489 240.924,483.568 242.352,483.958 			"/>
			<polygon points="243.361,494.857 242.042,495.004 245.359,482.089 246.785,482.479 			"/>
			<polygon fill="#78B3F9" points="213.797,281.55 169.216,270.656 174.391,261.787 209.116,274.282 			"/>
			<polygon opacity="0.5" fill="#383838" enable-background="new    " points="212.989,281.672 172.229,272.466 172.693,271.507 
				212.634,281.266 			"/>
			<polygon fill="#EFBB95" points="176.139,262.416 175.354,244.701 168.034,217.9 172.902,196.498 230.27,212.282 228.477,229.292 
				232.204,240.539 229.552,242.748 226.701,241.964 227.023,247.291 225.031,252.686 221.686,253.966 223.753,260.109 
				218.986,264.084 207.884,261.787 207.145,273.573 			"/>
			<polygon fill="#1D56D8" stroke="#EAEA53" stroke-miterlimit="10" points="177.5,305.5 207.5,305.5 207.5,319.771 
				192.962,335.753 177.5,320.848 			"/>
			<g>
				<path d="M180.355,313.514c0.436-0.074,1.004-0.136,1.729-0.136c0.89,0,1.543,0.208,1.957,0.581
					c0.383,0.33,0.61,0.838,0.61,1.459c0,0.633-0.186,1.129-0.538,1.492c-0.476,0.507-1.253,0.766-2.132,0.766
					c-0.271,0-0.519-0.011-0.726-0.062v2.796h-0.901V313.514L180.355,313.514z M181.257,316.876
					c0.197,0.052,0.445,0.074,0.746,0.074c1.086,0,1.749-0.528,1.749-1.491c0-0.921-0.652-1.367-1.646-1.367
					c-0.393,0-0.692,0.032-0.849,0.072V316.876z"/>
				<path d="M190.107,317.861c0,1.852-1.284,2.66-2.496,2.66c-1.356,0-2.402-0.994-2.402-2.578c0-1.678,1.098-2.661,2.484-2.661
					C189.133,315.283,190.107,316.328,190.107,317.861z M186.131,317.913c0,1.097,0.631,1.926,1.521,1.926
					c0.869,0,1.522-0.817,1.522-1.948c0-0.849-0.425-1.925-1.502-1.925C186.598,315.966,186.131,316.96,186.131,317.913z"/>
				<path d="M191.252,313.057h0.911v7.352h-0.911V313.057z"/>
				<path d="M194.709,313.988c0.01,0.312-0.217,0.56-0.58,0.56c-0.32,0-0.549-0.249-0.549-0.56c0-0.321,0.238-0.569,0.568-0.569
					C194.492,313.419,194.709,313.667,194.709,313.988z M193.693,320.408v-5.012h0.912v5.012H193.693z"/>
				<path d="M199.688,320.223c-0.237,0.123-0.767,0.289-1.438,0.289c-1.513,0-2.496-1.025-2.496-2.558
					c0-1.542,1.056-2.66,2.692-2.66c0.537,0,1.015,0.134,1.263,0.258l-0.207,0.705c-0.217-0.124-0.56-0.237-1.056-0.237
					c-1.149,0-1.771,0.849-1.771,1.895c0,1.158,0.745,1.874,1.738,1.874c0.519,0,0.86-0.136,1.119-0.248L199.688,320.223z"/>
				<path d="M201.197,318.068c0.021,1.232,0.807,1.738,1.719,1.738c0.652,0,1.046-0.113,1.387-0.258l0.155,0.653
					c-0.319,0.144-0.87,0.31-1.667,0.31c-1.542,0-2.464-1.015-2.464-2.525c0-1.512,0.891-2.703,2.351-2.703
					c1.637,0,2.07,1.439,2.07,2.359c0,0.187-0.021,0.332-0.031,0.424L201.197,318.068L201.197,318.068z M203.868,317.416
					c0.01-0.579-0.238-1.48-1.263-1.48c-0.924,0-1.326,0.85-1.398,1.48H203.868z"/>
			</g>
			<polygon fill="#2B2B2B" points="225.525,251.333 221.066,250.049 221.648,248.011 226.273,249.322 			"/>
			<path fill="#FFFFFF" d="M226.258,227.922c-0.445,3.039-3.269,2.206-4.752,1.988c-1.48-0.217-3.04-0.295-2.592-3.334
				c0.445-3.035,1.722-3.527,3.203-3.311C223.602,223.484,226.706,224.886,226.258,227.922z"/>
			<path d="M226.239,228.955c-0.325,0.977-0.761,1.609-1.539,1.352c-0.778-0.26-0.702-1.012-0.377-1.988
				c0.325-0.978,0.745-1.719,1.522-1.459C226.625,227.118,226.564,227.979,226.239,228.955z"/>
			<path fill="#0548A8" d="M231.555,211.284L240.5,197c0,0-24.361-1.369-35.48-10.484c0,0-19.31,0-31.136-9.854l-1.478,18.29
				L231.555,211.284z"/>
			<polygon fill="#F9BA48" points="222.568,210.553 209.396,212.25 203.85,220.25 201.786,229.407 198.25,230.18 196.75,223.223 
				192.5,220.366 188.75,225.773 191.507,232 192.607,237 186.75,241.5 174,245 166.309,217.75 172.902,196.498 			"/>
			<polygon points="247.105,216.738 171.193,197.604 172.282,193.761 247.6,214.999 			"/>
			<polygon fill="#F2A711" points="235.13,197.783 237.893,201.758 233,210.141 233,204.074 			"/>
		</g>
		<path d="M212.898,510.087c0,0-2.021,1.882-4.385,1.74c-2.363-0.146-5.729,0.05-6.736-1.154l-7.596-22.471
			c0,0-1.908-7.416-9.933-3.76c0,0-0.767,0.771-1.466-0.531c-0.698-1.311-2.801-6.518-3.246-8.337
			c-0.444-1.822-1.577-2.381-2.757-2.07c-1.181,0.313-10.142,1.457-10.142,1.457s-1.258,0.085-1.922,0.909
			c-0.666,0.824-1.792,1.803-2.484,1.526c0,0-0.254,1.28-0.897,0.645l-4.76-14.083l0.846-0.286l-1.015-3.002
			c0,0,0.203-0.667,1.228-1.443c1.024-0.773,3.334-1.298,5.159-0.971c1.826,0.326,13.462,0.507,13.462,0.507l-0.155-0.461
			c0,0,5.903-0.797,3.928-6.387l-1.432-4.234c0,0,0.374-2.954,3.295,1.63c0,0,0.961,2.335,2.375,2.715c0,0,2.289,0.429,4.305-2.482
			c0,0,0.972-1.443,1.693-0.572c0.723,0.87-0.431,1.26,0.629,2.874c0,0,1.618-0.032,2.602,1.354l7.064,18.616
			c0,0-0.256,0-0.512,0.262l12.721,37.63L212.898,510.087z M185.883,472.191c0,0-1.589-1.068-3.335,0.371
			c-1.746,1.438-1.625,3.313-1.239,4.391c0.387,1.074,1.758,4.738,1.758,4.738s0.547,1.487,2.037,1.01
			c1.49-0.481,3.26-0.791,3.881-2.452c0.623-1.661,0.525-4.193-0.879-5.772c0,0-2.668-1.618-5.637,1.615
			c0,0-0.431,0.704-0.754,0.411c-0.32-0.292-0.163-2.399,1.483-3.403C184.846,472.097,185.883,472.191,185.883,472.191z"/>
		<polygon fill="#7F5441" points="172,479.289 197.73,508.881 213.797,501 197.73,446.744 		"/>
		
			<rect x="181.498" y="450.422" transform="matrix(0.7248 -0.689 0.689 0.7248 -266.526 253.8605)" fill="#5B3C2F" width="5.999" height="20.245"/>
		<circle fill="#CEC40B" cx="188.938" cy="465.188" r="2.25"/>
	</g>
</g>
<g id="Calque_12" display="none">
	<rect x="1006" y="48" display="inline" fill="#FFFFFF" width="154" height="203"/>
	<g display="inline">
		<path d="M1042.192,82l-0.854-2.415h-4.665L1035.817,82h-1.216l3.932-10.68h0.96l3.915,10.68H1042.192z M1039.028,72.955
			l-2.013,5.64h3.99L1039.028,72.955z"/>
		<path d="M1051.146,82h-0.959l-2.7-7.38h1.17l2.01,5.925l2.025-5.925h1.17L1051.146,82z"/>
		<path d="M1060.695,79.922c-0.115,0.505-0.357,0.948-0.729,1.328c-0.26,0.26-0.562,0.465-0.915,0.615
			c-0.35,0.15-0.75,0.225-1.2,0.225c-0.447,0-0.85-0.074-1.197-0.225c-0.353-0.15-0.655-0.355-0.915-0.615
			c-0.19-0.189-0.345-0.396-0.458-0.623c-0.115-0.227-0.205-0.46-0.271-0.705c-0.063-0.245-0.108-0.502-0.136-0.771
			c-0.024-0.271-0.037-0.551-0.037-0.84c0-0.28,0.013-0.559,0.037-0.834c0.023-0.274,0.068-0.535,0.136-0.779
			c0.064-0.245,0.154-0.48,0.271-0.705c0.113-0.225,0.268-0.434,0.458-0.623c0.26-0.26,0.562-0.465,0.915-0.615
			c0.35-0.15,0.75-0.225,1.197-0.225c0.45,0,0.853,0.074,1.2,0.225c0.352,0.15,0.655,0.355,0.915,0.615
			c0.37,0.38,0.612,0.822,0.729,1.326c0.113,0.506,0.173,1.044,0.173,1.613C1060.868,78.879,1060.811,79.417,1060.695,79.922z
			 M1059.771,77.68c-0.011-0.21-0.034-0.414-0.073-0.615c-0.04-0.199-0.103-0.387-0.183-0.562c-0.078-0.175-0.185-0.333-0.312-0.473
			c-0.36-0.36-0.812-0.54-1.353-0.54c-0.527,0-0.975,0.18-1.334,0.54c-0.141,0.14-0.247,0.298-0.321,0.473
			c-0.075,0.175-0.136,0.363-0.182,0.562c-0.045,0.201-0.072,0.405-0.083,0.615c-0.01,0.211-0.015,0.42-0.015,0.631
			c0,0.209,0.005,0.42,0.015,0.629c0.011,0.211,0.038,0.416,0.083,0.615c0.046,0.2,0.104,0.391,0.182,0.57
			c0.076,0.18,0.183,0.335,0.321,0.465c0.359,0.36,0.807,0.54,1.334,0.54c0.541,0,0.99-0.18,1.353-0.54
			c0.13-0.13,0.234-0.285,0.312-0.465c0.08-0.18,0.143-0.37,0.183-0.57c0.039-0.199,0.062-0.404,0.073-0.615
			c0.012-0.209,0.017-0.42,0.017-0.629C1059.788,78.1,1059.783,77.891,1059.771,77.68z"/>
		<path d="M1065.247,82c-0.32,0-0.599-0.053-0.832-0.158c-0.235-0.105-0.431-0.247-0.585-0.427c-0.155-0.181-0.273-0.39-0.354-0.63
			c-0.079-0.24-0.118-0.495-0.118-0.766V75.49h-0.933v-0.825h0.933v-2.31h1.078v2.31h1.574v0.825h-1.574v4.5
			c0,0.34,0.079,0.605,0.239,0.795s0.415,0.285,0.767,0.285h0.568V82H1065.247z"/>
		<path d="M1072.282,76.03c-0.2-0.2-0.392-0.341-0.569-0.421c-0.181-0.079-0.415-0.119-0.705-0.119c-0.271,0-0.516,0.05-0.733,0.15
			c-0.221,0.1-0.405,0.239-0.557,0.42c-0.148,0.18-0.268,0.39-0.353,0.629c-0.085,0.24-0.128,0.5-0.128,0.78V82h-1.08v-7.38h1.08
			v0.899c0.198-0.31,0.486-0.552,0.861-0.728c0.375-0.175,0.777-0.263,1.207-0.263c0.352,0,0.668,0.05,0.952,0.15
			c0.285,0.1,0.56,0.279,0.817,0.539L1072.282,76.03z"/>
		<path d="M1074.638,78.595c0,0.806,0.187,1.429,0.557,1.871c0.368,0.443,0.909,0.664,1.618,0.664c0.432,0,0.787-0.067,1.072-0.202
			s0.572-0.348,0.862-0.638l0.735,0.646c-0.19,0.19-0.379,0.356-0.562,0.5c-0.186,0.142-0.383,0.26-0.593,0.357
			s-0.442,0.17-0.697,0.221s-0.538,0.076-0.848,0.076c-0.49,0-0.935-0.074-1.327-0.225c-0.396-0.15-0.733-0.381-1.013-0.69
			c-0.28-0.31-0.498-0.702-0.652-1.177c-0.155-0.475-0.232-1.038-0.232-1.688c0-1.201,0.271-2.131,0.812-2.791s1.28-0.99,2.22-0.99
			c0.96,0,1.705,0.32,2.235,0.961c0.529,0.64,0.795,1.51,0.795,2.609v0.495H1074.638z M1078.507,77.395
			c-0.01-0.109-0.021-0.209-0.037-0.3c-0.015-0.09-0.035-0.178-0.06-0.263c-0.025-0.085-0.06-0.178-0.1-0.277
			c-0.141-0.34-0.363-0.609-0.675-0.81c-0.311-0.2-0.66-0.3-1.051-0.3c-0.392,0-0.74,0.1-1.05,0.3c-0.312,0.2-0.535,0.47-0.677,0.81
			c-0.079,0.2-0.135,0.381-0.165,0.54c-0.028,0.16-0.05,0.39-0.06,0.69h3.899C1078.527,77.635,1078.518,77.505,1078.507,77.395z"/>
		<path d="M1090.754,80.792c-0.145,0.274-0.35,0.51-0.614,0.705c-0.266,0.194-0.579,0.343-0.943,0.442
			c-0.365,0.1-0.772,0.149-1.225,0.149c-0.63,0-1.188-0.08-1.68-0.239c-0.49-0.16-0.94-0.436-1.351-0.826l0.721-0.719
			c0.29,0.31,0.63,0.529,1.02,0.659c0.393,0.13,0.815,0.195,1.275,0.195c0.609,0,1.09-0.107,1.439-0.323
			c0.351-0.215,0.523-0.542,0.523-0.982c0-0.319-0.098-0.569-0.293-0.75c-0.193-0.18-0.507-0.289-0.938-0.33l-1.217-0.104
			c-0.72-0.06-1.268-0.252-1.643-0.578c-0.375-0.325-0.562-0.792-0.562-1.401c0-0.34,0.066-0.644,0.202-0.907
			c0.136-0.265,0.321-0.49,0.562-0.675c0.24-0.186,0.527-0.327,0.862-0.428c0.335-0.1,0.695-0.149,1.088-0.149
			c0.529,0,1.021,0.063,1.478,0.194c0.454,0.131,0.849,0.33,1.179,0.601l-0.705,0.705c-0.26-0.2-0.56-0.347-0.895-0.442
			c-0.335-0.095-0.69-0.143-1.07-0.143c-0.541,0-0.95,0.107-1.229,0.322c-0.28,0.215-0.42,0.514-0.42,0.894
			c0,0.319,0.097,0.569,0.292,0.75c0.195,0.18,0.527,0.29,0.998,0.33l1.186,0.104c0.319,0.03,0.614,0.086,0.886,0.165
			c0.271,0.081,0.5,0.2,0.688,0.36c0.189,0.16,0.337,0.359,0.442,0.6c0.104,0.24,0.157,0.53,0.157,0.87
			C1090.972,80.2,1090.899,80.518,1090.754,80.792z"/>
		<path d="M1093.763,78.595c0,0.806,0.187,1.429,0.557,1.871c0.368,0.443,0.909,0.664,1.618,0.664c0.432,0,0.787-0.067,1.072-0.202
			s0.572-0.348,0.862-0.638l0.735,0.646c-0.19,0.19-0.379,0.356-0.562,0.5c-0.186,0.142-0.383,0.26-0.593,0.357
			s-0.442,0.17-0.697,0.221s-0.538,0.076-0.848,0.076c-0.49,0-0.935-0.074-1.327-0.225c-0.396-0.15-0.733-0.381-1.013-0.69
			c-0.28-0.31-0.498-0.702-0.652-1.177c-0.155-0.475-0.232-1.038-0.232-1.688c0-1.201,0.271-2.131,0.812-2.791s1.28-0.99,2.22-0.99
			c0.96,0,1.705,0.32,2.235,0.961c0.529,0.64,0.795,1.51,0.795,2.609v0.495H1093.763z M1097.632,77.395
			c-0.01-0.109-0.021-0.209-0.037-0.3c-0.015-0.09-0.035-0.178-0.06-0.263c-0.025-0.085-0.06-0.178-0.1-0.277
			c-0.141-0.34-0.363-0.609-0.675-0.81c-0.311-0.2-0.66-0.3-1.051-0.3c-0.392,0-0.74,0.1-1.05,0.3c-0.312,0.2-0.535,0.47-0.677,0.81
			c-0.079,0.2-0.135,0.381-0.165,0.54c-0.028,0.16-0.05,0.39-0.06,0.69h3.899C1097.652,77.635,1097.643,77.505,1097.632,77.395z"/>
		<path d="M1105.161,76.03c-0.2-0.2-0.39-0.341-0.569-0.421c-0.181-0.079-0.415-0.119-0.705-0.119c-0.271,0-0.516,0.05-0.733,0.15
			c-0.218,0.1-0.405,0.239-0.557,0.42c-0.148,0.18-0.268,0.39-0.353,0.629c-0.085,0.24-0.128,0.5-0.128,0.78V82h-1.08v-7.38h1.08
			v0.899c0.2-0.31,0.487-0.552,0.862-0.728c0.375-0.175,0.776-0.263,1.207-0.263c0.351,0,0.668,0.05,0.951,0.15
			c0.285,0.1,0.56,0.279,0.817,0.539L1105.161,76.03z"/>
		<path d="M1109.827,82h-0.96l-2.7-7.38h1.17l2.011,5.925l2.024-5.925h1.17L1109.827,82z"/>
		<path d="M1113.997,72.52v-1.215h1.215v1.215H1113.997z M1114.057,82v-7.38h1.08V82H1114.057z"/>
		<path d="M1122.029,81.85c-0.365,0.16-0.803,0.24-1.312,0.24c-0.47,0-0.9-0.078-1.297-0.232c-0.396-0.154-0.74-0.39-1.035-0.705
			c-0.295-0.314-0.523-0.709-0.688-1.185c-0.165-0.475-0.247-1.026-0.247-1.657c0-0.629,0.082-1.18,0.247-1.649
			s0.396-0.863,0.688-1.179c0.293-0.314,0.642-0.551,1.035-0.711c0.396-0.16,0.827-0.24,1.297-0.24c0.51,0,0.947,0.08,1.312,0.24
			s0.735,0.444,1.117,0.854l-0.734,0.69c-0.28-0.311-0.545-0.525-0.795-0.646s-0.551-0.18-0.9-0.18c-0.359,0-0.685,0.069-0.975,0.21
			c-0.29,0.14-0.535,0.35-0.735,0.63c-0.17,0.239-0.292,0.513-0.367,0.817c-0.073,0.305-0.11,0.691-0.11,1.162
			c0,0.472,0.036,0.857,0.11,1.164c0.075,0.306,0.197,0.576,0.367,0.816c0.2,0.279,0.445,0.49,0.735,0.63s0.615,0.21,0.975,0.21
			c0.35,0,0.65-0.062,0.9-0.188s0.515-0.342,0.795-0.652l0.734,0.705C1122.767,81.405,1122.395,81.689,1122.029,81.85z"/>
		<path d="M1125.651,78.595c0,0.806,0.185,1.429,0.555,1.871c0.37,0.443,0.91,0.664,1.62,0.664c0.43,0,0.787-0.067,1.072-0.202
			s0.57-0.348,0.86-0.638l0.735,0.646c-0.19,0.19-0.378,0.356-0.562,0.5c-0.187,0.142-0.384,0.26-0.594,0.357
			s-0.441,0.17-0.697,0.221c-0.255,0.051-0.537,0.076-0.848,0.076c-0.49,0-0.933-0.074-1.327-0.225
			c-0.396-0.15-0.731-0.381-1.013-0.69c-0.28-0.31-0.498-0.702-0.652-1.177c-0.153-0.475-0.23-1.038-0.23-1.688
			c0-1.201,0.27-2.131,0.81-2.791s1.28-0.99,2.222-0.99c0.959,0,1.703,0.32,2.233,0.961c0.53,0.64,0.795,1.51,0.795,2.609v0.495
			H1125.651z M1129.521,77.395c-0.012-0.109-0.022-0.209-0.037-0.3c-0.017-0.09-0.035-0.178-0.062-0.263s-0.058-0.178-0.098-0.277
			c-0.143-0.34-0.365-0.609-0.677-0.81c-0.311-0.2-0.658-0.3-1.051-0.3c-0.39,0-0.74,0.1-1.05,0.3s-0.535,0.47-0.675,0.81
			c-0.08,0.2-0.135,0.381-0.165,0.54c-0.03,0.16-0.05,0.39-0.062,0.69h3.899C1129.541,77.635,1129.531,77.505,1129.521,77.395z"/>
	</g>
	<g display="inline">
		<g>
			<rect x="1053" y="128" fill="#E9E0D6" width="60" height="37"/>
			<ellipse fill="#E9E0D6" cx="1082.586" cy="161.305" rx="29.382" ry="9.212"/>
			<path fill="#E9E0D6" d="M1092.152,120.407c-5.809-7.468-28.272,1.991-38.922,7.069c-0.014,0.34-0.026,0.679-0.026,1.021
				c0,16.087,13.308,29.129,29.724,29.129c16.199,0,29.362-12.702,29.707-28.496
				C1106.076,128.451,1096.819,126.409,1092.152,120.407z"/>
			<path fill="#E9E0D6" d="M1067.296,153.398c-8.571-5.11-14.296-14.351-14.296-24.901v32.808
				C1053,157.945,1058.733,155.009,1067.296,153.398z"/>
		</g>
		<polygon fill="none" points="1115.205,191.717 1113,187.046 1113,193 1115.254,193 		"/>
		<polygon fill="none" points="1051.784,193 1053,193 1053,190.355 		"/>
		<path fill="#666666" d="M1091.483,178.72c-0.002,0.017-0.005,0.032-0.007,0.048l9.253,1.896L1094.365,193H1113v-5.954
			l-8.287-17.556l8.287-3.912V162h-20.164l7.688,13.984L1091.483,178.72z"/>
		<polygon fill="#666666" points="1064.686,180.664 1067.674,180.043 1060.992,172.98 1053,190.355 1053,193 1071.26,193 		"/>
		<polygon fill="#666666" points="1070.099,177.634 1071.605,179.227 1073.9,178.75 		"/>
		<path fill="#4D4D4D" d="M1100.729,180.664l-9.253-1.895c-0.712,4.912-1.636,9.758-2.613,14.23h5.504L1100.729,180.664z"/>
		<path fill="#4D4D4D" d="M1071.26,193h5.589c-0.315-1.382-0.63-2.8-0.932-4.245l-8.243-8.712l-2.988,0.621L1071.26,193z"/>
		<path fill="#CCCCCC" d="M1075.917,188.755c0.302,1.445,0.614,2.862,0.932,4.245h3.084L1075.917,188.755z"/>
		<path fill="#CCCCCC" d="M1083,191.27V162h-10.322c0,6.553,0.839,13.676,2.037,20.514L1083,191.27z"/>
		<path fill="#CCCCCC" d="M1084.637,193h4.227c0.979-4.473,1.901-9.318,2.613-14.23l-0.091-0.02l0.1-0.03
			c0.814-5.643,1.353-11.37,1.353-16.72H1083v29.27L1084.637,193z"/>
		<polygon fill="#666666" points="1115.205,191.717 1115.254,193 1125.262,193 1125.121,189.296 1113,164.5 1113,165.578 
			1113,187.046 		"/>
		<polygon fill="#666666" points="1113,187.046 1113,165.578 1104.713,169.49 		"/>
		<polygon fill="#666666" points="1053,190.355 1053,168.852 1053,166.438 1040.776,193 1051.784,193 		"/>
		<polygon fill="#666666" points="1060.992,172.98 1060.232,172.178 1053,168.852 1053,190.355 		"/>
		<path fill="#B04733" d="M1074.715,182.514l-3.109-3.287l-3.932,0.816l8.243,8.712
			C1075.491,186.719,1075.086,184.63,1074.715,182.514z"/>
		<path fill="#B04733" d="M1079.933,193H1083v-1.73l-8.285-8.756c0.371,2.116,0.776,4.206,1.202,6.242L1079.933,193z"/>
		<polygon fill="#B04733" points="1084.637,193 1083,191.27 1083,193 		"/>
		<circle fill="#BFA450" cx="1104.708" cy="124.229" r="16.997"/>
		<ellipse fill="#E9E0D6" cx="1082.927" cy="128.497" rx="29.725" ry="29.129"/>
		<circle fill="#FBB03B" cx="1082.667" cy="167.046" r="3.042"/>
		<ellipse fill="#F2F2F2" cx="1095.965" cy="139.253" rx="5.932" ry="7.072"/>
		<ellipse fill="#00A1BF" cx="1096.003" cy="139.197" rx="2.817" ry="3.359"/>
		<ellipse fill="#F2F2F2" cx="1094.223" cy="137.076" rx="1.631" ry="1.945"/>
		<ellipse fill="#F2F2F2" cx="1069.316" cy="139.253" rx="5.932" ry="7.072"/>
		<ellipse fill="#00A1BF" cx="1069.354" cy="139.197" rx="2.817" ry="3.359"/>
		<ellipse fill="#F2F2F2" cx="1067.575" cy="137.076" rx="1.631" ry="1.945"/>
		<polygon fill="#666666" points="1072.451,162 1055.308,162 1066.005,173.307 		"/>
		<polygon fill="#666666" points="1053,164.533 1053,168.852 1060.232,172.178 		"/>
		<path fill="#4D4D4D" d="M1100.521,175.984L1092.836,162c0,5.35-0.536,11.077-1.353,16.72L1100.521,175.984z"/>
		<path fill="#CCCCCC" d="M1091.386,178.75l0.091,0.02c0.002-0.017,0.006-0.033,0.009-0.049L1091.386,178.75z"/>
		<polygon fill="#B04733" points="1064.479,175.984 1070.099,177.634 1066.005,173.307 		"/>
		<polygon fill="#B04733" points="1060.232,172.178 1060.992,172.98 1061.164,172.605 		"/>
		<path fill="#E9E0D6" d="M1053.204,161.305v0.422h0.034C1053.219,161.586,1053.204,161.445,1053.204,161.305z"/>
		<path fill="#E9E0D6" d="M1053.204,128.244v0.253c0-0.084,0.005-0.168,0.007-0.253H1053.204z"/>
		<path fill="#E9E0D6" d="M1097.832,153.499c0.745,0.147,2.168,0.303,2.168,0.47v-1.878
			C1100,152.589,1098.576,153.061,1097.832,153.499z"/>
		<path fill="#FFDA6A" d="M1091.977,120.407c2.054,2.639,5.023,4.511,8.023,5.84v-21.343c-5-3.479-10.737-5.536-17.248-5.536
			c-16.066,0-29.146,12.493-29.697,28.108C1063.704,122.398,1086.17,112.939,1091.977,120.407z"/>
		<path fill="#363943" d="M1112.65,128.244h-0.01c0.001,0.085,0.01,0.168,0.01,0.253V128.244z"/>
		<g>
			<path fill="#FFDA6A" d="M1082.928,99.368c-16.064,0-29.146,12.493-29.697,28.108c10.649-5.078,33.115-14.537,38.924-7.069
				c4.667,6.002,13.924,8.043,20.48,8.723c0.004-0.211,0.018-0.42,0.018-0.633C1112.65,112.41,1099.344,99.368,1082.928,99.368z"/>
			<path fill="#FFDA6A" d="M1112.635,129.008c0.004-0.211,0.018-0.48,0.018-0.693c0-0.086-0.008-0.314-0.01-0.314h-5.68
				C1108.953,129,1110.89,128.827,1112.635,129.008z"/>
		</g>
		<path fill="#E9E0D6" d="M1067.5,153.398c4.498,2.683,9.778,4.228,15.428,4.228c5.578,0,10.797-1.507,15.256-4.127
			c-4.521-0.89-9.863-1.406-15.598-1.406C1077.069,152.093,1071.91,152.57,1067.5,153.398z"/>
		<rect x="1075" y="154" width="14" height="1"/>
		<path fill="#4D4D4D" d="M1070.099,177.634l3.804,1.116l-2.297,0.477l3.109,3.287c-1.198-6.838-2.037-13.959-2.037-20.514h-0.227
			l-6.446,11.307L1070.099,177.634z"/>
		<rect x="1053" y="162" fill="#FBB03B" width="60" height="2"/>
		<polygon fill="#B04733" points="1055.308,162 1052.939,159.497 1050.457,161.845 1053,164.533 1053,162 		"/>
		<polygon fill="#B04733" points="1061.164,172.605 1060.992,172.98 1067.674,180.043 1071.605,179.227 1070.099,177.634 
			1064.479,175.984 1066.005,173.307 1055.308,162 1053,162 1053,164.533 1060.232,172.178 		"/>
	</g>
	<g display="inline">
		<path d="M1060.392,224.68v-8.115l-2.925,6.436h-0.975l-2.971-6.436v8.115h-1.142V214h1.142l3.479,7.575l3.39-7.575h1.143v10.68
			H1060.392z"/>
		<path d="M1068.552,218.709c-0.2-0.2-0.39-0.34-0.567-0.42c-0.183-0.08-0.415-0.12-0.705-0.12c-0.271,0-0.518,0.05-0.735,0.149
			c-0.218,0.101-0.405,0.24-0.555,0.421c-0.15,0.18-0.27,0.39-0.354,0.63s-0.128,0.5-0.128,0.779v4.531h-1.08v-7.381h1.08v0.9
			c0.2-0.311,0.488-0.553,0.863-0.729c0.375-0.175,0.776-0.263,1.207-0.263c0.35,0,0.668,0.05,0.952,0.149
			c0.285,0.101,0.558,0.281,0.815,0.541L1068.552,218.709z"/>
		<path d="M1075.698,223.473c-0.146,0.274-0.352,0.51-0.614,0.704c-0.266,0.195-0.58,0.343-0.945,0.442
			c-0.363,0.1-0.771,0.15-1.223,0.15c-0.63,0-1.189-0.08-1.68-0.24s-0.94-0.436-1.353-0.825l0.721-0.72
			c0.291,0.31,0.632,0.529,1.021,0.66c0.391,0.129,0.814,0.194,1.274,0.194c0.608,0,1.091-0.106,1.438-0.323
			c0.353-0.215,0.525-0.541,0.525-0.981c0-0.32-0.1-0.57-0.293-0.75c-0.194-0.181-0.507-0.29-0.938-0.33l-1.215-0.104
			c-0.72-0.061-1.268-0.252-1.643-0.578c-0.375-0.325-0.562-0.793-0.562-1.402c0-0.34,0.068-0.643,0.203-0.907
			s0.322-0.489,0.562-0.675c0.238-0.186,0.525-0.327,0.86-0.428c0.335-0.1,0.697-0.149,1.089-0.149c0.528,0,1.021,0.065,1.479,0.195
			c0.454,0.13,0.847,0.329,1.177,0.6l-0.705,0.705c-0.26-0.2-0.558-0.347-0.893-0.442c-0.335-0.095-0.692-0.143-1.072-0.143
			c-0.54,0-0.949,0.107-1.229,0.323c-0.279,0.215-0.42,0.513-0.42,0.893c0,0.32,0.098,0.57,0.292,0.75
			c0.194,0.181,0.526,0.29,0.998,0.33l1.186,0.104c0.319,0.031,0.615,0.086,0.885,0.166c0.271,0.08,0.5,0.199,0.69,0.359
			c0.188,0.16,0.337,0.36,0.441,0.6c0.104,0.24,0.156,0.531,0.156,0.871C1075.916,222.88,1075.844,223.197,1075.698,223.473z"/>
		<path d="M1088.186,224.68l-0.854-2.414h-4.665l-0.854,2.414h-1.216l3.933-10.68h0.96l3.915,10.68H1088.186z M1085.021,215.635
			l-2.013,5.641h3.99L1085.021,215.635z"/>
		<path d="M1092.776,224.68c-0.65,0-1.125-0.188-1.428-0.562c-0.3-0.375-0.447-0.843-0.447-1.402V214h1.079v8.67
			c0,0.36,0.068,0.63,0.211,0.811c0.14,0.18,0.397,0.27,0.777,0.27h0.585v0.93H1092.776z"/>
		<path d="M1097.23,224.68c-0.649,0-1.125-0.188-1.427-0.562c-0.3-0.375-0.448-0.843-0.448-1.402V214h1.079v8.67
			c0,0.36,0.069,0.63,0.21,0.811c0.142,0.18,0.399,0.27,0.779,0.27h0.585v0.93H1097.23z"/>
		<path d="M1100.143,221.275c0,0.805,0.187,1.429,0.557,1.871s0.91,0.664,1.62,0.664c0.43,0,0.786-0.067,1.07-0.203
			c0.285-0.135,0.572-0.348,0.862-0.638l0.735,0.646c-0.19,0.19-0.378,0.356-0.562,0.5c-0.186,0.142-0.383,0.261-0.593,0.358
			c-0.21,0.096-0.442,0.17-0.697,0.221s-0.538,0.076-0.848,0.076c-0.49,0-0.934-0.076-1.327-0.226
			c-0.396-0.149-0.733-0.38-1.013-0.69c-0.28-0.31-0.498-0.701-0.652-1.177c-0.155-0.475-0.232-1.038-0.232-1.688
			c0-1.2,0.271-2.13,0.812-2.79s1.28-0.99,2.22-0.99c0.96,0,1.705,0.32,2.235,0.96s0.795,1.511,0.795,2.61v0.494H1100.143
			L1100.143,221.275z M1104.012,220.075c-0.01-0.11-0.021-0.21-0.037-0.3c-0.015-0.09-0.035-0.178-0.06-0.264
			c-0.025-0.085-0.058-0.177-0.099-0.277c-0.142-0.34-0.364-0.609-0.676-0.81c-0.311-0.2-0.66-0.3-1.051-0.3
			c-0.39,0-0.74,0.1-1.05,0.3c-0.312,0.2-0.535,0.47-0.677,0.81c-0.078,0.201-0.135,0.381-0.163,0.541
			c-0.03,0.16-0.052,0.39-0.062,0.689h3.899C1104.032,220.314,1104.021,220.186,1104.012,220.075z"/>
		<path d="M1112.143,224.68v-4.545c0-0.66-0.162-1.152-0.485-1.478c-0.325-0.325-0.77-0.487-1.328-0.487
			c-0.562,0-1.005,0.165-1.335,0.495s-0.495,0.819-0.495,1.47v4.545h-1.08v-7.38h1.08v0.81c0.26-0.299,0.563-0.524,0.915-0.674
			c0.352-0.15,0.735-0.226,1.155-0.226c0.8,0,1.43,0.229,1.89,0.69c0.511,0.5,0.766,1.185,0.766,2.055v4.725H1112.143z"/>
	</g>
</g>
</svg>
