<?xml version="1.0" encoding="utf-8"?>
<!-- Generator: Adobe Illustrator 15.0.0, SVG Export Plug-In  -->
<!DOCTYPE svg PUBLIC "-//W3C//DTD SVG 1.1//EN" "http://www.w3.org/Graphics/SVG/1.1/DTD/svg11.dtd" [
	<!ENTITY ns_flows "http://ns.adobe.com/Flows/1.0/">
]>
<svg version="1.1"
	 xmlns="http://www.w3.org/2000/svg" xmlns:xlink="http://www.w3.org/1999/xlink" xmlns:a="http://ns.adobe.com/AdobeSVGViewerExtensions/3.0/"
	 x="0px" y="0px" width="1920px" height="1080px" viewBox="0 0.041 1920 1080"
	 overflow="visible" enable-background="new 0 0.041 1920 1080" xml:space="preserve">
<defs>
	<symbol  id="Diamant_goutte_xA0_2" viewBox="-1.428 -1.591 2.856 3.183">
		<path fill="none" d="M-1.428-0.112C-0.639-1.045,0-1.591,0-1.591s0.639,0.546,1.428,1.479L0,1.592L-1.428-0.112z"/>
	</symbol>
</defs>
<linearGradient id="SVGID_1_" gradientUnits="userSpaceOnUse" x1="1231.5566" y1="-129.5493" x2="1231.5566" y2="25.5859" gradientTransform="matrix(1 0 0 -1 -244 748.082)">
	<stop  offset="0" style="stop-color:#D1D1D1"/>
	<stop  offset="1" style="stop-color:#E5E5E5"/>
</linearGradient>
<path display="none" fill="url(#SVGID_1_)" d="M987.555,0C723.714,0,509.828,213.887,509.828,477.727v477.729h955.455V477.727
	C1465.283,213.887,1251.4,0,987.555,0z"/>
<polygon display="none" opacity="0.52" fill="#F4F3F2" enable-background="new    " points="1127.653,815.911 1127.653,257.154 
	579.515,565.38 579.515,815.911 "/>
<linearGradient id="SVGID_2_" gradientUnits="userSpaceOnUse" x1="1231.5566" y1="679.9121" x2="1231.5566" y2="667.1607" gradientTransform="matrix(1 0 0 -1 -244 748.082)">
	<stop  offset="0" style="stop-color:#5E3F2F"/>
	<stop  offset="0.6442" style="stop-color:#4F3529"/>
	<stop  offset="0.9387" style="stop-color:#4F3529"/>
</linearGradient>
<path display="none" fill="url(#SVGID_2_)" d="M705.433,92.203h564.248c-13.365-9.797-27.256-18.919-41.626-27.311H747.06
	C732.687,73.284,718.799,82.406,705.433,92.203z"/>
<path display="none" fill="#3D251A" d="M742.9,67.351h489.311c-2.784-1.663-5.578-3.308-8.399-4.915H751.3
	C748.48,64.043,745.685,65.688,742.9,67.351z"/>
<path display="none" fill="#3D251A" d="M1266.309,89.745H708.803c-2.257,1.626-4.515,3.253-6.74,4.916h570.986
	C1270.821,92.998,1268.566,91.371,1266.309,89.745z"/>
<path display="none" fill="#CCCCCC" d="M987.555,6.555c63.612,0,125.318,12.456,183.403,37.024
	c56.104,23.729,106.493,57.705,149.767,100.979s77.25,93.663,100.979,149.77c24.567,58.084,37.024,119.788,37.024,183.399V948.9
	H516.383V477.727c0-63.611,12.456-125.315,37.023-183.399c23.731-56.106,57.707-106.496,100.979-149.77
	c43.273-43.273,93.664-77.249,149.77-100.979C862.241,19.011,923.946,6.555,987.555,6.555 M987.555,0
	C723.714,0,509.828,213.887,509.828,477.727v477.729h955.455V477.727C1465.283,213.887,1251.4,0,987.555,0L987.555,0z"/>
<linearGradient id="SVGID_3_" gradientUnits="userSpaceOnUse" x1="1231.5566" y1="676.5146" x2="1231.5566" y2="707.0802" gradientTransform="matrix(1 0 0 -1 -244 748.082)">
	<stop  offset="0" style="stop-color:#262626"/>
	<stop  offset="1" style="stop-color:#000000"/>
</linearGradient>
<path display="none" fill="url(#SVGID_3_)" d="M1223.813,62.436C1154.135,22.711,1073.5,0,987.555,0
	C901.61,0,820.978,22.711,751.3,62.436H1223.813z"/>
<path display="none" fill="#CCCCCC" d="M987.555,6.555c63.612,0,125.318,12.456,183.403,37.024
	c56.104,23.729,106.493,57.705,149.767,100.979s77.25,93.663,100.979,149.77c24.567,58.084,37.024,119.788,37.024,183.399V948.9
	H516.383V477.727c0-63.611,12.456-125.315,37.023-183.399c23.731-56.106,57.707-106.496,100.979-149.77
	c43.273-43.273,93.664-77.249,149.77-100.979C862.241,19.011,923.946,6.555,987.555,6.555 M987.555,0
	C723.714,0,509.828,213.887,509.828,477.727v477.729h955.455V477.727C1465.283,213.887,1251.4,0,987.555,0L987.555,0z"/>
<polyline display="none" fill="#E5E5E5" stroke="#CCCCCC" stroke-width="4" stroke-miterlimit="10" points="987.555,835.448 
	1465.283,835.448 1740.056,1080.082 179.944,1080.082 380.729,835.448 987.555,835.448 "/>
<path display="none" fill="#F4F3F2" d="M212.693,1066.737l17.205-24.577c0,0,1656.524,13.799,1263.282-52.087h46.986h78.242
	l87.254,82.274L212.693,1066.737z"/>
<polygon display="none" fill="#CCCCCC" points="1457.009,848.684 387.016,848.684 368.991,868.346 1473.395,868.346 "/>
<use xlink:href="#Diamant_goutte_xA0_2"  width="2.856" height="3.183" id="XMLID_1_" x="-1.428" y="-1.591" transform="matrix(1.6378 0 0 -1.6378 1065.3877 901.918)" display="none" overflow="visible"/>
<rect x="1155.51" y="600.438" display="none" fill="#CCCCCC" width="247.427" height="235.011"/>
<polygon display="none" fill="#BCBCBC" points="1243.993,616.803 1227.197,639.479 1409.489,639.479 1396.79,616.803 "/>
<rect x="1313.36" y="506.219" display="none" width="19.39" height="12.153"/>
<rect x="1295.95" y="518.372" display="none" width="54.211" height="2.492"/>
<rect x="1255.668" y="433.575" display="none" fill="#191919" width="134.773" height="72.644"/>
<rect x="1264.789" y="438.491" display="none" fill="#00A7BF" width="116.534" height="60.628"/>
<rect x="1263.958" y="438.491" display="none" opacity="0.78" fill="#BFBEBB" enable-background="new    " width="0.383" height="60.628"/>
<rect x="1389.377" y="434.395" display="none" opacity="0.78" fill="#BFBEBB" enable-background="new    " width="0.383" height="71.005"/>
<rect x="1263.515" y="498.641" display="none" width="117.809" height="0.479"/>
<rect x="1263.515" y="438.252" display="none" width="117.809" height="0.479"/>
<polygon display="none" opacity="0.22" fill="#FFFFFF" enable-background="new    " points="1289.772,499.973 1286.495,505.399 
	1256.591,505.399 1256.896,434.225 1327.493,434.225 "/>
<rect x="1256.896" y="434.225" display="none" opacity="0.22" fill="#FFFFFF" enable-background="new    " width="0.256" height="71.177"/>
<polygon display="none" opacity="0.26" enable-background="new    " points="1351.797,505.399 1375.831,434.395 1388.121,434.395 
	1388.121,505.399 "/>
<rect x="1321.299" y="500.348" display="none" opacity="0.22" fill="#FFFFFF" enable-background="new    " width="2.801" height="4.166"/>
<rect x="1319.728" y="500.348" display="none" opacity="0.22" fill="#FFFFFF" enable-background="new    " width="2.801" height="4.166"/>
<rect x="1323.582" y="500.348" display="none" opacity="0.22" fill="#FFFFFF" enable-background="new    " width="2.801" height="4.166"/>
<polygon display="none" opacity="0.21" fill="#FFFFFF" enable-background="new    " points="1296.701,518.781 1316.297,518.781 
	1324.762,520.42 1296.701,520.42 "/>
<path display="none" opacity="0.21" fill="#FFFFFF" enable-background="new    " d="M1314.146,506.732h4.711
	c0,0-0.272,10.752,5.904,10.752c6.179,0-10.615,0-10.615,0V506.732z"/>
<linearGradient id="SVGID_4_" gradientUnits="userSpaceOnUse" x1="1438.834" y1="411.8022" x2="1438.834" y2="-24.6434" gradientTransform="matrix(1 0 0 -1 -244 748.082)">
	<stop  offset="0" style="stop-color:#5E3F2F"/>
	<stop  offset="0.6442" style="stop-color:#4F3529"/>
	<stop  offset="0.9387" style="stop-color:#4F3529"/>
</linearGradient>
<polygon display="none" fill="url(#SVGID_4_)" points="1157.968,287.443 1231.703,337.113 1231.703,772.928 1157.968,830.417 "/>
<path display="none" fill="#3D251A" d="M1160.425,292.064l68.82,46.358v433.305l-68.82,53.657V292.064 M1155.51,282.826v552.623
	l78.651-61.323V335.807L1155.51,282.826L1155.51,282.826z"/>
<linearGradient id="SVGID_5_" gradientUnits="userSpaceOnUse" x1="1478.1611" y1="152.1748" x2="1646.9365" y2="152.1748" gradientTransform="matrix(1 0 0 -1 -244 748.082)">
	<stop  offset="0" style="stop-color:#5E3F2F"/>
	<stop  offset="0.6442" style="stop-color:#4F3529"/>
	<stop  offset="0.9387" style="stop-color:#4F3529"/>
</linearGradient>
<rect x="1234.161" y="591.376" display="none" fill="url(#SVGID_5_)" width="168.775" height="9.062"/>
<polygon display="none" opacity="0.46" fill="#3D251A" enable-background="new    " points="1225.149,768.521 1165.341,815.911 
	1165.341,510.315 "/>
<polygon display="none" opacity="0.47" fill="#845946" enable-background="new    " points="1229.382,338.538 1160.425,292.384 
	1160.425,296.07 1229.382,342.36 "/>
<linearGradient id="SVGID_6_" gradientUnits="userSpaceOnUse" x1="1564.5957" y1="212.2515" x2="1564.5957" y2="151.9247" gradientTransform="matrix(1 0 0 -1 -244 748.082)">
	<stop  offset="0" style="stop-color:#5E3F2F"/>
	<stop  offset="0.6442" style="stop-color:#4F3529"/>
	<stop  offset="0.9387" style="stop-color:#4F3529"/>
</linearGradient>
<rect x="1246.45" y="522.436" display="none" fill="url(#SVGID_6_)" stroke="#3D251A" stroke-width="2" stroke-miterlimit="10" width="148.292" height="92.836"/>
<rect x="1251.366" y="577.088" display="none" opacity="0.33" fill="#3D251A" stroke="#2D1B14" stroke-miterlimit="10" enable-background="new    " width="138.051" height="32.362"/>
<rect x="1251.366" y="532.846" display="none" opacity="0.33" fill="#3D251A" stroke="#2D1B14" stroke-miterlimit="10" enable-background="new    " width="138.051" height="32.363"/>
<radialGradient id="SVGID_7_" cx="1564.1367" cy="200.0801" r="3.9892" gradientTransform="matrix(1 0 0 -1 -244 748.082)" gradientUnits="userSpaceOnUse">
	<stop  offset="0" style="stop-color:#FFDB5C"/>
	<stop  offset="1" style="stop-color:#E7A700"/>
</radialGradient>
<circle display="none" fill="url(#SVGID_7_)" stroke="#C18500" stroke-width="0.5" stroke-miterlimit="10" cx="1318.55" cy="549.026" r="4.028"/>
<radialGradient id="SVGID_8_" cx="1564.1367" cy="157.7305" r="3.9891" gradientTransform="matrix(1 0 0 -1 -244 748.082)" gradientUnits="userSpaceOnUse">
	<stop  offset="0" style="stop-color:#FFDB5C"/>
	<stop  offset="1" style="stop-color:#E7A700"/>
</radialGradient>
<circle display="none" fill="url(#SVGID_8_)" stroke="#C18500" stroke-width="0.5" stroke-miterlimit="10" cx="1318.55" cy="591.376" r="4.028"/>
<polygon display="none" opacity="0.33" fill="#3D251A" enable-background="new    " points="1253.824,535.304 1253.824,562.751 
	1279.223,562.751 "/>
<polygon display="none" opacity="0.33" fill="#3D251A" enable-background="new    " points="1253.824,579.546 1253.824,606.992 
	1279.223,606.992 "/>
<polygon display="none" opacity="0.62" fill="#BCBCBC" enable-background="new    " points="1234.161,774.128 1252.186,774.128 
	1283.593,835.449 1155.51,835.449 "/>
<polygon display="none" opacity="0.47" fill="#845946" enable-background="new    " points="1388.598,577.934 1252.8,577.934 
	1252.8,577.934 1252.186,577.934 1252.186,577.934 1252.186,578.548 1252.186,608.656 1252.8,608.656 1252.8,578.548 
	1388.598,578.548 "/>
<polygon display="none" opacity="0.47" fill="#845946" enable-background="new    " points="1388.598,533.665 1252.8,533.665 
	1252.8,533.665 1252.186,533.665 1252.186,533.665 1252.186,534.279 1252.186,564.39 1252.8,564.39 1252.8,534.279 
	1388.598,534.279 "/>
<linearGradient id="SVGID_9_" gradientUnits="userSpaceOnUse" x1="1527.5918" y1="478.9111" x2="1527.5918" y2="216.4105" gradientTransform="matrix(1 0 0 -1 -244 748.082)">
	<stop  offset="0" style="stop-color:#5E3F2F"/>
	<stop  offset="0.6442" style="stop-color:#4F3529"/>
	<stop  offset="0.9387" style="stop-color:#4F3529"/>
</linearGradient>
<path display="none" fill="url(#SVGID_9_)" d="M1411.391,257.154H1155.51l0,0h-17.478v578.294h17.478V274.633h256.166v560.816
	h17.477V295.231C1423.779,282.241,1417.851,269.539,1411.391,257.154z"/>
<linearGradient id="SVGID_10_" gradientUnits="userSpaceOnUse" x1="1527.5938" y1="465.1196" x2="1527.5938" y2="473.5576" gradientTransform="matrix(1 0 0 -1 -244 748.082)">
	<stop  offset="0" style="stop-color:#4F3529"/>
	<stop  offset="1" style="stop-color:#3F2A22"/>
</linearGradient>
<polygon display="none" fill="url(#SVGID_10_)" points="1411.676,274.633 1402.937,282.826 1155.51,282.826 1155.51,274.633 "/>
<linearGradient id="SVGID_11_" gradientUnits="userSpaceOnUse" x1="1651.3066" y1="274.6353" x2="1651.3066" y2="431.9996" gradientTransform="matrix(1 0 0 -1 -244 748.082)">
	<stop  offset="0" style="stop-color:#4F3529"/>
	<stop  offset="1" style="stop-color:#3F2A22"/>
</linearGradient>
<polygon display="none" fill="url(#SVGID_11_)" points="1402.937,282.826 1411.676,274.633 1411.676,835.449 1402.937,835.449 "/>
<polygon display="none" fill="#3D7C32" stroke="#34682A" stroke-width="2" stroke-miterlimit="10" points="759.813,521.203 
	806.434,482.583 749.228,482.583 777.975,441.929 744.648,441.929 761.942,401.273 713.512,401.273 730.811,441.929 
	697.479,441.929 726.228,482.583 669.02,482.583 715.642,521.203 654.791,521.203 737.727,578.12 820.661,521.203 "/>
<polygon display="none" fill="#3D7C32" points="752.795,358.59 737.727,415.503 722.658,358.59 "/>
<path display="none" fill="#5E3F2F" stroke="#442D23" stroke-width="2" stroke-miterlimit="10" d="M737.727,625.791
	c28.13,0,50.932-22.799,50.932-50.93H686.796C686.796,602.99,709.599,625.791,737.727,625.791z"/>
<rect x="674.941" y="565.029" display="none" fill="#5E3F2F" stroke="#442D23" stroke-width="2" stroke-miterlimit="10" width="125.572" height="11.459"/>
<path display="none" fill="#4C3227" d="M737.727,625.791c8.883,0,17.232-2.279,24.502-6.272
	c-32.218-8.335-41.187-44.657-41.187-44.657h-34.246C686.796,602.99,709.599,625.791,737.727,625.791z"/>
<polygon display="none" fill="#36682C" points="674.941,522.958 715.774,556.249 693.382,522.958 "/>
<polygon display="none" fill="#36682C" points="686.796,484.412 720.539,517.697 702.034,484.412 "/>
<polygon display="none" fill="#36682C" points="704.096,443.667 735.225,476.956 718.157,443.667 "/>
<polygon display="none" fill="#36682C" points="719.661,403.05 736.669,436.337 727.34,403.05 "/>
<polygon display="none" fill="#36682C" points="724.71,358.59 734.824,391.875 729.28,358.59 "/>
<polygon display="none" fill="#47893A" points="801.236,522.958 760.405,556.249 782.796,522.958 "/>
<polygon display="none" fill="#47893A" points="789.383,484.412 755.639,517.697 774.143,484.412 "/>
<polygon display="none" fill="#47893A" points="772.083,443.667 740.952,476.956 758.024,443.667 "/>
<polygon display="none" fill="#47893A" points="756.518,403.05 739.511,436.337 748.836,403.05 "/>
<polygon display="none" fill="#47893A" points="751.467,358.59 741.354,391.875 746.899,358.59 "/>
<path display="none" fill="#4C3227" d="M798.223,578.12c0.08-1.081,0.13-2.161,0.13-3.257H721.74l-5.966,3.257H798.223z"/>
<polygon display="none" fill="#6D4838" points="773.51,581.935 781.634,581.935 766.705,601.91 "/>
<circle display="none" fill="#36682C" cx="752.216" cy="554.054" r="3.073"/>
<path display="none" fill="#36682C" d="M762.456,539.411c1.134,0,2.053,0.918,2.053,2.05c0,1.137-0.919,2.056-2.053,2.056
	c-1.132,0-2.051-0.919-2.051-2.056C760.405,540.33,761.324,539.411,762.456,539.411z"/>
<circle display="none" fill="#36682C" cx="740.602" cy="541.558" r="1.954"/>
<circle display="none" fill="#36682C" cx="750.68" cy="505.098" r="1.538"/>
<circle display="none" fill="#36682C" cx="759.761" cy="495.155" r="2.695"/>
<circle display="none" fill="#36682C" cx="745.85" cy="489.167" r="3.293"/>
<circle display="none" fill="#36682C" cx="740.25" cy="457.788" r="2.523"/>
<circle display="none" fill="#36682C" cx="750.739" cy="446.392" r="2.725"/>
<circle display="none" fill="#36682C" cx="741.79" cy="411.443" r="4.061"/>
<circle display="none" fill="#36682C" cx="740.71" cy="362.491" r="2.064"/>
<circle display="none" fill="#36682C" cx="742.383" cy="373.098" r="2.134"/>
<circle display="none" fill="#47893A" cx="749.143" cy="497.853" r="1.609"/>
<circle display="none" fill="#47893A" cx="742.774" cy="449.995" r="1.61"/>
<circle display="none" fill="#47893A" cx="739.511" cy="421.311" r="1.608"/>
<circle display="none" fill="#47893A" cx="731.375" cy="405.771" r="1.61"/>
<circle display="none" fill="#47893A" cx="758.128" cy="505.097" r="1.609"/>
<path display="none" fill="#47893A" d="M752.216,539.95c0.888,0,1.608,0.719,1.608,1.606c0,0.892-0.72,1.609-1.608,1.609
	s-1.609-0.718-1.609-1.609C750.607,540.669,751.328,539.95,752.216,539.95z"/>
<circle display="none" fill="#47893A" cx="740.6" cy="550.979" r="1.61"/>
<path display="none" fill="#47893A" d="M767.052,532.732c0.72,0,1.304,0.584,1.304,1.306c0,0.72-0.584,1.307-1.304,1.307
	c-0.723,0-1.308-0.587-1.308-1.307C765.745,533.317,766.329,532.732,767.052,532.732z"/>
<linearGradient id="SVGID_12_" gradientUnits="userSpaceOnUse" x1="735.2661" y1="-118.9531" x2="735.2661" y2="-113.3952" gradientTransform="matrix(0 -1 1 0 346.834 1243.1133)">
	<stop  offset="0" style="stop-color:#262626"/>
	<stop  offset="1" style="stop-color:#000000"/>
</linearGradient>
<path display="none" fill="url(#SVGID_12_)" stroke="#000000" stroke-width="2" stroke-miterlimit="10" d="M236.583,415.503
	c-9.351,0-16.934,0.554-16.934,9.909v161.355c0,9.35,7.58,13.422,16.934,13.422l0,0c9.354,0,16.938-4.068,16.938-13.422V425.411
	C253.52,416.06,245.937,415.503,236.583,415.503L236.583,415.503z"/>
<path display="none" fill="#B22626" stroke="#771104" stroke-miterlimit="10" d="M253.52,598.107c0,0,11.277-17.562,22.022-17.562
	c10.744,0,94.252-4.682,96.009,0c1.756,4.682,16.39,28.312,16.39,28.312L253.52,598.107z"/>
<linearGradient id="SVGID_13_" gradientUnits="userSpaceOnUse" x1="311.9917" y1="603.3652" x2="311.9917" y2="608.9232" gradientTransform="matrix(1 0 0 1 0 -3.2129)">
	<stop  offset="0" style="stop-color:#262626"/>
	<stop  offset="1" style="stop-color:#000000"/>
</linearGradient>
<path display="none" fill="url(#SVGID_13_)" stroke="#000000" stroke-width="2" stroke-miterlimit="10" d="M404.334,608.857
	c0-9.354-0.557-16.938-9.909-16.938H233.07c-9.353,0-13.421,7.58-13.421,16.938l0,0c0,9.352,4.068,16.936,13.421,16.936h161.355
	C403.776,625.791,404.334,618.209,404.334,608.857L404.334,608.857z"/>
<path display="none" fill="#771104" d="M265.958,588.08c0,0,6.365-5.049,9.878-5.049c3.513,0,9.22,6.147,18.44,6.147
	c9.22,0-28.319,0-28.319,0V588.08z"/>
<path display="none" fill="#771104" d="M349.359,578.465c-15.971-0.037-37.393,0.753-53.246,1.368
	c6.477,2.134,20.44,5.909,35.922,4.952C343.152,584.099,347.623,581.138,349.359,578.465z"/>
<radialGradient id="SVGID_14_" cx="287.6904" cy="579.6895" r="6.5542" fx="284.0153" fy="575.1981" gradientTransform="matrix(1 0 0 1 0 -3.2129)" gradientUnits="userSpaceOnUse">
	<stop  offset="0" style="stop-color:#FFF6BF"/>
	<stop  offset="0.5644" style="stop-color:#FFAC00"/>
	<stop  offset="1" style="stop-color:#FFC900"/>
</radialGradient>
<circle display="none" fill="url(#SVGID_14_)" stroke="#D19A00" stroke-miterlimit="10" cx="287.691" cy="576.477" r="6.554"/>
<radialGradient id="SVGID_15_" cx="300.7988" cy="579.6895" r="6.5549" fx="297.1232" fy="575.1976" gradientTransform="matrix(1 0 0 1 0 -3.2129)" gradientUnits="userSpaceOnUse">
	<stop  offset="0" style="stop-color:#FFF6BF"/>
	<stop  offset="0.5644" style="stop-color:#FFAC00"/>
	<stop  offset="1" style="stop-color:#FFC900"/>
</radialGradient>
<circle display="none" fill="url(#SVGID_15_)" stroke="#D19A00" stroke-miterlimit="10" cx="300.798" cy="576.477" r="6.554"/>
<radialGradient id="SVGID_16_" cx="313.9092" cy="579.6895" r="6.5549" fx="310.2336" fy="575.1976" gradientTransform="matrix(1 0 0 1 0 -3.2129)" gradientUnits="userSpaceOnUse">
	<stop  offset="0" style="stop-color:#FFF6BF"/>
	<stop  offset="0.5644" style="stop-color:#FFAC00"/>
	<stop  offset="1" style="stop-color:#FFC900"/>
</radialGradient>
<circle display="none" fill="url(#SVGID_16_)" stroke="#D19A00" stroke-miterlimit="10" cx="313.908" cy="576.477" r="6.554"/>
<radialGradient id="SVGID_17_" cx="327.5532" cy="579.6895" r="6.5542" fx="323.8781" fy="575.1981" gradientTransform="matrix(1 0 0 1 0 -3.2129)" gradientUnits="userSpaceOnUse">
	<stop  offset="0" style="stop-color:#FFF6BF"/>
	<stop  offset="0.5644" style="stop-color:#FFAC00"/>
	<stop  offset="1" style="stop-color:#FFC900"/>
</radialGradient>
<circle display="none" fill="url(#SVGID_17_)" stroke="#D19A00" stroke-miterlimit="10" cx="327.554" cy="576.477" r="6.554"/>
<radialGradient id="SVGID_18_" cx="340.6636" cy="579.6895" r="6.5549" fx="336.9882" fy="575.1976" gradientTransform="matrix(1 0 0 1 0 -3.2129)" gradientUnits="userSpaceOnUse">
	<stop  offset="0" style="stop-color:#FFF6BF"/>
	<stop  offset="0.5644" style="stop-color:#FFAC00"/>
	<stop  offset="1" style="stop-color:#FFC900"/>
</radialGradient>
<circle display="none" fill="url(#SVGID_18_)" stroke="#D19A00" stroke-miterlimit="10" cx="340.664" cy="576.477" r="6.554"/>
<radialGradient id="SVGID_19_" cx="353.7725" cy="579.6895" r="6.5542" fx="350.0973" fy="575.1981" gradientTransform="matrix(1 0 0 1 0 -3.2129)" gradientUnits="userSpaceOnUse">
	<stop  offset="0" style="stop-color:#FFF6BF"/>
	<stop  offset="0.5644" style="stop-color:#FFAC00"/>
	<stop  offset="1" style="stop-color:#FFC900"/>
</radialGradient>
<path display="none" fill="url(#SVGID_19_)" stroke="#D19A00" stroke-miterlimit="10" d="M353.773,569.923
	c3.62,0,6.553,2.935,6.553,6.554s-2.933,6.555-6.553,6.555c-3.622,0-6.555-2.936-6.555-6.555S350.151,569.923,353.773,569.923z"/>
<linearGradient id="SVGID_20_" gradientUnits="userSpaceOnUse" x1="254.6143" y1="425.2549" x2="254.6143" y2="427.3046" gradientTransform="matrix(1 0 0 1 0 -3.2129)">
	<stop  offset="0" style="stop-color:#FFF6BF"/>
	<stop  offset="0.5644" style="stop-color:#FFAC00"/>
	<stop  offset="1" style="stop-color:#FFC900"/>
</linearGradient>
<rect x="243.052" y="421.896" display="none" fill="url(#SVGID_20_)" width="23.124" height="4.39"/>
<linearGradient id="SVGID_21_" gradientUnits="userSpaceOnUse" x1="392.1943" y1="589.9072" x2="392.1943" y2="597.604" gradientTransform="matrix(1 0 0 1 0 -3.2129)">
	<stop  offset="0" style="stop-color:#FFF6BF"/>
	<stop  offset="0.5644" style="stop-color:#FFAC00"/>
	<stop  offset="1" style="stop-color:#FFC900"/>
</linearGradient>
<rect x="387.941" y="584.938" display="none" fill="url(#SVGID_21_)" stroke="#D19A00" stroke-miterlimit="10" width="8.506" height="11.561"/>
<rect x="261.627" y="424.97" display="none" fill="#FFC900" width="4.549" height="7.684"/>
<linearGradient id="SVGID_22_" gradientUnits="userSpaceOnUse" x1="613.2261" y1="171.0171" x2="694.2344" y2="171.0171" gradientTransform="matrix(1 0 0 -1 -244 748.082)">
	<stop  offset="0" style="stop-color:#FFD8BF"/>
	<stop  offset="1" style="stop-color:#EFA57F"/>
</linearGradient>
<path display="none" fill="url(#SVGID_22_)" d="M415.733,553.453c-6.771,0-13.062,1.355-18.39,3.658
	c-0.796-0.547-1.759-0.873-2.799-0.873h-20.378c-2.73,0-4.94,2.208-4.94,4.938c0,2.727,2.209,4.938,4.94,4.938h7.169
	c-3.958,0-7.169,3.209-7.169,7.168c0,3.41,2.384,6.25,5.571,6.978c-0.24,0.546-0.377,1.142-0.377,1.778
	c0,2.435,1.973,4.408,4.408,4.41c-0.59,0.849-0.937,1.878-0.937,2.989c0,2.908,2.358,5.266,5.267,5.266h4.762
	c0.986,0.6,2.012,1.165,3.092,1.687c-0.008,0.104-0.033,0.203-0.033,0.312c0,2.14,1.734,3.872,3.876,3.872h13.012
	c0.97,0.057,1.94,0.104,2.93,0.104c19.05,0,34.498-10.574,34.498-23.61C450.229,564.025,434.784,553.453,415.733,553.453z"/>
<linearGradient id="SVGID_23_" gradientUnits="userSpaceOnUse" x1="613.2261" y1="171.0171" x2="694.2344" y2="171.0171" gradientTransform="matrix(1 0 0 -1 -244 748.082)">
	<stop  offset="0" style="stop-color:#FFD8BF"/>
	<stop  offset="1" style="stop-color:#EFA57F"/>
</linearGradient>
<path display="none" fill="url(#SVGID_23_)" stroke="#000000" stroke-width="2" stroke-miterlimit="10" d="M415.733,553.453
	c-6.771,0-13.062,1.355-18.39,3.658c-0.796-0.547-1.759-0.873-2.799-0.873h-20.378c-2.73,0-4.94,2.208-4.94,4.938
	c0,2.727,2.209,4.938,4.94,4.938h7.169c-3.958,0-7.169,3.209-7.169,7.168c0,3.41,2.384,6.25,5.571,6.978
	c-0.24,0.546-0.377,1.142-0.377,1.778c0,2.435,1.973,4.408,4.408,4.41c-0.59,0.849-0.937,1.878-0.937,2.989
	c0,2.908,2.358,5.266,5.267,5.266h4.762c0.986,0.6,2.012,1.165,3.092,1.687c-0.008,0.104-0.033,0.203-0.033,0.312
	c0,2.14,1.734,3.872,3.876,3.872h13.012c0.97,0.057,1.94,0.104,2.93,0.104c19.05,0,34.498-10.574,34.498-23.61
	C450.229,564.025,434.784,553.453,415.733,553.453z"/>
<path display="none" d="M622.585,726.535c0,16.458,22.938,29.798,6.481,29.798H521.135c-16.457,0-41.428-14.262-41.428-30.719
	l20.47-202.992c0-16.456,32.105-54.314,48.563-54.314h53.031c16.457,0,34.682,23.81,34.682,40.263L622.585,726.535z"/>
<path display="none" fill="#E6E6E6" d="M607.635,482.522c0,0,22.251,1.755,20.192,22.246c-2.062,20.487-61.187,79.03-61.187,79.03
	l-136.401,12.879v-39.809l112.406-17.27C542.647,539.598,574.28,480.181,607.635,482.522z"/>
<path display="none" fill="#F2F2F2" d="M557.212,545.452c0.551-0.476-0.856-0.584-2.868-0.533
	C555.697,545.521,556.795,545.813,557.212,545.452z"/>
<path display="none" fill="#F2F2F2" d="M607.605,484.863l1.723-2.105c-1.048-0.182-1.695-0.236-1.695-0.236
	c-33.355-2.341-64.988,57.076-64.988,57.076l-17.295,2.658c6.35-0.622,10.473-0.355,10.308,1.44
	c-0.687,7.463,7.712,8.342,4.208,6.146c-3.5-2.194,2.779-7.464,2.779-7.464l2.705,3.234c0,0,5.443-0.6,8.991-0.694
	c-3.569-1.58-8.991-5.354-8.991-5.354C575.438,484.942,607.605,484.863,607.605,484.863z"/>
<path display="none" fill="#F2F2F2" d="M508.361,544.865l-78.121,12.003v3.951h3.368h13.171l16.247-5.707
	C463.022,555.112,487.757,548.744,508.361,544.865z"/>
<path display="none" fill="#D8D8D8" d="M593.205,549.403l14.927-17.123l12.513-21.075l1.757-17.342l-2.686-7.159
	c-3.86-2.516-8.096-3.547-10.385-3.946h-0.002c0,0,8.023,24.058,3.413,24.496c-4.61,0.439-6.586,16.246-9.878,12.952
	c-3.292-3.292-30.735,49.176-33.588,34.247c0,0-9.22,1.537-3.074,8.782c6.148,7.243-4.829,8.478-6.365,6.653
	c-1.538-1.824-36.223,7.615-36.223,7.615l-34.246,3.045l-31.394-3.045l-7.122-3.513l-11.393,11.416h-9.22v7.082l24.662-3.131
	l67.177-4.975l38.417-2.616l12.294-11.659L593.205,549.403z"/>
<path display="none" fill="#CCCCCC" d="M615.822,484.652c2.2,6.54,5.644,19.701,1.167,28.018
	c-6.148,11.415-54.737,62.639-54.737,62.639l-35.417,5.268l-49.467,4.392l-47.126,2.87v8.838l136.402-12.879
	c0,0,59.127-58.542,61.188-79.03C629.033,492.792,621.934,487.221,615.822,484.652z"/>
<path display="none" fill="#CCCCCC" d="M453.024,560.794c0-1.199-0.973-2.171-2.173-2.171l0,0c-1.199,0-2.172,0.974-2.172,2.171
	v26.391c0,1.201,0.973,2.173,2.172,2.173l0,0c1.2,0,2.173-0.976,2.173-2.173V560.794z"/>
<circle display="none" fill="#333333" cx="443.119" cy="580.725" r="3.219"/>
<path display="none" fill="#232120" d="M443.119,584.384c-2.017,0-3.658-1.644-3.658-3.659c0-2.019,1.642-3.66,3.658-3.66
	c2.018,0,3.658,1.642,3.658,3.66C446.777,582.74,445.137,584.384,443.119,584.384z M443.119,577.942c-1.534,0-2.78,1.25-2.78,2.782
	s1.247,2.781,2.78,2.781s2.78-1.249,2.78-2.781S444.653,577.942,443.119,577.942z"/>
<circle display="none" fill="#1A1A1A" cx="442.159" cy="579.709" r="0.622"/>
<path display="none" fill="#232120" d="M442.159,580.549c-0.463,0-0.842-0.379-0.842-0.842c0-0.466,0.378-0.84,0.842-0.84
	c0.463,0,0.84,0.377,0.84,0.84C443,580.175,442.622,580.549,442.159,580.549z M442.159,579.307c-0.223,0-0.403,0.18-0.403,0.4
	c0,0.222,0.18,0.402,0.403,0.402c0.222,0,0.401-0.181,0.401-0.402C442.56,579.486,442.381,579.307,442.159,579.307z"/>
<circle display="none" fill="#1A1A1A" cx="444.135" cy="579.709" r="0.622"/>
<path display="none" fill="#232120" d="M444.135,580.549c-0.463,0-0.842-0.379-0.842-0.842c0-0.466,0.378-0.84,0.842-0.84
	c0.462,0,0.84,0.377,0.84,0.84C444.975,580.175,444.597,580.549,444.135,580.549z M444.135,579.307c-0.224,0-0.403,0.18-0.403,0.4
	c0,0.222,0.179,0.402,0.403,0.402c0.221,0,0.402-0.181,0.402-0.402C444.537,579.486,444.356,579.307,444.135,579.307z"/>
<circle display="none" fill="#1A1A1A" cx="442.159" cy="581.767" r="0.623"/>
<path display="none" fill="#232120" d="M442.159,582.605c-0.463,0-0.842-0.377-0.842-0.84c0-0.465,0.378-0.84,0.842-0.84
	c0.463,0,0.84,0.377,0.84,0.84S442.622,582.605,442.159,582.605z M442.159,581.365c-0.223,0-0.403,0.18-0.403,0.4
	c0,0.223,0.18,0.401,0.403,0.401c0.222,0,0.401-0.179,0.401-0.401C442.56,581.545,442.381,581.365,442.159,581.365z"/>
<circle display="none" fill="#1A1A1A" cx="444.135" cy="581.767" r="0.623"/>
<path display="none" fill="#232120" d="M444.135,582.605c-0.463,0-0.842-0.377-0.842-0.84c0-0.465,0.378-0.84,0.842-0.84
	c0.462,0,0.84,0.377,0.84,0.84S444.597,582.605,444.135,582.605z M444.135,581.365c-0.224,0-0.403,0.18-0.403,0.4
	c0,0.223,0.179,0.401,0.403,0.401c0.221,0,0.402-0.179,0.402-0.401C444.537,581.545,444.356,581.365,444.135,581.365z"/>
<circle display="none" fill="#333333" cx="443.119" cy="571.745" r="3.219"/>
<path display="none" fill="#232120" d="M443.119,575.405c-2.017,0-3.658-1.644-3.658-3.66s1.642-3.66,3.658-3.66
	c2.018,0,3.658,1.644,3.658,3.66S445.137,575.405,443.119,575.405z M443.119,568.962c-1.534,0-2.78,1.251-2.78,2.783
	c0,1.534,1.247,2.781,2.78,2.781s2.78-1.247,2.78-2.781C445.899,570.213,444.653,568.962,443.119,568.962z"/>
<circle display="none" fill="#1A1A1A" cx="442.159" cy="570.73" r="0.622"/>
<path display="none" fill="#232120" d="M442.159,571.57c-0.463,0-0.842-0.38-0.842-0.843s0.378-0.841,0.842-0.841
	c0.463,0,0.84,0.378,0.84,0.841S442.622,571.57,442.159,571.57z M442.159,570.327c-0.223,0-0.403,0.182-0.403,0.404
	c0,0.224,0.18,0.401,0.403,0.401c0.222,0,0.401-0.178,0.401-0.401C442.56,570.509,442.381,570.327,442.159,570.327z"/>
<circle display="none" fill="#1A1A1A" cx="444.135" cy="570.73" r="0.622"/>
<path display="none" fill="#232120" d="M444.135,571.57c-0.463,0-0.842-0.38-0.842-0.843s0.378-0.841,0.842-0.841
	c0.462,0,0.84,0.378,0.84,0.841S444.597,571.57,444.135,571.57z M444.135,570.327c-0.224,0-0.403,0.182-0.403,0.404
	c0,0.224,0.179,0.401,0.403,0.401c0.221,0,0.402-0.178,0.402-0.401C444.537,570.509,444.356,570.327,444.135,570.327z"/>
<circle display="none" fill="#1A1A1A" cx="442.159" cy="572.788" r="0.622"/>
<path display="none" fill="#232120" d="M442.159,573.628c-0.463,0-0.842-0.378-0.842-0.842s0.378-0.84,0.842-0.84
	c0.463,0,0.84,0.376,0.84,0.84S442.622,573.628,442.159,573.628z M442.159,572.386c-0.223,0-0.403,0.18-0.403,0.402
	c0,0.224,0.18,0.403,0.403,0.403c0.222,0,0.401-0.18,0.401-0.403C442.56,572.565,442.381,572.386,442.159,572.386z"/>
<circle display="none" fill="#1A1A1A" cx="444.135" cy="572.788" r="0.622"/>
<path display="none" fill="#232120" d="M444.135,573.628c-0.463,0-0.842-0.378-0.842-0.842s0.378-0.84,0.842-0.84
	c0.462,0,0.84,0.376,0.84,0.84S444.597,573.628,444.135,573.628z M444.135,572.386c-0.224,0-0.403,0.18-0.403,0.402
	c0,0.224,0.179,0.403,0.403,0.403c0.221,0,0.402-0.18,0.402-0.403C444.537,572.565,444.356,572.386,444.135,572.386z"/>
<path display="none" fill="#1E1E1E" d="M630.743,512.083l-8.341,84.593l-2.635,48.442l-4.829,77.714l7.707,2.781l13.812-217.043
	c0-15.536-16.247-37.615-31.913-40.034c-1.698,1.44-3.016,3.086-4.206,3.329C605.695,473.022,633.432,482.135,630.743,512.083z"/>
<path display="none" fill="#1E1E1E" d="M600.341,471.867c-0.77-0.166-1.078-0.169-0.77-0.042
	C599.822,471.924,600.078,471.921,600.341,471.867z"/>
<path display="none" fill="#1E1E1E" d="M545.354,471.734c0,0-16.188-11.899-20.5-9.703c-4.314,2.194-25.454,57.078-25.454,57.078
	S556.315,483.051,545.354,471.734z"/>
<polygon display="none" points="428.485,598.6 428.485,555.363 542.201,535.89 542.733,539.359 431.997,558.372 431.997,594.752 
	569.555,582.194 569.874,585.694 "/>
<linearGradient id="SVGID_24_" gradientUnits="userSpaceOnUse" x1="790.897" y1="380.5811" x2="867.7311" y2="307.2594" gradientTransform="matrix(1 0 0 -1 -244 748.082)">
	<stop  offset="0" style="stop-color:#FFD8BF"/>
	<stop  offset="1" style="stop-color:#EFA57F"/>
</linearGradient>
<ellipse display="none" fill="url(#SVGID_24_)" cx="575.102" cy="394.415" rx="67.906" ry="79.03"/>
<path display="none" fill="#F9EBE4" d="M577.952,471.69c-36.479,0-66.154-34.666-66.154-77.275
	c0-42.608,29.676-77.274,66.154-77.274c13.411,0,25.895,4.699,36.329,12.741c-11.073-9.12-24.581-14.499-39.18-14.499
	c-13.381,0-25.848,4.522-36.363,12.299c-18.369,14.56-30.454,39.039-30.454,66.731c0,27.686,12.078,52.156,30.439,66.719
	c10.516,7.784,22.99,12.312,36.377,12.312c14.593,0,28.097-5.374,39.166-14.488C603.833,466.996,591.354,471.69,577.952,471.69z"/>
<ellipse display="none" fill="none" cx="575.102" cy="394.415" rx="67.906" ry="79.03"/>
<path display="none" d="M574.49,475.202c-38.413,0-69.666-36.242-69.666-80.787c0-44.547,31.251-80.787,69.666-80.787
	c38.414,0,69.665,36.242,69.665,80.787S612.904,475.202,574.49,475.202z M574.49,317.141c-36.479,0-66.153,34.667-66.153,77.274
	s29.675,77.275,66.153,77.275c36.477,0,66.151-34.666,66.151-77.275C640.642,351.806,610.964,317.141,574.49,317.141z"/>
<path display="none" opacity="0.35" fill="#C98061" enable-background="new    " d="M642.59,385.712
	c-9.5-12.79-30.607-13.246-30.607-13.246s0.102,26.163,5.266,41.685c-2.816,17.768-12.839,38.704-39.298,57.542
	c0,0,25.962,3.688,50.169-27.918c9.308-13.523,14.889-30.679,14.889-49.357C643.008,391.472,642.861,388.571,642.59,385.712z"/>
<path display="none" d="M574.49,475.202c-38.413,0-69.666-36.242-69.666-80.787c0-44.547,31.251-80.787,69.666-80.787
	c38.414,0,69.665,36.242,69.665,80.787S612.904,475.202,574.49,475.202z M574.49,317.141c-36.479,0-66.153,34.667-66.153,77.274
	s29.675,77.275,66.153,77.275c36.477,0,66.151-34.666,66.151-77.275C640.642,351.806,610.964,317.141,574.49,317.141z"/>
<path display="none" fill="#B7B1AC" d="M632.328,335.438c0,0-19.758,8.781-28.539,20.636c-8.783,11.855,12.293,40.394,18.878,41.272
	c6.587,0.878,21.792,0.144,19.182,11.6c-2.611,11.454,4.089,17.377,11.992,16.062C661.744,423.688,674.477,320.949,632.328,335.438z
	"/>
<path display="none" fill="#B7B1AC" d="M601.679,357.83c0,0-43.557,14.489-66.389-12.293c-16.431-9.592-22.391,8.103-22.391,8.103
	s-18.001-9.859-7.903-32.69c10.098-22.832,126.888-57.243,133.473,13.089C636.278,340.707,601.679,357.83,601.679,357.83z"/>
<path display="none" d="M663.294,369.439c-2.007-24.231-10.043-37.072-23.24-37.141c-3.231-27.062-23.399-41.935-56.984-41.935
	c-35.168,0-73.853,16.706-79.675,29.875c-10.63,24.029,8.473,34.835,8.666,34.943l1.831,0.999l0.674-1.976
	c0.026-0.078,3.987-5.815,9.02-8.302c1.047-1.541,1.278-1.77,2.416-3.216c-7.362,0.568-12.274,5.018-13.889,8.332
	c-3.969-2.961-13.142-12.096-5.506-29.359c5.367-12.132,43.409-27.784,76.465-27.784c18.559,0,50.135,5.197,53.616,39.932
	l-0.781,2.273l2.674-0.215c8.63-0.692,14.711,5.09,18.308,17.186c7.643,25.699,0.54,67.252-3.471,70.241
	c-3.393,0.529-6.477-0.528-8.333-2.856c-2.032-2.55-2.574-6.49-1.523-11.101c0.655-2.878-1.285-4.654-2.512-6.656
	c-0.443,5.416,0.291,9.988-1.043,15.029c0.456,1.861,1.223,3.53,2.333,4.921c2.219,2.781,5.543,4.315,9.357,4.315
	c0.799,0,1.62-0.069,2.436-0.206C660.751,425.633,665.177,392.167,663.294,369.439z"/>
<path display="none" fill="#DDDDDD" d="M652.084,421.274c0,0,21.953-77.056-12.293-85.178c0,0,8.243,5.708,9.611,12.513
	c1.366,6.806,0.925-3.512,0.925-3.512s10.44,29.856-0.925,75.299C648.854,422.605,652.084,421.274,652.084,421.274z"/>
<path display="none" fill="#DDDDDD" d="M634.817,332.657c0,0-3.511-37.466-53.86-37.174c-50.345,0.291-73.762,28.1-73.762,28.1
	l9.367-4.391l-3.216,3.806l7.024-4.684c0,0,86.64-50.053,111.475,14.343C632.328,335.438,634.817,332.657,634.817,332.657z"/>
<path display="none" opacity="0.75" fill="#FFD8BF" enable-background="new    " d="M614.076,401.593l2.114-3.917l6.395-1.317
	l5.243,1.467l4.719,4.24l2.635,9.66l-1.538,8.672l-4.722,9.659l-9.241,2.729c0,0,12.941-9.935,4.946-21.609
	c-6.12-1.433-5.908,0.449-5.908,0.449l0.799-3.148l3.962-2.584l3.794-0.554C627.278,405.337,627.99,396.286,614.076,401.593z"/>
<polygon display="none" opacity="0.35" fill="#C98061" enable-background="new    " points="558.42,396.82 615.168,396.82 
	612.972,399.785 557.212,402.858 "/>
<rect x="558.715" y="393.482" display="none" fill="#3A1E13" stroke="#110A08" stroke-width="0.5" stroke-miterlimit="10" width="70.502" height="4.764"/>
<path display="none" d="M610.497,400.579c-0.008,0.028-0.011,0.052-0.018,0.079L610.497,400.579z"/>
<path display="none" d="M623.287,394.509c-4.419-0.552-8.951,1.414-12.431,5.395c-0.167,0.192-0.273,0.418-0.345,0.652l3.565,1.037
	c2.624-2.708,5.711-3.984,8.774-3.599c6.633,0.826,11.081,9.123,9.912,18.491c-1.063,8.519-6.549,15.144-12.554,15.522l-2.229,3.294
	c0.178,0.089,0.367,0.156,0.567,0.181c0.022,0.004,0.042,0.004,0.063,0.007c8.496,0.75,16.244-7.406,17.636-18.568
	C637.658,405.628,631.842,395.575,623.287,394.509z"/>
<path display="none" fill="none" stroke="#000000" stroke-miterlimit="10" d="M627.825,406.566c0.112-2.626-5.734-0.339-6.697,0.384
	c-1.491,1.117-4.086,4.103-3.754,5.978c0.425-1.454,2.728-1.777,3.983-1.866c1.512-0.109,2.301-0.174,3.283,1.001
	c2.001,2.388,2.379,6.995,1.938,10.052c-0.357,2.471-2.46,7.07-5.577,5.539c-1.38-0.676-1.651-2.377-1.864-3.747
	c-0.342-2.187-0.548-3.848,1.224-5.485"/>
<rect x="526.053" y="371.461" transform="matrix(-0.9811 -0.1937 0.1937 -0.9811 989.5698 846.2167)" display="none" fill="#B7B1AC" width="20.2" height="6.543"/>
<polygon display="none" opacity="0.35" fill="#C98061" enable-background="new    " points="522.144,385.844 556.278,390.125 
	554.412,408.785 557.323,408.785 558.09,386.996 521.648,383.374 "/>
<path display="none" d="M546.792,381.965l-23.258-4.596l1.947-9.863l23.26,4.595L546.792,381.965z M525.596,375.987l19.814,3.914
	l1.268-6.417l-19.812-3.913L525.596,375.987z"/>
<path display="none" fill="#DDDDDD" d="M528.287,371.293c0.281,0.24-0.093,1.077-0.108,1.456c-0.013,0.393-0.148,1.234,0,1.616
	c0.144,0.363,0.181,0.354,0.399-0.047c0.167-0.302,0.175-0.695,0.34-1.019c0.178-0.348,0.502-0.671,0.643-1.027
	c0.12-0.308-0.042-0.866,0.341-0.832c0.913,0.08,0.532,2.134,0.528,2.624c-0.004,0.433-0.137,1.225,0,1.671
	c0.213,0.687,1.024,0.436,1.327-0.172c0.202-0.404-0.176-3.687,1.069-2.905c0.638,0.4,0.199,1.311,0.288,1.841
	c0.072,0.406,0.093,0.466,0.507,0.537c0.667,0.115,0.846-0.344,1.146-0.852c0.323-0.551,0.906-2.136,1.144-0.585
	c0.103,0.659,0.188,1.781,1.097,1.672c1.095-0.13,2.453-2.792,3.515-1.07c0.39,0.631,0.75,1.26,1.216,1.865
	c0.385,0.502,0.717,1.158,1.137,0.406c0.438-0.777-0.107-1.491,0.757-2.059c0.737-0.485,1.173-0.201,1.448,0.571
	c0.167,0.46,0.25,1.2,0.27,1.683c0.028,0.61-0.329,1.175-0.041,1.762c0.128,0.005,0.26,0,0.391,0.002l0.98-4.944l-19.812-3.916
	l-0.638,3.219C526.668,372.283,527.712,370.796,528.287,371.293z"/>
<path display="none" fill="#FFFFFF" d="M549.528,400.113c0,4.245-10.685,3.434-14.928,3.434s-7.684-3.44-7.684-7.683
	c0-4.243,3.441-7.684,7.684-7.684S549.528,395.87,549.528,400.113z"/>
<circle display="none" cx="530.813" cy="395.394" r="3.293"/>
<circle display="none" fill="#FFFFFF" cx="533.064" cy="393.418" r="1.784"/>
<path display="none" fill="#B7B1AC" d="M515.846,419.372c0,0-6.334,3.508-5.908,9.675c0.429,6.17,8.856,4.625,8.856,4.625
	l4.999-0.701l2.714,2.525h4.257h3.482l8.399-0.731l-2.57-2.636l-0.929-6.587c0,0-2.323-2.804-5.625-4.767
	c-3.301-1.96-8.479-4.625-10.317-3.224C521.366,418.95,515.846,419.372,515.846,419.372z"/>
<path display="none" fill="#DDDDDD" d="M535.629,430.13c0.249,1.314,0.402,2.399,2.045,2.199c-0.191-0.433-0.581-0.792-0.731-1.254
	c-0.273-0.851-0.201-2.023-0.338-2.917c-0.127-0.85-0.476-2.271,0.047-3.042c0.521,0.857,1.035,2.547,2.265,2.615
	c0.398-1.316,0.143-1.87-0.659-2.861c-0.318-0.393-0.583-0.783-0.869-1.149c-0.481-0.452-1.046-0.946-1.688-1.449
	c-1.978-1.144-3.997-2.318-6.052-3.353c-1.015-0.513-2.128-1.244-3.225-1.429c-0.806-0.137-2.066-0.228-2.927-0.064
	c-0.09,0.045-0.21,0.06-0.29,0.12c-0.05,0.038-0.113,0.072-0.168,0.109c-0.041,0.076-0.087,0.157-0.158,0.189
	c-0.106,0.046-0.222,0.067-0.338,0.093c-0.674,0.327-1.542,0.59-2.437,0.793c-0.736,0.233-1.485,0.412-2.361,0.441
	c-0.066,0.002-0.117,0.004-0.181,0.006c-0.624,0.083-1.14,0.138-1.435,0.165c-0.11,0.034-0.219,0.062-0.338,0.11
	c-0.149,0.058-0.257,0.119-0.375,0.181c-0.061,0.04-0.117,0.077-0.185,0.123h0.054c-0.334,0.148-0.754,0.663-1.066,0.936
	c-0.305,0.267-0.617,0.458-0.931,0.639c-0.431,0.412-0.868,0.895-1.285,1.432c-0.011,0.154-0.028,0.33-0.096,0.558
	c-0.209,0.688-0.899,1.078-1.087,1.862c-0.131,0.541-0.237,1.013-0.211,1.593c1.095-0.802,1.765-2.245,2.694-3.205
	c0.809-0.834,1.905-1.192,2.994-1.271c-0.822,0.659-1.456,1.135-1.946,2.104c-0.268,0.525-0.275,1.146-0.593,1.624
	c0.439-1.05,2.191-2.591,3.35-2.892c0.203,1.107-0.819,2.236-0.875,3.389c0.2-0.396,0.474-0.703,0.714-1.052
	c0.382-0.561,0.667-1.282,1.091-1.806c0.792-0.983,2.124-1.21,3.1-1.875c-0.112,1.35-1.011,2.895-1.467,4.174
	c-0.281,0.784-0.419,1.477-0.501,2.305c-0.119,1.214-0.393,2.92,0.231,4.015c0.322-0.984,0.833-1.789,0.936-2.848
	c0.082-0.857,0.208-1.722,0.488-2.544c0.619-1.813,1.935-3.039,3.094-4.498c0.09,1.042-0.472,2.141-0.514,3.206
	c-0.029,0.717-0.046,1.438-0.072,2.154c-0.033,0.831-0.059,1.799,0.146,2.579c0.048-1.58,0.963-3.236,1.24-4.802
	c0.144-0.829,0.443-1.577,0.613-2.391c0.082-0.414-0.06-0.898,0.206-1.242c-0.031,1.522,0.017,3.036,0.069,4.555
	c0.06,1.609-0.128,3.05,0.51,4.549c0.746,1.751,1.863,2.801,3.684,3.298c-0.611-1.129-0.885-2.002-0.918-3.273
	c-0.043-1.691-0.443-3.241-0.635-4.891c-0.11-0.929-0.319-2.429,0.065-3.293c0.222-0.494,0.723-0.772,0.952-1.253
	c0.301,0.376,0.369,0.915,0.527,1.383c0.285,0.839,0.679,1.742,1.166,2.491c0.651,1.004,1.625,1.734,2.353,2.632
	c-0.456-0.93-0.569-1.347-0.673-2.439c-0.088-0.912-0.2-1.813-0.236-2.728c0.443,1.175,1.139,2.212,1.532,3.424
	C534.359,427.696,535.37,428.767,535.629,430.13z"/>
<path display="none" fill="#020100" d="M534.887,437.177h-8.319l-2.727-2.584l-4.702,0.672c-0.007,0.001-1.02,0.189-2.379,0.189
	c-4.637,0-7.441-2.125-7.695-5.829c-0.47-6.913,6.214-10.762,6.498-10.923l0.364-0.11c1.501-0.117,5.696-0.655,7.067-1.723
	c1.803-1.4,5.621-0.292,11.567,3.31c3.477,2.104,5.89,5.049,5.99,5.173l0.154,0.189l0.946,6.838l3.702,3.868L534.887,437.177z
	 M527.267,435.421h7.542l6.748-0.599l-1.566-1.635l-0.958-6.906c-0.566-0.655-2.649-2.944-5.381-4.599
	c-3.886-2.351-6.964-3.647-8.669-3.647c-0.413,0-0.719,0.076-0.913,0.225c-1.883,1.463-6.626,1.964-7.8,2.067
	c-0.936,0.589-5.814,3.915-5.455,9.183c0.189,2.78,2.189,4.19,5.943,4.19c1.188,0,2.087-0.164,2.094-0.165l5.579-0.799
	L527.267,435.421z"/>
<path display="none" fill="#FFD8BF" d="M514.498,416.286c-17.984,6.035-19.924-13.431-19.924-13.431l20.733-33.284"/>
<path display="none" fill="#F9EBE4" d="M515.727,368.174l-0.423,9.769l-17.038,25.669c0,0,7.245,12.42,16.246,11.762l0.284,2.076
	h-6.102l-8.891-3.502l-5.231-11.964L515.727,368.174z"/>
<path display="none" d="M508.285,419.2c-10.419-0.593-14.899-10.832-15.457-16.159l-0.064-0.6l13.818-22.54l3.027-1.18
	l-13.208,24.526c0.404,2.481,5.847,13.588,14.744,14.095L508.285,419.2z"/>
<path display="none" fill="none" stroke="#000000" stroke-width="2" stroke-linecap="round" stroke-linejoin="round" stroke-miterlimit="10" d="
	M542.647,442.153c0,5.098-6.25,9.221-13.974,9.221"/>
<line display="none" fill="none" stroke="#F9EBE4" stroke-width="2" stroke-miterlimit="10" x1="534.849" y1="454.667" x2="545.354" y2="450.276"/>
<rect x="499.607" y="385.818" transform="matrix(-0.9343 -0.3564 0.3564 -0.9343 847.2615 932.5032)" display="none" fill="#3A1E13" stroke="#110A08" stroke-width="0.5" stroke-miterlimit="10" width="19.858" height="4.762"/>
<path display="none" fill="#3A1E13" stroke="#110A08" stroke-width="0.5" stroke-miterlimit="10" d="M558.529,411.988l-42.536-4.491
	l2.83-26.772l42.535,4.492L558.529,411.988z M519.855,404.372l35.551,3.756l2.09-19.785l-35.55-3.755L519.855,404.372z"/>
<path display="none" fill="#9B9692" d="M623.48,345.949c0,0-15.769,4.001-15.845,8.831c-0.078,4.829-1.602,32.71,34.722,42.041
	C678.686,406.15,594.916,389.366,623.48,345.949z"/>
<path display="none" fill="#9B9692" d="M538.674,342.926c0,0,18.396,24.294,68.961,11.855
	C607.635,354.781,559.946,355.22,538.674,342.926z"/>
<linearGradient id="SVGID_25_" gradientUnits="userSpaceOnUse" x1="508.9834" y1="718.4004" x2="508.9834" y2="918.6433" gradientTransform="matrix(1 0 0 1 0 -3.2129)">
	<stop  offset="0" style="stop-color:#5E3F2F"/>
	<stop  offset="0.6442" style="stop-color:#4F3529"/>
	<stop  offset="0.9387" style="stop-color:#4F3529"/>
</linearGradient>
<rect x="219.649" y="660.423" display="none" fill="url(#SVGID_25_)" stroke="#3D251A" stroke-width="3" stroke-miterlimit="10" width="578.669" height="284.463"/>
<rect x="219.649" y="625.791" display="none" fill="#3D251A" stroke="#3D251A" stroke-width="3" stroke-miterlimit="10" width="593.658" height="34.634"/>
<polygon display="none" fill="#684536" points="228.417,668.648 792.169,668.648 792.169,713.432 "/>
<polygon display="none" opacity="0.33" fill="#3D251A" enable-background="new    " points="228.417,823.198 228.417,933.842 
	792.169,933.842 "/>
<rect x="219.649" y="625.791" display="none" opacity="0.43" fill="#684536" enable-background="new    " width="593.658" height="5.18"/>
<linearGradient id="SVGID_26_" gradientUnits="userSpaceOnUse" x1="756.0059" y1="-82.1382" x2="756.0059" y2="21.7804" gradientTransform="matrix(1 0 0 -1 -244 748.082)">
	<stop  offset="0" style="stop-color:#262626"/>
	<stop  offset="1" style="stop-color:#000000"/>
</linearGradient>
<rect x="286.286" y="691.041" display="none" fill="url(#SVGID_26_)" width="451.44" height="91.763"/>
<path display="none" fill="#FFD400" d="M739.483,784.561H284.529v-95.276h454.954V784.561z M288.042,781.048H735.97v-88.252H288.042
	V781.048z"/>
<path display="none" fill="#231F1F" d="M571.154,761.312l-1.511,1.868c-0.137,0.167-0.262,0.337-0.385,0.504
	c-0.09,0.12-0.165,0.243-0.122,0.257c0,0-0.108,0.032-0.397,0.032h-1.707v-15.386h0.494l0.238,1.179h6.057v-7.38l0.891-0.506
	l-3.839-7.253l-2.22,0.926c-1.032,0.429-2.31,0.429-3.159,0.429h-5.501h-2.235h-1.725v-0.998l-1.125,0.998h-2.658l-4.164,3.584
	l-4.164-3.584h-2.659l-1.125-0.998v0.998h-3.962v5.004c-1.71-3.58-4.253-5.508-7.521-5.508c-2.995,0-5.272,1.569-6.837,4.651
	l-2.72-6.478l-4.911,1.86c-6.125,0.518-9.75,6.986-9.75,17.521c0,3.381,0.284,6.143,0.764,8.445l-0.48-0.303l-1.587,2.334
	c-0.12,0.181-0.286,0.428-0.266,0.438c0,0-0.085,0.026-0.305,0.026h-1.75v-21.194l1.727-0.168v-6.628h-10.958v1.425l-1.471-2.777
	l-2.218,0.924c-1.032,0.429-2.313,0.429-3.159,0.429h-5.29H477h-28.029v6.799l1.962,0.055l4.561,20.217l0.047,0.192
	c0.082,0.333,0.192,0.796,0.305,1.262l-0.593,0.095v6.495h17.915v-6.495l-0.593-0.095c0.112-0.472,0.224-0.929,0.303-1.258
	l4.61-20.43l1.001-0.055l0.41,0.035v21.492l-1.896,0.208v6.597h8.028c0.692-0.009,1.631-0.002,2.573,0.075
	c1.049,0.085,1.858,0.199,2.407,0.343l2.137,0.564l0.454-0.984h7.899c0.726,0,1.532,0.041,2.4,0.123
	c0.715,0.037,1.231,0.141,1.477,0.229l2.268,0.81l1.677-3.628c1.933,2.263,4.315,2.973,6.509,2.973c3.046,0,5.47-1.375,7.224-4.085
	c1.701,2.641,4.125,4.085,7.147,4.085c2.978,0,5.352-1.533,6.978-4.341v3.834h10.958v-6.567l-1.729-0.212v-17.601l2.676,2.38
	l2.677-2.38v17.601l-1.729,0.212v6.567h8.724h2.235h5.796c0.692-0.007,1.629-0.005,2.573,0.074c1.049,0.086,1.855,0.2,2.403,0.344
	l2.138,0.564l3.389-7.343L571.154,761.312z M538.034,742.794v4.392c-0.288-1.671-0.677-3.165-1.153-4.498L538.034,742.794z
	 M529.207,764.311c-0.822,0-2.427-2.693-2.427-8.916c0-8.126,1.268-11.553,1.933-12.476c0.826,0.851,2.453,4.578,2.453,12.476
	C531.165,761.599,529.725,764.104,529.207,764.311z M490.396,761.312l-1.511,1.868c-0.137,0.167-0.264,0.337-0.386,0.504
	c-0.087,0.12-0.162,0.243-0.121,0.257c0,0-0.11,0.032-0.395,0.032h-1.708v-15.386h0.493l0.237,1.179h6.058v-7.006l0.377,0.033
	v20.551L490.396,761.312z M517.948,759.564l-1.399,3.203c-0.271,0.621-0.955,1.543-1.718,1.543c-1.118,0-2.889-2.972-2.889-10.94
	c0-7.99,2.275-10.601,3.057-10.601c0.133,0,0.443,0,1.094,0.742l1.234,1.413l3.19-1.294c-0.823,3.067-1.241,6.984-1.241,11.764
	c0,2.06,0.16,3.944,0.456,5.649L517.948,759.564z M537.436,764.366c0.227-0.698,0.432-1.435,0.598-2.229v2.161L537.436,764.366z
	 M559.659,742.8v21.491l-0.799,0.089l-0.716-0.081v-21.505l0.72-0.065L559.659,742.8z"/>
<text transform="matrix(1 0 0 1 450.5542 768.167)" display="none" fill="#FFD400" enable-background="new    " font-family="'EccentricStd'" font-size="42.1498">Welcome</text>
<path display="none" fill="#1E1A1A" d="M513.413,731.87l19.293-24.675l-20.177-9.723l-0.288,0.596l-0.434-0.5l-0.195,0.17
	l-0.128-0.264l-20.179,9.722l19.532,24.976l0.279-0.221l0.551,0.954l0.573-0.329l0.577,0.329L513.413,731.87z M519.589,710.831
	l-5.172-9.994l10.244,8.878l-10.077,17.466L519.589,710.831z M512.241,730.306l-5.921-19.346l5.921-11.447l5.923,11.447
	L512.241,730.306z M504.894,710.831l5.004,16.35l-10.078-17.466l10.243-8.878L504.894,710.831z M518.15,723.655l8.208-14.229
	l-9.924-8.597l14.21,6.846L518.15,723.655z M493.365,707.675l15.268-7.356l-10.511,9.111l9.529,16.516L493.365,707.675z"/>
<path display="none" fill="#231F1F" d="M512.241,739.305l-0.961-3.139l-0.579,0.334l-0.504-0.868l-22.979-29.392l23.655-11.396
	l0.428-0.889l0.425,0.203l0.35-0.304l0.079,0.093l0.086-0.167l0.167,0.322l0.305-0.145l0.427,0.882l23.659,11.399l-21.197,27.108
	l-1.817,3.151l-0.583-0.334L512.241,739.305z M509.152,711.217l3.089,10.09l3.087-10.09l-3.087-5.969L509.152,711.217z"/>
<path display="none" fill="#FFD400" d="M513.413,731.87l19.293-24.675l-20.177-9.723l-0.288,0.596l-0.434-0.5l-0.195,0.17
	l-0.128-0.264l-20.179,9.722l19.532,24.976l0.279-0.221l0.551,0.954l0.573-0.329l0.577,0.329L513.413,731.87z M519.589,710.831
	l-5.172-9.994l10.244,8.878l-10.077,17.466L519.589,710.831z M512.241,730.306l-5.921-19.346l5.921-11.447l5.923,11.447
	L512.241,730.306z M504.894,710.831l5.004,16.35l-10.078-17.466l10.243-8.878L504.894,710.831z M518.15,723.655l8.208-14.229
	l-9.924-8.597l14.21,6.846L518.15,723.655z M493.365,707.675l15.268-7.356l-10.511,9.111l9.529,16.516L493.365,707.675z"/>
<circle display="none" fill="#CCAE00" cx="296.764" cy="772.268" r="3.219"/>
<path display="none" fill="#231F1F" d="M296.764,769.049c1.778,0,3.219,1.438,3.219,3.218c0,1.78-1.441,3.221-3.219,3.221
	c-1.776,0-3.218-1.44-3.218-3.221C293.546,770.487,294.988,769.049,296.764,769.049 M296.764,765.537
	c-3.71,0-6.731,3.02-6.731,6.729c0,3.712,3.021,6.734,6.731,6.734c3.712,0,6.732-3.022,6.732-6.734
	C303.497,768.557,300.476,765.537,296.764,765.537L296.764,765.537z"/>
<path display="none" fill="#CCAE00" d="M296.764,697.473c1.778,0,3.219,1.439,3.219,3.221c0,1.776-1.441,3.218-3.219,3.218
	s-3.218-1.441-3.218-3.218C293.546,698.912,294.986,697.473,296.764,697.473z"/>
<path display="none" fill="#231F1F" d="M296.764,697.473c1.778,0,3.219,1.439,3.219,3.221c0,1.776-1.441,3.218-3.219,3.218
	c-1.776,0-3.218-1.441-3.218-3.218C293.546,698.912,294.988,697.473,296.764,697.473 M296.764,693.959
	c-3.71,0-6.731,3.021-6.731,6.734c0,3.709,3.021,6.729,6.731,6.729c3.712,0,6.732-3.021,6.732-6.729
	C303.497,696.98,300.476,693.959,296.764,693.959L296.764,693.959z"/>
<path display="none" fill="#CCAE00" d="M727.19,697.473c1.778,0,3.218,1.439,3.218,3.221c0,1.776-1.44,3.218-3.218,3.218
	c-1.779,0-3.219-1.441-3.219-3.218C723.971,698.912,725.411,697.473,727.19,697.473z"/>
<path display="none" fill="#231F1F" d="M727.19,697.473c1.776,0,3.218,1.439,3.218,3.221c0,1.776-1.441,3.218-3.218,3.218
	c-1.779,0-3.219-1.441-3.219-3.218C723.971,698.912,725.411,697.473,727.19,697.473 M727.19,693.959
	c-3.712,0-6.732,3.021-6.732,6.734c0,3.709,3.021,6.729,6.732,6.729c3.709,0,6.731-3.021,6.731-6.729
	C733.921,696.98,730.899,693.959,727.19,693.959L727.19,693.959z"/>
<circle display="none" fill="#CCAE00" cx="727.19" cy="772.268" r="3.219"/>
<path display="none" fill="#231F1F" d="M727.19,769.049c1.776,0,3.218,1.438,3.218,3.218c0,1.78-1.441,3.221-3.218,3.221
	c-1.779,0-3.219-1.44-3.219-3.221C723.971,770.487,725.411,769.049,727.19,769.049 M727.19,765.537c-3.712,0-6.732,3.02-6.732,6.729
	c0,3.712,3.021,6.734,6.732,6.734c3.709,0,6.731-3.022,6.731-6.734C733.921,768.557,730.899,765.537,727.19,765.537L727.19,765.537z
	"/>
<line display="none" fill="none" stroke="#FFD400" stroke-width="2" stroke-miterlimit="10" x1="286.286" y1="782.804" x2="737.727" y2="782.804"/>
<polygon display="none" opacity="0.33" fill="#3D251A" enable-background="new    " points="284.447,784.561 284.447,689.284 
	278.262,689.284 278.262,788.95 284.447,788.95 739.483,788.95 739.483,784.561 "/>
<path display="none" fill="#231F1F" d="M730.408,760.412v-48.735c0,0-15.951,3.207-15.951-14.204h-57.078L730.408,760.412z"/>
<polygon display="none" fill="#231F1F" points="715.482,776.949 644.06,697.473 584.935,697.473 648.598,776.805 "/>
<linearGradient id="SVGID_27_" gradientUnits="userSpaceOnUse" x1="139.5786" y1="589.1709" x2="801.2429" y2="-287.5337" gradientTransform="matrix(1 0 0 -1 -244 748.082)">
	<stop  offset="0" style="stop-color:#FFEB45"/>
	<stop  offset="1" style="stop-color:#E5E5E5;stop-opacity:0"/>
</linearGradient>
<polygon opacity="0.24" fill="url(#SVGID_27_)" enable-background="new    " points="0,0.041 168.926,0.041 1181.542,1080.041 
	0,1080.041 "/>
<linearGradient id="SVGID_28_" gradientUnits="userSpaceOnUse" x1="1817.4678" y1="589.1709" x2="2479.1318" y2="-287.5335" gradientTransform="matrix(-1 0 0 -1 3841.8887 748.082)">
	<stop  offset="0" style="stop-color:#FFEB45"/>
	<stop  offset="1" style="stop-color:#E5E5E5;stop-opacity:0"/>
</linearGradient>
<polygon opacity="0.24" fill="url(#SVGID_28_)" enable-background="new    " points="1920,0.041 1751.077,0.041 738.458,1080.041 
	1920,1080.041 "/>
</svg>
