<?xml version="1.0" encoding="utf-8"?>
<!-- Generator: Adobe Illustrator 15.0.0, SVG Export Plug-In . SVG Version: 6.00 Build 0)  -->
<!DOCTYPE svg PUBLIC "-//W3C//DTD SVG 1.1//EN" "http://www.w3.org/Graphics/SVG/1.1/DTD/svg11.dtd">
<svg version="1.1" id="Calque_1" xmlns="http://www.w3.org/2000/svg" xmlns:xlink="http://www.w3.org/1999/xlink" x="0px" y="0px"
	 width="320.698px" height="907.717px" viewBox="1011.069 346.793 320.698 907.717"
	 enable-background="new 1011.069 346.793 320.698 907.717" xml:space="preserve">
<symbol  id="Diamant_goutte_xA0_2" viewBox="-1.428 -1.591 2.856 3.183">
	<path fill="none" d="M-1.428-0.112C-0.639-1.045,0-1.591,0-1.591s0.639,0.546,1.428,1.479L0,1.592L-1.428-0.112z"/>
</symbol>
<linearGradient id="SVGID_1_" gradientUnits="userSpaceOnUse" x1="1521.5557" y1="541.5488" x2="1521.5557" y2="386.4136" gradientTransform="matrix(1 0 0 1 -534 336.082)">
	<stop  offset="0" style="stop-color:#D1D1D1"/>
	<stop  offset="1" style="stop-color:#E5E5E5"/>
</linearGradient>
<path display="none" fill="url(#SVGID_1_)" d="M987.555,0C723.714,0,509.828,213.887,509.828,477.727v477.729h955.455V477.727
	C1465.283,213.887,1251.4,0,987.555,0z"/>
<polygon display="none" opacity="0.52" fill="#F4F3F2" enable-background="new    " points="1127.653,815.911 1127.653,257.154 
	579.515,565.38 579.515,815.911 "/>
<linearGradient id="SVGID_2_" gradientUnits="userSpaceOnUse" x1="1521.5566" y1="-267.9121" x2="1521.5566" y2="-255.1607" gradientTransform="matrix(1 0 0 1 -534 336.082)">
	<stop  offset="0" style="stop-color:#5E3F2F"/>
	<stop  offset="0.6442" style="stop-color:#4F3529"/>
	<stop  offset="0.9387" style="stop-color:#4F3529"/>
</linearGradient>
<path display="none" fill="url(#SVGID_2_)" d="M705.433,92.203h564.248c-13.364-9.797-27.256-18.919-41.626-27.311H747.06
	C732.688,73.284,718.799,82.406,705.433,92.203z"/>
<path display="none" fill="#3D251A" d="M742.9,67.351h489.311c-2.784-1.663-5.578-3.308-8.398-4.915H751.3
	C748.48,64.043,745.685,65.688,742.9,67.351z"/>
<path display="none" fill="#3D251A" d="M1266.309,89.745H708.803c-2.257,1.626-4.515,3.253-6.74,4.916h570.986
	C1270.821,92.998,1268.566,91.371,1266.309,89.745z"/>
<path display="none" fill="#CCCCCC" d="M987.555,6.555c63.612,0,125.318,12.456,183.403,37.024
	c56.104,23.729,106.493,57.705,149.767,100.979c43.274,43.274,77.25,93.663,100.979,149.77
	c24.567,58.084,37.024,119.788,37.024,183.398V948.9H516.383V477.727c0-63.61,12.456-125.314,37.023-183.398
	c23.73-56.106,57.707-106.496,100.979-149.77c43.273-43.273,93.664-77.249,149.771-100.979
	C862.241,19.011,923.946,6.555,987.555,6.555 M987.555,0C723.714,0,509.828,213.887,509.828,477.727v477.729h955.455V477.727
	C1465.283,213.887,1251.4,0,987.555,0L987.555,0z"/>
<linearGradient id="SVGID_3_" gradientUnits="userSpaceOnUse" x1="1521.5557" y1="-264.5146" x2="1521.5557" y2="-295.0803" gradientTransform="matrix(1 0 0 1 -534 336.082)">
	<stop  offset="0" style="stop-color:#262626"/>
	<stop  offset="1" style="stop-color:#000000"/>
</linearGradient>
<path display="none" fill="url(#SVGID_3_)" d="M1223.812,62.436C1154.135,22.711,1073.5,0,987.555,0
	C901.61,0,820.979,22.711,751.3,62.436H1223.812z"/>
<path display="none" fill="#CCCCCC" d="M987.555,6.555c63.612,0,125.318,12.456,183.403,37.024
	c56.104,23.729,106.493,57.705,149.767,100.979c43.274,43.274,77.25,93.663,100.979,149.77
	c24.567,58.084,37.024,119.788,37.024,183.398V948.9H516.383V477.727c0-63.61,12.456-125.314,37.023-183.398
	c23.73-56.106,57.707-106.496,100.979-149.77c43.273-43.273,93.664-77.249,149.771-100.979
	C862.241,19.011,923.946,6.555,987.555,6.555 M987.555,0C723.714,0,509.828,213.887,509.828,477.727v477.729h955.455V477.727
	C1465.283,213.887,1251.4,0,987.555,0L987.555,0z"/>
<polyline display="none" fill="#E5E5E5" stroke="#CCCCCC" stroke-width="4" stroke-miterlimit="10" points="987.555,835.448 
	1465.283,835.448 1740.056,1080.082 179.944,1080.082 380.729,835.448 987.555,835.448 "/>
<path display="none" fill="#F4F3F2" d="M212.693,1066.737l17.205-24.577c0,0,1656.524,13.799,1263.282-52.087h46.986h78.242
	l87.254,82.273L212.693,1066.737z"/>
<polygon display="none" fill="#CCCCCC" points="1457.009,848.684 387.016,848.684 368.991,868.346 1473.395,868.346 "/>
<use xlink:href="#Diamant_goutte_xA0_2"  width="2.856" height="3.183" id="XMLID_1_" x="-1.428" y="-1.591" transform="matrix(1.6375 0 0 -1.6375 1065.3877 901.916)" display="none" overflow="visible"/>
<rect x="1155.51" y="600.438" display="none" fill="#CCCCCC" width="247.428" height="235.012"/>
<polygon display="none" fill="#BCBCBC" points="1243.993,616.803 1227.197,639.479 1409.489,639.479 1396.79,616.803 "/>
<rect x="1313.36" y="506.219" display="none" width="19.39" height="12.153"/>
<rect x="1295.95" y="518.372" display="none" width="54.211" height="2.492"/>
<rect x="1255.668" y="433.575" display="none" fill="#191919" width="134.773" height="72.644"/>
<rect x="1264.789" y="438.491" display="none" fill="#00A7BF" width="116.534" height="60.628"/>
<rect x="1263.958" y="438.491" display="none" opacity="0.78" fill="#BFBEBB" enable-background="new    " width="0.383" height="60.628"/>
<rect x="1389.377" y="434.395" display="none" opacity="0.78" fill="#BFBEBB" enable-background="new    " width="0.383" height="71.006"/>
<rect x="1263.515" y="498.641" display="none" width="117.81" height="0.479"/>
<rect x="1263.515" y="438.252" display="none" width="117.81" height="0.479"/>
<polygon display="none" opacity="0.22" fill="#FFFFFF" enable-background="new    " points="1289.771,499.973 1286.495,505.399 
	1256.591,505.399 1256.896,434.225 1327.493,434.225 "/>
<rect x="1256.896" y="434.225" display="none" opacity="0.22" fill="#FFFFFF" enable-background="new    " width="0.256" height="71.178"/>
<polygon display="none" opacity="0.26" enable-background="new    " points="1351.797,505.399 1375.831,434.395 1388.121,434.395 
	1388.121,505.399 "/>
<rect x="1321.299" y="500.348" display="none" opacity="0.22" fill="#FFFFFF" enable-background="new    " width="2.801" height="4.166"/>
<rect x="1319.729" y="500.348" display="none" opacity="0.22" fill="#FFFFFF" enable-background="new    " width="2.801" height="4.166"/>
<rect x="1323.582" y="500.348" display="none" opacity="0.22" fill="#FFFFFF" enable-background="new    " width="2.801" height="4.166"/>
<polygon display="none" opacity="0.21" fill="#FFFFFF" enable-background="new    " points="1296.701,518.781 1316.297,518.781 
	1324.762,520.42 1296.701,520.42 "/>
<path display="none" opacity="0.21" fill="#FFFFFF" enable-background="new    " d="M1314.146,506.732h4.711
	c0,0-0.272,10.752,5.903,10.752c6.18,0-10.614,0-10.614,0V506.732L1314.146,506.732z"/>
<linearGradient id="SVGID_4_" gradientUnits="userSpaceOnUse" x1="1728.8359" y1="0.1978" x2="1728.8359" y2="436.6433" gradientTransform="matrix(1 0 0 1 -534 336.082)">
	<stop  offset="0" style="stop-color:#5E3F2F"/>
	<stop  offset="0.6442" style="stop-color:#4F3529"/>
	<stop  offset="0.9387" style="stop-color:#4F3529"/>
</linearGradient>
<polygon display="none" fill="url(#SVGID_4_)" points="1157.968,287.443 1231.703,337.113 1231.703,772.928 1157.968,830.417 "/>
<path display="none" fill="#3D251A" d="M1160.425,292.064l68.82,46.358v433.305l-68.82,53.657V292.064 M1155.51,282.826v552.623
	l78.651-61.323V335.807L1155.51,282.826L1155.51,282.826z"/>
<linearGradient id="SVGID_5_" gradientUnits="userSpaceOnUse" x1="1768.1611" y1="259.8247" x2="1936.9355" y2="259.8247" gradientTransform="matrix(1 0 0 1 -534 336.082)">
	<stop  offset="0" style="stop-color:#5E3F2F"/>
	<stop  offset="0.6442" style="stop-color:#4F3529"/>
	<stop  offset="0.9387" style="stop-color:#4F3529"/>
</linearGradient>
<rect x="1234.161" y="591.376" display="none" fill="url(#SVGID_5_)" width="168.774" height="9.062"/>
<polygon display="none" opacity="0.46" fill="#3D251A" enable-background="new    " points="1225.149,768.521 1165.341,815.911 
	1165.341,510.315 "/>
<polygon display="none" opacity="0.47" fill="#845946" enable-background="new    " points="1229.382,338.538 1160.425,292.384 
	1160.425,296.07 1229.382,342.36 "/>
<linearGradient id="SVGID_6_" gradientUnits="userSpaceOnUse" x1="1854.5957" y1="199.748" x2="1854.5957" y2="260.0752" gradientTransform="matrix(1 0 0 1 -534 336.082)">
	<stop  offset="0" style="stop-color:#5E3F2F"/>
	<stop  offset="0.6442" style="stop-color:#4F3529"/>
	<stop  offset="0.9387" style="stop-color:#4F3529"/>
</linearGradient>
<rect x="1246.45" y="522.436" display="none" fill="url(#SVGID_6_)" stroke="#3D251A" stroke-width="2" stroke-miterlimit="10" width="148.292" height="92.836"/>
<rect x="1251.366" y="577.088" display="none" opacity="0.33" fill="#3D251A" stroke="#2D1B14" stroke-miterlimit="10" enable-background="new    " width="138.051" height="32.362"/>
<rect x="1251.366" y="532.846" display="none" opacity="0.33" fill="#3D251A" stroke="#2D1B14" stroke-miterlimit="10" enable-background="new    " width="138.051" height="32.363"/>
<radialGradient id="SVGID_7_" cx="1854.1367" cy="211.9199" r="3.9892" gradientTransform="matrix(1 0 0 1 -534 336.082)" gradientUnits="userSpaceOnUse">
	<stop  offset="0" style="stop-color:#FFDB5C"/>
	<stop  offset="1" style="stop-color:#E7A700"/>
</radialGradient>
<circle display="none" fill="url(#SVGID_7_)" stroke="#C18500" stroke-width="0.5" stroke-miterlimit="10" cx="1318.55" cy="549.026" r="4.028"/>
<radialGradient id="SVGID_8_" cx="1854.1367" cy="254.2695" r="3.9891" gradientTransform="matrix(1 0 0 1 -534 336.082)" gradientUnits="userSpaceOnUse">
	<stop  offset="0" style="stop-color:#FFDB5C"/>
	<stop  offset="1" style="stop-color:#E7A700"/>
</radialGradient>
<circle display="none" fill="url(#SVGID_8_)" stroke="#C18500" stroke-width="0.5" stroke-miterlimit="10" cx="1318.55" cy="591.376" r="4.028"/>
<polygon display="none" opacity="0.33" fill="#3D251A" enable-background="new    " points="1253.824,535.304 1253.824,562.751 
	1279.223,562.751 "/>
<polygon display="none" opacity="0.33" fill="#3D251A" enable-background="new    " points="1253.824,579.546 1253.824,606.992 
	1279.223,606.992 "/>
<polygon display="none" opacity="0.62" fill="#BCBCBC" enable-background="new    " points="1234.161,774.128 1252.186,774.128 
	1283.593,835.449 1155.51,835.449 "/>
<polygon display="none" opacity="0.47" fill="#845946" enable-background="new    " points="1388.598,577.934 1252.8,577.934 
	1252.8,577.934 1252.186,577.934 1252.186,577.934 1252.186,578.548 1252.186,608.656 1252.8,608.656 1252.8,578.548 
	1388.598,578.548 "/>
<polygon display="none" opacity="0.47" fill="#845946" enable-background="new    " points="1388.598,533.665 1252.8,533.665 
	1252.8,533.665 1252.186,533.665 1252.186,533.665 1252.186,534.279 1252.186,564.39 1252.8,564.39 1252.8,534.279 
	1388.598,534.279 "/>
<linearGradient id="SVGID_9_" gradientUnits="userSpaceOnUse" x1="1817.5928" y1="-66.9111" x2="1817.5928" y2="195.5895" gradientTransform="matrix(1 0 0 1 -534 336.082)">
	<stop  offset="0" style="stop-color:#5E3F2F"/>
	<stop  offset="0.6442" style="stop-color:#4F3529"/>
	<stop  offset="0.9387" style="stop-color:#4F3529"/>
</linearGradient>
<path display="none" fill="url(#SVGID_9_)" d="M1411.391,257.154H1155.51l0,0h-17.478v578.294h17.478V274.633h256.166v560.816
	h17.478V295.231C1423.779,282.241,1417.851,269.539,1411.391,257.154z"/>
<linearGradient id="SVGID_10_" gradientUnits="userSpaceOnUse" x1="1817.5928" y1="-53.1196" x2="1817.5928" y2="-61.5576" gradientTransform="matrix(1 0 0 1 -534 336.082)">
	<stop  offset="0" style="stop-color:#4F3529"/>
	<stop  offset="1" style="stop-color:#3F2A22"/>
</linearGradient>
<polygon display="none" fill="url(#SVGID_10_)" points="1411.676,274.633 1402.938,282.826 1155.51,282.826 1155.51,274.633 "/>
<linearGradient id="SVGID_11_" gradientUnits="userSpaceOnUse" x1="1941.3066" y1="137.3647" x2="1941.3066" y2="-19.9995" gradientTransform="matrix(1 0 0 1 -534 336.082)">
	<stop  offset="0" style="stop-color:#4F3529"/>
	<stop  offset="1" style="stop-color:#3F2A22"/>
</linearGradient>
<polygon display="none" fill="url(#SVGID_11_)" points="1402.938,282.826 1411.676,274.633 1411.676,835.449 1402.938,835.449 "/>
<polygon display="none" fill="#3D7C32" stroke="#34682A" stroke-width="2" stroke-miterlimit="10" points="759.812,521.203 
	806.434,482.583 749.229,482.583 777.975,441.929 744.648,441.929 761.942,401.273 713.512,401.273 730.811,441.929 
	697.479,441.929 726.229,482.583 669.02,482.583 715.642,521.203 654.791,521.203 737.727,578.12 820.661,521.203 "/>
<polygon display="none" fill="#3D7C32" points="752.795,358.59 737.727,415.503 722.658,358.59 "/>
<path display="none" fill="#5E3F2F" stroke="#442D23" stroke-width="2" stroke-miterlimit="10" d="M737.727,625.791
	c28.131,0,50.933-22.799,50.933-50.93H686.796C686.796,602.99,709.599,625.791,737.727,625.791z"/>
<rect x="674.941" y="565.029" display="none" fill="#5E3F2F" stroke="#442D23" stroke-width="2" stroke-miterlimit="10" width="125.571" height="11.459"/>
<path display="none" fill="#4C3227" d="M737.727,625.791c8.884,0,17.232-2.279,24.502-6.271
	c-32.218-8.336-41.187-44.657-41.187-44.657h-34.246C686.796,602.99,709.599,625.791,737.727,625.791z"/>
<polygon display="none" fill="#36682C" points="674.941,522.958 715.774,556.249 693.382,522.958 "/>
<polygon display="none" fill="#36682C" points="686.796,484.412 720.539,517.697 702.034,484.412 "/>
<polygon display="none" fill="#36682C" points="704.096,443.667 735.225,476.956 718.157,443.667 "/>
<polygon display="none" fill="#36682C" points="719.661,403.05 736.669,436.337 727.34,403.05 "/>
<polygon display="none" fill="#36682C" points="724.71,358.59 734.824,391.875 729.28,358.59 "/>
<polygon display="none" fill="#47893A" points="801.236,522.958 760.405,556.249 782.796,522.958 "/>
<polygon display="none" fill="#47893A" points="789.383,484.412 755.639,517.697 774.143,484.412 "/>
<polygon display="none" fill="#47893A" points="772.083,443.667 740.952,476.956 758.024,443.667 "/>
<polygon display="none" fill="#47893A" points="756.518,403.05 739.511,436.337 748.836,403.05 "/>
<polygon display="none" fill="#47893A" points="751.467,358.59 741.354,391.875 746.899,358.59 "/>
<path display="none" fill="#4C3227" d="M798.223,578.12c0.08-1.081,0.131-2.161,0.131-3.257H721.74l-5.966,3.257H798.223z"/>
<polygon display="none" fill="#6D4838" points="773.51,581.935 781.634,581.935 766.705,601.91 "/>
<circle display="none" fill="#36682C" cx="752.216" cy="554.054" r="3.073"/>
<path display="none" fill="#36682C" d="M762.456,539.411c1.134,0,2.053,0.918,2.053,2.05c0,1.137-0.919,2.056-2.053,2.056
	c-1.132,0-2.051-0.919-2.051-2.056C760.405,540.33,761.324,539.411,762.456,539.411z"/>
<circle display="none" fill="#36682C" cx="740.602" cy="541.558" r="1.954"/>
<circle display="none" fill="#36682C" cx="750.68" cy="505.098" r="1.538"/>
<circle display="none" fill="#36682C" cx="759.761" cy="495.155" r="2.695"/>
<circle display="none" fill="#36682C" cx="745.85" cy="489.167" r="3.293"/>
<circle display="none" fill="#36682C" cx="740.25" cy="457.788" r="2.523"/>
<circle display="none" fill="#36682C" cx="750.739" cy="446.392" r="2.725"/>
<circle display="none" fill="#36682C" cx="741.79" cy="411.443" r="4.061"/>
<circle display="none" fill="#36682C" cx="740.71" cy="362.491" r="2.064"/>
<circle display="none" fill="#36682C" cx="742.383" cy="373.098" r="2.134"/>
<circle display="none" fill="#47893A" cx="749.143" cy="497.853" r="1.609"/>
<circle display="none" fill="#47893A" cx="742.774" cy="449.995" r="1.61"/>
<circle display="none" fill="#47893A" cx="739.511" cy="421.311" r="1.608"/>
<circle display="none" fill="#47893A" cx="731.375" cy="405.771" r="1.61"/>
<circle display="none" fill="#47893A" cx="758.128" cy="505.097" r="1.609"/>
<path display="none" fill="#47893A" d="M752.216,539.95c0.888,0,1.608,0.719,1.608,1.605c0,0.893-0.721,1.609-1.608,1.609
	s-1.608-0.718-1.608-1.609C750.607,540.669,751.328,539.95,752.216,539.95z"/>
<circle display="none" fill="#47893A" cx="740.6" cy="550.979" r="1.61"/>
<path display="none" fill="#47893A" d="M767.052,532.732c0.72,0,1.305,0.584,1.305,1.306c0,0.72-0.584,1.307-1.305,1.307
	c-0.723,0-1.308-0.587-1.308-1.307C765.745,533.317,766.329,532.732,767.052,532.732z"/>
<linearGradient id="SVGID_12_" gradientUnits="userSpaceOnUse" x1="1824.2676" y1="1329.9531" x2="1824.2676" y2="1324.3953" gradientTransform="matrix(0 -1 -1 0 1557.834 2332.1133)">
	<stop  offset="0" style="stop-color:#262626"/>
	<stop  offset="1" style="stop-color:#000000"/>
</linearGradient>
<path display="none" fill="url(#SVGID_12_)" stroke="#000000" stroke-width="2" stroke-miterlimit="10" d="M236.583,415.503
	c-9.351,0-16.934,0.554-16.934,9.909v161.354c0,9.351,7.58,13.423,16.934,13.423l0,0c9.354,0,16.938-4.068,16.938-13.423V425.411
	C253.52,416.06,245.937,415.503,236.583,415.503L236.583,415.503z"/>
<path display="none" fill="#B22626" stroke="#771104" stroke-miterlimit="10" d="M253.52,598.107c0,0,11.277-17.562,22.022-17.562
	c10.744,0,94.252-4.682,96.009,0c1.756,4.682,16.391,28.312,16.391,28.312L253.52,598.107z"/>
<linearGradient id="SVGID_13_" gradientUnits="userSpaceOnUse" x1="601.9917" y1="97.6348" x2="601.9917" y2="92.0767" gradientTransform="matrix(1 0 0 -1 -290 697.7871)">
	<stop  offset="0" style="stop-color:#262626"/>
	<stop  offset="1" style="stop-color:#000000"/>
</linearGradient>
<path display="none" fill="url(#SVGID_13_)" stroke="#000000" stroke-width="2" stroke-miterlimit="10" d="M404.334,608.857
	c0-9.354-0.557-16.938-9.909-16.938H233.07c-9.353,0-13.421,7.58-13.421,16.938l0,0c0,9.352,4.068,16.936,13.421,16.936h161.355
	C403.776,625.791,404.334,618.209,404.334,608.857L404.334,608.857z"/>
<path display="none" fill="#771104" d="M265.958,588.08c0,0,6.365-5.049,9.878-5.049c3.513,0,9.22,6.146,18.44,6.146
	c9.22,0-28.319,0-28.319,0L265.958,588.08L265.958,588.08z"/>
<path display="none" fill="#771104" d="M349.359,578.465c-15.972-0.037-37.394,0.753-53.247,1.368
	c6.477,2.134,20.44,5.909,35.922,4.952C343.152,584.099,347.623,581.138,349.359,578.465z"/>
<radialGradient id="SVGID_14_" cx="577.6914" cy="121.3101" r="6.554" fx="574.0164" fy="116.8188" gradientTransform="matrix(1 0 0 -1 -290 697.7871)" gradientUnits="userSpaceOnUse">
	<stop  offset="0" style="stop-color:#FFF6BF"/>
	<stop  offset="0.5644" style="stop-color:#FFAC00"/>
	<stop  offset="1" style="stop-color:#FFC900"/>
</radialGradient>
<circle display="none" fill="url(#SVGID_14_)" stroke="#D19A00" stroke-miterlimit="10" cx="287.691" cy="576.477" r="6.554"/>
<radialGradient id="SVGID_15_" cx="590.7979" cy="121.3101" r="6.554" fx="587.1228" fy="116.8188" gradientTransform="matrix(1 0 0 -1 -290 697.7871)" gradientUnits="userSpaceOnUse">
	<stop  offset="0" style="stop-color:#FFF6BF"/>
	<stop  offset="0.5644" style="stop-color:#FFAC00"/>
	<stop  offset="1" style="stop-color:#FFC900"/>
</radialGradient>
<circle display="none" fill="url(#SVGID_15_)" stroke="#D19A00" stroke-miterlimit="10" cx="300.798" cy="576.477" r="6.554"/>
<radialGradient id="SVGID_16_" cx="603.9077" cy="121.3101" r="6.5542" fx="600.2325" fy="116.8186" gradientTransform="matrix(1 0 0 -1 -290 697.7871)" gradientUnits="userSpaceOnUse">
	<stop  offset="0" style="stop-color:#FFF6BF"/>
	<stop  offset="0.5644" style="stop-color:#FFAC00"/>
	<stop  offset="1" style="stop-color:#FFC900"/>
</radialGradient>
<circle display="none" fill="url(#SVGID_16_)" stroke="#D19A00" stroke-miterlimit="10" cx="313.908" cy="576.477" r="6.554"/>
<radialGradient id="SVGID_17_" cx="617.5542" cy="121.3101" r="6.5542" fx="613.8792" fy="116.8187" gradientTransform="matrix(1 0 0 -1 -290 697.7871)" gradientUnits="userSpaceOnUse">
	<stop  offset="0" style="stop-color:#FFF6BF"/>
	<stop  offset="0.5644" style="stop-color:#FFAC00"/>
	<stop  offset="1" style="stop-color:#FFC900"/>
</radialGradient>
<circle display="none" fill="url(#SVGID_17_)" stroke="#D19A00" stroke-miterlimit="10" cx="327.554" cy="576.477" r="6.554"/>
<radialGradient id="SVGID_18_" cx="630.6641" cy="121.3101" r="6.554" fx="626.9892" fy="116.8188" gradientTransform="matrix(1 0 0 -1 -290 697.7871)" gradientUnits="userSpaceOnUse">
	<stop  offset="0" style="stop-color:#FFF6BF"/>
	<stop  offset="0.5644" style="stop-color:#FFAC00"/>
	<stop  offset="1" style="stop-color:#FFC900"/>
</radialGradient>
<circle display="none" fill="url(#SVGID_18_)" stroke="#D19A00" stroke-miterlimit="10" cx="340.664" cy="576.477" r="6.554"/>
<radialGradient id="SVGID_19_" cx="643.772" cy="121.3096" r="6.5544" fx="640.0966" fy="116.818" gradientTransform="matrix(1 0 0 -1 -290 697.7871)" gradientUnits="userSpaceOnUse">
	<stop  offset="0" style="stop-color:#FFF6BF"/>
	<stop  offset="0.5644" style="stop-color:#FFAC00"/>
	<stop  offset="1" style="stop-color:#FFC900"/>
</radialGradient>
<path display="none" fill="url(#SVGID_19_)" stroke="#D19A00" stroke-miterlimit="10" d="M353.773,569.923
	c3.619,0,6.553,2.936,6.553,6.554c0,3.619-2.934,6.556-6.553,6.556c-3.622,0-6.556-2.937-6.556-6.556
	C347.218,572.858,350.151,569.923,353.773,569.923z"/>
<linearGradient id="SVGID_20_" gradientUnits="userSpaceOnUse" x1="544.6143" y1="275.7456" x2="544.6143" y2="273.6959" gradientTransform="matrix(1 0 0 -1 -290 697.7871)">
	<stop  offset="0" style="stop-color:#FFF6BF"/>
	<stop  offset="0.5644" style="stop-color:#FFAC00"/>
	<stop  offset="1" style="stop-color:#FFC900"/>
</linearGradient>
<rect x="243.052" y="421.896" display="none" fill="url(#SVGID_20_)" width="23.124" height="4.39"/>
<linearGradient id="SVGID_21_" gradientUnits="userSpaceOnUse" x1="682.1948" y1="111.0928" x2="682.1948" y2="103.396" gradientTransform="matrix(1 0 0 -1 -290 697.7871)">
	<stop  offset="0" style="stop-color:#FFF6BF"/>
	<stop  offset="0.5644" style="stop-color:#FFAC00"/>
	<stop  offset="1" style="stop-color:#FFC900"/>
</linearGradient>
<rect x="387.941" y="584.938" display="none" fill="url(#SVGID_21_)" stroke="#D19A00" stroke-miterlimit="10" width="8.506" height="11.562"/>
<rect x="261.627" y="424.97" display="none" fill="#FFC900" width="4.549" height="7.685"/>
<linearGradient id="SVGID_22_" gradientUnits="userSpaceOnUse" x1="903.2256" y1="240.9834" x2="984.2354" y2="240.9834" gradientTransform="matrix(1 0 0 1 -534 336.082)">
	<stop  offset="0" style="stop-color:#FFD8BF"/>
	<stop  offset="1" style="stop-color:#EFA57F"/>
</linearGradient>
<path display="none" fill="url(#SVGID_22_)" d="M415.733,553.453c-6.771,0-13.062,1.354-18.391,3.658
	c-0.796-0.547-1.759-0.873-2.799-0.873h-20.378c-2.73,0-4.94,2.208-4.94,4.938c0,2.728,2.209,4.938,4.94,4.938h7.169
	c-3.958,0-7.169,3.209-7.169,7.168c0,3.41,2.384,6.25,5.571,6.978c-0.24,0.546-0.377,1.143-0.377,1.778
	c0,2.435,1.973,4.408,4.407,4.41c-0.59,0.849-0.937,1.878-0.937,2.989c0,2.907,2.358,5.266,5.267,5.266h4.763
	c0.985,0.6,2.012,1.165,3.092,1.687c-0.008,0.104-0.033,0.203-0.033,0.312c0,2.14,1.734,3.872,3.876,3.872h13.012
	c0.971,0.057,1.94,0.104,2.931,0.104c19.05,0,34.498-10.573,34.498-23.609C450.229,564.025,434.784,553.453,415.733,553.453z"/>
<linearGradient id="SVGID_23_" gradientUnits="userSpaceOnUse" x1="903.2256" y1="240.9834" x2="984.2354" y2="240.9834" gradientTransform="matrix(1 0 0 1 -534 336.082)">
	<stop  offset="0" style="stop-color:#FFD8BF"/>
	<stop  offset="1" style="stop-color:#EFA57F"/>
</linearGradient>
<path display="none" fill="url(#SVGID_23_)" stroke="#000000" stroke-width="2" stroke-miterlimit="10" d="M415.733,553.453
	c-6.771,0-13.062,1.354-18.391,3.658c-0.796-0.547-1.759-0.873-2.799-0.873h-20.378c-2.73,0-4.94,2.208-4.94,4.938
	c0,2.728,2.209,4.938,4.94,4.938h7.169c-3.958,0-7.169,3.209-7.169,7.168c0,3.41,2.384,6.25,5.571,6.978
	c-0.24,0.546-0.377,1.143-0.377,1.778c0,2.435,1.973,4.408,4.407,4.41c-0.59,0.849-0.937,1.878-0.937,2.989
	c0,2.907,2.358,5.266,5.267,5.266h4.763c0.985,0.6,2.012,1.165,3.092,1.687c-0.008,0.104-0.033,0.203-0.033,0.312
	c0,2.14,1.734,3.872,3.876,3.872h13.012c0.971,0.057,1.94,0.104,2.931,0.104c19.05,0,34.498-10.573,34.498-23.609
	C450.229,564.025,434.784,553.453,415.733,553.453z"/>
<path display="none" d="M622.585,726.535c0,16.458,22.938,29.798,6.481,29.798H521.135c-16.457,0-41.428-14.262-41.428-30.719
	l20.47-202.992c0-16.456,32.105-54.314,48.563-54.314h53.031c16.457,0,34.682,23.811,34.682,40.264L622.585,726.535z"/>
<path display="none" fill="#E6E6E6" d="M607.635,482.522c0,0,22.251,1.755,20.192,22.245c-2.062,20.487-61.188,79.03-61.188,79.03
	l-136.4,12.879v-39.809l112.405-17.271C542.646,539.598,574.28,480.181,607.635,482.522z"/>
<path display="none" fill="#F2F2F2" d="M557.212,545.452c0.551-0.477-0.856-0.584-2.868-0.533
	C555.697,545.521,556.795,545.812,557.212,545.452z"/>
<path display="none" fill="#F2F2F2" d="M607.605,484.863l1.723-2.105c-1.048-0.182-1.695-0.235-1.695-0.235
	c-33.354-2.342-64.988,57.075-64.988,57.075l-17.295,2.658c6.351-0.622,10.474-0.354,10.309,1.44
	c-0.688,7.463,7.712,8.342,4.208,6.146c-3.5-2.193,2.778-7.464,2.778-7.464l2.705,3.234c0,0,5.443-0.601,8.991-0.694
	c-3.568-1.58-8.991-5.354-8.991-5.354C575.438,484.942,607.605,484.863,607.605,484.863z"/>
<path display="none" fill="#F2F2F2" d="M508.361,544.865l-78.121,12.003v3.951h3.368h13.171l16.247-5.707
	C463.022,555.112,487.757,548.744,508.361,544.865z"/>
<path display="none" fill="#D8D8D8" d="M593.205,549.403l14.927-17.123l12.513-21.075l1.758-17.342l-2.687-7.159
	c-3.859-2.516-8.096-3.547-10.385-3.946h-0.002c0,0,8.022,24.059,3.413,24.496c-4.61,0.439-6.586,16.246-9.878,12.952
	c-3.292-3.292-30.735,49.176-33.588,34.247c0,0-9.221,1.537-3.074,8.782c6.147,7.242-4.829,8.478-6.365,6.652
	c-1.538-1.823-36.223,7.615-36.223,7.615l-34.246,3.045l-31.395-3.045l-7.122-3.513l-11.393,11.416h-9.22v7.082l24.662-3.131
	l67.177-4.976l38.417-2.616l12.294-11.658L593.205,549.403z"/>
<path display="none" fill="#CCCCCC" d="M615.822,484.652c2.2,6.54,5.644,19.7,1.167,28.018
	c-6.148,11.415-54.737,62.639-54.737,62.639l-35.417,5.269l-49.467,4.392l-47.126,2.87v8.838l136.401-12.879
	c0,0,59.128-58.542,61.188-79.03C629.033,492.792,621.934,487.221,615.822,484.652z"/>
<path display="none" fill="#CCCCCC" d="M453.024,560.794c0-1.199-0.974-2.171-2.174-2.171l0,0c-1.198,0-2.172,0.974-2.172,2.171
	v26.391c0,1.201,0.974,2.174,2.172,2.174l0,0c1.2,0,2.174-0.977,2.174-2.174V560.794z"/>
<circle display="none" fill="#333333" cx="443.119" cy="580.725" r="3.219"/>
<path display="none" fill="#232120" d="M443.119,584.384c-2.018,0-3.658-1.644-3.658-3.659c0-2.019,1.642-3.659,3.658-3.659
	c2.018,0,3.658,1.642,3.658,3.659C446.777,582.74,445.137,584.384,443.119,584.384z M443.119,577.942c-1.534,0-2.78,1.25-2.78,2.781
	c0,1.532,1.247,2.781,2.78,2.781s2.78-1.249,2.78-2.781C445.899,579.192,444.653,577.942,443.119,577.942z"/>
<circle display="none" fill="#1A1A1A" cx="442.159" cy="579.709" r="0.622"/>
<path display="none" fill="#232120" d="M442.159,580.549c-0.463,0-0.842-0.379-0.842-0.842c0-0.466,0.378-0.84,0.842-0.84
	c0.463,0,0.84,0.377,0.84,0.84C443,580.175,442.622,580.549,442.159,580.549z M442.159,579.307c-0.224,0-0.403,0.181-0.403,0.4
	c0,0.222,0.18,0.402,0.403,0.402c0.222,0,0.4-0.182,0.4-0.402S442.381,579.307,442.159,579.307z"/>
<circle display="none" fill="#1A1A1A" cx="444.135" cy="579.709" r="0.622"/>
<path display="none" fill="#232120" d="M444.135,580.549c-0.463,0-0.842-0.379-0.842-0.842c0-0.466,0.378-0.84,0.842-0.84
	c0.462,0,0.84,0.377,0.84,0.84C444.975,580.175,444.597,580.549,444.135,580.549z M444.135,579.307c-0.224,0-0.402,0.181-0.402,0.4
	c0,0.222,0.179,0.402,0.402,0.402c0.222,0,0.402-0.182,0.402-0.402S444.356,579.307,444.135,579.307z"/>
<circle display="none" fill="#1A1A1A" cx="442.159" cy="581.767" r="0.623"/>
<path display="none" fill="#232120" d="M442.159,582.605c-0.463,0-0.842-0.378-0.842-0.841c0-0.465,0.378-0.84,0.842-0.84
	c0.463,0,0.84,0.377,0.84,0.84S442.622,582.605,442.159,582.605z M442.159,581.365c-0.224,0-0.403,0.18-0.403,0.399
	c0,0.224,0.18,0.401,0.403,0.401c0.222,0,0.4-0.179,0.4-0.401C442.56,581.545,442.381,581.365,442.159,581.365z"/>
<circle display="none" fill="#1A1A1A" cx="444.135" cy="581.767" r="0.623"/>
<path display="none" fill="#232120" d="M444.135,582.605c-0.463,0-0.842-0.378-0.842-0.841c0-0.465,0.378-0.84,0.842-0.84
	c0.462,0,0.84,0.377,0.84,0.84S444.597,582.605,444.135,582.605z M444.135,581.365c-0.224,0-0.402,0.18-0.402,0.399
	c0,0.224,0.179,0.401,0.402,0.401c0.222,0,0.402-0.179,0.402-0.401C444.537,581.545,444.356,581.365,444.135,581.365z"/>
<circle display="none" fill="#333333" cx="443.119" cy="571.745" r="3.219"/>
<path display="none" fill="#232120" d="M443.119,575.405c-2.018,0-3.658-1.645-3.658-3.66s1.642-3.66,3.658-3.66
	c2.018,0,3.658,1.645,3.658,3.66S445.137,575.405,443.119,575.405z M443.119,568.962c-1.534,0-2.78,1.251-2.78,2.783
	c0,1.534,1.247,2.781,2.78,2.781s2.78-1.247,2.78-2.781C445.899,570.213,444.653,568.962,443.119,568.962z"/>
<circle display="none" fill="#1A1A1A" cx="442.159" cy="570.73" r="0.622"/>
<path display="none" fill="#232120" d="M442.159,571.57c-0.463,0-0.842-0.38-0.842-0.844c0-0.463,0.378-0.841,0.842-0.841
	c0.463,0,0.84,0.378,0.84,0.841C442.999,571.19,442.622,571.57,442.159,571.57z M442.159,570.327c-0.224,0-0.403,0.182-0.403,0.404
	c0,0.224,0.18,0.4,0.403,0.4c0.222,0,0.4-0.178,0.4-0.4S442.381,570.327,442.159,570.327z"/>
<circle display="none" fill="#1A1A1A" cx="444.135" cy="570.73" r="0.622"/>
<path display="none" fill="#232120" d="M444.135,571.57c-0.463,0-0.842-0.38-0.842-0.844c0-0.463,0.378-0.841,0.842-0.841
	c0.462,0,0.84,0.378,0.84,0.841C444.975,571.19,444.597,571.57,444.135,571.57z M444.135,570.327c-0.224,0-0.402,0.182-0.402,0.404
	c0,0.224,0.179,0.4,0.402,0.4c0.222,0,0.402-0.178,0.402-0.4S444.356,570.327,444.135,570.327z"/>
<circle display="none" fill="#1A1A1A" cx="442.159" cy="572.788" r="0.622"/>
<path display="none" fill="#232120" d="M442.159,573.628c-0.463,0-0.842-0.378-0.842-0.842s0.378-0.84,0.842-0.84
	c0.463,0,0.84,0.376,0.84,0.84S442.622,573.628,442.159,573.628z M442.159,572.386c-0.224,0-0.403,0.181-0.403,0.402
	c0,0.224,0.18,0.403,0.403,0.403c0.222,0,0.4-0.181,0.4-0.403S442.381,572.386,442.159,572.386z"/>
<circle display="none" fill="#1A1A1A" cx="444.135" cy="572.788" r="0.622"/>
<path display="none" fill="#232120" d="M444.135,573.628c-0.463,0-0.842-0.378-0.842-0.842s0.378-0.84,0.842-0.84
	c0.462,0,0.84,0.376,0.84,0.84S444.597,573.628,444.135,573.628z M444.135,572.386c-0.224,0-0.402,0.181-0.402,0.402
	c0,0.224,0.179,0.403,0.402,0.403c0.222,0,0.402-0.181,0.402-0.403S444.356,572.386,444.135,572.386z"/>
<path display="none" fill="#1E1E1E" d="M630.743,512.083l-8.341,84.593l-2.636,48.442l-4.829,77.714l7.707,2.781l13.812-217.043
	c0-15.536-16.247-37.615-31.913-40.034c-1.698,1.439-3.016,3.086-4.206,3.329C605.695,473.022,633.432,482.135,630.743,512.083z"/>
<path display="none" fill="#1E1E1E" d="M600.341,471.867c-0.77-0.166-1.078-0.169-0.77-0.042
	C599.822,471.924,600.078,471.921,600.341,471.867z"/>
<path display="none" fill="#1E1E1E" d="M545.354,471.734c0,0-16.188-11.899-20.5-9.703c-4.313,2.193-25.453,57.078-25.453,57.078
	S556.315,483.051,545.354,471.734z"/>
<polygon display="none" points="428.485,598.6 428.485,555.363 542.201,535.89 542.733,539.359 431.997,558.372 431.997,594.752 
	569.555,582.194 569.874,585.694 "/>
<linearGradient id="SVGID_24_" gradientUnits="userSpaceOnUse" x1="1080.8975" y1="31.4175" x2="1157.7321" y2="104.7397" gradientTransform="matrix(1 0 0 1 -534 336.082)">
	<stop  offset="0" style="stop-color:#FFD8BF"/>
	<stop  offset="1" style="stop-color:#EFA57F"/>
</linearGradient>
<ellipse display="none" fill="url(#SVGID_24_)" cx="575.102" cy="394.415" rx="67.906" ry="79.03"/>
<path display="none" fill="#F9EBE4" d="M577.952,471.69c-36.479,0-66.154-34.666-66.154-77.275
	c0-42.608,29.676-77.274,66.154-77.274c13.411,0,25.895,4.699,36.329,12.741c-11.073-9.12-24.581-14.499-39.181-14.499
	c-13.381,0-25.848,4.522-36.362,12.299c-18.369,14.56-30.454,39.039-30.454,66.731c0,27.686,12.078,52.156,30.438,66.719
	c10.517,7.784,22.99,12.312,36.377,12.312c14.594,0,28.098-5.374,39.166-14.488C603.833,466.996,591.354,471.69,577.952,471.69z"/>
<ellipse display="none" fill="none" cx="575.102" cy="394.415" rx="67.906" ry="79.03"/>
<path display="none" d="M574.49,475.202c-38.413,0-69.666-36.242-69.666-80.787c0-44.547,31.251-80.787,69.666-80.787
	c38.414,0,69.665,36.242,69.665,80.787S612.904,475.202,574.49,475.202z M574.49,317.141c-36.479,0-66.153,34.667-66.153,77.274
	c0,42.606,29.675,77.275,66.153,77.275c36.477,0,66.15-34.666,66.15-77.275C640.642,351.806,610.964,317.141,574.49,317.141z"/>
<path display="none" opacity="0.35" fill="#C98061" enable-background="new    " d="M642.59,385.712
	c-9.5-12.79-30.606-13.246-30.606-13.246s0.102,26.163,5.266,41.686c-2.816,17.768-12.839,38.704-39.298,57.542
	c0,0,25.962,3.688,50.169-27.918c9.308-13.523,14.889-30.68,14.889-49.357C643.008,391.472,642.861,388.571,642.59,385.712z"/>
<path display="none" d="M574.49,475.202c-38.413,0-69.666-36.242-69.666-80.787c0-44.547,31.251-80.787,69.666-80.787
	c38.414,0,69.665,36.242,69.665,80.787S612.904,475.202,574.49,475.202z M574.49,317.141c-36.479,0-66.153,34.667-66.153,77.274
	c0,42.606,29.675,77.275,66.153,77.275c36.477,0,66.15-34.666,66.15-77.275C640.642,351.806,610.964,317.141,574.49,317.141z"/>
<path display="none" fill="#B7B1AC" d="M632.328,335.438c0,0-19.758,8.781-28.539,20.636c-8.783,11.855,12.293,40.394,18.878,41.271
	c6.587,0.878,21.792,0.145,19.182,11.601c-2.61,11.454,4.089,17.377,11.992,16.062C661.744,423.688,674.477,320.949,632.328,335.438
	z"/>
<path display="none" fill="#B7B1AC" d="M601.679,357.83c0,0-43.557,14.489-66.389-12.293c-16.431-9.592-22.391,8.103-22.391,8.103
	s-18.001-9.859-7.903-32.69c10.098-22.832,126.888-57.243,133.473,13.089C636.278,340.707,601.679,357.83,601.679,357.83z"/>
<path display="none" d="M663.294,369.439c-2.007-24.231-10.043-37.072-23.24-37.141c-3.23-27.062-23.398-41.935-56.983-41.935
	c-35.168,0-73.854,16.706-79.676,29.875c-10.63,24.029,8.474,34.835,8.666,34.943l1.831,0.999l0.675-1.976
	c0.025-0.078,3.986-5.815,9.02-8.302c1.047-1.541,1.278-1.77,2.416-3.216c-7.362,0.568-12.273,5.018-13.889,8.332
	c-3.969-2.961-13.143-12.096-5.506-29.359c5.366-12.132,43.408-27.784,76.465-27.784c18.559,0,50.135,5.197,53.616,39.932
	l-0.781,2.273l2.674-0.215c8.63-0.692,14.711,5.09,18.308,17.186c7.644,25.699,0.54,67.252-3.471,70.241
	c-3.393,0.529-6.477-0.528-8.333-2.856c-2.032-2.55-2.574-6.489-1.522-11.101c0.654-2.878-1.285-4.654-2.513-6.656
	c-0.442,5.416,0.291,9.988-1.043,15.029c0.456,1.861,1.224,3.53,2.333,4.921c2.219,2.781,5.543,4.315,9.357,4.315
	c0.799,0,1.62-0.069,2.436-0.206C660.751,425.633,665.177,392.167,663.294,369.439z"/>
<path display="none" fill="#DDDDDD" d="M652.084,421.274c0,0,21.953-77.057-12.293-85.178c0,0,8.243,5.708,9.611,12.513
	c1.365,6.806,0.925-3.512,0.925-3.512s10.439,29.856-0.925,75.299C648.854,422.605,652.084,421.274,652.084,421.274z"/>
<path display="none" fill="#DDDDDD" d="M634.817,332.657c0,0-3.512-37.466-53.86-37.174c-50.345,0.291-73.762,28.1-73.762,28.1
	l9.367-4.391l-3.217,3.806l7.024-4.684c0,0,86.64-50.053,111.475,14.343C632.328,335.438,634.817,332.657,634.817,332.657z"/>
<path display="none" opacity="0.75" fill="#FFD8BF" enable-background="new    " d="M614.076,401.593l2.114-3.917l6.395-1.316
	l5.243,1.467l4.719,4.24l2.635,9.659l-1.538,8.673l-4.722,9.658l-9.241,2.729c0,0,12.941-9.936,4.946-21.609
	c-6.12-1.433-5.908,0.449-5.908,0.449l0.799-3.148l3.962-2.584l3.794-0.554C627.278,405.337,627.99,396.286,614.076,401.593z"/>
<polygon display="none" opacity="0.35" fill="#C98061" enable-background="new    " points="558.42,396.82 615.168,396.82 
	612.972,399.785 557.212,402.858 "/>
<rect x="558.715" y="393.482" display="none" fill="#3A1E13" stroke="#110A08" stroke-width="0.5" stroke-miterlimit="10" width="70.502" height="4.764"/>
<path display="none" d="M610.497,400.579c-0.008,0.028-0.011,0.052-0.019,0.079L610.497,400.579z"/>
<path display="none" d="M623.287,394.509c-4.419-0.552-8.951,1.414-12.432,5.396c-0.166,0.191-0.272,0.418-0.345,0.651l3.565,1.037
	c2.624-2.708,5.711-3.983,8.773-3.599c6.634,0.826,11.081,9.123,9.912,18.491c-1.062,8.519-6.549,15.144-12.554,15.521l-2.229,3.294
	c0.179,0.089,0.367,0.156,0.567,0.182c0.022,0.004,0.042,0.004,0.063,0.007c8.495,0.75,16.243-7.406,17.636-18.568
	C637.658,405.628,631.842,395.575,623.287,394.509z"/>
<path display="none" fill="none" stroke="#000000" stroke-miterlimit="10" d="M627.825,406.566c0.112-2.626-5.734-0.34-6.697,0.384
	c-1.491,1.117-4.086,4.103-3.754,5.978c0.425-1.454,2.728-1.776,3.983-1.865c1.512-0.109,2.301-0.175,3.282,1.001
	c2.001,2.388,2.379,6.994,1.938,10.052c-0.357,2.471-2.46,7.069-5.577,5.539c-1.38-0.676-1.651-2.377-1.864-3.747
	c-0.342-2.188-0.548-3.849,1.225-5.485"/>
<rect x="526.035" y="371.442" transform="matrix(0.9811 0.1937 -0.1937 0.9811 82.7286 -96.7455)" display="none" fill="#B7B1AC" width="20.201" height="6.543"/>
<polygon display="none" opacity="0.35" fill="#C98061" enable-background="new    " points="522.144,385.844 556.278,390.125 
	554.412,408.785 557.323,408.785 558.09,386.996 521.648,383.374 "/>
<path display="none" d="M546.792,381.965l-23.258-4.596l1.947-9.863l23.26,4.595L546.792,381.965z M525.596,375.987l19.814,3.914
	l1.268-6.417l-19.812-3.913L525.596,375.987z"/>
<path display="none" fill="#DDDDDD" d="M528.287,371.293c0.281,0.24-0.093,1.077-0.108,1.456c-0.013,0.393-0.147,1.234,0,1.616
	c0.145,0.363,0.182,0.354,0.399-0.047c0.167-0.302,0.175-0.695,0.34-1.019c0.178-0.348,0.502-0.671,0.643-1.027
	c0.12-0.308-0.041-0.866,0.342-0.832c0.913,0.08,0.531,2.134,0.527,2.624c-0.004,0.433-0.137,1.225,0,1.671
	c0.213,0.687,1.024,0.436,1.327-0.172c0.202-0.404-0.176-3.687,1.069-2.905c0.638,0.4,0.199,1.311,0.288,1.841
	c0.072,0.406,0.093,0.466,0.507,0.537c0.667,0.115,0.846-0.344,1.146-0.852c0.322-0.551,0.905-2.136,1.144-0.585
	c0.103,0.659,0.188,1.781,1.097,1.672c1.096-0.13,2.453-2.792,3.516-1.07c0.39,0.631,0.75,1.26,1.216,1.865
	c0.385,0.502,0.717,1.158,1.137,0.406c0.438-0.777-0.106-1.491,0.757-2.059c0.737-0.485,1.173-0.201,1.448,0.571
	c0.167,0.46,0.25,1.2,0.271,1.683c0.027,0.61-0.329,1.175-0.041,1.762c0.128,0.005,0.26,0,0.391,0.002l0.979-4.944l-19.812-3.916
	l-0.638,3.219C526.668,372.283,527.712,370.796,528.287,371.293z"/>
<path display="none" fill="#FFFFFF" d="M549.528,400.113c0,4.245-10.686,3.434-14.929,3.434c-4.242,0-7.684-3.439-7.684-7.683
	c0-4.243,3.441-7.684,7.684-7.684C538.843,388.18,549.528,395.87,549.528,400.113z"/>
<circle display="none" cx="530.812" cy="395.394" r="3.293"/>
<circle display="none" fill="#FFFFFF" cx="533.064" cy="393.418" r="1.784"/>
<path display="none" fill="#B7B1AC" d="M515.846,419.372c0,0-6.334,3.508-5.907,9.675c0.429,6.17,8.855,4.625,8.855,4.625
	l4.999-0.701l2.714,2.525h4.257h3.482l8.398-0.731l-2.569-2.636l-0.929-6.587c0,0-2.323-2.804-5.625-4.767
	c-3.302-1.96-8.479-4.625-10.317-3.225C521.366,418.95,515.846,419.372,515.846,419.372z"/>
<path display="none" fill="#DDDDDD" d="M535.629,430.13c0.249,1.314,0.402,2.399,2.045,2.199c-0.19-0.433-0.581-0.792-0.73-1.254
	c-0.273-0.852-0.201-2.023-0.338-2.917c-0.128-0.851-0.477-2.271,0.047-3.042c0.521,0.856,1.034,2.547,2.265,2.615
	c0.398-1.316,0.143-1.87-0.659-2.861c-0.317-0.394-0.583-0.783-0.869-1.149c-0.48-0.451-1.046-0.945-1.688-1.448
	c-1.979-1.145-3.997-2.318-6.052-3.354c-1.016-0.513-2.128-1.244-3.226-1.429c-0.806-0.137-2.065-0.229-2.927-0.064
	c-0.09,0.045-0.21,0.061-0.29,0.12c-0.05,0.038-0.113,0.072-0.168,0.109c-0.041,0.076-0.087,0.157-0.158,0.188
	c-0.105,0.046-0.222,0.067-0.338,0.094c-0.674,0.326-1.542,0.59-2.438,0.793c-0.735,0.232-1.484,0.411-2.36,0.44
	c-0.066,0.002-0.117,0.004-0.182,0.006c-0.624,0.083-1.14,0.139-1.435,0.165c-0.11,0.034-0.219,0.062-0.338,0.11
	c-0.149,0.058-0.257,0.119-0.375,0.181c-0.062,0.04-0.117,0.077-0.186,0.123h0.055c-0.334,0.148-0.754,0.663-1.066,0.937
	c-0.305,0.267-0.617,0.458-0.931,0.639c-0.432,0.412-0.868,0.895-1.285,1.432c-0.011,0.154-0.028,0.33-0.096,0.559
	c-0.209,0.688-0.899,1.078-1.087,1.861c-0.132,0.541-0.237,1.014-0.211,1.594c1.095-0.803,1.765-2.245,2.693-3.205
	c0.81-0.834,1.905-1.192,2.994-1.271c-0.822,0.659-1.456,1.136-1.946,2.104c-0.268,0.524-0.274,1.146-0.593,1.624
	c0.439-1.05,2.191-2.591,3.35-2.893c0.203,1.107-0.818,2.236-0.875,3.39c0.2-0.396,0.475-0.703,0.715-1.053
	c0.382-0.561,0.667-1.281,1.091-1.806c0.792-0.983,2.124-1.21,3.1-1.875c-0.112,1.351-1.011,2.896-1.467,4.174
	c-0.281,0.784-0.419,1.478-0.501,2.306c-0.119,1.214-0.393,2.92,0.231,4.015c0.321-0.984,0.833-1.789,0.936-2.848
	c0.082-0.857,0.208-1.723,0.488-2.544c0.619-1.813,1.935-3.039,3.094-4.498c0.09,1.042-0.472,2.141-0.514,3.206
	c-0.029,0.717-0.046,1.438-0.072,2.153c-0.033,0.831-0.06,1.799,0.146,2.579c0.049-1.58,0.963-3.235,1.24-4.802
	c0.145-0.829,0.443-1.577,0.613-2.391c0.082-0.414-0.061-0.898,0.206-1.242c-0.031,1.521,0.017,3.036,0.068,4.555
	c0.061,1.609-0.128,3.05,0.511,4.549c0.746,1.751,1.862,2.801,3.684,3.298c-0.611-1.129-0.885-2.002-0.918-3.272
	c-0.043-1.691-0.443-3.241-0.635-4.892c-0.11-0.929-0.319-2.429,0.064-3.293c0.223-0.493,0.724-0.771,0.952-1.253
	c0.301,0.376,0.369,0.915,0.527,1.384c0.285,0.839,0.679,1.741,1.166,2.49c0.65,1.004,1.625,1.734,2.353,2.632
	c-0.456-0.93-0.568-1.347-0.673-2.438c-0.088-0.912-0.2-1.813-0.235-2.729c0.442,1.176,1.139,2.213,1.531,3.425
	C534.359,427.696,535.37,428.767,535.629,430.13z"/>
<path display="none" fill="#020100" d="M534.887,437.177h-8.318l-2.728-2.584l-4.702,0.672c-0.007,0.001-1.02,0.189-2.379,0.189
	c-4.637,0-7.44-2.125-7.695-5.829c-0.47-6.913,6.215-10.762,6.498-10.923l0.364-0.11c1.501-0.117,5.696-0.655,7.067-1.723
	c1.803-1.4,5.621-0.292,11.566,3.31c3.478,2.104,5.891,5.049,5.99,5.173l0.154,0.189l0.946,6.838l3.701,3.868L534.887,437.177z
	 M527.267,435.421h7.542l6.748-0.599l-1.565-1.636l-0.958-6.905c-0.566-0.655-2.649-2.944-5.381-4.6
	c-3.887-2.351-6.964-3.646-8.669-3.646c-0.413,0-0.72,0.076-0.913,0.225c-1.883,1.463-6.626,1.964-7.801,2.067
	c-0.936,0.589-5.813,3.915-5.454,9.183c0.188,2.78,2.188,4.19,5.942,4.19c1.188,0,2.087-0.164,2.094-0.165l5.579-0.799
	L527.267,435.421z"/>
<path display="none" fill="#FFD8BF" d="M514.498,416.286c-17.984,6.035-19.924-13.431-19.924-13.431l20.732-33.285"/>
<path display="none" fill="#F9EBE4" d="M515.727,368.174l-0.423,9.769l-17.038,25.669c0,0,7.245,12.42,16.246,11.762l0.284,2.076
	h-6.102l-8.892-3.502l-5.23-11.964L515.727,368.174z"/>
<path display="none" d="M508.285,419.2c-10.419-0.593-14.899-10.832-15.457-16.159l-0.064-0.6l13.818-22.541l3.027-1.18
	l-13.208,24.526c0.403,2.48,5.847,13.588,14.743,14.095L508.285,419.2z"/>
<path display="none" fill="none" stroke="#000000" stroke-width="2" stroke-linecap="round" stroke-linejoin="round" stroke-miterlimit="10" d="
	M542.646,442.153c0,5.098-6.25,9.221-13.974,9.221"/>
<line display="none" fill="none" stroke="#F9EBE4" stroke-width="2" stroke-miterlimit="10" x1="534.849" y1="454.667" x2="545.354" y2="450.276"/>
<rect x="499.627" y="385.829" transform="matrix(0.9343 0.3564 -0.3564 0.9343 171.8279 -156.119)" display="none" fill="#3A1E13" stroke="#110A08" stroke-width="0.5" stroke-miterlimit="10" width="19.858" height="4.762"/>
<path display="none" fill="#3A1E13" stroke="#110A08" stroke-width="0.5" stroke-miterlimit="10" d="M558.529,411.988l-42.536-4.491
	l2.83-26.772l42.535,4.492L558.529,411.988z M519.855,404.372l35.551,3.756l2.09-19.785l-35.55-3.755L519.855,404.372z"/>
<path display="none" fill="#9B9692" d="M623.48,345.949c0,0-15.77,4.001-15.846,8.831c-0.078,4.829-1.602,32.71,34.723,42.042
	C678.686,406.15,594.916,389.366,623.48,345.949z"/>
<path display="none" fill="#9B9692" d="M538.674,342.926c0,0,18.396,24.294,68.961,11.855
	C607.635,354.781,559.946,355.22,538.674,342.926z"/>
<linearGradient id="SVGID_25_" gradientUnits="userSpaceOnUse" x1="798.9839" y1="-17.4004" x2="798.9839" y2="-217.6433" gradientTransform="matrix(1 0 0 -1 -290 697.7871)">
	<stop  offset="0" style="stop-color:#5E3F2F"/>
	<stop  offset="0.6442" style="stop-color:#4F3529"/>
	<stop  offset="0.9387" style="stop-color:#4F3529"/>
</linearGradient>
<rect x="219.649" y="660.423" display="none" fill="url(#SVGID_25_)" stroke="#3D251A" stroke-width="3" stroke-miterlimit="10" width="578.669" height="284.463"/>
<rect x="219.649" y="625.791" display="none" fill="#3D251A" stroke="#3D251A" stroke-width="3" stroke-miterlimit="10" width="593.658" height="34.634"/>
<polygon display="none" fill="#684536" points="228.417,668.648 792.169,668.648 792.169,713.432 "/>
<polygon display="none" opacity="0.33" fill="#3D251A" enable-background="new    " points="228.417,823.198 228.417,933.842 
	792.169,933.842 "/>
<rect x="219.649" y="625.791" display="none" opacity="0.43" fill="#684536" enable-background="new    " width="593.658" height="5.18"/>
<linearGradient id="SVGID_26_" gradientUnits="userSpaceOnUse" x1="1046.0049" y1="494.1382" x2="1046.0049" y2="390.2196" gradientTransform="matrix(1 0 0 1 -534 336.082)">
	<stop  offset="0" style="stop-color:#262626"/>
	<stop  offset="1" style="stop-color:#000000"/>
</linearGradient>
<rect x="286.286" y="691.041" display="none" fill="url(#SVGID_26_)" width="451.439" height="91.763"/>
<path display="none" fill="#FFD400" d="M739.483,784.561H284.529v-95.275h454.955V784.561L739.483,784.561z M288.042,781.048H735.97
	v-88.252H288.042V781.048z"/>
<path display="none" fill="#231F1F" d="M571.154,761.312l-1.512,1.867c-0.137,0.167-0.262,0.337-0.385,0.504
	c-0.09,0.12-0.165,0.243-0.122,0.258c0,0-0.107,0.031-0.396,0.031h-1.707v-15.386h0.494l0.237,1.179h6.058v-7.38l0.891-0.506
	l-3.839-7.253l-2.22,0.926c-1.032,0.43-2.311,0.43-3.159,0.43h-5.501h-2.235h-1.725v-0.998l-1.125,0.998h-2.658l-4.164,3.584
	l-4.164-3.584h-2.659l-1.125-0.998v0.998h-3.962v5.004c-1.71-3.58-4.253-5.508-7.521-5.508c-2.995,0-5.272,1.568-6.837,4.65
	l-2.72-6.478l-4.911,1.859c-6.125,0.519-9.75,6.986-9.75,17.521c0,3.381,0.283,6.143,0.764,8.445l-0.48-0.304l-1.587,2.334
	c-0.119,0.182-0.285,0.429-0.266,0.438c0,0-0.085,0.025-0.305,0.025h-1.75v-21.193l1.727-0.168v-6.628h-10.958v1.425l-1.471-2.777
	l-2.218,0.924c-1.032,0.43-2.313,0.43-3.159,0.43h-5.29H477h-28.029v6.799l1.962,0.055l4.562,20.217l0.047,0.192
	c0.082,0.333,0.192,0.796,0.305,1.262l-0.593,0.096v6.494h17.915v-6.494l-0.593-0.096c0.112-0.472,0.224-0.929,0.303-1.258
	l4.61-20.43l1.001-0.055l0.41,0.034v21.492l-1.896,0.208v6.597h8.028c0.691-0.009,1.631-0.002,2.573,0.075
	c1.049,0.085,1.857,0.199,2.406,0.344l2.138,0.563l0.454-0.984h7.898c0.727,0,1.532,0.041,2.4,0.123
	c0.715,0.037,1.23,0.142,1.477,0.229l2.269,0.81l1.677-3.628c1.933,2.264,4.314,2.974,6.509,2.974c3.046,0,5.47-1.375,7.224-4.085
	c1.701,2.641,4.125,4.085,7.147,4.085c2.978,0,5.352-1.533,6.978-4.342v3.834h10.958v-6.566l-1.729-0.212v-17.602l2.676,2.38
	l2.677-2.38v17.602l-1.729,0.212v6.566h8.724h2.235h5.796c0.692-0.007,1.629-0.005,2.573,0.074c1.049,0.086,1.854,0.2,2.402,0.344
	l2.139,0.564l3.389-7.343L571.154,761.312z M538.034,742.794v4.392c-0.288-1.671-0.677-3.164-1.153-4.497L538.034,742.794z
	 M529.207,764.311c-0.822,0-2.427-2.692-2.427-8.916c0-8.126,1.268-11.553,1.933-12.476c0.826,0.851,2.453,4.578,2.453,12.476
	C531.165,761.599,529.725,764.104,529.207,764.311z M490.396,761.312l-1.512,1.867c-0.137,0.167-0.264,0.337-0.386,0.504
	c-0.087,0.12-0.162,0.243-0.121,0.258c0,0-0.11,0.031-0.395,0.031h-1.708v-15.386h0.492l0.237,1.179h6.059v-7.006l0.377,0.033
	v20.551L490.396,761.312z M517.948,759.564l-1.399,3.202c-0.271,0.621-0.955,1.544-1.718,1.544c-1.118,0-2.889-2.973-2.889-10.94
	c0-7.99,2.274-10.601,3.057-10.601c0.133,0,0.443,0,1.094,0.741l1.234,1.413l3.189-1.294c-0.822,3.067-1.24,6.984-1.24,11.765
	c0,2.06,0.159,3.943,0.456,5.648L517.948,759.564z M537.436,764.366c0.228-0.698,0.433-1.436,0.599-2.229v2.161L537.436,764.366z
	 M559.659,742.8v21.491l-0.799,0.089l-0.717-0.081v-21.505l0.721-0.065L559.659,742.8z"/>
<text transform="matrix(1 0 0 1 450.5542 768.167)" display="none" fill="#FFD400" enable-background="new    " font-family="'EccentricStd'" font-size="42.1498">Welcome</text>
<path display="none" fill="#1E1A1A" d="M513.413,731.87l19.293-24.675l-20.177-9.724l-0.288,0.597l-0.435-0.5l-0.194,0.17
	l-0.128-0.265l-20.18,9.723l19.532,24.976l0.279-0.221l0.551,0.954l0.573-0.329l0.577,0.329L513.413,731.87z M519.589,710.831
	l-5.172-9.994l10.244,8.878l-10.077,17.466L519.589,710.831z M512.241,730.306l-5.921-19.346l5.921-11.447l5.923,11.447
	L512.241,730.306z M504.894,710.831l5.005,16.35l-10.078-17.466l10.243-8.878L504.894,710.831z M518.15,723.655l8.208-14.229
	l-9.925-8.597l14.211,6.846L518.15,723.655z M493.365,707.675l15.268-7.355l-10.511,9.11l9.529,16.517L493.365,707.675z"/>
<path display="none" fill="#231F1F" d="M512.241,739.305l-0.961-3.139l-0.579,0.334l-0.504-0.868l-22.979-29.392l23.655-11.396
	l0.428-0.889l0.425,0.203l0.351-0.305l0.079,0.094l0.086-0.167l0.167,0.321l0.305-0.145l0.427,0.882l23.659,11.399l-21.197,27.107
	l-1.816,3.151l-0.583-0.334L512.241,739.305z M509.152,711.217l3.089,10.09l3.087-10.09l-3.087-5.969L509.152,711.217z"/>
<path display="none" fill="#FFD400" d="M513.413,731.87l19.293-24.675l-20.177-9.724l-0.288,0.597l-0.435-0.5l-0.194,0.17
	l-0.128-0.265l-20.18,9.723l19.532,24.976l0.279-0.221l0.551,0.954l0.573-0.329l0.577,0.329L513.413,731.87z M519.589,710.831
	l-5.172-9.994l10.244,8.878l-10.077,17.466L519.589,710.831z M512.241,730.306l-5.921-19.346l5.921-11.447l5.923,11.447
	L512.241,730.306z M504.894,710.831l5.005,16.35l-10.078-17.466l10.243-8.878L504.894,710.831z M518.15,723.655l8.208-14.229
	l-9.925-8.597l14.211,6.846L518.15,723.655z M493.365,707.675l15.268-7.355l-10.511,9.11l9.529,16.517L493.365,707.675z"/>
<circle display="none" fill="#CCAE00" cx="296.764" cy="772.268" r="3.219"/>
<path display="none" fill="#231F1F" d="M296.764,769.049c1.778,0,3.219,1.438,3.219,3.218c0,1.78-1.441,3.222-3.219,3.222
	c-1.776,0-3.218-1.44-3.218-3.222C293.546,770.487,294.988,769.049,296.764,769.049 M296.764,765.537
	c-3.71,0-6.731,3.02-6.731,6.729c0,3.712,3.021,6.734,6.731,6.734c3.712,0,6.732-3.021,6.732-6.734
	C303.497,768.557,300.476,765.537,296.764,765.537L296.764,765.537z"/>
<path display="none" fill="#CCAE00" d="M296.764,697.473c1.778,0,3.219,1.439,3.219,3.222c0,1.775-1.441,3.218-3.219,3.218
	c-1.778,0-3.218-1.441-3.218-3.218C293.546,698.912,294.986,697.473,296.764,697.473z"/>
<path display="none" fill="#231F1F" d="M296.764,697.473c1.778,0,3.219,1.439,3.219,3.222c0,1.775-1.441,3.218-3.219,3.218
	c-1.776,0-3.218-1.441-3.218-3.218C293.546,698.912,294.988,697.473,296.764,697.473 M296.764,693.959
	c-3.71,0-6.731,3.021-6.731,6.734c0,3.709,3.021,6.729,6.731,6.729c3.712,0,6.732-3.021,6.732-6.729
	C303.497,696.98,300.476,693.959,296.764,693.959L296.764,693.959z"/>
<path display="none" fill="#CCAE00" d="M727.19,697.473c1.777,0,3.218,1.439,3.218,3.222c0,1.775-1.44,3.218-3.218,3.218
	c-1.779,0-3.22-1.441-3.22-3.218C723.971,698.912,725.411,697.473,727.19,697.473z"/>
<path display="none" fill="#231F1F" d="M727.19,697.473c1.775,0,3.218,1.439,3.218,3.222c0,1.775-1.441,3.218-3.218,3.218
	c-1.779,0-3.22-1.441-3.22-3.218C723.971,698.912,725.411,697.473,727.19,697.473 M727.19,693.959c-3.712,0-6.732,3.021-6.732,6.734
	c0,3.709,3.021,6.729,6.732,6.729c3.709,0,6.73-3.021,6.73-6.729C733.921,696.98,730.899,693.959,727.19,693.959L727.19,693.959z"/>
<circle display="none" fill="#CCAE00" cx="727.19" cy="772.268" r="3.219"/>
<path display="none" fill="#231F1F" d="M727.19,769.049c1.775,0,3.218,1.438,3.218,3.218c0,1.78-1.441,3.222-3.218,3.222
	c-1.779,0-3.22-1.44-3.22-3.222C723.971,770.487,725.411,769.049,727.19,769.049 M727.19,765.537c-3.712,0-6.732,3.02-6.732,6.729
	c0,3.712,3.021,6.734,6.732,6.734c3.709,0,6.73-3.021,6.73-6.734C733.921,768.557,730.899,765.537,727.19,765.537L727.19,765.537z"
	/>
<line display="none" fill="none" stroke="#FFD400" stroke-width="2" stroke-miterlimit="10" x1="286.286" y1="782.804" x2="737.727" y2="782.804"/>
<polygon display="none" opacity="0.33" fill="#3D251A" enable-background="new    " points="284.447,784.561 284.447,689.284 
	278.262,689.284 278.262,788.95 284.447,788.95 739.483,788.95 739.483,784.561 "/>
<path display="none" fill="#231F1F" d="M730.408,760.412v-48.735c0,0-15.951,3.207-15.951-14.204h-57.078L730.408,760.412z"/>
<polygon display="none" fill="#231F1F" points="715.482,776.949 644.06,697.473 584.935,697.473 648.598,776.805 "/>
<linearGradient id="SVGID_27_" gradientUnits="userSpaceOnUse" x1="429.5776" y1="-177.1719" x2="1091.2424" y2="699.5334" gradientTransform="matrix(1 0 0 1 -534 336.082)">
	<stop  offset="0" style="stop-color:#FFEB45"/>
	<stop  offset="1" style="stop-color:#E5E5E5;stop-opacity:0"/>
</linearGradient>
<polygon display="none" opacity="0.24" fill="url(#SVGID_27_)" enable-background="new    " points="0,0.041 168.926,0.041 
	1181.542,1080.041 0,1080.041 "/>
<linearGradient id="SVGID_28_" gradientUnits="userSpaceOnUse" x1="3416.4678" y1="-177.1704" x2="4078.1313" y2="699.5336" gradientTransform="matrix(-1 0 0 1 5440.8887 336.082)">
	<stop  offset="0" style="stop-color:#FFEB45"/>
	<stop  offset="1" style="stop-color:#E5E5E5;stop-opacity:0"/>
</linearGradient>
<polygon display="none" opacity="0.24" fill="url(#SVGID_28_)" enable-background="new    " points="1920,0.041 1751.077,0.041 
	738.458,1080.041 1920,1080.041 "/>
<g>
	
		<linearGradient id="SVGID_29_" gradientUnits="userSpaceOnUse" x1="1643.9209" y1="752.1348" x2="1783.9512" y2="752.1348" gradientTransform="matrix(0.9892 -0.1462 0.1462 0.9892 -571.0933 572.7191)">
		<stop  offset="0" style="stop-color:#FFD8BF"/>
		<stop  offset="1" style="stop-color:#EFA57F"/>
	</linearGradient>
	<path fill="url(#SVGID_29_)" stroke="#000000" stroke-width="3" stroke-miterlimit="10" d="M1205.243,908.004
		c0,0,78.114,106.452,63.813,168.307c0,0,48.217,87.655,58.871,144.525l-47.412,0.062c0,0-58.688-81.888-45.381-134.411
		c0,0-98.086-84.037-91.479-175.459"/>
	
		<linearGradient id="SVGID_30_" gradientUnits="userSpaceOnUse" x1="1643.9209" y1="752.1348" x2="1783.9512" y2="752.1348" gradientTransform="matrix(0.9892 -0.1462 0.1462 0.9892 -571.0933 572.7191)">
		<stop  offset="0" style="stop-color:#FFD8BF"/>
		<stop  offset="1" style="stop-color:#EFA57F"/>
	</linearGradient>
	<path fill="url(#SVGID_30_)" d="M1205.243,908.004c0,0,78.114,106.452,63.813,168.307c0,0,48.217,87.655,58.871,144.525
		l-47.412,0.062c0,0-58.688-81.888-45.381-134.411c0,0-98.086-84.037-91.479-175.459"/>
	<path fill="#F9EBE4" d="M1322.948,1220.847h0.03l4.648-1.553c-11.218-56.899-58.568-142.981-58.568-142.981
		c11.745-50.814-38.86-131.705-57.311-158.978l-2.426,0.976c0,0,62.693,117.506,53.131,151.51L1322.948,1220.847z"/>
	<path d="M1278.883,1224.086l-0.957-1.332c-2.4-3.354-58.047-81.8-46.333-135.134c-12.768-11.327-97.395-89.923-91.114-176.822
		l6.358,0.459c-6.419,88.794,89.402,171.98,90.369,172.812l1.503,1.283l-0.484,1.914c-11.892,46.926,36.561,119.713,43.952,130.438
		l41.865-0.054c-11.783-55.774-57.312-138.956-57.782-139.809l-0.583-1.065l0.274-1.188c13.806-59.718-62.507-164.65-63.281-165.704
		l5.142-3.77c3.204,4.367,77.855,107.033,64.614,169.71c5.759,10.583,48.516,90.399,58.636,144.424l0.706,3.767L1278.883,1224.086z"
		/>
	
		<linearGradient id="SVGID_31_" gradientUnits="userSpaceOnUse" x1="1565.8311" y1="740.2236" x2="1678.3301" y2="740.2236" gradientTransform="matrix(1 0 0 1 -534 336.082)">
		<stop  offset="0" style="stop-color:#FFD8BF"/>
		<stop  offset="1" style="stop-color:#EFA57F"/>
	</linearGradient>
	<path fill="url(#SVGID_31_)" d="M1144.33,919.923c0,0-6.085,159.812-40.188,182.32c0,0,5.776,116.8-34.223,149.076h-38.088
		c0,0,10.949-117.562,38.088-149.076c0,0-40.948-153.735-10.83-200.951"/>
	<path fill="#F9EBE4" d="M1144.33,919.923l-2.429-0.529l-7.682,1.326c0,0,4.605,156.184-40.023,180.271
		c0,0,8.824,90.674-24.277,143.095c-1.7,2.693-3.1,5.089-4.251,7.234h4.251c39.997-32.278,34.223-149.076,34.223-149.076
		C1138.245,1079.735,1144.33,919.923,1144.33,919.923z"/>
	<path d="M1071.046,1254.51h-42.715l0.324-3.483c0.446-4.778,11.076-115.94,37.764-149.551
		c-4.518-17.401-39.227-156.109-10.02-201.896l5.375,3.429c-29.021,45.499,10.816,196.895,11.224,198.419l0.436,1.623l-1.104,1.276
		c-23.587,27.396-34.896,124.167-36.974,143.809h33.409c37.344-31.887,32.248-144.585,32.188-145.729l-0.087-1.816l1.517-1.004
		c32.359-21.36,38.698-178.198,38.754-179.78l6.372,0.243c-0.247,6.498-6.372,157.253-40.113,183.775
		c0.59,15.279,3.087,118.856-35.478,149.979L1071.046,1254.51z"/>
	<path fill="#494948" d="M1072.245,874.038c-1.335,19.868-30.105,34.115-10.236,35.448l130.312,8.742
		c19.87,1.336,51.174-13.86,52.508-33.73l-8.271-246.747c1.334-19.87-34.367-68.179-54.237-69.511l-64.032-4.295
		c-19.866-1.332-43.802,25.935-45.137,45.803L1072.245,874.038z"/>
	<polygon fill="#5E5E5C" points="1261.053,933.287 1248.486,925.192 1234.755,787.467 1235.175,692.739 1242.955,689.067 
		1245.201,778.986 1260.582,894.834 	"/>
	
		<rect x="1069.528" y="760.134" transform="matrix(0.9999 -0.0102 0.0102 0.9999 -7.8138 11.8456)" fill="#898988" width="175.577" height="23.56"/>
	
		<rect x="1070.827" y="755.717" transform="matrix(0.9999 -0.0102 0.0102 0.9999 -7.6772 11.8583)" fill="#6D6D6D" width="175.576" height="5.613"/>
	
		<rect x="1069.03" y="782.643" transform="matrix(0.9999 -0.0102 0.0102 0.9999 -7.9519 11.8412)" fill="#6D6D6D" width="175.577" height="5.61"/>
	<path d="M1182.32,568.24c19.869,1.332,55.568,49.639,54.237,69.509l8.271,246.747c-1.334,19.868-32.638,35.066-52.508,33.73
		l-130.312-8.742c-19.869-1.333,8.902-15.58,10.236-35.448l0.906-264.292c1.337-19.868,25.272-47.135,45.137-45.803L1182.32,568.24
		 M1182.746,561.881l-64.03-4.297c-23.93-1.605-50.383,28.745-51.923,51.738l-0.017,0.198l-0.002,0.203l-0.907,264.073
		c-0.554,6.971-5.942,13.736-10.281,19.181c-4.672,5.862-8.706,10.926-6.195,16.613c2.475,5.608,9.53,6.079,12.188,6.258
		l130.312,8.741c22.18,1.488,57.63-14.874,59.295-39.665l0.021-0.319l-0.011-0.319l-8.26-246.462
		C1244.074,614.75,1206.816,563.493,1182.746,561.881L1182.746,561.881z"/>
	<polygon fill="#353535" points="1189.553,578.845 1221.386,562.412 1236.883,592.204 1218.027,610.109 1237.549,598.641 
		1238.67,700.824 	"/>
	<polyline fill="#494948" points="1072.536,789.393 1029.987,913.726 1264.882,936.738 1241.573,787.4 	"/>
	<polygon fill="#050500" points="1268.713,940.191 1025.625,916.63 1066.162,788.965 1072.536,789.393 1034.349,910.825 
		1261.053,933.287 1241.573,787.4 1247.939,787.074 	"/>
	<polygon fill="#5E5E5C" points="1241.573,787.4 1232.855,787.489 1248.486,925.192 1261.053,933.287 	"/>
	<path fill="#3F3F3F" d="M1079.544,610.051c2.109-30.389,48.264-42.33,48.264-42.33l-6.111-3.549l-3.409-0.229
		c-19.866-1.332-43.803,25.935-45.137,45.803l-0.505,148.059l9.074-1.301C1081.72,756.502,1077.432,640.438,1079.544,610.051z"/>
	<polygon fill="#3F3F3F" points="1072.536,789.393 1084.725,790.21 1051.484,911.975 1034.349,910.825 	"/>
	<path fill="#4D4D4D" d="M1127.808,850.263c0,13.651-9.645,24.719-21.543,24.719l0,0c-11.896,0-21.542-11.066-21.542-24.719V608.785
		c0-13.652,9.646-24.719,21.542-24.719l0,0c2.019,0,3.974,0.317,5.824,0.914c9.071,2.918,15.719,12.469,15.719,23.803V850.263z"/>
	<path fill="#353535" d="M1106.267,857.91l-7.006-14.023l-2.407-59.909c0,0-1.062-163.845-4.25-171.771
		c-1.994-4.969,6.022-18.583,12.285-28.061c-11.251,0.817-20.164,11.522-20.164,24.643v241.476c0,11.847,7.267,21.735,16.961,24.146
		L1106.267,857.91z"/>
	<path d="M1106.267,878.64c-13.635,0-24.729-12.729-24.729-28.379V608.785c0-15.646,11.096-28.377,24.729-28.377
		c2.27,0,4.52,0.353,6.687,1.048c10.626,3.416,18.045,14.656,18.045,27.325v241.477
		C1130.995,865.909,1119.902,878.64,1106.267,878.64z M1106.267,587.724c-10.118,0-18.354,9.447-18.354,21.062v241.478
		c0,11.613,8.235,21.06,18.354,21.06c10.122,0,18.355-9.445,18.355-21.06V608.785c0-9.406-5.508-17.749-13.392-20.281
		C1109.625,587.985,1107.954,587.724,1106.267,587.724z"/>
	<path fill="#7C3F2C" stroke="#603124" stroke-miterlimit="10" d="M1169.488,936.738c-20.829-26.839-43.331-52.177-61.878-50.146
		c-25.868,2.818-40.695,47.294-40.843,47.6l-5.762-2.731c0.662-1.393,16.541-48.006,45.91-51.208
		c20.909-2.287,45.331,23.867,67.61,52.574L1169.488,936.738z"/>
	<path fill="#A35134" d="M1048.62,946.593c0,0,8.635-17.158,20.379-17.158c11.738,0,69.119,11.125,69.119,11.125
		s27.63-9.552,35.421-7.427c7.791,2.126,12.042,51.713,11.334,56.674c-0.708,4.956,9.211,19.122,12.044,22.667
		c2.832,3.541-11.336,23.378-20.545,27.628c-9.209,4.252-158.685,6.377-160.81-5.666c-2.125-12.046-6.373-31.878,7.086-38.254
		C1036.108,989.807,1048.62,946.593,1048.62,946.593z"/>
	<path fill="#D88575" d="M1184.873,989.807c0.708-4.961-3.543-54.548-11.334-56.674c-0.776-0.211-1.756-0.303-2.876-0.305l-12,4.2
		c0,0,15.938,1.771,15.229,6.022c-0.707,4.25,3.543,47.817,3.543,47.817l13.813,23.377c0,0-15.584,20.543-20.545,22.668
		c-4.958,2.125-39.846,3.897-39.846,3.897l12.653,2.041c17.468-0.596,30.354-1.598,32.859-2.752
		c9.209-4.25,23.377-24.087,20.545-27.628C1194.084,1008.929,1184.165,994.763,1184.873,989.807z"/>
	<path opacity="0.68" fill="#84422D" enable-background="new    " d="M1076.132,962.976c-2.656-23.29,0-32.968,0-32.97l0,0
		l-9.254-0.382c-10.647,1.851-18.258,16.966-18.258,16.966s-12.513,43.214-25.972,49.59s-9.211,26.208-7.086,38.254
		c1.615,9.15,88.26,10.122,133.853,8.194l7.911-2.526C1157.326,1040.105,1078.789,986.266,1076.132,962.976z"/>
	<path d="M1106.48,1045.576c-23.819,0-45.579-0.709-61.271-1.998c-26.923-2.213-31.165-5.527-31.739-8.771l-0.299-1.682
		c-2.291-12.778-5.749-32.083,8.567-38.863c10.322-4.896,21.431-36.494,24.838-48.26l0.144-0.363
		c0.375-0.751,9.368-18.33,22.271-18.33c11.319,0,62.673,9.843,68.97,11.057c3.584-1.214,23.062-7.664,32.683-7.664
		c1.375,0,2.507,0.126,3.45,0.384c10.152,2.772,13.465,54.893,12.878,59.022c-0.483,3.387,7.348,15.717,11.603,21.037
		c0.842,1.06,1.046,2.558,0.598,4.456c-1.748,7.396-13.592,22.589-21.914,26.434
		C1172.271,1044.335,1137.07,1045.576,1106.48,1045.576z M1050.604,947.387c-1.069,3.649-13.231,44.171-27.049,50.713
		c-11.377,5.393-8.264,22.771-6.201,34.273l0.304,1.693c2.112,3.425,30.843,7.26,88.823,7.26c36.634,0,65.768-1.664,69-3.152
		c8.584-3.964,20.216-21.331,19.681-24.494c-1.202-1.572-13.32-17.662-12.392-24.175c1.099-7.679-4.728-52.835-9.788-54.321
		c-0.571-0.152-1.353-0.231-2.331-0.231c-9.69,0-31.616,7.542-31.835,7.619l-0.539,0.185l-0.562-0.107
		c-0.574-0.111-57.313-11.087-68.717-11.087C1059.247,931.56,1051.489,945.708,1050.604,947.387z"/>
	<path fill="#7C3F2C" d="M1023.712,1030.891c0,0-6.446-21.957,1.913-29.396c8.358-7.438,23.672-26.034,25.046-38.521
		c1.376-12.484-6.062,67.915-8.896,67.915C1038.938,1030.891,1023.712,1030.891,1023.712,1030.891z"/>
	<path fill="none" stroke="#000000" stroke-width="2" stroke-miterlimit="10" d="M1165.748,963.241
		c-0.017-6.313-14.986-5.328-18.438-4.906c-10.784,1.32-19.888,9.123-30.536,10.277c-10.2,1.105-21.739,0.062-31.341-3.159
		c-8.77-2.946-18.97-3.768-26.305-10.005"/>
	
		<linearGradient id="SVGID_32_" gradientUnits="userSpaceOnUse" x1="1619.1592" y1="538.3242" x2="1664.8584" y2="538.3242" gradientTransform="matrix(1 0 0 1 -534 336.082)">
		<stop  offset="0" style="stop-color:#FFD8BF"/>
		<stop  offset="1" style="stop-color:#EFA57F"/>
	</linearGradient>
	<path fill="url(#SVGID_32_)" stroke="#000000" stroke-width="2" stroke-miterlimit="10" d="M1130.858,874.405
		c0-13.986-10.229-25.324-22.849-25.324c-12.619,0-22.851,11.338-22.851,25.324c0,3.96,0.845,7.694,2.308,11.033v9.155
		c0,2.835,2.301,5.136,5.135,5.136c2.067,0,3.837-1.226,4.651-2.984c0.446,0.266,0.909,0.502,1.372,0.736
		c0.928,1.356,2.48,2.25,4.25,2.25c0.602,0,1.175-0.122,1.71-0.312c1.121,0.188,2.258,0.312,3.425,0.312
		c1.166,0,2.305-0.126,3.424-0.312c0.535,0.191,1.106,0.312,1.711,0.312c1.769,0,3.324-0.894,4.25-2.25
		c0.464-0.232,0.929-0.472,1.375-0.736c0.814,1.76,2.584,2.984,4.647,2.984c2.835,0,5.135-2.301,5.135-5.136v-9.155
		C1130.014,882.099,1130.858,878.367,1130.858,874.405z"/>
	
		<linearGradient id="SVGID_33_" gradientUnits="userSpaceOnUse" x1="1270.1934" y1="95.9502" x2="1363.1703" y2="184.6767" gradientTransform="matrix(-1 0 0 1 2467.9941 336.082)">
		<stop  offset="0" style="stop-color:#FFD8BF"/>
		<stop  offset="1" style="stop-color:#EFA57F"/>
	</linearGradient>
	<ellipse fill="url(#SVGID_33_)" cx="1163.675" cy="464.598" rx="82.177" ry="95.635"/>
	<path fill="#F9EBE4" d="M1160.224,558.107c44.141,0,80.054-41.947,80.054-93.51c0-51.56-35.913-93.509-80.054-93.509
		c-16.229,0-31.335,5.688-43.963,15.419c13.4-11.037,29.746-17.546,47.412-17.546c16.192,0,31.278,5.473,44.003,14.883
		c22.229,17.62,36.852,47.242,36.852,80.751c0,33.503-14.615,63.115-36.834,80.738c-12.728,9.42-27.819,14.896-44.021,14.896
		c-17.658,0-33.997-6.502-47.392-17.53C1128.905,552.428,1144.004,558.107,1160.224,558.107z"/>
	<ellipse fill="none" cx="1163.675" cy="464.598" rx="82.177" ry="95.635"/>
	<path d="M1080.112,464.598c0-53.905,37.815-97.76,84.299-97.76c46.485,0,84.301,43.856,84.301,97.76
		c0,53.904-37.814,97.76-84.301,97.76C1117.929,562.357,1080.112,518.505,1080.112,464.598z M1084.363,464.598
		c0,51.562,35.909,93.51,80.048,93.51c44.141,0,80.051-41.947,80.051-93.51c0-51.562-35.91-93.509-80.051-93.509
		C1120.271,371.089,1084.363,413.039,1084.363,464.598z"/>
	<path opacity="0.35" fill="#C98061" enable-background="new    " d="M1082.006,454.065c11.493-15.476,37.037-16.028,37.037-16.028
		s-0.124,31.66-6.371,50.441c3.407,21.502,15.534,46.837,47.554,69.631c0,0-31.418,4.465-60.708-33.782
		c-11.263-16.366-18.017-37.125-18.017-59.728C1081.499,461.039,1081.678,457.526,1082.006,454.065z"/>
	<path d="M1080.112,464.598c0-53.905,37.815-97.76,84.299-97.76c46.485,0,84.301,43.856,84.301,97.76
		c0,53.904-37.814,97.76-84.301,97.76C1117.929,562.357,1080.112,518.505,1080.112,464.598z M1084.363,464.598
		c0,51.562,35.909,93.51,80.048,93.51c44.141,0,80.051-41.947,80.051-93.51c0-51.562-35.91-93.509-80.051-93.509
		C1120.271,371.089,1084.363,413.039,1084.363,464.598z"/>
	<path opacity="0.75" fill="#FFD8BF" enable-background="new    " d="M1116.507,473.283l-2.557-4.739l-7.737-1.594l-6.345,1.773
		l-5.709,5.132l-3.188,11.688l1.859,10.494l5.711,11.688l11.188,3.305c0,0-15.661-12.022-5.987-26.149
		c7.402-1.734,7.151,0.545,7.151,0.545l-0.972-3.811l-4.794-3.128l-4.591-0.669C1100.535,477.815,1099.674,466.864,1116.507,473.283
		z"/>
	<path d="M1120.841,472.058c0.008,0.034,0.012,0.062,0.021,0.094L1120.841,472.058z"/>
	<path d="M1105.362,464.711c5.351-0.667,10.834,1.711,15.043,6.528c0.203,0.231,0.332,0.506,0.419,0.789l-4.317,1.254
		c-3.171-3.277-6.911-4.819-10.617-4.354c-8.024,1.001-13.406,11.042-11.991,22.377c1.285,10.308,7.924,18.325,15.189,18.783
		l2.7,3.987c-0.217,0.104-0.442,0.186-0.689,0.219c-0.024,0.004-0.05,0.006-0.073,0.008c-10.282,0.907-19.656-8.963-21.345-22.467
		C1087.975,478.168,1095.01,466.001,1105.362,464.711z"/>
	<path fill="none" stroke="#000000" stroke-miterlimit="10" d="M1099.87,479.3c-0.135-3.176,6.939-0.41,8.106,0.466
		c1.802,1.353,4.945,4.965,4.543,7.234c-0.515-1.759-3.303-2.15-4.82-2.259c-1.829-0.131-2.783-0.209-3.974,1.212
		c-2.422,2.89-2.878,8.464-2.347,12.162c0.432,2.992,2.976,8.557,6.749,6.705c1.671-0.82,1.996-2.877,2.258-4.535
		c0.413-2.646,0.662-4.657-1.482-6.641"/>
	
		<rect x="1198.622" y="436.744" transform="matrix(-0.9811 0.1937 -0.1937 -0.9811 2484.1094 638.5714)" fill="#E8D972" width="24.442" height="7.915"/>
	<path d="M1195.569,437.595l28.146-5.559l2.356,11.935l-28.147,5.561L1195.569,437.595z M1222.044,434.533l-23.978,4.734
		l1.533,7.768l23.978-4.735L1222.044,434.533z"/>
	<path fill="#FCEEAC" d="M1220.321,436.617c-0.336,0.292,0.116,1.304,0.133,1.762c0.019,0.478,0.183,1.495,0,1.955
		c-0.175,0.44-0.219,0.428-0.484-0.057c-0.198-0.365-0.211-0.842-0.407-1.233c-0.219-0.42-0.606-0.811-0.778-1.243
		c-0.147-0.371,0.052-1.047-0.413-1.007c-1.104,0.099-0.644,2.585-0.639,3.175c0.004,0.525,0.168,1.484,0,2.023
		c-0.258,0.832-1.237,0.526-1.607-0.208c-0.244-0.489,0.215-4.461-1.295-3.516c-0.77,0.484-0.236,1.585-0.346,2.228
		c-0.086,0.491-0.11,0.564-0.615,0.649c-0.807,0.139-1.021-0.417-1.382-1.029c-0.396-0.668-1.096-2.585-1.387-0.708
		c-0.122,0.797-0.225,2.153-1.326,2.021c-1.326-0.157-2.968-3.378-4.252-1.294c-0.473,0.763-0.907,1.523-1.47,2.257
		c-0.47,0.608-0.867,1.401-1.381,0.491c-0.526-0.938,0.131-1.805-0.912-2.491c-0.894-0.589-1.418-0.245-1.755,0.69
		c-0.198,0.557-0.301,1.452-0.325,2.036c-0.033,0.74,0.399,1.423,0.05,2.133c-0.155,0.006-0.315,0-0.477,0.002l-1.183-5.983
		l23.979-4.733l0.77,3.896C1222.278,437.817,1221.02,436.019,1220.321,436.617z"/>
	<path fill="#FFFFFF" d="M1193.374,463.391c0,5.136,14.173,12.262,19.308,12.262s9.299-4.164,9.299-9.299s-4.164-9.298-9.299-9.298
		S1193.374,458.257,1193.374,463.391z"/>
	<circle fill="#29ABE2" cx="1210.264" cy="465.782" r="3.985"/>
	<circle fill="#FFFFFF" cx="1207.541" cy="463.391" r="2.159"/>
	
		<linearGradient id="SVGID_34_" gradientUnits="userSpaceOnUse" x1="1780.1494" y1="157.1055" x2="1689.8182" y2="118.1398" gradientTransform="matrix(1 0 0 1 -534 336.082)">
		<stop  offset="0.7502" style="stop-color:#FFD8BF"/>
		<stop  offset="1" style="stop-color:#EFA57F"/>
	</linearGradient>
	<path fill="url(#SVGID_34_)" d="M1228.729,512.932c21.76,7.306,25.905-15.596,25.905-15.596l-14.366-33.944"/>
	<path fill="#F9EBE4" d="M1240.372,462.736l-0.851,7.307l12.234,29.895c0,0-8.928,14.683-19.82,13.886l-0.791,2.377l7.995,0.479
		l10.757-4.237l6.332-14.478L1240.372,462.736z"/>
	<path d="M1234.602,518.449c12.608-0.719,21.629-8.756,23.743-19.201l0.074-0.725l-9.922-27.99l-3.664-1.428l9.186,30.395
		c1.026,5.679-12.11,16.088-22.878,16.702L1234.602,518.449z"/>
	<path fill="none" stroke="#000000" stroke-width="2" stroke-linecap="round" stroke-linejoin="round" stroke-miterlimit="10" d="
		M1199.669,524.558c0,6.165,10.84,8.967,20.187,8.967"/>
	
		<line fill="none" stroke="#F9EBE4" stroke-width="2" stroke-miterlimit="10" x1="1212.383" y1="537.507" x2="1199.669" y2="532.195"/>
	<ellipse fill="#BFB262" cx="1060.14" cy="410.565" rx="39.729" ry="40.05"/>
	<path d="M1060.14,453.805c-23.663,0-42.914-19.396-42.914-43.237c0-23.841,19.253-43.237,42.914-43.237
		c23.663,0,42.917,19.396,42.917,43.237C1103.057,434.408,1083.803,453.805,1060.14,453.805z M1060.14,373.703
		c-20.146,0-36.538,16.537-36.538,36.862c0,20.324,16.393,36.861,36.538,36.861c20.149,0,36.541-16.537,36.541-36.861
		C1096.681,390.24,1080.289,373.703,1060.14,373.703z"/>
	<path fill="#E8D972" d="M1191.956,355.216c-5.744-0.701-12.151,0.722-17.823,3.74l0.002-0.023c0,0-62.771-27.626-94.021,14.168
		c-31.253,41.797-56.236,110.156,0,127.514c27.587-15.876,12.19-25.99,32.442-36.02c0,0,75.154-17.242,55.494-59.858l0.002-0.018
		c1.835,2.074,3.937,4.167,6.371,6.28c35.599,30.815,71.426,5.498,71.426,5.498C1285.396,379.496,1213.739,357.873,1191.956,355.216
		z"/>
	<path d="M1225.167,453.008c-3.482,0-6.393,2.042-7.197,4.78c-1.655-1.022-3.412-1.62-5.196-1.909
		c0.004-0.038,0.024-0.07,0.024-0.11c0-2.25,1.324-4.152,2.896-4.152c0.588,0,1.062-0.477,1.062-1.062s-0.475-1.062-1.062-1.062
		c-2.743,0-4.976,2.77-5.013,6.187c-2.638-0.087-5.274,0.406-7.686,1.158c0.334-3.158,1.988-5.646,3.914-5.646
		c0.584,0,1.062-0.478,1.062-1.062c0-0.587-0.479-1.062-1.062-1.062c-3.328,0-5.937,3.719-6.082,8.531
		c-4.64,1.808-8.001,4.229-8.08,4.285c-0.474,0.35-0.577,1.012-0.229,1.486c0.21,0.284,0.531,0.435,0.859,0.435
		c0.218,0,0.436-0.067,0.627-0.206c0.162-0.116,16.462-11.849,25.646-1.651c0.392,0.438,1.065,0.468,1.5,0.079
		c0.438-0.394,0.473-1.064,0.077-1.5c-0.438-0.489-0.897-0.919-1.362-1.326c0.069-2.248,2.416-4.062,5.301-4.062
		c0.59,0,1.062-0.477,1.062-1.062C1226.229,453.483,1225.757,453.008,1225.167,453.008z"/>
	<path d="M1259.665,388.669c-7.364-22.574-51.925-34.739-67.324-36.617c-5.826-0.714-12.33,0.5-18.312,3.384
		c-5.07-2.038-23.068-8.643-43.534-8.643c-23.017,0-40.827,8.209-52.937,24.401c-20.812,27.834-41.543,71.322-31.467,102.276
		c4.799,14.74,15.927,24.896,33.076,30.19c0.309,0.096,0.627,0.143,0.941,0.143c0.553,0,1.101-0.145,1.59-0.426
		c1.592-0.915,6.385-4.338,7.725-5.226l-1.205-5.33c-1.317,0.933-6.835,3.332-8.493,4.322
		c-14.302-4.745-23.575-13.369-27.572-25.646c-9.321-28.635,10.61-69.873,30.51-96.485c10.838-14.496,26.931-21.845,47.83-21.845
		c20.796,0,39.462,7.474,42.052,8.556c0.944,0.542,2.108,0.567,3.082,0.046c5.161-2.748,11.006-3.993,15.941-3.392
		c15.785,1.926,56.055,13.943,62.031,32.268c2.348,7.187-0.937,15.046-9.759,23.363c-0.776,0.52-4.263,2.758-9.618,4.883l0,0
		l2.589,5.839c6.539-2.626,10.563-5.406,10.873-5.625c0.12-0.085,0.232-0.178,0.337-0.276
		C1258.946,408.612,1262.86,398.464,1259.665,388.669z"/>
	<path fill="#FCEEAC" d="M1235.974,412.998c0,0,16.382-15.046,9.875-26.435c-6.509-11.389-47.517-30.948-69.3-19.725
		c-21.784,11.224,15.763,0.49,15.763,0.49s5.485-1.49,5.755,2.497c0.267,3.987,10.024-1.987,4.877-2.986
		c-5.146-0.999,41.791,11.743,38.426,21.401c0,0,0.709,8.596-4.782,10.543c-5.487,1.949,7.022,2.302,7.94-3.542
		C1245.441,389.396,1235.974,412.998,1235.974,412.998z"/>
	<path fill="#FCEEAC" d="M1080.112,491.501c0,0-41.703-9.032-17.263-78.503c24.439-69.471,82.353-58.258,103.604-49.519
		c21.252,8.739-20.721,0-20.721,0s-34.35-3.996-45.865,9.013c-11.516,13.008-6.734,2.914-6.734,2.914s-22.313,18.519-20.188,28.121
		c2.125,9.602,5.035,5.882,7.168,5.351c2.13-0.531-8.957,8.69-10.355-1.594s-23.909,56.85,5.312,73.32
		C1084.633,488.308,1086.48,491.508,1080.112,491.501z"/>
	<path fill="#C9BA63" d="M1164.411,403.212c0,0,9.128,40.312-55.691,58.585c-23.377,11.191-16.254,23.428-17.001,23.588
		s-9.89-23.025,16.292-28.332C1134.194,451.751,1162.017,420.213,1164.411,403.212z"/>
	<path fill="#C9BA63" d="M1172.46,403.212c0,0,37.562,31.523,56.688,14.521C1221.71,415.253,1215.305,420.568,1172.46,403.212z"/>
	<path fill="#D3C172" d="M1067.632,377c0,0-34.284,0.57-38.254,22.789C1027.962,407.815,1067.632,377,1067.632,377z"/>
	<polygon points="1237.848,625.824 1235.614,602.238 1219.407,612.367 1216.22,608.826 1234.189,591.636 1220.479,565.27 
		1197.133,575.109 1195.265,573.754 1222.295,559.548 1239.574,592.775 1230.608,599.936 1220.646,608.474 1239.48,595.037 
		1240.052,622.894 	"/>
</g>
</svg>
