<?xml version="1.0" encoding="utf-8"?>
<!-- Generator: Adobe Illustrator 15.0.0, SVG Export Plug-In  -->
<!DOCTYPE svg PUBLIC "-//W3C//DTD SVG 1.1//EN" "http://www.w3.org/Graphics/SVG/1.1/DTD/svg11.dtd" [
	<!ENTITY ns_flows "http://ns.adobe.com/Flows/1.0/">
]>
<svg version="1.1"
	 xmlns="http://www.w3.org/2000/svg" xmlns:xlink="http://www.w3.org/1999/xlink" xmlns:a="http://ns.adobe.com/AdobeSVGViewerExtensions/3.0/"
	 x="0px" y="0px" width="264px" height="733px" viewBox="1011.069 346.794 264 733"
	 overflow="visible" enable-background="new 1011.069 346.794 264 733" xml:space="preserve">
<defs>
	<symbol  id="Diamant_goutte_xA0_2" viewBox="-1.428 -1.591 2.856 3.183">
		<path fill="none" d="M-1.428-0.112C-0.639-1.045,0-1.591,0-1.591s0.639,0.546,1.428,1.479L0,1.592L-1.428-0.112z"/>
	</symbol>
</defs>
<linearGradient id="SVGID_1_" gradientUnits="userSpaceOnUse" x1="1231.5566" y1="-129.5493" x2="1231.5566" y2="25.5859" gradientTransform="matrix(1 0 0 -1 -244 748.082)">
	<stop  offset="0" style="stop-color:#D1D1D1"/>
	<stop  offset="1" style="stop-color:#E5E5E5"/>
</linearGradient>
<path display="none" fill="url(#SVGID_1_)" d="M987.555,0C723.714,0,509.828,213.887,509.828,477.727v477.729h955.455V477.727
	C1465.283,213.887,1251.4,0,987.555,0z"/>
<polygon display="none" opacity="0.52" fill="#F4F3F2" enable-background="new    " points="1127.653,815.911 1127.653,257.154 
	579.515,565.38 579.515,815.911 "/>
<path display="none" fill="#CCCCCC" d="M987.555,6.555c63.612,0,125.318,12.456,183.403,37.024
	c56.104,23.729,106.493,57.705,149.767,100.979s77.25,93.663,100.979,149.77c24.567,58.084,37.024,119.788,37.024,183.399V948.9
	H516.383V477.727c0-63.611,12.456-125.315,37.023-183.399c23.731-56.106,57.707-106.496,100.979-149.77
	c43.273-43.273,93.664-77.249,149.77-100.979C862.241,19.011,923.946,6.555,987.555,6.555 M987.555,0
	C723.714,0,509.828,213.887,509.828,477.727v477.729h955.455V477.727C1465.283,213.887,1251.4,0,987.555,0L987.555,0z"/>
<path display="none" fill="#CCCCCC" d="M987.555,6.555c63.612,0,125.318,12.456,183.403,37.024
	c56.104,23.729,106.493,57.705,149.767,100.979s77.25,93.663,100.979,149.77c24.567,58.084,37.024,119.788,37.024,183.399V948.9
	H516.383V477.727c0-63.611,12.456-125.315,37.023-183.399c23.731-56.106,57.707-106.496,100.979-149.77
	c43.273-43.273,93.664-77.249,149.77-100.979C862.241,19.011,923.946,6.555,987.555,6.555 M987.555,0
	C723.714,0,509.828,213.887,509.828,477.727v477.729h955.455V477.727C1465.283,213.887,1251.4,0,987.555,0L987.555,0z"/>
<polyline display="none" fill="#E5E5E5" stroke="#CCCCCC" stroke-width="4" stroke-miterlimit="10" points="987.555,835.448 
	1465.283,835.448 1740.056,1080.082 179.944,1080.082 380.729,835.448 987.555,835.448 "/>
<path display="none" fill="#F4F3F2" d="M212.693,1066.737l17.205-24.577c0,0,1656.524,13.799,1263.282-52.087h46.986h78.242
	l87.254,82.274L212.693,1066.737z"/>
<polygon display="none" fill="#CCCCCC" points="1457.009,848.684 387.016,848.684 368.991,868.346 1473.395,868.346 "/>
<use xlink:href="#Diamant_goutte_xA0_2"  width="2.856" height="3.183" id="XMLID_1_" x="-1.428" y="-1.591" transform="matrix(1.6378 0 0 -1.6378 1065.3877 901.918)" display="none" overflow="visible"/>
<rect x="1155.51" y="600.438" display="none" fill="#CCCCCC" width="247.427" height="235.011"/>
<polygon display="none" fill="#BCBCBC" points="1243.993,616.803 1227.197,639.479 1409.489,639.479 1396.79,616.803 "/>
<linearGradient id="SVGID_2_" gradientUnits="userSpaceOnUse" x1="1438.834" y1="411.8022" x2="1438.834" y2="-24.6434" gradientTransform="matrix(1 0 0 -1 -244 748.082)">
	<stop  offset="0" style="stop-color:#5E3F2F"/>
	<stop  offset="0.6442" style="stop-color:#4F3529"/>
	<stop  offset="0.9387" style="stop-color:#4F3529"/>
</linearGradient>
<polygon display="none" fill="url(#SVGID_2_)" points="1157.968,287.443 1231.703,337.113 1231.703,772.928 1157.968,830.417 "/>
<path display="none" fill="#3D251A" d="M1160.425,292.064l68.82,46.358v433.305l-68.82,53.657V292.064 M1155.51,282.826v552.623
	l78.651-61.323V335.807L1155.51,282.826L1155.51,282.826z"/>
<linearGradient id="SVGID_3_" gradientUnits="userSpaceOnUse" x1="1478.1611" y1="152.1748" x2="1646.9365" y2="152.1748" gradientTransform="matrix(1 0 0 -1 -244 748.082)">
	<stop  offset="0" style="stop-color:#5E3F2F"/>
	<stop  offset="0.6442" style="stop-color:#4F3529"/>
	<stop  offset="0.9387" style="stop-color:#4F3529"/>
</linearGradient>
<rect x="1234.161" y="591.376" display="none" fill="url(#SVGID_3_)" width="168.775" height="9.062"/>
<polygon display="none" opacity="0.46" fill="#3D251A" enable-background="new    " points="1225.149,768.521 1165.341,815.911 
	1165.341,510.315 "/>
<polygon display="none" opacity="0.62" fill="#BCBCBC" enable-background="new    " points="1234.161,774.128 1252.186,774.128 
	1283.593,835.449 1155.51,835.449 "/>
<rect x="1255.668" y="433.575" display="none" fill="#191919" width="134.773" height="72.644"/>
<rect x="1264.789" y="438.491" display="none" fill="#00A7BF" width="116.534" height="60.628"/>
<rect x="1263.958" y="438.491" display="none" opacity="0.78" fill="#BFBEBB" enable-background="new    " width="0.383" height="60.628"/>
<rect x="1263.515" y="498.641" display="none" width="117.809" height="0.479"/>
<rect x="1263.515" y="438.252" display="none" width="117.809" height="0.479"/>
<polygon display="none" opacity="0.22" fill="#FFFFFF" enable-background="new    " points="1289.772,499.973 1286.495,505.399 
	1256.591,505.399 1256.896,434.225 1327.493,434.225 "/>
<rect x="1256.896" y="434.225" display="none" opacity="0.22" fill="#FFFFFF" enable-background="new    " width="0.256" height="71.177"/>
<linearGradient id="SVGID_4_" gradientUnits="userSpaceOnUse" x1="1564.5957" y1="212.2515" x2="1564.5957" y2="151.9247" gradientTransform="matrix(1 0 0 -1 -244 748.082)">
	<stop  offset="0" style="stop-color:#5E3F2F"/>
	<stop  offset="0.6442" style="stop-color:#4F3529"/>
	<stop  offset="0.9387" style="stop-color:#4F3529"/>
</linearGradient>
<rect x="1246.45" y="522.436" display="none" fill="url(#SVGID_4_)" stroke="#3D251A" stroke-width="2" stroke-miterlimit="10" width="148.292" height="92.836"/>
<rect x="1251.366" y="577.088" display="none" opacity="0.33" fill="#3D251A" stroke="#2D1B14" stroke-miterlimit="10" enable-background="new    " width="138.051" height="32.362"/>
<rect x="1251.366" y="532.846" display="none" opacity="0.33" fill="#3D251A" stroke="#2D1B14" stroke-miterlimit="10" enable-background="new    " width="138.051" height="32.363"/>
<polygon display="none" opacity="0.33" fill="#3D251A" enable-background="new    " points="1253.824,535.304 1253.824,562.751 
	1279.223,562.751 "/>
<polygon display="none" opacity="0.33" fill="#3D251A" enable-background="new    " points="1253.824,579.546 1253.824,606.992 
	1279.223,606.992 "/>
<polygon display="none" opacity="0.47" fill="#845946" enable-background="new    " points="1388.598,577.934 1252.8,577.934 
	1252.8,577.934 1252.186,577.934 1252.186,577.934 1252.186,578.548 1252.186,608.656 1252.8,608.656 1252.8,578.548 
	1388.598,578.548 "/>
<polygon display="none" opacity="0.47" fill="#845946" enable-background="new    " points="1388.598,533.665 1252.8,533.665 
	1252.8,533.665 1252.186,533.665 1252.186,533.665 1252.186,534.279 1252.186,564.39 1252.8,564.39 1252.8,534.279 
	1388.598,534.279 "/>
<linearGradient id="SVGID_5_" gradientUnits="userSpaceOnUse" x1="1527.5918" y1="478.9111" x2="1527.5918" y2="216.4105" gradientTransform="matrix(1 0 0 -1 -244 748.082)">
	<stop  offset="0" style="stop-color:#5E3F2F"/>
	<stop  offset="0.6442" style="stop-color:#4F3529"/>
	<stop  offset="0.9387" style="stop-color:#4F3529"/>
</linearGradient>
<path display="none" fill="url(#SVGID_5_)" d="M1411.391,257.154H1155.51l0,0h-17.478v578.294h17.478V274.633h256.166v560.816
	h17.477V295.231C1423.779,282.241,1417.851,269.539,1411.391,257.154z"/>
<linearGradient id="SVGID_6_" gradientUnits="userSpaceOnUse" x1="139.5786" y1="589.1709" x2="801.2429" y2="-287.5337" gradientTransform="matrix(1 0 0 -1 -244 748.082)">
	<stop  offset="0" style="stop-color:#FFEB45"/>
	<stop  offset="1" style="stop-color:#E5E5E5;stop-opacity:0"/>
</linearGradient>
<polygon display="none" opacity="0.24" fill="url(#SVGID_6_)" enable-background="new    " points="0,0.041 168.926,0.041 
	1181.542,1080.041 0,1080.041 "/>
<linearGradient id="SVGID_7_" gradientUnits="userSpaceOnUse" x1="1817.4678" y1="589.1709" x2="2479.1318" y2="-287.5335" gradientTransform="matrix(-1 0 0 -1 3841.8887 748.082)">
	<stop  offset="0" style="stop-color:#FFEB45"/>
	<stop  offset="1" style="stop-color:#E5E5E5;stop-opacity:0"/>
</linearGradient>
<polygon display="none" opacity="0.24" fill="url(#SVGID_7_)" enable-background="new    " points="1920,0.041 1751.077,0.041 
	738.458,1080.041 1920,1080.041 "/>
<linearGradient id="SVGID_8_" gradientUnits="userSpaceOnUse" x1="1325.7959" y1="-434.291" x2="1465.8252" y2="-434.291" gradientTransform="matrix(0.9892 -0.1462 -0.1462 -0.9892 -209.9335 840.6226)">
	<stop  offset="0" style="stop-color:#FFD8BF"/>
	<stop  offset="1" style="stop-color:#EFA57F"/>
</linearGradient>
<path fill="url(#SVGID_8_)" stroke="#000000" stroke-width="3" stroke-miterlimit="10" d="M1205.243,908.004
	c0,0,78.114,106.452,63.814,168.306c0,0,48.216,87.656,58.871,144.526l-47.412,0.062c0,0-58.689-81.887-45.381-134.411
	c0,0-98.086-84.037-91.479-175.459"/>
<linearGradient id="SVGID_9_" gradientUnits="userSpaceOnUse" x1="1325.7959" y1="-434.291" x2="1465.8252" y2="-434.291" gradientTransform="matrix(0.9892 -0.1462 -0.1462 -0.9892 -209.9335 840.6226)">
	<stop  offset="0" style="stop-color:#FFD8BF"/>
	<stop  offset="1" style="stop-color:#EFA57F"/>
</linearGradient>
<path fill="url(#SVGID_9_)" d="M1205.243,908.004c0,0,78.114,106.452,63.814,168.306c0,0,48.216,87.656,58.871,144.526
	l-47.412,0.062c0,0-58.689-81.887-45.381-134.411c0,0-98.086-84.037-91.479-175.459"/>
<path fill="#F9EBE4" d="M1322.948,1220.847h0.03l4.649-1.553c-11.218-56.899-58.568-142.982-58.568-142.982
	c11.745-50.814-38.861-131.705-57.311-158.977l-2.426,0.976c0,0,62.694,117.505,53.131,151.509L1322.948,1220.847z"/>
<path d="M1278.883,1224.086l-0.957-1.332c-2.401-3.354-58.047-81.8-46.333-135.134c-12.768-11.327-97.395-89.923-91.115-176.822
	l6.359,0.459c-6.419,88.794,89.402,171.98,90.369,172.811l1.503,1.284l-0.485,1.914c-11.891,46.925,36.561,119.713,43.953,130.438
	l41.865-0.054c-11.783-55.774-57.312-138.956-57.782-139.808l-0.583-1.066l0.274-1.188c13.806-59.718-62.507-164.65-63.281-165.704
	l5.141-3.77c3.204,4.367,77.856,107.033,64.615,169.71c5.758,10.583,48.515,90.4,58.635,144.424l0.706,3.767L1278.883,1224.086z"/>
<linearGradient id="SVGID_10_" gradientUnits="userSpaceOnUse" x1="1275.8311" y1="-328.2236" x2="1388.3301" y2="-328.2236" gradientTransform="matrix(1 0 0 -1 -244 748.082)">
	<stop  offset="0" style="stop-color:#FFD8BF"/>
	<stop  offset="1" style="stop-color:#EFA57F"/>
</linearGradient>
<path fill="url(#SVGID_10_)" d="M1144.33,919.923c0,0-6.085,159.811-40.188,182.32c0,0,5.776,116.8-34.223,149.076h-38.088
	c0,0,10.949-117.562,38.088-149.076c0,0-40.948-153.735-10.83-200.951"/>
<path fill="#F9EBE4" d="M1144.33,919.923l-2.429-0.529l-7.681,1.326c0,0,4.605,156.183-40.024,180.271
	c0,0,8.825,90.674-24.277,143.095c-1.7,2.693-3.1,5.089-4.251,7.234h4.251c39.997-32.278,34.223-149.076,34.223-149.076
	C1138.245,1079.735,1144.33,919.923,1144.33,919.923z"/>
<path d="M1071.046,1254.51h-42.715l0.324-3.484c0.446-4.778,11.076-115.94,37.764-149.55c-4.518-17.402-39.227-156.11-10.02-201.897
	l5.375,3.429c-29.021,45.499,10.817,196.894,11.224,198.419l0.435,1.623l-1.103,1.276c-23.587,27.396-34.896,124.167-36.974,143.809
	h33.41c37.343-31.887,32.248-144.585,32.188-145.73l-0.087-1.816l1.517-1.004c32.359-21.36,38.698-178.198,38.754-179.78
	l6.372,0.243c-0.247,6.498-6.372,157.253-40.114,183.775c0.59,15.28,3.087,118.857-35.477,149.98L1071.046,1254.51z"/>
<path fill="#494948" d="M1072.245,874.038c-1.335,19.868-30.105,34.115-10.236,35.448l130.311,8.743
	c19.87,1.335,51.174-13.861,52.508-33.731l-8.271-246.747c1.333-19.87-34.368-68.179-54.238-69.511l-64.032-4.295
	c-19.866-1.332-43.802,25.935-45.137,45.803L1072.245,874.038z"/>
<polygon fill="#5E5E5C" points="1261.053,933.287 1248.486,925.192 1234.755,787.467 1235.175,692.739 1242.955,689.067 
	1245.201,778.986 1260.582,894.834 "/>
<rect x="1069.468" y="760.097" transform="matrix(-0.9999 0.0102 -0.0102 -0.9999 2322.3345 1531.9104)" fill="#898988" width="175.586" height="23.561"/>
<rect x="1070.767" y="755.68" transform="matrix(-0.9999 0.0102 -0.0102 -0.9999 2324.7944 1505.1166)" fill="#6D6D6D" width="175.584" height="5.613"/>
<rect x="1068.97" y="782.605" transform="matrix(-0.9999 0.0102 -0.0102 -0.9999 2321.4766 1558.9802)" fill="#6D6D6D" width="175.586" height="5.61"/>
<path d="M1182.32,568.24c19.87,1.332,55.569,49.639,54.238,69.509l8.271,246.747c-1.334,19.868-32.638,35.066-52.508,33.731
	l-130.311-8.743c-19.869-1.333,8.902-15.58,10.236-35.448l0.907-264.292c1.336-19.868,25.272-47.135,45.136-45.803L1182.32,568.24
	 M1182.746,561.881l-64.03-4.297c-23.93-1.605-50.383,28.745-51.923,51.738l-0.017,0.199l-0.002,0.203l-0.907,264.073
	c-0.554,6.971-5.942,13.736-10.281,19.181c-4.672,5.862-8.706,10.925-6.195,16.613c2.474,5.608,9.53,6.079,12.187,6.258
	l130.312,8.741c22.18,1.488,57.63-14.874,59.295-39.665l0.021-0.319l-0.011-0.32l-8.26-246.462
	C1244.074,614.75,1206.816,563.493,1182.746,561.881L1182.746,561.881z"/>
<polygon fill="#353535" points="1189.553,578.845 1221.386,562.412 1236.883,592.204 1218.027,610.109 1237.549,598.641 
	1238.67,700.824 "/>
<polyline fill="#494948" points="1072.536,789.393 1029.987,913.726 1264.882,936.738 1241.573,787.4 "/>
<polygon fill="#050500" points="1268.713,940.191 1025.625,916.63 1066.162,788.965 1072.536,789.393 1034.349,910.825 
	1261.053,933.287 1241.573,787.4 1247.94,787.074 "/>
<polygon fill="#5E5E5C" points="1241.573,787.4 1232.856,787.489 1248.486,925.192 1261.053,933.287 "/>
<path fill="#3F3F3F" d="M1079.544,610.051c2.109-30.389,48.264-42.33,48.264-42.33l-6.112-3.549l-3.409-0.229
	c-19.866-1.332-43.802,25.935-45.137,45.803l-0.504,148.059l9.074-1.301C1081.72,756.502,1077.432,640.437,1079.544,610.051z"/>
<polygon fill="#3F3F3F" points="1072.536,789.393 1084.725,790.21 1051.484,911.975 1034.349,910.825 "/>
<path fill="#4D4D4D" d="M1127.808,850.263c0,13.651-9.645,24.718-21.543,24.718l0,0c-11.896,0-21.542-11.066-21.542-24.718V608.785
	c0-13.652,9.646-24.719,21.542-24.719l0,0c2.018,0,3.973,0.318,5.824,0.914c9.071,2.918,15.719,12.469,15.719,23.803V850.263z"/>
<path fill="#353535" d="M1106.267,857.91l-7.006-14.023l-2.408-59.909c0,0-1.062-163.845-4.25-171.772
	c-1.994-4.969,6.023-18.583,12.286-28.06c-11.251,0.817-20.164,11.522-20.164,24.642v241.476c0,11.846,7.266,21.735,16.96,24.145
	L1106.267,857.91z"/>
<path d="M1106.267,878.64c-13.635,0-24.73-12.729-24.73-28.379V608.785c0-15.646,11.096-28.377,24.73-28.377
	c2.269,0,4.519,0.353,6.686,1.048c10.626,3.416,18.045,14.656,18.045,27.325v241.477
	C1130.995,865.909,1119.902,878.64,1106.267,878.64z M1106.267,587.724c-10.119,0-18.354,9.447-18.354,21.062v241.478
	c0,11.613,8.235,21.059,18.354,21.059c10.122,0,18.355-9.445,18.355-21.059V608.785c0-9.406-5.508-17.749-13.391-20.281
	C1109.625,587.985,1107.954,587.724,1106.267,587.724z"/>
<path fill="#7C3F2C" stroke="#603124" stroke-miterlimit="10" d="M1169.488,936.738c-20.829-26.839-43.331-52.176-61.878-50.146
	c-25.868,2.818-40.695,47.294-40.842,47.599l-5.762-2.731c0.662-1.393,16.541-48.006,45.91-51.208
	c20.909-2.287,45.331,23.867,67.61,52.574L1169.488,936.738z"/>
<path fill="#A35134" d="M1048.62,946.593c0,0,8.635-17.158,20.379-17.158c11.738,0,69.119,11.125,69.119,11.125
	s27.63-9.552,35.421-7.427c7.791,2.126,12.042,51.713,11.334,56.674c-0.708,4.956,9.211,19.122,12.044,22.667
	c2.832,3.541-11.336,23.378-20.545,27.628c-9.209,4.251-158.684,6.376-160.809-5.666c-2.125-12.046-6.373-31.878,7.086-38.254
	C1036.108,989.807,1048.62,946.593,1048.62,946.593z"/>
<path fill="#D88575" d="M1184.873,989.807c0.708-4.961-3.543-54.548-11.334-56.674c-0.776-0.211-1.756-0.303-2.876-0.305l-12,4.2
	c0,0,15.938,1.772,15.229,6.023c-0.707,4.25,3.543,47.817,3.543,47.817l13.814,23.377c0,0-15.584,20.543-20.545,22.668
	c-4.958,2.125-39.846,3.897-39.846,3.897l12.654,2.042c17.467-0.596,30.354-1.598,32.859-2.752
	c9.209-4.25,23.377-24.087,20.545-27.628C1194.084,1008.929,1184.165,994.763,1184.873,989.807z"/>
<path opacity="0.68" fill="#84422D" enable-background="new    " d="M1076.132,962.976c-2.656-23.29,0-32.968,0-32.97l0,0
	l-9.254-0.382c-10.648,1.851-18.258,16.966-18.258,16.966s-12.512,43.214-25.971,49.59s-9.211,26.208-7.086,38.254
	c1.615,9.15,88.259,10.122,133.852,8.194l7.911-2.526C1157.326,1040.105,1078.789,986.266,1076.132,962.976z"/>
<path d="M1106.481,1045.576c-23.82,0-45.58-0.709-61.272-1.998c-26.923-2.213-31.165-5.527-31.739-8.771l-0.299-1.682
	c-2.291-12.778-5.749-32.083,8.567-38.863c10.323-4.896,21.431-36.494,24.838-48.26l0.144-0.363
	c0.375-0.751,9.368-18.33,22.271-18.33c11.32,0,62.673,9.842,68.97,11.056c3.584-1.214,23.063-7.664,32.683-7.664
	c1.375,0,2.506,0.126,3.45,0.384c10.152,2.772,13.465,54.893,12.878,59.022c-0.484,3.387,7.347,15.717,11.602,21.038
	c0.842,1.059,1.046,2.557,0.598,4.456c-1.748,7.395-13.592,22.589-21.914,26.433
	C1172.271,1044.335,1137.07,1045.576,1106.481,1045.576z M1050.604,947.387c-1.07,3.649-13.232,44.171-27.049,50.713
	c-11.377,5.392-8.264,22.771-6.201,34.273l0.303,1.693c2.113,3.425,30.843,7.26,88.824,7.26c36.633,0,65.767-1.664,69-3.152
	c8.584-3.964,20.215-21.331,19.68-24.494c-1.202-1.573-13.32-17.662-12.391-24.175c1.098-7.679-4.728-52.835-9.789-54.321
	c-0.571-0.153-1.352-0.232-2.331-0.232c-9.69,0-31.616,7.542-31.835,7.619l-0.539,0.185l-0.561-0.108
	c-0.575-0.111-57.314-11.087-68.717-11.087C1059.247,931.56,1051.489,945.708,1050.604,947.387z"/>
<path fill="#7C3F2C" d="M1023.712,1030.891c0,0-6.446-21.957,1.913-29.396c8.358-7.438,23.672-26.034,25.046-38.52
	c1.376-12.485-6.062,67.915-8.896,67.915C1038.938,1030.891,1023.712,1030.891,1023.712,1030.891z"/>
<path fill="none" stroke="#000000" stroke-width="2" stroke-miterlimit="10" d="M1165.748,963.241
	c-0.017-6.313-14.986-5.328-18.438-4.906c-10.784,1.32-19.887,9.123-30.536,10.277c-10.2,1.106-21.739,0.062-31.34-3.159
	c-8.77-2.946-18.97-3.767-26.305-10.005"/>
<linearGradient id="SVGID_11_" gradientUnits="userSpaceOnUse" x1="1329.1602" y1="-126.3242" x2="1374.8584" y2="-126.3242" gradientTransform="matrix(1 0 0 -1 -244 748.082)">
	<stop  offset="0" style="stop-color:#FFD8BF"/>
	<stop  offset="1" style="stop-color:#EFA57F"/>
</linearGradient>
<path fill="url(#SVGID_11_)" stroke="#000000" stroke-width="2" stroke-miterlimit="10" d="M1130.858,874.405
	c0-13.986-10.228-25.324-22.848-25.324c-12.619,0-22.851,11.338-22.851,25.324c0,3.96,0.845,7.695,2.308,11.033v9.156
	c0,2.835,2.3,5.135,5.135,5.135c2.067,0,3.836-1.225,4.651-2.984c0.446,0.266,0.909,0.502,1.372,0.736
	c0.928,1.357,2.481,2.25,4.25,2.25c0.602,0,1.175-0.122,1.71-0.312c1.121,0.188,2.258,0.312,3.425,0.312
	c1.166,0,2.304-0.126,3.424-0.312c0.535,0.191,1.106,0.312,1.711,0.312c1.768,0,3.324-0.893,4.25-2.25
	c0.463-0.232,0.928-0.471,1.374-0.736c0.815,1.76,2.584,2.984,4.648,2.984c2.835,0,5.135-2.3,5.135-5.135v-9.156
	C1130.014,882.099,1130.858,878.367,1130.858,874.405z"/>
<linearGradient id="SVGID_12_" gradientUnits="userSpaceOnUse" x1="-328.8066" y1="316.0488" x2="-235.8297" y2="227.3223" gradientTransform="matrix(-1 0 0 -1 868.9941 748.082)">
	<stop  offset="0" style="stop-color:#FFD8BF"/>
	<stop  offset="1" style="stop-color:#EFA57F"/>
</linearGradient>
<ellipse fill="url(#SVGID_12_)" cx="1163.675" cy="464.598" rx="82.176" ry="95.635"/>
<path fill="#F9EBE4" d="M1160.224,558.107c44.14,0,80.053-41.947,80.053-93.509c0-51.56-35.913-93.509-80.053-93.509
	c-16.229,0-31.335,5.688-43.963,15.419c13.4-11.037,29.746-17.546,47.412-17.546c16.192,0,31.278,5.473,44.003,14.883
	c22.228,17.62,36.851,47.242,36.851,80.752c0,33.503-14.615,63.115-36.834,80.738c-12.727,9.42-27.819,14.896-44.02,14.896
	c-17.658,0-33.997-6.502-47.392-17.531C1128.905,552.428,1144.004,558.107,1160.224,558.107z"/>
<ellipse fill="none" cx="1163.675" cy="464.598" rx="82.176" ry="95.635"/>
<path d="M1080.112,464.598c0-53.906,37.816-97.76,84.299-97.76c46.485,0,84.301,43.856,84.301,97.76
	c0,53.904-37.815,97.759-84.301,97.759C1117.929,562.357,1080.112,518.505,1080.112,464.598z M1084.363,464.598
	c0,51.562,35.909,93.509,80.048,93.509c44.141,0,80.051-41.947,80.051-93.509c0-51.562-35.91-93.509-80.051-93.509
	C1120.272,371.089,1084.363,413.039,1084.363,464.598z"/>
<path opacity="0.35" fill="#C98061" enable-background="new    " d="M1082.006,454.065c11.493-15.475,37.037-16.028,37.037-16.028
	s-0.124,31.66-6.371,50.442c3.407,21.501,15.534,46.836,47.554,69.63c0,0-31.418,4.465-60.708-33.782
	c-11.263-16.366-18.017-37.125-18.017-59.727C1081.499,461.039,1081.678,457.526,1082.006,454.065z"/>
<path d="M1080.112,464.598c0-53.906,37.816-97.76,84.299-97.76c46.485,0,84.301,43.856,84.301,97.76
	c0,53.904-37.815,97.759-84.301,97.759C1117.929,562.357,1080.112,518.505,1080.112,464.598z M1084.363,464.598
	c0,51.562,35.909,93.509,80.048,93.509c44.141,0,80.051-41.947,80.051-93.509c0-51.562-35.91-93.509-80.051-93.509
	C1120.272,371.089,1084.363,413.039,1084.363,464.598z"/>
<path opacity="0.75" fill="#FFD8BF" enable-background="new    " d="M1116.507,473.283l-2.557-4.739l-7.737-1.594l-6.345,1.774
	l-5.709,5.132l-3.188,11.688l1.859,10.494l5.711,11.688l11.187,3.304c0,0-15.661-12.022-5.987-26.149
	c7.403-1.734,7.152,0.545,7.152,0.545l-0.972-3.811l-4.794-3.128l-4.591-0.669C1100.535,477.815,1099.674,466.864,1116.507,473.283z
	"/>
<path d="M1120.841,472.058c0.008,0.034,0.012,0.061,0.021,0.093L1120.841,472.058z"/>
<path d="M1105.362,464.711c5.351-0.667,10.834,1.711,15.043,6.528c0.203,0.232,0.332,0.506,0.419,0.789l-4.317,1.254
	c-3.171-3.277-6.911-4.819-10.617-4.354c-8.025,1.001-13.407,11.042-11.992,22.377c1.285,10.307,7.924,18.325,15.19,18.783
	l2.7,3.987c-0.217,0.105-0.442,0.186-0.689,0.219c-0.025,0.004-0.05,0.006-0.074,0.008c-10.282,0.907-19.656-8.963-21.344-22.467
	C1087.975,478.168,1095.01,466.001,1105.362,464.711z"/>
<path fill="none" stroke="#000000" stroke-miterlimit="10" d="M1099.87,479.3c-0.135-3.176,6.94-0.41,8.107,0.466
	c1.801,1.352,4.945,4.964,4.543,7.234c-0.515-1.759-3.303-2.15-4.821-2.259c-1.829-0.131-2.783-0.209-3.973,1.212
	c-2.422,2.89-2.878,8.464-2.347,12.162c0.432,2.992,2.976,8.557,6.749,6.705c1.671-0.82,1.996-2.877,2.258-4.535
	c0.413-2.646,0.662-4.657-1.483-6.64"/>
<rect x="1198.572" y="436.748" transform="matrix(0.9811 -0.1937 0.1937 0.9811 -62.4299 242.8559)" fill="#E8D972" width="24.441" height="7.915"/>
<path d="M1195.569,437.595l28.146-5.559l2.356,11.935l-28.147,5.56L1195.569,437.595z M1222.044,434.533l-23.978,4.735l1.534,7.767
	l23.977-4.735L1222.044,434.533z"/>
<path fill="#FCEEAC" d="M1220.321,436.617c-0.336,0.292,0.116,1.304,0.133,1.762c0.019,0.477,0.183,1.495,0,1.955
	c-0.175,0.44-0.219,0.428-0.484-0.057c-0.199-0.365-0.211-0.841-0.408-1.233c-0.218-0.42-0.606-0.811-0.778-1.243
	c-0.147-0.371,0.052-1.047-0.413-1.007c-1.104,0.099-0.644,2.585-0.639,3.175c0.004,0.525,0.168,1.484,0,2.023
	c-0.258,0.832-1.237,0.527-1.607-0.208c-0.244-0.489,0.215-4.461-1.295-3.515c-0.77,0.484-0.236,1.585-0.346,2.227
	c-0.086,0.491-0.11,0.565-0.615,0.65c-0.807,0.138-1.021-0.417-1.382-1.03c-0.395-0.668-1.096-2.585-1.387-0.708
	c-0.122,0.797-0.224,2.154-1.326,2.022c-1.326-0.157-2.968-3.378-4.252-1.294c-0.472,0.763-0.907,1.523-1.47,2.257
	c-0.469,0.608-0.867,1.401-1.38,0.491c-0.527-0.939,0.131-1.805-0.913-2.491c-0.893-0.589-1.418-0.245-1.754,0.69
	c-0.199,0.557-0.301,1.452-0.326,2.036c-0.033,0.74,0.4,1.423,0.05,2.133c-0.155,0.006-0.315,0-0.476,0.002l-1.183-5.983
	l23.978-4.734l0.77,3.896C1222.278,437.817,1221.019,436.019,1220.321,436.617z"/>
<path fill="#FFFFFF" d="M1193.374,463.391c0,5.135,14.173,12.261,19.308,12.261c5.134,0,9.298-4.164,9.298-9.298
	c0-5.135-4.164-9.298-9.298-9.298C1207.547,457.056,1193.374,458.257,1193.374,463.391z"/>
<circle fill="#29ABE2" cx="1217.264" cy="465.782" r="3.985"/>
<circle fill="#FFFFFF" cx="1214.541" cy="463.391" r="2.159"/>
<linearGradient id="SVGID_13_" gradientUnits="userSpaceOnUse" x1="1490.1494" y1="254.895" x2="1399.8247" y2="293.8579" gradientTransform="matrix(1 0 0 -1 -244 748.082)">
	<stop  offset="0.7502" style="stop-color:#FFD8BF"/>
	<stop  offset="1" style="stop-color:#EFA57F"/>
</linearGradient>
<path fill="url(#SVGID_13_)" d="M1228.729,512.932c21.759,7.305,25.905-15.596,25.905-15.596l-14.366-33.944"/>
<path fill="#F9EBE4" d="M1240.372,462.736l-0.85,7.307l12.234,29.895c0,0-8.928,14.682-19.82,13.885l-0.792,2.377l7.996,0.48
	l10.757-4.238l6.332-14.477L1240.372,462.736z"/>
<path d="M1234.602,518.449c12.608-0.719,21.628-8.756,23.743-19.201l0.074-0.725l-9.922-27.99l-3.664-1.428l9.185,30.395
	c1.027,5.679-12.11,16.088-22.878,16.702L1234.602,518.449z"/>
<path fill="none" stroke="#000000" stroke-width="2" stroke-linecap="round" stroke-linejoin="round" stroke-miterlimit="10" d="
	M1199.669,524.558c0,6.165,10.84,8.966,20.186,8.966"/>
<line fill="none" stroke="#F9EBE4" stroke-width="2" stroke-miterlimit="10" x1="1212.383" y1="537.507" x2="1199.669" y2="532.195"/>
<ellipse fill="#BFB262" cx="1060.14" cy="410.565" rx="39.729" ry="40.05"/>
<path d="M1060.14,453.805c-23.664,0-42.914-19.397-42.914-43.238s19.252-43.237,42.914-43.237c23.663,0,42.917,19.396,42.917,43.237
	S1083.803,453.805,1060.14,453.805z M1060.14,373.703c-20.146,0-36.538,16.537-36.538,36.862s16.392,36.862,36.538,36.862
	c20.149,0,36.541-16.537,36.541-36.862S1080.289,373.703,1060.14,373.703z"/>
<path fill="#E8D972" d="M1191.956,355.216c-5.744-0.701-12.151,0.722-17.823,3.74l0.002-0.023c0,0-62.771-27.626-94.022,14.168
	c-31.253,41.797-56.236,110.156,0,127.514c27.587-15.876,12.191-25.99,32.443-36.019c0,0,75.154-17.242,55.494-59.859l0.002-0.017
	c1.835,2.074,3.936,4.167,6.371,6.28c35.598,30.815,71.426,5.498,71.426,5.498C1285.396,379.496,1213.739,357.873,1191.956,355.216z
	"/>
<path d="M1225.167,453.008c-3.482,0-6.393,2.042-7.197,4.78c-1.656-1.022-3.412-1.62-5.197-1.909c0.004-0.038,0.025-0.07,0.025-0.11
	c0-2.25,1.324-4.153,2.895-4.153c0.588,0,1.062-0.476,1.062-1.062s-0.475-1.062-1.062-1.062c-2.743,0-4.975,2.77-5.012,6.187
	c-2.638-0.087-5.275,0.406-7.686,1.158c0.334-3.158,1.988-5.646,3.914-5.646c0.584,0,1.063-0.477,1.063-1.062
	c0-0.587-0.479-1.063-1.063-1.063c-3.328,0-5.936,3.719-6.082,8.532c-4.639,1.807-8.001,4.228-8.08,4.285
	c-0.473,0.349-0.577,1.012-0.229,1.486c0.21,0.284,0.531,0.435,0.859,0.435c0.218,0,0.436-0.068,0.627-0.206
	c0.162-0.117,16.462-11.849,25.647-1.652c0.391,0.438,1.065,0.468,1.499,0.079c0.438-0.393,0.473-1.064,0.078-1.5
	c-0.439-0.489-0.898-0.919-1.363-1.326c0.07-2.248,2.416-4.062,5.301-4.062c0.59,0,1.062-0.477,1.062-1.063
	C1226.229,453.483,1225.757,453.008,1225.167,453.008z"/>
<path d="M1259.665,388.669c-7.364-22.574-51.925-34.739-67.324-36.617c-5.826-0.714-12.33,0.5-18.312,3.384
	c-5.07-2.038-23.068-8.643-43.534-8.643c-23.016,0-40.827,8.209-52.936,24.401c-20.813,27.834-41.543,71.322-31.467,102.276
	c4.799,14.74,15.927,24.896,33.076,30.19c0.309,0.096,0.627,0.143,0.941,0.143c0.553,0,1.101-0.145,1.59-0.426
	c1.592-0.915,6.385-4.338,7.725-5.226l-1.205-5.33c-1.318,0.933-6.835,3.332-8.493,4.323c-14.302-4.746-23.576-13.37-27.573-25.647
	c-9.321-28.635,10.611-69.873,30.51-96.485c10.838-14.496,26.931-21.845,47.83-21.845c20.796,0,39.462,7.474,42.052,8.556
	c0.944,0.542,2.108,0.567,3.082,0.046c5.161-2.748,11.006-3.993,15.941-3.392c15.785,1.926,56.055,13.943,62.032,32.268
	c2.347,7.187-0.937,15.046-9.759,23.363c-0.776,0.519-4.263,2.758-9.618,4.883l0,0l2.589,5.838
	c6.539-2.626,10.563-5.406,10.873-5.625c0.12-0.085,0.232-0.177,0.336-0.276C1258.946,408.612,1262.86,398.464,1259.665,388.669z"/>
<path fill="#FCEEAC" d="M1235.974,412.998c0,0,16.381-15.046,9.875-26.435c-6.509-11.389-47.517-30.948-69.3-19.725
	c-21.784,11.224,15.763,0.49,15.763,0.49s5.485-1.49,5.755,2.497c0.266,3.987,10.024-1.987,4.877-2.986
	c-5.146-0.999,41.79,11.743,38.425,21.401c0,0,0.709,8.596-4.782,10.543c-5.487,1.949,7.023,2.302,7.94-3.542
	C1245.441,389.396,1235.974,412.998,1235.974,412.998z"/>
<path fill="#FCEEAC" d="M1080.112,491.501c0,0-41.703-9.032-17.263-78.503c24.44-69.471,82.353-58.258,103.604-49.519
	c21.252,8.739-20.721,0-20.721,0s-34.349-3.996-45.865,9.013c-11.516,13.008-6.734,2.914-6.734,2.914s-22.314,18.519-20.189,28.121
	c2.125,9.602,5.035,5.882,7.168,5.351c2.13-0.531-8.957,8.69-10.355-1.594c-1.399-10.284-23.909,56.85,5.312,73.32
	C1084.633,488.308,1086.48,491.508,1080.112,491.501z"/>
<path fill="#C9BA63" d="M1164.411,403.212c0,0,9.128,40.311-55.691,58.585c-23.377,11.191-16.254,23.428-17.001,23.588
	s-9.89-23.026,16.292-28.332C1134.194,451.751,1162.017,420.213,1164.411,403.212z"/>
<path fill="#C9BA63" d="M1172.46,403.212c0,0,37.561,31.523,56.688,14.521C1221.71,415.253,1215.305,420.568,1172.46,403.212z"/>
<path fill="#D3C172" d="M1067.632,377c0,0-34.284,0.57-38.254,22.789C1027.962,407.815,1067.632,377,1067.632,377z"/>
<polygon points="1237.848,625.824 1235.614,602.238 1219.407,612.367 1216.22,608.826 1234.19,591.636 1220.479,565.27 
	1197.133,575.109 1195.265,573.754 1222.295,559.548 1239.574,592.775 1230.608,599.936 1220.646,608.474 1239.481,595.037 
	1240.052,622.894 "/>
</svg>
