<?xml version="1.0" encoding="utf-8"?>
<!-- Generator: Adobe Illustrator 15.0.0, SVG Export Plug-In  -->
<!DOCTYPE svg PUBLIC "-//W3C//DTD SVG 1.1//EN" "http://www.w3.org/Graphics/SVG/1.1/DTD/svg11.dtd" [
	<!ENTITY ns_flows "http://ns.adobe.com/Flows/1.0/">
]>
<svg version="1.1"
	 xmlns="http://www.w3.org/2000/svg" xmlns:xlink="http://www.w3.org/1999/xlink" xmlns:a="http://ns.adobe.com/AdobeSVGViewerExtensions/3.0/"
	 x="0px" y="0px" width="630px" height="654px" viewBox="-24.994 0.262 630 654"
	 overflow="visible" enable-background="new -24.994 0.262 630 654" xml:space="preserve">
<defs>
</defs>
<polygon fill="#3D7C32" stroke="#34682A" stroke-width="2" stroke-miterlimit="10" points="541.664,230.841 588.284,192.221 
	531.078,192.221 559.826,151.566 526.499,151.566 543.793,110.911 495.363,110.911 512.661,151.566 479.33,151.566 508.078,192.221 
	450.87,192.221 497.492,230.841 436.643,230.841 519.577,287.758 602.513,230.841 "/>
<polygon fill="#3D7C32" points="534.646,68.228 519.577,125.141 504.51,68.228 "/>
<path fill="#5E3F2F" stroke="#442D23" stroke-width="2" stroke-miterlimit="10" d="M519.577,335.429
	c28.13,0,50.933-22.799,50.933-50.93H468.647C468.647,312.628,491.449,335.429,519.577,335.429z"/>
<rect x="456.792" y="274.667" fill="#5E3F2F" stroke="#442D23" stroke-width="2" stroke-miterlimit="10" width="125.572" height="11.459"/>
<path fill="#4C3227" d="M519.577,335.429c8.883,0,17.232-2.279,24.502-6.271c-32.218-8.336-41.187-44.657-41.187-44.657h-34.246
	C468.647,312.628,491.449,335.429,519.577,335.429z"/>
<polygon fill="#36682C" points="456.792,232.596 497.625,265.887 475.233,232.596 "/>
<polygon fill="#36682C" points="468.647,194.05 502.39,227.335 483.886,194.05 "/>
<polygon fill="#36682C" points="485.946,153.305 517.075,186.594 500.008,153.305 "/>
<polygon fill="#36682C" points="501.512,112.688 518.521,145.975 509.191,112.688 "/>
<polygon fill="#36682C" points="506.562,68.228 516.675,101.513 511.131,68.228 "/>
<polygon fill="#47893A" points="583.088,232.596 542.256,265.887 564.647,232.596 "/>
<polygon fill="#47893A" points="571.233,194.05 537.49,227.335 555.994,194.05 "/>
<polygon fill="#47893A" points="553.935,153.305 522.803,186.594 539.875,153.305 "/>
<polygon fill="#47893A" points="538.368,112.688 521.362,145.975 530.688,112.688 "/>
<polygon fill="#47893A" points="533.317,68.228 523.205,101.513 528.75,68.228 "/>
<path fill="#4C3227" d="M580.073,287.758c0.08-1.081,0.13-2.161,0.13-3.257h-76.611l-5.967,3.257H580.073z"/>
<polygon fill="#6D4838" points="555.361,291.572 563.484,291.572 548.556,311.548 "/>
<circle fill="#36682C" cx="534.067" cy="263.692" r="3.073"/>
<path fill="#36682C" d="M544.308,249.049c1.134,0,2.053,0.918,2.053,2.05c0,1.137-0.919,2.056-2.053,2.056
	c-1.132,0-2.051-0.919-2.051-2.056C542.256,249.968,543.175,249.049,544.308,249.049z"/>
<circle fill="#36682C" cx="522.452" cy="251.195" r="1.954"/>
<circle fill="#36682C" cx="532.531" cy="214.735" r="1.538"/>
<circle fill="#36682C" cx="541.611" cy="204.792" r="2.695"/>
<circle fill="#36682C" cx="527.701" cy="198.805" r="3.293"/>
<circle fill="#36682C" cx="522.102" cy="167.425" r="2.523"/>
<circle fill="#36682C" cx="532.591" cy="156.03" r="2.725"/>
<circle fill="#36682C" cx="523.642" cy="121.081" r="4.061"/>
<circle fill="#36682C" cx="522.562" cy="72.128" r="2.064"/>
<circle fill="#36682C" cx="524.234" cy="82.736" r="2.134"/>
<circle fill="#47893A" cx="530.993" cy="207.491" r="1.609"/>
<circle fill="#47893A" cx="524.625" cy="159.633" r="1.61"/>
<circle fill="#47893A" cx="521.362" cy="130.949" r="1.608"/>
<circle fill="#47893A" cx="513.227" cy="115.409" r="1.61"/>
<circle fill="#47893A" cx="539.979" cy="214.735" r="1.609"/>
<path fill="#47893A" d="M534.067,249.588c0.888,0,1.608,0.719,1.608,1.605c0,0.893-0.721,1.609-1.608,1.609
	s-1.609-0.718-1.609-1.609C532.458,250.307,533.18,249.588,534.067,249.588z"/>
<circle fill="#47893A" cx="522.451" cy="260.617" r="1.61"/>
<path fill="#47893A" d="M548.903,242.37c0.72,0,1.304,0.584,1.304,1.306c0,0.72-0.584,1.307-1.304,1.307
	c-0.723,0-1.308-0.587-1.308-1.307C547.596,242.955,548.181,242.37,548.903,242.37z"/>
<linearGradient id="SVGID_1_" gradientUnits="userSpaceOnUse" x1="824.6816" y1="487.6543" x2="824.6816" y2="482.0966" gradientTransform="matrix(0 -1 -1 0 497.3867 1042.166)">
	<stop  offset="0" style="stop-color:#262626"/>
	<stop  offset="1" style="stop-color:#000000"/>
</linearGradient>
<path fill="url(#SVGID_1_)" stroke="#000000" stroke-width="2" stroke-miterlimit="10" d="M18.435,125.141
	c-9.352,0-16.935,0.554-16.935,9.909v161.354c0,9.351,7.58,13.423,16.935,13.423l0,0c9.354,0,16.938-4.068,16.938-13.423V135.049
	C35.37,125.697,27.788,125.141,18.435,125.141L18.435,125.141z"/>
<path fill="#B22626" stroke="#771104" stroke-miterlimit="10" d="M35.37,307.745c0,0,11.277-17.562,22.022-17.562
	c10.743,0,94.252-4.682,96.009,0c1.756,4.682,16.39,28.312,16.39,28.312L35.37,307.745z"/>
<linearGradient id="SVGID_2_" gradientUnits="userSpaceOnUse" x1="139.8428" y1="128.021" x2="139.8428" y2="122.4629" gradientTransform="matrix(1 0 0 -1 -46 437.8105)">
	<stop  offset="0" style="stop-color:#262626"/>
	<stop  offset="1" style="stop-color:#000000"/>
</linearGradient>
<path fill="url(#SVGID_2_)" stroke="#000000" stroke-width="2" stroke-miterlimit="10" d="M186.186,318.495
	c0-9.354-0.558-16.938-9.909-16.938H14.92c-9.353,0-13.421,7.58-13.421,16.938l0,0c0,9.352,4.068,16.936,13.421,16.936h161.356
	C185.627,335.429,186.186,327.847,186.186,318.495L186.186,318.495z"/>
<path fill="#771104" d="M47.809,297.718c0,0,6.364-5.049,9.878-5.049c3.513,0,9.22,6.146,18.439,6.146s-28.318,0-28.318,0
	L47.809,297.718L47.809,297.718z"/>
<path fill="#771104" d="M131.21,288.103c-15.971-0.037-37.393,0.753-53.246,1.368c6.478,2.134,20.44,5.909,35.922,4.952
	C125.003,293.736,129.474,290.775,131.21,288.103z"/>
<radialGradient id="SVGID_3_" cx="115.542" cy="151.6958" r="6.554" fx="111.8669" fy="147.2046" gradientTransform="matrix(1 0 0 -1 -46 437.8105)" gradientUnits="userSpaceOnUse">
	<stop  offset="0" style="stop-color:#FFF6BF"/>
	<stop  offset="0.5644" style="stop-color:#FFAC00"/>
	<stop  offset="1" style="stop-color:#FFC900"/>
</radialGradient>
<circle fill="url(#SVGID_3_)" stroke="#D19A00" stroke-miterlimit="10" cx="69.542" cy="286.115" r="6.554"/>
<radialGradient id="SVGID_4_" cx="128.6489" cy="151.6958" r="6.5542" fx="124.9737" fy="147.2043" gradientTransform="matrix(1 0 0 -1 -46 437.8105)" gradientUnits="userSpaceOnUse">
	<stop  offset="0" style="stop-color:#FFF6BF"/>
	<stop  offset="0.5644" style="stop-color:#FFAC00"/>
	<stop  offset="1" style="stop-color:#FFC900"/>
</radialGradient>
<circle fill="url(#SVGID_4_)" stroke="#D19A00" stroke-miterlimit="10" cx="82.649" cy="286.115" r="6.554"/>
<radialGradient id="SVGID_5_" cx="141.7593" cy="151.6958" r="6.5542" fx="138.0842" fy="147.2043" gradientTransform="matrix(1 0 0 -1 -46 437.8105)" gradientUnits="userSpaceOnUse">
	<stop  offset="0" style="stop-color:#FFF6BF"/>
	<stop  offset="0.5644" style="stop-color:#FFAC00"/>
	<stop  offset="1" style="stop-color:#FFC900"/>
</radialGradient>
<circle fill="url(#SVGID_5_)" stroke="#D19A00" stroke-miterlimit="10" cx="95.759" cy="286.115" r="6.554"/>
<radialGradient id="SVGID_6_" cx="155.4043" cy="151.6958" r="6.554" fx="151.7292" fy="147.2046" gradientTransform="matrix(1 0 0 -1 -46 437.8105)" gradientUnits="userSpaceOnUse">
	<stop  offset="0" style="stop-color:#FFF6BF"/>
	<stop  offset="0.5644" style="stop-color:#FFAC00"/>
	<stop  offset="1" style="stop-color:#FFC900"/>
</radialGradient>
<circle fill="url(#SVGID_6_)" stroke="#D19A00" stroke-miterlimit="10" cx="109.404" cy="286.115" r="6.554"/>
<radialGradient id="SVGID_7_" cx="168.5151" cy="151.6958" r="6.5542" fx="164.8401" fy="147.2043" gradientTransform="matrix(1 0 0 -1 -46 437.8105)" gradientUnits="userSpaceOnUse">
	<stop  offset="0" style="stop-color:#FFF6BF"/>
	<stop  offset="0.5644" style="stop-color:#FFAC00"/>
	<stop  offset="1" style="stop-color:#FFC900"/>
</radialGradient>
<circle fill="url(#SVGID_7_)" stroke="#D19A00" stroke-miterlimit="10" cx="122.516" cy="286.115" r="6.554"/>
<radialGradient id="SVGID_8_" cx="181.623" cy="151.6953" r="6.5542" fx="177.948" fy="147.2039" gradientTransform="matrix(1 0 0 -1 -46 437.8105)" gradientUnits="userSpaceOnUse">
	<stop  offset="0" style="stop-color:#FFF6BF"/>
	<stop  offset="0.5644" style="stop-color:#FFAC00"/>
	<stop  offset="1" style="stop-color:#FFC900"/>
</radialGradient>
<path fill="url(#SVGID_8_)" stroke="#D19A00" stroke-miterlimit="10" d="M135.624,279.561c3.62,0,6.553,2.936,6.553,6.554
	c0,3.619-2.933,6.556-6.553,6.556c-3.622,0-6.555-2.937-6.555-6.556C129.069,282.496,132.002,279.561,135.624,279.561z"/>
<linearGradient id="SVGID_9_" gradientUnits="userSpaceOnUse" x1="82.4658" y1="306.1313" x2="82.4658" y2="304.0817" gradientTransform="matrix(1 0 0 -1 -46 437.8105)">
	<stop  offset="0" style="stop-color:#FFF6BF"/>
	<stop  offset="0.5644" style="stop-color:#FFAC00"/>
	<stop  offset="1" style="stop-color:#FFC900"/>
</linearGradient>
<rect x="24.903" y="131.534" fill="url(#SVGID_9_)" width="23.124" height="4.39"/>
<linearGradient id="SVGID_10_" gradientUnits="userSpaceOnUse" x1="220.0454" y1="141.479" x2="220.0454" y2="133.7822" gradientTransform="matrix(1 0 0 -1 -46 437.8105)">
	<stop  offset="0" style="stop-color:#FFF6BF"/>
	<stop  offset="0.5644" style="stop-color:#FFAC00"/>
	<stop  offset="1" style="stop-color:#FFC900"/>
</linearGradient>
<rect x="169.792" y="294.575" fill="url(#SVGID_10_)" stroke="#D19A00" stroke-miterlimit="10" width="8.506" height="11.562"/>
<rect x="43.479" y="134.607" fill="#FFC900" width="4.549" height="7.685"/>
<linearGradient id="SVGID_11_" gradientUnits="userSpaceOnUse" x1="441.0771" y1="-63.8789" x2="522.0859" y2="-63.8789" gradientTransform="matrix(1 0 0 1 -290 350.582)">
	<stop  offset="0" style="stop-color:#FFD8BF"/>
	<stop  offset="1" style="stop-color:#EFA57F"/>
</linearGradient>
<path fill="url(#SVGID_11_)" d="M197.584,263.091c-6.771,0-13.062,1.354-18.39,3.658c-0.796-0.547-1.759-0.873-2.799-0.873h-20.378
	c-2.73,0-4.94,2.208-4.94,4.938c0,2.728,2.209,4.938,4.94,4.938h7.169c-3.958,0-7.169,3.209-7.169,7.168
	c0,3.41,2.384,6.25,5.57,6.978c-0.239,0.546-0.377,1.143-0.377,1.778c0,2.435,1.974,4.408,4.408,4.41
	c-0.59,0.849-0.937,1.878-0.937,2.989c0,2.907,2.357,5.266,5.267,5.266h4.762c0.986,0.6,2.013,1.165,3.092,1.687
	c-0.008,0.104-0.032,0.203-0.032,0.312c0,2.14,1.733,3.872,3.876,3.872h13.012c0.97,0.057,1.94,0.104,2.93,0.104
	c19.05,0,34.498-10.573,34.498-23.609C232.079,273.663,216.635,263.091,197.584,263.091z"/>
<linearGradient id="SVGID_12_" gradientUnits="userSpaceOnUse" x1="441.0771" y1="-63.8789" x2="522.0859" y2="-63.8789" gradientTransform="matrix(1 0 0 1 -290 350.582)">
	<stop  offset="0" style="stop-color:#FFD8BF"/>
	<stop  offset="1" style="stop-color:#EFA57F"/>
</linearGradient>
<path fill="url(#SVGID_12_)" stroke="#000000" stroke-width="2" stroke-miterlimit="10" d="M197.584,263.091
	c-6.771,0-13.062,1.354-18.39,3.658c-0.796-0.547-1.759-0.873-2.799-0.873h-20.378c-2.73,0-4.94,2.208-4.94,4.938
	c0,2.728,2.209,4.938,4.94,4.938h7.169c-3.958,0-7.169,3.209-7.169,7.168c0,3.41,2.384,6.25,5.57,6.978
	c-0.239,0.546-0.377,1.143-0.377,1.778c0,2.435,1.974,4.408,4.408,4.41c-0.59,0.849-0.937,1.878-0.937,2.989
	c0,2.907,2.357,5.266,5.267,5.266h4.762c0.986,0.6,2.013,1.165,3.092,1.687c-0.008,0.104-0.032,0.203-0.032,0.312
	c0,2.14,1.733,3.872,3.876,3.872h13.012c0.97,0.057,1.94,0.104,2.93,0.104c19.05,0,34.498-10.573,34.498-23.609
	C232.079,273.663,216.635,263.091,197.584,263.091z"/>
<path d="M404.437,436.173c0,16.458,22.938,29.798,6.48,29.798H302.986c-16.457,0-41.428-14.262-41.428-30.719l20.47-202.992
	c0-16.456,32.104-54.314,48.563-54.314h53.03c16.457,0,34.683,23.811,34.683,40.264L404.437,436.173z"/>
<path fill="#E6E6E6" d="M389.486,192.16c0,0,22.251,1.755,20.192,22.245c-2.062,20.487-61.188,79.03-61.188,79.03L212.09,306.314
	v-39.809l112.406-17.271C324.498,249.235,356.131,189.818,389.486,192.16z"/>
<path fill="#F2F2F2" d="M339.063,255.09c0.551-0.477-0.856-0.584-2.868-0.533C337.547,255.159,338.646,255.45,339.063,255.09z"/>
<path fill="#F2F2F2" d="M389.456,194.501l1.724-2.105c-1.048-0.182-1.695-0.235-1.695-0.235
	c-33.355-2.342-64.988,57.075-64.988,57.075l-17.295,2.658c6.35-0.622,10.473-0.354,10.309,1.44
	c-0.688,7.463,7.711,8.342,4.207,6.146c-3.5-2.193,2.779-7.464,2.779-7.464l2.705,3.234c0,0,5.443-0.601,8.991-0.694
	c-3.569-1.58-8.991-5.354-8.991-5.354C357.288,194.58,389.456,194.501,389.456,194.501z"/>
<path fill="#F2F2F2" d="M290.212,254.503l-78.121,12.003v3.951h3.368h13.171l16.247-5.707
	C244.873,264.75,269.608,258.382,290.212,254.503z"/>
<path fill="#D8D8D8" d="M375.056,259.041l14.927-17.123l12.513-21.075l1.757-17.342l-2.686-7.159
	c-3.86-2.516-8.096-3.547-10.385-3.946h-0.002c0,0,8.022,24.059,3.413,24.496c-4.61,0.439-6.586,16.246-9.878,12.952
	c-3.292-3.292-30.735,49.176-33.588,34.247c0,0-9.221,1.537-3.074,8.782c6.147,7.242-4.83,8.478-6.365,6.652
	c-1.538-1.823-36.223,7.615-36.223,7.615l-34.247,3.045l-31.394-3.045l-7.122-3.513l-11.393,11.416h-9.221v7.082l24.662-3.131
	l67.177-4.976l38.418-2.616l12.294-11.658L375.056,259.041z"/>
<path fill="#CCCCCC" d="M397.673,194.29c2.199,6.54,5.644,19.7,1.167,28.018c-6.148,11.415-54.737,62.639-54.737,62.639
	l-35.417,5.269l-49.468,4.392l-47.126,2.87v8.838l136.402-12.879c0,0,59.127-58.542,61.188-79.03
	C410.885,202.43,403.785,196.858,397.673,194.29z"/>
<path fill="#CCCCCC" d="M234.875,270.432c0-1.199-0.973-2.171-2.173-2.171l0,0c-1.199,0-2.172,0.974-2.172,2.171v26.391
	c0,1.201,0.973,2.174,2.172,2.174l0,0c1.2,0,2.173-0.977,2.173-2.174V270.432z"/>
<circle fill="#333333" cx="224.97" cy="290.363" r="3.219"/>
<path fill="#232120" d="M224.97,294.021c-2.017,0-3.657-1.644-3.657-3.659c0-2.019,1.642-3.659,3.657-3.659
	c2.019,0,3.658,1.642,3.658,3.659C228.628,292.378,226.987,294.021,224.97,294.021z M224.97,287.58c-1.533,0-2.779,1.25-2.779,2.781
	c0,1.532,1.247,2.781,2.779,2.781c1.533,0,2.78-1.249,2.78-2.781C227.75,288.83,226.504,287.58,224.97,287.58z"/>
<circle fill="#1A1A1A" cx="224.01" cy="289.347" r="0.622"/>
<path fill="#232120" d="M224.01,290.187c-0.463,0-0.842-0.379-0.842-0.842c0-0.466,0.378-0.84,0.842-0.84s0.841,0.377,0.841,0.84
	C224.851,289.812,224.474,290.187,224.01,290.187z M224.01,288.944c-0.223,0-0.402,0.181-0.402,0.4c0,0.222,0.18,0.402,0.402,0.402
	s0.401-0.182,0.401-0.402S224.232,288.944,224.01,288.944z"/>
<circle fill="#1A1A1A" cx="225.985" cy="289.347" r="0.622"/>
<path fill="#232120" d="M225.985,290.187c-0.463,0-0.842-0.379-0.842-0.842c0-0.466,0.378-0.84,0.842-0.84
	c0.462,0,0.84,0.377,0.84,0.84C226.825,289.812,226.448,290.187,225.985,290.187z M225.985,288.944c-0.225,0-0.403,0.181-0.403,0.4
	c0,0.222,0.179,0.402,0.403,0.402c0.221,0,0.401-0.182,0.401-0.402S226.207,288.944,225.985,288.944z"/>
<circle fill="#1A1A1A" cx="224.01" cy="291.405" r="0.623"/>
<path fill="#232120" d="M224.01,292.243c-0.463,0-0.842-0.378-0.842-0.841c0-0.465,0.378-0.84,0.842-0.84s0.841,0.377,0.841,0.84
	S224.474,292.243,224.01,292.243z M224.01,291.003c-0.223,0-0.402,0.18-0.402,0.399c0,0.224,0.18,0.401,0.402,0.401
	s0.401-0.179,0.401-0.401C224.411,291.183,224.232,291.003,224.01,291.003z"/>
<circle fill="#1A1A1A" cx="225.985" cy="291.405" r="0.623"/>
<path fill="#232120" d="M225.985,292.243c-0.463,0-0.842-0.378-0.842-0.841c0-0.465,0.378-0.84,0.842-0.84
	c0.462,0,0.84,0.377,0.84,0.84S226.448,292.243,225.985,292.243z M225.985,291.003c-0.225,0-0.403,0.18-0.403,0.399
	c0,0.224,0.179,0.401,0.403,0.401c0.221,0,0.401-0.179,0.401-0.401C226.387,291.183,226.207,291.003,225.985,291.003z"/>
<circle fill="#333333" cx="224.97" cy="281.383" r="3.219"/>
<path fill="#232120" d="M224.97,285.043c-2.017,0-3.657-1.645-3.657-3.66s1.642-3.66,3.657-3.66c2.019,0,3.658,1.645,3.658,3.66
	S226.987,285.043,224.97,285.043z M224.97,278.6c-1.533,0-2.779,1.251-2.779,2.783c0,1.534,1.247,2.781,2.779,2.781
	c1.533,0,2.78-1.247,2.78-2.781C227.75,279.851,226.504,278.6,224.97,278.6z"/>
<circle fill="#1A1A1A" cx="224.01" cy="280.368" r="0.622"/>
<path fill="#232120" d="M224.01,281.208c-0.463,0-0.842-0.38-0.842-0.844c0-0.463,0.378-0.841,0.842-0.841s0.841,0.378,0.841,0.841
	C224.851,280.828,224.474,281.208,224.01,281.208z M224.01,279.965c-0.223,0-0.402,0.182-0.402,0.404c0,0.224,0.18,0.4,0.402,0.4
	s0.401-0.178,0.401-0.4S224.232,279.965,224.01,279.965z"/>
<circle fill="#1A1A1A" cx="225.985" cy="280.368" r="0.622"/>
<path fill="#232120" d="M225.985,281.208c-0.463,0-0.842-0.38-0.842-0.844c0-0.463,0.378-0.841,0.842-0.841
	c0.462,0,0.84,0.378,0.84,0.841C226.825,280.828,226.448,281.208,225.985,281.208z M225.985,279.965
	c-0.225,0-0.403,0.182-0.403,0.404c0,0.224,0.179,0.4,0.403,0.4c0.221,0,0.401-0.178,0.401-0.4S226.207,279.965,225.985,279.965z"/>
<circle fill="#1A1A1A" cx="224.01" cy="282.426" r="0.622"/>
<path fill="#232120" d="M224.01,283.266c-0.463,0-0.842-0.378-0.842-0.842s0.378-0.84,0.842-0.84s0.841,0.376,0.841,0.84
	S224.474,283.266,224.01,283.266z M224.01,282.023c-0.223,0-0.402,0.181-0.402,0.402c0,0.224,0.18,0.403,0.402,0.403
	s0.401-0.181,0.401-0.403S224.232,282.023,224.01,282.023z"/>
<circle fill="#1A1A1A" cx="225.985" cy="282.426" r="0.622"/>
<path fill="#232120" d="M225.985,283.266c-0.463,0-0.842-0.378-0.842-0.842s0.378-0.84,0.842-0.84c0.462,0,0.84,0.376,0.84,0.84
	S226.448,283.266,225.985,283.266z M225.985,282.023c-0.225,0-0.403,0.181-0.403,0.402c0,0.224,0.179,0.403,0.403,0.403
	c0.221,0,0.401-0.181,0.401-0.403S226.207,282.023,225.985,282.023z"/>
<path fill="#1E1E1E" d="M412.595,221.721l-8.341,84.593l-2.636,48.442l-4.829,77.714l7.707,2.781l13.812-217.043
	c0-15.536-16.247-37.615-31.913-40.034c-1.698,1.439-3.016,3.086-4.206,3.329C387.545,182.66,415.283,191.772,412.595,221.721z"/>
<path fill="#1E1E1E" d="M382.191,181.505c-0.77-0.166-1.078-0.169-0.77-0.042C381.674,181.562,381.93,181.559,382.191,181.505z"/>
<path fill="#1E1E1E" d="M327.205,181.372c0,0-16.188-11.899-20.5-9.703c-4.313,2.193-25.454,57.078-25.454,57.078
	S338.166,192.688,327.205,181.372z"/>
<polygon points="210.336,308.237 210.336,265.001 324.051,245.527 324.584,248.997 213.849,268.01 213.849,304.39 351.406,291.832 
	351.726,295.332 "/>
<linearGradient id="SVGID_13_" gradientUnits="userSpaceOnUse" x1="618.749" y1="-273.4434" x2="695.5831" y2="-200.1217" gradientTransform="matrix(1 0 0 1 -290 350.582)">
	<stop  offset="0" style="stop-color:#FFD8BF"/>
	<stop  offset="1" style="stop-color:#EFA57F"/>
</linearGradient>
<ellipse fill="url(#SVGID_13_)" cx="356.952" cy="104.053" rx="67.906" ry="79.03"/>
<path fill="#F9EBE4" d="M359.804,181.328c-36.479,0-66.154-34.666-66.154-77.275c0-42.608,29.676-77.274,66.154-77.274
	c13.411,0,25.895,4.699,36.329,12.741c-11.073-9.12-24.581-14.499-39.181-14.499c-13.381,0-25.848,4.522-36.362,12.299
	c-18.37,14.561-30.455,39.039-30.455,66.731c0,27.686,12.078,52.156,30.439,66.719c10.516,7.784,22.99,12.312,36.377,12.312
	c14.593,0,28.098-5.374,39.166-14.488C385.684,176.634,373.204,181.328,359.804,181.328z"/>
<ellipse fill="none" cx="356.952" cy="104.053" rx="67.906" ry="79.03"/>
<path d="M356.342,184.84c-38.414,0-69.667-36.242-69.667-80.787c0-44.547,31.251-80.787,69.667-80.787
	c38.414,0,69.665,36.242,69.665,80.787S394.756,184.84,356.342,184.84z M356.342,26.778c-36.479,0-66.153,34.667-66.153,77.274
	c0,42.606,29.675,77.275,66.153,77.275c36.477,0,66.15-34.666,66.15-77.275S392.815,26.778,356.342,26.778z"/>
<path opacity="0.35" fill="#C98061" enable-background="new    " d="M424.441,95.35c-9.5-12.79-30.607-13.246-30.607-13.246
	s0.103,26.163,5.267,41.686c-2.816,17.768-12.839,38.704-39.298,57.542c0,0,25.962,3.688,50.169-27.918
	c9.308-13.523,14.889-30.68,14.889-49.357C424.858,101.109,424.713,98.209,424.441,95.35z"/>
<path d="M356.342,184.84c-38.414,0-69.667-36.242-69.667-80.787c0-44.547,31.251-80.787,69.667-80.787
	c38.414,0,69.665,36.242,69.665,80.787S394.756,184.84,356.342,184.84z M356.342,26.778c-36.479,0-66.153,34.667-66.153,77.274
	c0,42.606,29.675,77.275,66.153,77.275c36.477,0,66.15-34.666,66.15-77.275S392.815,26.778,356.342,26.778z"/>
<path fill="#B7B1AC" d="M414.179,45.075c0,0-19.759,8.781-28.539,20.637c-8.783,11.854,12.293,40.394,18.878,41.271
	c6.587,0.878,21.792,0.145,19.182,11.601c-2.61,11.454,4.089,17.377,11.992,16.062C443.595,133.325,456.328,30.587,414.179,45.075z"
	/>
<path fill="#B7B1AC" d="M383.53,67.468c0,0-43.557,14.489-66.389-12.293c-16.432-9.592-22.392,8.103-22.392,8.103
	s-18.001-9.858-7.902-32.689C296.945,7.756,413.735-26.655,420.32,43.677C418.129,50.345,383.53,67.468,383.53,67.468z"/>
<path d="M445.146,79.077c-2.007-24.231-10.043-37.072-23.24-37.142C418.675,14.873,398.507,0,364.922,0
	c-35.168,0-73.854,16.707-79.676,29.876c-10.63,24.028,8.473,34.835,8.666,34.942l1.831,0.999l0.674-1.976
	c0.026-0.078,3.987-5.815,9.021-8.302c1.047-1.541,1.277-1.771,2.416-3.217c-7.362,0.568-12.274,5.019-13.89,8.332
	c-3.969-2.961-13.142-12.096-5.506-29.358c5.367-12.132,43.409-27.784,76.466-27.784c18.559,0,50.135,5.196,53.615,39.932
	l-0.78,2.273l2.674-0.215c8.63-0.692,14.711,5.09,18.308,17.186c7.644,25.699,0.54,67.252-3.471,70.241
	c-3.394,0.529-6.478-0.528-8.333-2.856c-2.032-2.55-2.574-6.489-1.523-11.101c0.655-2.878-1.285-4.654-2.512-6.656
	c-0.443,5.416,0.291,9.988-1.043,15.029c0.456,1.861,1.223,3.53,2.333,4.921c2.219,2.781,5.543,4.315,9.357,4.315
	c0.799,0,1.619-0.069,2.436-0.206C442.603,135.271,447.028,101.805,445.146,79.077z"/>
<path fill="#DDDDDD" d="M433.936,130.912c0,0,21.953-77.057-12.293-85.179c0,0,8.243,5.708,9.61,12.514
	c1.366,6.806,0.926-3.513,0.926-3.513s10.439,29.856-0.926,75.3C430.704,132.243,433.936,130.912,433.936,130.912z"/>
<path fill="#DDDDDD" d="M416.668,42.295c0,0-3.511-37.467-53.859-37.175c-50.346,0.291-73.763,28.101-73.763,28.101l9.367-4.391
	l-3.216,3.806l7.023-4.684c0,0,86.641-50.054,111.476,14.343C414.179,45.075,416.668,42.295,416.668,42.295z"/>
<path opacity="0.75" fill="#FFD8BF" enable-background="new    " d="M395.928,111.23l2.113-3.917l6.396-1.316l5.243,1.467
	l4.719,4.24l2.635,9.659l-1.538,8.673l-4.722,9.658l-9.241,2.729c0,0,12.941-9.936,4.946-21.609
	c-6.12-1.433-5.908,0.449-5.908,0.449l0.799-3.148l3.962-2.584l3.794-0.554C409.129,114.975,409.842,105.924,395.928,111.23z"/>
<polygon opacity="0.35" fill="#C98061" enable-background="new    " points="340.271,106.458 397.02,106.458 394.823,109.423 
	339.063,112.496 "/>
<rect x="340.566" y="103.12" fill="#3A1E13" stroke="#110A08" stroke-width="0.5" stroke-miterlimit="10" width="70.502" height="4.764"/>
<path d="M392.349,110.217c-0.008,0.028-0.011,0.052-0.019,0.079L392.349,110.217z"/>
<path d="M405.139,104.146c-4.419-0.552-8.951,1.414-12.432,5.396c-0.167,0.191-0.272,0.418-0.345,0.651l3.565,1.037
	c2.624-2.708,5.711-3.983,8.773-3.599c6.633,0.826,11.081,9.123,9.912,18.491c-1.062,8.519-6.549,15.144-12.554,15.521l-2.229,3.294
	c0.179,0.089,0.367,0.156,0.567,0.182c0.021,0.004,0.042,0.004,0.062,0.007c8.496,0.75,16.244-7.406,17.637-18.568
	C419.509,115.266,413.693,105.213,405.139,104.146z"/>
<path fill="none" stroke="#000000" stroke-miterlimit="10" d="M409.676,116.204c0.111-2.626-5.734-0.34-6.697,0.384
	c-1.491,1.117-4.086,4.103-3.754,5.978c0.425-1.454,2.728-1.776,3.982-1.865c1.513-0.109,2.302-0.175,3.283,1.001
	c2.001,2.388,2.379,6.994,1.938,10.052c-0.357,2.471-2.46,7.069-5.577,5.539c-1.38-0.676-1.651-2.377-1.864-3.747
	c-0.342-2.188-0.548-3.849,1.224-5.485"/>
<rect x="307.893" y="81.081" transform="matrix(0.9811 0.1937 -0.1937 0.9811 22.3628 -60)" fill="#B7B1AC" width="20.201" height="6.543"/>
<polygon opacity="0.35" fill="#C98061" enable-background="new    " points="303.994,95.481 338.129,99.763 336.262,118.423 
	339.174,118.423 339.941,96.634 303.5,93.012 "/>
<path d="M328.644,91.603l-23.259-4.596l1.947-9.863l23.26,4.595L328.644,91.603z M307.446,85.625l19.813,3.914l1.269-6.417
	l-19.812-3.913L307.446,85.625z"/>
<path fill="#DDDDDD" d="M310.139,80.931c0.281,0.24-0.094,1.077-0.108,1.456c-0.013,0.393-0.147,1.234,0,1.616
	c0.144,0.362,0.181,0.354,0.399-0.047c0.166-0.303,0.175-0.695,0.34-1.02c0.178-0.348,0.502-0.671,0.643-1.027
	c0.12-0.308-0.041-0.865,0.342-0.831c0.912,0.079,0.531,2.134,0.527,2.624c-0.004,0.433-0.137,1.225,0,1.671
	c0.213,0.687,1.023,0.436,1.327-0.173c0.202-0.403-0.176-3.687,1.069-2.904c0.638,0.399,0.199,1.311,0.287,1.841
	c0.072,0.406,0.094,0.466,0.508,0.537c0.666,0.115,0.846-0.344,1.146-0.853c0.323-0.551,0.906-2.136,1.144-0.585
	c0.104,0.659,0.188,1.781,1.098,1.672c1.096-0.13,2.453-2.792,3.516-1.069c0.39,0.631,0.75,1.26,1.215,1.865
	c0.386,0.502,0.718,1.157,1.138,0.405c0.438-0.776-0.106-1.491,0.757-2.059c0.736-0.485,1.173-0.201,1.448,0.571
	c0.167,0.46,0.25,1.199,0.27,1.683c0.028,0.61-0.329,1.175-0.041,1.762c0.128,0.005,0.261,0,0.392,0.002l0.979-4.943l-19.812-3.916
	l-0.639,3.219C308.52,81.921,309.563,80.434,310.139,80.931z"/>
<path fill="#FFFFFF" d="M331.379,109.751c0,4.245-10.686,3.434-14.929,3.434s-7.684-3.439-7.684-7.683s3.44-7.685,7.684-7.685
	S331.379,105.508,331.379,109.751z"/>
<circle cx="312.664" cy="105.032" r="3.293"/>
<circle fill="#FFFFFF" cx="314.916" cy="103.056" r="1.784"/>
<path fill="#B7B1AC" d="M297.697,129.01c0,0-6.334,3.508-5.908,9.675c0.429,6.17,8.856,4.625,8.856,4.625l4.999-0.701l2.714,2.525
	h4.257h3.482l8.398-0.731l-2.57-2.636l-0.928-6.587c0,0-2.324-2.804-5.625-4.767c-3.302-1.96-8.479-4.625-10.318-3.225
	C303.217,128.588,297.697,129.01,297.697,129.01z"/>
<path fill="#DDDDDD" d="M317.48,139.768c0.249,1.314,0.402,2.399,2.045,2.199c-0.191-0.433-0.581-0.792-0.73-1.254
	c-0.273-0.852-0.201-2.023-0.338-2.917c-0.127-0.851-0.477-2.271,0.047-3.042c0.521,0.856,1.035,2.547,2.265,2.615
	c0.397-1.316,0.144-1.87-0.659-2.861c-0.318-0.394-0.583-0.783-0.869-1.149c-0.48-0.451-1.046-0.945-1.688-1.448
	c-1.979-1.145-3.997-2.318-6.053-3.354c-1.015-0.513-2.127-1.244-3.225-1.429c-0.807-0.137-2.066-0.229-2.927-0.064
	c-0.091,0.045-0.21,0.061-0.29,0.12c-0.051,0.038-0.113,0.072-0.168,0.109c-0.041,0.076-0.088,0.157-0.158,0.188
	c-0.105,0.046-0.223,0.067-0.338,0.094c-0.674,0.326-1.542,0.59-2.438,0.793c-0.735,0.232-1.484,0.411-2.36,0.44
	c-0.066,0.002-0.117,0.004-0.182,0.006c-0.624,0.083-1.14,0.139-1.435,0.165c-0.11,0.034-0.22,0.062-0.338,0.11
	c-0.149,0.058-0.258,0.119-0.375,0.181c-0.062,0.04-0.117,0.077-0.186,0.123h0.054c-0.334,0.148-0.754,0.663-1.065,0.937
	c-0.305,0.267-0.617,0.458-0.931,0.639c-0.432,0.412-0.868,0.895-1.285,1.432c-0.012,0.154-0.028,0.33-0.097,0.559
	c-0.209,0.688-0.898,1.078-1.087,1.861c-0.131,0.541-0.236,1.014-0.211,1.594c1.095-0.803,1.766-2.245,2.694-3.205
	c0.809-0.834,1.905-1.192,2.994-1.271c-0.822,0.659-1.456,1.136-1.946,2.104c-0.268,0.524-0.275,1.146-0.593,1.624
	c0.438-1.05,2.19-2.591,3.35-2.893c0.203,1.107-0.818,2.236-0.875,3.39c0.2-0.396,0.475-0.703,0.714-1.053
	c0.382-0.561,0.667-1.281,1.091-1.806c0.792-0.983,2.124-1.21,3.101-1.875c-0.112,1.351-1.011,2.896-1.467,4.174
	c-0.281,0.784-0.419,1.478-0.501,2.306c-0.119,1.214-0.394,2.92,0.23,4.015c0.322-0.984,0.833-1.789,0.937-2.848
	c0.082-0.857,0.208-1.723,0.487-2.544c0.619-1.813,1.936-3.039,3.095-4.498c0.09,1.042-0.472,2.141-0.515,3.206
	c-0.028,0.717-0.045,1.438-0.071,2.153c-0.033,0.831-0.06,1.799,0.146,2.579c0.049-1.58,0.963-3.235,1.24-4.802
	c0.145-0.829,0.443-1.577,0.613-2.391c0.082-0.414-0.061-0.898,0.205-1.242c-0.03,1.521,0.018,3.036,0.07,4.555
	c0.06,1.609-0.129,3.05,0.51,4.549c0.746,1.751,1.863,2.801,3.684,3.298c-0.611-1.129-0.885-2.002-0.918-3.272
	c-0.043-1.691-0.443-3.241-0.635-4.892c-0.11-0.929-0.319-2.429,0.064-3.293c0.223-0.493,0.723-0.771,0.952-1.253
	c0.302,0.376,0.369,0.915,0.527,1.384c0.284,0.839,0.679,1.741,1.166,2.49c0.651,1.004,1.625,1.734,2.353,2.632
	c-0.455-0.93-0.568-1.347-0.673-2.438c-0.088-0.912-0.2-1.813-0.235-2.729c0.442,1.176,1.139,2.213,1.531,3.425
	C316.211,137.334,317.221,138.404,317.48,139.768z"/>
<path fill="#020100" d="M316.737,146.814h-8.319l-2.727-2.584l-4.702,0.672c-0.007,0.001-1.021,0.189-2.379,0.189
	c-4.637,0-7.441-2.125-7.695-5.829c-0.47-6.913,6.214-10.762,6.498-10.923l0.364-0.11c1.501-0.117,5.696-0.655,7.066-1.723
	c1.804-1.4,5.621-0.292,11.567,3.31c3.478,2.104,5.89,5.049,5.99,5.173l0.153,0.189l0.947,6.838l3.701,3.868L316.737,146.814z
	 M309.117,145.059h7.542l6.748-0.599l-1.565-1.636l-0.959-6.905c-0.565-0.655-2.648-2.944-5.381-4.6
	c-3.886-2.351-6.963-3.646-8.668-3.646c-0.414,0-0.72,0.076-0.914,0.225c-1.883,1.463-6.626,1.964-7.8,2.067
	c-0.936,0.589-5.814,3.915-5.455,9.183c0.189,2.78,2.189,4.19,5.943,4.19c1.188,0,2.087-0.164,2.094-0.165l5.579-0.799
	L309.117,145.059z"/>
<path fill="#FFD8BF" d="M296.349,125.924c-17.984,6.035-19.925-13.431-19.925-13.431l20.733-33.284"/>
<path fill="#F9EBE4" d="M297.577,77.812l-0.423,9.77l-17.038,25.669c0,0,7.245,12.42,16.246,11.762l0.284,2.076h-6.103l-8.891-3.502
	l-5.231-11.964L297.577,77.812z"/>
<path d="M290.136,128.838c-10.419-0.593-14.898-10.832-15.457-16.159l-0.063-0.6l13.818-22.54l3.026-1.181l-13.208,24.526
	c0.404,2.48,5.848,13.588,14.744,14.095L290.136,128.838z"/>
<path fill="none" stroke="#000000" stroke-width="2" stroke-linecap="round" stroke-linejoin="round" stroke-miterlimit="10" d="
	M324.498,151.791c0,5.098-6.25,9.221-13.974,9.221"/>
<line fill="none" stroke="#F9EBE4" stroke-width="2" stroke-miterlimit="10" x1="316.699" y1="164.305" x2="327.205" y2="159.914"/>
<rect x="281.472" y="95.468" transform="matrix(0.9343 0.3564 -0.3564 0.9343 54.0109 -97.4323)" fill="#3A1E13" stroke="#110A08" stroke-width="0.5" stroke-miterlimit="10" width="19.857" height="4.762"/>
<path fill="#3A1E13" stroke="#110A08" stroke-width="0.5" stroke-miterlimit="10" d="M340.379,121.626l-42.536-4.491l2.83-26.772
	l42.536,4.492L340.379,121.626z M301.706,114.01l35.552,3.756l2.09-19.785l-35.551-3.755L301.706,114.01z"/>
<path fill="#9B9692" d="M405.331,55.587c0,0-15.769,4.001-15.845,8.831c-0.078,4.829-1.602,32.71,34.722,42.041
	C460.537,115.788,376.768,99.004,405.331,55.587z"/>
<path fill="#9B9692" d="M320.524,52.563c0,0,18.396,24.294,68.961,11.855C389.486,64.419,341.797,64.857,320.524,52.563z"/>
<linearGradient id="SVGID_14_" gradientUnits="userSpaceOnUse" x1="336.834" y1="12.9854" x2="336.834" y2="-187.2576" gradientTransform="matrix(1 0 0 -1 -46 437.8105)">
	<stop  offset="0" style="stop-color:#5E3F2F"/>
	<stop  offset="0.6442" style="stop-color:#4F3529"/>
	<stop  offset="0.9387" style="stop-color:#4F3529"/>
</linearGradient>
<rect x="1.5" y="370.061" fill="url(#SVGID_14_)" stroke="#3D251A" stroke-width="3" stroke-miterlimit="10" width="578.67" height="284.463"/>
<rect x="1.5" y="335.429" fill="#3D251A" stroke="#3D251A" stroke-width="3" stroke-miterlimit="10" width="593.658" height="34.634"/>
<polygon fill="#684536" points="10.269,378.286 574.021,378.286 574.021,423.069 "/>
<polygon opacity="0.33" fill="#3D251A" enable-background="new    " points="10.269,532.836 10.269,643.479 574.021,643.479 "/>
<rect x="1.5" y="335.429" opacity="0.43" fill="#684536" enable-background="new    " width="593.658" height="5.18"/>
<linearGradient id="SVGID_15_" gradientUnits="userSpaceOnUse" x1="583.8574" y1="189.2759" x2="583.8574" y2="85.3573" gradientTransform="matrix(1 0 0 1 -290 350.582)">
	<stop  offset="0" style="stop-color:#262626"/>
	<stop  offset="1" style="stop-color:#000000"/>
</linearGradient>
<rect x="68.137" y="400.679" fill="url(#SVGID_15_)" width="451.44" height="91.763"/>
<path fill="#FFD400" d="M521.334,494.198H66.38v-95.275h454.954V494.198z M69.894,490.686h447.928v-88.252H69.894V490.686z"/>
<path fill="#231F1F" d="M353.004,470.95l-1.511,1.867c-0.137,0.167-0.262,0.337-0.385,0.504c-0.09,0.12-0.165,0.243-0.122,0.258
	c0,0-0.107,0.031-0.396,0.031h-1.707v-15.386h0.494l0.237,1.179h6.058v-7.38l0.891-0.506l-3.839-7.253l-2.22,0.926
	c-1.033,0.43-2.311,0.43-3.16,0.43h-5.5h-2.235h-1.726v-0.998l-1.125,0.998h-2.657l-4.164,3.584l-4.164-3.584h-2.659l-1.125-0.998
	v0.998h-3.962v5.004c-1.71-3.58-4.253-5.508-7.521-5.508c-2.996,0-5.272,1.568-6.838,4.65l-2.72-6.478l-4.911,1.859
	c-6.125,0.519-9.75,6.986-9.75,17.521c0,3.381,0.284,6.143,0.764,8.445l-0.479-0.304l-1.587,2.334
	c-0.12,0.182-0.286,0.429-0.267,0.438c0,0-0.085,0.025-0.305,0.025h-1.75v-21.193l1.728-0.168v-6.628h-10.958v1.425l-1.472-2.777
	l-2.218,0.924c-1.032,0.43-2.313,0.43-3.159,0.43h-5.29h-2.444H230.82v6.799l1.962,0.055l4.561,20.217l0.048,0.192
	c0.081,0.333,0.191,0.796,0.305,1.262l-0.593,0.096v6.494h17.915v-6.494l-0.594-0.096c0.112-0.472,0.225-0.929,0.304-1.258
	l4.609-20.43l1.001-0.055l0.41,0.034v21.492l-1.896,0.208v6.597h8.027c0.692-0.009,1.631-0.002,2.573,0.075
	c1.049,0.085,1.858,0.199,2.407,0.344l2.137,0.563l0.454-0.984h7.899c0.726,0,1.531,0.041,2.399,0.123
	c0.715,0.037,1.231,0.142,1.478,0.229l2.268,0.81l1.677-3.628c1.934,2.264,4.315,2.974,6.51,2.974c3.046,0,5.47-1.375,7.224-4.085
	c1.701,2.641,4.125,4.085,7.147,4.085c2.978,0,5.352-1.533,6.978-4.342v3.834h10.958v-6.566l-1.729-0.212v-17.602l2.676,2.38
	l2.677-2.38v17.602l-1.729,0.212v6.566h8.725h2.234h5.797c0.691-0.007,1.629-0.005,2.572,0.074c1.049,0.086,1.855,0.2,2.403,0.344
	l2.138,0.564l3.39-7.343L353.004,470.95z M319.885,452.432v4.392c-0.289-1.671-0.678-3.164-1.153-4.497L319.885,452.432z
	 M311.058,473.948c-0.822,0-2.427-2.692-2.427-8.916c0-8.126,1.268-11.553,1.933-12.476c0.826,0.851,2.453,4.578,2.453,12.476
	C313.016,471.236,311.575,473.741,311.058,473.948z M272.246,470.95l-1.511,1.867c-0.137,0.167-0.265,0.337-0.386,0.504
	c-0.088,0.12-0.162,0.243-0.121,0.258c0,0-0.11,0.031-0.396,0.031h-1.708v-15.386h0.493l0.237,1.179h6.058v-7.006l0.377,0.033
	v20.551L272.246,470.95z M299.799,469.202l-1.398,3.202c-0.271,0.621-0.955,1.544-1.718,1.544c-1.118,0-2.89-2.973-2.89-10.94
	c0-7.99,2.275-10.601,3.058-10.601c0.133,0,0.442,0,1.094,0.741l1.233,1.413l3.19-1.294c-0.823,3.067-1.241,6.984-1.241,11.765
	c0,2.06,0.16,3.943,0.456,5.648L299.799,469.202z M319.287,474.004c0.227-0.698,0.432-1.436,0.598-2.229v2.161L319.287,474.004z
	 M341.51,452.438v21.491l-0.799,0.089l-0.717-0.081v-21.505l0.721-0.065L341.51,452.438z"/>
<text transform="matrix(1 0 0 1 232.4053 477.8047)" fill="#FFD400" font-family="'EccentricStd'" font-size="42.1498">Welcome</text>
<path fill="#1E1A1A" d="M295.265,441.508l19.293-24.675l-20.178-9.724l-0.288,0.597l-0.434-0.5l-0.195,0.17l-0.128-0.265
	l-20.179,9.723l19.532,24.976l0.278-0.221l0.552,0.954l0.572-0.329l0.577,0.329L295.265,441.508z M301.44,420.469l-5.172-9.994
	l10.243,8.878l-10.076,17.466L301.44,420.469z M294.092,439.943l-5.921-19.346l5.921-11.447l5.924,11.447L294.092,439.943z
	 M286.744,420.469l5.004,16.35l-10.078-17.466l10.243-8.878L286.744,420.469z M300.001,433.293l8.208-14.229l-9.924-8.597
	l14.211,6.846L300.001,433.293z M275.215,417.312l15.269-7.355l-10.511,9.11l9.528,16.517L275.215,417.312z"/>
<path fill="#231F1F" d="M294.092,448.942l-0.961-3.139l-0.579,0.334l-0.504-0.868l-22.979-29.392l23.655-11.396l0.428-0.889
	l0.425,0.203l0.35-0.305l0.079,0.094l0.086-0.167l0.167,0.321l0.306-0.145l0.427,0.882l23.659,11.399l-21.197,27.107l-1.817,3.151
	l-0.583-0.334L294.092,448.942z M291.003,420.854l3.089,10.09l3.087-10.09l-3.087-5.969L291.003,420.854z"/>
<path fill="#FFD400" d="M295.265,441.508l19.293-24.675l-20.178-9.724l-0.288,0.597l-0.434-0.5l-0.195,0.17l-0.128-0.265
	l-20.179,9.723l19.532,24.976l0.278-0.221l0.552,0.954l0.572-0.329l0.577,0.329L295.265,441.508z M301.44,420.469l-5.172-9.994
	l10.243,8.878l-10.076,17.466L301.44,420.469z M294.092,439.943l-5.921-19.346l5.921-11.447l5.924,11.447L294.092,439.943z
	 M286.744,420.469l5.004,16.35l-10.078-17.466l10.243-8.878L286.744,420.469z M300.001,433.293l8.208-14.229l-9.924-8.597
	l14.211,6.846L300.001,433.293z M275.215,417.312l15.269-7.355l-10.511,9.11l9.528,16.517L275.215,417.312z"/>
<circle fill="#CCAE00" cx="78.615" cy="481.906" r="3.219"/>
<path fill="#231F1F" d="M78.615,478.687c1.778,0,3.219,1.438,3.219,3.218c0,1.78-1.44,3.222-3.219,3.222
	c-1.776,0-3.218-1.44-3.218-3.222C75.397,480.125,76.838,478.687,78.615,478.687 M78.615,475.175c-3.71,0-6.731,3.02-6.731,6.729
	c0,3.712,3.021,6.734,6.731,6.734c3.712,0,6.732-3.021,6.732-6.734C85.347,478.194,82.327,475.175,78.615,475.175L78.615,475.175z"
	/>
<path fill="#CCAE00" d="M78.615,407.11c1.778,0,3.219,1.439,3.219,3.222c0,1.775-1.44,3.218-3.219,3.218s-3.218-1.441-3.218-3.218
	C75.397,408.55,76.837,407.11,78.615,407.11z"/>
<path fill="#231F1F" d="M78.615,407.11c1.778,0,3.219,1.439,3.219,3.222c0,1.775-1.44,3.218-3.219,3.218
	c-1.776,0-3.218-1.441-3.218-3.218C75.397,408.55,76.838,407.11,78.615,407.11 M78.615,403.597c-3.71,0-6.731,3.021-6.731,6.734
	c0,3.709,3.021,6.729,6.731,6.729c3.712,0,6.732-3.021,6.732-6.729C85.347,406.618,82.327,403.597,78.615,403.597L78.615,403.597z"
	/>
<path fill="#CCAE00" d="M509.041,407.11c1.778,0,3.219,1.439,3.219,3.222c0,1.775-1.44,3.218-3.219,3.218s-3.219-1.441-3.219-3.218
	C505.822,408.55,507.263,407.11,509.041,407.11z"/>
<path fill="#231F1F" d="M509.041,407.11c1.776,0,3.219,1.439,3.219,3.222c0,1.775-1.441,3.218-3.219,3.218
	c-1.778,0-3.219-1.441-3.219-3.218C505.822,408.55,507.263,407.11,509.041,407.11 M509.041,403.597
	c-3.712,0-6.731,3.021-6.731,6.734c0,3.709,3.021,6.729,6.731,6.729c3.709,0,6.731-3.021,6.731-6.729
	C515.772,406.618,512.75,403.597,509.041,403.597L509.041,403.597z"/>
<circle fill="#CCAE00" cx="509.041" cy="481.906" r="3.219"/>
<path fill="#231F1F" d="M509.041,478.687c1.776,0,3.219,1.438,3.219,3.218c0,1.78-1.441,3.222-3.219,3.222
	c-1.778,0-3.219-1.44-3.219-3.222C505.822,480.125,507.263,478.687,509.041,478.687 M509.041,475.175
	c-3.712,0-6.731,3.02-6.731,6.729c0,3.712,3.021,6.734,6.731,6.734c3.709,0,6.731-3.021,6.731-6.734
	C515.772,478.194,512.75,475.175,509.041,475.175L509.041,475.175z"/>
<line fill="none" stroke="#FFD400" stroke-width="2" stroke-miterlimit="10" x1="68.137" y1="492.441" x2="519.577" y2="492.441"/>
<polygon opacity="0.33" fill="#3D251A" enable-background="new    " points="66.298,494.198 66.298,398.922 60.112,398.922 
	60.112,498.588 66.298,498.588 521.334,498.588 521.334,494.198 "/>
<path fill="#231F1F" d="M512.26,470.05v-48.735c0,0-15.951,3.207-15.951-14.204H439.23L512.26,470.05z"/>
<polygon fill="#231F1F" points="497.333,486.587 425.91,407.11 366.785,407.11 430.449,486.442 "/>
</svg>
