<?xml version="1.0" encoding="utf-8"?>
<!-- Generator: Adobe Illustrator 15.0.0, SVG Export Plug-In  -->
<!DOCTYPE svg PUBLIC "-//W3C//DTD SVG 1.1//EN" "http://www.w3.org/Graphics/SVG/1.1/DTD/svg11.dtd" [
	<!ENTITY ns_flows "http://ns.adobe.com/Flows/1.0/">
]>
<svg version="1.1"
	 xmlns="http://www.w3.org/2000/svg" xmlns:xlink="http://www.w3.org/1999/xlink" xmlns:a="http://ns.adobe.com/AdobeSVGViewerExtensions/3.0/"
	 x="0px" y="0px" width="198px" height="61px" viewBox="0 0.119 198 61" overflow="visible" enable-background="new 0 0.119 198 61"
	 xml:space="preserve">
<defs>
</defs>
<rect display="none" fill="#E94E1B" width="99.097" height="36.827"/>
<rect display="none" fill="#E94E1B" width="99.097" height="61.453"/>
<rect x="99.097" display="none" fill="#009640" width="99.097" height="61.453"/>
<polygon fill="#38221C" points="99.097,0 0,0 6.714,5.143 92.344,5.143 "/>
<rect x="9.058" y="1.616" fill="#333333" stroke="#2D2928" stroke-width="0.5" stroke-miterlimit="10" width="79.509" height="9.049"/>
<rect x="9.484" y="1.904" opacity="0.41" fill="#3F3F3F" enable-background="new    " width="28.629" height="8.157"/>
<path fill="#303030" d="M9.484,10.277h4.522c-0.252-0.176-0.552-0.349-0.572-0.654c-0.529-0.047-1.074-0.013-1.59,0.096
	c0.061-0.015,0.128-0.029,0.185-0.043c-0.541-0.033-1.181,0.122-1.688-0.112c0.374,0.009,1.041,0.172,1.359,0.005
	c0.037-0.019,0.427-0.513,0.496-0.599c-0.045-0.019-0.115-0.082-0.188-0.1c0.102-0.246,0.489-0.179,0.558-0.551
	c0.078-0.415-0.303-0.568-0.633-0.642c0.188-0.31,0.68-0.31,0.905-0.605c-0.213-0.26-0.562-0.274-0.878-0.252
	c0.131-0.15,0.088-0.271,0.111-0.434c-0.516-0.033-1.16,0.183-1.641-0.023c0.028-0.05,0.037-0.136,0.058-0.18
	c-0.123,0.02-0.259-0.07-0.376-0.067c0.036-0.217-0.061-0.416-0.269-0.485c0.258-0.208,0.377-0.222,0.538-0.496
	c0.061-0.102,0.062-0.335,0.113-0.463c0.056-0.136,0.209-0.272,0.285-0.384c-0.544-0.102,0.163-0.572-0.39-0.611
	c0.161-0.191,0.209-0.396-0.046-0.452c0.154-0.298-0.164-0.433-0.403-0.487c0.22-0.188,0.633-0.072,0.845-0.345
	c-0.159-0.009-0.323-0.012-0.484-0.005c0.219,0.011,0.4-0.119,0.454-0.342c-0.049-0.056-0.125-0.098-0.196-0.142H9.486v8.373H9.484z
	"/>
<path fill="#7C0000" d="M61.74,13.736H35.884v11.148h0.045c-0.004,0.139-0.045,0.267-0.045,0.404
	c0,6.382,5.792,11.556,12.929,11.556S61.74,31.671,61.74,25.289c0-0.139-0.04-0.267-0.046-0.404h0.046V13.736z"/>
<circle fill="#2D2928" stroke="#444141" stroke-width="0.25" stroke-miterlimit="10" cx="11.617" cy="7.999" r="0.781"/>
<circle fill="#2D2928" stroke="#474343" stroke-width="0.25" stroke-miterlimit="10" cx="11.617" cy="3.555" r="0.781"/>
<circle fill="#2D2928" stroke="#3D3938" stroke-width="0.25" stroke-miterlimit="10" cx="85.766" cy="7.999" r="0.781"/>
<circle fill="#2D2928" stroke="#3D3938" stroke-width="0.25" stroke-miterlimit="10" cx="85.766" cy="3.555" r="0.781"/>
<polyline fill="#333333" points="9.058,10.665 21.662,19.716 74.992,19.716 88.566,10.665 9.058,10.665 "/>
<polygon opacity="0.41" fill="#3F3F3F" enable-background="new    " points="42.14,16.316 38.307,10.972 10.294,10.972 
	21.953,19.716 58.58,19.134 "/>
<path fill="#2D2928" d="M75.111,20.104H21.539L7.851,10.277h82L75.111,20.104z M21.787,19.327h53.086l12.411-8.273H10.266
	L21.787,19.327z"/>
<rect x="13.365" y="9.372" fill="#605958" width="70.354" height="0.689"/>
<path opacity="0.53" fill="#681313" enable-background="new    " d="M41.609,31.021c0,0,3.823-10.203,9.976-10.46
	c6.153-0.26-14.312,0-14.312,0S36.558,28.721,41.609,31.021z"/>
<path fill="#8E1B16" d="M48.394,36.827c-2.946-1.925-8.664-6.521-9.729-9.146c-1.067-2.622-0.681-7.554-0.681-7.554l-2.1,0.041
	v4.716h0.045c-0.004,0.139-0.045,0.267-0.045,0.404C35.884,31.545,41.453,36.627,48.394,36.827z"/>
<linearGradient id="SVGID_1_" gradientUnits="userSpaceOnUse" x1="2327.375" y1="-556.4565" x2="2327.375" y2="-571.4709" gradientTransform="matrix(-1 0 0 1 2375.8184 591.9941)">
	<stop  offset="0" style="stop-color:#FFFFFF"/>
	<stop  offset="0.0185" style="stop-color:#F5F5F5;stop-opacity:0.9815"/>
	<stop  offset="0.1204" style="stop-color:#C3C3C2;stop-opacity:0.8796"/>
	<stop  offset="0.2271" style="stop-color:#969696;stop-opacity:0.7729"/>
	<stop  offset="0.3368" style="stop-color:#717170;stop-opacity:0.6632"/>
	<stop  offset="0.4501" style="stop-color:#535351;stop-opacity:0.5499"/>
	<stop  offset="0.5683" style="stop-color:#3B3B39;stop-opacity:0.4317"/>
	<stop  offset="0.6933" style="stop-color:#2A2A28;stop-opacity:0.3067"/>
	<stop  offset="0.8299" style="stop-color:#20201E;stop-opacity:0.1701"/>
	<stop  offset="1" style="stop-color:#1D1D1B;stop-opacity:0"/>
</linearGradient>
<path opacity="0.47" fill="url(#SVGID_1_)" enable-background="new    " d="M58.58,31.633c0,0-9.133,10.881-20.273-1.101"/>
<linearGradient id="SVGID_2_" gradientUnits="userSpaceOnUse" x1="-511.0596" y1="1287.7178" x2="-507.3687" y2="1279.5105" gradientTransform="matrix(1 0 0 -1 564 1316.2383)">
	<stop  offset="0" style="stop-color:#FFFFFF"/>
	<stop  offset="0.0185" style="stop-color:#F5F5F5;stop-opacity:0.9815"/>
	<stop  offset="0.1204" style="stop-color:#C3C3C2;stop-opacity:0.8796"/>
	<stop  offset="0.2271" style="stop-color:#969696;stop-opacity:0.7729"/>
	<stop  offset="0.3368" style="stop-color:#717170;stop-opacity:0.6632"/>
	<stop  offset="0.4501" style="stop-color:#535351;stop-opacity:0.5499"/>
	<stop  offset="0.5683" style="stop-color:#3B3B39;stop-opacity:0.4317"/>
	<stop  offset="0.6933" style="stop-color:#2A2A28;stop-opacity:0.3067"/>
	<stop  offset="0.8299" style="stop-color:#20201E;stop-opacity:0.1701"/>
	<stop  offset="1" style="stop-color:#1D1D1B;stop-opacity:0"/>
</linearGradient>
<circle opacity="0.4" fill="url(#SVGID_2_)" enable-background="new    " cx="54.014" cy="30.907" r="2.429"/>
<linearGradient id="SVGID_3_" gradientUnits="userSpaceOnUse" x1="-506.7632" y1="1287.3965" x2="-504.9923" y2="1283.4586" gradientTransform="matrix(1 0 0 -1 564 1316.2383)">
	<stop  offset="0" style="stop-color:#FFFFFF"/>
	<stop  offset="0.0185" style="stop-color:#F5F5F5;stop-opacity:0.9815"/>
	<stop  offset="0.1204" style="stop-color:#C3C3C2;stop-opacity:0.8796"/>
	<stop  offset="0.2271" style="stop-color:#969696;stop-opacity:0.7729"/>
	<stop  offset="0.3368" style="stop-color:#717170;stop-opacity:0.6632"/>
	<stop  offset="0.4501" style="stop-color:#535351;stop-opacity:0.5499"/>
	<stop  offset="0.5683" style="stop-color:#3B3B39;stop-opacity:0.4317"/>
	<stop  offset="0.6933" style="stop-color:#2A2A28;stop-opacity:0.3067"/>
	<stop  offset="0.8299" style="stop-color:#20201E;stop-opacity:0.1701"/>
	<stop  offset="1" style="stop-color:#1D1D1B;stop-opacity:0"/>
</linearGradient>
<circle opacity="0.4" fill="url(#SVGID_3_)" enable-background="new    " cx="57.752" cy="29.986" r="1.166"/>
<linearGradient id="SVGID_4_" gradientUnits="userSpaceOnUse" x1="-512.4316" y1="1282.8672" x2="-511.1031" y2="1279.9131" gradientTransform="matrix(1 0 0 -1 564 1316.2383)">
	<stop  offset="0" style="stop-color:#FFFFFF"/>
	<stop  offset="0.0185" style="stop-color:#F5F5F5;stop-opacity:0.9815"/>
	<stop  offset="0.1204" style="stop-color:#C3C3C2;stop-opacity:0.8796"/>
	<stop  offset="0.2271" style="stop-color:#969696;stop-opacity:0.7729"/>
	<stop  offset="0.3368" style="stop-color:#717170;stop-opacity:0.6632"/>
	<stop  offset="0.4501" style="stop-color:#535351;stop-opacity:0.5499"/>
	<stop  offset="0.5683" style="stop-color:#3B3B39;stop-opacity:0.4317"/>
	<stop  offset="0.6933" style="stop-color:#2A2A28;stop-opacity:0.3067"/>
	<stop  offset="0.8299" style="stop-color:#20201E;stop-opacity:0.1701"/>
	<stop  offset="1" style="stop-color:#1D1D1B;stop-opacity:0"/>
</linearGradient>
<circle opacity="0.4" fill="url(#SVGID_4_)" enable-background="new    " cx="51.953" cy="34.229" r="0.874"/>
<linearGradient id="SVGID_5_" gradientUnits="userSpaceOnUse" x1="-510.394" y1="1283.5938" x2="-509.0656" y2="1280.6398" gradientTransform="matrix(1 0 0 -1 564 1316.2383)">
	<stop  offset="0" style="stop-color:#FFFFFF"/>
	<stop  offset="0.0185" style="stop-color:#F5F5F5;stop-opacity:0.9815"/>
	<stop  offset="0.1204" style="stop-color:#C3C3C2;stop-opacity:0.8796"/>
	<stop  offset="0.2271" style="stop-color:#969696;stop-opacity:0.7729"/>
	<stop  offset="0.3368" style="stop-color:#717170;stop-opacity:0.6632"/>
	<stop  offset="0.4501" style="stop-color:#535351;stop-opacity:0.5499"/>
	<stop  offset="0.5683" style="stop-color:#3B3B39;stop-opacity:0.4317"/>
	<stop  offset="0.6933" style="stop-color:#2A2A28;stop-opacity:0.3067"/>
	<stop  offset="0.8299" style="stop-color:#20201E;stop-opacity:0.1701"/>
	<stop  offset="1" style="stop-color:#1D1D1B;stop-opacity:0"/>
</linearGradient>
<circle opacity="0.4" fill="url(#SVGID_5_)" enable-background="new    " cx="53.992" cy="33.503" r="0.875"/>
<path opacity="0.7" fill="#660000" enable-background="new    " d="M38.518,20.444c0,0,22.113,0.729,20.61,5.344
	s2.868-3.255,2.141-5.344H38.518z"/>
<path fill="none" stroke="#303030" stroke-width="0.5" stroke-miterlimit="10" d="M13.825,6.244
	C24.075,6.279,34.38,6.391,44.642,6.12c5.921-0.156,11.722-0.807,17.655-0.416c7.059,0.463,14.165-0.193,21.221,0.41"/>
<path fill="none" stroke="#303030" stroke-width="0.5" stroke-miterlimit="10" d="M62.273,7.668
	c6.249-0.415,12.59,0.496,18.783-0.128"/>
<path fill="none" stroke="#303030" stroke-width="0.5" stroke-miterlimit="10" d="M12.918,3.912c14.392,0,29.008,0.656,43.38-0.323
	c8.386-0.571,17.02-0.588,25.405-0.583"/>
<path fill="none" stroke="#303030" stroke-width="0.5" stroke-miterlimit="10" d="M58.775,7.54
	c-0.945,0.503-2.209,0.409-3.208,0.455c-5.095,0.232-10.19,0.19-15.289,0.191c-3.539,0.001-7.075,0-10.614,0
	c-1.83,0-3.658,0.176-5.478,0.131"/>
<path fill="none" stroke="#303030" stroke-width="0.5" stroke-miterlimit="10" d="M4.811,3.006
	c11.349,0.297,22.637-1.038,33.938-1.038"/>
<polygon fill="#38221C" points="99.097,0 0,0 6.714,5.143 92.344,5.143 "/>
<rect x="9.058" y="1.616" fill="#333333" stroke="#2D2928" stroke-width="0.5" stroke-miterlimit="10" width="79.509" height="9.049"/>
<rect x="9.484" y="1.904" opacity="0.41" fill="#3F3F3F" enable-background="new    " width="28.629" height="8.157"/>
<path fill="#303030" d="M9.484,10.277h4.522c-0.252-0.176-0.552-0.349-0.572-0.654c-0.529-0.047-1.074-0.013-1.59,0.096
	c0.061-0.015,0.128-0.029,0.185-0.043c-0.541-0.033-1.181,0.122-1.688-0.112c0.374,0.009,1.041,0.172,1.359,0.005
	c0.037-0.019,0.427-0.513,0.496-0.599c-0.045-0.019-0.115-0.082-0.188-0.1c0.102-0.246,0.489-0.179,0.558-0.551
	c0.078-0.415-0.303-0.568-0.633-0.642c0.188-0.31,0.68-0.31,0.905-0.605c-0.213-0.26-0.562-0.274-0.878-0.252
	c0.131-0.15,0.088-0.271,0.111-0.434c-0.516-0.033-1.16,0.183-1.641-0.023c0.028-0.05,0.037-0.136,0.058-0.18
	c-0.123,0.02-0.259-0.07-0.376-0.067c0.036-0.217-0.061-0.416-0.269-0.485c0.258-0.208,0.377-0.222,0.538-0.496
	c0.061-0.102,0.062-0.335,0.113-0.463c0.056-0.136,0.209-0.272,0.285-0.384c-0.544-0.102,0.163-0.572-0.39-0.611
	c0.161-0.191,0.209-0.396-0.046-0.452c0.154-0.298-0.164-0.433-0.403-0.487c0.22-0.188,0.633-0.072,0.845-0.345
	c-0.159-0.009-0.323-0.012-0.484-0.005c0.219,0.011,0.4-0.119,0.454-0.342c-0.049-0.056-0.125-0.098-0.196-0.142H9.486v8.373H9.484z
	"/>
<path fill="#7C0000" d="M61.74,13.736H35.884v11.148h0.045c-0.004,0.139-0.045,0.267-0.045,0.404
	c0,6.382,5.792,11.556,12.929,11.556S61.74,31.671,61.74,25.289c0-0.139-0.04-0.267-0.046-0.404h0.046V13.736z"/>
<circle fill="#2D2928" stroke="#444141" stroke-width="0.25" stroke-miterlimit="10" cx="11.617" cy="7.999" r="0.781"/>
<circle fill="#2D2928" stroke="#474343" stroke-width="0.25" stroke-miterlimit="10" cx="11.617" cy="3.555" r="0.781"/>
<circle fill="#2D2928" stroke="#3D3938" stroke-width="0.25" stroke-miterlimit="10" cx="85.766" cy="7.999" r="0.781"/>
<circle fill="#2D2928" stroke="#3D3938" stroke-width="0.25" stroke-miterlimit="10" cx="85.766" cy="3.555" r="0.781"/>
<polyline fill="#333333" points="9.058,10.665 21.662,19.716 74.992,19.716 88.566,10.665 9.058,10.665 "/>
<polygon opacity="0.41" fill="#3F3F3F" enable-background="new    " points="42.14,16.316 38.307,10.972 10.294,10.972 
	21.953,19.716 58.58,19.134 "/>
<path fill="#2D2928" d="M75.111,20.104H21.539L7.851,10.277h82L75.111,20.104z M21.787,19.327h53.086l12.411-8.273H10.266
	L21.787,19.327z"/>
<rect x="13.365" y="9.372" fill="#605958" width="70.354" height="0.689"/>
<path opacity="0.53" fill="#681313" enable-background="new    " d="M41.609,31.021c0,0,3.823-10.203,9.976-10.46
	c6.153-0.26-14.312,0-14.312,0S36.558,28.721,41.609,31.021z"/>
<path fill="#8E1B16" d="M48.394,36.827c-2.946-1.925-8.664-6.521-9.729-9.146c-1.067-2.622-0.681-7.554-0.681-7.554l-2.1,0.041
	v4.716h0.045c-0.004,0.139-0.045,0.267-0.045,0.404C35.884,31.545,41.453,36.627,48.394,36.827z"/>
<linearGradient id="SVGID_6_" gradientUnits="userSpaceOnUse" x1="2327.375" y1="-556.4565" x2="2327.375" y2="-571.4709" gradientTransform="matrix(-1 0 0 1 2375.8184 591.9941)">
	<stop  offset="0" style="stop-color:#FFFFFF"/>
	<stop  offset="0.0185" style="stop-color:#F5F5F5;stop-opacity:0.9815"/>
	<stop  offset="0.1204" style="stop-color:#C3C3C2;stop-opacity:0.8796"/>
	<stop  offset="0.2271" style="stop-color:#969696;stop-opacity:0.7729"/>
	<stop  offset="0.3368" style="stop-color:#717170;stop-opacity:0.6632"/>
	<stop  offset="0.4501" style="stop-color:#535351;stop-opacity:0.5499"/>
	<stop  offset="0.5683" style="stop-color:#3B3B39;stop-opacity:0.4317"/>
	<stop  offset="0.6933" style="stop-color:#2A2A28;stop-opacity:0.3067"/>
	<stop  offset="0.8299" style="stop-color:#20201E;stop-opacity:0.1701"/>
	<stop  offset="1" style="stop-color:#1D1D1B;stop-opacity:0"/>
</linearGradient>
<path opacity="0.47" fill="url(#SVGID_6_)" enable-background="new    " d="M58.58,31.633c0,0-9.133,10.881-20.273-1.101"/>
<linearGradient id="SVGID_7_" gradientUnits="userSpaceOnUse" x1="-511.0596" y1="1287.7178" x2="-507.3687" y2="1279.5105" gradientTransform="matrix(1 0 0 -1 564 1316.2383)">
	<stop  offset="0" style="stop-color:#FFFFFF"/>
	<stop  offset="0.0185" style="stop-color:#F5F5F5;stop-opacity:0.9815"/>
	<stop  offset="0.1204" style="stop-color:#C3C3C2;stop-opacity:0.8796"/>
	<stop  offset="0.2271" style="stop-color:#969696;stop-opacity:0.7729"/>
	<stop  offset="0.3368" style="stop-color:#717170;stop-opacity:0.6632"/>
	<stop  offset="0.4501" style="stop-color:#535351;stop-opacity:0.5499"/>
	<stop  offset="0.5683" style="stop-color:#3B3B39;stop-opacity:0.4317"/>
	<stop  offset="0.6933" style="stop-color:#2A2A28;stop-opacity:0.3067"/>
	<stop  offset="0.8299" style="stop-color:#20201E;stop-opacity:0.1701"/>
	<stop  offset="1" style="stop-color:#1D1D1B;stop-opacity:0"/>
</linearGradient>
<circle opacity="0.4" fill="url(#SVGID_7_)" enable-background="new    " cx="54.014" cy="30.907" r="2.429"/>
<linearGradient id="SVGID_8_" gradientUnits="userSpaceOnUse" x1="-506.7632" y1="1287.3965" x2="-504.9923" y2="1283.4586" gradientTransform="matrix(1 0 0 -1 564 1316.2383)">
	<stop  offset="0" style="stop-color:#FFFFFF"/>
	<stop  offset="0.0185" style="stop-color:#F5F5F5;stop-opacity:0.9815"/>
	<stop  offset="0.1204" style="stop-color:#C3C3C2;stop-opacity:0.8796"/>
	<stop  offset="0.2271" style="stop-color:#969696;stop-opacity:0.7729"/>
	<stop  offset="0.3368" style="stop-color:#717170;stop-opacity:0.6632"/>
	<stop  offset="0.4501" style="stop-color:#535351;stop-opacity:0.5499"/>
	<stop  offset="0.5683" style="stop-color:#3B3B39;stop-opacity:0.4317"/>
	<stop  offset="0.6933" style="stop-color:#2A2A28;stop-opacity:0.3067"/>
	<stop  offset="0.8299" style="stop-color:#20201E;stop-opacity:0.1701"/>
	<stop  offset="1" style="stop-color:#1D1D1B;stop-opacity:0"/>
</linearGradient>
<circle opacity="0.4" fill="url(#SVGID_8_)" enable-background="new    " cx="57.752" cy="29.986" r="1.166"/>
<linearGradient id="SVGID_9_" gradientUnits="userSpaceOnUse" x1="-512.4316" y1="1282.8672" x2="-511.1031" y2="1279.9131" gradientTransform="matrix(1 0 0 -1 564 1316.2383)">
	<stop  offset="0" style="stop-color:#FFFFFF"/>
	<stop  offset="0.0185" style="stop-color:#F5F5F5;stop-opacity:0.9815"/>
	<stop  offset="0.1204" style="stop-color:#C3C3C2;stop-opacity:0.8796"/>
	<stop  offset="0.2271" style="stop-color:#969696;stop-opacity:0.7729"/>
	<stop  offset="0.3368" style="stop-color:#717170;stop-opacity:0.6632"/>
	<stop  offset="0.4501" style="stop-color:#535351;stop-opacity:0.5499"/>
	<stop  offset="0.5683" style="stop-color:#3B3B39;stop-opacity:0.4317"/>
	<stop  offset="0.6933" style="stop-color:#2A2A28;stop-opacity:0.3067"/>
	<stop  offset="0.8299" style="stop-color:#20201E;stop-opacity:0.1701"/>
	<stop  offset="1" style="stop-color:#1D1D1B;stop-opacity:0"/>
</linearGradient>
<circle opacity="0.4" fill="url(#SVGID_9_)" enable-background="new    " cx="51.953" cy="34.229" r="0.874"/>
<linearGradient id="SVGID_10_" gradientUnits="userSpaceOnUse" x1="-510.394" y1="1283.5938" x2="-509.0656" y2="1280.6398" gradientTransform="matrix(1 0 0 -1 564 1316.2383)">
	<stop  offset="0" style="stop-color:#FFFFFF"/>
	<stop  offset="0.0185" style="stop-color:#F5F5F5;stop-opacity:0.9815"/>
	<stop  offset="0.1204" style="stop-color:#C3C3C2;stop-opacity:0.8796"/>
	<stop  offset="0.2271" style="stop-color:#969696;stop-opacity:0.7729"/>
	<stop  offset="0.3368" style="stop-color:#717170;stop-opacity:0.6632"/>
	<stop  offset="0.4501" style="stop-color:#535351;stop-opacity:0.5499"/>
	<stop  offset="0.5683" style="stop-color:#3B3B39;stop-opacity:0.4317"/>
	<stop  offset="0.6933" style="stop-color:#2A2A28;stop-opacity:0.3067"/>
	<stop  offset="0.8299" style="stop-color:#20201E;stop-opacity:0.1701"/>
	<stop  offset="1" style="stop-color:#1D1D1B;stop-opacity:0"/>
</linearGradient>
<circle opacity="0.4" fill="url(#SVGID_10_)" enable-background="new    " cx="53.992" cy="33.503" r="0.875"/>
<path opacity="0.7" fill="#660000" enable-background="new    " d="M38.518,20.444c0,0,22.113,0.729,20.61,5.344
	s2.868-3.255,2.141-5.344H38.518z"/>
<path fill="none" stroke="#303030" stroke-width="0.5" stroke-miterlimit="10" d="M13.825,6.244
	C24.075,6.279,34.38,6.391,44.642,6.12c5.921-0.156,11.722-0.807,17.655-0.416c7.059,0.463,14.165-0.193,21.221,0.41"/>
<path fill="none" stroke="#303030" stroke-width="0.5" stroke-miterlimit="10" d="M62.273,7.668
	c6.249-0.415,12.59,0.496,18.783-0.128"/>
<path fill="none" stroke="#303030" stroke-width="0.5" stroke-miterlimit="10" d="M12.918,3.912c14.392,0,29.008,0.656,43.38-0.323
	c8.386-0.571,17.02-0.588,25.405-0.583"/>
<path fill="none" stroke="#303030" stroke-width="0.5" stroke-miterlimit="10" d="M58.775,7.54
	c-0.945,0.503-2.209,0.409-3.208,0.455c-5.095,0.232-10.19,0.19-15.289,0.191c-3.539,0.001-7.075,0-10.614,0
	c-1.83,0-3.658,0.176-5.478,0.131"/>
<path fill="none" stroke="#303030" stroke-width="0.5" stroke-miterlimit="10" d="M4.811,3.006
	c11.349,0.297,22.637-1.038,33.938-1.038"/>
<polygon fill="#38221C" points="198.193,0 99.097,0 105.811,5.143 191.44,5.143 "/>
<rect x="108.154" y="1.616" fill="#333333" stroke="#2D2928" stroke-width="0.5" stroke-miterlimit="10" width="79.509" height="9.049"/>
<rect x="108.581" y="1.904" opacity="0.41" fill="#3F3F3F" enable-background="new    " width="28.629" height="8.157"/>
<path fill="#303030" d="M108.581,10.277h4.522c-0.252-0.176-0.552-0.349-0.572-0.654c-0.529-0.047-1.074-0.013-1.59,0.096
	c0.061-0.015,0.128-0.029,0.185-0.043c-0.541-0.033-1.181,0.122-1.688-0.112c0.374,0.009,1.041,0.172,1.359,0.005
	c0.037-0.019,0.427-0.513,0.496-0.599c-0.045-0.019-0.115-0.082-0.188-0.1c0.102-0.246,0.489-0.179,0.558-0.551
	c0.078-0.415-0.303-0.568-0.633-0.642c0.188-0.31,0.68-0.31,0.905-0.605c-0.213-0.26-0.562-0.274-0.878-0.252
	c0.131-0.15,0.088-0.271,0.111-0.434c-0.516-0.033-1.16,0.183-1.641-0.023c0.028-0.05,0.037-0.136,0.058-0.18
	c-0.123,0.02-0.259-0.07-0.376-0.067c0.036-0.217-0.061-0.416-0.269-0.485c0.258-0.208,0.377-0.222,0.538-0.496
	c0.061-0.102,0.062-0.335,0.113-0.463c0.056-0.136,0.209-0.272,0.285-0.384c-0.544-0.102,0.163-0.572-0.39-0.611
	c0.161-0.191,0.209-0.396-0.046-0.452c0.154-0.298-0.164-0.433-0.403-0.487c0.22-0.188,0.633-0.072,0.845-0.345
	c-0.159-0.009-0.323-0.012-0.484-0.005c0.219,0.011,0.4-0.119,0.454-0.342c-0.049-0.056-0.125-0.098-0.196-0.142h-1.074v8.373
	H108.581z"/>
<path fill="#DC0000" d="M160.837,13.736H134.98v11.148h0.045c-0.004,0.139-0.045,0.267-0.045,0.404
	c0,6.382,5.792,11.556,12.929,11.556s12.928-5.174,12.928-11.556c0-0.139-0.04-0.267-0.046-0.404h0.046V13.736z"/>
<circle fill="#2D2928" stroke="#444141" stroke-width="0.25" stroke-miterlimit="10" cx="110.714" cy="7.999" r="0.781"/>
<circle fill="#2D2928" stroke="#474343" stroke-width="0.25" stroke-miterlimit="10" cx="110.714" cy="3.555" r="0.781"/>
<circle fill="#2D2928" stroke="#3D3938" stroke-width="0.25" stroke-miterlimit="10" cx="184.862" cy="7.999" r="0.781"/>
<circle fill="#2D2928" stroke="#3D3938" stroke-width="0.25" stroke-miterlimit="10" cx="184.862" cy="3.555" r="0.781"/>
<polyline fill="#333333" points="108.154,10.665 120.759,19.716 174.089,19.716 187.663,10.665 108.154,10.665 "/>
<polygon opacity="0.41" fill="#3F3F3F" enable-background="new    " points="141.236,16.316 137.403,10.972 109.391,10.972 
	121.05,19.716 157.677,19.134 "/>
<path fill="#2D2928" d="M174.208,20.104h-53.572l-13.688-9.827h82L174.208,20.104z M120.884,19.327h53.086l12.411-8.273h-77.019
	L120.884,19.327z"/>
<rect x="112.462" y="9.372" fill="#605958" width="70.354" height="0.689"/>
<path opacity="0.53" fill="#9F1313" enable-background="new    " d="M140.706,31.021c0,0,3.823-10.203,9.976-10.46
	c6.153-0.26-14.312,0-14.312,0S135.654,28.721,140.706,31.021z"/>
<path fill="#8E1B16" d="M147.49,36.827c-2.946-1.925-8.664-6.521-9.729-9.146c-1.067-2.622-0.681-7.554-0.681-7.554l-2.1,0.041
	v4.716h0.045c-0.004,0.139-0.045,0.267-0.045,0.404C134.98,31.545,140.55,36.627,147.49,36.827z"/>
<linearGradient id="SVGID_11_" gradientUnits="userSpaceOnUse" x1="2228.2773" y1="-556.4565" x2="2228.2773" y2="-571.4709" gradientTransform="matrix(-1 0 0 1 2375.8184 591.9941)">
	<stop  offset="0" style="stop-color:#FFFFFF"/>
	<stop  offset="0.0185" style="stop-color:#F5F5F5;stop-opacity:0.9815"/>
	<stop  offset="0.1204" style="stop-color:#C3C3C2;stop-opacity:0.8796"/>
	<stop  offset="0.2271" style="stop-color:#969696;stop-opacity:0.7729"/>
	<stop  offset="0.3368" style="stop-color:#717170;stop-opacity:0.6632"/>
	<stop  offset="0.4501" style="stop-color:#535351;stop-opacity:0.5499"/>
	<stop  offset="0.5683" style="stop-color:#3B3B39;stop-opacity:0.4317"/>
	<stop  offset="0.6933" style="stop-color:#2A2A28;stop-opacity:0.3067"/>
	<stop  offset="0.8299" style="stop-color:#20201E;stop-opacity:0.1701"/>
	<stop  offset="1" style="stop-color:#1D1D1B;stop-opacity:0"/>
</linearGradient>
<path opacity="0.47" fill="url(#SVGID_11_)" enable-background="new    " d="M157.677,31.633c0,0-9.133,10.881-20.273-1.101"/>
<linearGradient id="SVGID_12_" gradientUnits="userSpaceOnUse" x1="-411.9619" y1="1287.7178" x2="-408.2711" y2="1279.5105" gradientTransform="matrix(1 0 0 -1 564 1316.2383)">
	<stop  offset="0" style="stop-color:#FFFFFF"/>
	<stop  offset="0.0185" style="stop-color:#F5F5F5;stop-opacity:0.9815"/>
	<stop  offset="0.1204" style="stop-color:#C3C3C2;stop-opacity:0.8796"/>
	<stop  offset="0.2271" style="stop-color:#969696;stop-opacity:0.7729"/>
	<stop  offset="0.3368" style="stop-color:#717170;stop-opacity:0.6632"/>
	<stop  offset="0.4501" style="stop-color:#535351;stop-opacity:0.5499"/>
	<stop  offset="0.5683" style="stop-color:#3B3B39;stop-opacity:0.4317"/>
	<stop  offset="0.6933" style="stop-color:#2A2A28;stop-opacity:0.3067"/>
	<stop  offset="0.8299" style="stop-color:#20201E;stop-opacity:0.1701"/>
	<stop  offset="1" style="stop-color:#1D1D1B;stop-opacity:0"/>
</linearGradient>
<circle opacity="0.4" fill="url(#SVGID_12_)" enable-background="new    " cx="153.11" cy="30.907" r="2.429"/>
<linearGradient id="SVGID_13_" gradientUnits="userSpaceOnUse" x1="-407.666" y1="1287.3965" x2="-405.8952" y2="1283.4586" gradientTransform="matrix(1 0 0 -1 564 1316.2383)">
	<stop  offset="0" style="stop-color:#FFFFFF"/>
	<stop  offset="0.0185" style="stop-color:#F5F5F5;stop-opacity:0.9815"/>
	<stop  offset="0.1204" style="stop-color:#C3C3C2;stop-opacity:0.8796"/>
	<stop  offset="0.2271" style="stop-color:#969696;stop-opacity:0.7729"/>
	<stop  offset="0.3368" style="stop-color:#717170;stop-opacity:0.6632"/>
	<stop  offset="0.4501" style="stop-color:#535351;stop-opacity:0.5499"/>
	<stop  offset="0.5683" style="stop-color:#3B3B39;stop-opacity:0.4317"/>
	<stop  offset="0.6933" style="stop-color:#2A2A28;stop-opacity:0.3067"/>
	<stop  offset="0.8299" style="stop-color:#20201E;stop-opacity:0.1701"/>
	<stop  offset="1" style="stop-color:#1D1D1B;stop-opacity:0"/>
</linearGradient>
<circle opacity="0.4" fill="url(#SVGID_13_)" enable-background="new    " cx="156.849" cy="29.986" r="1.166"/>
<linearGradient id="SVGID_14_" gradientUnits="userSpaceOnUse" x1="-413.3345" y1="1282.8672" x2="-412.006" y2="1279.9131" gradientTransform="matrix(1 0 0 -1 564 1316.2383)">
	<stop  offset="0" style="stop-color:#FFFFFF"/>
	<stop  offset="0.0185" style="stop-color:#F5F5F5;stop-opacity:0.9815"/>
	<stop  offset="0.1204" style="stop-color:#C3C3C2;stop-opacity:0.8796"/>
	<stop  offset="0.2271" style="stop-color:#969696;stop-opacity:0.7729"/>
	<stop  offset="0.3368" style="stop-color:#717170;stop-opacity:0.6632"/>
	<stop  offset="0.4501" style="stop-color:#535351;stop-opacity:0.5499"/>
	<stop  offset="0.5683" style="stop-color:#3B3B39;stop-opacity:0.4317"/>
	<stop  offset="0.6933" style="stop-color:#2A2A28;stop-opacity:0.3067"/>
	<stop  offset="0.8299" style="stop-color:#20201E;stop-opacity:0.1701"/>
	<stop  offset="1" style="stop-color:#1D1D1B;stop-opacity:0"/>
</linearGradient>
<circle opacity="0.4" fill="url(#SVGID_14_)" enable-background="new    " cx="151.05" cy="34.229" r="0.874"/>
<linearGradient id="SVGID_15_" gradientUnits="userSpaceOnUse" x1="-411.2979" y1="1283.5938" x2="-409.9687" y2="1280.6381" gradientTransform="matrix(1 0 0 -1 564 1316.2383)">
	<stop  offset="0" style="stop-color:#FFFFFF"/>
	<stop  offset="0.0185" style="stop-color:#F5F5F5;stop-opacity:0.9815"/>
	<stop  offset="0.1204" style="stop-color:#C3C3C2;stop-opacity:0.8796"/>
	<stop  offset="0.2271" style="stop-color:#969696;stop-opacity:0.7729"/>
	<stop  offset="0.3368" style="stop-color:#717170;stop-opacity:0.6632"/>
	<stop  offset="0.4501" style="stop-color:#535351;stop-opacity:0.5499"/>
	<stop  offset="0.5683" style="stop-color:#3B3B39;stop-opacity:0.4317"/>
	<stop  offset="0.6933" style="stop-color:#2A2A28;stop-opacity:0.3067"/>
	<stop  offset="0.8299" style="stop-color:#20201E;stop-opacity:0.1701"/>
	<stop  offset="1" style="stop-color:#1D1D1B;stop-opacity:0"/>
</linearGradient>
<circle opacity="0.4" fill="url(#SVGID_15_)" enable-background="new    " cx="153.089" cy="33.503" r="0.875"/>
<path opacity="0.7" fill="#660000" enable-background="new    " d="M137.614,20.444c0,0,22.113,0.729,20.61,5.344
	s2.868-3.255,2.141-5.344H137.614z"/>
<path fill="none" stroke="#303030" stroke-width="0.5" stroke-miterlimit="10" d="M112.922,6.244
	c10.25,0.035,20.555,0.146,30.816-0.124c5.921-0.156,11.722-0.807,17.655-0.416c7.059,0.463,14.165-0.193,21.221,0.41"/>
<path fill="none" stroke="#303030" stroke-width="0.5" stroke-miterlimit="10" d="M161.37,7.668
	c6.249-0.415,12.59,0.496,18.783-0.128"/>
<path fill="none" stroke="#303030" stroke-width="0.5" stroke-miterlimit="10" d="M112.015,3.912c14.392,0,29.008,0.656,43.38-0.323
	c8.386-0.571,17.02-0.588,25.405-0.583"/>
<path fill="none" stroke="#303030" stroke-width="0.5" stroke-miterlimit="10" d="M157.872,7.54
	c-0.945,0.503-2.209,0.409-3.208,0.455c-5.095,0.232-10.19,0.19-15.289,0.191c-3.539,0.001-7.075,0-10.614,0
	c-1.83,0-3.658,0.176-5.478,0.131"/>
<path fill="none" stroke="#303030" stroke-width="0.5" stroke-miterlimit="10" d="M103.907,3.006
	c11.349,0.297,22.637-1.038,33.938-1.038"/>
<line fill="none" stroke="#E30613" stroke-linecap="round" stroke-linejoin="round" stroke-miterlimit="10" x1="134.98" y1="36.845" x2="127.667" y2="45.703"/>
<line fill="none" stroke="#E30613" stroke-linecap="round" stroke-linejoin="round" stroke-miterlimit="10" x1="159.11" y1="36.845" x2="166.424" y2="45.703"/>
<line fill="none" stroke="#E30613" stroke-linecap="round" stroke-linejoin="round" stroke-miterlimit="10" x1="147.49" y1="37.786" x2="147.49" y2="45.703"/>
</svg>
