<?xml version="1.0" encoding="utf-8"?>
<!-- Generator: Adobe Illustrator 15.0.0, SVG Export Plug-In  -->
<!DOCTYPE svg PUBLIC "-//W3C//DTD SVG 1.1//EN" "http://www.w3.org/Graphics/SVG/1.1/DTD/svg11.dtd" [
	<!ENTITY ns_flows "http://ns.adobe.com/Flows/1.0/">
]>
<svg version="1.1"
	 xmlns="http://www.w3.org/2000/svg" xmlns:xlink="http://www.w3.org/1999/xlink" xmlns:a="http://ns.adobe.com/AdobeSVGViewerExtensions/3.0/"
	 x="0px" y="0px" width="1920px" height="1080px" viewBox="0 0 1920 1080"
	 overflow="visible" enable-background="new 0 0 1920 1080" xml:space="preserve">
<defs>
	
		<pattern  width="4.575" height="4.408" patternUnits="userSpaceOnUse" id="Nouveau_motif" viewBox="0 -4.408 4.575 4.408" overflow="visible">
		<g>
			<polygon fill="none" points="0,0 4.575,0 4.575,-4.408 0,-4.408 			"/>
			<polygon fill="#7BA538" points="1.539,-2.869 0,-2.869 0,-4.408 1.539,-4.408 			"/>
			<polygon fill="#7BA538" points="4.575,-2.869 3.036,-2.869 3.036,-4.408 4.575,-4.408 			"/>
			<polygon fill="#7BA538" points="4.575,0 3.036,0 3.036,-1.54 4.575,-1.54 			"/>
			<polygon fill="#7BA538" points="1.539,0 0,0 0,-1.54 1.539,-1.54 			"/>
		</g>
	</pattern>
	
		<pattern  width="8.115" height="14.383" patternUnits="userSpaceOnUse" id="brde" viewBox="0.098 -14.481 8.115 14.383" overflow="visible">
		<g>
			<polygon fill="none" points="0.098,-0.098 8.214,-0.098 8.214,-14.48 0.098,-14.48 			"/>
			<path fill="#6B5038" d="M2.854-13.194c-0.326,0.201-0.755,0.1-0.956-0.227c-0.202-0.327-0.1-0.755,0.227-0.957
				c0.327-0.202,0.755-0.101,0.957,0.227C3.283-13.824,3.183-13.396,2.854-13.194"/>
			<path fill="#6B5038" d="M6.512-0.201C6.186,0,5.756-0.102,5.555-0.428C5.353-0.755,5.456-1.183,5.782-1.384
				c0.326-0.202,0.754-0.101,0.956,0.227C6.939-0.831,6.838-0.403,6.512-0.201"/>
			<path fill="#6B5038" d="M7.883-5.041c-0.326,0.201-0.755,0.1-0.956-0.227c-0.202-0.327-0.1-0.756,0.227-0.957
				c0.327-0.202,0.755-0.1,0.957,0.227C8.312-5.67,8.211-5.242,7.883-5.041"/>
			<path fill="#6B5038" d="M3.754-4.672c-0.326,0.201-0.755,0.1-0.957-0.227C2.596-5.226,2.698-5.655,3.023-5.856
				c0.328-0.202,0.756-0.1,0.958,0.227C4.183-5.302,4.081-4.874,3.754-4.672"/>
			<path fill="#6B5038" d="M5.288-9.249c-0.326,0.201-0.756,0.1-0.957-0.227C4.13-9.803,4.232-10.23,4.559-10.432
				c0.327-0.202,0.754-0.101,0.956,0.227C5.716-9.879,5.615-9.451,5.288-9.249"/>
			<path fill="#6B5038" d="M1.159-8.88c-0.326,0.201-0.756,0.1-0.957-0.227C0-9.434,0.103-9.862,0.429-10.063
				c0.327-0.202,0.755-0.101,0.957,0.227C1.587-9.511,1.485-9.082,1.159-8.88"/>
		</g>
	</pattern>
	<pattern  width="4.575" height="4.408" patternUnits="userSpaceOnUse" id="m2" viewBox="0 -4.408 4.575 4.408" overflow="visible">
		<g>
			<polygon fill="none" points="0,0 4.575,0 4.575,-4.408 0,-4.408 			"/>
			<polygon fill="#1C995D" points="1.539,-2.869 0,-2.869 0,-4.408 1.539,-4.408 			"/>
			<polygon fill="#1C995D" points="4.575,-2.869 3.036,-2.869 3.036,-4.408 4.575,-4.408 			"/>
			<polygon fill="#1C995D" points="4.575,0 3.036,0 3.036,-1.54 4.575,-1.54 			"/>
			<polygon fill="#1C995D" points="1.539,0 0,0 0,-1.54 1.539,-1.54 			"/>
		</g>
	</pattern>
</defs>
<linearGradient id="SVGID_1_" gradientUnits="userSpaceOnUse" x1="1027.4785" y1="203.3574" x2="1027.4785" y2="713.4026">
	<stop  offset="0" style="stop-color:#E5E5E5"/>
	<stop  offset="1" style="stop-color:#AFAFAF"/>
</linearGradient>
<path display="none" fill="url(#SVGID_1_)" stroke="#CCCCCC" stroke-width="4" stroke-miterlimit="10" d="M424.749,841.805v-630.5
	c0,0,210.696-205.426,899.378-205.426c688.683,0,0,0,0,0h304.621l-14.821,835.927H424.749z"/>
<linearGradient id="SVGID_2_" gradientUnits="userSpaceOnUse" x1="499.7559" y1="313.9365" x2="920.4531" y2="583.494">
	<stop  offset="0" style="stop-color:#95DCEF"/>
	<stop  offset="1" style="stop-color:#67B8EF"/>
</linearGradient>
<rect x="459.357" y="267.241" display="none" fill="url(#SVGID_2_)" width="461.896" height="337.577"/>
<path display="none" fill="#2B2B2B" d="M893.243,587.964l8.894-32.171c0,0,3.138-20.14-3.401-20.14c-6.538,0-18.569,0-18.569,0
	s-4.971-3.661-4.971-15.171c0,0-1.045-3.53-3.53-3.53c-2.029,0-9.156,0-11.704,0c-0.572,0-0.916,0-0.916,0
	c-2.548,0-9.676,0-11.704,0c-2.485,0-3.53,3.53-3.53,3.53c0,11.51-4.971,15.171-4.971,15.171s-12.031,0-18.569,0
	c-6.539,0-3.401,20.14-3.401,20.14l12.817,32.171l-14.386,15.726h43.744h0.916h43.745L893.243,587.964z"/>
<path display="none" fill="#2B2B2B" d="M742.309,587.964l8.893-32.171c0,0,3.139-20.14-3.401-20.14c-6.538,0-18.569,0-18.569,0
	s-4.971-3.661-4.971-15.171c0,0-1.045-3.53-3.529-3.53c-2.03,0-9.157,0-11.705,0c-0.572,0-0.916,0-0.916,0
	c-2.548,0-9.675,0-11.703,0c-2.485,0-3.531,3.53-3.531,3.53c0,11.51-4.971,15.171-4.971,15.171s-12.031,0-18.569,0
	c-6.539,0-3.4,20.14-3.4,20.14l12.816,32.171l-14.386,15.726h43.744h0.916h43.745L742.309,587.964z"/>
<path display="none" fill="#2B2B2B" d="M597.35,587.964l8.894-32.171c0,0,3.138-20.14-3.401-20.14c-6.538,0-18.569,0-18.569,0
	s-4.971-3.661-4.971-15.171c0,0-1.045-3.53-3.53-3.53c-2.029,0-9.156,0-11.704,0c-0.572,0-0.916,0-0.916,0
	c-2.548,0-9.676,0-11.704,0c-2.485,0-3.53,3.53-3.53,3.53c0,11.51-4.971,15.171-4.971,15.171s-12.031,0-18.569,0
	c-6.539,0-3.4,20.14-3.4,20.14l12.816,32.171l-14.386,15.726h43.744h0.916h43.745L597.35,587.964z"/>
<radialGradient id="SVGID_3_" cx="598.8066" cy="639.5029" r="5.8149" fx="595.546" fy="635.5181" gradientTransform="matrix(1 0 0 -1 244 1176)" gradientUnits="userSpaceOnUse">
	<stop  offset="0" style="stop-color:#FFF6BF"/>
	<stop  offset="0.5644" style="stop-color:#FFAC00"/>
	<stop  offset="1" style="stop-color:#FFC900"/>
</radialGradient>
<circle display="none" fill="url(#SVGID_3_)" stroke="#D19A00" stroke-miterlimit="10" cx="842.807" cy="536.497" r="5.815"/>
<radialGradient id="SVGID_4_" cx="605.7925" cy="629.8691" r="5.8152" fx="602.5317" fy="625.8842" gradientTransform="matrix(1 0 0 -1 244 1176)" gradientUnits="userSpaceOnUse">
	<stop  offset="0" style="stop-color:#FFF6BF"/>
	<stop  offset="0.5644" style="stop-color:#FFAC00"/>
	<stop  offset="1" style="stop-color:#FFC900"/>
</radialGradient>
<circle display="none" fill="url(#SVGID_4_)" stroke="#D19A00" stroke-miterlimit="10" cx="849.792" cy="546.13" r="5.815"/>
<radialGradient id="SVGID_5_" cx="615.1709" cy="623.6367" r="5.8154" fx="611.9099" fy="619.6516" gradientTransform="matrix(1 0 0 -1 244 1176)" gradientUnits="userSpaceOnUse">
	<stop  offset="0" style="stop-color:#FFF6BF"/>
	<stop  offset="0.5644" style="stop-color:#FFAC00"/>
	<stop  offset="1" style="stop-color:#FFC900"/>
</radialGradient>
<circle display="none" fill="url(#SVGID_5_)" stroke="#D19A00" stroke-miterlimit="10" cx="859.171" cy="552.363" r="5.815"/>
<radialGradient id="SVGID_6_" cx="626.8022" cy="629.8691" r="5.8152" fx="623.5414" fy="625.8842" gradientTransform="matrix(1 0 0 -1 244 1176)" gradientUnits="userSpaceOnUse">
	<stop  offset="0" style="stop-color:#FFF6BF"/>
	<stop  offset="0.5644" style="stop-color:#FFAC00"/>
	<stop  offset="1" style="stop-color:#FFC900"/>
</radialGradient>
<circle display="none" fill="url(#SVGID_6_)" stroke="#D19A00" stroke-miterlimit="10" cx="870.802" cy="546.13" r="5.815"/>
<radialGradient id="SVGID_7_" cx="635.3159" cy="639.2188" r="5.8147" fx="632.0554" fy="635.2341" gradientTransform="matrix(1 0 0 -1 244 1176)" gradientUnits="userSpaceOnUse">
	<stop  offset="0" style="stop-color:#FFF6BF"/>
	<stop  offset="0.5644" style="stop-color:#FFAC00"/>
	<stop  offset="1" style="stop-color:#FFC900"/>
</radialGradient>
<circle display="none" fill="url(#SVGID_7_)" stroke="#D19A00" stroke-miterlimit="10" cx="879.315" cy="536.782" r="5.815"/>
<radialGradient id="SVGID_8_" cx="690.314" cy="536.4971" r="5.8152" gradientUnits="userSpaceOnUse">
	<stop  offset="0" style="stop-color:#FFFFFF"/>
	<stop  offset="0.5215" style="stop-color:#D3D3D3"/>
	<stop  offset="1" style="stop-color:#727272"/>
</radialGradient>
<circle display="none" fill="url(#SVGID_8_)" stroke="#727272" stroke-miterlimit="10" cx="690.313" cy="536.497" r="5.815"/>
<radialGradient id="SVGID_9_" cx="697.2993" cy="546.1309" r="5.8147" gradientUnits="userSpaceOnUse">
	<stop  offset="0" style="stop-color:#FFFFFF"/>
	<stop  offset="0.5215" style="stop-color:#D3D3D3"/>
	<stop  offset="1" style="stop-color:#727272"/>
</radialGradient>
<circle display="none" fill="url(#SVGID_9_)" stroke="#727272" stroke-miterlimit="10" cx="697.299" cy="546.13" r="5.815"/>
<radialGradient id="SVGID_10_" cx="706.6772" cy="552.3633" r="5.8147" gradientUnits="userSpaceOnUse">
	<stop  offset="0" style="stop-color:#FFFFFF"/>
	<stop  offset="0.5215" style="stop-color:#D3D3D3"/>
	<stop  offset="1" style="stop-color:#727272"/>
</radialGradient>
<circle display="none" fill="url(#SVGID_10_)" stroke="#727272" stroke-miterlimit="10" cx="706.678" cy="552.363" r="5.815"/>
<radialGradient id="SVGID_11_" cx="718.3091" cy="546.1309" r="5.8147" gradientUnits="userSpaceOnUse">
	<stop  offset="0" style="stop-color:#FFFFFF"/>
	<stop  offset="0.5215" style="stop-color:#D3D3D3"/>
	<stop  offset="1" style="stop-color:#727272"/>
</radialGradient>
<circle display="none" fill="url(#SVGID_11_)" stroke="#727272" stroke-miterlimit="10" cx="718.31" cy="546.13" r="5.815"/>
<radialGradient id="SVGID_12_" cx="726.8223" cy="536.7817" r="5.8147" gradientUnits="userSpaceOnUse">
	<stop  offset="0" style="stop-color:#FFFFFF"/>
	<stop  offset="0.5215" style="stop-color:#D3D3D3"/>
	<stop  offset="1" style="stop-color:#727272"/>
</radialGradient>
<circle display="none" fill="url(#SVGID_12_)" stroke="#727272" stroke-miterlimit="10" cx="726.822" cy="536.782" r="5.815"/>
<radialGradient id="SVGID_13_" cx="305.0435" cy="639.5029" r="5.8152" fx="301.7827" fy="635.5179" gradientTransform="matrix(1 0 0 -1 244 1176)" gradientUnits="userSpaceOnUse">
	<stop  offset="0" style="stop-color:#FFF6BF"/>
	<stop  offset="0.5644" style="stop-color:#FFAC00"/>
	<stop  offset="1" style="stop-color:#FFC900"/>
</radialGradient>
<circle display="none" fill="url(#SVGID_13_)" stroke="#D19A00" stroke-miterlimit="10" cx="549.044" cy="536.497" r="5.815"/>
<radialGradient id="SVGID_14_" cx="312.0293" cy="629.8691" r="5.8149" fx="308.7686" fy="625.8843" gradientTransform="matrix(1 0 0 -1 244 1176)" gradientUnits="userSpaceOnUse">
	<stop  offset="0" style="stop-color:#FFF6BF"/>
	<stop  offset="0.5644" style="stop-color:#FFAC00"/>
	<stop  offset="1" style="stop-color:#FFC900"/>
</radialGradient>
<circle display="none" fill="url(#SVGID_14_)" stroke="#D19A00" stroke-miterlimit="10" cx="556.028" cy="546.13" r="5.815"/>
<radialGradient id="SVGID_15_" cx="321.4072" cy="623.6367" r="5.8154" fx="318.1462" fy="619.6516" gradientTransform="matrix(1 0 0 -1 244 1176)" gradientUnits="userSpaceOnUse">
	<stop  offset="0" style="stop-color:#FFF6BF"/>
	<stop  offset="0.5644" style="stop-color:#FFAC00"/>
	<stop  offset="1" style="stop-color:#FFC900"/>
</radialGradient>
<circle display="none" fill="url(#SVGID_15_)" stroke="#D19A00" stroke-miterlimit="10" cx="565.407" cy="552.363" r="5.815"/>
<radialGradient id="SVGID_16_" cx="333.0391" cy="629.8691" r="5.8149" fx="329.7784" fy="625.8843" gradientTransform="matrix(1 0 0 -1 244 1176)" gradientUnits="userSpaceOnUse">
	<stop  offset="0" style="stop-color:#FFF6BF"/>
	<stop  offset="0.5644" style="stop-color:#FFAC00"/>
	<stop  offset="1" style="stop-color:#FFC900"/>
</radialGradient>
<circle display="none" fill="url(#SVGID_16_)" stroke="#D19A00" stroke-miterlimit="10" cx="577.039" cy="546.13" r="5.815"/>
<radialGradient id="SVGID_17_" cx="341.5522" cy="639.2188" r="5.8147" fx="338.2917" fy="635.2341" gradientTransform="matrix(1 0 0 -1 244 1176)" gradientUnits="userSpaceOnUse">
	<stop  offset="0" style="stop-color:#FFF6BF"/>
	<stop  offset="0.5644" style="stop-color:#FFAC00"/>
	<stop  offset="1" style="stop-color:#FFC900"/>
</radialGradient>
<circle display="none" fill="url(#SVGID_17_)" stroke="#D19A00" stroke-miterlimit="10" cx="585.553" cy="536.782" r="5.815"/>
<circle display="none" fill="#3A3837" cx="822.312" cy="541.039" r="1.753"/>
<linearGradient id="SVGID_18_" gradientUnits="userSpaceOnUse" x1="690.3062" y1="565.1357" x2="690.3062" y2="289.5859">
	<stop  offset="0" style="stop-color:#5E3F2F"/>
	<stop  offset="0.6442" style="stop-color:#4F3529"/>
	<stop  offset="0.9387" style="stop-color:#4F3529"/>
</linearGradient>
<path display="none" fill="url(#SVGID_18_)" stroke="#3D251A" stroke-width="3" stroke-miterlimit="10" d="M921.254,247.505H459.357
	h-19.736v377.188h19.736h461.896h19.737V247.505H921.254z M921.254,604.956H459.357V267.241h461.896V604.956z"/>
<linearGradient id="SVGID_19_" gradientUnits="userSpaceOnUse" x1="463.0776" y1="347.415" x2="463.0776" y2="553.1606">
	<stop  offset="0" style="stop-color:#5E3F2F"/>
	<stop  offset="0.6442" style="stop-color:#4F3529"/>
	<stop  offset="0.9387" style="stop-color:#4F3529"/>
</linearGradient>
<polyline display="none" fill="url(#SVGID_19_)" stroke="#3D251A" stroke-width="2" stroke-miterlimit="10" points="
	460.726,267.754 466.798,273.993 466.798,604.956 459.357,604.956 459.357,267.754 460.726,267.754 "/>
<linearGradient id="SVGID_20_" gradientUnits="userSpaceOnUse" x1="690.9897" y1="271.9155" x2="690.9897" y2="269.3539">
	<stop  offset="0" style="stop-color:#5E3F2F"/>
	<stop  offset="0.6442" style="stop-color:#4F3529"/>
	<stop  offset="0.9387" style="stop-color:#4F3529"/>
</linearGradient>
<polygon display="none" fill="url(#SVGID_20_)" stroke="#3D251A" stroke-width="2" stroke-miterlimit="10" points="460.726,267.754 
	466.798,273.993 921.254,273.993 921.254,265.683 "/>
<polygon display="none" fill="#4F2F25" points="640.011,619.38 445.243,619.38 443.296,366.679 453.813,379.98 453.813,612.758 
	626.766,612.758 "/>
<polygon display="none" fill="#4F2F25" points="739.731,619.38 934.498,619.38 936.445,366.679 925.929,379.98 925.929,612.758 
	752.976,612.758 "/>
<polygon display="none" fill="#6B3F37" points="739.731,252.18 934.498,252.18 936.445,463.117 925.929,449.816 925.929,258.802 
	752.976,258.802 "/>
<polygon display="none" fill="#6B3F37" points="640.714,252.18 445.946,252.18 443.999,463.117 454.516,449.816 454.516,258.802 
	627.47,258.802 "/>
<polygon display="none" fill="#6B3F37" points="655.184,252.18 460.417,252.18 458.469,463.117 468.986,449.816 468.986,258.802 
	641.939,258.802 "/>
<linearGradient id="SVGID_21_" gradientUnits="userSpaceOnUse" x1="993.959" y1="424.8477" x2="1360.2476" y2="659.5433">
	<stop  offset="0" style="stop-color:#95DCEF"/>
	<stop  offset="1" style="stop-color:#67B8EF"/>
</linearGradient>
<rect x="1033.72" y="267.241" display="none" fill="url(#SVGID_21_)" width="252.29" height="527.82"/>
<linearGradient id="SVGID_22_" gradientUnits="userSpaceOnUse" x1="1313.6416" y1="446.4268" x2="1313.6416" y2="580.4464">
	<stop  offset="0" style="stop-color:#E5E5E5"/>
	<stop  offset="1" style="stop-color:#AFAFAF"/>
</linearGradient>
<rect x="1300.914" y="546.666" display="none" fill="url(#SVGID_22_)" width="25.455" height="243.068"/>
<linearGradient id="SVGID_23_" gradientUnits="userSpaceOnUse" x1="1157.334" y1="711.2764" x2="1157.334" y2="308.9466">
	<stop  offset="0" style="stop-color:#5E3F2F"/>
	<stop  offset="0.6442" style="stop-color:#4F3529"/>
	<stop  offset="0.9387" style="stop-color:#4F3529"/>
</linearGradient>
<path display="none" fill="url(#SVGID_23_)" stroke="#3D251A" stroke-width="3" stroke-miterlimit="10" d="M1289.61,247.505
	h-264.554h-11.304v550.73h11.304h264.554h11.304v-550.73H1289.61z M1282.74,769.417H1033.72V276.321h249.021V769.417z"/>
<polygon display="none" fill="#6B3F37" points="1216.82,254.978 1022.053,254.978 1020.105,465.915 1030.623,452.613 
	1030.623,261.6 1203.576,261.6 "/>
<polygon display="none" fill="#6B3F37" points="1102.664,254.978 1297.431,254.978 1299.378,465.915 1288.86,452.613 1288.86,261.6 
	1115.908,261.6 "/>
<polygon display="none" opacity="0.23" fill="#FFFFFF" points="1047.812,291.9 1073.951,291.9 1276.508,639.931 1047.812,639.931 
	"/>
<polyline display="none" fill="#E5E5E5" stroke="#CCCCCC" stroke-width="4" stroke-miterlimit="10" points="1001.783,795.061 
	1456.056,795.061 1764.084,1074.428 155.916,1074.428 424.749,795.061 1001.783,795.061 "/>
<path display="none" fill="#F4F3F2" d="M303.917,1061.741l16.36-23.37c0,0,1575.195,13.12,1201.262-49.53h44.679h74.401
	l82.971,78.235L303.917,1061.741z"/>
<linearGradient id="SVGID_24_" gradientUnits="userSpaceOnUse" x1="658.8447" y1="445.2666" x2="726.9315" y2="486.119">
	<stop  offset="0" style="stop-color:#FFD8BF"/>
	<stop  offset="1" style="stop-color:#EFA57F"/>
</linearGradient>
<circle display="none" fill="url(#SVGID_24_)" cx="663.839" cy="448.263" r="49.616"/>
<path display="none" fill="#6B5038" d="M679.799,491.756c0-0.438,0.36-0.798,0.802-0.798c0.443,0,0.802,0.359,0.802,0.798
	c0,0.444-0.359,0.804-0.802,0.804C680.159,492.56,679.799,492.2,679.799,491.756z"/>
<path display="none" fill="url(#brde)" d="M694.275,480.448L694.275,480.448l-3.704-1.507l-7.209-2.104l-1.274-2.58
	c-0.005,0-0.008,0-0.011-0.003l-9.327-1.021l-11.916,0.617l-11.328,0.834c-0.008,0-0.013,0.002-0.02,0.006l-4.673,4.449
	l-6.809,2.278l-4.136,4.842l-0.916-1.693c-0.33,0.337-0.5,0.533-0.5,0.533s9.055,11.511,33.841,11.511
	c21.58,0,29.043-10.111,30.614-12.729L694.275,480.448z"/>
<circle display="none" fill="#6B5038" cx="685.989" cy="479.141" r="0.801"/>
<path display="none" fill="#6B5038" d="M692.976,486.35c0-0.442,0.359-0.798,0.801-0.798c0.443,0,0.802,0.355,0.802,0.798
	c0,0.444-0.359,0.801-0.802,0.801C693.335,487.15,692.976,486.794,692.976,486.35z"/>
<path display="none" d="M663.838,499.082c-28.021,0-50.817-22.797-50.817-50.819c0-28.02,22.796-50.817,50.817-50.817
	s50.818,22.797,50.818,50.817C714.656,476.285,691.859,499.082,663.838,499.082z M663.838,399.849
	c-26.694,0-48.414,21.718-48.414,48.414c0,26.696,21.72,48.416,48.414,48.416c26.696,0,48.417-21.72,48.417-48.416
	C712.254,421.567,690.534,399.849,663.838,399.849z"/>
<circle display="none" fill="#22B573" cx="662.154" cy="366.376" r="12.094"/>
<circle display="none" opacity="0.34" fill="url(#m2)" cx="662.154" cy="366.376" r="12.094"/>
<path display="none" fill="#4AD392" d="M662.924,354.321c-0.001,0-0.002,0-0.005,0l-1.209-0.016c-0.82,0.03-1.619,0.14-2.391,0.326
	l-4.657,2.264c-0.773,0.611-1.465,1.316-2.068,2.096l-2.068,10.679c0.003,0.006,0.003,0.012,0.005,0.017l2.513,2.06
	C654.861,355.887,662.904,354.325,662.924,354.321z"/>
<path display="none" fill="#1C995D" d="M661.236,369.691l6.825,1.55l5.292-0.308c0.345-0.851,0.589-1.752,0.736-2.687l-0.314-5.191
	c-0.986-3.459-3.469-6.281-6.708-7.725c0.061,0.087,0.112,0.163,0.177,0.253C674.753,366.098,661.236,369.691,661.236,369.691z"/>
<path display="none" fill="#1D1D1B" d="M662.152,379.672c-7.331,0-13.294-5.964-13.294-13.295c0-7.332,5.964-13.295,13.294-13.295
	c7.333,0,13.297,5.963,13.297,13.295C675.449,373.708,669.485,379.672,662.152,379.672z M662.152,355.483
	c-6.006,0-10.892,4.887-10.892,10.893c0,6.005,4.885,10.893,10.892,10.893c6.008,0,10.894-4.887,10.894-10.893
	C673.046,360.371,668.16,355.483,662.152,355.483z"/>
<path display="none" fill="#8CC63F" d="M709.978,413.391c-2.804-23.933-23.14-42.509-47.826-42.509
	c-25.265,0-45.972,19.459-47.989,44.205C620.118,413.866,644.506,410.152,709.978,413.391z"/>
<path display="none" opacity="0.18" fill="url(#Nouveau_motif)" d="M709.978,413.391c-2.804-23.933-23.14-42.509-47.826-42.509
	c-25.265,0-45.972,19.459-47.989,44.205C620.118,413.866,644.506,410.152,709.978,413.391z"/>
<path display="none" fill="#BAEA6E" d="M645.074,374.013c-0.052,0.02-0.103,0.038-0.156,0.058l-10.215,5.403
	c-0.011,0.007-0.02,0.013-0.03,0.02l-10.019,9.35c-0.014,0.02-0.03,0.04-0.046,0.058l-7.652,13.533
	c-0.011,0.027-0.02,0.054-0.03,0.083l-1.85,11.239c0,0,0,0.439,0.004,1.15c0.623-0.116,1.365-0.246,2.261-0.382
	c0.045-0.539,0.09-1.088,0.138-1.668c2.365-29.271,44.13-41.577,45.445-41.957c-0.257-0.005-0.512-0.019-0.773-0.019
	c-3.114,0-6.159,0.299-9.109,0.864L645.074,374.013z"/>
<path display="none" fill="#7EAA39" d="M668.844,411.719l40.854,0.939l-2.539-10.737c-0.054-0.141-0.111-0.284-0.165-0.425
	l-6.626-9.764l-6.091-8.512l-7.096-5.323c-1.705-1.04-3.479-1.977-5.317-2.801l-9.578-3.133c-0.282-0.06-0.564-0.125-0.848-0.181
	l-3.377,0.676C721.146,403.95,668.844,411.719,668.844,411.719z"/>
<path display="none" fill="#1D1D1B" d="M612.837,416.584l0.129-1.596c2.07-25.406,23.677-45.308,49.187-45.308
	c25.038,0,46.11,18.731,49.018,43.571l0.165,1.409l-1.417-0.071c-17.335-0.856-33.181-1.291-47.094-1.291
	c-30.639,0-44.067,2.075-48.418,2.966L612.837,416.584z M662.152,372.083c-23.737,0-43.922,18.114-46.636,41.524
	c5.698-1.002,19.506-2.713,47.307-2.713c13.567,0,28.959,0.413,45.772,1.226C705.213,389.197,685.493,372.083,662.152,372.083z"/>
<path display="none" fill="#22B573" d="M610.219,415.665c0,0,0.266,10.012,5.047,12.763c4.781,2.752,96.879-2.75,98.004,0
	c1.126,2.752-0.636-11.006,0-14.446C713.906,410.541,615.133,410.963,610.219,415.665z"/>
<path display="none" opacity="0.18" fill="url(#m2)" d="M610.219,415.665c0,0,0.266,10.012,5.047,12.763
	c4.781,2.752,96.879-2.75,98.004,0c1.126,2.752-0.636-11.006,0-14.446C713.906,410.541,615.133,410.963,610.219,415.665z"/>
<path display="none" fill="#4AD392" d="M610.235,416.008c0.003,0.065,0.008,0.137,0.012,0.219l2.185,8.989
	c0.427,0.821,0.946,1.559,1.553,2.179l3.221,1.462c0.2,0.022,0.411,0.043,0.634,0.065c-0.694-1.247-3.391-6.356-4.819-12.817
	c-0.12-0.539-0.237-0.993-0.35-1.385c-1.167,0.274-1.972,0.566-2.361,0.878C610.275,415.778,610.25,415.92,610.235,416.008z"/>
<path display="none" fill="#1C995D" d="M713.27,413.982c0.39-2.118-36.895-2.772-66.762-1.865l-19.269,0.902
	c-8.318,0.575-14.437,1.341-16.466,2.305v2.14c28.236-3.605,94.52-2.403,95.12-0.88c0.602,1.524,3.206,1.08,2.005,3.887
	c-1.203,2.805,0,7.006,0,7.006l5.708-1.353C713.427,422.483,712.868,416.162,713.27,413.982z"/>
<path display="none" fill="#1D1D1B" d="M628.317,430.697c-11.131,0-12.953-0.513-13.787-0.993
	c-5.342-3.074-5.755-12.89-5.785-13.999l-0.018-0.653l0.472-0.451c4.424-4.236,58.244-4.357,64.365-4.357
	c38.603,0,40.243,1.97,40.781,2.618c0.327,0.393,0.464,0.898,0.374,1.386c-0.276,1.493-0.01,5.761,0.187,8.879
	c0.329,5.278,0.347,5.98-0.289,6.654l-0.438,0.465l-0.675,0.019c-0.545-0.002-0.987-0.25-1.319-0.744
	c-0.741-0.164-3.042-0.413-10.136-0.413c-8.957,0-21.949,0.376-35.701,0.774C652.523,430.283,638.23,430.697,628.317,430.697z
	 M611.737,416.479c0.225,3.01,1.26,8.939,4.265,10.67c0.382,0.169,2.41,0.599,12.315,0.599c9.871,0,24.144-0.413,37.945-0.814
	c13.776-0.399,26.789-0.774,35.788-0.774c5.39,0,8.388,0.132,10.099,0.375c-0.045-0.968-0.119-2.163-0.185-3.224
	c-0.193-3.062-0.404-6.47-0.264-8.571c-3.237-0.798-16.673-1.547-38.136-1.547C643.233,413.193,616.394,414.644,611.737,416.479z"/>
<rect x="629.87" y="440.807" transform="matrix(0.972 0.235 -0.235 0.972 122.2 -137.4031)" display="none" fill="#6B5038" width="15.311" height="6.274"/>
<path display="none" fill="#89674A" d="M630.822,439.096l-0.716,2.964c0.245-0.105,0.468-0.351,0.805-0.335
	c0.022,0.433-0.042,0.913,0.064,1.327c0.281-0.639,2.72-1.802,2.42-0.452c0.356-0.377,1.261-0.595,1.373,0.072
	c0.302-0.361,0.833-0.423,1.252-0.576c0.137,0.975,0.918,1.725,1.944,0.989c-0.153,0.229-0.129,0.389-0.113,0.647
	c0.399-0.227,0.836-0.639,1.321-0.58c-0.136,0.802-0.361,2.065-0.043,2.839c0.261-0.394,0.513-0.851,0.827-1.27
	c0.274-0.371,0.588-1.437,0.938-1.666c1.323-0.869,1.128,1.501,1.15,2.111c0.492-0.156,0.67-0.766,1.179-0.963
	c0.057,0.165,0.277,0.368,0.313,0.512c0.261-0.262,0.264-0.633,0.591-0.818c0.179,0.498,0.195,0.955,0.476,1.419
	c0.236-0.129,0.456-0.429,0.658-0.789l0.443-1.834L630.822,439.096z"/>
<path display="none" fill="#1D1D1B" d="M644.67,449.517l-16.048-3.884l1.758-7.265l16.048,3.884L644.67,449.517z M630.072,444.75
	l13.714,3.318l1.192-4.933l-13.714-3.315L630.072,444.75z"/>
<rect x="680.693" y="440.276" transform="matrix(-0.9719 0.2352 -0.2352 -0.9719 1461.6738 712.4962)" display="none" fill="#6B5038" width="15.309" height="6.274"/>
<path display="none" fill="#89674A" d="M695.051,438.563l0.718,2.968c-0.247-0.108-0.47-0.354-0.806-0.336
	c-0.022,0.433,0.043,0.913-0.064,1.324c-0.28-0.638-2.72-1.801-2.419-0.453c-0.357-0.373-1.262-0.594-1.375,0.073
	c-0.3-0.361-0.831-0.423-1.25-0.573c-0.137,0.975-0.921,1.723-1.944,0.986c0.15,0.229,0.129,0.39,0.114,0.647
	c-0.401-0.227-0.837-0.638-1.322-0.576c0.136,0.801,0.361,2.064,0.042,2.839c-0.261-0.398-0.512-0.852-0.826-1.273
	c-0.276-0.37-0.591-1.434-0.939-1.666c-1.323-0.866-1.126,1.505-1.15,2.11c-0.493-0.152-0.668-0.765-1.179-0.963
	c-0.057,0.165-0.277,0.368-0.313,0.517c-0.259-0.266-0.263-0.634-0.588-0.819c-0.179,0.494-0.195,0.955-0.478,1.416
	c-0.235-0.129-0.457-0.426-0.657-0.786l-0.443-1.834L695.051,438.563z"/>
<path display="none" fill="#1D1D1B" d="M679.446,441.72l16.048-3.882l1.758,7.265l-16.049,3.884L679.446,441.72z M694.609,439.287
	l-13.714,3.318l1.194,4.931l13.712-3.316L694.609,439.287z"/>
<path display="none" fill="#FFFFFF" d="M645.861,458.016c0,0-6.178,5.105-14.691,0C622.657,452.909,644.209,445.775,645.861,458.016
	z"/>
<path display="none" fill="#FFFFFF" d="M645.861,458.016c0,0-6.178,5.105-14.691,0C622.657,452.909,644.209,445.775,645.861,458.016
	z"/>
<path display="none" fill="#EDBA9D" d="M645.462,456.349c0.162,0.478,0.292,0.986,0.376,1.543
	C645.798,457.356,645.675,456.841,645.462,456.349z"/>
<path display="none" fill="#EDBA9D" d="M631.17,458.016c-1.258-0.755-1.845-1.553-1.952-2.326c-0.479,0.776-0.748,1.641-0.748,2.544
	c0,3.476,3.895,6.29,8.697,6.29c4.801,0,8.694-2.814,8.694-6.29c0-0.07-0.013-0.139-0.015-0.206
	C645.692,458.151,639.577,463.057,631.17,458.016z"/>
<path display="none" fill="#E0A486" d="M680.976,456.349c-0.161,0.478-0.29,0.986-0.375,1.543
	C680.641,457.356,680.763,456.841,680.976,456.349z"/>
<path display="none" fill="#E0A486" d="M695.269,458.016c1.257-0.755,1.845-1.553,1.953-2.326c0.478,0.776,0.747,1.641,0.747,2.544
	c0,3.476-3.895,6.29-8.695,6.29c-4.802,0-8.696-2.814-8.696-6.29c0-0.07,0.012-0.139,0.015-0.206
	C680.746,458.151,686.862,463.057,695.269,458.016z"/>
<path display="none" d="M635.732,453.242c0.058,0.171,0.109,0.345,0.109,0.536c0,0.937-0.758,1.693-1.693,1.693
	c-0.598,0-1.096-0.327-1.399-0.796c-0.182,0.365-0.294,0.77-0.294,1.204c0,1.493,1.212,2.704,2.705,2.704
	c1.491,0,2.702-1.211,2.702-2.704C637.862,454.585,636.951,453.504,635.732,453.242z"/>
<path display="none" fill="#FFFFFF" d="M680.577,458.016c0,0,6.178,5.105,14.691,0C703.782,452.909,682.23,445.775,680.577,458.016z
	"/>
<path display="none" d="M683.532,453.242c-0.057,0.171-0.108,0.345-0.108,0.536c0,0.937,0.757,1.693,1.694,1.693
	c0.596,0,1.097-0.327,1.399-0.796c0.181,0.365,0.294,0.77,0.294,1.204c0,1.493-1.211,2.704-2.704,2.704
	c-1.493,0-2.704-1.211-2.704-2.704C681.403,454.585,682.315,453.504,683.532,453.242z"/>
<path display="none" fill="#1D1D1B" d="M653.073,485.101c-0.551,0-1.049-0.383-1.171-0.944c-0.144-0.649,0.267-1.287,0.916-1.432
	l22.528-4.956c0.642-0.147,1.289,0.266,1.432,0.915c0.143,0.648-0.268,1.287-0.915,1.432l-22.529,4.956
	C653.246,485.089,653.16,485.101,653.073,485.101z"/>
<path display="none" fill="#1D1D1B" d="M654.208,465.153c0.125,0.124,3.12,2.945,10.368,2.975l0,0c0.037,0,0.071,0,0.107,0l0,0
	c7.25-0.029,10.244-2.854,10.407-3.016l-0.873-0.821c-0.026,0.026-2.834,2.62-9.587,2.635c-6.73-0.015-9.54-2.592-9.544-2.592l0,0
	L654.208,465.153z"/>
<path display="none" fill="#FFD8BF" d="M713.209,440.68l1.763-1.799l3.683,0.287l2.621,1.62l1.902,3.044l-0.083,5.666l-2.193,4.472
	l-4.081,4.515l-5.45,0.036c0,0,8.591-3.375,6.072-10.976c-3.102-1.737-3.281-0.68-3.281-0.68l0.928-1.588l2.562-0.786l2.15,0.294
	C719.801,444.784,721.605,439.978,713.209,440.68z"/>
<path display="none" fill="#E8B8A7" d="M711.434,439.558l1.775,1.122l4.063-0.561l3.014,2.775v3.981l-0.338,2.553l-1.166,4.132
	l-4.127,3.56l-3.286,1.399C711.371,458.52,711.141,442.006,711.434,439.558z"/>
<path display="none" d="M711.421,439.569c-0.008,0.012-0.013,0.028-0.021,0.039L711.421,439.569z"/>
<path display="none" d="M719.326,438.274c-2.313-0.996-5.085-0.637-7.604,0.982c-0.119,0.081-0.214,0.186-0.288,0.301l1.775,1.122
	c1.85-1.06,3.729-1.27,5.333-0.583c3.478,1.489,4.595,6.699,2.491,11.608c-1.912,4.464-5.931,7.209-9.256,6.473l-0.958,1.793
	c0.081,0.076-0.598-0.209-0.492-0.165c0.012,0.006,0.023,0.009,0.035,0.016c4.501,1.737,9.991-1.482,12.497-7.333
	C725.397,446.569,723.811,440.193,719.326,438.274z"/>
<path display="none" fill="none" stroke="#000000" stroke-miterlimit="10" d="M719.905,445.539c0.474-1.407-3.063-1.084-3.702-0.843
	c-0.984,0.377-2.865,1.593-2.978,2.665c0.459-0.724,1.762-0.539,2.458-0.392c0.84,0.177,1.277,0.266,1.629,1.058
	c0.711,1.613,0.196,4.179-0.522,5.768c-0.58,1.29-2.444,3.461-3.9,2.143c-0.644-0.588-0.525-1.553-0.426-2.33
	c0.157-1.243,0.304-2.18,1.526-2.792"/>
<path display="none" fill="#FFD8BF" d="M614.204,440.68l-1.764-1.799l-3.682,0.287l-2.621,1.62l-1.901,3.044l0.082,5.666
	l2.195,4.472l4.08,4.515l5.452,0.036c0,0-8.593-3.375-6.076-10.976c3.104-1.737,3.282-0.68,3.282-0.68l-0.929-1.588l-2.559-0.786
	l-2.15,0.294C607.613,444.784,605.808,439.978,614.204,440.68z"/>
<path display="none" fill="#E8B8A7" d="M616.458,439.407l-1.776,1.122l-4.063-0.562l-3.013,2.777v3.978l0.336,2.554l1.166,4.132
	l4.128,3.562l2.594,1.457C615.829,458.427,616.751,441.853,616.458,439.407z"/>
<path display="none" d="M615.99,439.569c0.01,0.012,0.016,0.028,0.022,0.039L615.99,439.569z"/>
<path display="none" d="M608.208,438.76c2.315-0.992,5.086-0.636,7.605,0.984c0.119,0.079,0.214,0.186,0.29,0.299l-1.777,1.124
	c-1.85-1.061-3.73-1.271-5.333-0.581c-3.479,1.487-4.594,6.696-2.491,11.605c1.912,4.463,5.932,7.208,9.662,6.151l0.796,2.04
	c-0.488,0.397,0.107-0.047,0,0c-0.01,0.006,0.012-0.002,0,0c-4.5,1.737-9.779-1.558-12.286-7.409
	C602.138,447.056,603.724,440.68,608.208,438.76z"/>
<path display="none" fill="none" stroke="#000000" stroke-miterlimit="10" d="M607.507,445.539
	c-0.472-1.407,3.063-1.084,3.702-0.843c0.986,0.377,2.865,1.593,2.978,2.665c-0.458-0.724-1.761-0.539-2.457-0.392
	c-0.841,0.177-1.278,0.266-1.63,1.058c-0.711,1.613-0.197,4.179,0.522,5.768c0.581,1.29,2.445,3.461,3.901,2.143
	c0.643-0.588,0.523-1.553,0.425-2.33c-0.158-1.243-0.306-2.18-1.526-2.792"/>
<path display="none" fill="#567EAF" d="M628.41,495.911c-6.192,0.146-19.682,12.484-19.682,12.484s-5.967,94.306-5.261,97.309
	c0.705,3.004,6.504,26.435,10.572,30.039c4.068,3.604,80.641,0,82.873,0c2.234,0,23.038-5.2,23.038-5.2l6.571-7.757
	c0,0,1.802-110.803,0-115.123c-1.803-4.317-21.194-14.724-21.194-14.724L628.41,495.911z"/>
<polygon display="none" fill="#426B93" points="665.364,503.514 665.364,608.106 675.091,500.64 "/>
<polygon display="none" fill="#3F6382" points="665.364,608.106 679.799,505.431 670.227,506.889 "/>
<polygon display="none" fill="#3F6382" points="665.364,608.106 659.225,507.381 665.364,507.325 "/>
<path display="none" fill="#4C7791" d="M715.284,631.694c2.738-0.669,4.665-1.151,4.665-1.151l6.571-7.757
	c0,0,1.802-110.803,0-115.123c-1.803-4.317-21.194-14.724-21.194-14.724l-2.097,0.079l3.866,3.772c0,0,11.966,9.436,13.193,24.129
	c1.225,14.694,2.552,78.877-4.121,106.663C715.81,629.07,715.525,630.425,715.284,631.694z"/>
<path display="none" fill="#6392C1" d="M620.005,636.892c-5.487-11.903-7.355-28.714-9.787-31.188
	c-2.755-2.807,1.553-93.317,2.802-97.309c1.249-3.989,11.041-9.313,11.041-9.313l-1.491-1.075
	c-6.374,3.562-13.844,10.389-13.844,10.389s-5.967,94.306-5.261,97.309c0.705,3.004,6.504,26.435,10.572,30.039
	C614.631,636.267,616.777,636.639,620.005,636.892z"/>
<path display="none" fill="#4C7791" d="M719.949,630.543l6.571-7.757c0,0-19.826-1.061-25.834,2.904
	c-6.006,3.966-12.815,0.841-19.282,0.037c-6.466-0.801-25.173,11.164-25.173,11.164l0.394,0.191
	c19.773-0.454,39.18-1.34,40.287-1.34C699.145,635.743,719.949,630.543,719.949,630.543z"/>
<rect x="620.577" y="529.652" transform="matrix(0.7676 0.641 -0.641 0.7676 488.6836 -277.0073)" display="none" fill="#6D665A" width="11.438" height="11.339"/>
<rect x="635.938" y="542.652" transform="matrix(0.9804 0.1972 -0.1972 0.9804 120.7147 -115.361)" display="none" fill="#89847D" width="7.09" height="11.341"/>
<rect x="622.75" y="555.654" transform="matrix(0.9599 -0.2805 0.2805 0.9599 -131.5666 198.0791)" display="none" fill="#776E62" width="7.089" height="6.145"/>
<path display="none" d="M636.837,638.547c0,0,0,0-0.002,0c-21.445,0-22.896-1.287-23.594-1.906
	c-4.675-4.143-10.883-30.397-10.945-30.662c-0.711-3.024,4.234-81.881,5.232-97.659l0.03-0.482l0.359-0.33
	c1.415-1.292,14.008-12.644,20.464-12.797l77.225-2.983l0.286,0.153c2.026,1.086,19.824,10.739,21.735,15.321
	c1.846,4.422,0.277,104.238,0.094,115.604l-0.008,0.429l-7.099,8.384l-0.375,0.094c-2.144,0.534-21.016,5.233-23.329,5.233
	c-0.272,0-2.017,0.067-4.43,0.162C682.539,637.501,656.128,638.547,636.837,638.547z M609.896,508.959
	c-2.366,37.438-5.698,93.683-5.254,96.501c1.964,8.363,7.051,26.597,10.193,29.382c0.423,0.295,3.315,1.302,22,1.302
	c19.244,0,45.621-1.046,55.55-1.438c2.916-0.114,4.219-0.165,4.525-0.165c1.496,0,14.351-3.068,22.372-5.068l6.042-7.134
	c0.715-44.097,1.321-110.592,0.081-114.228c-1.173-2.807-12.984-9.98-20.36-13.958l-76.589,2.956
	C623.877,497.221,613.843,505.404,609.896,508.959z"/>
<path display="none" fill="#567EAF" d="M622.03,496.611c-4.84-0.389-26.479,6.316-26.479,6.316s-19.201,10.534-18.8,17.545
	c0.399,7.012-10.405,4.803-4.803,12.109c5.604,7.308,0.401,2.671-3.601,3.589c-4.001,0.916-5.203,3.719-4.403,7.321
	c0,0,22.143,2.936,21.676,16.274c-0.465,13.337,24.755,70.549-41.273,38.138c0,0-4.802-4.003-2.801-12.006
	c0,0-2.201-1.85-3.252,0.55c-1.05,2.4-7.2,20.345,33.464,24.159c18.605-1.794,29.064-9.358,32.449-13.597h6.565l2.249-17.741
	l3.495-24.896l1.756-9.954l3.758-27.436C622.03,516.983,627.848,497.08,622.03,496.611z"/>
<path display="none" fill="#426B93" d="M607.96,557.715c0,0,8.159,28.274,3.011,40.376c-5.149,12.106-6.763-1.08-6.763-1.08"/>
<path display="none" fill="#6392C1" d="M571.891,537.793c2.912,0.368,5.837,2.609,8.083,4.447c2.101,1.716,4.647,3.356,6.732,5.262
	c2.196,2.008,5.33,4.234,7.184,6.539c1.285,1.601,1.854,4.362,2.632,6.292c1.504,3.725,1.389,6.77,1.502,10.783
	c0.084,2.988,0.711,5.807,0.602,8.819c-0.09,2.432-1.287,4.744-0.85,7.111c2.97-3.287,4.133-12.498,4.387-16.879
	c0.245-4.25-0.196-7.224-1.473-11.282c-0.883-2.797-0.999-6.442-2.443-8.948c-2.401-4.17-9.097-8.254-13.131-10.566
	c-3.992-2.288-9.981-4.402-14.653-4.001c0.844,0.521,0.886,1.13,1.428,1.822"/>
<path display="none" fill="#6392C1" d="M591.993,504.975c-0.083,2.559,0.203,5.155,0.201,7.735c-0.004,3.169,1.186,5.05,2.354,7.883
	c2.243,5.454,3.593,11.531,3.879,17.397c1.797-2.42,2.09-5.282,2.133-8.2c0.045-3.153-1.723-5.15-3.33-7.739
	c-1.647-2.65-3.941-5.354-3.79-8.501c0.063-1.311,1.146-9.237-1.447-8.375"/>
<path display="none" fill="#567EAF" d="M602.227,599.037c0,0,13.774-22.418,3.398-48.688"/>
<path display="none" fill="#1D1D1B" d="M602.739,599.352l-1.023-0.63c0.136-0.221,13.491-22.479,3.352-48.151l1.116-0.442
	C616.55,576.374,602.878,599.125,602.739,599.352z"/>
<path display="none" fill="none" stroke="#426B93" stroke-width="2" stroke-linecap="round" stroke-linejoin="round" stroke-miterlimit="10" d="
	M610.942,578.218c0,0,1.524-45.406,2.079-47.009c0.553-1.603,9.966-18.124,6.562-21.328"/>
<path display="none" fill="#6392C1" d="M573.324,525.201c0.691,0.023,1.251,0.566,1.919,0.678c0.604,0.104,1.09-0.136,1.679-0.095
	c1.584,0.106,3.329,0.666,4.803,1.234c1.999,0.771,2.925,2.309,4.52,3.679c1.163,1.001,2.41,1.546,3.376,2.755
	c0.744,0.932,1.234,2.035,1.961,2.972c1.208,1.55,3.307,2.673,4.021,4.567c0.222-1.166-0.963-2.771-1.544-3.736
	c-0.964-1.603-1.288-3.185-2.131-4.833c-1.565-3.064-5.304-5.276-8.475-6.416c-1.037-0.377-4.713-0.565-5.3-1.667
	c-0.834-1.563,1.623-1.938,2.41-2.471c1.817-1.225,1.041-2.645,1.764-4.369c0.72-1.715,2.585-2.83,3.965-3.92
	c1.482-1.17,2.88-2.465,3.997-3.987c0.478-0.651,1.024-1.817,1.537-1.964c-2.37-0.004-4.033,0.545-5.969,1.955
	c-1.971,1.438-4.625,2.893-6.066,4.944c-1.339,1.904-2.501,4.435-3.499,6.496C575.465,522.729,574.531,523.741,573.324,525.201"/>
<path display="none" fill="#1D1D1B" d="M562.744,543.506c-0.044-3.666,0.721-6.21,2.339-7.782c1.94-1.882,4.496-1.772,6.188-1.703
	c0.087,0.004,0.181,0.007,0.276,0.012c-3.315-5.203-3.218-6.213,0.847-8.989l0.515-0.354c2.364-1.626,2.632-2.639,2.662-2.848
	l-0.073-0.159l0.032-0.318c1.852-18.637,45.901-25.65,47.775-25.939l0.366,2.376c-0.438,0.067-43.704,6.944-45.726,23.585
	c0.177,0.887-0.043,2.783-3.673,5.282l-0.522,0.36c-1.184,0.81-2.12,1.445-2.16,1.837c-0.067,0.659,1.123,2.527,1.991,3.887
	c0.365,0.574,1.125,1.764,0.536,2.788c-0.565,0.981-1.719,0.934-2.947,0.881c-1.431-0.06-3.213-0.136-4.411,1.027
	c-1.105,1.072-1.646,3.099-1.61,6.029L562.744,543.506z"/>
<linearGradient id="SVGID_25_" gradientUnits="userSpaceOnUse" x1="541.1938" y1="575.6914" x2="589.8291" y2="575.6914">
	<stop  offset="0" style="stop-color:#FFD8BF"/>
	<stop  offset="1" style="stop-color:#EFA57F"/>
</linearGradient>
<path display="none" fill="url(#SVGID_25_)" d="M563.311,544.051c0,0-14.617,2.053-19.023,7.922
	c-4.406,5.868,1.251,18.136-2.74,33.926c-3.99,15.789,26.852,24.349,40.844,20.529c13.992-3.818,4.186-39.053,2.918-49.659
	C584.042,546.162,563.311,544.051,563.311,544.051z"/>
<path display="none" d="M574.62,608.534c-0.001,0-0.002,0-0.003,0c-10.841,0-25.662-4.237-31.779-12.095
	c-2.602-3.342-3.428-6.987-2.456-10.836c1.972-7.798,1.526-14.841,1.169-20.5c-0.375-5.92-0.67-10.594,1.774-13.853
	c4.653-6.196,19.202-8.304,19.819-8.39l0.143-0.023l0.146,0.017c0.885,0.089,21.704,2.341,23.069,13.771
	c0.225,1.876,0.731,4.59,1.318,7.735c2.776,14.888,7.424,39.807-5.112,43.229C580.408,608.217,577.686,608.534,574.62,608.534z
	 M563.333,545.262c-1.51,0.232-14.254,2.329-18.085,7.435c-1.912,2.547-1.643,6.829-1.298,12.257
	c0.367,5.826,0.826,13.076-1.237,21.239c-0.782,3.093-0.102,6.046,2.022,8.771c5.646,7.254,19.61,11.167,29.882,11.167
	c0.001,0,0.002,0,0.003,0c2.853,0,5.361-0.289,7.455-0.862c10.402-2.84,5.836-27.315,3.382-40.466
	c-0.595-3.187-1.108-5.94-1.342-7.89C583.029,547.817,565.132,545.473,563.333,545.262z"/>
<path display="none" fill="#567EAF" d="M713.455,497.813c0,0,28.384,4.414,31.388,19.355c3.003,14.94,8.409,31.593,6.006,34.383
	c-2.402,2.785-3.603,11.89-0.901,17.099c2.704,5.213,3.604,23.535,3.604,26.841c0,3.305-2.102,16.22-1.801,21.026
	c0.299,4.805,0.901,8.109-0.301,12.314c-1.202,4.207-3.104,29.337-3.104,29.337s-29.701-0.12-33.074-5.668
	c-3.373-5.545,5.036-30.491,5.438-34.041c0.401-3.545,0.291-22.436-0.057-30.212c-0.344-7.777-3.459-29.332-3.459-29.332
	l0.078-26.906"/>
<path display="none" fill="#4C7791" d="M748.347,658.169c0,0,1.902-25.13,3.104-29.337c1.202-4.205,0.6-7.51,0.301-12.314
	c-0.301-4.807,1.801-17.722,1.801-21.026c0-3.306-0.9-21.628-3.604-26.841c-2.702-5.209-1.501-14.313,0.901-17.099
	c2.403-2.79-3.003-19.442-6.006-34.383c-3.004-14.941-31.388-19.355-31.388-19.355l0.667,5.986
	c3.975,0.877,24.499,5.73,25.313,12.168c0.902,7.131,6.308,34.163,4.206,36.267c-2.103,2.103-0.602,8.555-4.505,10.436
	c-3.907,1.882-6.757,1.373-5.632,4.779c1.125,3.409,6.232,0.798,8.936,0c2.703-0.795,5.105-3.896,5.105,1.708
	c0,5.606-3.003,15.219-3.003,15.219s3.304,11.416,3.003,13.519c-0.299,2.103-0.864,5.105,0.02,8.11c0.882,3.003,1.22,9.896,0,11.254
	c-1.221,1.361,0.582,7.368-0.92,8.27c-1.502,0.9-6.007,11.616-5.707,13.019c0.301,1.4,3.604,6.875,3.604,6.875l-2.316,12.589
	C745.847,658.157,748.347,658.169,748.347,658.169z"/>
<path display="none" fill="#1D1D1B" d="M749.46,659.377l-1.12-0.006c-5.073-0.02-30.551-0.421-34.094-6.245
	c-2.573-4.229,0.457-16.564,3.783-28.838c0.748-2.766,1.396-5.156,1.486-5.96c0.387-3.404,0.293-22.074-0.061-30.024
	c-0.337-7.63-3.42-29-3.45-29.218l-0.012-0.174l0.078-26.905l2.403,0.007l-0.078,26.819c0.245,1.708,3.125,21.785,3.459,29.361
	c0.333,7.51,0.479,26.605,0.049,30.401c-0.112,0.989-0.716,3.225-1.556,6.319c-2.046,7.551-6.3,23.26-4.049,26.962
	c2.133,3.504,19.636,4.95,30.935,5.083c0.39-4.992,1.974-24.65,3.061-28.458c0.922-3.228,0.709-5.952,0.439-9.395
	c-0.062-0.798-0.128-1.631-0.182-2.514c-0.187-2.986,0.487-8.714,1.082-13.767c0.371-3.127,0.718-6.081,0.718-7.336
	c0-3.327-0.944-21.42-3.469-26.286c-2.82-5.435-1.776-15.151,1.058-18.441c1.258-1.457-1.157-11.431-3.097-19.442
	c-1.104-4.565-2.249-9.278-3.179-13.915c-2.804-13.945-30.121-18.362-30.395-18.403l0.369-2.377
	c1.192,0.187,29.248,4.724,32.381,20.308c0.922,4.587,2.061,9.28,3.158,13.821c3.053,12.606,4.554,19.294,2.583,21.58
	c-2.096,2.43-3.234,10.968-0.747,15.765c2.952,5.688,3.74,24.991,3.74,27.392c0,1.396-0.339,4.276-0.733,7.616
	c-0.554,4.708-1.244,10.565-1.071,13.336c0.054,0.869,0.119,1.689,0.181,2.476c0.278,3.54,0.516,6.598-0.525,10.245
	c-0.924,3.234-2.407,20.448-3.062,29.098L749.46,659.377z"/>
<linearGradient id="SVGID_26_" gradientUnits="userSpaceOnUse" x1="505.458" y1="521.4824" x2="568.4023" y2="521.4824">
	<stop  offset="0" style="stop-color:#EDEDED"/>
	<stop  offset="1" style="stop-color:#B2B2B2"/>
</linearGradient>
<path display="none" fill="url(#SVGID_26_)" d="M568.402,554.808l-26.286-40.857c0,0-31.797-33.313-34.968-32.687
	c0,0-5.99,27.146,4.58,41.018l39.43,39.429L568.402,554.808z"/>
<path display="none" fill="#F6F6F6" d="M552.098,549.634l-27.437-32.65c0,0-14.484-11.129-14.051-33.696
	c-1.718-1.354-2.957-2.126-3.462-2.023c0,0-5.99,27.146,4.58,41.018l34.311,34.311l6.06-0.559V549.634z"/>
<path display="none" d="M550.87,563.121l-40.097-40.113c-10.784-14.146-5.048-40.875-4.797-42.007l0.169-0.768l1.101-0.183
	c3.772,0,26.25,23.128,35.74,33.072l0.141,0.18l27.075,42.079L550.87,563.121z M512.636,521.488l38.811,38.812l15.157-6.065
	l-25.436-39.537c-11.544-12.09-28.447-28.907-33.109-31.823C507.051,488.464,503.906,509.941,512.636,521.488z"/>
<linearGradient id="SVGID_27_" gradientUnits="userSpaceOnUse" x1="849.8643" y1="908.7012" x2="877.2061" y2="908.7012" gradientTransform="matrix(0.6573 0.7536 -0.7536 0.6573 682.707 -697.7012)">
	<stop  offset="0" style="stop-color:#FFD8BF"/>
	<stop  offset="1" style="stop-color:#EFA57F"/>
</linearGradient>
<path display="none" fill="url(#SVGID_27_)" d="M574.497,560.65c-2.802,2.444-7.055,2.155-9.5-0.648l-9.12-10.457
	c-2.444-2.8-2.154-7.055,0.648-9.5l0,0c2.801-2.443,7.055-2.152,9.499,0.649l9.12,10.456
	C577.588,553.954,577.299,558.207,574.497,560.65L574.497,560.65z"/>
<path display="none" d="M570.075,563.513c-2.295,0-4.476-0.993-5.984-2.721l-9.118-10.457c-1.393-1.597-2.081-3.64-1.937-5.754
	c0.145-2.114,1.103-4.046,2.701-5.441c1.445-1.261,3.296-1.954,5.212-1.954c2.293,0,4.474,0.991,5.982,2.719l9.12,10.457
	c2.874,3.298,2.531,8.321-0.765,11.195C573.841,562.817,571.992,563.513,570.075,563.513z M560.949,539.589
	c-1.335,0-2.625,0.484-3.633,1.364c-1.115,0.972-1.783,2.317-1.883,3.793c-0.1,1.472,0.379,2.897,1.351,4.011l9.118,10.456
	c1.051,1.204,2.572,1.896,4.172,1.896c1.335,0,2.625-0.485,3.632-1.363c2.297-2.005,2.537-5.507,0.533-7.807l-9.12-10.454
	C564.069,540.281,562.548,539.589,560.949,539.589z"/>
<linearGradient id="SVGID_28_" gradientUnits="userSpaceOnUse" x1="517.8701" y1="406.1445" x2="544.8906" y2="406.1445" gradientTransform="matrix(0.9748 -0.3049 0.3761 1.2024 -124.6182 233.6392)">
	<stop  offset="0" style="stop-color:#FFD8BF"/>
	<stop  offset="1" style="stop-color:#EFA57F"/>
</linearGradient>
<path display="none" fill="url(#SVGID_28_)" d="M559.292,555.85c1.381,4.417-0.401,8.908-3.986,10.03l-13.366,4.181
	c-3.582,1.12-7.606-1.554-8.988-5.972l0,0c-1.381-4.42,0.402-8.906,3.984-10.029l13.366-4.182
	C553.884,548.76,557.908,551.433,559.292,555.85L559.292,555.85z"/>
<path display="none" d="M540.266,571.516c-3.68,0-7.159-2.905-8.461-7.069c-1.577-5.042,0.565-10.216,4.773-11.535l13.366-4.178
	c0.658-0.206,1.342-0.313,2.034-0.313c3.678,0,7.158,2.91,8.46,7.071c1.577,5.045-0.564,10.217-4.773,11.533l-13.365,4.183
	C541.642,571.412,540.958,571.516,540.266,571.516z M551.978,550.823c-0.449,0-0.892,0.071-1.316,0.203l-13.366,4.179
	c-2.944,0.922-4.377,4.748-3.197,8.525c0.992,3.168,3.528,5.382,6.167,5.382c0.45,0,0.892-0.067,1.317-0.199l13.364-4.182
	c2.946-0.918,4.38-4.744,3.199-8.521C557.153,553.038,554.617,550.823,551.978,550.823z"/>
<linearGradient id="SVGID_29_" gradientUnits="userSpaceOnUse" x1="723.5137" y1="415.332" x2="750.5352" y2="415.332" gradientTransform="matrix(1.5357 -0.4804 0.3761 1.2024 -730.0732 422.6152)">
	<stop  offset="0" style="stop-color:#FFD8BF"/>
	<stop  offset="1" style="stop-color:#EFA57F"/>
</linearGradient>
<path display="none" fill="url(#SVGID_29_)" d="M578.731,561.456c1.381,4.415-2.073,9.431-7.719,11.196l-21.058,6.585
	c-5.644,1.764-11.338-0.386-12.721-4.803l0,0c-1.382-4.417,2.073-9.432,7.716-11.199l21.06-6.584
	C571.651,554.887,577.346,557.037,578.731,561.456L578.731,561.456z"/>
<path display="none" d="M545.987,581.057c-4.823,0-8.71-2.459-9.899-6.264c-0.781-2.497-0.292-5.208,1.379-7.633
	c1.61-2.334,4.14-4.137,7.124-5.07l21.06-6.584c1.426-0.447,2.88-0.672,4.324-0.672c4.822,0,8.71,2.456,9.903,6.261
	c1.577,5.044-2.238,10.742-8.507,12.704l-21.057,6.586C548.887,580.829,547.431,581.057,545.987,581.057z M569.975,557.237
	c-1.201,0-2.414,0.186-3.606,0.56l-21.06,6.588c-2.474,0.773-4.556,2.243-5.862,4.14c-1.244,1.802-1.622,3.774-1.066,5.551
	c0.871,2.779,3.855,4.578,7.606,4.578c1.202,0,2.415-0.191,3.608-0.562l21.058-6.588c5.004-1.565,8.114-5.91,6.933-9.69
	C576.712,559.033,573.726,557.237,569.975,557.237z"/>
<linearGradient id="SVGID_30_" gradientUnits="userSpaceOnUse" x1="694.3857" y1="427.668" x2="721.4062" y2="427.668" gradientTransform="matrix(1.4177 -0.4434 0.3761 1.2024 -602.7324 383.4414)">
	<stop  offset="0" style="stop-color:#FFD8BF"/>
	<stop  offset="1" style="stop-color:#EFA57F"/>
</linearGradient>
<path display="none" fill="url(#SVGID_30_)" d="M580.851,577.797c1.382,4.418-1.72,9.32-6.933,10.951l-19.438,6.081
	c-5.209,1.628-10.554-0.633-11.935-5.05l0,0c-1.381-4.417,1.721-9.32,6.932-10.952l19.438-6.08
	C574.124,571.118,579.468,573.381,580.851,577.797L580.851,577.797z"/>
<path display="none" d="M551.062,596.558c-4.58,0-8.462-2.579-9.665-6.419c-1.578-5.045,1.887-10.631,7.72-12.456l19.438-6.081
	c1.239-0.39,2.508-0.583,3.777-0.583c4.579,0,8.462,2.579,9.665,6.419c0.775,2.479,0.375,5.154-1.125,7.524
	c-1.461,2.308-3.805,4.061-6.596,4.935l-19.438,6.082C553.6,596.363,552.329,596.558,551.062,596.558z M572.333,573.421
	c-1.024,0-2.054,0.16-3.06,0.474l-19.438,6.082c-4.568,1.428-7.325,5.666-6.145,9.443c0.885,2.832,3.848,4.734,7.372,4.734
	c1.023,0,2.053-0.158,3.058-0.474l19.438-6.081c2.25-0.7,4.127-2.096,5.284-3.925c1.117-1.764,1.423-3.725,0.862-5.519
	C578.818,575.323,575.855,573.421,572.333,573.421z"/>
<linearGradient id="SVGID_31_" gradientUnits="userSpaceOnUse" x1="645.3076" y1="439.7554" x2="672.3271" y2="439.7554" gradientTransform="matrix(1.2406 -0.388 0.3761 1.2024 -412.6855 324.0308)">
	<stop  offset="0" style="stop-color:#FFD8BF"/>
	<stop  offset="1" style="stop-color:#EFA57F"/>
</linearGradient>
<path display="none" fill="url(#SVGID_31_)" d="M586.797,591.932c1.381,4.417-1.194,9.154-5.754,10.58l-17.01,5.32
	c-4.559,1.426-9.375-0.996-10.757-5.418l0,0c-1.381-4.416,1.193-9.154,5.751-10.582l17.013-5.322
	C580.597,585.088,585.412,587.511,586.797,591.932L586.797,591.932z"/>
<path display="none" d="M561.375,609.444c-4.282,0-7.998-2.68-9.245-6.67c-1.577-5.045,1.356-10.465,6.539-12.089l17.012-5.32
	c0.982-0.306,1.997-0.463,3.016-0.463c4.281,0,7.998,2.68,9.247,6.67c1.578,5.044-1.357,10.465-6.541,12.089l-17.009,5.317
	C563.41,609.287,562.394,609.444,561.375,609.444z M578.696,587.306c-0.775,0-1.548,0.117-2.298,0.354l-17.011,5.321
	c-3.918,1.224-6.146,5.297-4.965,9.075c0.934,2.979,3.728,4.985,6.953,4.985c0.776,0,1.55-0.121,2.3-0.354l17.009-5.321
	c3.92-1.229,6.149-5.297,4.967-9.075C584.716,589.308,581.921,587.306,578.696,587.306z"/>
<path display="none" fill="#992533" d="M671.832,496.848c4.932,2.514,15.593,8.029,14.959,8.378
	c-0.824,0.449-3.835,11.961-9.985,13.215c-1.841,0.378-3.217,1.14-4.177,2.045l7.945,3.155l9.212-23.166l-7.767-3.089l-9.851-1.384
	L671.832,496.848z"/>
<polygon display="none" fill="#C1272D" points="688.372,523.641 702.459,516.983 694.71,493.814 680.625,500.475 "/>
<path display="none" fill="#E03845" d="M695.725,496.848c-4.148,2.514-13.115,8.029-12.581,8.378
	c0.692,0.449,3.226,11.961,8.398,13.215c1.548,0.378,2.705,1.14,3.512,2.045l-6.683,3.155l-7.747-23.166l6.531-3.089l8.287-1.384
	L695.725,496.848z"/>
<polygon display="none" fill="#992533" points="688.372,523.641 702.459,516.983 703.34,519.616 703.323,519.625 705.325,526.25 
	704.373,526.656 702.384,520.069 701.355,520.555 703.34,527.124 702.389,527.53 700.416,520.999 699.337,521.51 701.381,528.275 
	700.432,528.682 698.397,521.954 697.101,522.566 699.129,529.276 698.179,529.685 696.161,523.011 694.806,523.653 
	696.792,530.229 695.842,530.635 693.865,524.098 692.772,524.613 694.772,531.229 693.82,531.636 691.832,525.058 690.227,525.817 
	692.182,532.286 691.231,532.692 689.287,526.262 689.256,526.276 "/>
<polygon display="none" fill="#992533" points="680.573,523.641 663.825,516.983 662.777,519.616 662.796,519.625 660.417,526.25 
	661.546,526.656 663.913,520.069 665.138,520.555 662.777,527.124 663.908,527.53 666.254,520.999 667.536,521.51 665.104,528.275 
	666.236,528.682 668.654,521.954 670.195,522.566 667.784,529.276 668.914,529.685 671.313,523.011 672.925,523.653 
	670.562,530.229 671.693,530.635 674.043,524.098 675.344,524.613 672.965,531.229 674.096,531.636 676.461,525.058 678.37,525.817 
	676.044,532.286 677.175,532.692 679.486,526.262 679.525,526.276 "/>
<path display="none" fill="#C1272D" d="M625.791,507.39c0,0-5.606-15.307-2.403-16.709c3.203-1.398,3.759-3.003,5.083-4.605
	c1.324-1.599,75.571-11.214,76.295-8.01c0.726,3.205,2.328,12.718,2.328,12.718s2.003,2.599,2.604,5.554
	c0.6,2.957,1.802,5.42-1.803,5.991c-3.604,0.57-57.273-3.155-64.081,0.91C637.005,507.304,626.906,510.708,625.791,507.39z"/>
<path display="none" fill="#992533" d="M707.896,502.328c3.604-0.571,2.403-3.034,1.803-5.991c-0.601-2.955-2.604-5.554-2.604-5.554
	s-1.603-9.513-2.328-12.718c-0.724-3.204-74.971,6.411-76.295,8.01c-0.022,0.026-0.04,0.054-0.061,0.08
	c15.727-1.531,72.326-6.908,73.878-5.012c1.803,2.203-5.005,5.609-7.709,6.407c-2.704,0.804,1.1,6.237,4.305,4.319l3.703,0.406
	v2.085c0,0-0.699,2.604-1.701,3.204c-1.001,0.602-1.802,2.202-1.2,3.004c0.273,0.365,0.427,1.021,0.906,1.685
	C704.49,502.383,707.181,502.442,707.896,502.328z"/>
<path display="none" fill="#E03845" d="M659.225,501.373c-4.872-0.684-11.29-1.348-14.41-0.653
	c-5.408,1.202-15.47,10.362-17.572,4.805c-1.569-4.145-3.221-10.968-3.459-15.038c-0.135,0.065-0.25,0.132-0.396,0.194
	c-3.203,1.402,2.403,16.709,2.403,16.709c1.116,3.318,11.214-0.086,18.024-4.151C645.79,502.06,651.72,501.535,659.225,501.373z"/>
<path display="none" fill="#992533" d="M688.916,486.55l-58.81,10.015C630.106,496.564,683.25,492.761,688.916,486.55z"/>
<rect x="667.794" y="496.261" transform="matrix(0.9293 0.3694 -0.3694 0.9293 235.7722 -214.0165)" display="none" fill="#C1272D" width="18.023" height="24.933"/>
<linearGradient id="SVGID_32_" gradientUnits="userSpaceOnUse" x1="363.2261" y1="481.2124" x2="363.2261" y2="303.9748" gradientTransform="matrix(1 0 0 -1 244 1176)">
	<stop  offset="0" style="stop-color:#5E3F2F"/>
	<stop  offset="0.6442" style="stop-color:#4F3529"/>
	<stop  offset="0.9387" style="stop-color:#4F3529"/>
</linearGradient>
<rect x="263.975" y="646.315" display="none" fill="url(#SVGID_32_)" stroke="#3D251A" stroke-width="3" stroke-miterlimit="10" width="686.5" height="251.781"/>
<linearGradient id="SVGID_33_" gradientUnits="userSpaceOnUse" x1="605.2251" y1="695.6709" x2="606.2383" y2="742.2573">
	<stop  offset="0" style="stop-color:#442D23"/>
	<stop  offset="1" style="stop-color:#35231C"/>
</linearGradient>
<rect x="273.543" y="653.594" display="none" fill="url(#SVGID_33_)" stroke="#2D1F1A" stroke-width="2" stroke-miterlimit="10" width="664.948" height="157.022"/>
<rect x="263.975" y="615.663" display="none" fill="#3D251A" stroke="#3D251A" stroke-width="3" stroke-miterlimit="10" width="699.419" height="30.654"/>
<polygon display="none" opacity="0.33" fill="#3D251A" points="938.492,790.389 938.492,888.32 274.306,888.32 "/>
<rect x="263.975" y="615.663" display="none" opacity="0.43" fill="#684536" width="699.419" height="4.587"/>
<linearGradient id="SVGID_34_" gradientUnits="userSpaceOnUse" x1="606.3989" y1="653.5938" x2="606.3989" y2="682.4468">
	<stop  offset="0" style="stop-color:#442D23"/>
	<stop  offset="1" style="stop-color:#35231C"/>
</linearGradient>
<polygon display="none" fill="url(#SVGID_34_)" points="274.307,653.594 309.043,683.149 938.492,683.149 938.492,653.594 "/>
<linearGradient id="SVGID_35_" gradientUnits="userSpaceOnUse" x1="277.1699" y1="731.7168" x2="321.5347" y2="731.7168">
	<stop  offset="0" style="stop-color:#442D23"/>
	<stop  offset="1" style="stop-color:#35231C"/>
</linearGradient>
<polygon display="none" fill="url(#SVGID_35_)" points="277.17,653.594 321.535,683.149 321.535,809.84 277.17,809.84 "/>
<line display="none" fill="none" stroke="#301D15" stroke-miterlimit="10" x1="277.17" y1="653.594" x2="321.535" y2="683.149"/>
<line display="none" fill="none" stroke="#301D15" stroke-miterlimit="10" x1="309.043" y1="683.149" x2="938.492" y2="683.149"/>
<line display="none" fill="none" stroke="#301D15" stroke-miterlimit="10" x1="321.535" y1="683.149" x2="321.535" y2="809.84"/>
<polygon display="none" fill="#38221C" points="691.211,656.05 592.114,656.05 598.828,661.192 684.458,661.192 "/>
<rect x="601.172" y="657.666" display="none" fill="#333333" stroke="#2D2928" stroke-width="0.5" stroke-miterlimit="10" width="79.509" height="9.049"/>
<rect x="601.599" y="657.954" display="none" opacity="0.41" fill="#3F3F3F" width="28.629" height="8.157"/>
<path display="none" fill="#303030" d="M601.599,666.327h4.522c-0.252-0.176-0.551-0.348-0.572-0.654
	c-0.529-0.047-1.074-0.013-1.59,0.096c0.061-0.015,0.128-0.03,0.185-0.043c-0.541-0.033-1.181,0.122-1.688-0.113
	c0.374,0.009,1.041,0.172,1.36,0.005c0.037-0.018,0.426-0.512,0.496-0.598c-0.045-0.019-0.116-0.082-0.189-0.1
	c0.102-0.246,0.489-0.179,0.558-0.551c0.078-0.415-0.303-0.568-0.633-0.641c0.188-0.31,0.68-0.31,0.905-0.606
	c-0.213-0.26-0.561-0.274-0.878-0.252c0.131-0.15,0.088-0.27,0.112-0.433c-0.516-0.034-1.161,0.182-1.641-0.024
	c0.028-0.05,0.037-0.136,0.058-0.179c-0.123,0.019-0.259-0.071-0.376-0.068c0.036-0.217-0.061-0.416-0.269-0.485
	c0.258-0.208,0.377-0.222,0.538-0.496c0.061-0.102,0.062-0.335,0.113-0.463c0.056-0.136,0.21-0.273,0.286-0.384
	c-0.544-0.102,0.163-0.572-0.39-0.611c0.161-0.192,0.209-0.396-0.046-0.452c0.154-0.298-0.164-0.433-0.403-0.488
	c0.219-0.187,0.633-0.072,0.844-0.345c-0.159-0.008-0.323-0.011-0.484-0.004c0.219,0.01,0.401-0.12,0.454-0.342
	c-0.049-0.056-0.125-0.098-0.196-0.142h-1.074V666.327z"/>
<path display="none" fill="#7C0000" d="M653.855,669.786h-25.857v11.149h0.045c-0.004,0.138-0.045,0.266-0.045,0.404
	c0,6.382,5.792,11.556,12.929,11.556s12.928-5.174,12.928-11.556c0-0.139-0.04-0.267-0.046-0.404h0.046V669.786z"/>
<circle display="none" fill="#2D2928" stroke="#444141" stroke-width="0.25" stroke-miterlimit="10" cx="603.732" cy="664.049" r="0.781"/>
<circle display="none" fill="#2D2928" stroke="#474343" stroke-width="0.25" stroke-miterlimit="10" cx="603.732" cy="659.604" r="0.781"/>
<circle display="none" fill="#2D2928" stroke="#3D3938" stroke-width="0.25" stroke-miterlimit="10" cx="677.879" cy="664.049" r="0.781"/>
<circle display="none" fill="#2D2928" stroke="#3D3938" stroke-width="0.25" stroke-miterlimit="10" cx="677.879" cy="659.604" r="0.781"/>
<polyline display="none" fill="#333333" points="601.172,666.715 613.776,675.766 667.106,675.766 680.681,666.715 601.172,666.715 
	"/>
<polygon display="none" opacity="0.41" fill="#3F3F3F" points="634.254,672.366 630.421,667.021 602.408,667.021 614.067,675.766 
	650.694,675.184 "/>
<path display="none" fill="#2D2928" d="M667.226,676.154h-53.573l-13.688-9.827h82L667.226,676.154z M613.902,675.377h53.086
	l12.411-8.273H602.38L613.902,675.377z"/>
<rect x="605.479" y="665.422" display="none" fill="#605958" width="70.353" height="0.689"/>
<path display="none" opacity="0.53" fill="#681313" d="M633.724,687.07c0,0,3.823-10.203,9.975-10.46c6.154-0.259-14.312,0-14.312,0
	S628.672,684.771,633.724,687.07z"/>
<path display="none" fill="#8E1B16" d="M640.508,692.877c-2.946-1.925-8.664-6.521-9.73-9.145c-1.067-2.623-0.68-7.554-0.68-7.554
	l-2.1,0.041v4.716h0.045c-0.004,0.138-0.045,0.266-0.045,0.404C627.998,687.595,633.566,692.677,640.508,692.877z"/>
<linearGradient id="SVGID_36_" gradientUnits="userSpaceOnUse" x1="1471.6914" y1="754.1611" x2="1471.6914" y2="769.1768" gradientTransform="matrix(-1 0 0 -1 2112.25 1445.75)">
	<stop  offset="0" style="stop-color:#FFFFFF"/>
	<stop  offset="0.0185" style="stop-color:#F5F5F5;stop-opacity:0.9815"/>
	<stop  offset="0.1204" style="stop-color:#C3C3C2;stop-opacity:0.8796"/>
	<stop  offset="0.2271" style="stop-color:#969696;stop-opacity:0.7729"/>
	<stop  offset="0.3368" style="stop-color:#717170;stop-opacity:0.6632"/>
	<stop  offset="0.4501" style="stop-color:#535351;stop-opacity:0.5499"/>
	<stop  offset="0.5683" style="stop-color:#3B3B39;stop-opacity:0.4317"/>
	<stop  offset="0.6933" style="stop-color:#2A2A28;stop-opacity:0.3067"/>
	<stop  offset="0.8299" style="stop-color:#20201E;stop-opacity:0.1701"/>
	<stop  offset="1" style="stop-color:#1D1D1B;stop-opacity:0"/>
</linearGradient>
<path display="none" opacity="0.75" fill="url(#SVGID_36_)" d="M650.694,687.683c0,0-9.132,10.881-20.273-1.101"/>
<linearGradient id="SVGID_37_" gradientUnits="userSpaceOnUse" x1="645.0552" y1="684.5703" x2="648.746" y2="692.7775">
	<stop  offset="0" style="stop-color:#FFFFFF"/>
	<stop  offset="0.0185" style="stop-color:#F5F5F5;stop-opacity:0.9815"/>
	<stop  offset="0.1204" style="stop-color:#C3C3C2;stop-opacity:0.8796"/>
	<stop  offset="0.2271" style="stop-color:#969696;stop-opacity:0.7729"/>
	<stop  offset="0.3368" style="stop-color:#717170;stop-opacity:0.6632"/>
	<stop  offset="0.4501" style="stop-color:#535351;stop-opacity:0.5499"/>
	<stop  offset="0.5683" style="stop-color:#3B3B39;stop-opacity:0.4317"/>
	<stop  offset="0.6933" style="stop-color:#2A2A28;stop-opacity:0.3067"/>
	<stop  offset="0.8299" style="stop-color:#20201E;stop-opacity:0.1701"/>
	<stop  offset="1" style="stop-color:#1D1D1B;stop-opacity:0"/>
</linearGradient>
<circle display="none" opacity="0.4" fill="url(#SVGID_37_)" cx="646.128" cy="686.957" r="2.429"/>
<linearGradient id="SVGID_38_" gradientUnits="userSpaceOnUse" x1="649.3506" y1="684.8906" x2="651.1218" y2="688.8293">
	<stop  offset="0" style="stop-color:#FFFFFF"/>
	<stop  offset="0.0185" style="stop-color:#F5F5F5;stop-opacity:0.9815"/>
	<stop  offset="0.1204" style="stop-color:#C3C3C2;stop-opacity:0.8796"/>
	<stop  offset="0.2271" style="stop-color:#969696;stop-opacity:0.7729"/>
	<stop  offset="0.3368" style="stop-color:#717170;stop-opacity:0.6632"/>
	<stop  offset="0.4501" style="stop-color:#535351;stop-opacity:0.5499"/>
	<stop  offset="0.5683" style="stop-color:#3B3B39;stop-opacity:0.4317"/>
	<stop  offset="0.6933" style="stop-color:#2A2A28;stop-opacity:0.3067"/>
	<stop  offset="0.8299" style="stop-color:#20201E;stop-opacity:0.1701"/>
	<stop  offset="1" style="stop-color:#1D1D1B;stop-opacity:0"/>
</linearGradient>
<circle display="none" opacity="0.4" fill="url(#SVGID_38_)" cx="649.865" cy="686.036" r="1.166"/>
<linearGradient id="SVGID_39_" gradientUnits="userSpaceOnUse" x1="643.6816" y1="689.4219" x2="645.0101" y2="692.3759">
	<stop  offset="0" style="stop-color:#FFFFFF"/>
	<stop  offset="0.0185" style="stop-color:#F5F5F5;stop-opacity:0.9815"/>
	<stop  offset="0.1204" style="stop-color:#C3C3C2;stop-opacity:0.8796"/>
	<stop  offset="0.2271" style="stop-color:#969696;stop-opacity:0.7729"/>
	<stop  offset="0.3368" style="stop-color:#717170;stop-opacity:0.6632"/>
	<stop  offset="0.4501" style="stop-color:#535351;stop-opacity:0.5499"/>
	<stop  offset="0.5683" style="stop-color:#3B3B39;stop-opacity:0.4317"/>
	<stop  offset="0.6933" style="stop-color:#2A2A28;stop-opacity:0.3067"/>
	<stop  offset="0.8299" style="stop-color:#20201E;stop-opacity:0.1701"/>
	<stop  offset="1" style="stop-color:#1D1D1B;stop-opacity:0"/>
</linearGradient>
<circle display="none" opacity="0.4" fill="url(#SVGID_39_)" cx="644.068" cy="690.279" r="0.874"/>
<linearGradient id="SVGID_40_" gradientUnits="userSpaceOnUse" x1="645.7207" y1="688.6943" x2="647.0491" y2="691.6483">
	<stop  offset="0" style="stop-color:#FFFFFF"/>
	<stop  offset="0.0185" style="stop-color:#F5F5F5;stop-opacity:0.9815"/>
	<stop  offset="0.1204" style="stop-color:#C3C3C2;stop-opacity:0.8796"/>
	<stop  offset="0.2271" style="stop-color:#969696;stop-opacity:0.7729"/>
	<stop  offset="0.3368" style="stop-color:#717170;stop-opacity:0.6632"/>
	<stop  offset="0.4501" style="stop-color:#535351;stop-opacity:0.5499"/>
	<stop  offset="0.5683" style="stop-color:#3B3B39;stop-opacity:0.4317"/>
	<stop  offset="0.6933" style="stop-color:#2A2A28;stop-opacity:0.3067"/>
	<stop  offset="0.8299" style="stop-color:#20201E;stop-opacity:0.1701"/>
	<stop  offset="1" style="stop-color:#1D1D1B;stop-opacity:0"/>
</linearGradient>
<circle display="none" opacity="0.4" fill="url(#SVGID_40_)" cx="646.106" cy="689.553" r="0.875"/>
<path display="none" opacity="0.7" fill="#660000" d="M630.632,676.494c0,0,22.113,0.729,20.61,5.344
	c-1.503,4.615,2.869-3.255,2.141-5.344H630.632z"/>
<path display="none" fill="none" stroke="#303030" stroke-width="0.5" stroke-miterlimit="10" d="M605.939,662.294
	c10.25,0.035,20.554,0.147,30.816-0.124c5.921-0.156,11.722-0.807,17.655-0.416c7.059,0.463,14.165-0.193,21.221,0.41"/>
<path display="none" fill="none" stroke="#303030" stroke-width="0.5" stroke-miterlimit="10" d="M654.388,663.718
	c6.249-0.415,12.59,0.496,18.783-0.128"/>
<path display="none" fill="none" stroke="#303030" stroke-width="0.5" stroke-miterlimit="10" d="M605.032,659.962
	c14.392,0,29.008,0.656,43.38-0.323c8.386-0.572,17.02-0.588,25.405-0.583"/>
<path display="none" fill="none" stroke="#303030" stroke-width="0.5" stroke-miterlimit="10" d="M650.89,663.59
	c-0.946,0.503-2.209,0.409-3.208,0.455c-5.095,0.232-10.191,0.19-15.289,0.191c-3.539,0.001-7.076,0-10.614,0
	c-1.831,0-3.659,0.176-5.478,0.131"/>
<path display="none" fill="none" stroke="#303030" stroke-width="0.5" stroke-miterlimit="10" d="M586.173,660.869
	c3.201,1.177,7.834,0.389,11.269,0.389"/>
<path display="none" fill="none" stroke="#303030" stroke-width="0.5" stroke-miterlimit="10" d="M596.925,659.056
	c11.349,0.297,22.637-1.038,33.938-1.038"/>
<path display="none" fill="none" stroke="#303030" stroke-width="0.5" stroke-miterlimit="10" d="M629.958,660.609
	c4.055-0.05,8.117,0.129,12.176,0.129"/>
<polygon display="none" fill="#3D7C32" stroke="#34682A" stroke-width="2" stroke-miterlimit="10" points="324.872,535.558 
	360.331,506.183 316.821,506.183 338.686,475.263 313.336,475.263 326.492,444.34 289.656,444.34 302.812,475.263 277.462,475.263 
	299.328,506.183 255.815,506.183 291.276,535.558 244.993,535.558 308.074,578.846 371.153,535.558 "/>
<polygon display="none" fill="#3D7C32" points="319.535,411.875 308.074,455.164 296.613,411.875 "/>
<path display="none" fill="#5E3F2F" stroke="#442D23" stroke-width="2" stroke-miterlimit="10" d="M308.074,615.106
	c21.394,0,38.737-17.343,38.737-38.737h-77.475C269.336,597.763,286.68,615.106,308.074,615.106z"/>
<rect x="260.319" y="568.891" display="none" fill="#5E3F2F" stroke="#442D23" stroke-width="2" stroke-miterlimit="10" width="95.508" height="8.717"/>
<path display="none" fill="#4C3227" d="M308.074,615.106c6.755,0,13.107-1.733,18.636-4.772
	c-24.505-6.34-31.326-33.965-31.326-33.965h-26.048C269.336,597.763,286.68,615.106,308.074,615.106z"/>
<polygon display="none" fill="#36682C" points="260.319,536.892 291.377,562.211 274.345,536.892 "/>
<polygon display="none" fill="#36682C" points="269.336,507.575 295,532.892 280.927,507.575 "/>
<polygon display="none" fill="#36682C" points="282.495,476.584 306.172,501.903 293.188,476.584 "/>
<polygon display="none" fill="#36682C" points="294.333,445.69 307.268,471.008 300.174,445.69 "/>
<polygon display="none" fill="#36682C" points="298.173,411.875 305.866,437.191 301.648,411.875 "/>
<polygon display="none" fill="#47893A" points="356.378,536.892 325.322,562.211 342.353,536.892 "/>
<polygon display="none" fill="#47893A" points="347.362,507.575 321.697,532.892 335.771,507.575 "/>
<polygon display="none" fill="#47893A" points="334.205,476.584 310.526,501.903 323.511,476.584 "/>
<polygon display="none" fill="#47893A" points="322.366,445.69 309.431,471.008 316.524,445.69 "/>
<polygon display="none" fill="#47893A" points="318.525,411.875 310.833,437.191 315.05,411.875 "/>
<path display="none" fill="#4C3227" d="M354.087,578.846c0.06-0.82,0.1-1.644,0.1-2.477h-58.271l-4.54,2.477H354.087z"/>
<polygon display="none" fill="#6D4838" points="335.291,581.747 341.468,581.747 330.115,596.942 "/>
<circle display="none" fill="#36682C" cx="319.094" cy="560.542" r="2.338"/>
<circle display="none" fill="#36682C" cx="326.883" cy="550.966" r="1.562"/>
<circle display="none" fill="#36682C" cx="310.26" cy="551.04" r="1.487"/>
<circle display="none" fill="#36682C" cx="317.925" cy="523.308" r="1.169"/>
<circle display="none" fill="#36682C" cx="324.833" cy="515.746" r="2.051"/>
<circle display="none" fill="#36682C" cx="314.252" cy="511.19" r="2.505"/>
<circle display="none" fill="#36682C" cx="309.993" cy="487.324" r="1.918"/>
<circle display="none" fill="#36682C" cx="317.971" cy="478.656" r="2.073"/>
<circle display="none" fill="#36682C" cx="311.163" cy="452.075" r="3.089"/>
<circle display="none" fill="#36682C" cx="310.342" cy="414.843" r="1.569"/>
<circle display="none" fill="#36682C" cx="311.616" cy="422.911" r="1.623"/>
<circle display="none" fill="#47893A" cx="316.757" cy="517.797" r="1.224"/>
<circle display="none" fill="#47893A" cx="311.912" cy="481.396" r="1.224"/>
<circle display="none" fill="#47893A" cx="309.43" cy="459.58" r="1.223"/>
<circle display="none" fill="#47893A" cx="303.244" cy="447.763" r="1.225"/>
<circle display="none" fill="#47893A" cx="323.59" cy="523.308" r="1.224"/>
<circle display="none" fill="#47893A" cx="319.094" cy="551.04" r="1.224"/>
<circle display="none" fill="#47893A" cx="310.26" cy="558.204" r="1.224"/>
<circle display="none" fill="#47893A" cx="330.377" cy="545.319" r="0.993"/>
<linearGradient id="SVGID_41_" gradientUnits="userSpaceOnUse" x1="1535.1777" y1="334.3667" x2="1535.1777" y2="1011.7272">
	<stop  offset="0" style="stop-color:#E5E5E5"/>
	<stop  offset="1" style="stop-color:#AFAFAF"/>
</linearGradient>
<rect x="1385.8" y="6.946" display="none" fill="url(#SVGID_41_)" stroke="#B5B4B4" stroke-width="4" stroke-miterlimit="10" width="298.755" height="997.396"/>
<polygon display="none" fill="#CCC9C8" points="1406.363,988.533 1667.714,384.292 1667.714,986.473 "/>
<polygon display="none" fill="#C4C4C4" points="1353.581,23.009 1381.691,6.946 1381.691,1006.039 1352.829,990.639 "/>
<path display="none" fill="#B5B4B4" d="M1384.903,1008.048l-34.534-19.734V23.454l34.534-19.734V1008.048z M1356.793,984.584
	l21.686,12.393V14.792l-21.686,12.392V984.584z"/>
<linearGradient id="SVGID_42_" gradientUnits="userSpaceOnUse" x1="-104.4229" y1="158.8701" x2="557.2408" y2="1035.5736">
	<stop  offset="0" style="stop-color:#FFEB45"/>
	<stop  offset="1" style="stop-color:#E5E5E5;stop-opacity:0"/>
</linearGradient>
<polygon opacity="0.24" fill="url(#SVGID_42_)" points="0,0 168.924,0 1181.541,1080 0,1080 "/>
<linearGradient id="SVGID_43_" gradientUnits="userSpaceOnUse" x1="799.8877" y1="158.8701" x2="1461.551" y2="1035.5731" gradientTransform="matrix(-1 0 0 1 2824.3105 0)">
	<stop  offset="0" style="stop-color:#FFEB45"/>
	<stop  offset="1" style="stop-color:#E5E5E5;stop-opacity:0"/>
</linearGradient>
<polygon opacity="0.24" fill="url(#SVGID_43_)" points="1920,0 1751.076,0 738.459,1080 1920,1080 "/>
</svg>
