<?xml version="1.0" encoding="utf-8"?>
<!-- Generator: Adobe Illustrator 15.0.0, SVG Export Plug-In  -->
<!DOCTYPE svg PUBLIC "-//W3C//DTD SVG 1.1//EN" "http://www.w3.org/Graphics/SVG/1.1/DTD/svg11.dtd" [
	<!ENTITY ns_flows "http://ns.adobe.com/Flows/1.0/">
]>
<svg version="1.1"
	 xmlns="http://www.w3.org/2000/svg" xmlns:xlink="http://www.w3.org/1999/xlink" xmlns:a="http://ns.adobe.com/AdobeSVGViewerExtensions/3.0/"
	 x="0px" y="0px" width="1920px" height="1080px" viewBox="0 0 1920 1080"
	 overflow="visible" enable-background="new 0 0 1920 1080" xml:space="preserve">
<defs>
	
		<pattern  x="944.5" y="556.5" width="8.115" height="14.383" patternUnits="userSpaceOnUse" id="SVGID_27_" viewBox="0 -14.383 8.115 14.383" overflow="visible">
		<g>
			<polygon fill="none" points="0,0 8.115,0 8.115,-14.383 0,-14.383 			"/>
			<g>
				<polygon fill="none" points="0,-14.383 8.115,-14.383 8.115,0 0,0 				"/>
				<g>
					<polygon fill="none" points="0,0 8.116,0 8.116,-14.383 0,-14.383 					"/>
					<path fill="#6B5038" d="M2.756-13.096C2.43-12.896,2.001-12.995,1.8-13.323c-0.202-0.327-0.1-0.754,0.227-0.957
						c0.327-0.201,0.755-0.101,0.957,0.228C3.185-13.727,3.085-13.299,2.756-13.096"/>
					<path fill="#6B5038" d="M6.414-0.104c-0.326,0.201-0.756,0.1-0.957-0.227C5.255-0.658,5.358-1.086,5.684-1.287
						C6.01-1.488,6.438-1.389,6.64-1.061C6.841-0.734,6.74-0.305,6.414-0.104"/>
					<path fill="#6B5038" d="M7.785-4.943c-0.326,0.201-0.755,0.1-0.956-0.229c-0.202-0.326-0.1-0.756,0.227-0.957
						C7.383-6.33,7.811-6.229,8.013-5.9C8.214-5.572,8.113-5.145,7.785-4.943"/>
					<path fill="#6B5038" d="M3.656-4.573c-0.326,0.2-0.755,0.101-0.957-0.228C2.498-5.129,2.6-5.559,2.925-5.758
						C3.253-5.961,3.681-5.859,3.883-5.53C4.085-5.204,3.983-4.777,3.656-4.573"/>
					<path fill="#6B5038" d="M5.19-9.152C4.864-8.95,4.434-9.051,4.233-9.379c-0.201-0.325-0.099-0.754,0.228-0.955
						c0.327-0.202,0.754-0.102,0.956,0.228C5.618-9.78,5.517-9.354,5.19-9.152"/>
					<path fill="#6B5038" d="M1.061-8.782C0.735-8.581,0.305-8.682,0.104-9.01c-0.202-0.326-0.099-0.754,0.227-0.955
						c0.327-0.203,0.755-0.102,0.957,0.228C1.489-9.413,1.387-8.984,1.061-8.782"/>
				</g>
			</g>
		</g>
	</pattern>
	
		<pattern  x="944.5" y="556.5" width="4.575" height="4.408" patternUnits="userSpaceOnUse" id="SVGID_28_" viewBox="0 -4.408 4.575 4.408" overflow="visible">
		<g>
			<polygon fill="none" points="0,0 4.575,0 4.575,-4.408 0,-4.408 			"/>
			<g>
				<polygon fill="none" points="0,-4.408 4.575,-4.408 4.575,0 0,0 				"/>
				<g>
					<polygon fill="none" points="0,0 4.575,0 4.575,-4.408 0,-4.408 					"/>
					<polygon fill="#1C995D" points="1.539,-2.869 0,-2.869 0,-4.408 1.539,-4.408 					"/>
					<polygon fill="#1C995D" points="4.575,-2.869 3.036,-2.869 3.036,-4.408 4.575,-4.408 					"/>
					<polygon fill="#1C995D" points="4.575,0 3.036,0 3.036,-1.54 4.575,-1.54 					"/>
					<polygon fill="#1C995D" points="1.539,0 0,0 0,-1.54 1.539,-1.54 					"/>
				</g>
			</g>
		</g>
	</pattern>
	
		<pattern  x="944.5" y="556.5" width="4.575" height="4.408" patternUnits="userSpaceOnUse" id="SVGID_29_" viewBox="0 -4.408 4.575 4.408" overflow="visible">
		<g>
			<polygon fill="none" points="0,0 4.575,0 4.575,-4.408 0,-4.408 			"/>
			<g>
				<polygon fill="none" points="0,-4.408 4.575,-4.408 4.575,0 0,0 				"/>
				<g>
					<polygon fill="none" points="0,0 4.575,0 4.575,-4.408 0,-4.408 					"/>
					<polygon fill="#7BA538" points="1.539,-2.869 0,-2.869 0,-4.408 1.539,-4.408 					"/>
					<polygon fill="#7BA538" points="4.575,-2.869 3.036,-2.869 3.036,-4.408 4.575,-4.408 					"/>
					<polygon fill="#7BA538" points="4.575,0 3.036,0 3.036,-1.54 4.575,-1.54 					"/>
					<polygon fill="#7BA538" points="1.539,0 0,0 0,-1.54 1.539,-1.54 					"/>
				</g>
			</g>
		</g>
	</pattern>
	
		<pattern  x="944.5" y="556.5" width="4.575" height="4.408" patternUnits="userSpaceOnUse" id="SVGID_30_" viewBox="0 -4.408 4.575 4.408" overflow="visible">
		<g>
			<polygon fill="none" points="0,0 4.575,0 4.575,-4.408 0,-4.408 			"/>
			<g>
				<polygon fill="none" points="0,-4.408 4.575,-4.408 4.575,0 0,0 				"/>
				<g>
					<polygon fill="none" points="0,0 4.575,0 4.575,-4.408 0,-4.408 					"/>
					<polygon fill="#1C995D" points="1.539,-2.869 0,-2.869 0,-4.408 1.539,-4.408 					"/>
					<polygon fill="#1C995D" points="4.575,-2.869 3.036,-2.869 3.036,-4.408 4.575,-4.408 					"/>
					<polygon fill="#1C995D" points="4.575,0 3.036,0 3.036,-1.54 4.575,-1.54 					"/>
					<polygon fill="#1C995D" points="1.539,0 0,0 0,-1.54 1.539,-1.54 					"/>
				</g>
			</g>
		</g>
	</pattern>
</defs>
<linearGradient id="SVGID_3_" gradientUnits="userSpaceOnUse" x1="602.2622" y1="-703.3623" x2="602.2622" y2="-193.3171" gradientTransform="matrix(1 0 0 1 274 903)">
	<stop  offset="0" style="stop-color:#E5E5E5"/>
	<stop  offset="1" style="stop-color:#AFAFAF"/>
</linearGradient>
<path display="none" fill="url(#SVGID_3_)" stroke="#CCCCCC" stroke-width="4" stroke-miterlimit="10" d="M273.533,838.085v-630.5
	c0,0,210.694-205.426,899.378-205.426c688.683,0,0,0,0,0h304.621l-14.821,835.927L273.533,838.085L273.533,838.085z"/>
<linearGradient id="SVGID_4_" gradientUnits="userSpaceOnUse" x1="74.5396" y1="-592.7842" x2="495.2374" y2="-323.2263" gradientTransform="matrix(1 0 0 1 274 903)">
	<stop  offset="0" style="stop-color:#95DCEF"/>
	<stop  offset="1" style="stop-color:#67B8EF"/>
</linearGradient>
<rect x="308.142" y="263.521" display="none" fill="url(#SVGID_4_)" width="461.896" height="337.577"/>
<path display="none" fill="#2B2B2B" d="M742.027,584.244l8.894-32.171c0,0,3.138-20.142-3.401-20.142c-6.536,0-18.567,0-18.567,0
	s-4.972-3.66-4.972-15.171c0,0-1.046-3.528-3.529-3.528c-2.029,0-9.156,0-11.704,0c-0.572,0-0.916,0-0.916,0
	c-2.548,0-9.676,0-11.704,0c-2.485,0-3.53,3.528-3.53,3.528c0,11.511-4.971,15.171-4.971,15.171s-12.031,0-18.569,0
	c-6.539,0-3.399,20.142-3.399,20.142l12.815,32.171l-14.386,15.726h43.744h0.916h43.745L742.027,584.244z"/>
<path display="none" fill="#2B2B2B" d="M591.093,584.244l8.895-32.171c0,0,3.139-20.142-3.401-20.142c-6.538,0-18.569,0-18.569,0
	s-4.971-3.66-4.971-15.171c0,0-1.045-3.528-3.529-3.528c-2.028,0-9.155,0-11.705,0c-0.57,0-0.916,0-0.916,0
	c-2.548,0-9.675,0-11.702,0c-2.484,0-3.53,3.528-3.53,3.528c0,11.511-4.972,15.171-4.972,15.171s-12.03,0-18.568,0
	c-6.539,0-3.4,20.142-3.4,20.142l12.816,32.171L513.15,599.97h43.744h0.916h43.744L591.093,584.244z"/>
<path display="none" fill="#2B2B2B" d="M446.134,584.244l8.896-32.171c0,0,3.138-20.142-3.401-20.142c-6.538,0-18.569,0-18.569,0
	s-4.971-3.66-4.971-15.171c0,0-1.045-3.528-3.53-3.528c-2.027,0-9.154,0-11.702,0c-0.572,0-0.916,0-0.916,0
	c-2.55,0-9.678,0-11.704,0c-2.485,0-3.53,3.528-3.53,3.528c0,11.511-4.971,15.171-4.971,15.171s-12.031,0-18.569,0
	c-6.539,0-3.4,20.142-3.4,20.142l12.816,32.171l-14.386,15.726h43.745h0.916H456.6L446.134,584.244z"/>
<radialGradient id="SVGID_5_" cx="173.5913" cy="490.7827" r="5.8149" fx="170.3307" fy="486.7979" gradientTransform="matrix(1 0 0 -1 518 1023.5605)" gradientUnits="userSpaceOnUse">
	<stop  offset="0" style="stop-color:#FFF6BF"/>
	<stop  offset="0.5644" style="stop-color:#FFAC00"/>
	<stop  offset="1" style="stop-color:#FFC900"/>
</radialGradient>
<circle display="none" fill="url(#SVGID_5_)" stroke="#D19A00" stroke-miterlimit="10" cx="691.591" cy="532.778" r="5.815"/>
<radialGradient id="SVGID_6_" cx="180.5757" cy="481.1499" r="5.8149" fx="177.315" fy="477.1651" gradientTransform="matrix(1 0 0 -1 518 1023.5605)" gradientUnits="userSpaceOnUse">
	<stop  offset="0" style="stop-color:#FFF6BF"/>
	<stop  offset="0.5644" style="stop-color:#FFAC00"/>
	<stop  offset="1" style="stop-color:#FFC900"/>
</radialGradient>
<circle display="none" fill="url(#SVGID_6_)" stroke="#D19A00" stroke-miterlimit="10" cx="698.576" cy="542.411" r="5.815"/>
<radialGradient id="SVGID_7_" cx="189.9546" cy="474.9175" r="5.8149" fx="186.6938" fy="470.9326" gradientTransform="matrix(1 0 0 -1 518 1023.5605)" gradientUnits="userSpaceOnUse">
	<stop  offset="0" style="stop-color:#FFF6BF"/>
	<stop  offset="0.5644" style="stop-color:#FFAC00"/>
	<stop  offset="1" style="stop-color:#FFC900"/>
</radialGradient>
<circle display="none" fill="url(#SVGID_7_)" stroke="#D19A00" stroke-miterlimit="10" cx="707.955" cy="548.643" r="5.815"/>
<radialGradient id="SVGID_8_" cx="201.5864" cy="481.1499" r="5.8149" fx="198.3258" fy="477.1651" gradientTransform="matrix(1 0 0 -1 518 1023.5605)" gradientUnits="userSpaceOnUse">
	<stop  offset="0" style="stop-color:#FFF6BF"/>
	<stop  offset="0.5644" style="stop-color:#FFAC00"/>
	<stop  offset="1" style="stop-color:#FFC900"/>
</radialGradient>
<circle display="none" fill="url(#SVGID_8_)" stroke="#D19A00" stroke-miterlimit="10" cx="719.586" cy="542.411" r="5.815"/>
<radialGradient id="SVGID_9_" cx="210.1001" cy="490.4985" r="5.8149" fx="206.8394" fy="486.5137" gradientTransform="matrix(1 0 0 -1 518 1023.5605)" gradientUnits="userSpaceOnUse">
	<stop  offset="0" style="stop-color:#FFF6BF"/>
	<stop  offset="0.5644" style="stop-color:#FFAC00"/>
	<stop  offset="1" style="stop-color:#FFC900"/>
</radialGradient>
<circle display="none" fill="url(#SVGID_9_)" stroke="#D19A00" stroke-miterlimit="10" cx="728.1" cy="533.062" r="5.815"/>
<radialGradient id="SVGID_10_" cx="265.0981" cy="-370.2222" r="5.8149" gradientTransform="matrix(1 0 0 1 274 903)" gradientUnits="userSpaceOnUse">
	<stop  offset="0" style="stop-color:#FFFFFF"/>
	<stop  offset="0.5215" style="stop-color:#D3D3D3"/>
	<stop  offset="1" style="stop-color:#727272"/>
</radialGradient>
<circle display="none" fill="url(#SVGID_10_)" stroke="#727272" stroke-miterlimit="10" cx="539.098" cy="532.778" r="5.815"/>
<radialGradient id="SVGID_11_" cx="272.083" cy="-360.5894" r="5.8152" gradientTransform="matrix(1 0 0 1 274 903)" gradientUnits="userSpaceOnUse">
	<stop  offset="0" style="stop-color:#FFFFFF"/>
	<stop  offset="0.5215" style="stop-color:#D3D3D3"/>
	<stop  offset="1" style="stop-color:#727272"/>
</radialGradient>
<circle display="none" fill="url(#SVGID_11_)" stroke="#727272" stroke-miterlimit="10" cx="546.083" cy="542.411" r="5.815"/>
<radialGradient id="SVGID_12_" cx="281.4619" cy="-354.3569" r="5.8152" gradientTransform="matrix(1 0 0 1 274 903)" gradientUnits="userSpaceOnUse">
	<stop  offset="0" style="stop-color:#FFFFFF"/>
	<stop  offset="0.5215" style="stop-color:#D3D3D3"/>
	<stop  offset="1" style="stop-color:#727272"/>
</radialGradient>
<circle display="none" fill="url(#SVGID_12_)" stroke="#727272" stroke-miterlimit="10" cx="555.462" cy="548.643" r="5.815"/>
<radialGradient id="SVGID_13_" cx="293.0942" cy="-360.5894" r="5.8149" gradientTransform="matrix(1 0 0 1 274 903)" gradientUnits="userSpaceOnUse">
	<stop  offset="0" style="stop-color:#FFFFFF"/>
	<stop  offset="0.5215" style="stop-color:#D3D3D3"/>
	<stop  offset="1" style="stop-color:#727272"/>
</radialGradient>
<circle display="none" fill="url(#SVGID_13_)" stroke="#727272" stroke-miterlimit="10" cx="567.094" cy="542.411" r="5.815"/>
<radialGradient id="SVGID_14_" cx="301.605" cy="-369.938" r="5.8149" gradientTransform="matrix(1 0 0 1 274 903)" gradientUnits="userSpaceOnUse">
	<stop  offset="0" style="stop-color:#FFFFFF"/>
	<stop  offset="0.5215" style="stop-color:#D3D3D3"/>
	<stop  offset="1" style="stop-color:#727272"/>
</radialGradient>
<circle display="none" fill="url(#SVGID_14_)" stroke="#727272" stroke-miterlimit="10" cx="575.605" cy="533.062" r="5.815"/>
<radialGradient id="SVGID_15_" cx="-120.1724" cy="490.7827" r="5.8149" fx="-123.433" fy="486.7979" gradientTransform="matrix(1 0 0 -1 518 1023.5605)" gradientUnits="userSpaceOnUse">
	<stop  offset="0" style="stop-color:#FFF6BF"/>
	<stop  offset="0.5644" style="stop-color:#FFAC00"/>
	<stop  offset="1" style="stop-color:#FFC900"/>
</radialGradient>
<circle display="none" fill="url(#SVGID_15_)" stroke="#D19A00" stroke-miterlimit="10" cx="397.828" cy="532.778" r="5.815"/>
<radialGradient id="SVGID_16_" cx="-113.188" cy="481.1499" r="5.8149" fx="-116.4487" fy="477.1651" gradientTransform="matrix(1 0 0 -1 518 1023.5605)" gradientUnits="userSpaceOnUse">
	<stop  offset="0" style="stop-color:#FFF6BF"/>
	<stop  offset="0.5644" style="stop-color:#FFAC00"/>
	<stop  offset="1" style="stop-color:#FFC900"/>
</radialGradient>
<circle display="none" fill="url(#SVGID_16_)" stroke="#D19A00" stroke-miterlimit="10" cx="404.812" cy="542.411" r="5.815"/>
<radialGradient id="SVGID_17_" cx="-103.8091" cy="474.9175" r="5.8149" fx="-107.0698" fy="470.9326" gradientTransform="matrix(1 0 0 -1 518 1023.5605)" gradientUnits="userSpaceOnUse">
	<stop  offset="0" style="stop-color:#FFF6BF"/>
	<stop  offset="0.5644" style="stop-color:#FFAC00"/>
	<stop  offset="1" style="stop-color:#FFC900"/>
</radialGradient>
<circle display="none" fill="url(#SVGID_17_)" stroke="#D19A00" stroke-miterlimit="10" cx="414.191" cy="548.643" r="5.815"/>
<radialGradient id="SVGID_18_" cx="-92.1772" cy="481.1499" r="5.8149" fx="-95.438" fy="477.1651" gradientTransform="matrix(1 0 0 -1 518 1023.5605)" gradientUnits="userSpaceOnUse">
	<stop  offset="0" style="stop-color:#FFF6BF"/>
	<stop  offset="0.5644" style="stop-color:#FFAC00"/>
	<stop  offset="1" style="stop-color:#FFC900"/>
</radialGradient>
<circle display="none" fill="url(#SVGID_18_)" stroke="#D19A00" stroke-miterlimit="10" cx="425.823" cy="542.411" r="5.815"/>
<radialGradient id="SVGID_19_" cx="-83.6626" cy="490.4985" r="5.8149" fx="-86.9233" fy="486.5137" gradientTransform="matrix(1 0 0 -1 518 1023.5605)" gradientUnits="userSpaceOnUse">
	<stop  offset="0" style="stop-color:#FFF6BF"/>
	<stop  offset="0.5644" style="stop-color:#FFAC00"/>
	<stop  offset="1" style="stop-color:#FFC900"/>
</radialGradient>
<circle display="none" fill="url(#SVGID_19_)" stroke="#D19A00" stroke-miterlimit="10" cx="434.337" cy="533.062" r="5.815"/>
<circle display="none" fill="#3A3837" cx="671.097" cy="537.319" r="1.753"/>
<linearGradient id="SVGID_20_" gradientUnits="userSpaceOnUse" x1="265.0908" y1="-341.584" x2="265.0908" y2="-617.1338" gradientTransform="matrix(1 0 0 1 274 903)">
	<stop  offset="0" style="stop-color:#5E3F2F"/>
	<stop  offset="0.6442" style="stop-color:#4F3529"/>
	<stop  offset="0.9387" style="stop-color:#4F3529"/>
</linearGradient>
<path display="none" fill="url(#SVGID_20_)" stroke="#3D251A" stroke-width="3" stroke-miterlimit="10" d="M770.038,243.785H308.142
	h-19.735v377.188h19.735h461.896h19.737V243.785H770.038z M770.038,601.236H308.142V263.521h461.896V601.236L770.038,601.236z"/>
<linearGradient id="SVGID_21_" gradientUnits="userSpaceOnUse" x1="37.8618" y1="-559.3047" x2="37.8618" y2="-353.5591" gradientTransform="matrix(1 0 0 1 274 903)">
	<stop  offset="0" style="stop-color:#5E3F2F"/>
	<stop  offset="0.6442" style="stop-color:#4F3529"/>
	<stop  offset="0.9387" style="stop-color:#4F3529"/>
</linearGradient>
<polyline display="none" fill="url(#SVGID_21_)" stroke="#3D251A" stroke-width="2" stroke-miterlimit="10" points="309.51,264.035 
	315.582,270.273 315.582,601.236 308.142,601.236 308.142,264.035 309.51,264.035 "/>
<linearGradient id="SVGID_22_" gradientUnits="userSpaceOnUse" x1="265.7739" y1="-634.8047" x2="265.7739" y2="-637.3665" gradientTransform="matrix(1 0 0 1 274 903)">
	<stop  offset="0" style="stop-color:#5E3F2F"/>
	<stop  offset="0.6442" style="stop-color:#4F3529"/>
	<stop  offset="0.9387" style="stop-color:#4F3529"/>
</linearGradient>
<polygon display="none" fill="url(#SVGID_22_)" stroke="#3D251A" stroke-width="2" stroke-miterlimit="10" points="309.51,264.035 
	315.582,270.273 770.038,270.273 770.038,261.963 "/>
<polygon display="none" fill="#4F2F25" points="488.795,615.66 294.027,615.66 292.08,362.959 302.598,376.261 302.598,609.038 
	475.55,609.038 "/>
<polygon display="none" fill="#4F2F25" points="588.516,615.66 783.282,615.66 785.229,362.959 774.713,376.261 774.713,609.038 
	601.76,609.038 "/>
<polygon display="none" fill="#6B3F37" points="588.516,248.46 783.282,248.46 785.229,459.397 774.713,446.096 774.713,255.083 
	601.76,255.083 "/>
<polygon display="none" fill="#6B3F37" points="489.498,248.46 294.73,248.46 292.783,459.397 303.3,446.096 303.3,255.083 
	476.254,255.083 "/>
<polygon display="none" fill="#6B3F37" points="503.968,248.46 309.201,248.46 307.253,459.397 317.771,446.096 317.771,255.083 
	490.724,255.083 "/>
<linearGradient id="SVGID_23_" gradientUnits="userSpaceOnUse" x1="568.7417" y1="-481.8726" x2="935.0302" y2="-247.177" gradientTransform="matrix(1 0 0 1 274 903)">
	<stop  offset="0" style="stop-color:#95DCEF"/>
	<stop  offset="1" style="stop-color:#67B8EF"/>
</linearGradient>
<rect x="882.504" y="263.521" display="none" fill="url(#SVGID_23_)" width="252.29" height="527.82"/>
<linearGradient id="SVGID_24_" gradientUnits="userSpaceOnUse" x1="888.4253" y1="-460.293" x2="888.4253" y2="-326.2733" gradientTransform="matrix(1 0 0 1 274 903)">
	<stop  offset="0" style="stop-color:#E5E5E5"/>
	<stop  offset="1" style="stop-color:#AFAFAF"/>
</linearGradient>
<rect x="1149.698" y="542.946" display="none" fill="url(#SVGID_24_)" width="25.455" height="243.066"/>
<linearGradient id="SVGID_25_" gradientUnits="userSpaceOnUse" x1="732.1191" y1="-195.4443" x2="732.119" y2="-597.7732" gradientTransform="matrix(1 0 0 1 274 903)">
	<stop  offset="0" style="stop-color:#5E3F2F"/>
	<stop  offset="0.6442" style="stop-color:#4F3529"/>
	<stop  offset="0.9387" style="stop-color:#4F3529"/>
</linearGradient>
<path display="none" fill="url(#SVGID_25_)" stroke="#3D251A" stroke-width="3" stroke-miterlimit="10" d="M1138.395,243.785
	H873.841h-11.304v550.729h11.304h264.554h11.306V243.785H1138.395z M1131.524,765.697H882.504V272.602h249.021L1131.524,765.697
	L1131.524,765.697z"/>
<polygon display="none" fill="#6B3F37" points="1065.604,251.258 870.837,251.258 868.89,462.195 879.407,448.894 879.407,257.88 
	1052.36,257.88 "/>
<polygon display="none" fill="#6B3F37" points="951.448,251.258 1146.215,251.258 1148.162,462.195 1137.645,448.894 
	1137.645,257.88 964.692,257.88 "/>
<polygon display="none" opacity="0.23" fill="#FFFFFF" enable-background="new    " points="896.597,288.18 922.735,288.18 
	1125.292,636.211 896.597,636.211 "/>
<polyline display="none" fill="#E5E5E5" stroke="#CCCCCC" stroke-width="4" stroke-miterlimit="10" points="850.567,791.341 
	1304.84,791.341 1612.868,1070.708 4.7,1070.708 273.533,791.341 850.567,791.341 "/>
<path display="none" fill="#F4F3F2" d="M152.701,1058.021l16.36-23.37c0,0,1575.195,13.12,1201.262-49.53h44.679h74.4l82.972,78.234
	L152.701,1058.021z"/>
<linearGradient id="SVGID_26_" gradientUnits="userSpaceOnUse" x1="233.6294" y1="-461.4531" x2="301.7153" y2="-420.6012" gradientTransform="matrix(1 0 0 1 274 903)">
	<stop  offset="0" style="stop-color:#FFD8BF"/>
	<stop  offset="1" style="stop-color:#EFA57F"/>
</linearGradient>
<circle display="none" fill="url(#SVGID_26_)" cx="512.623" cy="444.543" r="49.616"/>
<path display="none" fill="#6B5038" d="M528.583,488.036c0-0.438,0.36-0.798,0.802-0.798c0.443,0,0.803,0.357,0.803,0.798
	c0,0.444-0.358,0.804-0.803,0.804C528.943,488.84,528.583,488.48,528.583,488.036z"/>
<pattern  id="SVGID_31_" xlink:href="#SVGID_27_" patternTransform="matrix(1 0 0 1 113.3223 15979.3477)">
</pattern>
<path display="none" fill="url(#SVGID_31_)" d="M543.061,476.729L543.061,476.729l-3.705-1.507l-7.209-2.104l-1.272-2.58
	c-0.005,0-0.008,0-0.011-0.003l-9.327-1.021l-11.916,0.617l-11.328,0.834c-0.008,0-0.013,0.002-0.021,0.006l-4.674,4.449
	l-6.809,2.278l-4.136,4.842l-0.916-1.693c-0.33,0.339-0.5,0.533-0.5,0.533s9.055,11.511,33.841,11.511
	c21.58,0,29.043-10.109,30.614-12.729L543.061,476.729z"/>
<circle display="none" fill="#6B5038" cx="534.773" cy="475.421" r="0.801"/>
<path display="none" fill="#6B5038" d="M541.76,482.63c0-0.44,0.359-0.798,0.801-0.798c0.443,0,0.804,0.355,0.804,0.798
	c0,0.444-0.359,0.801-0.804,0.801C542.119,483.431,541.76,483.074,541.76,482.63z"/>
<path display="none" d="M512.622,495.362c-28.021,0-50.817-22.797-50.817-50.819c0-28.02,22.796-50.817,50.817-50.817
	c28.021,0,50.817,22.798,50.817,50.817C563.439,472.565,540.643,495.362,512.622,495.362z M512.622,396.129
	c-26.694,0-48.414,21.718-48.414,48.414s21.72,48.416,48.414,48.416c26.696,0,48.417-21.72,48.417-48.416
	S539.318,396.129,512.622,396.129z"/>
<circle display="none" fill="#22B573" cx="510.938" cy="362.657" r="12.094"/>
<pattern  id="SVGID_32_" xlink:href="#SVGID_28_" patternTransform="matrix(1 0 0 1 121.2861 15953.0234)">
</pattern>
<circle display="none" opacity="0.34" fill="url(#SVGID_32_)" enable-background="new    " cx="510.938" cy="362.657" r="12.094"/>
<path display="none" fill="#4AD392" d="M511.708,350.601c-0.001,0-0.002,0-0.005,0l-1.209-0.016c-0.82,0.03-1.619,0.14-2.392,0.326
	l-4.656,2.264c-0.773,0.611-1.466,1.316-2.068,2.097l-2.067,10.679c0.003,0.006,0.003,0.012,0.005,0.017l2.514,2.061
	C503.646,352.167,511.688,350.605,511.708,350.601z"/>
<path display="none" fill="#1C995D" d="M510.02,365.971l6.825,1.551l5.292-0.309c0.347-0.851,0.589-1.752,0.736-2.687l-0.314-5.191
	c-0.984-3.459-3.469-6.281-6.708-7.725c0.062,0.087,0.112,0.163,0.179,0.253C523.537,362.378,510.02,365.971,510.02,365.971z"/>
<path display="none" fill="#1D1D1B" d="M510.938,375.952c-7.331,0-13.295-5.964-13.295-13.295c0-7.332,5.966-13.295,13.295-13.295
	c7.332,0,13.298,5.963,13.298,13.295C524.232,369.988,518.27,375.952,510.938,375.952z M510.938,351.764
	c-6.007,0-10.893,4.888-10.893,10.894c0,6.005,4.885,10.893,10.893,10.893c6.009,0,10.895-4.887,10.895-10.893
	C521.832,356.652,516.944,351.764,510.938,351.764z"/>
<path display="none" fill="#8CC63F" d="M558.762,409.671c-2.804-23.933-23.14-42.509-47.826-42.509
	c-25.265,0-45.972,19.459-47.987,44.205C468.902,410.146,493.29,406.432,558.762,409.671z"/>
<pattern  id="SVGID_33_" xlink:href="#SVGID_29_" patternTransform="matrix(1 0 0 1 121.2861 15953.0234)">
</pattern>
<path display="none" opacity="0.18" fill="url(#SVGID_33_)" enable-background="new    " d="M558.762,409.671
	c-2.804-23.933-23.14-42.509-47.826-42.509c-25.265,0-45.972,19.459-47.987,44.205C468.902,410.146,493.29,406.432,558.762,409.671z
	"/>
<path display="none" fill="#BAEA6E" d="M493.858,370.293c-0.054,0.02-0.104,0.038-0.156,0.058l-10.215,5.403
	c-0.012,0.007-0.021,0.013-0.03,0.021l-10.02,9.35c-0.015,0.02-0.029,0.04-0.047,0.058l-7.65,13.533
	c-0.012,0.027-0.021,0.054-0.03,0.083l-1.85,11.239c0,0,0,0.438,0.004,1.15c0.623-0.116,1.364-0.246,2.261-0.384
	c0.045-0.539,0.09-1.088,0.138-1.668c2.365-29.271,44.13-41.576,45.445-41.957c-0.257-0.005-0.512-0.019-0.773-0.019
	c-3.112,0-6.157,0.299-9.107,0.864L493.858,370.293z"/>
<path display="none" fill="#7EAA39" d="M517.628,407.999l40.854,0.938l-2.539-10.735c-0.056-0.143-0.111-0.284-0.165-0.425
	l-6.626-9.766l-6.092-8.512l-7.097-5.323c-1.705-1.04-3.479-1.977-5.315-2.801l-9.578-3.133c-0.282-0.061-0.564-0.125-0.85-0.181
	l-3.377,0.676C569.931,400.23,517.628,407.999,517.628,407.999z"/>
<path display="none" fill="#1D1D1B" d="M461.621,412.864l0.129-1.598c2.07-25.405,23.677-45.308,49.188-45.308
	c25.037,0,46.109,18.731,49.019,43.571l0.165,1.409l-1.417-0.071c-17.335-0.856-33.183-1.291-47.094-1.291
	c-30.641,0-44.067,2.075-48.418,2.966L461.621,412.864z M510.938,368.363c-23.736,0-43.923,18.113-46.637,41.523
	c5.698-1.002,19.506-2.713,47.309-2.713c13.565,0,28.959,0.413,45.771,1.228C553.997,385.478,534.277,368.363,510.938,368.363z"/>
<path display="none" fill="#22B573" d="M459.003,411.945c0,0,0.266,10.012,5.047,12.763c4.781,2.752,96.879-2.75,98.004,0
	c1.126,2.752-0.636-11.006,0-14.446C562.689,406.822,463.917,407.243,459.003,411.945z"/>
<pattern  id="SVGID_34_" xlink:href="#SVGID_30_" patternTransform="matrix(1 0 0 1 121.2861 15953.0234)">
</pattern>
<path display="none" opacity="0.18" fill="url(#SVGID_34_)" enable-background="new    " d="M459.003,411.945
	c0,0,0.266,10.012,5.047,12.763c4.781,2.752,96.879-2.75,98.004,0c1.126,2.752-0.636-11.006,0-14.446
	C562.689,406.822,463.917,407.243,459.003,411.945z"/>
<path display="none" fill="#4AD392" d="M459.02,412.288c0.005,0.063,0.01,0.137,0.014,0.219l2.185,8.989
	c0.429,0.821,0.946,1.559,1.554,2.179l3.222,1.462c0.2,0.022,0.411,0.043,0.634,0.065c-0.694-1.247-3.391-6.356-4.819-12.817
	c-0.12-0.539-0.235-0.993-0.35-1.385c-1.167,0.274-1.972,0.566-2.361,0.878C459.059,412.059,459.034,412.201,459.02,412.288z"/>
<path display="none" fill="#1C995D" d="M562.054,410.262c0.392-2.118-36.895-2.771-66.762-1.863l-19.269,0.9
	c-8.318,0.575-14.438,1.341-16.468,2.305v2.142c28.236-3.605,94.521-2.403,95.12-0.88c0.604,1.522,3.206,1.08,2.005,3.887
	c-1.202,2.805,0,7.006,0,7.006l5.708-1.353C562.211,418.764,561.652,412.442,562.054,410.262z"/>
<path display="none" fill="#1D1D1B" d="M477.102,426.978c-11.131,0-12.952-0.513-13.786-0.991
	c-5.343-3.074-5.756-12.892-5.784-13.999l-0.02-0.653l0.474-0.451c4.424-4.234,58.243-4.355,64.363-4.355
	c38.604,0,40.243,1.97,40.781,2.616c0.327,0.395,0.464,0.898,0.374,1.388c-0.275,1.493-0.01,5.761,0.188,8.879
	c0.327,5.277,0.347,5.979-0.289,6.652l-0.438,0.467l-0.675,0.019c-0.545-0.002-0.987-0.25-1.319-0.744
	c-0.74-0.164-3.042-0.413-10.136-0.413c-8.957,0-21.949,0.376-35.701,0.774C501.307,426.562,487.015,426.978,477.102,426.978z
	 M460.521,412.76c0.225,3.01,1.26,8.939,4.265,10.67c0.382,0.169,2.41,0.601,12.314,0.601c9.87,0,24.145-0.413,37.944-0.814
	c13.776-0.397,26.789-0.772,35.788-0.772c5.391,0,8.388,0.132,10.1,0.375c-0.046-0.97-0.118-2.163-0.186-3.226
	c-0.193-3.062-0.404-6.47-0.264-8.569c-3.237-0.8-16.675-1.549-38.138-1.549C492.017,409.473,465.178,410.924,460.521,412.76z"/>
<rect x="478.65" y="437.091" transform="matrix(0.972 0.235 -0.235 0.972 117.0862 -101.9629)" display="none" fill="#6B5038" width="15.312" height="6.272"/>
<path display="none" fill="#89674A" d="M479.605,435.376l-0.717,2.964c0.245-0.104,0.469-0.351,0.807-0.335
	c0.021,0.435-0.042,0.913,0.062,1.327c0.281-0.639,2.72-1.802,2.42-0.452c0.356-0.377,1.262-0.595,1.373,0.072
	c0.302-0.361,0.833-0.423,1.252-0.576c0.139,0.975,0.918,1.725,1.944,0.989c-0.153,0.229-0.129,0.389-0.113,0.646
	c0.399-0.227,0.836-0.639,1.321-0.58c-0.136,0.804-0.361,2.065-0.043,2.841c0.261-0.396,0.513-0.853,0.827-1.271
	c0.272-0.371,0.588-1.437,0.938-1.666c1.323-0.869,1.128,1.501,1.15,2.111c0.492-0.156,0.67-0.768,1.179-0.963
	c0.059,0.165,0.277,0.366,0.313,0.512c0.261-0.262,0.264-0.633,0.591-0.818c0.179,0.498,0.193,0.955,0.476,1.419
	c0.236-0.129,0.456-0.429,0.658-0.789l0.443-1.834L479.605,435.376z"/>
<path display="none" fill="#1D1D1B" d="M493.455,445.797l-16.048-3.884l1.758-7.265l16.048,3.884L493.455,445.797z M478.855,441.03
	l13.715,3.316l1.19-4.933l-13.714-3.315L478.855,441.03z"/>
<rect x="529.474" y="436.566" transform="matrix(-0.9719 0.2352 -0.2352 -0.9719 1162.6116 740.7259)" display="none" fill="#6B5038" width="15.307" height="6.274"/>
<path display="none" fill="#89674A" d="M543.835,434.844l0.718,2.968c-0.247-0.106-0.47-0.354-0.806-0.336
	c-0.022,0.435,0.043,0.913-0.064,1.324c-0.278-0.638-2.72-1.801-2.419-0.453c-0.355-0.373-1.262-0.594-1.375,0.073
	c-0.3-0.361-0.831-0.423-1.25-0.573c-0.137,0.977-0.921,1.725-1.942,0.986c0.148,0.229,0.129,0.39,0.112,0.647
	c-0.399-0.229-0.837-0.64-1.32-0.576c0.136,0.801,0.359,2.062,0.042,2.839c-0.263-0.398-0.514-0.854-0.826-1.273
	c-0.276-0.37-0.591-1.434-0.939-1.666c-1.321-0.866-1.126,1.505-1.148,2.11c-0.493-0.152-0.668-0.765-1.181-0.963
	c-0.057,0.165-0.275,0.368-0.312,0.517c-0.259-0.266-0.263-0.634-0.588-0.817c-0.179,0.492-0.195,0.953-0.479,1.415
	c-0.233-0.13-0.457-0.427-0.656-0.785l-0.442-1.834L543.835,434.844z"/>
<path display="none" fill="#1D1D1B" d="M528.23,438l16.048-3.882l1.758,7.265l-16.049,3.884L528.23,438z M543.393,435.567
	l-13.714,3.316l1.194,4.933l13.712-3.316L543.393,435.567z"/>
<path display="none" fill="#FFFFFF" d="M494.646,454.296c0,0-6.18,5.105-14.691,0C471.441,449.189,492.993,442.056,494.646,454.296z
	"/>
<path display="none" fill="#FFFFFF" d="M494.646,454.296c0,0-6.18,5.105-14.691,0C471.441,449.189,492.993,442.056,494.646,454.296z
	"/>
<path display="none" fill="#EDBA9D" d="M494.246,452.629c0.162,0.479,0.292,0.986,0.376,1.543
	C494.582,453.637,494.459,453.121,494.246,452.629z"/>
<path display="none" fill="#EDBA9D" d="M479.955,454.296c-1.258-0.755-1.845-1.553-1.952-2.326
	c-0.479,0.776-0.748,1.643-0.748,2.544c0,3.478,3.896,6.29,8.697,6.29s8.694-2.812,8.694-6.29c0-0.068-0.015-0.139-0.017-0.206
	C494.477,454.432,488.361,459.337,479.955,454.296z"/>
<path display="none" fill="#E0A486" d="M529.76,452.629c-0.161,0.479-0.29,0.986-0.375,1.543
	C529.425,453.637,529.547,453.121,529.76,452.629z"/>
<path display="none" fill="#E0A486" d="M544.053,454.296c1.258-0.755,1.847-1.553,1.953-2.326c0.479,0.776,0.747,1.643,0.747,2.544
	c0,3.478-3.896,6.29-8.695,6.29c-4.802,0-8.694-2.812-8.694-6.29c0-0.068,0.012-0.139,0.015-0.206
	C529.53,454.432,535.646,459.337,544.053,454.296z"/>
<path display="none" d="M484.517,449.522c0.06,0.171,0.109,0.345,0.109,0.534c0,0.938-0.758,1.693-1.693,1.693
	c-0.598,0-1.096-0.327-1.397-0.796c-0.184,0.365-0.294,0.77-0.294,1.204c0,1.493,1.212,2.704,2.705,2.704
	c1.489,0,2.7-1.211,2.7-2.704C486.646,450.865,485.735,449.784,484.517,449.522z"/>
<path display="none" fill="#FFFFFF" d="M529.361,454.296c0,0,6.178,5.105,14.689,0C552.566,449.189,531.014,442.056,529.361,454.296
	z"/>
<path display="none" d="M532.316,449.522c-0.059,0.171-0.108,0.345-0.108,0.534c0,0.938,0.757,1.693,1.694,1.693
	c0.596,0,1.097-0.327,1.397-0.796c0.183,0.365,0.294,0.77,0.294,1.204c0,1.493-1.211,2.704-2.704,2.704
	c-1.491,0-2.702-1.211-2.702-2.704C530.188,450.865,531.1,449.784,532.316,449.522z"/>
<path display="none" fill="#1D1D1B" d="M501.857,481.381c-0.553,0-1.051-0.383-1.173-0.942c-0.144-0.649,0.269-1.287,0.916-1.434
	l22.528-4.956c0.643-0.146,1.289,0.268,1.433,0.915c0.144,0.648-0.269,1.287-0.916,1.434l-22.527,4.954
	C502.03,481.369,501.944,481.381,501.857,481.381z"/>
<path display="none" fill="#1D1D1B" d="M502.993,461.434c0.125,0.124,3.12,2.945,10.368,2.977l0,0c0.037,0,0.069,0,0.105,0l0,0
	c7.25-0.029,10.244-2.854,10.407-3.018l-0.873-0.819c-0.025,0.024-2.834,2.62-9.587,2.635c-6.729-0.015-9.54-2.592-9.544-2.592l0,0
	L502.993,461.434z"/>
<path display="none" fill="#FFD8BF" d="M561.994,436.96l1.763-1.799l3.684,0.287l2.62,1.62l1.902,3.044l-0.083,5.666l-2.192,4.472
	l-4.082,4.515l-5.448,0.036c0,0,8.591-3.375,6.071-10.976c-3.103-1.737-3.28-0.682-3.28-0.682l0.928-1.588l2.562-0.786l2.149,0.294
	C568.585,441.064,570.39,436.258,561.994,436.96z"/>
<path display="none" fill="#E8B8A7" d="M560.218,435.838l1.775,1.122l4.062-0.561l3.016,2.773v3.981l-0.338,2.553l-1.166,4.132
	l-4.127,3.562l-3.286,1.397C560.155,454.8,559.925,438.286,560.218,435.838z"/>
<path display="none" d="M560.205,435.85c-0.008,0.014-0.013,0.028-0.021,0.039L560.205,435.85z"/>
<path display="none" d="M568.11,434.555c-2.313-0.996-5.085-0.637-7.604,0.982c-0.119,0.081-0.214,0.186-0.288,0.301l1.775,1.122
	c1.85-1.06,3.729-1.27,5.333-0.583c3.478,1.489,4.595,6.699,2.491,11.608c-1.912,4.464-5.933,7.209-9.258,6.473l-0.956,1.793
	c0.079,0.076-0.6-0.209-0.492-0.165c0.012,0.006,0.021,0.009,0.035,0.016c4.5,1.737,9.989-1.48,12.495-7.333
	C574.182,442.85,572.595,436.474,568.11,434.555z"/>
<path display="none" fill="none" stroke="#000000" stroke-miterlimit="10" d="M568.689,441.819c0.474-1.407-3.063-1.084-3.702-0.845
	c-0.984,0.378-2.865,1.595-2.979,2.665c0.459-0.724,1.764-0.539,2.458-0.392c0.84,0.177,1.277,0.266,1.629,1.058
	c0.711,1.613,0.196,4.181-0.521,5.77c-0.58,1.29-2.444,3.461-3.9,2.143c-0.644-0.588-0.524-1.553-0.426-2.33
	c0.157-1.241,0.304-2.18,1.525-2.792"/>
<path display="none" fill="#FFD8BF" d="M462.988,436.96l-1.766-1.799l-3.682,0.287l-2.621,1.62l-1.901,3.044l0.082,5.666
	l2.195,4.472l4.08,4.515l5.452,0.036c0,0-8.593-3.375-6.076-10.976c3.104-1.737,3.282-0.682,3.282-0.682l-0.931-1.588l-2.559-0.786
	l-2.148,0.294C456.396,441.064,454.592,436.258,462.988,436.96z"/>
<path display="none" fill="#E8B8A7" d="M465.243,435.688l-1.776,1.122l-4.062-0.562l-3.015,2.777v3.978l0.336,2.554l1.166,4.134
	l4.129,3.562l2.595,1.457C464.613,454.707,465.535,438.133,465.243,435.688z"/>
<path display="none" d="M464.773,435.85c0.011,0.014,0.017,0.028,0.021,0.039L464.773,435.85z"/>
<path display="none" d="M456.992,435.04c2.313-0.992,5.086-0.636,7.604,0.984c0.119,0.079,0.214,0.186,0.29,0.299l-1.775,1.124
	c-1.852-1.062-3.73-1.271-5.333-0.581c-3.479,1.487-4.596,6.696-2.491,11.604c1.912,4.463,5.932,7.208,9.662,6.151l0.796,2.04
	c-0.488,0.396,0.105-0.047,0,0c-0.01,0.006,0.012-0.002,0,0c-4.5,1.737-9.779-1.558-12.286-7.409
	C450.922,443.336,452.508,436.96,456.992,435.04z"/>
<path display="none" fill="none" stroke="#000000" stroke-miterlimit="10" d="M456.291,441.819
	c-0.472-1.407,3.062-1.084,3.702-0.845c0.984,0.378,2.864,1.595,2.978,2.665c-0.458-0.724-1.761-0.539-2.457-0.392
	c-0.841,0.177-1.276,0.266-1.63,1.058c-0.711,1.613-0.196,4.181,0.522,5.77c0.581,1.29,2.443,3.461,3.899,2.143
	c0.645-0.588,0.523-1.553,0.427-2.33c-0.158-1.241-0.308-2.18-1.526-2.792"/>
<path display="none" fill="#567EAF" d="M477.194,492.191c-6.192,0.146-19.684,12.482-19.684,12.482s-5.967,94.308-5.261,97.311
	c0.705,3.004,6.504,26.435,10.572,30.039c4.066,3.604,80.641,0,82.873,0s23.038-5.2,23.038-5.2l6.569-7.757
	c0,0,1.804-110.805,0-115.123c-1.803-4.317-21.192-14.726-21.192-14.726L477.194,492.191z"/>
<polygon display="none" fill="#426B93" points="514.148,499.794 514.148,604.387 523.875,496.92 "/>
<polygon display="none" fill="#3F6382" points="514.148,604.387 528.583,501.711 519.011,503.169 "/>
<polygon display="none" fill="#3F6382" points="514.148,604.387 508.009,503.661 514.148,503.605 "/>
<path display="none" fill="#4C7791" d="M564.068,627.975c2.736-0.669,4.664-1.149,4.664-1.149l6.57-7.757
	c0,0,1.803-110.805,0-115.123c-1.803-4.317-21.192-14.726-21.192-14.726l-2.099,0.079l3.866,3.772c0,0,11.966,9.436,13.193,24.129
	c1.225,14.693,2.552,78.877-4.121,106.663C564.594,625.351,564.311,626.705,564.068,627.975z"/>
<path display="none" fill="#6392C1" d="M468.79,633.172c-5.487-11.903-7.354-28.714-9.787-31.188
	c-2.755-2.809,1.553-93.317,2.802-97.311c1.249-3.989,11.041-9.312,11.041-9.312l-1.489-1.075
	c-6.375,3.562-13.846,10.389-13.846,10.389s-5.967,94.308-5.261,97.311c0.705,3.004,6.504,26.435,10.572,30.039
	C463.416,632.547,465.562,632.919,468.79,633.172z"/>
<path display="none" fill="#4C7791" d="M568.732,626.823l6.57-7.757c0,0-19.825-1.062-25.834,2.902
	c-6.006,3.966-12.813,0.841-19.281,0.037c-6.467-0.801-25.174,11.164-25.174,11.164l0.396,0.191
	c19.771-0.454,39.18-1.342,40.287-1.342C547.929,632.023,568.732,626.823,568.732,626.823z"/>
<rect x="469.352" y="525.932" transform="matrix(0.7676 0.641 -0.641 0.7676 451.1594 -180.9437)" display="none" fill="#6D665A" width="11.439" height="11.341"/>
<rect x="484.762" y="538.925" transform="matrix(0.9804 0.1971 -0.1971 0.9804 116.9163 -85.5607)" display="none" fill="#89847D" width="7.09" height="11.342"/>
<rect x="471.534" y="551.934" transform="matrix(0.9599 -0.2805 0.2805 0.9599 -136.5925 155.5188)" display="none" fill="#776E62" width="7.089" height="6.145"/>
<path display="none" d="M485.622,634.827c0,0,0,0-0.002,0c-21.445,0-22.896-1.287-23.594-1.906
	c-4.677-4.143-10.885-30.396-10.945-30.662c-0.711-3.022,4.234-81.881,5.23-97.659l0.03-0.48l0.359-0.33
	c1.415-1.292,14.008-12.644,20.464-12.797l77.225-2.983l0.286,0.153c2.026,1.086,19.824,10.739,21.735,15.321
	c1.846,4.422,0.276,104.236,0.094,115.604l-0.008,0.429l-7.101,8.386l-0.375,0.094c-2.144,0.534-21.016,5.232-23.327,5.232
	c-0.272,0-2.019,0.066-4.432,0.161C531.323,633.781,504.912,634.827,485.622,634.827z M458.68,505.239
	c-2.364,37.438-5.696,93.683-5.254,96.501c1.964,8.361,7.051,26.597,10.193,29.382c0.423,0.295,3.313,1.302,22,1.302
	c19.244,0,45.621-1.046,55.55-1.438c2.916-0.114,4.219-0.165,4.525-0.165c1.495,0,14.351-3.068,22.372-5.068l6.042-7.134
	c0.715-44.097,1.319-110.592,0.081-114.229c-1.175-2.807-12.984-9.979-20.36-13.958l-76.589,2.956
	C472.662,493.501,462.627,501.685,458.68,505.239z"/>
<path display="none" fill="#567EAF" d="M470.814,492.892c-4.842-0.389-26.479,6.316-26.479,6.316s-19.201,10.534-18.8,17.545
	c0.397,7.012-10.405,4.803-4.803,12.109c5.604,7.308,0.399,2.671-3.603,3.589c-4.001,0.916-5.203,3.719-4.403,7.32
	c0,0,22.145,2.937,21.678,16.273c-0.465,13.337,24.755,70.549-41.273,38.138c0,0-4.802-4.003-2.801-12.006
	c0,0-2.201-1.85-3.252,0.55c-1.05,2.4-7.2,20.347,33.464,24.159c18.604-1.794,29.062-9.356,32.449-13.597h6.563l2.249-17.741
	l3.495-24.896l1.756-9.954l3.76-27.438C470.814,513.264,476.632,493.36,470.814,492.892z"/>
<path display="none" fill="#426B93" d="M456.744,553.995c0,0,8.159,28.272,3.011,40.376c-5.148,12.104-6.763-1.08-6.763-1.08"/>
<path display="none" fill="#6392C1" d="M420.675,534.073c2.912,0.368,5.837,2.607,8.083,4.445c2.103,1.718,4.647,3.356,6.732,5.264
	c2.194,2.008,5.33,4.232,7.184,6.539c1.285,1.601,1.854,4.36,2.632,6.292c1.504,3.725,1.391,6.77,1.502,10.783
	c0.084,2.986,0.711,5.807,0.604,8.817c-0.09,2.433-1.287,4.744-0.852,7.111c2.972-3.287,4.135-12.498,4.389-16.879
	c0.245-4.25-0.196-7.226-1.475-11.282c-0.883-2.797-0.999-6.442-2.441-8.948c-2.401-4.17-9.099-8.254-13.131-10.564
	c-3.992-2.288-9.981-4.402-14.653-4.001c0.844,0.521,0.886,1.13,1.428,1.821"/>
<path display="none" fill="#6392C1" d="M440.777,501.255c-0.083,2.561,0.203,5.155,0.2,7.735c-0.005,3.169,1.187,5.05,2.354,7.883
	c2.243,5.454,3.593,11.531,3.879,17.396c1.797-2.42,2.09-5.28,2.133-8.198c0.045-3.153-1.723-5.15-3.33-7.739
	c-1.646-2.65-3.939-5.354-3.79-8.501c0.063-1.312,1.146-9.237-1.445-8.375"/>
<path display="none" fill="#567EAF" d="M451.011,595.317c0,0,13.774-22.418,3.398-48.688"/>
<path display="none" fill="#1D1D1B" d="M451.523,595.632l-1.023-0.63c0.136-0.221,13.491-22.479,3.352-48.151l1.116-0.44
	C465.334,572.654,451.662,595.405,451.523,595.632z"/>
<path display="none" fill="none" stroke="#426B93" stroke-width="2" stroke-linecap="round" stroke-linejoin="round" stroke-miterlimit="10" d="
	M459.727,574.498c0,0,1.524-45.406,2.079-47.009c0.555-1.604,9.967-18.124,6.562-21.328"/>
<path display="none" fill="#6392C1" d="M422.108,521.481c0.689,0.021,1.251,0.564,1.919,0.678c0.604,0.104,1.09-0.136,1.679-0.095
	c1.584,0.104,3.329,0.666,4.803,1.232c1.999,0.771,2.925,2.311,4.521,3.679c1.163,1.003,2.41,1.548,3.376,2.757
	c0.744,0.932,1.232,2.033,1.961,2.972c1.208,1.55,3.307,2.673,4.021,4.567c0.224-1.166-0.963-2.771-1.544-3.736
	c-0.964-1.604-1.288-3.187-2.131-4.833c-1.564-3.064-5.304-5.276-8.475-6.416c-1.037-0.377-4.714-0.565-5.301-1.667
	c-0.835-1.563,1.622-1.938,2.409-2.471c1.817-1.227,1.041-2.646,1.766-4.369c0.72-1.716,2.585-2.83,3.965-3.92
	c1.48-1.171,2.88-2.467,3.997-3.987c0.478-0.651,1.022-1.817,1.537-1.964c-2.37-0.004-4.033,0.545-5.971,1.955
	c-1.971,1.438-4.625,2.893-6.064,4.942c-1.339,1.904-2.501,4.437-3.499,6.496C424.249,519.009,423.315,520.021,422.108,521.481"/>
<path display="none" fill="#1D1D1B" d="M411.528,539.786c-0.044-3.666,0.721-6.21,2.339-7.782c1.938-1.882,4.496-1.771,6.188-1.703
	c0.087,0.004,0.183,0.007,0.276,0.014c-3.315-5.203-3.218-6.215,0.847-8.989l0.517-0.354c2.362-1.626,2.632-2.639,2.661-2.848
	l-0.072-0.159l0.032-0.317c1.852-18.638,45.899-25.649,47.773-25.938l0.366,2.376c-0.438,0.067-43.704,6.944-45.728,23.585
	c0.179,0.887-0.043,2.783-3.673,5.282l-0.521,0.358c-1.186,0.812-2.12,1.445-2.16,1.839c-0.067,0.657,1.123,2.525,1.991,3.887
	c0.364,0.574,1.125,1.764,0.536,2.788c-0.565,0.979-1.721,0.934-2.947,0.881c-1.431-0.062-3.213-0.136-4.411,1.026
	c-1.105,1.071-1.646,3.1-1.61,6.028L411.528,539.786z"/>
<linearGradient id="SVGID_35_" gradientUnits="userSpaceOnUse" x1="115.98" y1="-331.0283" x2="164.6157" y2="-331.0283" gradientTransform="matrix(1 0 0 1 274 903)">
	<stop  offset="0" style="stop-color:#FFD8BF"/>
	<stop  offset="1" style="stop-color:#EFA57F"/>
</linearGradient>
<path display="none" fill="url(#SVGID_35_)" d="M412.095,540.331c0,0-14.616,2.053-19.021,7.922
	c-4.406,5.868,1.251,18.136-2.74,33.926c-3.99,15.789,26.852,24.351,40.844,20.529c13.992-3.818,4.188-39.053,2.918-49.659
	C432.827,542.442,412.095,540.331,412.095,540.331z"/>
<path display="none" d="M423.404,604.814c-0.001,0-0.002,0-0.003,0c-10.843,0-25.662-4.237-31.779-12.097
	c-2.603-3.342-3.428-6.985-2.456-10.836c1.972-7.798,1.526-14.841,1.169-20.5c-0.375-5.92-0.67-10.594,1.774-13.853
	c4.652-6.196,19.201-8.306,19.818-8.392l0.145-0.021l0.146,0.017c0.886,0.089,21.704,2.341,23.069,13.771
	c0.225,1.876,0.729,4.59,1.316,7.733c2.776,14.89,7.426,39.809-5.11,43.229C429.192,604.497,426.47,604.814,423.404,604.814z
	 M412.117,541.542c-1.51,0.232-14.254,2.329-18.085,7.435c-1.912,2.549-1.644,6.829-1.298,12.259
	c0.366,5.824,0.825,13.074-1.237,21.237c-0.782,3.095-0.103,6.047,2.021,8.771c5.646,7.254,19.61,11.167,29.883,11.167
	c0.001,0,0.002,0,0.003,0c2.853,0,5.359-0.289,7.455-0.862c10.4-2.84,5.836-27.313,3.382-40.466c-0.596-3.188-1.108-5.94-1.343-7.89
	C431.812,544.098,413.916,541.753,412.117,541.542z"/>
<path display="none" fill="#567EAF" d="M562.239,494.094c0,0,28.384,4.414,31.388,19.355c3.003,14.938,8.409,31.593,6.006,34.383
	c-2.401,2.785-3.603,11.89-0.899,17.099c2.702,5.213,3.604,23.535,3.604,26.841c0,3.307-2.102,16.222-1.801,21.026
	c0.299,4.805,0.899,8.109-0.301,12.314c-1.202,4.207-3.104,29.337-3.104,29.337s-29.701-0.12-33.074-5.668
	c-3.373-5.545,5.036-30.491,5.438-34.041c0.399-3.545,0.291-22.438-0.058-30.212c-0.345-7.777-3.459-29.332-3.459-29.332
	l0.077-26.906"/>
<path display="none" fill="#4C7791" d="M597.131,654.449c0,0,1.902-25.13,3.104-29.337c1.202-4.205,0.6-7.512,0.301-12.314
	c-0.301-4.807,1.801-17.722,1.801-21.026c0-3.306-0.898-21.628-3.604-26.841c-2.702-5.209-1.501-14.312,0.899-17.099
	c2.403-2.79-3.003-19.442-6.006-34.383c-3.004-14.941-31.388-19.355-31.388-19.355l0.667,5.986
	c3.975,0.877,24.499,5.729,25.312,12.168c0.902,7.131,6.31,34.163,4.206,36.267c-2.103,2.104-0.602,8.557-4.505,10.438
	c-3.907,1.882-6.757,1.373-5.632,4.779c1.125,3.407,6.232,0.798,8.936,0c2.703-0.797,5.105-3.896,5.105,1.706
	c0,5.606-3.003,15.221-3.003,15.221s3.304,11.416,3.003,13.519c-0.299,2.104-0.864,5.105,0.02,8.11
	c0.884,3.003,1.222,9.896,0,11.254c-1.221,1.361,0.582,7.368-0.92,8.27c-1.502,0.9-6.007,11.616-5.707,13.021
	c0.303,1.399,3.604,6.875,3.604,6.875l-2.316,12.589C594.631,654.438,597.131,654.449,597.131,654.449z"/>
<path display="none" fill="#1D1D1B" d="M598.245,655.657l-1.12-0.006c-5.073-0.021-30.551-0.421-34.094-6.245
	c-2.573-4.229,0.457-16.564,3.783-28.838c0.748-2.768,1.396-5.156,1.484-5.96c0.389-3.404,0.293-22.074-0.061-30.024
	c-0.337-7.63-3.42-29-3.45-29.218l-0.012-0.174l0.077-26.905l2.402,0.007l-0.078,26.819c0.245,1.708,3.125,21.783,3.459,29.359
	c0.333,7.512,0.479,26.605,0.049,30.401c-0.11,0.989-0.716,3.225-1.556,6.319c-2.046,7.551-6.3,23.26-4.049,26.962
	c2.133,3.504,19.636,4.948,30.935,5.083c0.392-4.992,1.976-24.65,3.062-28.458c0.922-3.229,0.709-5.952,0.438-9.396
	c-0.062-0.798-0.128-1.631-0.182-2.514c-0.188-2.986,0.487-8.714,1.082-13.769c0.371-3.127,0.718-6.081,0.718-7.336
	c0-3.327-0.942-21.42-3.469-26.286c-2.82-5.435-1.776-15.149,1.058-18.439c1.258-1.457-1.156-11.431-3.097-19.442
	c-1.104-4.563-2.249-9.276-3.179-13.915c-2.806-13.943-30.121-18.36-30.396-18.401l0.369-2.377
	c1.192,0.187,29.248,4.724,32.381,20.308c0.922,4.587,2.062,9.28,3.158,13.821c3.053,12.604,4.554,19.294,2.583,21.58
	c-2.096,2.43-3.234,10.968-0.747,15.765c2.952,5.688,3.74,24.991,3.74,27.392c0,1.396-0.339,4.276-0.733,7.616
	c-0.554,4.708-1.244,10.565-1.069,13.336c0.054,0.869,0.118,1.689,0.181,2.478c0.278,3.54,0.516,6.598-0.525,10.245
	c-0.924,3.232-2.405,20.446-3.062,29.098L598.245,655.657z"/>
<linearGradient id="SVGID_36_" gradientUnits="userSpaceOnUse" x1="80.2412" y1="-385.2383" x2="143.1875" y2="-385.2383" gradientTransform="matrix(1 0 0 1 274 903)">
	<stop  offset="0" style="stop-color:#EDEDED"/>
	<stop  offset="1" style="stop-color:#B2B2B2"/>
</linearGradient>
<path display="none" fill="url(#SVGID_36_)" d="M417.188,551.088L390.9,510.23c0,0-31.798-33.313-34.969-32.688
	c0,0-5.989,27.146,4.58,41.018l39.432,39.431L417.188,551.088z"/>
<path display="none" fill="#F6F6F6" d="M400.882,545.914l-27.437-32.65c0,0-14.484-11.129-14.052-33.694
	c-1.718-1.354-2.957-2.126-3.462-2.023c0,0-5.989,27.146,4.58,41.019l34.312,34.312l6.06-0.56L400.882,545.914L400.882,545.914z"/>
<path display="none" d="M399.654,559.401l-40.098-40.113c-10.783-14.146-5.048-40.875-4.797-42.007l0.169-0.77l1.102-0.183
	c3.771,0,26.25,23.128,35.739,33.072l0.142,0.18l27.075,42.079L399.654,559.401z M361.42,517.769l38.812,38.812l15.155-6.065
	l-25.436-39.537c-11.544-12.09-28.447-28.905-33.109-31.821C355.835,484.744,352.69,506.222,361.42,517.769z"/>
<linearGradient id="SVGID_37_" gradientUnits="userSpaceOnUse" x1="556.7373" y1="1050.5332" x2="584.0791" y2="1050.5332" gradientTransform="matrix(0.6573 0.7536 -0.7536 0.6573 831.0469 -573.7462)">
	<stop  offset="0" style="stop-color:#FFD8BF"/>
	<stop  offset="1" style="stop-color:#EFA57F"/>
</linearGradient>
<path display="none" fill="url(#SVGID_37_)" d="M423.281,556.931c-2.804,2.444-7.057,2.155-9.5-0.646l-9.12-10.457
	c-2.444-2.8-2.154-7.055,0.646-9.5l0,0c2.803-2.443,7.057-2.152,9.499,0.647l9.12,10.456
	C426.372,550.234,426.083,554.487,423.281,556.931L423.281,556.931z"/>
<path display="none" d="M418.859,559.793c-2.295,0-4.478-0.993-5.984-2.721l-9.118-10.457c-1.393-1.599-2.081-3.642-1.937-5.754
	c0.145-2.114,1.103-4.046,2.7-5.441c1.444-1.261,3.297-1.954,5.213-1.954c2.293,0,4.474,0.991,5.98,2.72l9.12,10.456
	c2.874,3.3,2.531,8.321-0.765,11.195C422.625,559.098,420.776,559.793,418.859,559.793z M409.733,535.869
	c-1.335,0-2.625,0.484-3.635,1.364c-1.113,0.972-1.781,2.315-1.883,3.793c-0.1,1.472,0.379,2.896,1.353,4.011l9.116,10.456
	c1.053,1.204,2.572,1.896,4.174,1.896c1.335,0,2.625-0.483,3.632-1.361c2.297-2.005,2.537-5.508,0.533-7.809l-9.12-10.454
	C412.854,536.562,411.332,535.869,409.733,535.869z"/>
<linearGradient id="SVGID_38_" gradientUnits="userSpaceOnUse" x1="283.3574" y1="-697.5303" x2="310.3779" y2="-697.5303" gradientTransform="matrix(0.9748 -0.3049 0.3761 1.2024 367.8611 1485.4753)">
	<stop  offset="0" style="stop-color:#FFD8BF"/>
	<stop  offset="1" style="stop-color:#EFA57F"/>
</linearGradient>
<path display="none" fill="url(#SVGID_38_)" d="M408.076,552.13c1.381,4.417-0.401,8.908-3.986,10.03l-13.366,4.181
	c-3.582,1.12-7.605-1.554-8.987-5.972l0,0c-1.381-4.42,0.401-8.906,3.983-10.029l13.366-4.182
	C402.668,545.04,406.692,547.713,408.076,552.13L408.076,552.13z"/>
<path display="none" d="M389.05,567.796c-3.68,0-7.159-2.905-8.461-7.069c-1.577-5.041,0.565-10.216,4.773-11.533l13.366-4.18
	c0.657-0.205,1.343-0.312,2.033-0.312c3.68,0,7.158,2.91,8.46,7.071c1.577,5.045-0.562,10.217-4.771,11.531l-13.365,4.185
	C390.426,567.692,389.742,567.796,389.05,567.796z M400.762,547.104c-0.449,0-0.892,0.071-1.314,0.203l-13.366,4.181
	c-2.944,0.922-4.377,4.748-3.197,8.523c0.992,3.168,3.528,5.382,6.167,5.382c0.45,0,0.893-0.065,1.317-0.197l13.363-4.184
	c2.945-0.918,4.381-4.744,3.198-8.521C405.938,549.318,403.401,547.104,400.762,547.104z"/>
<linearGradient id="SVGID_39_" gradientUnits="userSpaceOnUse" x1="864.5845" y1="-688.373" x2="891.6055" y2="-688.373" gradientTransform="matrix(1.5357 -0.4804 0.3761 1.2024 -682.8279 1813.7585)">
	<stop  offset="0" style="stop-color:#FFD8BF"/>
	<stop  offset="1" style="stop-color:#EFA57F"/>
</linearGradient>
<path display="none" fill="url(#SVGID_39_)" d="M427.515,557.736c1.383,4.415-2.071,9.431-7.719,11.194l-21.058,6.585
	c-5.646,1.766-11.338-0.386-12.722-4.803l0,0c-1.382-4.417,2.073-9.432,7.717-11.199l21.06-6.584
	C420.436,551.167,426.13,553.317,427.515,557.736L427.515,557.736z"/>
<path display="none" d="M394.771,577.337c-4.823,0-8.711-2.459-9.899-6.264c-0.781-2.497-0.292-5.208,1.379-7.633
	c1.61-2.334,4.14-4.139,7.124-5.07l21.06-6.584c1.428-0.447,2.882-0.672,4.324-0.672c4.822,0,8.71,2.456,9.903,6.261
	c1.577,5.044-2.238,10.742-8.507,12.704l-21.059,6.586C397.671,577.109,396.215,577.337,394.771,577.337z M418.759,553.518
	c-1.201,0-2.414,0.188-3.604,0.562l-21.062,6.588c-2.474,0.773-4.556,2.243-5.861,4.14c-1.244,1.804-1.622,3.774-1.066,5.553
	c0.871,2.777,3.854,4.578,7.605,4.578c1.202,0,2.415-0.191,3.608-0.562l21.059-6.588c5.005-1.565,8.113-5.91,6.934-9.69
	C425.496,555.312,422.51,553.518,418.759,553.518z"/>
<linearGradient id="SVGID_40_" gradientUnits="userSpaceOnUse" x1="781.1167" y1="-675.9907" x2="808.1362" y2="-675.9907" gradientTransform="matrix(1.4177 -0.4434 0.3761 1.2024 -461.8203 1745.2173)">
	<stop  offset="0" style="stop-color:#FFD8BF"/>
	<stop  offset="1" style="stop-color:#EFA57F"/>
</linearGradient>
<path display="none" fill="url(#SVGID_40_)" d="M429.635,574.077c1.382,4.418-1.72,9.32-6.933,10.951l-19.438,6.081
	c-5.209,1.628-10.554-0.635-11.935-5.052l0,0c-1.381-4.417,1.721-9.318,6.932-10.95l19.438-6.08
	C422.908,567.398,428.252,569.661,429.635,574.077L429.635,574.077z"/>
<path display="none" d="M399.847,592.838c-4.58,0-8.462-2.579-9.665-6.419c-1.578-5.045,1.888-10.631,7.721-12.456l19.438-6.081
	c1.239-0.39,2.508-0.583,3.777-0.583c4.579,0,8.462,2.579,9.665,6.419c0.773,2.479,0.375,5.154-1.125,7.524
	c-1.461,2.308-3.807,4.061-6.598,4.935l-19.438,6.082C402.384,592.644,401.113,592.838,399.847,592.838z M421.117,569.701
	c-1.024,0-2.055,0.16-3.062,0.474l-19.438,6.082c-4.568,1.428-7.325,5.666-6.146,9.443c0.886,2.832,3.849,4.732,7.372,4.732
	c1.023,0,2.055-0.156,3.06-0.474l19.438-6.081c2.25-0.7,4.127-2.096,5.284-3.925c1.117-1.764,1.423-3.727,0.862-5.521
	C427.604,571.604,424.64,569.701,421.117,569.701z"/>
<linearGradient id="SVGID_41_" gradientUnits="userSpaceOnUse" x1="631.1001" y1="-663.8955" x2="658.1211" y2="-663.8955" gradientTransform="matrix(1.2406 -0.388 0.3761 1.2024 -131.1948 1641.8285)">
	<stop  offset="0" style="stop-color:#FFD8BF"/>
	<stop  offset="1" style="stop-color:#EFA57F"/>
</linearGradient>
<path display="none" fill="url(#SVGID_41_)" d="M435.581,588.212c1.381,4.417-1.194,9.154-5.754,10.58l-17.01,5.32
	c-4.561,1.426-9.375-0.996-10.759-5.418l0,0c-1.381-4.416,1.193-9.154,5.751-10.582l17.015-5.322
	C429.381,581.368,434.196,583.791,435.581,588.212L435.581,588.212z"/>
<path display="none" d="M410.159,605.725c-4.282,0-7.998-2.68-9.245-6.67c-1.577-5.045,1.354-10.465,6.539-12.089l17.012-5.318
	c0.982-0.308,1.997-0.465,3.017-0.465c4.28,0,7.997,2.682,9.247,6.671c1.577,5.044-1.356,10.466-6.541,12.09l-17.01,5.315
	C412.194,605.567,411.178,605.725,410.159,605.725z M427.48,583.586c-0.775,0-1.55,0.117-2.3,0.354l-17.011,5.319
	c-3.918,1.226-6.146,5.297-4.965,9.075c0.934,2.979,3.728,4.985,6.953,4.985c0.775,0,1.55-0.121,2.3-0.354l17.009-5.319
	c3.92-1.229,6.149-5.299,4.968-9.075C433.5,585.588,430.706,583.586,427.48,583.586z"/>
<path display="none" fill="#992533" d="M520.616,493.128c4.932,2.514,15.593,8.029,14.959,8.378
	c-0.824,0.449-3.835,11.961-9.985,13.215c-1.841,0.378-3.217,1.142-4.177,2.045l7.945,3.155l9.212-23.166l-7.769-3.089l-9.851-1.384
	L520.616,493.128z"/>
<polygon display="none" fill="#C1272D" points="537.156,519.921 551.243,513.264 543.495,490.095 529.409,496.755 "/>
<path display="none" fill="#E03845" d="M544.509,493.128c-4.146,2.514-13.114,8.029-12.581,8.378
	c0.692,0.449,3.228,11.961,8.398,13.215c1.548,0.378,2.705,1.142,3.512,2.045l-6.683,3.155l-7.747-23.166l6.531-3.089l8.286-1.384
	L544.509,493.128z"/>
<polygon display="none" fill="#992533" points="537.156,519.921 551.243,513.264 552.124,515.896 552.107,515.905 554.109,522.53 
	553.157,522.938 551.168,516.35 550.139,516.835 552.124,523.404 551.173,523.811 549.2,517.279 548.122,517.79 550.166,524.556 
	549.216,524.962 547.181,518.234 545.885,518.847 547.913,525.557 546.963,525.965 544.945,519.291 543.59,519.934 545.576,526.509 
	544.626,526.915 542.648,520.378 541.556,520.894 543.557,527.51 542.604,527.916 540.616,521.338 539.011,522.098 540.966,528.566 
	540.016,528.973 538.071,522.542 538.04,522.557 "/>
<polygon display="none" fill="#992533" points="529.357,519.921 512.609,513.264 511.562,515.896 511.58,515.905 509.201,522.53 
	510.33,522.938 512.697,516.35 513.922,516.835 511.562,523.404 512.692,523.811 515.038,517.279 516.32,517.79 513.888,524.556 
	515.02,524.962 517.438,518.234 518.979,518.847 516.568,525.557 517.698,525.965 520.098,519.291 521.709,519.934 519.346,526.509 
	520.479,526.915 522.828,520.378 524.128,520.894 521.749,527.51 522.88,527.916 525.245,521.338 527.154,522.098 524.829,528.566 
	525.959,528.973 528.271,522.542 528.309,522.557 "/>
<path display="none" fill="#C1272D" d="M474.575,503.67c0,0-5.606-15.307-2.403-16.709c3.203-1.398,3.759-3.003,5.083-4.604
	s75.571-11.216,76.295-8.012c0.728,3.205,2.328,12.72,2.328,12.72s2.003,2.599,2.604,5.554c0.6,2.957,1.802,5.42-1.805,5.991
	c-3.604,0.568-57.271-3.155-64.081,0.908C485.789,503.584,475.689,506.988,474.575,503.67z"/>
<path display="none" fill="#992533" d="M556.68,498.608c3.604-0.571,2.403-3.034,1.804-5.991c-0.602-2.955-2.604-5.554-2.604-5.554
	s-1.604-9.515-2.328-12.72c-0.724-3.204-74.971,6.411-76.295,8.012c-0.021,0.024-0.04,0.054-0.061,0.078
	c15.727-1.529,72.326-6.906,73.878-5.012c1.803,2.203-5.005,5.609-7.709,6.407c-2.704,0.804,1.1,6.237,4.305,4.319l3.703,0.404
	v2.085c0,0-0.699,2.604-1.701,3.204c-1.001,0.604-1.802,2.202-1.2,3.004c0.273,0.365,0.429,1.021,0.906,1.687
	C553.273,498.663,555.965,498.723,556.68,498.608z"/>
<path display="none" fill="#E03845" d="M508.009,497.653c-4.872-0.686-11.29-1.35-14.41-0.653
	c-5.406,1.202-15.47,10.362-17.57,4.805c-1.569-4.145-3.223-10.968-3.459-15.038c-0.137,0.065-0.25,0.134-0.396,0.194
	c-3.203,1.402,2.403,16.709,2.403,16.709c1.116,3.318,11.214-0.086,18.022-4.151C494.574,498.34,500.504,497.815,508.009,497.653z"
	/>
<path display="none" fill="#992533" d="M537.7,482.83l-58.812,10.015C478.89,492.845,532.035,489.041,537.7,482.83z"/>
<rect x="516.551" y="492.553" transform="matrix(0.9293 0.3694 -0.3694 0.9293 223.7205 -158.4202)" display="none" fill="#C1272D" width="18.025" height="24.933"/>
<linearGradient id="SVGID_42_" gradientUnits="userSpaceOnUse" x1="-61.9907" y1="332.4922" x2="-61.9908" y2="155.2555" gradientTransform="matrix(1 0 0 -1 518 1023.5605)">
	<stop  offset="0" style="stop-color:#5E3F2F"/>
	<stop  offset="0.6442" style="stop-color:#4F3529"/>
	<stop  offset="0.9387" style="stop-color:#4F3529"/>
</linearGradient>
<rect x="112.759" y="642.596" display="none" fill="url(#SVGID_42_)" stroke="#3D251A" stroke-width="3" stroke-miterlimit="10" width="686.5" height="251.781"/>
<linearGradient id="SVGID_43_" gradientUnits="userSpaceOnUse" x1="180.0098" y1="-211.0479" x2="181.0229" y2="-164.4615" gradientTransform="matrix(1 0 0 1 274 903)">
	<stop  offset="0" style="stop-color:#442D23"/>
	<stop  offset="1" style="stop-color:#35231C"/>
</linearGradient>
<rect x="122.328" y="649.874" display="none" fill="url(#SVGID_43_)" stroke="#2D1F1A" stroke-width="2" stroke-miterlimit="10" width="664.948" height="157.022"/>
<rect x="112.759" y="611.943" display="none" fill="#3D251A" stroke="#3D251A" stroke-width="3" stroke-miterlimit="10" width="699.419" height="30.652"/>
<polygon display="none" opacity="0.33" fill="#3D251A" enable-background="new    " points="787.276,786.669 787.276,884.601 
	123.09,884.601 "/>
<rect x="112.759" y="611.943" display="none" opacity="0.43" fill="#684536" enable-background="new    " width="699.419" height="4.587"/>
<linearGradient id="SVGID_44_" gradientUnits="userSpaceOnUse" x1="181.1836" y1="-253.1255" x2="181.1836" y2="-224.2724" gradientTransform="matrix(1 0 0 1 274 903)">
	<stop  offset="0" style="stop-color:#442D23"/>
	<stop  offset="1" style="stop-color:#35231C"/>
</linearGradient>
<polygon display="none" fill="url(#SVGID_44_)" points="123.091,649.874 157.828,679.43 787.276,679.43 787.276,649.874 "/>
<linearGradient id="SVGID_45_" gradientUnits="userSpaceOnUse" x1="-148.0459" y1="-175.0029" x2="-103.6812" y2="-175.0029" gradientTransform="matrix(1 0 0 1 274 903)">
	<stop  offset="0" style="stop-color:#442D23"/>
	<stop  offset="1" style="stop-color:#35231C"/>
</linearGradient>
<polygon display="none" fill="url(#SVGID_45_)" points="125.954,649.874 170.319,679.43 170.319,806.12 125.954,806.12 "/>
<line display="none" fill="none" stroke="#301D15" stroke-miterlimit="10" x1="125.954" y1="649.874" x2="170.319" y2="679.43"/>
<line display="none" fill="none" stroke="#301D15" stroke-miterlimit="10" x1="157.828" y1="679.43" x2="787.276" y2="679.43"/>
<line display="none" fill="none" stroke="#301D15" stroke-miterlimit="10" x1="170.319" y1="679.43" x2="170.319" y2="806.12"/>
<polygon display="none" fill="#38221C" points="539.995,652.33 440.898,652.33 447.612,657.473 533.242,657.473 "/>
<rect x="449.956" y="653.946" display="none" fill="#333333" stroke="#2D2928" stroke-width="0.5" stroke-miterlimit="10" width="79.509" height="9.049"/>
<rect x="450.383" y="654.234" display="none" opacity="0.41" fill="#3F3F3F" enable-background="new    " width="28.629" height="8.155"/>
<path display="none" fill="#303030" d="M450.383,662.607h4.522c-0.252-0.178-0.553-0.35-0.572-0.654
	c-0.529-0.047-1.074-0.013-1.59,0.096c0.061-0.015,0.128-0.03,0.185-0.043c-0.541-0.033-1.181,0.122-1.688-0.113
	c0.374,0.011,1.041,0.174,1.358,0.007c0.037-0.02,0.428-0.514,0.496-0.6c-0.045-0.019-0.114-0.082-0.188-0.1
	c0.102-0.246,0.489-0.179,0.558-0.551c0.078-0.415-0.303-0.568-0.633-0.643c0.188-0.31,0.68-0.31,0.905-0.604
	c-0.213-0.262-0.562-0.274-0.878-0.252c0.131-0.15,0.088-0.271,0.11-0.435c-0.516-0.034-1.159,0.183-1.641-0.022
	c0.028-0.052,0.037-0.138,0.058-0.181c-0.123,0.021-0.259-0.069-0.376-0.066c0.036-0.219-0.061-0.416-0.269-0.485
	c0.258-0.208,0.377-0.222,0.538-0.496c0.061-0.102,0.062-0.335,0.112-0.463c0.057-0.136,0.21-0.273,0.285-0.384
	c-0.544-0.104,0.163-0.572-0.39-0.611c0.161-0.19,0.209-0.396-0.046-0.452c0.154-0.298-0.164-0.433-0.403-0.486
	c0.22-0.188,0.633-0.072,0.845-0.347c-0.158-0.008-0.322-0.011-0.483-0.004c0.219,0.011,0.399-0.12,0.454-0.342
	c-0.049-0.056-0.125-0.098-0.196-0.142h-1.074L450.383,662.607L450.383,662.607L450.383,662.607z"/>
<path display="none" fill="#7C0000" d="M502.639,666.066h-25.855v11.147h0.045c-0.004,0.138-0.045,0.267-0.045,0.404
	c0,6.382,5.792,11.556,12.929,11.556S502.64,684,502.64,677.618c0-0.141-0.04-0.269-0.046-0.404h0.046L502.639,666.066
	L502.639,666.066z"/>
<circle display="none" fill="#2D2928" stroke="#444141" stroke-width="0.25" stroke-miterlimit="10" cx="452.516" cy="660.329" r="0.781"/>
<circle display="none" fill="#2D2928" stroke="#474343" stroke-width="0.25" stroke-miterlimit="10" cx="452.516" cy="655.885" r="0.781"/>
<circle display="none" fill="#2D2928" stroke="#3D3938" stroke-width="0.25" stroke-miterlimit="10" cx="526.664" cy="660.329" r="0.781"/>
<circle display="none" fill="#2D2928" stroke="#3D3938" stroke-width="0.25" stroke-miterlimit="10" cx="526.664" cy="655.885" r="0.781"/>
<polyline display="none" fill="#333333" points="449.956,662.995 462.561,672.046 515.891,672.046 529.465,662.995 449.956,662.995 
	"/>
<polygon display="none" opacity="0.41" fill="#3F3F3F" enable-background="new    " points="483.038,668.646 479.205,663.302 
	451.192,663.302 462.852,672.046 499.479,671.464 "/>
<path display="none" fill="#2D2928" d="M516.01,672.435h-53.571l-13.688-9.825h82L516.01,672.435z M462.686,671.657h53.086
	l12.411-8.273h-77.019L462.686,671.657z"/>
<rect x="454.264" y="661.702" display="none" fill="#605958" width="70.354" height="0.688"/>
<path display="none" opacity="0.53" fill="#681313" enable-background="new    " d="M482.508,683.351c0,0,3.823-10.201,9.977-10.46
	c6.152-0.259-14.312,0-14.312,0S477.456,681.051,482.508,683.351z"/>
<path display="none" fill="#8E1B16" d="M489.292,689.157c-2.946-1.925-8.664-6.521-9.729-9.146
	c-1.066-2.623-0.681-7.554-0.681-7.554l-2.1,0.041v4.716h0.045c-0.004,0.138-0.045,0.267-0.045,0.404
	C476.782,683.875,482.352,688.957,489.292,689.157z"/>
<linearGradient id="SVGID_46_" gradientUnits="userSpaceOnUse" x1="3484.4756" y1="605.4414" x2="3484.4756" y2="620.4571" gradientTransform="matrix(-1 0 0 -1 3973.8184 1293.3105)">
	<stop  offset="0" style="stop-color:#FFFFFF"/>
	<stop  offset="0.0185" style="stop-color:#F5F5F5;stop-opacity:0.9815"/>
	<stop  offset="0.1204" style="stop-color:#C3C3C2;stop-opacity:0.8796"/>
	<stop  offset="0.2271" style="stop-color:#969696;stop-opacity:0.7729"/>
	<stop  offset="0.3368" style="stop-color:#717170;stop-opacity:0.6632"/>
	<stop  offset="0.4501" style="stop-color:#535351;stop-opacity:0.5499"/>
	<stop  offset="0.5683" style="stop-color:#3B3B39;stop-opacity:0.4317"/>
	<stop  offset="0.6933" style="stop-color:#2A2A28;stop-opacity:0.3067"/>
	<stop  offset="0.8299" style="stop-color:#20201E;stop-opacity:0.1701"/>
	<stop  offset="1" style="stop-color:#1D1D1B;stop-opacity:0"/>
</linearGradient>
<path display="none" opacity="0.75" fill="url(#SVGID_46_)" enable-background="new    " d="M499.479,683.963
	c0,0-9.133,10.881-20.272-1.101"/>
<linearGradient id="SVGID_47_" gradientUnits="userSpaceOnUse" x1="219.8389" y1="-222.1489" x2="223.5293" y2="-213.9426" gradientTransform="matrix(1 0 0 1 274 903)">
	<stop  offset="0" style="stop-color:#FFFFFF"/>
	<stop  offset="0.0185" style="stop-color:#F5F5F5;stop-opacity:0.9815"/>
	<stop  offset="0.1204" style="stop-color:#C3C3C2;stop-opacity:0.8796"/>
	<stop  offset="0.2271" style="stop-color:#969696;stop-opacity:0.7729"/>
	<stop  offset="0.3368" style="stop-color:#717170;stop-opacity:0.6632"/>
	<stop  offset="0.4501" style="stop-color:#535351;stop-opacity:0.5499"/>
	<stop  offset="0.5683" style="stop-color:#3B3B39;stop-opacity:0.4317"/>
	<stop  offset="0.6933" style="stop-color:#2A2A28;stop-opacity:0.3067"/>
	<stop  offset="0.8299" style="stop-color:#20201E;stop-opacity:0.1701"/>
	<stop  offset="1" style="stop-color:#1D1D1B;stop-opacity:0"/>
</linearGradient>
<circle display="none" opacity="0.4" fill="url(#SVGID_47_)" enable-background="new    " cx="494.912" cy="683.237" r="2.429"/>
<linearGradient id="SVGID_48_" gradientUnits="userSpaceOnUse" x1="224.1353" y1="-221.8291" x2="225.9064" y2="-217.8904" gradientTransform="matrix(1 0 0 1 274 903)">
	<stop  offset="0" style="stop-color:#FFFFFF"/>
	<stop  offset="0.0185" style="stop-color:#F5F5F5;stop-opacity:0.9815"/>
	<stop  offset="0.1204" style="stop-color:#C3C3C2;stop-opacity:0.8796"/>
	<stop  offset="0.2271" style="stop-color:#969696;stop-opacity:0.7729"/>
	<stop  offset="0.3368" style="stop-color:#717170;stop-opacity:0.6632"/>
	<stop  offset="0.4501" style="stop-color:#535351;stop-opacity:0.5499"/>
	<stop  offset="0.5683" style="stop-color:#3B3B39;stop-opacity:0.4317"/>
	<stop  offset="0.6933" style="stop-color:#2A2A28;stop-opacity:0.3067"/>
	<stop  offset="0.8299" style="stop-color:#20201E;stop-opacity:0.1701"/>
	<stop  offset="1" style="stop-color:#1D1D1B;stop-opacity:0"/>
</linearGradient>
<circle display="none" opacity="0.4" fill="url(#SVGID_48_)" enable-background="new    " cx="498.65" cy="682.316" r="1.166"/>
<linearGradient id="SVGID_49_" gradientUnits="userSpaceOnUse" x1="218.4658" y1="-217.2983" x2="219.7947" y2="-214.3434" gradientTransform="matrix(1 0 0 1 274 903)">
	<stop  offset="0" style="stop-color:#FFFFFF"/>
	<stop  offset="0.0185" style="stop-color:#F5F5F5;stop-opacity:0.9815"/>
	<stop  offset="0.1204" style="stop-color:#C3C3C2;stop-opacity:0.8796"/>
	<stop  offset="0.2271" style="stop-color:#969696;stop-opacity:0.7729"/>
	<stop  offset="0.3368" style="stop-color:#717170;stop-opacity:0.6632"/>
	<stop  offset="0.4501" style="stop-color:#535351;stop-opacity:0.5499"/>
	<stop  offset="0.5683" style="stop-color:#3B3B39;stop-opacity:0.4317"/>
	<stop  offset="0.6933" style="stop-color:#2A2A28;stop-opacity:0.3067"/>
	<stop  offset="0.8299" style="stop-color:#20201E;stop-opacity:0.1701"/>
	<stop  offset="1" style="stop-color:#1D1D1B;stop-opacity:0"/>
</linearGradient>
<circle display="none" opacity="0.4" fill="url(#SVGID_49_)" enable-background="new    " cx="492.852" cy="686.56" r="0.874"/>
<linearGradient id="SVGID_50_" gradientUnits="userSpaceOnUse" x1="220.5049" y1="-218.0244" x2="221.8333" y2="-215.0705" gradientTransform="matrix(1 0 0 1 274 903)">
	<stop  offset="0" style="stop-color:#FFFFFF"/>
	<stop  offset="0.0185" style="stop-color:#F5F5F5;stop-opacity:0.9815"/>
	<stop  offset="0.1204" style="stop-color:#C3C3C2;stop-opacity:0.8796"/>
	<stop  offset="0.2271" style="stop-color:#969696;stop-opacity:0.7729"/>
	<stop  offset="0.3368" style="stop-color:#717170;stop-opacity:0.6632"/>
	<stop  offset="0.4501" style="stop-color:#535351;stop-opacity:0.5499"/>
	<stop  offset="0.5683" style="stop-color:#3B3B39;stop-opacity:0.4317"/>
	<stop  offset="0.6933" style="stop-color:#2A2A28;stop-opacity:0.3067"/>
	<stop  offset="0.8299" style="stop-color:#20201E;stop-opacity:0.1701"/>
	<stop  offset="1" style="stop-color:#1D1D1B;stop-opacity:0"/>
</linearGradient>
<circle display="none" opacity="0.4" fill="url(#SVGID_50_)" enable-background="new    " cx="494.891" cy="685.833" r="0.875"/>
<path display="none" opacity="0.7" fill="#660000" enable-background="new    " d="M479.416,672.774c0,0,22.113,0.729,20.61,5.344
	s2.867-3.255,2.141-5.344H479.416z"/>
<path display="none" fill="none" stroke="#303030" stroke-width="0.5" stroke-miterlimit="10" d="M454.724,658.574
	c10.25,0.035,20.556,0.146,30.816-0.124c5.921-0.156,11.722-0.809,17.655-0.416c7.059,0.463,14.165-0.193,21.221,0.41"/>
<path display="none" fill="none" stroke="#303030" stroke-width="0.5" stroke-miterlimit="10" d="M503.172,659.998
	c6.249-0.415,12.59,0.496,18.783-0.128"/>
<path display="none" fill="none" stroke="#303030" stroke-width="0.5" stroke-miterlimit="10" d="M453.816,656.242
	c14.392,0,29.008,0.656,43.38-0.323c8.386-0.572,17.02-0.588,25.404-0.583"/>
<path display="none" fill="none" stroke="#303030" stroke-width="0.5" stroke-miterlimit="10" d="M499.674,659.87
	c-0.945,0.503-2.209,0.409-3.208,0.455c-5.095,0.23-10.189,0.188-15.289,0.189c-3.539,0.001-7.075,0-10.614,0
	c-1.829,0-3.657,0.178-5.478,0.132"/>
<path display="none" fill="none" stroke="#303030" stroke-width="0.5" stroke-miterlimit="10" d="M434.957,657.149
	c3.201,1.177,7.834,0.389,11.269,0.389"/>
<path display="none" fill="none" stroke="#303030" stroke-width="0.5" stroke-miterlimit="10" d="M445.709,655.336
	c11.349,0.297,22.637-1.038,33.938-1.038"/>
<path display="none" fill="none" stroke="#303030" stroke-width="0.5" stroke-miterlimit="10" d="M478.742,656.89
	c4.055-0.05,8.117,0.13,12.176,0.13"/>
<polygon display="none" fill="#3D7C32" stroke="#34682A" stroke-width="2" stroke-miterlimit="10" points="173.656,531.838 
	209.115,502.463 165.605,502.463 187.47,471.543 162.121,471.543 175.276,440.62 138.44,440.62 151.596,471.543 126.246,471.543 
	148.112,502.463 104.6,502.463 140.061,531.838 93.777,531.838 156.858,575.126 219.938,531.838 "/>
<polygon display="none" fill="#3D7C32" points="168.319,408.156 156.858,451.444 145.397,408.156 "/>
<path display="none" fill="#5E3F2F" stroke="#442D23" stroke-width="2" stroke-miterlimit="10" d="M156.858,611.387
	c21.394,0,38.737-17.343,38.737-38.735H118.12C118.12,594.043,135.464,611.387,156.858,611.387z"/>
<rect x="109.104" y="565.171" display="none" fill="#5E3F2F" stroke="#442D23" stroke-width="2" stroke-miterlimit="10" width="95.508" height="8.717"/>
<path display="none" fill="#4C3227" d="M156.858,611.387c6.755,0,13.107-1.731,18.636-4.771
	c-24.505-6.34-31.326-33.965-31.326-33.965H118.12C118.12,594.043,135.464,611.387,156.858,611.387z"/>
<polygon display="none" fill="#36682C" points="109.104,533.172 140.161,558.491 123.129,533.172 "/>
<polygon display="none" fill="#36682C" points="118.12,503.855 143.785,529.172 129.711,503.855 "/>
<polygon display="none" fill="#36682C" points="131.279,472.864 154.957,498.184 141.972,472.864 "/>
<polygon display="none" fill="#36682C" points="143.117,441.971 156.052,467.288 148.958,441.971 "/>
<polygon display="none" fill="#36682C" points="146.957,408.156 154.65,433.472 150.433,408.156 "/>
<polygon display="none" fill="#47893A" points="205.163,533.172 174.106,558.491 191.137,533.172 "/>
<polygon display="none" fill="#47893A" points="196.146,503.855 170.481,529.172 184.556,503.855 "/>
<polygon display="none" fill="#47893A" points="182.989,472.864 159.311,498.184 172.295,472.864 "/>
<polygon display="none" fill="#47893A" points="171.15,441.971 158.215,467.288 165.309,441.971 "/>
<polygon display="none" fill="#47893A" points="167.31,408.156 159.617,433.472 163.834,408.156 "/>
<path display="none" fill="#4C3227" d="M202.871,575.126c0.06-0.82,0.1-1.644,0.1-2.477H144.7l-4.54,2.477H202.871z"/>
<polygon display="none" fill="#6D4838" points="184.075,578.027 190.252,578.027 178.899,593.223 "/>
<circle display="none" fill="#36682C" cx="167.878" cy="556.822" r="2.338"/>
<circle display="none" fill="#36682C" cx="175.667" cy="547.246" r="1.562"/>
<circle display="none" fill="#36682C" cx="159.044" cy="547.32" r="1.487"/>
<circle display="none" fill="#36682C" cx="166.709" cy="519.588" r="1.169"/>
<circle display="none" fill="#36682C" cx="173.617" cy="512.026" r="2.051"/>
<circle display="none" fill="#36682C" cx="163.036" cy="507.471" r="2.505"/>
<circle display="none" fill="#36682C" cx="158.777" cy="483.604" r="1.918"/>
<circle display="none" fill="#36682C" cx="166.755" cy="474.937" r="2.073"/>
<circle display="none" fill="#36682C" cx="159.948" cy="448.355" r="3.089"/>
<circle display="none" fill="#36682C" cx="159.126" cy="411.123" r="1.569"/>
<circle display="none" fill="#36682C" cx="160.4" cy="419.191" r="1.623"/>
<circle display="none" fill="#47893A" cx="165.541" cy="514.077" r="1.224"/>
<circle display="none" fill="#47893A" cx="160.697" cy="477.677" r="1.224"/>
<circle display="none" fill="#47893A" cx="158.215" cy="455.86" r="1.223"/>
<circle display="none" fill="#47893A" cx="152.028" cy="444.043" r="1.225"/>
<circle display="none" fill="#47893A" cx="172.374" cy="519.588" r="1.224"/>
<circle display="none" fill="#47893A" cx="167.878" cy="547.32" r="1.224"/>
<circle display="none" fill="#47893A" cx="159.044" cy="554.484" r="1.224"/>
<circle display="none" fill="#47893A" cx="179.161" cy="541.6" r="0.993"/>
<linearGradient id="SVGID_51_" gradientUnits="userSpaceOnUse" x1="1219.8125" y1="-572.3525" x2="1219.8125" y2="105.0078" gradientTransform="matrix(1 0 0 1 274 903)">
	<stop  offset="0" style="stop-color:#E5E5E5"/>
	<stop  offset="1" style="stop-color:#AFAFAF"/>
</linearGradient>
<rect x="1344.436" y="3.227" fill="url(#SVGID_51_)" stroke="#B5B4B4" stroke-width="4" stroke-miterlimit="10" width="298.755" height="997.396"/>
<polygon fill="#CCC9C8" points="1364.997,984.812 1626.349,380.572 1626.349,982.753 "/>
<polygon fill="#C4C4C4" points="1312.216,19.29 1340.326,3.227 1340.326,1002.319 1311.464,986.919 "/>
<path fill="#B5B4B4" d="M1343.538,1004.328l-34.533-19.734V19.734L1343.538,0V1004.328z M1315.428,980.864l21.687,12.393V11.072
	l-21.687,12.392V980.864z"/>
<rect x="1387.751" y="275.823" fill="#A48A7B" stroke="#826D63" stroke-width="2" stroke-miterlimit="10" width="212.121" height="334.879"/>
<polygon fill="#B29586" points="1432.351,595.731 1546.351,595.53 1583.351,438.948 1401.163,438.948 "/>
<path fill="#BFA450" d="M1535.947,392.29c-0.062,10.285-8.449,18.573-18.735,18.513c-10.285-0.061-18.574-8.45-18.512-18.735
	c0.061-10.285,8.449-18.574,18.733-18.513C1527.722,373.616,1536.008,382.005,1535.947,392.29"/>
<rect x="1471.931" y="510.931" transform="matrix(-1 -0.006 0.006 -1 2946.502 1110.1165)" fill="#E9E0D6" width="5.989" height="79.366"/>
<rect x="1505.658" y="511.041" transform="matrix(-1 -0.006 0.006 -1 3013.9558 1110.5377)" fill="#E9E0D6" width="5.989" height="79.365"/>
<rect x="1460.43" y="433.155" transform="matrix(-1 -0.006 0.006 -1 2983.1401 953.1215)" fill="#666666" width="65.138" height="77.868"/>
<path fill="#E9E0D6" d="M1525.999,396.907c-0.106,17.627-14.771,31.83-32.76,31.722c-17.986-0.106-32.482-14.484-32.377-32.111
	c0.104-17.626,14.771-31.83,32.76-31.723C1511.608,364.903,1526.104,379.279,1525.999,396.907"/>
<rect x="1460.776" y="396.457" transform="matrix(-1 -0.006 0.006 -1 2984.1753 838.5494)" fill="#E9E0D6" width="65.138" height="36.688"/>
<rect x="1460.2" y="504.328" transform="matrix(-1 -0.006 0.006 -1 2982.46 1024.3555)" fill="#CCCCCC" width="65.14" height="6.735"/>
<polygon fill="#4D4D4D" points="1504.068,433.186 1512.4,448.709 1502.37,451.755 1512.368,453.95 1492.489,491.526 
	1492.839,433.119 "/>
<polygon fill="#4D4D4D" points="1481.734,433.053 1472.906,448.473 1483.211,451.64 1472.874,453.713 1492.489,491.526 
	1492.839,433.119 "/>
<path fill="#CCCCCC" d="M1481.982,433.055c-0.148,24.955,10.507,58.473,10.507,58.473l0.35-58.407L1481.982,433.055z"/>
<path fill="#CCCCCC" d="M1504.068,433.186c-0.147,24.956-11.579,58.342-11.579,58.342l0.35-58.407L1504.068,433.186z"/>
<path fill="#363943" d="M1480.98,584.707c-1.45-6.268-3.683-10.922-6.245-10.938l-0.221-0.002
	c-3.786,1.335-7.006,9.457-8.061,21.666l14.462,0.085l1.619,0.012C1482.245,591.457,1481.709,587.673,1480.98,584.707"/>
<path fill="#363943" d="M1514.673,584.908c-1.452-6.268-3.683-10.921-6.247-10.938l-0.219-0.001
	c-3.787,1.334-7.007,9.457-8.062,21.664l14.464,0.087l1.618,0.011C1515.936,591.658,1515.399,587.874,1514.673,584.908"/>
<path fill="#E9E0D6" d="M1525.035,432.85c-0.033,5.575-14.475,10.008-32.253,9.901c-17.781-0.107-32.168-4.712-32.136-10.287
	c0.033-5.574,14.476-10.006,32.256-9.899C1510.682,422.671,1525.068,427.275,1525.035,432.85"/>
<rect x="1460.657" y="433.156" transform="matrix(-1 -0.006 0.006 -1 2983.8135 877.5258)" fill="#FBB03B" width="65.138" height="2.245"/>
<path fill="#FBB03B" d="M1496.229,438.969c-0.013,1.84-1.514,3.325-3.354,3.314c-1.841-0.01-3.325-1.514-3.313-3.354
	c0.013-1.841,1.514-3.326,3.354-3.313C1494.755,435.625,1496.238,437.127,1496.229,438.969"/>
<path fill="#E9E0D6" d="M1503.591,387.908c-6.312-8.22-30.99,1.998-42.692,7.492c-0.016,0.372-0.033,0.742-0.035,1.118
	c-0.105,17.627,14.391,32.005,32.377,32.112c17.751,0.105,32.257-13.727,32.738-31.03
	C1518.795,396.812,1508.666,394.514,1503.591,387.908"/>
<path fill="#FFDA6A" d="M1493.621,364.794c-17.604-0.104-32.02,13.499-32.725,30.604c11.703-5.493,36.382-15.711,42.693-7.49
	c5.075,6.606,15.204,8.904,22.389,9.69c0.005-0.23,0.019-0.46,0.021-0.693C1526.104,379.279,1511.608,364.903,1493.621,364.794"/>
<polyline fill="none" stroke="#666666" stroke-width="10" stroke-miterlimit="10" points="1522.001,439.462 1533.824,464.901 
	1534.811,495.729 "/>
<polygon fill="#666666" points="1525.314,511.18 1460.18,510.79 1456.194,551.197 1457.88,551.207 1460.009,539.489 
	1461.996,551.232 1528.817,551.632 "/>
<path fill="#F2F2F2" d="M1514.146,408.621c-0.026,4.28-2.957,7.731-6.547,7.711c-3.591-0.022-6.479-3.509-6.453-7.789
	c0.024-4.279,2.955-7.732,6.547-7.71C1511.282,400.855,1514.17,404.342,1514.146,408.621"/>
<path fill="#00A1BF" d="M1511.857,410.738c-0.014,2.033-1.404,3.673-3.109,3.663c-1.705-0.012-3.078-1.667-3.066-3.699
	c0.015-2.033,1.405-3.673,3.11-3.662C1510.498,407.05,1511.87,408.706,1511.857,410.738"/>
<path fill="#F2F2F2" d="M1508.621,408.395c-0.007,1.178-0.812,2.127-1.8,2.121c-0.988-0.006-1.781-0.965-1.774-2.142
	c0.008-1.177,0.812-2.126,1.799-2.121C1507.834,406.259,1508.629,407.218,1508.621,408.395"/>
<path fill="#F2F2F2" d="M1484.945,408.447c-0.025,4.277-2.955,7.73-6.545,7.71c-3.592-0.021-6.479-3.509-6.454-7.788
	c0.024-4.28,2.957-7.732,6.547-7.71C1482.083,400.68,1484.971,404.167,1484.945,408.447"/>
<path fill="#00A1BF" d="M1482.658,410.564c-0.012,2.031-1.403,3.672-3.108,3.662c-1.706-0.01-3.078-1.667-3.064-3.698
	c0.011-2.033,1.402-3.672,3.108-3.662C1481.299,406.875,1482.67,408.531,1482.658,410.564"/>
<path fill="#F2F2F2" d="M1479.422,408.219c-0.006,1.178-0.812,2.126-1.801,2.122c-0.986-0.006-1.78-0.965-1.773-2.142
	c0.008-1.177,0.813-2.127,1.801-2.121S1479.429,407.043,1479.422,408.219"/>
<line fill="none" stroke="#000000" stroke-miterlimit="10" x1="1484.65" y1="425.209" x2="1499.624" y2="425.297"/>
<line fill="none" stroke="#FBB03B" stroke-width="3" stroke-miterlimit="10" x1="1531.085" y1="490.468" x2="1538.672" y2="490.36"/>
<polygon fill="#B04733" points="1540.972,522.505 1531.089,522.445 1528.243,522.429 1528.414,493.978 1541.142,494.055 "/>
<g>
	<defs>
		
			<rect id="SVGID_2_" x="1530.29" y="498.521" transform="matrix(1 0.0055 -0.0055 1 2.8254 -8.4023)" width="3.38" height="23.906"/>
	</defs>
	<clipPath id="SVGID_52_">
		<use xlink:href="#SVGID_2_"  overflow="visible"/>
	</clipPath>
	<polygon clip-path="url(#SVGID_52_)" points="1533.198,498.551 1533.615,522.459 1530.235,522.44 	"/>
</g>
<g>
	<defs>
		
			<rect id="SVGID_1_" x="1534.397" y="498.553" transform="matrix(1 0.0061 -0.0061 1 3.1393 -9.3547)" width="4.648" height="23.909"/>
	</defs>
	<clipPath id="SVGID_53_">
		<use xlink:href="#SVGID_1_"  overflow="visible"/>
	</clipPath>
	<polygon clip-path="url(#SVGID_53_)" points="1534.495,498.558 1535.945,522.474 1538.999,522.493 	"/>
</g>
<rect x="1492.418" y="416.245" transform="matrix(-0.7304 0.683 -0.683 -0.7304 2906.4419 -208.1132)" fill="#B04733" width="3.745" height="106.525"/>
<path fill="#E9E0D6" d="M1540.336,501.938c-0.216,5.076-2.779,8.671-5.724,8.029c-2.948-0.64-5.162-5.273-4.948-10.349
	c0.215-5.075,2.778-8.67,5.725-8.029C1538.337,492.23,1540.552,496.864,1540.336,501.938"/>
<polyline fill="none" stroke="#666666" stroke-width="10" stroke-miterlimit="10" points="1464.332,442.58 1450.68,471.8 
	1451.466,507.369 "/>
<path fill="#E9E0D6" d="M1457.168,511.924c-0.216,5.076-2.777,8.669-5.725,8.029c-2.947-0.639-5.162-5.274-4.947-10.35
	c0.216-5.074,2.779-8.67,5.726-8.029C1455.169,502.215,1457.384,506.849,1457.168,511.924"/>
<path fill="#FFDA6A" d="M1405.23,309.223c0,0.864,0,1.089,1.312,1.25v1.217l-4.229-0.002l0.001-1.217
	c1.313-0.16,1.313-0.32,1.313-1.249l0.007-17.744c0.001-0.929,0.001-1.121-1.313-1.25l0.001-1.217l5.829,0.002
	c2.787,0.001,3.619,1.122,3.619,2.627c-0.001,1.698-1.123,2.594-3.686,2.593l-2.85-0.001L1405.23,309.223z M1408.15,292.825
	c1.281,0,1.922-0.288,1.923-1.216c0.001-0.833-0.864-1.186-1.921-1.186l-2.915-0.001l-0.001,2.402L1408.15,292.825z"/>
<path fill="#FFDA6A" d="M1412.951,301.763c0.003-7.815,1.479-13.131,5.129-13.13c3.619,0.001,5.604,5.318,5.602,13.134
	c-0.002,5.894-1.67,10.312-5.192,10.312C1414.709,312.077,1412.949,307.656,1412.951,301.763z M1418.49,310.54
	c2.305,0.001,3.492-3.778,3.492-8.774c0.004-6.405-1.436-11.595-3.935-11.596c-2.338,0-3.396,5.188-3.398,11.594
	C1414.647,306.76,1415.928,310.539,1418.49,310.54z"/>
<path fill="#FFDA6A" d="M1435.881,306.062c-0.002,3.779-0.834,6.021-4.613,6.021c-3.619-0.002-4.42-2.244-4.418-6.023l0.004-14.573
	c0-0.929,0.002-1.121-1.215-1.25v-1.217l4.066,0.001v1.217c-1.248,0.128-1.25,0.32-1.25,1.249l-0.004,14.702
	c-0.002,2.883,0.574,4.355,2.881,4.356c2.369,0,2.947-1.472,2.947-4.354l0.006-14.702c0-0.929,0-1.121-1.248-1.25v-1.217
	l4.066,0.001v1.217c-1.217,0.128-1.217,0.32-1.217,1.249L1435.881,306.062z"/>
<path fill="#FFDA6A" d="M1438.984,311.7v-1.217c1.314-0.159,1.314-0.319,1.314-1.248l0.006-17.744c0-0.929,0.002-1.121-1.312-1.25
	v-1.217l5.83,0.002c2.785,0.001,3.619,1.122,3.617,2.627c0,0.993-0.354,2.082-1.857,2.498c-0.002,3.138,0.379,10.28,1.18,13.26
	c0.576,2.21,1.119,2.915,2.209,3.075v1.217h-2.434c-0.418-0.93-0.834-1.955-1.248-3.524c-1.025-3.843-1.311-10.729-1.309-13.933
	l-3.076-0.001l-0.004,14.989c-0.002,0.864-0.002,1.089,1.312,1.25v1.217L1438.984,311.7z M1444.82,292.838
	c1.281,0.001,1.922-0.288,1.922-1.216c0-0.833-0.863-1.185-1.92-1.186l-2.916-0.001v2.402L1444.82,292.838z"/>
<path fill="#FFDA6A" d="M1461.787,311.709v-1.217c0.449-0.064,1.248,0,1.248-0.545c0.002-0.448-0.414-2.273-0.67-3.555l-3.006-14.83
	c-0.191-0.929-0.512-1.218-1.215-1.314v-1.217l3.65,0.001v1.217c-0.609,0.064-1.025,0.032-1.025,0.48
	c0,0.192,0.416,2.178,0.672,3.427l2.846,14.286h0.062l2.729-14.284c0.256-1.249,0.674-3.234,0.674-3.427
	c0-0.448-0.416-0.417-1.025-0.481v-1.217l3.652,0.001v1.217c-0.705,0.096-1.027,0.384-1.219,1.313l-2.92,14.828
	c-0.256,1.281-0.576,3.106-0.578,3.555c0,0.545,0.801,0.48,1.25,0.546v1.217L1461.787,311.709z"/>
<path fill="#FFDA6A" d="M1471.75,301.783c0.004-7.814,1.479-13.131,5.129-13.129c3.619,0.001,5.604,5.319,5.602,13.133
	c-0.002,5.894-1.67,10.313-5.191,10.312C1473.51,312.098,1471.748,307.677,1471.75,301.783z M1477.289,310.561
	c2.305,0.001,3.492-3.777,3.492-8.773c0.004-6.406-1.436-11.595-3.934-11.596c-2.338,0-3.396,5.188-3.4,11.593
	C1473.447,306.78,1474.727,310.56,1477.289,310.561z"/>
<path fill="#FFDA6A" d="M1494.68,306.084c-0.002,3.779-0.834,6.021-4.613,6.02c-3.619-0.001-4.42-2.244-4.418-6.023l0.004-14.573
	c0-0.929,0.002-1.121-1.215-1.25v-1.217l4.066,0.001v1.217c-1.248,0.128-1.25,0.32-1.25,1.249l-0.004,14.701
	c-0.002,2.883,0.574,4.355,2.881,4.356c2.369,0.001,2.947-1.472,2.947-4.354l0.006-14.701c0-0.929,0-1.121-1.248-1.25v-1.217
	l4.066,0.001v1.217c-1.217,0.128-1.217,0.32-1.217,1.249L1494.68,306.084z"/>
<path fill="#FFDA6A" d="M1502.562,291.609c-1.057-0.929-1.473-1.41-2.08-1.41c-0.609,0-0.93,0.448-0.93,0.928
	c0,1.121,1.344,2.724,3.328,6.375c1.537,2.787,3.426,6.471,3.424,9.577c-0.002,3.235-2.148,5.028-4.582,5.027
	c-0.865,0-1.857-0.353-2.465-0.738l-0.578,0.353h-0.832l-0.447-3.523l1.025-0.384c0.576,1.281,1.279,2.755,3.297,2.755
	c1.697,0.001,2.98-1.44,2.98-3.233c0-2.786-1.6-6.054-3.104-8.777c-2.209-4.164-3.648-6.022-3.648-7.623
	c0-1.441,0.865-2.274,2.242-2.273c0.256,0,0.48,0.032,0.736,0.064l0.576-0.416h0.961l1.152,2.915L1502.562,291.609z"/>
<path fill="#FFDA6A" d="M1519.76,291.616c-1.057-0.929-1.473-1.41-2.08-1.41c-0.609,0-0.93,0.448-0.93,0.929
	c0,1.121,1.344,2.723,3.328,6.375c1.537,2.788,3.426,6.471,3.424,9.577c-0.002,3.235-2.148,5.029-4.582,5.028
	c-0.865-0.001-1.857-0.354-2.465-0.738l-0.578,0.353l-0.832-0.001l-0.447-3.523l1.025-0.384c0.576,1.282,1.279,2.755,3.297,2.756
	c1.697,0,2.98-1.44,2.98-3.233c0-2.786-1.6-6.055-3.104-8.777c-2.209-4.164-3.648-6.022-3.648-7.624
	c0-1.441,0.865-2.274,2.242-2.274c0.256,0,0.48,0.033,0.736,0.065l0.576-0.417l0.961,0l1.152,2.915L1519.76,291.616z"/>
<path fill="#FFDA6A" d="M1525.549,311.731v-1.217c1.441-0.159,1.441-0.319,1.443-1.248l0.006-17.745c0-0.929,0-1.121-1.441-1.25
	v-1.217l3.877,0.001c0.768,0,2.018,0,3.17-0.479l1.152,2.178l-0.961,0.544c-0.512-0.417-0.768-0.833-1.824-0.833l-2.371-0.001
	l-0.002,2.755l3.012,0.001c1.057,0,1.154-0.353,1.186-0.897l0.961,0l-0.002,3.203h-0.959c-0.098-0.48-0.225-0.897-1.121-0.897
	l-3.076-0.001l-0.006,15.693l3.299,0.001c1.475,0.001,1.697-0.672,2.244-1.345l0.959,0.642l-1.152,2.498
	c-0.609-0.16-1.377-0.257-2.178-0.321c-0.77-0.064-1.537-0.064-2.115-0.064L1525.549,311.731z"/>
<path fill="#FFDA6A" d="M1536.598,311.735v-1.217c1.314-0.159,1.314-0.319,1.314-1.248l0.006-17.745c0-0.929,0.002-1.121-1.312-1.25
	v-1.217l5.83,0.002c2.785,0.001,3.619,1.122,3.617,2.627c0,0.993-0.354,2.082-1.857,2.498c-0.002,3.139,0.379,10.281,1.18,13.26
	c0.576,2.211,1.119,2.916,2.209,3.076v1.217l-2.434-0.001c-0.418-0.929-0.834-1.954-1.248-3.523
	c-1.025-3.844-1.311-10.73-1.309-13.933l-3.076-0.001l-0.004,14.989c-0.002,0.864-0.002,1.089,1.312,1.25v1.217L1536.598,311.735z
	 M1542.434,292.873c1.281,0,1.922-0.288,1.922-1.216c0-0.833-0.863-1.186-1.92-1.186l-2.916-0.001v2.402L1542.434,292.873z"/>
<path fill="#FFDA6A" d="M1551.906,311.741v-1.217c0.449-0.064,1.25,0,1.25-0.545c0-0.448-0.416-2.273-0.67-3.555l-3.006-14.83
	c-0.193-0.93-0.512-1.218-1.217-1.314v-1.217l3.65,0.001v1.217c-0.607,0.064-1.023,0.032-1.025,0.48
	c0,0.192,0.416,2.177,0.672,3.427l2.846,14.286h0.064l2.727-14.284c0.258-1.249,0.674-3.234,0.674-3.427
	c0.002-0.448-0.416-0.417-1.023-0.481v-1.217l3.65,0.001v1.217c-0.705,0.096-1.025,0.384-1.217,1.313l-2.92,14.828
	c-0.258,1.281-0.578,3.106-0.578,3.555c0,0.545,0.801,0.48,1.248,0.546v1.217L1551.906,311.741z"/>
<path fill="#FFDA6A" d="M1562.348,311.745v-1.217c1.312-0.16,1.312-0.32,1.312-1.249l0.006-17.744c0-0.929,0.002-1.121-1.311-1.25
	v-1.217l4.227,0.001v1.217c-1.312,0.128-1.314,0.32-1.314,1.249l-0.006,17.745c0,0.864,0,1.089,1.312,1.249v1.217L1562.348,311.745z
	"/>
<path fill="#FFDA6A" d="M1568.848,311.747v-1.217c1.314-0.16,1.314-0.32,1.314-1.249l0.006-17.744c0-0.929,0.002-1.121-1.312-1.25
	v-1.217l5.83,0.002c2.785,0.001,3.619,1.122,3.617,2.627c0,0.993-0.354,2.082-1.857,2.498c-0.002,3.139,0.379,10.281,1.18,13.26
	c0.576,2.21,1.119,2.916,2.209,3.076v1.217l-2.434-0.001c-0.418-0.929-0.834-1.954-1.248-3.523
	c-1.025-3.844-1.311-10.73-1.309-13.933l-3.076-0.002l-0.004,14.99c-0.002,0.864-0.002,1.089,1.312,1.249v1.217L1568.848,311.747z
	 M1574.684,292.885c1.281,0,1.922-0.288,1.922-1.217c0-0.833-0.863-1.185-1.92-1.186l-2.916-0.001v2.401L1574.684,292.885z"/>
<path fill="#FFDA6A" d="M1494.896,349.138l14.922-19.08l-15.604-7.519l-0.224,0.461l-0.335-0.387l-0.15,0.13l-0.1-0.205
	l-15.604,7.519l15.103,19.312l0.218-0.17l0.425,0.737l0.443-0.256l0.444,0.256L1494.896,349.138z M1499.676,332.87l-4.001-7.729
	l7.924,6.865l-7.793,13.507L1499.676,332.87z M1493.992,347.929l-4.579-14.958l4.579-8.851l4.58,8.851L1493.992,347.929z
	 M1488.312,332.87l3.866,12.643l-7.791-13.507l7.922-6.865L1488.312,332.87z M1498.562,342.786l6.348-11.001l-7.673-6.65
	l10.985,5.294L1498.562,342.786z M1479.396,330.429l11.808-5.688l-8.127,7.043l7.367,12.771L1479.396,330.429z"/>
</svg>
