<?xml version="1.0" encoding="utf-8"?>
<!-- Generator: Adobe Illustrator 15.0.0, SVG Export Plug-In  -->
<!DOCTYPE svg PUBLIC "-//W3C//DTD SVG 1.1//EN" "http://www.w3.org/Graphics/SVG/1.1/DTD/svg11.dtd" [
	<!ENTITY ns_flows "http://ns.adobe.com/Flows/1.0/">
]>
<svg version="1.1"
	 xmlns="http://www.w3.org/2000/svg" xmlns:xlink="http://www.w3.org/1999/xlink" xmlns:a="http://ns.adobe.com/AdobeSVGViewerExtensions/3.0/"
	 x="0px" y="0px" width="122px" height="121px" viewBox="-0.125 0 122 121"
	 overflow="visible" enable-background="new -0.125 0 122 121" xml:space="preserve">
<defs>
</defs>
<path fill="#8CC63F" d="M41.034,65.469c-2.141,2.244-2.549,11.39-2.549,11.39s31.28,35.506,32.593,36.319
	c1.313,0.814,11.664,7.058,14.381,6.894s28.555-28.555,29.345-29.346c0.791-0.79,6.317-9.998,6.317-9.998l-0.421-5.073
	c0,0-38.597-39.873-40.765-40.765C77.768,34,67.216,37.181,67.216,37.181L41.034,65.469z"/>
<path fill="#A3D350" d="M87.978,118.366c-6.157-2.271-12.772-7.563-14.509-7.578C71.5,110.77,40.976,77.194,40.005,75.339
	c-0.971-1.855,0.611-7.208,0.611-7.208l-0.907,0.147c-0.997,3.518-1.225,8.58-1.225,8.58s31.28,35.506,32.593,36.319
	c1.313,0.814,11.664,7.058,14.381,6.894C85.855,120.047,86.747,119.419,87.978,118.366z"/>
<path fill="#7CAA33" d="M47.244,59.788c2.759,2.759,8.541,1.451,12.915-2.922c4.373-4.374,5.682-10.156,2.923-12.916
	c-0.378-0.378-0.817-0.672-1.297-0.899L46.788,59.252C46.925,59.441,47.076,59.62,47.244,59.788z"/>
<path d="M94.525,112.992C94.524,112.992,94.524,112.992,94.525,112.992c-7.595,7.594-8.564,7.652-9.03,7.681
	c-3.122,0.188-14.617-6.91-14.733-6.982c-1.322-0.819-27.494-30.492-32.728-36.433l-0.161-0.183l0.011-0.242
	c0.044-0.959,0.482-9.438,2.715-11.779l26.288-28.401l0.156-0.047c1.102-0.332,10.823-3.216,13.121-2.271
	c2.221,0.913,37.009,36.812,40.969,40.902l0.148,0.154l0.456,5.481l-0.101,0.167c-0.569,0.948-5.588,9.294-6.407,10.113
	c-0.097,0.097-0.689,0.739-1.511,1.627C110.336,96.439,101.355,106.161,94.525,112.992z M39.098,76.645
	c12.419,14.094,31.155,35.189,32.31,36.03c3.658,2.267,11.915,6.922,14.015,6.796c0.254-0.046,1.634-0.713,8.25-7.33
	c6.814-6.813,15.785-16.523,19.162-20.179c0.992-1.073,1.435-1.553,1.544-1.661c0.529-0.53,3.995-6.168,6.127-9.716l-0.388-4.666
	C104.757,60.052,81.426,36.292,79.7,35.444c-1.409-0.579-8.132,1.063-12.152,2.266L41.475,65.877
	C39.892,67.538,39.238,73.99,39.098,76.645z"/>
<rect x="47.538" y="69.96" transform="matrix(-1 -0.0067 0.0067 -1 99.849 147.2914)" fill="#788958" width="5.265" height="7.037"/>
<rect x="56.927" y="71.246" transform="matrix(-0.7367 0.6762 -0.6762 -0.7367 152.1941 84.9471)" fill="#57633E" width="5.264" height="1.715"/>
<linearGradient id="SVGID_1_" gradientUnits="userSpaceOnUse" x1="420.228" y1="-233.0044" x2="454.324" y2="-212.5466" gradientTransform="matrix(0.7071 -0.7071 0.7071 0.7071 -97.6215 496.9087)">
	<stop  offset="0" style="stop-color:#FFD8BF"/>
	<stop  offset="1" style="stop-color:#EFA57F"/>
</linearGradient>
<circle fill="url(#SVGID_1_)" cx="37.593" cy="34.3" r="24.846"/>
<path d="M55.587,52.294c-9.922,9.922-26.066,9.922-35.988-0.001c-9.922-9.922-9.923-26.066,0-35.988
	c9.922-9.922,26.066-9.922,35.988,0S65.51,42.372,55.587,52.294z M20.45,17.156c-9.453,9.453-9.453,24.834,0,34.287
	s24.835,9.453,34.287,0c9.453-9.452,9.452-24.834,0-34.286C45.284,7.704,29.902,7.704,20.45,17.156z"/>
<rect x="20.901" y="39.481" transform="matrix(0.587 -0.8096 0.8096 0.587 -23.0196 36.9778)" fill="#FFDA6A" width="7.666" height="3.142"/>
<path fill="#F9E3AC" d="M21.212,43.233l1.237,0.897c-0.002-0.135-0.073-0.285-0.002-0.438c0.205,0.072,0.415,0.193,0.627,0.223
	c-0.242-0.251-0.316-1.603,0.251-1.206c-0.106-0.237-0.036-0.698,0.295-0.623c-0.11-0.209-0.037-0.466-0.028-0.688
	c0.479,0.121,0.974-0.098,0.828-0.713c0.078,0.113,0.155,0.135,0.278,0.176c-0.028-0.229-0.136-0.509-0.016-0.723
	c0.344,0.216,0.887,0.561,1.307,0.561c-0.135-0.196-0.298-0.398-0.432-0.624c-0.12-0.198-0.554-0.547-0.594-0.752
	c-0.15-0.778,0.911-0.236,1.196-0.131c0.022-0.258-0.227-0.456-0.221-0.729c0.087,0.005,0.223-0.058,0.298-0.048
	c-0.073-0.171-0.244-0.242-0.268-0.429c0.264,0.012,0.479,0.091,0.747,0.049c-0.015-0.134-0.11-0.293-0.239-0.454l-0.766-0.555
	L21.212,43.233z"/>
<path d="M28.676,38.803l-4.854,6.694l-3.03-2.197l4.854-6.694L28.676,38.803z M23.69,44.657l4.146-5.72l-2.057-1.491l-4.146,5.721
	L23.69,44.657z"/>
<rect x="40.609" y="19.774" transform="matrix(-0.8096 0.587 -0.587 -0.8096 92.9513 12.5402)" fill="#FFDA6A" width="7.667" height="3.142"/>
<path fill="#F9E3AC" d="M46.624,17.823l0.896,1.237c-0.135-0.002-0.284-0.073-0.438-0.002c0.073,0.205,0.194,0.414,0.223,0.627
	c-0.251-0.243-1.603-0.316-1.206,0.251c-0.237-0.106-0.698-0.036-0.623,0.295c-0.208-0.11-0.465-0.038-0.688-0.028
	c0.122,0.479-0.098,0.974-0.712,0.828c0.113,0.077,0.133,0.155,0.175,0.278c-0.229-0.028-0.509-0.137-0.722-0.017
	c0.215,0.345,0.561,0.888,0.561,1.307c-0.197-0.134-0.4-0.297-0.625-0.432c-0.198-0.119-0.547-0.553-0.752-0.593
	c-0.778-0.15-0.235,0.911-0.131,1.196c-0.257,0.022-0.456-0.228-0.729-0.222c0.005,0.088-0.059,0.224-0.048,0.298
	c-0.17-0.072-0.242-0.243-0.429-0.267c0.011,0.264,0.092,0.479,0.05,0.747c-0.135-0.016-0.294-0.111-0.455-0.239l-0.555-0.766
	L46.624,17.823z"/>
<path d="M39.996,22.256l6.694-4.854l2.197,3.03l-6.693,4.854L39.996,22.256z M46.556,18.243l-5.72,4.147l1.49,2.057l5.721-4.147
	L46.556,18.243z"/>
<path fill="#FFFFFF" d="M34.169,43.608c0,0,0.771,5.144-5.201,5.202C22.997,48.868,26.498,37.105,34.169,43.608z"/>
<path fill="#EDBA9D" d="M33.949,43.669c0.227,0.112,0.453,0.246,0.68,0.413C34.425,43.908,34.199,43.768,33.949,43.669z"/>
<path fill="#EDBA9D" d="M29.479,49.321c-0.713,0.178-1.203,0.104-1.516-0.133c0.106,0.445,0.315,0.845,0.637,1.166
	c1.229,1.23,3.606,0.848,5.306-0.853c1.701-1.7,2.082-4.075,0.853-5.306c-0.024-0.024-0.053-0.045-0.079-0.068
	C34.669,44.226,34.241,48.129,29.479,49.321z"/>
<path fill="#E0A486" d="M46.525,31.094c0.111,0.227,0.245,0.452,0.413,0.68C46.763,31.57,46.623,31.343,46.525,31.094z"/>
<path fill="#E0A486" d="M52.175,26.624c0.179-0.713,0.104-1.203-0.132-1.515c0.444,0.106,0.845,0.315,1.165,0.636
	c1.23,1.23,0.849,3.606-0.852,5.307s-4.076,2.082-5.306,0.852c-0.024-0.024-0.045-0.053-0.069-0.078
	C47.082,31.814,50.984,31.385,52.175,26.624z"/>
<path d="M27.882,45.952c0.081,0.04,0.161,0.084,0.229,0.152c0.332,0.331,0.332,0.867,0,1.198c-0.211,0.212-0.504,0.272-0.776,0.215
	c0.065,0.193,0.169,0.376,0.322,0.53c0.529,0.528,1.387,0.528,1.915,0c0.528-0.529,0.528-1.386,0-1.915
	C29.113,45.674,28.408,45.614,27.882,45.952z"/>
<path fill="#FFFFFF" d="M46.463,31.315c0,0,5.144,0.77,5.201-5.202C51.723,20.141,39.96,23.642,46.463,31.315z"/>
<path d="M45.96,28.72c0.04,0.08,0.084,0.161,0.151,0.229c0.332,0.331,0.868,0.331,1.199,0c0.211-0.212,0.272-0.505,0.214-0.777
	c0.193,0.065,0.377,0.169,0.53,0.322c0.529,0.529,0.529,1.387,0,1.915c-0.528,0.528-1.386,0.528-1.914,0
	C45.682,29.95,45.623,29.245,45.96,28.72z"/>
<path d="M41.388,42.467c0.072,0.014,1.781,0.304,3.509-1.403l0,0c0.009-0.009,0.017-0.018,0.025-0.026l0,0
	c1.708-1.728,1.417-3.437,1.398-3.533l-0.498-0.084c0.003,0.016,0.257,1.601-1.338,3.205c-1.6,1.59-3.179,1.343-3.18,1.344l0,0
	L41.388,42.467z"/>
<path fill="#FFD8BF" d="M52.39,14.132l-0.012-1.261l1.404-1.203l1.502-0.355l1.751,0.406l1.977,2.034l0.808,2.361l0.153,3.042
	L58.055,21.1c0,0,1.848-4.237-1.735-6.037c-1.714,0.483-1.402,0.922-1.402,0.922l-0.233-0.891l0.629-1.185l0.864-0.657
	C56.177,13.252,55.114,10.911,52.39,14.132z"/>
<path fill="#E8B8A7" d="M51.364,14.364l1.026-0.231l1.24-1.638l2.05-0.084l1.409,1.41l0.785,1.023l1.05,1.875l-0.2,2.723
	L58.055,21.1C58.055,21.1,52.126,15.333,51.364,14.364z"/>
<path d="M51.364,14.372c0.002,0.008,0.004,0.016,0.006,0.021L51.364,14.372z"/>
<path d="M53.705,11.114c-1.172,0.469-2.026,1.576-2.344,3.041c-0.016,0.07-0.011,0.142,0.003,0.209l1.026-0.231
	c0.279-1.03,0.871-1.771,1.683-2.095c1.759-0.704,3.999,0.745,4.992,3.229c0.903,2.258,0.452,4.652-0.986,5.568l0.297,0.975
	c0.056-0.002-0.286,0.138-0.232,0.116c0.005-0.003,0.011-0.006,0.017-0.008c2.21-0.979,3.014-4.062,1.829-7.021
	C58.792,11.903,55.972,10.206,53.705,11.114z"/>
<path fill="none" stroke="#000000" stroke-miterlimit="10" d="M56.482,13.482c-0.332-0.667-1.469,0.701-1.609,1.013
	c-0.216,0.481-0.451,1.578-0.111,1.998c-0.094-0.42,0.434-0.814,0.731-1.009c0.361-0.234,0.547-0.358,0.952-0.202
	c0.822,0.318,1.549,1.408,1.857,2.227c0.251,0.662,0.359,2.091-0.624,2.14c-0.435,0.021-0.734-0.364-0.976-0.675
	c-0.384-0.496-0.663-0.879-0.447-1.528"/>
<path fill="#FFD8BF" d="M17.333,49.19l-1.262-0.012l-1.202,1.404l-0.354,1.502l0.404,1.751l2.035,1.977l2.36,0.808l3.043,0.153
	l1.943-1.918c0,0-4.237,1.848-6.037-1.735c0.483-1.714,0.922-1.402,0.922-1.402l-0.892-0.233l-1.185,0.628l-0.656,0.866
	C16.453,52.978,14.111,51.914,17.333,49.19z"/>
<path fill="#E8B8A7" d="M17.68,47.94l-0.231,1.027l-1.638,1.239l-0.084,2.051l1.409,1.409l1.023,0.785l1.875,1.049l2.723-0.2
	l1.434-0.402C24.191,54.898,18.649,48.703,17.68,47.94z"/>
<path d="M17.572,48.165c0.008,0.001,0.016,0.003,0.022,0.006L17.572,48.165z"/>
<path d="M14.529,50.633c0.469-1.172,1.577-2.026,3.042-2.344c0.07-0.015,0.141-0.011,0.209,0.003l-0.231,1.027
	c-1.031,0.278-1.771,0.87-2.095,1.683c-0.705,1.759,0.744,3.998,3.228,4.991c2.258,0.904,4.652,0.453,5.599-1.244l1.005,0.441
	c-0.032,0.314,0.021-0.054,0,0c-0.002,0.006,0.003-0.006,0,0c-0.979,2.21-4.014,2.911-6.974,1.728
	C15.318,55.72,13.622,52.901,14.529,50.633z"/>
<path fill="none" stroke="#000000" stroke-miterlimit="10" d="M16.682,53.282c-0.666-0.332,0.701-1.468,1.013-1.608
	c0.481-0.217,1.578-0.451,1.997-0.111c-0.419-0.095-0.814,0.433-1.009,0.731c-0.233,0.36-0.358,0.546-0.202,0.952
	c0.319,0.822,1.409,1.549,2.228,1.856c0.662,0.251,2.091,0.359,2.139-0.624c0.021-0.435-0.363-0.734-0.674-0.975
	c-0.496-0.385-0.88-0.664-1.528-0.448"/>
<ellipse transform="matrix(0.707 -0.7072 0.7072 0.707 -17.9423 48.7951)" cx="49.921" cy="46.053" rx="3.46" ry="2.156"/>
<path fill="#BA3131" d="M49.921,48.18c0.111,0.111,0.24,0.2,0.382,0.268c0.394-0.221,0.783-0.511,1.143-0.87
	c1.352-1.352,1.764-3.129,0.922-3.972c-0.111-0.11-0.24-0.199-0.382-0.268c-0.394,0.221-0.783,0.511-1.143,0.871
	C49.492,45.561,49.08,47.338,49.921,48.18z"/>
<path fill="#FFDA6A" stroke="#000000" stroke-width="3" stroke-miterlimit="10" d="M48.937,11.511c0,0-6.118,0.942-10.907-0.438
	C33.241,9.693,10.535,27.709,8.3,27.603c-2.233-0.106,14.813,14.812,9.271,20.687c0,0-8.887-0.143-14.713-10.696
	c-5.827-10.553,8.639-24.167,14.382-27.571c5.744-3.404,21.575-17.554,36.422,0.371C57.127,16.723,48.937,11.511,48.937,11.511z"/>
<path fill="#FFDA6A" d="M51.364,14.364c0,0-11.144,6.715-15.933,5.335s-15.639,11.81-17.872,11.703
	c-2.233-0.107,5.555,11.014,0.012,16.888c0,0-8.887-0.143-14.713-10.696c-5.827-10.553,8.639-24.167,14.382-27.571
	c5.744-3.404,21.575-17.554,36.422,0.371C57.127,16.723,51.364,14.364,51.364,14.364z"/>
<path fill="#F9E3AC" d="M8.299,17.838C3.321,23.546-0.706,31.14,2.858,37.593c5.485,9.936,13.68,10.644,14.621,10.692l0.293-0.294
	l-0.239,0.096c0,0-4.235-1.469-7.104-3.706C7.564,42.147-3.764,32.427,8.299,17.838z"/>
<path fill="#CEBA8D" d="M50.592,13.834c0,0-13.493,6.819-16.544,4.481C30.997,15.979,50.592,13.834,50.592,13.834z"/>
<path fill="#CEBA8D" d="M19.204,29.331c0,0-2.211,2.874-3.47,1.745C14.475,29.948,19.204,29.331,19.204,29.331z"/>
</svg>
