<?xml version="1.0" encoding="utf-8"?>
<!-- Generator: Adobe Illustrator 15.0.0, SVG Export Plug-In  -->
<!DOCTYPE svg PUBLIC "-//W3C//DTD SVG 1.1//EN" "http://www.w3.org/Graphics/SVG/1.1/DTD/svg11.dtd" [
	<!ENTITY ns_flows "http://ns.adobe.com/Flows/1.0/">
]>
<svg version="1.1"
	 xmlns="http://www.w3.org/2000/svg" xmlns:xlink="http://www.w3.org/1999/xlink" xmlns:a="http://ns.adobe.com/AdobeSVGViewerExtensions/3.0/"
	 x="0px" y="0px" width="390px" height="118px" viewBox="0 0 390 118" overflow="visible" enable-background="new 0 0 390 118"
	 xml:space="preserve">
<defs>
</defs>
<rect display="none" fill="#FF0000" width="130" height="118"/>
<rect x="130" display="none" fill="#FFA400" width="130" height="118"/>
<rect x="260" display="none" fill="#00A400" width="130" height="118"/>
<path fill="#FFFFFF" d="M122.854,87.131c0,5.898-4.782,10.681-10.681,10.681H17.826c-5.899,0-10.681-4.782-10.681-10.681V16.37
	c0-5.899,4.782-10.681,10.681-10.681h94.348c5.898,0,10.681,4.782,10.681,10.681V87.131z"/>
<path d="M112.174,99.312H17.826c-6.717,0-12.181-5.464-12.181-12.181V16.37c0-6.717,5.464-12.181,12.181-12.181h94.348
	c6.717,0,12.181,5.464,12.181,12.181v70.761C124.354,93.848,118.891,99.312,112.174,99.312z M17.826,7.188
	c-5.062,0-9.181,4.119-9.181,9.181v70.761c0,5.062,4.119,9.181,9.181,9.181h94.348c5.062,0,9.181-4.118,9.181-9.181V16.37
	c0-5.062-4.118-9.181-9.181-9.181H17.826z"/>
<polygon fill="#FFFFFF" points="34.629,95.312 16.296,113.5 16.963,95.312 "/>
<path d="M15.517,96.312h22.754l-23.612,20.926L15.517,96.312z M18.42,96.042l-0.486,13.72l14.32-13.72H18.42z"/>
<polygon fill="#FFFFFF" points="33.67,94.626 31.189,97.062 18.311,99.127 18.311,93.667 "/>
<path fill="#FFFFFF" d="M252.854,87.131c0,5.898-4.782,10.681-10.681,10.681h-94.348c-5.898,0-10.681-4.782-10.681-10.681V16.37
	c0-5.899,4.782-10.681,10.681-10.681h94.348c5.898,0,10.681,4.782,10.681,10.681V87.131z"/>
<path d="M242.174,99.312h-94.348c-6.717,0-12.181-5.464-12.181-12.181V16.37c0-6.717,5.464-12.181,12.181-12.181h94.348
	c6.717,0,12.181,5.464,12.181,12.181v70.761C254.354,93.848,248.891,99.312,242.174,99.312z M147.826,7.188
	c-5.062,0-9.181,4.119-9.181,9.181v70.761c0,5.062,4.118,9.181,9.181,9.181h94.348c5.062,0,9.181-4.118,9.181-9.181V16.37
	c0-5.062-4.118-9.181-9.181-9.181H147.826z"/>
<polygon fill="#FFFFFF" points="164.629,95.312 146.296,113.5 146.963,95.312 "/>
<path d="M145.517,96.312h22.754l-23.612,20.926L145.517,96.312z M148.42,96.042l-0.486,13.72l14.32-13.72H148.42z"/>
<polygon fill="#FFFFFF" points="163.67,94.626 161.189,97.062 148.311,99.127 148.311,93.667 "/>
<path fill="#FFFFFF" d="M252.854,87.131c0,5.898-4.782,10.681-10.681,10.681h-94.348c-5.898,0-10.681-4.782-10.681-10.681V16.37
	c0-5.899,4.782-10.681,10.681-10.681h94.348c5.898,0,10.681,4.782,10.681,10.681V87.131z"/>
<path d="M242.174,99.312h-94.348c-6.717,0-12.181-5.464-12.181-12.181V16.37c0-6.717,5.464-12.181,12.181-12.181h94.348
	c6.717,0,12.181,5.464,12.181,12.181v70.761C254.354,93.848,248.891,99.312,242.174,99.312z M147.826,7.188
	c-5.062,0-9.181,4.119-9.181,9.181v70.761c0,5.062,4.118,9.181,9.181,9.181h94.348c5.062,0,9.181-4.118,9.181-9.181V16.37
	c0-5.062-4.118-9.181-9.181-9.181H147.826z"/>
<polygon fill="#FFFFFF" points="164.629,95.312 146.296,113.5 146.963,95.312 "/>
<path d="M145.517,96.312h22.754l-23.612,20.926L145.517,96.312z M148.42,96.042l-0.486,13.72l14.32-13.72H148.42z"/>
<polygon fill="#FFFFFF" points="163.67,94.626 161.189,97.062 148.311,99.127 148.311,93.667 "/>
<path fill="#FFFFFF" d="M382.854,87.131c0,5.898-4.782,10.681-10.681,10.681h-94.348c-5.898,0-10.681-4.782-10.681-10.681V16.37
	c0-5.899,4.782-10.681,10.681-10.681h94.348c5.898,0,10.681,4.782,10.681,10.681V87.131z"/>
<path d="M372.174,99.312h-94.348c-6.717,0-12.181-5.464-12.181-12.181V16.37c0-6.717,5.464-12.181,12.181-12.181h94.348
	c6.717,0,12.181,5.464,12.181,12.181v70.761C384.354,93.848,378.891,99.312,372.174,99.312z M277.826,7.188
	c-5.062,0-9.181,4.119-9.181,9.181v70.761c0,5.062,4.118,9.181,9.181,9.181h94.348c5.062,0,9.181-4.118,9.181-9.181V16.37
	c0-5.062-4.118-9.181-9.181-9.181H277.826z"/>
<polygon fill="#FFFFFF" points="294.629,95.312 276.296,113.5 276.963,95.312 "/>
<path d="M275.517,96.312h22.754l-23.612,20.926L275.517,96.312z M278.42,96.042l-0.486,13.72l14.32-13.72H278.42z"/>
<polygon fill="#FFFFFF" points="293.67,94.626 291.189,97.062 278.311,99.127 278.311,93.667 "/>
<rect x="81.229" y="94.751" fill="#FFFFFF" width="7.354" height="1.562"/>
<circle cx="65" cy="51.75" r="12.16"/>
<circle cx="176.181" cy="51.75" r="12.16"/>
<circle cx="213.818" cy="51.75" r="12.16"/>
<circle cx="287.264" cy="51.25" r="12.16"/>
<circle cx="324.902" cy="51.25" r="12.16"/>
<circle cx="362.734" cy="52.25" r="12.16"/>
</svg>
