<?xml version="1.0" encoding="utf-8"?>
<!-- Generator: Adobe Illustrator 15.0.0, SVG Export Plug-In  -->
<!DOCTYPE svg PUBLIC "-//W3C//DTD SVG 1.1//EN" "http://www.w3.org/Graphics/SVG/1.1/DTD/svg11.dtd" [
	<!ENTITY ns_flows "http://ns.adobe.com/Flows/1.0/">
]>
<svg version="1.1"
	 xmlns="http://www.w3.org/2000/svg" xmlns:xlink="http://www.w3.org/1999/xlink" xmlns:a="http://ns.adobe.com/AdobeSVGViewerExtensions/3.0/"
	 x="0px" y="0px" width="1920px" height="1080px" viewBox="-140.742 2.357 1920 1080"
	 overflow="visible" enable-background="new -140.742 2.357 1920 1080" xml:space="preserve">
<defs>
</defs>
<rect x="724.537" y="220.226" display="none" fill="#F4F4F4" width="171.562" height="226.494"/>
<linearGradient id="SVGID_2_" gradientUnits="userSpaceOnUse" x1="847.6455" y1="861.5166" x2="847.6455" y2="179.0358">
	<stop  offset="0" style="stop-color:#D1D1D1"/>
	<stop  offset="1" style="stop-color:#E5E5E5"/>
</linearGradient>
<path display="none" fill="url(#SVGID_2_)" d="M847.646,7.5c-538.257,0-615.438,217.168-615.438,217.168v483.242h615.438h615.438
	V224.667C1463.084,224.667,1385.902,7.5,847.646,7.5z"/>
<rect x="715.158" y="225.964" display="none" fill="#F4F4F4" width="184.386" height="225.4"/>
<linearGradient id="SVGID_3_" gradientUnits="userSpaceOnUse" x1="494.8184" y1="28.3726" x2="1071.4355" y2="28.3726">
	<stop  offset="0" style="stop-color:#262626"/>
	<stop  offset="1" style="stop-color:#000000"/>
</linearGradient>
<path display="none" fill="url(#SVGID_3_)" d="M494.818,49.246h576.617V22.301C1007.512,13.024,933.445,7.5,847.646,7.5
	C696.521,7.5,581.747,24.62,494.818,49.246z"/>
<path display="none" fill="#3D251A" d="M469.291,56.943h607.336v-7.698H494.818C486.023,51.737,477.524,54.308,469.291,56.943z"/>
<path display="none" fill="#3D251A" d="M361.689,102.256h714.938v-7.698H376.306C371.267,97.11,366.396,99.677,361.689,102.256z"/>
<linearGradient id="SVGID_4_" gradientUnits="userSpaceOnUse" x1="735.6362" y1="63.6792" x2="735.6362" y2="81.6711">
	<stop  offset="0" style="stop-color:#5E3F2F"/>
	<stop  offset="0.6442" style="stop-color:#4F3529"/>
	<stop  offset="0.9387" style="stop-color:#4F3529"/>
</linearGradient>
<path display="none" fill="url(#SVGID_4_)" d="M376.306,94.558h718.661V56.943H469.291
	C433.248,68.479,402.499,81.294,376.306,94.558z"/>
<path display="none" fill="#7A7979" d="M1465.082,709.906H230.209V224.323l0.115-0.325c0.797-2.243,20.52-55.568,106.694-109.608
	c50.449-31.635,113.335-56.834,186.912-74.898c91.867-22.554,200.78-33.99,323.716-33.99c122.934,0,231.848,11.436,323.715,33.99
	c73.578,18.064,136.465,43.263,186.912,74.898c86.174,54.041,105.896,107.365,106.693,109.608l0.115,0.325V709.906z M234.206,705.91
	h1226.88V225.034c-1.74-4.444-23.455-56.289-105.35-107.516c-78.777-49.278-230.873-108.02-508.09-108.02
	c-277.218,0-429.313,58.742-508.091,108.02c-81.895,51.228-103.609,103.072-105.35,107.516V705.91z"/>
<polygon display="none" opacity="0.52" fill="#F4F3F2" points="257.4,684.684 257.4,332.716 1062.746,480.597 1062.746,684.683 "/>
<rect x="322.176" y="220.226" display="none" fill="#F4F4F4" width="171.562" height="226.494"/>
<path display="none" fill="#EAE9DA" d="M333.089,436.951h150.1V332.716c0,0-4.818-68.502-50.573-68.502
	c-45.754,0-24.658,80.362-24.658,80.362L333.089,436.951z"/>
<rect x="333.089" y="384.546" display="none" opacity="0.82" fill="#9B9B97" width="138.198" height="15.321"/>
<rect x="360.355" y="410.526" display="none" opacity="0.82" fill="#9B9B97" width="83.666" height="15.321"/>
<rect x="741.219" y="384.546" display="none" opacity="0.82" fill="#9B9B97" width="138.197" height="15.321"/>
<rect x="741.219" y="237.103" display="none" opacity="0.82" fill="#9B9B97" width="138.197" height="15.322"/>
<rect x="768.485" y="410.526" display="none" opacity="0.82" fill="#9B9B97" width="83.665" height="15.321"/>
<circle display="none" fill="#DDDDDB" cx="802.624" cy="313.044" r="32.419"/>
<polyline display="none" fill="#E5E5E5" points="728.102,707.909 1116.537,707.909 1379.924,1073.354 4.823,1073.354 
	234.695,707.909 728.102,707.909 "/>
<path display="none" fill="#CCCCCC" d="M1385.129,1076.019H0l233.224-370.774H1117.9l0.799,1.106L1385.129,1076.019z
	 M9.648,1070.688h1365.07l-259.545-360.116H236.167L9.648,1070.688z"/>
<path display="none" fill="#F2F2F2" d="M1050.756,1056.46H61.561l181.852-322.857h19.984L172.65,908.146
	C172.65,908.146,145.495,1056.46,1050.756,1056.46z"/>
<linearGradient id="SVGID_5_" gradientUnits="userSpaceOnUse" x1="126.6206" y1="555.1152" x2="126.6206" y2="431.5155" gradientTransform="matrix(1 0 0 -1 244 1180.7148)">
	<stop  offset="0" style="stop-color:#5E3F2F"/>
	<stop  offset="0.6442" style="stop-color:#4F3529"/>
	<stop  offset="0.9387" style="stop-color:#4F3529"/>
</linearGradient>
<rect x="151.125" y="591.797" display="none" fill="url(#SVGID_5_)" width="438.99" height="175.584"/>
<path display="none" fill="#3D251A" d="M592.113,769.38H149.127V589.798h442.986V769.38z M153.124,765.383h434.992V593.795H153.124
	V765.383z"/>
<rect x="135.091" y="569.405" display="none" fill="#3D251A" width="471.895" height="19.36"/>
<path display="none" fill="#3D251A" d="M608.984,590.765H133.092v-23.358h475.893V590.765z M137.089,586.769h467.898v-15.366
	H137.089V586.769z"/>
<polygon display="none" fill="#684536" points="157.777,602.416 585.452,602.416 585.452,636.39 "/>
<polygon display="none" opacity="0.33" fill="#3D251A" points="157.777,675.065 157.777,759.002 585.452,759.002 "/>
<rect x="135.091" y="570.736" display="none" opacity="0.43" fill="#684536" width="471.895" height="3.933"/>
<path display="none" fill="#2B2B2B" d="M576.506,553.983l7.604-27.508c0,0,2.683-17.221-2.908-17.221s-15.879,0-15.879,0
	s-4.25-3.13-4.25-12.972c0,0-0.893-3.019-3.019-3.019c-1.734,0-7.829,0-10.008,0c-0.489,0-0.783,0-0.783,0
	c-2.179,0-8.272,0-10.007,0c-2.125,0-3.021,3.019-3.021,3.019c0,9.842-4.249,12.972-4.249,12.972s-10.288,0-15.879,0
	s-2.907,17.221-2.907,17.221l10.959,27.508l-12.301,13.446h37.404h0.783h37.406L576.506,553.983z"/>
<radialGradient id="SVGID_6_" cx="289.3784" cy="670.7393" r="4.9714" fx="286.5908" fy="667.3325" gradientTransform="matrix(1 0 0 -1 244 1180.7148)" gradientUnits="userSpaceOnUse">
	<stop  offset="0" style="stop-color:#FFF6BF"/>
	<stop  offset="0.5644" style="stop-color:#FFAC00"/>
	<stop  offset="1" style="stop-color:#FFC900"/>
</radialGradient>
<circle display="none" fill="url(#SVGID_6_)" cx="533.379" cy="509.975" r="4.972"/>
<path display="none" fill="#D19A00" d="M533.379,515.613c-3.108,0-5.638-2.529-5.638-5.639c0-3.108,2.529-5.638,5.638-5.638
	c3.107,0,5.638,2.53,5.638,5.638C539.017,513.084,536.486,515.613,533.379,515.613z M533.379,505.669
	c-2.374,0-4.306,1.932-4.306,4.306c0,2.375,1.932,4.307,4.306,4.307s4.305-1.933,4.305-4.307
	C537.684,507.601,535.753,505.669,533.379,505.669z"/>
<radialGradient id="SVGID_7_" cx="295.3516" cy="662.502" r="4.9727" fx="292.5632" fy="659.0944" gradientTransform="matrix(1 0 0 -1 244 1180.7148)" gradientUnits="userSpaceOnUse">
	<stop  offset="0" style="stop-color:#FFF6BF"/>
	<stop  offset="0.5644" style="stop-color:#FFAC00"/>
	<stop  offset="1" style="stop-color:#FFC900"/>
</radialGradient>
<circle display="none" fill="url(#SVGID_7_)" cx="539.352" cy="518.213" r="4.972"/>
<path display="none" fill="#D19A00" d="M539.352,523.851c-3.109,0-5.639-2.529-5.639-5.639c0-3.108,2.529-5.638,5.639-5.638
	s5.639,2.529,5.639,5.638C544.99,521.321,542.461,523.851,539.352,523.851z M539.352,513.907c-2.374,0-4.307,1.931-4.307,4.305
	c0,2.375,1.933,4.307,4.307,4.307c2.375,0,4.307-1.932,4.307-4.307C543.658,515.838,541.727,513.907,539.352,513.907z"/>
<radialGradient id="SVGID_8_" cx="303.3706" cy="657.1738" r="4.9719" fx="300.5826" fy="653.7667" gradientTransform="matrix(1 0 0 -1 244 1180.7148)" gradientUnits="userSpaceOnUse">
	<stop  offset="0" style="stop-color:#FFF6BF"/>
	<stop  offset="0.5644" style="stop-color:#FFAC00"/>
	<stop  offset="1" style="stop-color:#FFC900"/>
</radialGradient>
<path display="none" fill="url(#SVGID_8_)" d="M547.372,518.569c2.745,0,4.971,2.227,4.971,4.972c0,2.747-2.226,4.973-4.971,4.973
	c-2.748,0-4.974-2.226-4.974-4.973C542.398,520.796,544.624,518.569,547.372,518.569z"/>
<path display="none" fill="#D19A00" d="M547.372,529.18c-3.11,0-5.64-2.529-5.64-5.639c0-3.108,2.529-5.638,5.64-5.638
	c3.107,0,5.638,2.529,5.638,5.638C553.01,526.651,550.479,529.18,547.372,529.18z M547.372,519.236
	c-2.375,0-4.308,1.932-4.308,4.305c0,2.375,1.933,4.307,4.308,4.307c2.374,0,4.305-1.932,4.305-4.307
	C551.677,521.167,549.746,519.236,547.372,519.236z"/>
<radialGradient id="SVGID_9_" cx="313.3164" cy="662.502" r="4.9722" fx="310.5283" fy="659.0947" gradientTransform="matrix(1 0 0 -1 244 1180.7148)" gradientUnits="userSpaceOnUse">
	<stop  offset="0" style="stop-color:#FFF6BF"/>
	<stop  offset="0.5644" style="stop-color:#FFAC00"/>
	<stop  offset="1" style="stop-color:#FFC900"/>
</radialGradient>
<circle display="none" fill="url(#SVGID_9_)" cx="557.317" cy="518.213" r="4.972"/>
<path display="none" fill="#D19A00" d="M557.317,523.851c-3.109,0-5.639-2.529-5.639-5.639c0-3.108,2.529-5.638,5.639-5.638
	c3.108,0,5.638,2.529,5.638,5.638C562.955,521.321,560.426,523.851,557.317,523.851z M557.317,513.907
	c-2.375,0-4.307,1.931-4.307,4.305c0,2.375,1.932,4.307,4.307,4.307c2.374,0,4.305-1.932,4.305-4.307
	C561.622,515.838,559.691,513.907,557.317,513.907z"/>
<radialGradient id="SVGID_10_" cx="320.5962" cy="670.4961" r="4.9724" fx="317.8079" fy="667.0886" gradientTransform="matrix(1 0 0 -1 244 1180.7148)" gradientUnits="userSpaceOnUse">
	<stop  offset="0" style="stop-color:#FFF6BF"/>
	<stop  offset="0.5644" style="stop-color:#FFAC00"/>
	<stop  offset="1" style="stop-color:#FFC900"/>
</radialGradient>
<circle display="none" fill="url(#SVGID_10_)" cx="564.596" cy="510.219" r="4.972"/>
<path display="none" fill="#D19A00" d="M564.596,515.857c-3.108,0-5.638-2.53-5.638-5.639c0-3.108,2.529-5.638,5.638-5.638
	c3.109,0,5.639,2.529,5.639,5.638C570.234,513.327,567.705,515.857,564.596,515.857z M564.596,505.913
	c-2.374,0-4.306,1.931-4.306,4.305c0,2.375,1.932,4.307,4.306,4.307s4.307-1.932,4.307-4.307
	C568.902,507.844,566.97,505.913,564.596,505.913z"/>
<path display="none" fill="#2B2B2B" d="M474.604,553.983l7.604-27.508c0,0,2.684-17.221-2.907-17.221s-15.879,0-15.879,0
	s-4.25-3.13-4.25-12.972c0,0-0.894-3.019-3.019-3.019c-1.735,0-7.829,0-10.008,0c-0.489,0-0.783,0-0.783,0
	c-2.179,0-8.273,0-10.008,0c-2.125,0-3.02,3.019-3.02,3.019c0,9.842-4.249,12.972-4.249,12.972s-10.288,0-15.879,0
	s-2.908,17.221-2.908,17.221l10.959,27.508l-12.301,13.446h37.405h0.783h37.405L474.604,553.983z"/>
<radialGradient id="SVGID_11_" cx="430.145" cy="509.9756" r="4.9719" gradientUnits="userSpaceOnUse">
	<stop  offset="0" style="stop-color:#FFFFFF"/>
	<stop  offset="0.5215" style="stop-color:#D3D3D3"/>
	<stop  offset="1" style="stop-color:#727272"/>
</radialGradient>
<circle display="none" fill="url(#SVGID_11_)" cx="430.146" cy="509.975" r="4.972"/>
<path display="none" fill="#727272" d="M430.146,515.613c-3.109,0-5.639-2.529-5.639-5.639c0-3.108,2.529-5.638,5.639-5.638
	c3.108,0,5.638,2.53,5.638,5.638C435.783,513.084,433.254,515.613,430.146,515.613z M430.146,505.669
	c-2.375,0-4.306,1.932-4.306,4.306c0,2.375,1.931,4.307,4.306,4.307c2.374,0,4.306-1.933,4.306-4.307
	C434.451,507.601,432.52,505.669,430.146,505.669z"/>
<radialGradient id="SVGID_12_" cx="436.1187" cy="518.2129" r="4.9719" gradientUnits="userSpaceOnUse">
	<stop  offset="0" style="stop-color:#FFFFFF"/>
	<stop  offset="0.5215" style="stop-color:#D3D3D3"/>
	<stop  offset="1" style="stop-color:#727272"/>
</radialGradient>
<circle display="none" fill="url(#SVGID_12_)" cx="436.118" cy="518.213" r="4.972"/>
<path display="none" fill="#727272" d="M436.118,523.851c-3.108,0-5.638-2.529-5.638-5.639c0-3.108,2.529-5.638,5.638-5.638
	c3.109,0,5.639,2.529,5.639,5.638C441.757,521.321,439.228,523.851,436.118,523.851z M436.118,513.907
	c-2.374,0-4.306,1.931-4.306,4.305c0,2.375,1.932,4.307,4.306,4.307s4.307-1.932,4.307-4.307
	C440.425,515.838,438.492,513.907,436.118,513.907z"/>
<radialGradient id="SVGID_13_" cx="444.1372" cy="523.5415" r="4.9722" gradientUnits="userSpaceOnUse">
	<stop  offset="0" style="stop-color:#FFFFFF"/>
	<stop  offset="0.5215" style="stop-color:#D3D3D3"/>
	<stop  offset="1" style="stop-color:#727272"/>
</radialGradient>
<circle display="none" fill="url(#SVGID_13_)" cx="444.138" cy="523.542" r="4.972"/>
<path display="none" fill="#727272" d="M444.138,529.18c-3.109,0-5.639-2.529-5.639-5.639c0-3.108,2.529-5.638,5.639-5.638
	s5.639,2.529,5.639,5.638C449.776,526.651,447.247,529.18,444.138,529.18z M444.138,519.236c-2.374,0-4.307,1.932-4.307,4.305
	c0,2.375,1.933,4.307,4.307,4.307c2.375,0,4.307-1.932,4.307-4.307C448.444,521.167,446.513,519.236,444.138,519.236z"/>
<radialGradient id="SVGID_14_" cx="454.0835" cy="518.2129" r="4.9719" gradientUnits="userSpaceOnUse">
	<stop  offset="0" style="stop-color:#FFFFFF"/>
	<stop  offset="0.5215" style="stop-color:#D3D3D3"/>
	<stop  offset="1" style="stop-color:#727272"/>
</radialGradient>
<circle display="none" fill="url(#SVGID_14_)" cx="454.083" cy="518.213" r="4.972"/>
<path display="none" fill="#727272" d="M454.083,523.851c-3.108,0-5.638-2.529-5.638-5.639c0-3.108,2.529-5.638,5.638-5.638
	c3.109,0,5.639,2.529,5.639,5.638C459.722,521.321,457.192,523.851,454.083,523.851z M454.083,513.907
	c-2.374,0-4.306,1.931-4.306,4.305c0,2.375,1.932,4.307,4.306,4.307c2.375,0,4.307-1.932,4.307-4.307
	C458.39,515.838,456.458,513.907,454.083,513.907z"/>
<radialGradient id="SVGID_15_" cx="461.3628" cy="510.2188" r="4.9719" gradientUnits="userSpaceOnUse">
	<stop  offset="0" style="stop-color:#FFFFFF"/>
	<stop  offset="0.5215" style="stop-color:#D3D3D3"/>
	<stop  offset="1" style="stop-color:#727272"/>
</radialGradient>
<circle display="none" fill="url(#SVGID_15_)" cx="461.362" cy="510.219" r="4.972"/>
<path display="none" fill="#727272" d="M461.362,515.857c-3.108,0-5.638-2.53-5.638-5.639c0-3.108,2.529-5.638,5.638-5.638
	c3.109,0,5.639,2.529,5.639,5.638C467.001,513.327,464.472,515.857,461.362,515.857z M461.362,505.913
	c-2.374,0-4.306,1.931-4.306,4.305c0,2.375,1.932,4.307,4.306,4.307c2.375,0,4.307-1.932,4.307-4.307
	C465.669,507.844,463.737,505.913,461.362,505.913z"/>
<path display="none" fill="#2B2B2B" d="M362.669,553.983l7.604-27.508c0,0,2.683-17.221-2.908-17.221s-15.879,0-15.879,0
	s-4.251-3.13-4.251-12.972c0,0-0.892-3.019-3.018-3.019c-1.734,0-7.829,0-10.008,0c-0.489,0-0.783,0-0.783,0
	c-2.179,0-8.273,0-10.007,0c-2.125,0-3.021,3.019-3.021,3.019c0,9.842-4.249,12.972-4.249,12.972s-10.288,0-15.879,0
	s-2.907,17.221-2.907,17.221l10.959,27.508l-12.301,13.446h37.404h0.783h37.405L362.669,553.983z"/>
<radialGradient id="SVGID_16_" cx="75.541" cy="670.7393" r="4.9717" fx="72.7532" fy="667.3323" gradientTransform="matrix(1 0 0 -1 244 1180.7148)" gradientUnits="userSpaceOnUse">
	<stop  offset="0" style="stop-color:#FFF6BF"/>
	<stop  offset="0.5644" style="stop-color:#FFAC00"/>
	<stop  offset="1" style="stop-color:#FFC900"/>
</radialGradient>
<circle display="none" fill="url(#SVGID_16_)" cx="319.542" cy="509.975" r="4.972"/>
<path display="none" fill="#D19A00" d="M319.542,515.613c-3.108,0-5.638-2.529-5.638-5.639c0-3.108,2.529-5.638,5.638-5.638
	c3.107,0,5.637,2.53,5.637,5.638C325.179,513.084,322.649,515.613,319.542,515.613z M319.542,505.669
	c-2.374,0-4.307,1.932-4.307,4.306c0,2.375,1.933,4.307,4.307,4.307c2.373,0,4.305-1.933,4.305-4.307
	C323.847,507.601,321.915,505.669,319.542,505.669z"/>
<radialGradient id="SVGID_17_" cx="81.5146" cy="662.502" r="4.9727" fx="78.7263" fy="659.0944" gradientTransform="matrix(1 0 0 -1 244 1180.7148)" gradientUnits="userSpaceOnUse">
	<stop  offset="0" style="stop-color:#FFF6BF"/>
	<stop  offset="0.5644" style="stop-color:#FFAC00"/>
	<stop  offset="1" style="stop-color:#FFC900"/>
</radialGradient>
<circle display="none" fill="url(#SVGID_17_)" cx="325.515" cy="518.213" r="4.972"/>
<path display="none" fill="#D19A00" d="M325.515,523.851c-3.109,0-5.639-2.529-5.639-5.639c0-3.108,2.529-5.638,5.639-5.638
	s5.639,2.529,5.639,5.638C331.153,521.321,328.624,523.851,325.515,523.851z M325.515,513.907c-2.374,0-4.307,1.931-4.307,4.305
	c0,2.375,1.933,4.307,4.307,4.307c2.375,0,4.307-1.932,4.307-4.307C329.821,515.838,327.89,513.907,325.515,513.907z"/>
<radialGradient id="SVGID_18_" cx="89.5337" cy="657.1738" r="4.9719" fx="86.7457" fy="653.7667" gradientTransform="matrix(1 0 0 -1 244 1180.7148)" gradientUnits="userSpaceOnUse">
	<stop  offset="0" style="stop-color:#FFF6BF"/>
	<stop  offset="0.5644" style="stop-color:#FFAC00"/>
	<stop  offset="1" style="stop-color:#FFC900"/>
</radialGradient>
<path display="none" fill="url(#SVGID_18_)" d="M333.535,518.569c2.745,0,4.971,2.227,4.971,4.972c0,2.747-2.226,4.973-4.971,4.973
	c-2.748,0-4.974-2.226-4.974-4.973C328.562,520.796,330.787,518.569,333.535,518.569z"/>
<path display="none" fill="#D19A00" d="M333.535,529.18c-3.11,0-5.64-2.529-5.64-5.639c0-3.108,2.529-5.638,5.64-5.638
	c3.107,0,5.638,2.529,5.638,5.638C339.173,526.651,336.643,529.18,333.535,529.18z M333.535,519.236
	c-2.375,0-4.308,1.932-4.308,4.305c0,2.375,1.933,4.307,4.308,4.307c2.374,0,4.305-1.932,4.305-4.307
	C337.84,521.167,335.909,519.236,333.535,519.236z"/>
<radialGradient id="SVGID_19_" cx="99.479" cy="662.502" r="4.9724" fx="96.6908" fy="659.0945" gradientTransform="matrix(1 0 0 -1 244 1180.7148)" gradientUnits="userSpaceOnUse">
	<stop  offset="0" style="stop-color:#FFF6BF"/>
	<stop  offset="0.5644" style="stop-color:#FFAC00"/>
	<stop  offset="1" style="stop-color:#FFC900"/>
</radialGradient>
<circle display="none" fill="url(#SVGID_19_)" cx="343.48" cy="518.213" r="4.972"/>
<path display="none" fill="#D19A00" d="M343.48,523.851c-3.11,0-5.639-2.529-5.639-5.639c0-3.108,2.528-5.638,5.639-5.638
	c3.108,0,5.638,2.529,5.638,5.638C349.118,521.321,346.589,523.851,343.48,523.851z M343.48,513.907
	c-2.375,0-4.307,1.931-4.307,4.305c0,2.375,1.932,4.307,4.307,4.307c2.374,0,4.305-1.932,4.305-4.307
	C347.785,515.838,345.854,513.907,343.48,513.907z"/>
<radialGradient id="SVGID_20_" cx="106.7593" cy="670.4961" r="4.9724" fx="103.971" fy="667.0886" gradientTransform="matrix(1 0 0 -1 244 1180.7148)" gradientUnits="userSpaceOnUse">
	<stop  offset="0" style="stop-color:#FFF6BF"/>
	<stop  offset="0.5644" style="stop-color:#FFAC00"/>
	<stop  offset="1" style="stop-color:#FFC900"/>
</radialGradient>
<circle display="none" fill="url(#SVGID_20_)" cx="350.759" cy="510.219" r="4.972"/>
<path display="none" fill="#D19A00" d="M350.759,515.857c-3.108,0-5.638-2.53-5.638-5.639c0-3.108,2.529-5.638,5.638-5.638
	c3.109,0,5.639,2.529,5.639,5.638C356.397,513.327,353.868,515.857,350.759,515.857z M350.759,505.913
	c-2.374,0-4.306,1.931-4.306,4.305c0,2.375,1.932,4.307,4.306,4.307s4.307-1.932,4.307-4.307
	C355.065,507.844,353.133,505.913,350.759,505.913z"/>
<path display="none" fill="#2B2B2B" d="M260.768,553.983l7.604-27.508c0,0,2.684-17.221-2.907-17.221c-5.592,0-15.879,0-15.879,0
	s-4.25-3.13-4.25-12.972c0,0-0.895-3.019-3.019-3.019c-1.735,0-7.829,0-10.008,0c-0.489,0-0.783,0-0.783,0c-2.18,0-8.273,0-10.008,0
	c-2.125,0-3.02,3.019-3.02,3.019c0,9.842-4.249,12.972-4.249,12.972s-10.288,0-15.879,0c-5.592,0-2.908,17.221-2.908,17.221
	l10.959,27.508L194.12,567.43h37.405h0.783h37.404L260.768,553.983z"/>
<radialGradient id="SVGID_21_" cx="216.3081" cy="509.9756" r="4.9719" gradientUnits="userSpaceOnUse">
	<stop  offset="0" style="stop-color:#FFFFFF"/>
	<stop  offset="0.5215" style="stop-color:#D3D3D3"/>
	<stop  offset="1" style="stop-color:#727272"/>
</radialGradient>
<circle display="none" fill="url(#SVGID_21_)" cx="216.309" cy="509.975" r="4.972"/>
<path display="none" fill="#727272" d="M216.309,515.613c-3.109,0-5.639-2.529-5.639-5.639c0-3.108,2.529-5.638,5.639-5.638
	c3.108,0,5.638,2.53,5.638,5.638C221.946,513.084,219.417,515.613,216.309,515.613z M216.309,505.669
	c-2.375,0-4.307,1.932-4.307,4.306c0,2.375,1.932,4.307,4.307,4.307c2.374,0,4.306-1.933,4.306-4.307
	C220.614,507.601,218.683,505.669,216.309,505.669z"/>
<radialGradient id="SVGID_22_" cx="222.2817" cy="518.2129" r="4.9719" gradientUnits="userSpaceOnUse">
	<stop  offset="0" style="stop-color:#FFFFFF"/>
	<stop  offset="0.5215" style="stop-color:#D3D3D3"/>
	<stop  offset="1" style="stop-color:#727272"/>
</radialGradient>
<circle display="none" fill="url(#SVGID_22_)" cx="222.28" cy="518.213" r="4.972"/>
<path display="none" fill="#727272" d="M222.28,523.851c-3.107,0-5.637-2.529-5.637-5.639c0-3.108,2.529-5.638,5.637-5.638
	c3.11,0,5.64,2.529,5.64,5.638C227.92,521.321,225.391,523.851,222.28,523.851z M222.28,513.907c-2.373,0-4.305,1.931-4.305,4.305
	c0,2.375,1.932,4.307,4.305,4.307c2.375,0,4.307-1.932,4.307-4.307C226.587,515.838,224.655,513.907,222.28,513.907z"/>
<radialGradient id="SVGID_23_" cx="230.3003" cy="523.5415" r="4.9722" gradientUnits="userSpaceOnUse">
	<stop  offset="0" style="stop-color:#FFFFFF"/>
	<stop  offset="0.5215" style="stop-color:#D3D3D3"/>
	<stop  offset="1" style="stop-color:#727272"/>
</radialGradient>
<circle display="none" fill="url(#SVGID_23_)" cx="230.301" cy="523.542" r="4.972"/>
<path display="none" fill="#727272" d="M230.301,529.18c-3.109,0-5.639-2.529-5.639-5.639c0-3.108,2.529-5.638,5.639-5.638
	c3.108,0,5.639,2.529,5.639,5.638C235.939,526.651,233.409,529.18,230.301,529.18z M230.301,519.236
	c-2.374,0-4.307,1.932-4.307,4.305c0,2.375,1.933,4.307,4.307,4.307c2.375,0,4.306-1.932,4.306-4.307
	C234.606,521.167,232.676,519.236,230.301,519.236z"/>
<radialGradient id="SVGID_24_" cx="240.2461" cy="518.2129" r="4.9717" gradientUnits="userSpaceOnUse">
	<stop  offset="0" style="stop-color:#FFFFFF"/>
	<stop  offset="0.5215" style="stop-color:#D3D3D3"/>
	<stop  offset="1" style="stop-color:#727272"/>
</radialGradient>
<circle display="none" fill="url(#SVGID_24_)" cx="240.246" cy="518.213" r="4.972"/>
<path display="none" fill="#727272" d="M240.246,523.851c-3.108,0-5.638-2.529-5.638-5.639c0-3.108,2.529-5.638,5.638-5.638
	c3.109,0,5.639,2.529,5.639,5.638C245.885,521.321,243.355,523.851,240.246,523.851z M240.246,513.907
	c-2.374,0-4.306,1.931-4.306,4.305c0,2.375,1.932,4.307,4.306,4.307c2.375,0,4.306-1.932,4.306-4.307
	C244.552,515.838,242.621,513.907,240.246,513.907z"/>
<radialGradient id="SVGID_25_" cx="247.5259" cy="510.2188" r="4.9719" gradientUnits="userSpaceOnUse">
	<stop  offset="0" style="stop-color:#FFFFFF"/>
	<stop  offset="0.5215" style="stop-color:#D3D3D3"/>
	<stop  offset="1" style="stop-color:#727272"/>
</radialGradient>
<circle display="none" fill="url(#SVGID_25_)" cx="247.525" cy="510.219" r="4.972"/>
<path display="none" fill="#727272" d="M247.525,515.857c-3.108,0-5.638-2.53-5.638-5.639c0-3.108,2.529-5.638,5.638-5.638
	c3.109,0,5.639,2.529,5.639,5.638C253.164,513.327,250.635,515.857,247.525,515.857z M247.525,505.913
	c-2.374,0-4.306,1.931-4.306,4.305c0,2.375,1.932,4.307,4.306,4.307c2.375,0,4.307-1.932,4.307-4.307
	C251.832,507.844,249.9,505.913,247.525,505.913z"/>
<polygon display="none" fill="#563426" points="1071.436,657.744 816.835,657.744 1071.436,581.062 "/>
<path display="none" fill="#472A1F" d="M1072.102,658.41H812.313l259.788-78.244V658.41z M821.357,657.079h249.412v-75.12
	L821.357,657.079z"/>
<linearGradient id="SVGID_26_" gradientUnits="userSpaceOnUse" x1="792.3296" y1="454.4873" x2="792.3296" y2="302.5797" gradientTransform="matrix(1 0 0 -1 244 1180.7148)">
	<stop  offset="0" style="stop-color:#5E3F2F"/>
	<stop  offset="0.6442" style="stop-color:#4F3529"/>
	<stop  offset="0.9387" style="stop-color:#4F3529"/>
</linearGradient>
<rect x="816.835" y="684.683" display="none" fill="url(#SVGID_26_)" width="438.989" height="215.798"/>
<path display="none" fill="#3D251A" d="M1257.822,902.479H814.837V682.684h442.985V902.479z M818.833,898.482h434.993V686.682
	H818.833V898.482z"/>
<rect x="802.623" y="658.41" display="none" fill="#3D251A" width="450.361" height="26.273"/>
<path display="none" fill="#3D251A" d="M1254.982,686.683H800.625v-30.27h454.357V686.683z M804.622,682.686h446.364v-22.276
	H804.622V682.686z"/>
<polygon display="none" fill="#684536" points="823.488,690.922 1251.162,690.922 1251.162,724.896 "/>
<polygon display="none" opacity="0.33" fill="#3D251A" points="823.488,808.165 823.488,892.102 1251.162,892.102 "/>
<rect x="802.623" y="658.41" display="none" opacity="0.43" fill="#684536" width="450.361" height="3.932"/>
<linearGradient id="SVGID_27_" gradientUnits="userSpaceOnUse" x1="1354.4844" y1="190.999" x2="1354.4844" y2="1004.5338">
	<stop  offset="0" style="stop-color:#D7D8D6"/>
	<stop  offset="1" style="stop-color:#B7B7B7"/>
</linearGradient>
<rect x="1076.326" y="7.5" display="none" fill="url(#SVGID_27_)" width="556.316" height="1065.854"/>
<path display="none" fill="#B5B4B4" d="M1637.533,1076.019h-566.098V4.835h566.098V1076.019z M1081.215,1070.688h546.539V10.164
	h-546.539V1070.688z"/>
<polygon display="none" opacity="0.33" fill="#AFAEAE" points="1094.967,1056.46 1468.414,410.746 1468.414,1054.258 "/>
<path display="none" d="M1522.084,1065.331c0,34.664,56.793,62.763,16.049,62.763h-267.252c-40.742,0-102.578-30.042-102.578-64.706
	l50.686-427.584c0-34.66,79.506-114.402,120.254-114.402l71.02-32.472c40.748,0,146.17,82.619,146.17,117.28L1522.084,1065.331z"/>
<path display="none" fill="#1E1E1E" d="M1546.141,613.555l-17.57,178.184l-5.551,102.04l-10.172,163.695l16.23,5.86l29.096-457.178
	c0-32.726-107.533-119.527-140.529-124.622c-3.576,3.034-6.352,6.5-8.859,7.009C1420.072,490.977,1551.803,550.47,1546.141,613.555z
	"/>
<path display="none" fill="#1E1E1E" d="M1482.096,528.838c-1.617-0.347-2.268-0.355-1.617-0.09
	C1481.006,528.961,1481.547,528.954,1482.096,528.838z"/>
<path display="none" fill="#1E1E1E" d="M1302.744,528.617c0,0-34.096-25.066-43.182-20.442
	c-9.086,4.625-53.611,120.229-53.611,120.229S1325.832,552.452,1302.744,528.617z"/>
<linearGradient id="SVGID_28_" gradientUnits="userSpaceOnUse" x1="1257.7354" y1="325.1777" x2="1419.5875" y2="479.631" gradientTransform="matrix(0.9419 -0.3358 0.3358 0.9419 -60.3643 439.2244)">
	<stop  offset="0" style="stop-color:#FFD8BF"/>
	<stop  offset="1" style="stop-color:#EFA57F"/>
</linearGradient>
<path display="none" fill="url(#SVGID_28_)" d="M1443.225,308.577c30.875,86.598-4.416,178.308-78.828,204.839
	c-74.412,26.532-159.766-22.164-190.641-108.762c-30.879-86.6,4.414-178.311,78.828-204.843
	C1326.996,173.28,1412.348,221.976,1443.225,308.577z"/>
<path display="none" fill="#F9EBE4" d="M1368.811,507.916c-72.373,25.803-155.775-21.982-185.914-106.521
	c-30.143-84.538,4.213-174.311,76.586-200.114c26.609-9.488,54.699-8.994,81.09-0.418c-28.418-10.264-59.025-11.379-87.988-1.052
	c-26.549,9.466-48.082,27.257-63.447,50.126c-26.141,41.885-32.801,98.998-13.211,153.942
	c19.586,54.932,60.859,94.94,107.59,110.845c26.371,8.002,54.316,8.163,80.881-1.309c28.951-10.321,51.943-30.537,67.459-56.449
	C1416.84,480.293,1395.406,498.433,1368.811,507.916z"/>
<ellipse transform="matrix(0.9419 -0.3358 0.3358 0.9419 -43.7681 460.1467)" display="none" fill="none" cx="1308.49" cy="356.615" rx="143.042" ry="166.469"/>
<path display="none" d="M1364.428,517.333c-76.213,27.173-163.855-22.625-195.367-111.005
	c-31.514-88.383,4.855-182.396,81.068-209.569c76.217-27.174,163.857,22.624,195.369,111.007
	C1477.01,396.147,1440.645,490.159,1364.428,517.333z M1252.613,203.728c-72.371,25.803-106.729,115.576-76.586,200.115
	s113.545,132.324,185.916,106.521c72.369-25.803,106.727-115.574,76.586-200.113
	C1408.387,225.711,1324.984,177.924,1252.613,203.728z"/>
<path display="none" opacity="0.35" fill="#C98061" d="M1436.238,291.603c-27.896-18.655-70.094-4.631-70.094-4.631
	c0-0.002,18.703,51.838,39.934,78.979c6.977,37.248,1.906,85.875-37.268,141.966c0,0,54.119-11.05,79.789-90.881
	c8.9-33.419,7.836-71.403-5.375-108.458C1441.143,302.737,1438.793,297.086,1436.238,291.603z"/>
<path display="none" d="M1364.428,517.333c-76.213,27.173-163.855-22.625-195.367-111.005
	c-31.514-88.383,4.855-182.396,81.068-209.569c76.217-27.174,163.857,22.624,195.369,111.007
	C1477.01,396.147,1440.645,490.159,1364.428,517.333z M1252.613,203.728c-72.371,25.803-106.729,115.576-76.586,200.115
	s113.545,132.324,185.916,106.521c72.369-25.803,106.727-115.574,76.586-200.113
	C1408.387,225.711,1324.984,177.924,1252.613,203.728z"/>
<path display="none" fill="#B7B1AC" d="M1380.307,199.118c0,0-32.988,31.399-42.025,61.132
	c-9.035,29.731,52.967,71.446,66.656,68.529c13.688-2.916,43.336-15.129,46.262,9.448c2.924,24.575,20.406,31.585,35.152,23.38
	C1501.102,353.402,1453.686,140.554,1380.307,199.118z"/>
<path display="none" fill="#B7B1AC" d="M1335.346,265.223c0,0-76.168,59.559-140.412,22.571
	c-39.393-7.408-38.691,31.918-38.691,31.918s-42.691-6.828-38.807-59.271c3.887-52.442,211.258-203.333,274.078-68.448
	C1391.875,206.775,1335.346,265.223,1335.346,265.223z"/>
<path display="none" d="M1465.809,244.67c-21.123-46.658-46.152-66.448-72.389-57.247c-25.555-51.407-76.094-66.649-142.723-42.893
	c-69.781,24.88-134.711,85.389-136.951,115.638c-4.09,55.192,41.447,63.123,41.912,63.195l4.34,0.688l-0.057-4.4
	c-0.008-0.172,3.795-14.355,12.023-22.85c0.984-3.798,1.275-4.414,2.516-8.088c-14.205,6.334-20.803,18.64-21.666,26.356
	c-9.967-3.066-34.629-14.702-31.691-54.356c2.062-27.863,66.477-85.831,132.059-109.214c36.82-13.129,103.143-25.154,134.623,41.3
	l0.055,5.062l5.158-2.316c16.633-7.478,32.789-0.308,48.482,21.148c33.34,45.582,48.645,133.052,42.805,141.815
	c-6.357,3.448-13.225,3.534-18.559,0.227c-5.834-3.62-9.695-11.057-10.875-20.949c-0.734-6.171-5.844-8.323-9.691-11.43
	c2.955,11.059,7.645,19.612,8.564,30.56c2.219,3.367,4.922,6.135,8.107,8.108c6.373,3.951,14.051,4.641,21.619,1.942
	c1.586-0.565,3.16-1.28,4.684-2.129C1500.51,357.964,1485.615,288.432,1465.809,244.67z"/>
<path display="none" fill="#DDDDDD" d="M1480.229,355.445c0,0-10.953-168.412-84.646-160.301c0,0,20.398,5.491,27.92,18.028
	c7.525,12.536-0.645-7.625-0.645-7.625s41.836,51.85,51.428,150.053C1474.76,360.371,1480.229,355.445,1480.229,355.445z"/>
<path display="none" fill="#DDDDDD" d="M1383.281,191.838c0,0-33.473-71.852-133.156-35.655
	c-99.678,36.196-126.477,107.935-126.477,107.935l15.486-15.341l-3.697,9.83l10.623-14.263c0,0,136.494-160.598,231.32-50.402
	C1380.307,199.118,1383.281,191.838,1383.281,191.838z"/>
<path display="none" opacity="0.75" fill="#FFD8BF" d="M1390.898,343.28l1.422-9.267l11.758-7.138l11.439-0.799l12.357,5.078
	l12.061,17.301l3.084,18.292l-2.529,22.503l-16.406,11.95c0,0,18.65-28.868-5.471-46.37c-13.156,1.483-11.404,5.071-11.404,5.071
	l-0.641-6.815l6.033-7.93l7.135-3.782C1419.736,341.375,1414.75,322.913,1390.898,343.28z"/>
<polygon display="none" opacity="0.35" fill="#C98061" points="1277.096,373.186 1389.688,333.042 1387.428,340.475 
	1278.971,386.019 "/>
<rect x="1272.698" y="341.127" transform="matrix(0.9419 -0.3358 0.3358 0.9419 -38.0166 472.4691)" display="none" fill="#3A1E13" width="148.502" height="10.035"/>
<path display="none" fill="#110A08" d="M1419.756,326.495l-141.619,50.493l-3.99-11.193l141.617-50.493L1419.756,326.495z
	 M1279.258,374.625l138.133-49.25l-2.748-7.71l-138.133,49.251L1279.258,374.625z"/>
<path display="none" d="M1383.082,343.804c0.002,0.062,0.014,0.111,0.018,0.167L1383.082,343.804z"/>
<path display="none" d="M1404.162,322.712c-9.156,2.028-16.758,9.133-20.848,19.499c-0.193,0.499-0.25,1.025-0.227,1.538
	l7.811-0.468c3.287-7.229,8.514-11.941,14.863-13.347c13.746-3.053,28.438,10.265,32.742,29.68
	c3.916,17.651-2.273,34.677-13.928,39.676l-2.094,8.114c0.416,0.046,0.838,0.046,1.258-0.044c0.043-0.008,0.09-0.021,0.131-0.032
	c17.387-4.524,26.99-26.183,21.857-49.315C1440.535,334.609,1421.889,318.776,1404.162,322.712z"/>
<path display="none" d="M1426.342,391.57c-1.064,0.378-2.232,0.503-3.48,0.359c-4.191-0.48-6.256-4.292-7.766-7.073
	c-2.133-3.932-4.342-7.998-1.463-13.491l3.275,1.717c-1.873,3.578-0.793,5.894,1.441,10.01c1.504,2.777,2.824,4.92,4.932,5.162
	c1.348,0.156,2.371-0.204,3.217-1.124c2.373-2.588,2.541-8.46,1.904-11.611c-1.299-6.434-5.172-14.459-10.078-17.344
	c-1.943-1.144-2.688-0.821-5.48,0.408c-3.572,1.573-5.621,3.34-5.539,4.749l0.455,7.887l-3.908-6.863
	c-2.689-4.718,1.467-13.713,3.285-16.458c1.006-1.515,8.322-8.635,13.031-7.964c1.611,0.23,2.783,1.276,3.291,2.941l-3.529,1.089
	c-0.107-0.343-0.182-0.354-0.289-0.367c-2.24-0.328-8.285,4.634-9.42,6.344c-1.25,1.885-2.547,4.94-3.18,7.663
	c1.143-0.841,2.555-1.634,4.252-2.38c2.998-1.329,5.326-2.341,8.906-0.24c6.113,3.596,10.42,12.785,11.83,19.8
	c0.754,3.735,0.658,11.071-2.807,14.846C1428.395,390.536,1427.426,391.184,1426.342,391.57z"/>
<rect x="1193.384" y="330.927" transform="matrix(0.8367 -0.5477 0.5477 0.8367 13.342 720.376)" display="none" fill="#B7B1AC" width="42.547" height="13.776"/>
<polygon display="none" opacity="0.35" fill="#C98061" points="1197.357,377.069 1268.111,361.415 1277.609,399.758 
	1283.379,397.699 1269.492,353.928 1194.631,372.518 "/>
<path display="none" d="M1241.348,332.996l-41.787,27.354l-11.596-17.718l41.787-27.354L1241.348,332.996z M1200.633,355.228
	l35.596-23.3l-7.549-11.527l-35.594,23.3L1200.633,355.228z"/>
<path display="none" fill="#DDDDDD" d="M1197.766,344.199c0.777-0.055,1.445,1.757,1.984,2.346c0.551,0.618,1.592,2.083,2.379,2.433
	c0.75,0.335,0.787,0.267,0.531-0.66c-0.201-0.697-0.764-1.304-0.992-2.032c-0.248-0.786-0.234-1.749-0.549-2.493
	c-0.268-0.646-1.34-1.241-0.713-1.756c1.498-1.223,3.951,2.43,4.666,3.17c0.633,0.659,1.592,2.053,2.457,2.519
	c1.334,0.721,2.186-0.854,1.748-2.213c-0.291-0.91-5.697-5.289-2.668-5.953c1.549-0.34,2.227,1.683,3.146,2.346
	c0.701,0.511,0.822,0.571,1.553,0.065c1.174-0.811,0.768-1.766,0.469-2.971c-0.326-1.306-1.783-4.547,0.859-2.564
	c1.127,0.84,2.908,2.403,4.115,0.902c1.455-1.81-0.42-7.818,3.715-6.79c1.514,0.375,2.982,0.79,4.578,1.014
	c1.32,0.189,2.783,0.686,2.312-1.065c-0.488-1.814-2.357-2.085-1.896-4.21c0.395-1.822,1.467-2.034,3.027-1.277
	c0.926,0.45,2.139,1.442,2.881,2.135c0.943,0.879,1.234,2.257,2.535,2.711c0.199-0.181,0.393-0.378,0.592-0.572l-5.814-8.884
	l-35.596,23.303l3.787,5.782C1196.793,348.071,1196.166,344.3,1197.766,344.199z"/>
<path display="none" fill="#FFFFFF" d="M1261.424,381.36c4.488,7.729-15.828,17.561-23.553,22.048
	c-7.729,4.489-17.635,1.863-22.123-5.865c-4.49-7.729-1.863-17.635,5.865-22.124C1229.338,370.931,1256.936,373.632,1261.424,381.36
	z"/>
<circle display="none" cx="1222.348" cy="392.56" r="6.937"/>
<circle display="none" fill="#FFFFFF" cx="1224.354" cy="386.582" r="3.757"/>
<path display="none" fill="#B7B1AC" d="M1208.582,448.042c0,0-10.09,11.441-4.877,23.378c5.213,11.934,20.844,2.913,20.844,2.913
	l9.42-4.927l7.17,3.089l8.453-3.014l6.906-2.463l16.148-7.392l-6.965-3.416l-6.504-12.408c0,0-6.59-3.924-14.529-5.483
	c-7.943-1.556-20.098-3.182-22.756,0.903C1219.232,443.308,1208.582,448.042,1208.582,448.042z"/>
<path display="none" fill="#DDDDDD" d="M1255.443,455.396c1.418,2.432,2.5,4.475,5.609,2.917c-0.686-0.722-1.707-1.159-2.338-1.974
	c-1.145-1.494-1.824-3.867-2.732-5.545c-0.855-1.598-2.551-4.168-2.059-6.067c1.641,1.329,3.857,4.321,6.344,3.587
	c-0.141-2.891-1.039-3.814-3.332-5.21c-0.906-0.554-1.709-1.138-2.535-1.666c-1.279-0.557-2.744-1.139-4.377-1.681
	c-4.729-0.872-9.574-1.767-14.375-2.372c-2.387-0.301-5.107-0.964-7.41-0.553c-1.701,0.303-4.262,1.01-5.848,1.944
	c-0.154,0.154-0.383,0.266-0.498,0.445c-0.072,0.11-0.172,0.222-0.254,0.335c-0.035,0.182-0.068,0.37-0.184,0.484
	c-0.174,0.166-0.389,0.292-0.604,0.427c-1.102,1.124-2.639,2.259-4.275,3.294c-1.293,0.988-2.65,1.872-4.371,2.55
	c-0.127,0.052-0.23,0.088-0.35,0.139c-1.188,0.61-2.162,1.078-2.732,1.343c-0.193,0.142-0.389,0.276-0.594,0.457
	c-0.256,0.222-0.428,0.421-0.615,0.627c-0.092,0.119-0.176,0.231-0.283,0.375l0.109-0.038c-0.564,0.531-1.029,1.848-1.455,2.614
	c-0.416,0.747-0.902,1.34-1.396,1.923c-0.562,1.125-1.088,2.391-1.535,3.75c0.09,0.317,0.182,0.681,0.205,1.175
	c0.068,1.508-1.018,2.775-0.838,4.464c0.125,1.166,0.246,2.174,0.709,3.31c1.611-2.365,1.91-5.701,3.078-8.267
	c1.012-2.225,2.938-3.708,5.041-4.634c-1.162,1.886-2.088,3.282-2.377,5.549c-0.154,1.232,0.268,2.466-0.025,3.637
	c0.129-2.392,2.51-6.686,4.596-8.105c1.186,2.055-0.043,5.018,0.662,7.342c0.119-0.924,0.443-1.729,0.672-2.593
	c0.365-1.38,0.42-3.019,0.891-4.356c0.873-2.506,3.354-3.904,4.82-5.915c0.732,2.757,0.041,6.462,0.041,9.32
	c-0.004,1.755,0.209,3.228,0.635,4.925c0.621,2.494,1.291,6.068,3.297,7.808c-0.055-2.182,0.387-4.143-0.156-6.318
	c-0.445-1.759-0.811-3.562-0.834-5.392c-0.049-4.036,1.693-7.398,2.963-11.117c0.914,2.006,0.576,4.583,1.242,6.729
	c0.449,1.444,0.928,2.883,1.385,4.325c0.525,1.668,1.156,3.61,2.111,5.01c-1.021-3.168-0.375-7.099-0.939-10.4
	c-0.297-1.75-0.232-3.445-0.48-5.175c-0.121-0.885-0.746-1.739-0.463-2.615c1.021,3.038,2.182,6.014,3.365,8.991
	c1.254,3.146,1.893,6.144,4.225,8.665c2.723,2.942,5.68,4.241,9.645,3.941c-2.016-1.81-3.172-3.351-4.141-5.85
	c-1.285-3.324-3.176-6.108-4.725-9.25c-0.867-1.766-2.35-4.593-2.195-6.586c0.088-1.132,0.887-2.042,0.996-3.159
	c0.869,0.535,1.379,1.556,2.029,2.372c1.158,1.463,2.576,2.975,4.076,4.119c2.004,1.53,4.447,2.289,6.525,3.553
	c-1.559-1.522-2.078-2.269-3.062-4.361c-0.822-1.749-1.678-3.461-2.398-5.244c1.711,2.013,3.832,3.582,5.465,5.707
	C1251.203,451.466,1253.967,452.871,1255.443,455.396z"/>
<path display="none" fill="#020100" d="M1258.953,469.902l-16.502,5.883l-7.238-3.195l-8.857,4.661
	c-0.01,0.011-1.887,1.096-4.586,2.057c-9.199,3.281-16.266,1.051-19.389-6.119c-5.822-13.38,4.713-25.748,5.166-26.266l0.643-0.479
	c2.895-1.292,10.838-5.325,12.807-8.413c2.586-4.06,10.943-4.556,25.287-1.621c8.387,1.716,15.258,5.853,15.545,6.029l0.441,0.268
	l6.715,12.894l10.08,5.059L1258.953,469.902z M1242.596,471.806l14.961-5.335l12.967-5.958l-4.266-2.139l-6.779-13.023
	c-1.59-0.899-7.336-3.966-13.938-5.318c-9.369-1.918-16.393-2.309-19.775-1.103c-0.82,0.293-1.377,0.658-1.654,1.087
	c-2.699,4.235-11.748,8.585-14.008,9.621c-1.447,1.827-8.77,11.879-4.332,22.072c2.344,5.385,7.309,6.768,14.756,4.113
	c2.357-0.842,4.023-1.8,4.037-1.809l10.506-5.532L1242.596,471.806z"/>
<path display="none" fill="#FFD8BF" d="M1203.723,442.875c-31.41,24.696-49.029-12.546-49.029-12.546l17.584-80.709"/>
<path display="none" fill="#F9EBE4" d="M1172.123,346.549l6.076,19.677l-15.643,62.981c0,0,23.162,19.516,40.553,11.842l2.033,3.915
	l-12.107,4.317l-20.117-0.658l-18.846-20.038L1172.123,346.549z"/>
<path display="none" d="M1193.457,453.051c-21.094,6.193-37.227-10.943-42.102-21.124l-0.547-1.146l11.467-54.495l5.168-4.483
	l-8.85,58.005c2.549,4.637,21.207,22.824,39.219,17.533L1193.457,453.051z"/>
<rect x="1153.067" y="385.617" transform="matrix(0.9998 0.0219 -0.0219 0.9998 8.8379 -25.6205)" display="none" fill="#3A1E13" width="41.821" height="10.033"/>
<path display="none" fill="#110A08" d="M1195.676,397.052l-43.66-0.956l0.262-11.881l43.662,0.956L1195.676,397.052z
	 M1153.904,394.288l39.963,0.875l0.184-8.183l-39.965-0.874L1153.904,394.288z"/>
<path display="none" fill="#3A1E13" d="M1288.043,403.203l-87.57,21.177l-13.324-55.117l87.568-21.177L1288.043,403.203z
	 M1205.924,415.449l73.188-17.699l-9.848-40.731l-73.186,17.699L1205.924,415.449z"/>
<path display="none" fill="#110A08" d="M1289.156,403.885l-89.363,21.611l-13.762-56.915l89.369-21.611L1289.156,403.885z
	 M1201.156,423.265l85.773-20.745l-12.896-53.317l-85.768,20.741L1201.156,423.265z M1280.225,398.433l-74.979,18.131l-10.283-42.53
	l74.984-18.133L1280.225,398.433z M1206.609,414.333l71.389-17.265l-9.418-38.934l-71.389,17.265L1206.609,414.333z"/>
<path display="none" fill="#9B9692" d="M1370.199,226.229c0,0-28.463,19.096-25.195,28.732c3.264,9.637,19.961,66.032,98.633,58.846
	C1522.311,306.621,1344.234,332.58,1370.199,226.229z"/>
<path display="none" fill="#9B9692" d="M1199.797,280.223c0,0,53.684,35.188,145.207-25.262
	C1345.004,254.961,1250.697,289.566,1199.797,280.223z"/>
<linearGradient id="SVGID_29_" gradientUnits="userSpaceOnUse" x1="1353.2637" y1="397.0527" x2="1379.0234" y2="397.0527">
	<stop  offset="0" style="stop-color:#FFD8BF"/>
	<stop  offset="1" style="stop-color:#EFA57F"/>
</linearGradient>
<path display="none" fill="url(#SVGID_29_)" d="M1379.023,406.084c0,7.114-5.768,12.88-12.879,12.88l0,0
	c-7.113,0-12.881-5.766-12.881-12.88v-18.065c0-7.111,5.768-12.878,12.881-12.878l0,0c7.111,0,12.879,5.767,12.879,12.878V406.084z"
	/>
<path display="none" d="M1366.145,420.963c-8.205,0-14.879-6.675-14.879-14.879v-18.065c0-8.203,6.674-14.876,14.879-14.876
	c8.203,0,14.877,6.673,14.877,14.876v18.065C1381.021,414.289,1374.348,420.963,1366.145,420.963z M1366.145,377.14
	c-6,0-10.881,4.88-10.881,10.879v18.065c0,6,4.881,10.882,10.881,10.882c5.998,0,10.881-4.882,10.881-10.882v-18.065
	C1377.025,382.02,1372.143,377.14,1366.145,377.14z"/>
<rect x="1377.308" y="340.119" transform="matrix(0.8738 -0.4863 0.4863 0.8738 -18.545 738.3405)" display="none" fill="#383835" width="71.811" height="129.56"/>
<path display="none" fill="#30302E" d="M1393.975,444.163c0,0,48.686-39.456,10.514-106.755l9.361-5.208l62.24,111.843
	l-62.748,34.921L1393.975,444.163z"/>
<path display="none" d="M1478.662,444.776l-66.053,36.758l-64.84-116.513l66.049-36.759L1478.662,444.776z M1414.074,476.395
	l59.445-33.084l-61.164-109.907l-59.447,33.083L1414.074,476.395z"/>
<circle display="none" fill="#232322" cx="1390.727" cy="364.491" r="8.031"/>
<linearGradient id="SVGID_30_" gradientUnits="userSpaceOnUse" x1="1293.1953" y1="478.8428" x2="1452.6943" y2="478.8428" gradientTransform="matrix(0.9611 -0.2761 0.2761 0.9611 -81.7966 365.8202)">
	<stop  offset="0" style="stop-color:#FFD8BF"/>
	<stop  offset="1" style="stop-color:#EFA57F"/>
</linearGradient>
<path display="none" fill="url(#SVGID_30_)" d="M1438.082,404.358c-3.064-2.045-6.805-2.274-9.965-0.947
	c0.086-3.497-1.559-6.963-4.684-9.05c-4.852-3.24-11.41-1.932-14.648,2.92l-15.371,23.016l-0.396-0.236l16.764-25.104
	c3.24-4.854,1.934-11.411-2.916-14.65c-4.854-3.24-11.412-1.933-14.65,2.918l-17.363,26l-0.404-0.242l17.859-26.747
	c3.24-4.851,1.932-11.411-2.918-14.649c-4.852-3.24-11.41-1.932-14.648,2.918l-18.625,27.89c-0.014,0.022-0.023,0.045-0.037,0.065
	c-6.977-2.342-14.879,0.389-18.803,6.967l-38.453,64.475c-4.523,7.584-2.043,17.397,5.543,21.92l52.518,31.323
	c7.582,4.521,17.396,2.042,21.922-5.542l27.004-37.936c0.537-0.899,19-20.946,12.756-29.317c1.488-0.793,2.809-1.952,3.811-3.453
	l18.625-27.89C1444.238,414.156,1442.932,407.598,1438.082,404.358z"/>
<path display="none" d="M1365.057,527.404L1365.057,527.404c-3.23-0.001-6.41-0.879-9.197-2.541l-52.518-31.323
	c-4.127-2.461-7.049-6.382-8.227-11.039s-0.471-9.496,1.992-13.622l38.451-64.474c3.227-5.408,9.148-8.769,15.453-8.769
	c1.424,0,2.834,0.167,4.209,0.501l17.857-26.741c2.336-3.498,6.244-5.586,10.455-5.586c2.484,0,4.895,0.731,6.965,2.116
	c2.791,1.863,4.689,4.701,5.346,7.992c0.24,1.212,0.301,2.433,0.191,3.631c1.545-0.665,3.232-1.021,4.973-1.021
	c2.484,0,4.895,0.732,6.967,2.117c4.275,2.856,6.234,7.898,5.387,12.663c1.334-0.474,2.758-0.724,4.217-0.724
	c2.484,0,4.893,0.731,6.965,2.116c2.846,1.899,4.742,4.816,5.359,8.101c3.176-0.596,6.561,0.076,9.289,1.896
	c5.76,3.848,7.314,11.662,3.469,17.422l-18.623,27.89c-0.768,1.15-1.725,2.167-2.82,3.006c2.451,6.027-1.85,15.533-13.064,28.94
	c-0.35,0.417-0.592,0.703-0.691,0.836l-26.984,37.91C1377.238,524.071,1371.338,527.404,1365.057,527.404z M1351.012,399.634
	c-4.979,0-9.473,2.549-12.02,6.819l-38.453,64.474c-1.914,3.209-2.465,6.972-1.549,10.595c0.916,3.622,3.188,6.672,6.398,8.586
	l52.518,31.323c2.168,1.292,4.639,1.975,7.15,1.976l0,0c4.91,0,9.518-2.615,12.031-6.825l0.088-0.135l26.977-37.894
	c0.133-0.203,0.338-0.452,0.936-1.163c14.863-17.767,13.256-23.991,11.875-25.842l-1.391-1.864l2.051-1.094
	c1.26-0.671,2.299-1.612,3.088-2.798l18.627-27.892c2.619-3.927,1.561-9.256-2.365-11.879c-2.377-1.585-5.459-1.868-8.08-0.767
	l-2.848,1.196l0.074-3.086c0.07-2.961-1.346-5.706-3.795-7.34c-1.414-0.944-3.055-1.443-4.746-1.443
	c-2.873,0-5.539,1.424-7.131,3.81l-16.424,24.597l-3.836-2.287l17.934-26.853c2.619-3.926,1.559-9.256-2.365-11.878
	c-1.414-0.944-3.057-1.443-4.748-1.443c-2.873,0-5.539,1.424-7.131,3.809l-18.418,27.583l-3.84-2.296l19.025-28.493
	c1.271-1.902,1.725-4.185,1.277-6.429c-0.447-2.244-1.74-4.178-3.643-5.448c-1.414-0.944-3.055-1.443-4.746-1.443
	c-2.873,0-5.539,1.424-7.131,3.809l-19.533,29.22l-1.428-0.48C1354.012,399.877,1352.523,399.634,1351.012,399.634z"/>
<path display="none" fill="#E6E6E6" d="M1522.549,558.897c0,0-66.879,14.853-155.797,104.776l-18.973,9.206l-37.727,19.374
	l58.906-186.824c0,0-60.662-19.416-58.906-50.165c1.756-30.75-82.092,127.129-82.092,127.129l-17.986,163.209l25.59,30.644
	c0,0,13.316,51.96,27.793,54.625c14.477,2.664,188.123-10.658,188.123-10.658S1606.318,661.546,1522.549,558.897z"/>
<path display="none" fill="#D8D8D8" d="M1521.217,557.564c0,0-0.635,1.993-7.922,6.178l-4.145,9.228l-3.576,10.758l12.051,21.316
	v34.883l-12.051,13.747l-12.82,24.648l-19.012,34.639l-14.072,30.645l-27.314,23.315c0,0-19.984,16.654-22.648,16.628
	c-2.666-0.026-14.656,9.032-14.656,9.032l-34.641-4.515l-34.639,4.517l-19.318-0.002l-37.217-9.032l-30.064,7.832
	c5.17,15.469,13.783,36.489,22.854,38.159c14.475,2.664,188.123-10.659,188.123-10.659S1604.986,660.213,1521.217,557.564z"/>
<path display="none" fill="#CCCCCC" d="M1524.459,558.293c0,0-1.436-2.627-9.125,1.812c2.619,4.835,2.498-5.939,4.512-1.914
	c3.553,7.105,48.072,80.828-74.111,235.376c0,0-147.941,23.982-166.596,0c-18.65-23.981,0.848-48.446-29.764-47.963
	c-30.611,0.484-31.346-15.734-30.102-28.296c1.244-12.562,12.791-124.479,19.008-133.358c6.219-8.882,54.674-88.521,64.199-96.222
	c3.861-3.121,9.486-11.794,13.928-21.397c-3.393-5.009-5.359-10.492-5.023-16.394c1.756-30.75-82.094,127.131-82.094,127.131
	l-17.984,163.208l25.59,30.644c0,0,13.316,51.961,27.793,54.625s188.123-10.658,188.123-10.658S1608.229,660.941,1524.459,558.293z"
	/>
<path display="none" fill="#F2F2F2" d="M1482.318,589.666c1.998-1.333,17.986-19.985,23.352-19.053
	c4.52,0.785,15.508-3.063,18.789-9.713c-0.193-0.242-0.379-0.486-0.578-0.729c0,0-66.879,14.854-155.797,104.777l-18.973,9.207
	l-37.727,19.372l58.906-186.823c0,0-2.707-0.866-6.953-2.522l-8.922,14.203l-11.326,31.309l-10.656,33.975l-13.412,17.986v36.638
	l-7.479,30.645l-15.742,18.352l-6.668,22.949l-3.164,14.656l14.404-12.381l21.439-7.604l21.277-11.382v-6.238l16.654,6.238
	l23.316-10.601l13.988-22.575l14.656-17.819l11.881-17.562c0,0,38.748-16.654,41.025-17.32
	C1466.891,606.985,1480.32,590.997,1482.318,589.666z"/>
<path display="none" d="M1273.355,831.891c-0.004,0-0.002,0-0.004,0c-4.045,0-6.705-0.127-8.137-0.386
	c-15.182-2.75-27.83-48.483-29.723-55.654l-26.266-30.952l0.094-0.846l18.318-163.591l0.184-0.338
	c0.178-0.327,17.922-33.178,36.809-65.607c38.764-66.556,44.285-66.556,46.939-66.556c0.885,0,1.703,0.346,2.307,0.972
	c0.963,1.005,1.328,2.583,1.182,5.113c-1.674,28.87,57.846,47.959,58.447,48.149l1.926,0.606l-59,184.155l34.008-17.187
	l19.006-9.078c89.441-88.953,157.947-104.608,158.627-104.929l1.441-0.682l1.012,1.219c19.762,23.831,27.971,36.386,24.873,71.114
	c-2.463,27.603-12.197,58.429-28.934,91.621c-28.424,56.365-67.809,100.724-68.205,101.164l-0.543,0.611l-0.824,0.062
	C1455.434,820.983,1310.572,831.891,1273.355,831.891z M1213.453,743.645l25.742,30.336l0.115,0.439
	c3.674,14.106,15.627,51.159,26.641,53.154c0.805,0.146,2.74,0.319,7.4,0.319c35.582,0,170.475-10.05,182.396-10.942
	c4.811-5.508,40.732-47.426,67.111-99.76c25.631-50.853,47.449-105.034,5.539-157.114c-10.248,5.194-74.43,22.176-156.311,103.67
	l-0.246,0.243l-19.588,9.356l-42.621,21.539l60.719-189.518c-10.746-3.664-61.039-22.406-59.348-51.549
	c0.043-0.748,0.023-1.262-0.016-1.607c-2.568,1.528-11.902,11.113-43.367,65.212c-17.625,30.302-34.123,60.715-36.029,64.239
	L1213.453,743.645z"/>
<path display="none" d="M1310.734,591.811c-7.621,0-14.744-1.571-21.34-4.719c-28.189-13.45-36.359-50.461-36.691-52.03l3.908-0.833
	c0.078,0.366,8.117,36.678,34.52,49.265c15.006,7.152,33.189,5.4,54.053-5.212l1.811,3.563
	C1333.941,588.485,1321.814,591.811,1310.734,591.811z"/>
<polygon display="none" points="1222.82,773.98 1265.846,802.894 1429.42,808.165 1485.203,808.165 1452.111,865.067 
	1268.682,874.839 "/>
<path display="none" d="M1240.83,494.896c-0.783,0-1.527-0.463-1.848-1.233c-0.422-1.019,0.061-2.189,1.08-2.612l24.156-10.03
	c1.023-0.425,2.188,0.06,2.611,1.08c0.422,1.019-0.061,2.189-1.08,2.612l-24.154,10.03
	C1241.344,494.847,1241.086,494.896,1240.83,494.896z"/>
<linearGradient id="SVGID_31_" gradientUnits="userSpaceOnUse" x1="721.1147" y1="259.8926" x2="776.4065" y2="312.6567">
	<stop  offset="0" style="stop-color:#FFD8BF"/>
	<stop  offset="1" style="stop-color:#EFA57F"/>
</linearGradient>
<ellipse fill="url(#SVGID_31_)" cx="741.41" cy="279.259" rx="53.829" ry="51.721"/>
<path d="M741.41,332.083c-30.29,0-54.933-23.696-54.933-52.824c0-29.126,24.643-52.822,54.933-52.822
	c30.289,0,54.932,23.696,54.932,52.822C796.342,308.387,771.699,332.083,741.41,332.083z M741.41,228.644
	c-29.074,0-52.726,22.706-52.726,50.615c0,27.911,23.652,50.618,52.726,50.618c29.073,0,52.725-22.707,52.725-50.618
	C794.135,251.35,770.483,228.644,741.41,228.644z"/>
<path fill="#EAD26C" d="M687.582,279.259c0,0,7.104,35.927,23.809,35.927c16.706,0,48.725,11.216,66.125,0
	c17.402-11.214,18.001-37.108,17.473-40.887c-0.529-3.776,10.37-34.18-2.854-45.353c-13.225-11.174-42.291-12.859-48.988-10.293
	c0,0-4.261-4.896-16.095-4.469C715.22,214.613,671.21,242.129,687.582,279.259z"/>
<path fill="#1D1D1B" d="M728.499,214.159c10.733,0,14.647,4.494,14.647,4.494c1.743-0.667,4.996-1.047,9.096-1.047
	c11.651,0,30.108,3.075,39.892,11.341c13.224,11.173,2.325,41.577,2.854,45.353c0.528,3.779-0.071,29.672-17.473,40.887
	c-5.798,3.738-13.22,4.984-21.163,4.984c-15.88,0-33.824-4.984-44.961-4.984c-16.705,0-23.809-35.927-23.809-35.927
	c-16.372-37.13,27.639-64.646,39.47-65.075C727.546,214.167,728.029,214.159,728.499,214.159 M728.499,211.86
	c-0.51,0-1.033,0.009-1.568,0.028c-8.089,0.292-24.312,9.525-34.656,22.308c-8.101,10.01-15.939,26.04-7.399,45.648
	c0.964,4.758,8.28,37.642,26.515,37.642c4.811,0,11.266,1.027,18.101,2.12c8.416,1.342,17.95,2.864,26.861,2.864
	c9.684,0,17.164-1.792,22.876-5.473c18.359-11.83,19.143-38.538,18.524-42.96c-0.053-0.608,0.481-3.174,0.957-5.438
	c2.325-11.101,6.651-31.765-4.584-41.258c-11.24-9.498-31.616-12.032-41.883-12.034c-2.508,0-5.744,0.136-8.337,0.703
	C741.685,214.394,736.868,211.86,728.499,211.86L728.499,211.86z"/>
<path fill="none" d="M781.669,263.854c-0.074,1.669,1.34,2.782,1.015,4.452c-1.571-0.287-3.31-1.232-4.731-1.931
	c-1.463,2.462,0.998,5.602,2.087,8c1.504,3.313,2.213,5.996,1.937,9.626c-1.577-2.473-3.453-5.246-6.148-6.965
	c-0.358,2.212,2.281,8.137,0.67,9.982c-2.411,2.758-4.871-3.443-6.994,0.849c-1.038,2.099,1.87,7.662-3.825,4.891
	c-2.87-1.394-1.935-4.497-6.202-2.82c-0.094,1.262-0.268,2.755-0.056,4.034c0.141,0.874,1.412,2.88,1.045,3.686
	c-1.489,3.299-4.806-1.271-6.565-1.714c-2.049,1.458-1.375,3.662-1.495,5.685c-3.5,0.018-4.788-2.471-6.126,1.544
	c-0.37,1.108-0.477,2.047-0.37,2.868l-0.642-0.006c-0.935-1.032-1.175-2.972-2.555-3.175c-1.928-0.281-1.058,2.143-1.965,3.127
	l-4.132-0.045c-1.393-0.838-2.523-2.251-3.637-2.922c-4.023-2.416-2.099,1.93-4.165,2.133c-0.013,0.09-0.045,0.164-0.069,0.243
	l-0.841-0.161c-0.011-0.806-0.25-0.98-2.076-1.412c-0.823-0.193-1.083,0.089-1.971-0.416c-0.855-0.486-0.342-1.197-1.562-1.542
	c-2.185-0.615-4.824,0.962-7.191,0.242c-1.812-0.55-2.68-2.208-4.353-2.785c-1.084-0.375-2.032-0.327-3.26-0.332
	c-1.986-0.005-2.469-0.244-3.978-1.004c-1.346-0.679-4.48-2.121-5.829-0.383c-0.358,0.461-0.079,1.249,0.372,1.984l-0.121-0.022
	c0,0,0.927,11.301,14.151,13.408c13.225,2.107,12.761-2.491,31.092,4.214c18.33,6.705,31.322-3.066,34.336-4.598
	c2.529-1.281,6.343-7.398,6.565-11.152c1.133-1.784,2.32-3.574,2.935-5.466c0.616-1.914,0.351-4.326,0.577-6.373
	c0.433-3.951,2.36-8.034,2.377-11.904C789.991,272.238,788.365,266.098,781.669,263.854z"/>
<path fill="#00CAE3" d="M675.893,488.046c0,9.287,8.996,16.816,20.097,16.816h90.697c11.103,0,20.098-7.529,20.098-16.816V365.008
	c0-9.288-15.347-30.021-31.355-33.091h-62.584c-11.099,0-36.953,20.724-36.953,30.009V488.046z"/>
<path d="M786.687,506.516h-90.697c-11.994,0-21.751-8.285-21.751-18.47v-126.12c0-10.062,26.339-31.664,38.607-31.664h62.741
	l0.155,0.03c16.541,3.172,32.698,24.27,32.698,34.716v123.038C808.439,498.231,798.682,506.516,786.687,506.516z M712.846,333.572
	c-10.227,0-35.299,20.14-35.299,28.354v126.12c0,8.36,8.273,15.161,18.442,15.161h90.697c10.17,0,18.444-6.801,18.444-15.161
	V365.008c0-8.005-14.416-28.359-29.862-31.436H712.846z"/>
<path d="M685.754,500.54l-7.06,19.883l3.53,13.921v27.842l7.018,29.932c0,0,12.572,40.369,10.293,43.153
	c-2.28,2.785-5.373,20.883-5.373,20.883l1.546,67.516l0.458,25.755l8.049,4.873h22.189h8.155l-0.954-23.666l0.773-73.782
	l-1.546-6.961l2.319-43.352l4.665-18.214l-2.421,9.458l2.421-9.458l2.652-16.865l4.285,29.707v31.322l9.281,17.401l-1.488,14.386
	l1.488,48.956v18.097l3.866,22.971h20.881h23.203v-16.009l-3.868-25.059l-3.865-66.125l-5.414-27.146l3.865-25.753l0.537-26.037
	l3.47-21.062l-0.48-9.979l3.867-16.707l1.887-11.136l-3.094-8.747H685.754z"/>
<rect x="688.769" y="507.055" fill="#4F312C" width="107.4" height="8.851"/>
<rect x="712.568" y="503.608" width="3.714" height="15.313"/>
<rect x="737.396" y="503.608" width="3.711" height="15.313"/>
<rect x="766.396" y="503.608" width="3.714" height="15.313"/>
<path fill="#1E1E1E" d="M775.081,746.989v7.309h5.7h23.203v-16.009l-3.868-25.059l-3.865-66.125l-5.414-27.146l3.865-25.753
	l0.537-26.037l3.47-21.062l-0.48-9.979l3.867-16.707l1.804-10.624l-5.154,4.012l-2.577,12.877v8.004l-4.035,5.917l4.035,8.352
	l-4.035,7.31v11.136l-6.613,2.438l-2.435,4.175v1.394l6.263,2.784l2.088,6.264l-2.088,5.917c0,0-1.044,6.612-1.044,7.657
	c0,1.044-2.784,6.612-2.784,6.612l-5.22,3.48l2.786,6.611l3.826,5.918l1.739,10.789l4.891,33.409l4.508,57.772l-2.09,6.96
	l-6.61,5.222l2.435,8.7l-5.914,5.219L775.081,746.989z"/>
<polygon fill="#1E1E1E" points="742.469,560.098 741.107,564.971 733.665,574.716 729.488,596.293 730.881,603.602 725.312,606.537 
	719.396,608.127 721.136,615.437 727.408,631.793 725.661,637.36 724.617,641.188 718.003,637.014 713.479,633.533 713.479,638.752 
	720.789,642.582 726.009,646.758 726.009,644.32 729.488,661.723 726.009,720.887 726.009,732.023 727.748,750.816 726.833,754.298 
	734.56,754.298 733.606,730.632 734.379,656.85 732.833,649.889 735.152,606.537 739.816,588.323 742.469,571.458 742.764,573.497 
	744.105,571.932 "/>
<polygon fill="#282828" points="695.615,722.094 695.708,723.67 696.167,749.425 697.47,735.272 "/>
<path fill="#282828" d="M694.65,589.566l-3.212-12.066l-6.052-8.816v-8.586v-8.12l3.384-12.992l-3.384-12.065v-6.497l3.384-5.568
	l-6.337-4.962l-3.738,10.531l3.53,13.921v27.842l7.018,29.932c0,0,12.572,40.369,10.293,43.153
	c-2.28,2.785-5.373,20.883-5.373,20.883l0.987,58.213l1.393-52.413l0.464-12.065l3.712,4.642v-10.673v-11.137v-21.554l-6.069-8.609
	V589.566z"/>
<linearGradient id="SVGID_32_" gradientUnits="userSpaceOnUse" x1="780.7456" y1="783.2051" x2="780.5711" y2="749.5265">
	<stop  offset="0" style="stop-color:#252525"/>
	<stop  offset="1" style="stop-color:#000000"/>
</linearGradient>
<path fill="url(#SVGID_32_)" d="M759.453,766.053l4.015-15.935c0,0,2.094-6.552,18.15-6.552c16.055,0,19.369,7.479,19.369,7.479
	l0.874,15.007c0,0-1.047,6.485-2.967,7.412c-1.918,0.929-35.425,0-35.425,0S760.15,771.983,759.453,766.053z"/>
<path d="M763.468,771.726l-1.047,7.154h38.392l-1.919-7.154C798.893,771.726,780.396,774.518,763.468,771.726z"/>
<linearGradient id="SVGID_33_" gradientUnits="userSpaceOnUse" x1="714.4922" y1="783.2031" x2="714.3177" y2="749.5256">
	<stop  offset="0" style="stop-color:#252525"/>
	<stop  offset="1" style="stop-color:#000000"/>
</linearGradient>
<path fill="url(#SVGID_33_)" d="M693.201,766.053l4.013-15.935c0,0,2.094-6.552,18.149-6.552c16.056,0,19.374,7.479,19.374,7.479
	l0.87,15.007c0,0-1.046,6.485-2.967,7.412c-1.919,0.929-35.426,0-35.426,0S693.898,771.983,693.201,766.053z"/>
<path d="M697.214,771.726l-1.047,7.154h38.393l-1.92-7.154C732.64,771.726,714.143,774.518,697.214,771.726z"/>
<path fill="#00CAE3" d="M688.975,345.251c0,0-30.273,22.742-30.273,32.446c0,9.706-1.266,60.336-4.641,62.023
	c-3.376,1.69,3.375,9.792,6.328,13.547c2.954,3.754,9.989,3.306,9.989,3.306L688.975,345.251z"/>
<path fill="#23B3B7" d="M658.701,377.697c0,9.706-1.266,60.336-4.641,62.023c-3.376,1.69,3.375,9.792,6.328,13.547
	c2.954,3.754,9.989,3.306,9.989,3.306l0.546-3.269c-1.568-0.475-3.725-1.119-5.998-1.769c-4.43-1.266-4.43-12.341-4.43-12.341
	l3.163-5.014v-8.261c0,0,3.798-14.571,4.216-15.838c0.418-1.266-0.101-6.645,1.796-10.758c1.898-4.114,0.634-11.393-1.265-16.771
	c-1.898-5.38,1.899-9.811,1.899-9.811l8.227-6.329l5.063-6.962l3.193-1.118l2.187-13.08
	C688.975,345.251,658.701,367.993,658.701,377.697z"/>
<path fill="#17A2AD" d="M658.701,377.697c0,9.706-1.266,60.336-4.641,62.023c-0.944,0.473-1.079,1.456-0.743,2.695
	c3.138-3.787,6.404-7.64,7.178-8.235c1.582-1.214,3.797-54.162,5.062-58.593c0.828-2.894,13.685-16.045,22.493-24.81l0.924-5.526
	C688.975,345.251,658.701,367.993,658.701,377.697z"/>
<path d="M688.975,345.251h0.006 M688.975,345.251l-18.598,111.322c0,0-0.261,0.015-0.705,0.015c-1.855,0-6.899-0.292-9.284-3.321
	c-2.953-3.754-9.705-11.857-6.328-13.547c3.375-1.687,4.641-52.317,4.641-62.023C658.701,367.993,688.975,345.251,688.975,345.251
	 M688.975,342.718c-0.01,0-0.017,0-0.027,0c-0.568,0.007-1.093,0.201-1.515,0.523c-5.271,3.961-31.263,24.03-31.263,34.456
	c0,15.189-1.503,54.905-3.784,60.081c-0.854,0.594-1.438,1.46-1.669,2.498c-0.779,3.518,2.743,8.325,7.075,13.788l0.608,0.771
	c3.045,3.869,8.899,4.287,11.273,4.287c0.544,0,0.865-0.021,0.865-0.021c1.171-0.081,2.143-0.954,2.337-2.111l18.576-111.19
	c0.04-0.177,0.059-0.36,0.059-0.547c0-1.398-1.13-2.533-2.528-2.533h-0.001C688.979,342.718,688.976,342.718,688.975,342.718
	L688.975,342.718z"/>
<path fill="#00CAE3" d="M793.461,343.239c0,0,30.273,22.742,30.273,32.445c0,9.706,1.268,60.337,4.643,62.023
	c3.375,1.69-3.375,9.793-6.329,13.548c-2.953,3.753-9.989,3.305-9.989,3.305L793.461,343.239z"/>
<path fill="#23B3B7" d="M823.734,375.684c0,9.706,1.268,60.337,4.643,62.023c3.375,1.69-3.375,9.793-6.329,13.548
	c-2.953,3.753-9.989,3.305-9.989,3.305l-0.545-3.269c1.567-0.475,3.726-1.118,5.998-1.769c4.431-1.266,4.431-12.342,4.431-12.342
	l-3.163-5.013v-8.261c0,0-3.799-14.571-4.218-15.838c-0.417-1.265,0.102-6.645-1.795-10.758c-1.9-4.114-0.634-11.393,1.265-16.771
	c1.897-5.379-1.898-9.811-1.898-9.811l-8.228-6.329l-5.063-6.961l-3.193-1.118l-2.188-13.08
	C793.461,343.239,823.734,365.981,823.734,375.684z"/>
<path fill="#17A2AD" d="M823.734,375.684c0,9.706,1.268,60.337,4.643,62.023c0.944,0.473,1.077,1.457,0.742,2.696
	c-3.137-3.787-6.403-7.64-7.177-8.236c-1.581-1.213-3.797-54.161-5.063-58.592c-0.828-2.894-13.684-16.045-22.493-24.811
	l-0.925-5.526C793.461,343.239,823.734,365.981,823.734,375.684z"/>
<path d="M793.457,343.239h0.004 M793.461,343.239c0,0,30.273,22.742,30.273,32.445c0,9.706,1.268,60.337,4.643,62.023
	c3.375,1.69-3.375,9.793-6.329,13.548c-2.382,3.029-7.426,3.321-9.284,3.321c-0.441,0-0.705-0.016-0.705-0.016L793.461,343.239
	 M793.461,340.706c0,0-0.002,0-0.004,0l0,0c-1.399,0-2.529,1.135-2.529,2.533c0,0.187,0.02,0.37,0.06,0.547l18.574,111.191
	c0.194,1.157,1.166,2.029,2.338,2.11c0,0,0.322,0.021,0.864,0.021c2.374,0,8.228-0.418,11.274-4.287l0.608-0.77
	c4.331-5.462,7.853-10.271,7.073-13.788c-0.231-1.039-0.814-1.904-1.671-2.499c-2.278-5.176-3.782-44.891-3.782-60.081
	c0-10.426-25.992-30.495-31.263-34.456c-0.422-0.322-0.945-0.516-1.515-0.522C793.478,340.706,793.472,340.706,793.461,340.706
	L793.461,340.706z"/>
<path fill="#17A2AD" d="M781.447,368.309c-0.77,1.396-0.509,3.383-0.607,5.076c-0.229,3.898-1.438,6.285-3.54,9.515
	c-1.811,2.781-3.872,5.513-4.76,8.751c-0.993,3.623-1.465,7.25-2.601,10.882c-0.922,2.949-1.838,5.938-2.541,8.949
	c-0.562,2.418-0.822,4.91-1.671,7.255c-1.092,3.009-3.26,5.366-4.493,8.257c-1.245,2.917-0.916,5.966-1.663,9.003
	c-0.722,2.932-2.116,5.373-2.4,8.385c-0.225,2.393-0.268,5.209-0.022,7.602c0.336,3.258,1.199,2.643,2.805,4.623
	c2.019,2.49,1.172,5.423-2.46,5.536c-4.845,0.151-8.435-7.668-12.971-8.831c-1.695-0.435-4.432,1.213-5.798-0.569
	c-0.665-0.87,0-4.125-0.062-5.273c-1.844-0.397-3.305,1.226-4.058,2.743c-2.067,4.163,2.888,8.122,5.395,11.024
	c2.469,2.861,8.093,5.31,9.658,8.44c1.956,3.915-3.439,7.705-5.899,9.475c-4.673,3.361-9.261,3.443-14.968,3.904
	c-8.13,0.658-16.439,0.03-24.54,0.823c-3.106,0.305-6.575,1.363-9.21,3.085c-2.023,1.322-3.445,3.396-5.944,4
	c-1.943,0.468-6.651-0.734-6.938,2.234c5.28-0.141,10.736,1.962,15.992,2.546c9.52,1.062,19.975-0.372,29.505-1.146
	c11.225-0.912,23.071-0.748,34.264,0.233c4.726,0.415,11.922,0.154,16.324-1.647c2.182-0.893,3.507-2.896,4.003-5.259
	c1.949-9.31,1.891-20.48,1.467-29.906c-0.218-4.848-0.323-9.797,0.751-14.548c1.151-5.08,1.004-9.974,1.666-15.115
	c0.455-3.539,1.73-6.841,1.941-10.463c0.289-5.003-0.013-10.105-0.006-15.117c0.008-8.963,0.646-19.051-1.909-27.708
	c-0.629-2.137-2.34-6.881-4.986-7.037"/>
<path fill="#17A2AD" d="M715.258,342.937c2.904,5.313,7.581,6.866,13.055,7.736c2.08,0.331,4.687,0.104,6.479,1.067
	c0.556,0.297,2.067,2.398,2.581,2.828c2.017,1.68,4.111,2.841,6.602,3.567c7.405,2.159,17.206,2.228,24.863,1.659
	c5.49-0.408,8.263-1.718,12.305-4.783c-1.258-2.325-10.857-0.196-13.237-0.217c-8.054-0.073-14.509-6.478-21.798-9.416
	c-4.212-1.698-8.748-1.758-13.035-3.015c-3.625-1.06-6.465-2.983-10.359-2.419c-3.529,0.511-5.266,2.015-8.006,3.82"/>
<path d="M804.226,373.784c0,0,7.349,18.658,22.565,27.771c-0.413-11.795-0.601-22.021-0.601-26.253
	c0-3.479-3.585-7.784-7.924-12.868L804.226,373.784z"/>
<path fill="#107575" d="M806.819,375.617c0,0,5.66,14.369,17.376,21.387c-0.317-9.085-0.461-16.958-0.461-20.217
	c0-2.681-2.314-6.356-5.655-10.271L806.819,375.617z"/>
<path fill="#17A2AD" d="M686.478,250.933c0,0,15.264,24.005,110.825,13.603l8.379-41.645c0,0-40.23-16.501-47.401-28.757
	c0,0-47.675,25.802-75.409,21.389L686.478,250.933z"/>
<path fill="#4FC6C9" d="M758.281,194.134c0,0-47.675,25.802-75.409,21.389l0.51,5.001c6.748,2.668,25.687,4.543,73.06-18.606
	c0,0,28.713,23.009,43.958,23.272c1.622,0.028,3.244-0.035,4.852-0.162l0.431-2.137
	C805.682,222.892,765.452,206.391,758.281,194.134z"/>
<path fill="#159093" d="M796.222,263.065l1.396-6.946c-88.221,9.144-112.222-12.65-112.222-12.65l-0.577,0.33l0.577,5.662
	C685.396,249.461,700.659,273.468,796.222,263.065z"/>
<path fill="#1D1D1B" d="M753.523,268.804c0,0-0.001,0-0.003,0c-56.983-0.001-67.997-16.29-68.439-16.983l-0.211-0.33l-3.862-37.939
	l2.124,0.338c2.033,0.323,4.264,0.486,6.633,0.486c27.322,0,67.327-21.48,67.729-21.697l1.407-0.762l0.809,1.381
	c6.807,11.634,46.204,27.899,46.601,28.063l1.265,0.517l-8.888,44.171l-1.205,0.131C781.49,267.922,766.699,268.804,753.523,268.804
	z M688.076,250.303c1.697,2.021,14.72,15.191,65.444,15.192c0.001,0,0.003,0,0.003,0c12.727,0,26.984-0.833,42.396-2.474
	l7.873-39.124c-6.778-2.86-37.727-16.354-46.059-27.6c-7.35,3.841-42.35,21.389-67.969,21.389c-1.75,0-3.435-0.083-5.034-0.25
	L688.076,250.303z"/>
<polygon display="none" opacity="0.12" fill="#1D1D1B" points="529.502,634.622 562.131,642.788 508.003,687.454 374.496,687.454 
	338.08,697.889 233.271,697.889 304.771,666.256 512.237,648.635 "/>
<path display="none" fill="#CE1919" d="M535.707,629.777c0,0-15.988,15.265-31.31,11.267c-15.321-3.996-105.92-3.055-141.893,11.13
	s-44.632,5.524-56.623-3.801l-38.638,13.989c0,0,60.621,51.991,95.261,20c34.641-31.992,133.232-24.664,136.563-14.005
	L535.707,629.777z"/>
<path display="none" fill="#AA2121" d="M504.397,641.044c-15.321-3.996-105.92-3.055-141.893,11.13s-44.632,5.524-56.623-3.801
	l-0.349,0.126l-13.287-11.243c-0.562-0.474-1.402-0.406-1.878,0.157c-0.476,0.561-0.405,1.401,0.156,1.878l12.12,10.254
	l-4.776,1.729l-11.451-9.688c-0.562-0.474-1.401-0.406-1.878,0.157c-0.476,0.562-0.405,1.401,0.156,1.878l10.282,8.698l-4.633,1.679
	l-12.477-10.557c-0.563-0.474-1.402-0.405-1.878,0.157c-0.476,0.561-0.405,1.401,0.156,1.878l11.309,9.567l-6.658,2.411
	l-12.699-10.746c-0.562-0.473-1.402-0.405-1.878,0.157s-0.405,1.402,0.156,1.878l11.532,9.758l-7.677,2.778l-12.293-10.401
	c-0.562-0.473-1.401-0.406-1.878,0.158c-0.475,0.561-0.405,1.401,0.157,1.878l11.124,9.411l-0.098,0.036
	c0,0,1.108,0.946,3.085,2.492l0.321,0.271c0.035,0.029,0.077,0.041,0.113,0.065c1.017,0.79,2.213,1.699,3.613,2.726l30.395-11.342
	c0,0,12.88,11.991,40.858,7.001c27.979-4.989,58.844-21.368,55.846-11.402c-2.998,9.967-9.659,8.672-14.1,9.098
	c-4.441,0.425,20.428,1.758,25.758-14.23c4.524-13.572,81.201-1.843,103.841,2.461l9.696-10.21c0.369-1.165,0.752-2.364,1.138-3.573
	C521.737,639.492,512.964,643.279,504.397,641.044z"/>
<path display="none" fill="#AA2121" d="M513.929,673.764c-0.224,0-0.45-0.057-0.658-0.175l-15.849-9.028
	c-0.64-0.364-0.862-1.177-0.499-1.817c0.363-0.64,1.178-0.862,1.818-0.499l15.849,9.028c0.639,0.365,0.862,1.178,0.498,1.818
	C514.843,673.521,514.392,673.764,513.929,673.764z"/>
<path display="none" fill="#AA2121" d="M519.72,667.118c-0.224,0-0.449-0.056-0.658-0.174l-15.849-9.028
	c-0.64-0.364-0.862-1.178-0.498-1.817c0.363-0.639,1.178-0.864,1.817-0.499l15.849,9.029c0.639,0.363,0.862,1.177,0.498,1.816
	C520.634,666.876,520.183,667.118,519.72,667.118z"/>
<path display="none" fill="#AA2121" d="M525.184,660.473c-0.224,0-0.45-0.056-0.659-0.175l-15.849-9.027
	c-0.64-0.364-0.862-1.179-0.498-1.818c0.364-0.639,1.178-0.864,1.817-0.498l15.849,9.028c0.64,0.363,0.862,1.178,0.499,1.817
	C526.097,660.23,525.646,660.473,525.184,660.473z"/>
<path display="none" fill="#AA2121" d="M534.487,653.15c-0.224,0-0.45-0.056-0.658-0.175l-15.849-9.028
	c-0.64-0.364-0.862-1.178-0.499-1.817c0.364-0.639,1.178-0.862,1.818-0.499l15.849,9.029c0.639,0.363,0.862,1.177,0.498,1.816
	C535.401,652.907,534.95,653.15,534.487,653.15z"/>
<path display="none" fill="#AA2121" d="M542.412,648.635c-0.225,0-0.45-0.056-0.658-0.174l-15.85-9.028
	c-0.639-0.365-0.862-1.178-0.498-1.817c0.363-0.639,1.178-0.863,1.817-0.498l15.85,9.027c0.639,0.364,0.861,1.178,0.498,1.818
	C543.325,648.394,542.875,648.635,542.412,648.635z"/>
<polygon display="none" fill="#D3C367" points="496.459,667.917 489.675,694.423 531.661,694.423 "/>
<path display="none" fill="#0C0A00" d="M497.254,670.185l30.423,22.905h-36.286L497.254,670.185 M496.459,667.917l-6.784,26.506
	h41.986L496.459,667.917L496.459,667.917z"/>
<polygon display="none" fill="#F2E377" points="497.131,668.432 526.228,668.432 541.205,700.289 505.808,700.289 "/>
<path display="none" fill="#0C0A00" d="M542.014,700.803h-36.598l-8.957-32.886h30.095L542.014,700.803z M506.2,699.775h34.195
	l-14.494-30.831h-28.099L506.2,699.775z"/>
<path display="none" d="M515.911,693.055l-0.881-2.422l1.467-1.973c2.535-3.365,3.651-5.286,2.949-7.286
	c-0.507-1.395-1.725-2.5-3.698-2.5c-1.473,0-2.493,0.736-3.148,1.395l-2.164-2.84c0.908-0.972,2.646-1.763,4.935-1.763
	c3.892,0,6.82,2.262,7.941,5.339c1.053,2.896-0.166,5.184-1.861,7.394l-1.1,1.314l0.02,0.054h6.471l1.196,3.288H515.911z"/>
<linearGradient id="SVGID_34_" gradientUnits="userSpaceOnUse" x1="1299.2266" y1="159.5762" x2="1963.8262" y2="1040.1699" gradientTransform="matrix(-1 0 0 1 3042.627 0)">
	<stop  offset="0" style="stop-color:#FFEB45"/>
	<stop  offset="1" style="stop-color:#E5E5E5;stop-opacity:0"/>
</linearGradient>
<polygon display="none" opacity="0.24" fill="url(#SVGID_34_)" points="1638.516,0 1468.844,0 451.731,1084.793 1638.516,1084.793 
	"/>
<g display="none">
	<defs>
		<path id="SVGID_1_" d="M1637.33,7.5h-566.096v23.538c0,0-106.391-23.538-236.395-23.538
			c-130.006,0-485.715,12.991-597.625,221.394v479.682L4.62,1076.019l1632.71,2.665V7.5z"/>
	</defs>
	<clipPath id="SVGID_35_" display="inline">
		<use xlink:href="#SVGID_1_"  display="none" overflow="visible"/>
	</clipPath>
	<linearGradient id="SVGID_36_" gradientUnits="userSpaceOnUse" x1="25.1587" y1="221.0308" x2="890.8771" y2="1368.1066">
		<stop  offset="0" style="stop-color:#FFEB45"/>
		<stop  offset="1" style="stop-color:#E5E5E5;stop-opacity:0"/>
	</linearGradient>
	<polygon opacity="0.24" clip-path="url(#SVGID_35_)" fill="url(#SVGID_36_)" points="161.784,13.165 382.804,13.165 
		1707.709,1426.233 161.784,1426.233 	"/>
	<rect x="15.899" y="10.164" clip-path="url(#SVGID_35_)" fill="none" width="1616.54" height="1068.52"/>
</g>
<path display="none" fill="#394751" d="M1258.258,707.909h206.824V222.857c-25.176-53-59.324-77-141.687-128.299
	c-75.785-47.203-228.114-70.798-251.96-74.266v0.002c-67.938-9.831-142.822-14.794-223.789-14.794
	c-122.936,0-231.849,11.436-323.716,33.99c-73.577,18.064-136.463,43.263-186.912,74.898
	c-86.175,54.041-105.897,107.365-106.694,109.608l-0.115,0.325v268.94c-2.704,0-7.233,0-8.691,0c-2.125,0-3.02,3.019-3.02,3.019
	c0,3.929-0.679,6.774-1.493,8.792c-0.229-0.032-0.458-0.07-0.696-0.07c-2.499,0-4.548,1.85-4.899,4.25c-3.456,0-9.295,0-13.039,0
	c-5.592,0-2.908,17.221-2.908,17.221l10.959,27.508L194.12,567.43h36.089v1.976h-95.118v19.36h95.118v3.031h-79.084v175.584h46.161
	L4.823,1073.354h1066.612v2.665h313.693l-127.871-177.661L1258.258,707.909z"/>
</svg>
