<?xml version="1.0" encoding="utf-8"?>
<!-- Generator: Adobe Illustrator 15.0.0, SVG Export Plug-In  -->
<!DOCTYPE svg PUBLIC "-//W3C//DTD SVG 1.1//EN" "http://www.w3.org/Graphics/SVG/1.1/DTD/svg11.dtd" [
	<!ENTITY ns_flows "http://ns.adobe.com/Flows/1.0/">
]>
<svg version="1.1"
	 xmlns="http://www.w3.org/2000/svg" xmlns:xlink="http://www.w3.org/1999/xlink" xmlns:a="http://ns.adobe.com/AdobeSVGViewerExtensions/3.0/"
	 x="0px" y="0px" width="1920px" height="1080px" viewBox="-227.742 152.07 1920 1080"
	 overflow="visible" enable-background="new -227.742 152.07 1920 1080" xml:space="preserve">
<defs>
</defs>
<linearGradient id="SVGID_1_" gradientUnits="userSpaceOnUse" x1="847.6455" y1="856.0156" x2="847.6455" y2="173.5348">
	<stop  offset="0" style="stop-color:#D1D1D1"/>
	<stop  offset="1" style="stop-color:#E5E5E5"/>
</linearGradient>
<path fill="url(#SVGID_1_)" d="M847.646,1.999c-538.257,0-615.438,217.168-615.438,217.168v483.242h615.438h615.438V219.167
	C1463.084,219.167,1385.902,1.999,847.646,1.999z"/>
<rect x="715.158" y="220.463" fill="#F4F4F4" width="184.386" height="225.4"/>
<path fill="#7A7979" d="M1465.082,704.405H230.209V218.822l0.115-0.325c0.797-2.243,20.52-55.568,106.694-109.608
	c50.449-31.635,113.335-56.834,186.912-74.898C615.798,11.436,724.711,0,847.646,0c122.934,0,231.848,11.436,323.715,33.99
	c73.578,18.064,136.465,43.263,186.912,74.898c86.174,54.041,105.896,107.365,106.693,109.608l0.115,0.325V704.405z
	 M234.206,700.409h1226.88V219.533c-1.74-4.444-23.455-56.289-105.35-107.516c-78.777-49.278-230.873-108.02-508.09-108.02
	c-277.218,0-429.313,58.742-508.091,108.02c-81.895,51.228-103.609,103.072-105.35,107.516V700.409z"/>
<polygon opacity="0.52" fill="#F4F3F2" points="257.4,679.183 257.4,327.215 1062.746,475.096 1062.746,679.182 "/>
<rect x="322.176" y="214.725" fill="#F4F4F4" width="171.562" height="226.494"/>
<path fill="#EAE9DA" d="M333.089,431.45h150.1V327.215c0,0-4.818-68.502-50.573-68.502c-45.754,0-24.658,80.362-24.658,80.362
	L333.089,431.45z"/>
<rect x="333.089" y="379.045" opacity="0.82" fill="#9B9B97" width="138.198" height="15.321"/>
<rect x="360.355" y="405.025" opacity="0.82" fill="#9B9B97" width="83.666" height="15.321"/>
<rect x="741.219" y="379.045" opacity="0.82" fill="#9B9B97" width="138.197" height="15.321"/>
<rect x="741.219" y="231.602" opacity="0.82" fill="#9B9B97" width="138.197" height="15.322"/>
<rect x="768.485" y="405.025" opacity="0.82" fill="#9B9B97" width="83.665" height="15.321"/>
<circle fill="#DDDDDB" cx="802.624" cy="307.543" r="32.419"/>
<polyline fill="#E5E5E5" points="728.102,702.408 1116.537,702.408 1379.924,1067.853 4.823,1067.853 234.695,702.408 
	728.102,702.408 "/>
<path fill="#CCCCCC" d="M1385.129,1070.518H0l233.224-370.774H1117.9l0.799,1.106L1385.129,1070.518z M9.648,1065.188h1365.07
	l-259.545-360.116H236.167L9.648,1065.188z"/>
<path fill="#F2F2F2" d="M1050.756,1050.959H61.561l181.852-322.857h19.984L172.65,902.646
	C172.65,902.646,145.495,1050.959,1050.756,1050.959z"/>
<linearGradient id="SVGID_2_" gradientUnits="userSpaceOnUse" x1="126.6206" y1="860.043" x2="126.6206" y2="736.4426" gradientTransform="matrix(1 0 0 -1 244 1480.1406)">
	<stop  offset="0" style="stop-color:#5E3F2F"/>
	<stop  offset="0.6442" style="stop-color:#4F3529"/>
	<stop  offset="0.9387" style="stop-color:#4F3529"/>
</linearGradient>
<rect x="151.125" y="586.296" fill="url(#SVGID_2_)" width="438.99" height="175.584"/>
<path fill="#3D251A" d="M592.113,763.879H149.127V584.297h442.986V763.879z M153.124,759.882h434.992V588.294H153.124V759.882z"/>
<rect x="135.091" y="563.904" fill="#3D251A" width="471.895" height="19.36"/>
<path fill="#3D251A" d="M608.984,585.264H133.092v-23.358h475.893V585.264z M137.089,581.268h467.898v-15.366H137.089V581.268z"/>
<polygon fill="#684536" points="157.777,596.915 585.452,596.915 585.452,630.889 "/>
<polygon opacity="0.33" fill="#3D251A" points="157.777,669.564 157.777,753.501 585.452,753.501 "/>
<rect x="135.091" y="565.235" opacity="0.43" fill="#684536" width="471.895" height="3.933"/>
<path fill="#2B2B2B" d="M576.506,548.482l7.604-27.508c0,0,2.683-17.221-2.908-17.221s-15.879,0-15.879,0s-4.25-3.13-4.25-12.972
	c0,0-0.893-3.019-3.019-3.019c-1.734,0-7.829,0-10.008,0c-0.489,0-0.783,0-0.783,0c-2.179,0-8.272,0-10.007,0
	c-2.125,0-3.021,3.019-3.021,3.019c0,9.842-4.249,12.972-4.249,12.972s-10.288,0-15.879,0s-2.907,17.221-2.907,17.221l10.959,27.508
	l-12.301,13.446h37.404h0.783h37.406L576.506,548.482z"/>
<radialGradient id="SVGID_3_" cx="289.3784" cy="975.666" r="4.9719" fx="286.5905" fy="972.2589" gradientTransform="matrix(1 0 0 -1 244 1480.1406)" gradientUnits="userSpaceOnUse">
	<stop  offset="0" style="stop-color:#FFF6BF"/>
	<stop  offset="0.5644" style="stop-color:#FFAC00"/>
	<stop  offset="1" style="stop-color:#FFC900"/>
</radialGradient>
<circle fill="url(#SVGID_3_)" cx="533.379" cy="504.474" r="4.972"/>
<path fill="#D19A00" d="M533.379,510.112c-3.108,0-5.638-2.529-5.638-5.639c0-3.108,2.529-5.638,5.638-5.638
	c3.107,0,5.638,2.53,5.638,5.638C539.017,507.583,536.486,510.112,533.379,510.112z M533.379,500.168
	c-2.374,0-4.306,1.932-4.306,4.306c0,2.375,1.932,4.307,4.306,4.307s4.305-1.933,4.305-4.307
	C537.684,502.1,535.753,500.168,533.379,500.168z"/>
<radialGradient id="SVGID_4_" cx="295.3516" cy="967.4287" r="4.9722" fx="292.5635" fy="964.0214" gradientTransform="matrix(1 0 0 -1 244 1480.1406)" gradientUnits="userSpaceOnUse">
	<stop  offset="0" style="stop-color:#FFF6BF"/>
	<stop  offset="0.5644" style="stop-color:#FFAC00"/>
	<stop  offset="1" style="stop-color:#FFC900"/>
</radialGradient>
<circle fill="url(#SVGID_4_)" cx="539.352" cy="512.712" r="4.972"/>
<path fill="#D19A00" d="M539.352,518.35c-3.109,0-5.639-2.529-5.639-5.639c0-3.108,2.529-5.638,5.639-5.638s5.639,2.529,5.639,5.638
	C544.99,515.82,542.461,518.35,539.352,518.35z M539.352,508.406c-2.374,0-4.307,1.931-4.307,4.305c0,2.375,1.933,4.307,4.307,4.307
	c2.375,0,4.307-1.932,4.307-4.307C543.658,510.337,541.727,508.406,539.352,508.406z"/>
<radialGradient id="SVGID_5_" cx="303.3706" cy="962.0996" r="4.9724" fx="300.5823" fy="958.6921" gradientTransform="matrix(1 0 0 -1 244 1480.1406)" gradientUnits="userSpaceOnUse">
	<stop  offset="0" style="stop-color:#FFF6BF"/>
	<stop  offset="0.5644" style="stop-color:#FFAC00"/>
	<stop  offset="1" style="stop-color:#FFC900"/>
</radialGradient>
<path fill="url(#SVGID_5_)" d="M547.372,513.068c2.745,0,4.971,2.227,4.971,4.972c0,2.747-2.226,4.973-4.971,4.973
	c-2.748,0-4.974-2.226-4.974-4.973C542.398,515.295,544.624,513.068,547.372,513.068z"/>
<path fill="#D19A00" d="M547.372,523.679c-3.11,0-5.64-2.529-5.64-5.639c0-3.108,2.529-5.638,5.64-5.638
	c3.107,0,5.638,2.529,5.638,5.638C553.01,521.15,550.479,523.679,547.372,523.679z M547.372,513.735
	c-2.375,0-4.308,1.932-4.308,4.305c0,2.375,1.933,4.307,4.308,4.307c2.374,0,4.305-1.932,4.305-4.307
	C551.677,515.667,549.746,513.735,547.372,513.735z"/>
<radialGradient id="SVGID_6_" cx="313.3164" cy="967.4287" r="4.9717" fx="310.5286" fy="964.0217" gradientTransform="matrix(1 0 0 -1 244 1480.1406)" gradientUnits="userSpaceOnUse">
	<stop  offset="0" style="stop-color:#FFF6BF"/>
	<stop  offset="0.5644" style="stop-color:#FFAC00"/>
	<stop  offset="1" style="stop-color:#FFC900"/>
</radialGradient>
<circle fill="url(#SVGID_6_)" cx="557.317" cy="512.712" r="4.972"/>
<path fill="#D19A00" d="M557.317,518.35c-3.109,0-5.639-2.529-5.639-5.639c0-3.108,2.529-5.638,5.639-5.638
	c3.108,0,5.638,2.529,5.638,5.638C562.955,515.82,560.426,518.35,557.317,518.35z M557.317,508.406
	c-2.375,0-4.307,1.931-4.307,4.305c0,2.375,1.932,4.307,4.307,4.307c2.374,0,4.305-1.932,4.305-4.307
	C561.622,510.337,559.691,508.406,557.317,508.406z"/>
<radialGradient id="SVGID_7_" cx="320.5962" cy="975.4229" r="4.9719" fx="317.8082" fy="972.0157" gradientTransform="matrix(1 0 0 -1 244 1480.1406)" gradientUnits="userSpaceOnUse">
	<stop  offset="0" style="stop-color:#FFF6BF"/>
	<stop  offset="0.5644" style="stop-color:#FFAC00"/>
	<stop  offset="1" style="stop-color:#FFC900"/>
</radialGradient>
<circle fill="url(#SVGID_7_)" cx="564.596" cy="504.718" r="4.972"/>
<path fill="#D19A00" d="M564.596,510.356c-3.108,0-5.638-2.53-5.638-5.639c0-3.108,2.529-5.638,5.638-5.638
	c3.109,0,5.639,2.529,5.639,5.638C570.234,507.826,567.705,510.356,564.596,510.356z M564.596,500.412
	c-2.374,0-4.306,1.931-4.306,4.305c0,2.375,1.932,4.307,4.306,4.307s4.307-1.932,4.307-4.307
	C568.902,502.343,566.97,500.412,564.596,500.412z"/>
<path fill="#2B2B2B" d="M474.604,548.482l7.604-27.508c0,0,2.684-17.221-2.907-17.221s-15.879,0-15.879,0s-4.25-3.13-4.25-12.972
	c0,0-0.894-3.019-3.019-3.019c-1.735,0-7.829,0-10.008,0c-0.489,0-0.783,0-0.783,0c-2.179,0-8.273,0-10.008,0
	c-2.125,0-3.02,3.019-3.02,3.019c0,9.842-4.249,12.972-4.249,12.972s-10.288,0-15.879,0s-2.908,17.221-2.908,17.221l10.959,27.508
	l-12.301,13.446h37.405h0.783h37.405L474.604,548.482z"/>
<radialGradient id="SVGID_8_" cx="430.145" cy="504.4746" r="4.9719" gradientUnits="userSpaceOnUse">
	<stop  offset="0" style="stop-color:#FFFFFF"/>
	<stop  offset="0.5215" style="stop-color:#D3D3D3"/>
	<stop  offset="1" style="stop-color:#727272"/>
</radialGradient>
<circle fill="url(#SVGID_8_)" cx="430.146" cy="504.474" r="4.972"/>
<path fill="#727272" d="M430.146,510.112c-3.109,0-5.639-2.529-5.639-5.639c0-3.108,2.529-5.638,5.639-5.638
	c3.108,0,5.638,2.53,5.638,5.638C435.783,507.583,433.254,510.112,430.146,510.112z M430.146,500.168
	c-2.375,0-4.306,1.932-4.306,4.306c0,2.375,1.931,4.307,4.306,4.307c2.374,0,4.306-1.933,4.306-4.307
	C434.451,502.1,432.52,500.168,430.146,500.168z"/>
<radialGradient id="SVGID_9_" cx="436.1187" cy="512.7119" r="4.9719" gradientUnits="userSpaceOnUse">
	<stop  offset="0" style="stop-color:#FFFFFF"/>
	<stop  offset="0.5215" style="stop-color:#D3D3D3"/>
	<stop  offset="1" style="stop-color:#727272"/>
</radialGradient>
<circle fill="url(#SVGID_9_)" cx="436.118" cy="512.712" r="4.972"/>
<path fill="#727272" d="M436.118,518.35c-3.108,0-5.638-2.529-5.638-5.639c0-3.108,2.529-5.638,5.638-5.638
	c3.109,0,5.639,2.529,5.639,5.638C441.757,515.82,439.228,518.35,436.118,518.35z M436.118,508.406
	c-2.374,0-4.306,1.931-4.306,4.305c0,2.375,1.932,4.307,4.306,4.307s4.307-1.932,4.307-4.307
	C440.425,510.337,438.492,508.406,436.118,508.406z"/>
<radialGradient id="SVGID_10_" cx="444.1372" cy="518.0405" r="4.9722" gradientUnits="userSpaceOnUse">
	<stop  offset="0" style="stop-color:#FFFFFF"/>
	<stop  offset="0.5215" style="stop-color:#D3D3D3"/>
	<stop  offset="1" style="stop-color:#727272"/>
</radialGradient>
<circle fill="url(#SVGID_10_)" cx="444.138" cy="518.041" r="4.972"/>
<path fill="#727272" d="M444.138,523.679c-3.109,0-5.639-2.529-5.639-5.639c0-3.108,2.529-5.638,5.639-5.638
	s5.639,2.529,5.639,5.638C449.776,521.15,447.247,523.679,444.138,523.679z M444.138,513.735c-2.374,0-4.307,1.932-4.307,4.305
	c0,2.375,1.933,4.307,4.307,4.307c2.375,0,4.307-1.932,4.307-4.307C448.444,515.667,446.513,513.735,444.138,513.735z"/>
<radialGradient id="SVGID_11_" cx="454.0835" cy="512.7119" r="4.9719" gradientUnits="userSpaceOnUse">
	<stop  offset="0" style="stop-color:#FFFFFF"/>
	<stop  offset="0.5215" style="stop-color:#D3D3D3"/>
	<stop  offset="1" style="stop-color:#727272"/>
</radialGradient>
<circle fill="url(#SVGID_11_)" cx="454.083" cy="512.712" r="4.972"/>
<path fill="#727272" d="M454.083,518.35c-3.108,0-5.638-2.529-5.638-5.639c0-3.108,2.529-5.638,5.638-5.638
	c3.109,0,5.639,2.529,5.639,5.638C459.722,515.82,457.192,518.35,454.083,518.35z M454.083,508.406
	c-2.374,0-4.306,1.931-4.306,4.305c0,2.375,1.932,4.307,4.306,4.307c2.375,0,4.307-1.932,4.307-4.307
	C458.39,510.337,456.458,508.406,454.083,508.406z"/>
<radialGradient id="SVGID_12_" cx="461.3628" cy="504.7178" r="4.9719" gradientUnits="userSpaceOnUse">
	<stop  offset="0" style="stop-color:#FFFFFF"/>
	<stop  offset="0.5215" style="stop-color:#D3D3D3"/>
	<stop  offset="1" style="stop-color:#727272"/>
</radialGradient>
<circle fill="url(#SVGID_12_)" cx="461.362" cy="504.718" r="4.972"/>
<path fill="#727272" d="M461.362,510.356c-3.108,0-5.638-2.53-5.638-5.639c0-3.108,2.529-5.638,5.638-5.638
	c3.109,0,5.639,2.529,5.639,5.638C467.001,507.826,464.472,510.356,461.362,510.356z M461.362,500.412
	c-2.374,0-4.306,1.931-4.306,4.305c0,2.375,1.932,4.307,4.306,4.307c2.375,0,4.307-1.932,4.307-4.307
	C465.669,502.343,463.737,500.412,461.362,500.412z"/>
<path fill="#2B2B2B" d="M362.669,548.482l7.604-27.508c0,0,2.683-17.221-2.908-17.221s-15.879,0-15.879,0s-4.251-3.13-4.251-12.972
	c0,0-0.892-3.019-3.018-3.019c-1.734,0-7.829,0-10.008,0c-0.489,0-0.783,0-0.783,0c-2.179,0-8.273,0-10.007,0
	c-2.125,0-3.021,3.019-3.021,3.019c0,9.842-4.249,12.972-4.249,12.972s-10.288,0-15.879,0s-2.907,17.221-2.907,17.221l10.959,27.508
	l-12.301,13.446h37.404h0.783h37.405L362.669,548.482z"/>
<radialGradient id="SVGID_13_" cx="75.541" cy="975.666" r="4.9722" fx="72.7529" fy="972.2587" gradientTransform="matrix(1 0 0 -1 244 1480.1406)" gradientUnits="userSpaceOnUse">
	<stop  offset="0" style="stop-color:#FFF6BF"/>
	<stop  offset="0.5644" style="stop-color:#FFAC00"/>
	<stop  offset="1" style="stop-color:#FFC900"/>
</radialGradient>
<circle fill="url(#SVGID_13_)" cx="319.542" cy="504.474" r="4.972"/>
<path fill="#D19A00" d="M319.542,510.112c-3.108,0-5.638-2.529-5.638-5.639c0-3.108,2.529-5.638,5.638-5.638
	c3.107,0,5.637,2.53,5.637,5.638C325.179,507.583,322.649,510.112,319.542,510.112z M319.542,500.168
	c-2.374,0-4.307,1.932-4.307,4.306c0,2.375,1.933,4.307,4.307,4.307c2.373,0,4.305-1.933,4.305-4.307
	C323.847,502.1,321.915,500.168,319.542,500.168z"/>
<radialGradient id="SVGID_14_" cx="81.5146" cy="967.4287" r="4.9722" fx="78.7266" fy="964.0214" gradientTransform="matrix(1 0 0 -1 244 1480.1406)" gradientUnits="userSpaceOnUse">
	<stop  offset="0" style="stop-color:#FFF6BF"/>
	<stop  offset="0.5644" style="stop-color:#FFAC00"/>
	<stop  offset="1" style="stop-color:#FFC900"/>
</radialGradient>
<circle fill="url(#SVGID_14_)" cx="325.515" cy="512.712" r="4.972"/>
<path fill="#D19A00" d="M325.515,518.35c-3.109,0-5.639-2.529-5.639-5.639c0-3.108,2.529-5.638,5.639-5.638s5.639,2.529,5.639,5.638
	C331.153,515.82,328.624,518.35,325.515,518.35z M325.515,508.406c-2.374,0-4.307,1.931-4.307,4.305
	c0,2.375,1.933,4.307,4.307,4.307c2.375,0,4.307-1.932,4.307-4.307C329.821,510.337,327.89,508.406,325.515,508.406z"/>
<radialGradient id="SVGID_15_" cx="89.5337" cy="962.0996" r="4.9724" fx="86.7454" fy="958.6921" gradientTransform="matrix(1 0 0 -1 244 1480.1406)" gradientUnits="userSpaceOnUse">
	<stop  offset="0" style="stop-color:#FFF6BF"/>
	<stop  offset="0.5644" style="stop-color:#FFAC00"/>
	<stop  offset="1" style="stop-color:#FFC900"/>
</radialGradient>
<path fill="url(#SVGID_15_)" d="M333.535,513.068c2.745,0,4.971,2.227,4.971,4.972c0,2.747-2.226,4.973-4.971,4.973
	c-2.748,0-4.974-2.226-4.974-4.973C328.562,515.295,330.787,513.068,333.535,513.068z"/>
<path fill="#D19A00" d="M333.535,523.679c-3.11,0-5.64-2.529-5.64-5.639c0-3.108,2.529-5.638,5.64-5.638
	c3.107,0,5.638,2.529,5.638,5.638C339.173,521.15,336.643,523.679,333.535,523.679z M333.535,513.735
	c-2.375,0-4.308,1.932-4.308,4.305c0,2.375,1.933,4.307,4.308,4.307c2.374,0,4.305-1.932,4.305-4.307
	C337.84,515.667,335.909,513.735,333.535,513.735z"/>
<radialGradient id="SVGID_16_" cx="99.479" cy="967.4287" r="4.9719" fx="96.6911" fy="964.0216" gradientTransform="matrix(1 0 0 -1 244 1480.1406)" gradientUnits="userSpaceOnUse">
	<stop  offset="0" style="stop-color:#FFF6BF"/>
	<stop  offset="0.5644" style="stop-color:#FFAC00"/>
	<stop  offset="1" style="stop-color:#FFC900"/>
</radialGradient>
<circle fill="url(#SVGID_16_)" cx="343.48" cy="512.712" r="4.972"/>
<path fill="#D19A00" d="M343.48,518.35c-3.11,0-5.639-2.529-5.639-5.639c0-3.108,2.528-5.638,5.639-5.638
	c3.108,0,5.638,2.529,5.638,5.638C349.118,515.82,346.589,518.35,343.48,518.35z M343.48,508.406c-2.375,0-4.307,1.931-4.307,4.305
	c0,2.375,1.932,4.307,4.307,4.307c2.374,0,4.305-1.932,4.305-4.307C347.785,510.337,345.854,508.406,343.48,508.406z"/>
<radialGradient id="SVGID_17_" cx="106.7593" cy="975.4229" r="4.9719" fx="103.9713" fy="972.0157" gradientTransform="matrix(1 0 0 -1 244 1480.1406)" gradientUnits="userSpaceOnUse">
	<stop  offset="0" style="stop-color:#FFF6BF"/>
	<stop  offset="0.5644" style="stop-color:#FFAC00"/>
	<stop  offset="1" style="stop-color:#FFC900"/>
</radialGradient>
<circle fill="url(#SVGID_17_)" cx="350.759" cy="504.718" r="4.972"/>
<path fill="#D19A00" d="M350.759,510.356c-3.108,0-5.638-2.53-5.638-5.639c0-3.108,2.529-5.638,5.638-5.638
	c3.109,0,5.639,2.529,5.639,5.638C356.397,507.826,353.868,510.356,350.759,510.356z M350.759,500.412
	c-2.374,0-4.306,1.931-4.306,4.305c0,2.375,1.932,4.307,4.306,4.307s4.307-1.932,4.307-4.307
	C355.065,502.343,353.133,500.412,350.759,500.412z"/>
<path fill="#2B2B2B" d="M260.768,548.482l7.604-27.508c0,0,2.684-17.221-2.907-17.221c-5.592,0-15.879,0-15.879,0
	s-4.25-3.13-4.25-12.972c0,0-0.895-3.019-3.019-3.019c-1.735,0-7.829,0-10.008,0c-0.489,0-0.783,0-0.783,0c-2.18,0-8.273,0-10.008,0
	c-2.125,0-3.02,3.019-3.02,3.019c0,9.842-4.249,12.972-4.249,12.972s-10.288,0-15.879,0c-5.592,0-2.908,17.221-2.908,17.221
	l10.959,27.508l-12.301,13.446h37.405h0.783h37.404L260.768,548.482z"/>
<radialGradient id="SVGID_18_" cx="216.3081" cy="504.4746" r="4.9719" gradientUnits="userSpaceOnUse">
	<stop  offset="0" style="stop-color:#FFFFFF"/>
	<stop  offset="0.5215" style="stop-color:#D3D3D3"/>
	<stop  offset="1" style="stop-color:#727272"/>
</radialGradient>
<circle fill="url(#SVGID_18_)" cx="216.309" cy="504.474" r="4.972"/>
<path fill="#727272" d="M216.309,510.112c-3.109,0-5.639-2.529-5.639-5.639c0-3.108,2.529-5.638,5.639-5.638
	c3.108,0,5.638,2.53,5.638,5.638C221.946,507.583,219.417,510.112,216.309,510.112z M216.309,500.168
	c-2.375,0-4.307,1.932-4.307,4.306c0,2.375,1.932,4.307,4.307,4.307c2.374,0,4.306-1.933,4.306-4.307
	C220.614,502.1,218.683,500.168,216.309,500.168z"/>
<radialGradient id="SVGID_19_" cx="222.2817" cy="512.7119" r="4.9719" gradientUnits="userSpaceOnUse">
	<stop  offset="0" style="stop-color:#FFFFFF"/>
	<stop  offset="0.5215" style="stop-color:#D3D3D3"/>
	<stop  offset="1" style="stop-color:#727272"/>
</radialGradient>
<circle fill="url(#SVGID_19_)" cx="222.28" cy="512.712" r="4.972"/>
<path fill="#727272" d="M222.28,518.35c-3.107,0-5.637-2.529-5.637-5.639c0-3.108,2.529-5.638,5.637-5.638
	c3.11,0,5.64,2.529,5.64,5.638C227.92,515.82,225.391,518.35,222.28,518.35z M222.28,508.406c-2.373,0-4.305,1.931-4.305,4.305
	c0,2.375,1.932,4.307,4.305,4.307c2.375,0,4.307-1.932,4.307-4.307C226.587,510.337,224.655,508.406,222.28,508.406z"/>
<radialGradient id="SVGID_20_" cx="230.3003" cy="518.0405" r="4.9722" gradientUnits="userSpaceOnUse">
	<stop  offset="0" style="stop-color:#FFFFFF"/>
	<stop  offset="0.5215" style="stop-color:#D3D3D3"/>
	<stop  offset="1" style="stop-color:#727272"/>
</radialGradient>
<circle fill="url(#SVGID_20_)" cx="230.301" cy="518.041" r="4.972"/>
<path fill="#727272" d="M230.301,523.679c-3.109,0-5.639-2.529-5.639-5.639c0-3.108,2.529-5.638,5.639-5.638
	c3.108,0,5.639,2.529,5.639,5.638C235.939,521.15,233.409,523.679,230.301,523.679z M230.301,513.735
	c-2.374,0-4.307,1.932-4.307,4.305c0,2.375,1.933,4.307,4.307,4.307c2.375,0,4.306-1.932,4.306-4.307
	C234.606,515.667,232.676,513.735,230.301,513.735z"/>
<radialGradient id="SVGID_21_" cx="240.2461" cy="512.7119" r="4.9717" gradientUnits="userSpaceOnUse">
	<stop  offset="0" style="stop-color:#FFFFFF"/>
	<stop  offset="0.5215" style="stop-color:#D3D3D3"/>
	<stop  offset="1" style="stop-color:#727272"/>
</radialGradient>
<circle fill="url(#SVGID_21_)" cx="240.246" cy="512.712" r="4.972"/>
<path fill="#727272" d="M240.246,518.35c-3.108,0-5.638-2.529-5.638-5.639c0-3.108,2.529-5.638,5.638-5.638
	c3.109,0,5.639,2.529,5.639,5.638C245.885,515.82,243.355,518.35,240.246,518.35z M240.246,508.406
	c-2.374,0-4.306,1.931-4.306,4.305c0,2.375,1.932,4.307,4.306,4.307c2.375,0,4.306-1.932,4.306-4.307
	C244.552,510.337,242.621,508.406,240.246,508.406z"/>
<radialGradient id="SVGID_22_" cx="247.5259" cy="504.7178" r="4.9719" gradientUnits="userSpaceOnUse">
	<stop  offset="0" style="stop-color:#FFFFFF"/>
	<stop  offset="0.5215" style="stop-color:#D3D3D3"/>
	<stop  offset="1" style="stop-color:#727272"/>
</radialGradient>
<circle fill="url(#SVGID_22_)" cx="247.525" cy="504.718" r="4.972"/>
<path fill="#727272" d="M247.525,510.356c-3.108,0-5.638-2.53-5.638-5.639c0-3.108,2.529-5.638,5.638-5.638
	c3.109,0,5.639,2.529,5.639,5.638C253.164,507.826,250.635,510.356,247.525,510.356z M247.525,500.412
	c-2.374,0-4.306,1.931-4.306,4.305c0,2.375,1.932,4.307,4.306,4.307c2.375,0,4.307-1.932,4.307-4.307
	C251.832,502.343,249.9,500.412,247.525,500.412z"/>
<polygon fill="#563426" points="1071.436,652.243 816.835,652.243 1071.436,575.562 "/>
<path fill="#472A1F" d="M1072.102,652.909H812.313l259.788-78.244V652.909z M821.357,651.578h249.412v-75.12L821.357,651.578z"/>
<linearGradient id="SVGID_23_" gradientUnits="userSpaceOnUse" x1="792.3291" y1="759.4141" x2="792.3291" y2="607.5064" gradientTransform="matrix(1 0 0 -1 244 1480.1406)">
	<stop  offset="0" style="stop-color:#5E3F2F"/>
	<stop  offset="0.6442" style="stop-color:#4F3529"/>
	<stop  offset="0.9387" style="stop-color:#4F3529"/>
</linearGradient>
<rect x="816.835" y="679.182" fill="url(#SVGID_23_)" width="438.989" height="215.798"/>
<path fill="#3D251A" d="M1257.822,896.978H814.837V677.183h442.985V896.978z M818.833,892.981h434.993V681.181H818.833V892.981z"/>
<rect x="802.623" y="652.909" fill="#3D251A" width="450.361" height="26.273"/>
<path fill="#3D251A" d="M1254.982,681.182H800.625v-30.27h454.357V681.182z M804.622,677.185h446.364v-22.276H804.622V677.185z"/>
<polygon fill="#684536" points="823.488,685.421 1251.162,685.421 1251.162,719.395 "/>
<polygon opacity="0.33" fill="#3D251A" points="823.488,802.664 823.488,886.601 1251.162,886.601 "/>
<rect x="802.623" y="652.909" opacity="0.43" fill="#684536" width="450.361" height="3.932"/>
</svg>
