<?xml version="1.0" encoding="utf-8"?>
<!-- Generator: Adobe Illustrator 15.0.0, SVG Export Plug-In  -->
<!DOCTYPE svg PUBLIC "-//W3C//DTD SVG 1.1//EN" "http://www.w3.org/Graphics/SVG/1.1/DTD/svg11.dtd" [
	<!ENTITY ns_flows "http://ns.adobe.com/Flows/1.0/">
]>
<svg version="1.1"
	 xmlns="http://www.w3.org/2000/svg" xmlns:xlink="http://www.w3.org/1999/xlink" xmlns:a="http://ns.adobe.com/AdobeSVGViewerExtensions/3.0/"
	 x="0px" y="0px" width="1280px" height="800px" viewBox="-50.914 5.629 1280 800"
	 overflow="visible" enable-background="new -50.914 5.629 1280 800" xml:space="preserve">
<defs>
</defs>
<linearGradient id="SVGID_2_" gradientUnits="userSpaceOnUse" x1="636.2192" y1="646.6289" x2="636.2192" y2="134.3788">
	<stop  offset="0" style="stop-color:#D1D1D1"/>
	<stop  offset="1" style="stop-color:#E5E5E5"/>
</linearGradient>
<path display="none" fill="url(#SVGID_2_)" d="M636.219,5.629c-404,0-461.931,163-461.931,163v362.707h461.931h461.931V168.629
	C1098.15,168.629,1040.219,5.629,636.219,5.629z"/>
<linearGradient id="SVGID_3_" gradientUnits="userSpaceOnUse" x1="371.397" y1="21.2959" x2="804.1899" y2="21.2959">
	<stop  offset="0" style="stop-color:#262626"/>
	<stop  offset="1" style="stop-color:#000000"/>
</linearGradient>
<path display="none" fill="url(#SVGID_3_)" d="M371.397,36.962H804.19V16.739C756.21,9.775,700.619,5.629,636.219,5.629
	C522.789,5.629,436.643,18.479,371.397,36.962z"/>
<path display="none" fill="#3D251A" d="M352.237,42.74h455.85v-5.778H371.397C364.795,38.833,358.417,40.762,352.237,42.74z"/>
<path display="none" fill="#3D251A" d="M271.474,76.75h536.612v-5.778H282.445C278.663,72.888,275.007,74.815,271.474,76.75z"/>
<linearGradient id="SVGID_4_" gradientUnits="userSpaceOnUse" x1="552.1475" y1="47.7959" x2="552.1475" y2="61.3">
	<stop  offset="0" style="stop-color:#5E3F2F"/>
	<stop  offset="0.6442" style="stop-color:#4F3529"/>
	<stop  offset="0.9387" style="stop-color:#4F3529"/>
</linearGradient>
<path display="none" fill="url(#SVGID_4_)" d="M282.445,70.973h539.406V42.74H352.237C325.184,51.398,302.104,61.017,282.445,70.973
	z"/>
<path display="none" fill="#7A7979" d="M1099.65,532.836H172.789V168.37l0.086-0.244c0.599-1.684,15.401-41.708,80.082-82.269
	c37.865-23.745,85.066-42.659,140.291-56.217C462.201,12.712,543.948,4.129,636.219,4.129c92.271,0,174.019,8.583,242.972,25.512
	c55.225,13.558,102.426,32.472,140.291,56.217c64.681,40.561,79.483,80.585,80.081,82.269l0.087,0.244V532.836z M175.789,529.836
	h920.861V168.904c-1.306-3.336-17.604-42.249-79.072-80.699C958.45,51.219,844.291,7.129,636.219,7.129
	s-322.23,44.09-381.358,81.077c-61.467,38.45-77.766,77.363-79.072,80.699V529.836z"/>
<polygon display="none" opacity="0.52" fill="#F4F3F2" points="193.197,513.904 193.197,249.728 797.667,360.722 797.667,513.903 
	"/>
<rect x="241.816" y="165.295" display="none" fill="#F4F4F4" width="128.77" height="170"/>
<rect x="543.816" y="165.295" display="none" fill="#F4F4F4" width="128.77" height="170"/>
<path display="none" fill="#EAE9DA" d="M250.008,327.962h112.66v-78.235c0,0-3.617-51.416-37.958-51.416
	s-18.507,60.317-18.507,60.317L250.008,327.962z"/>
<rect x="250.008" y="288.629" display="none" opacity="0.82" fill="#9B9B97" width="103.727" height="11.5"/>
<rect x="270.473" y="308.129" display="none" opacity="0.82" fill="#9B9B97" width="62.797" height="11.5"/>
<rect x="556.338" y="288.629" display="none" opacity="0.82" fill="#9B9B97" width="103.727" height="11.5"/>
<rect x="556.338" y="177.962" display="none" opacity="0.82" fill="#9B9B97" width="103.727" height="11.5"/>
<rect x="576.803" y="308.129" display="none" opacity="0.82" fill="#9B9B97" width="62.797" height="11.5"/>
<circle display="none" fill="#DDDDDB" cx="602.426" cy="234.962" r="24.333"/>
<polyline display="none" fill="#E5E5E5" stroke="#CCCCCC" stroke-width="4" stroke-miterlimit="10" points="546.493,531.336 
	838.042,531.336 1035.732,805.629 3.621,805.629 176.156,531.336 546.493,531.336 "/>
<path display="none" fill="#F2F2F2" d="M788.668,792.949H46.206l136.493-242.328h15l-68.112,131.008
	C129.586,681.629,109.205,792.949,788.668,792.949z"/>
<linearGradient id="SVGID_5_" gradientUnits="userSpaceOnUse" x1="34.1777" y1="437.7012" x2="34.1777" y2="344.9302" gradientTransform="matrix(1 0 0 -1 244 907.2578)">
	<stop  offset="0" style="stop-color:#5E3F2F"/>
	<stop  offset="0.6442" style="stop-color:#4F3529"/>
	<stop  offset="0.9387" style="stop-color:#4F3529"/>
</linearGradient>
<rect x="113.431" y="444.186" display="none" fill="url(#SVGID_5_)" stroke="#3D251A" stroke-width="3" stroke-miterlimit="10" width="329.493" height="131.789"/>
<rect x="101.396" y="427.379" display="none" fill="#3D251A" stroke="#3D251A" stroke-width="3" stroke-miterlimit="10" width="354.191" height="14.532"/>
<polygon display="none" fill="#684536" points="118.424,452.156 439.424,452.156 439.424,477.656 "/>
<polygon display="none" opacity="0.33" fill="#3D251A" points="118.424,506.686 118.424,569.686 439.424,569.686 "/>
<rect x="101.396" y="428.379" display="none" opacity="0.43" fill="#684536" width="354.191" height="2.951"/>
<path display="none" fill="#2B2B2B" d="M432.709,415.804l5.707-20.646c0,0,2.014-12.926-2.183-12.926s-11.918,0-11.918,0
	s-3.19-2.35-3.19-9.736c0,0-0.67-2.266-2.266-2.266c-1.302,0-5.876,0-7.512,0c-0.367,0-0.588,0-0.588,0c-1.635,0-6.209,0-7.511,0
	c-1.595,0-2.267,2.266-2.267,2.266c0,7.387-3.189,9.736-3.189,9.736s-7.722,0-11.918,0c-4.197,0-2.183,12.926-2.183,12.926
	l8.226,20.646l-9.232,10.093h28.074h0.588h28.076L432.709,415.804z"/>
<radialGradient id="SVGID_6_" cx="156.3389" cy="524.4844" r="3.7319" fx="154.2462" fy="521.927" gradientTransform="matrix(1 0 0 -1 244 907.2578)" gradientUnits="userSpaceOnUse">
	<stop  offset="0" style="stop-color:#FFF6BF"/>
	<stop  offset="0.5644" style="stop-color:#FFAC00"/>
	<stop  offset="1" style="stop-color:#FFC900"/>
</radialGradient>
<circle display="none" fill="url(#SVGID_6_)" stroke="#D19A00" stroke-miterlimit="10" cx="400.339" cy="382.773" r="3.732"/>
<radialGradient id="SVGID_7_" cx="160.8223" cy="518.3027" r="3.7319" fx="158.7296" fy="515.7454" gradientTransform="matrix(1 0 0 -1 244 907.2578)" gradientUnits="userSpaceOnUse">
	<stop  offset="0" style="stop-color:#FFF6BF"/>
	<stop  offset="0.5644" style="stop-color:#FFAC00"/>
	<stop  offset="1" style="stop-color:#FFC900"/>
</radialGradient>
<circle display="none" fill="url(#SVGID_7_)" stroke="#D19A00" stroke-miterlimit="10" cx="404.822" cy="388.956" r="3.732"/>
<radialGradient id="SVGID_8_" cx="166.8413" cy="514.3027" r="3.7317" fx="164.7488" fy="511.7455" gradientTransform="matrix(1 0 0 -1 244 907.2578)" gradientUnits="userSpaceOnUse">
	<stop  offset="0" style="stop-color:#FFF6BF"/>
	<stop  offset="0.5644" style="stop-color:#FFAC00"/>
	<stop  offset="1" style="stop-color:#FFC900"/>
</radialGradient>
<circle display="none" fill="url(#SVGID_8_)" stroke="#D19A00" stroke-miterlimit="10" cx="410.842" cy="392.956" r="3.732"/>
<radialGradient id="SVGID_9_" cx="174.3062" cy="518.3027" r="3.7317" fx="172.2137" fy="515.7455" gradientTransform="matrix(1 0 0 -1 244 907.2578)" gradientUnits="userSpaceOnUse">
	<stop  offset="0" style="stop-color:#FFF6BF"/>
	<stop  offset="0.5644" style="stop-color:#FFAC00"/>
	<stop  offset="1" style="stop-color:#FFC900"/>
</radialGradient>
<circle display="none" fill="url(#SVGID_9_)" stroke="#D19A00" stroke-miterlimit="10" cx="418.307" cy="388.956" r="3.732"/>
<radialGradient id="SVGID_10_" cx="179.77" cy="524.3027" r="3.7317" fx="177.6775" fy="521.7455" gradientTransform="matrix(1 0 0 -1 244 907.2578)" gradientUnits="userSpaceOnUse">
	<stop  offset="0" style="stop-color:#FFF6BF"/>
	<stop  offset="0.5644" style="stop-color:#FFAC00"/>
	<stop  offset="1" style="stop-color:#FFC900"/>
</radialGradient>
<circle display="none" fill="url(#SVGID_10_)" stroke="#D19A00" stroke-miterlimit="10" cx="423.77" cy="382.956" r="3.732"/>
<path display="none" fill="#2B2B2B" d="M356.225,415.804l5.708-20.646c0,0,2.014-12.926-2.183-12.926c-4.196,0-11.918,0-11.918,0
	s-3.19-2.35-3.19-9.736c0,0-0.671-2.266-2.266-2.266c-1.302,0-5.876,0-7.512,0c-0.367,0-0.588,0-0.588,0c-1.635,0-6.209,0-7.511,0
	c-1.595,0-2.266,2.266-2.266,2.266c0,7.387-3.19,9.736-3.19,9.736s-7.722,0-11.918,0c-4.197,0-2.183,12.926-2.183,12.926
	l8.226,20.646l-9.232,10.093h28.075h0.588h28.075L356.225,415.804z"/>
<radialGradient id="SVGID_11_" cx="322.855" cy="382.7729" r="3.7319" gradientUnits="userSpaceOnUse">
	<stop  offset="0" style="stop-color:#FFFFFF"/>
	<stop  offset="0.5215" style="stop-color:#D3D3D3"/>
	<stop  offset="1" style="stop-color:#727272"/>
</radialGradient>
<circle display="none" fill="url(#SVGID_11_)" stroke="#727272" stroke-miterlimit="10" cx="322.855" cy="382.773" r="3.732"/>
<radialGradient id="SVGID_12_" cx="327.3384" cy="388.9556" r="3.7319" gradientUnits="userSpaceOnUse">
	<stop  offset="0" style="stop-color:#FFFFFF"/>
	<stop  offset="0.5215" style="stop-color:#D3D3D3"/>
	<stop  offset="1" style="stop-color:#727272"/>
</radialGradient>
<circle display="none" fill="url(#SVGID_12_)" stroke="#727272" stroke-miterlimit="10" cx="327.338" cy="388.956" r="3.732"/>
<radialGradient id="SVGID_13_" cx="333.3569" cy="392.9556" r="3.7322" gradientUnits="userSpaceOnUse">
	<stop  offset="0" style="stop-color:#FFFFFF"/>
	<stop  offset="0.5215" style="stop-color:#D3D3D3"/>
	<stop  offset="1" style="stop-color:#727272"/>
</radialGradient>
<circle display="none" fill="url(#SVGID_13_)" stroke="#727272" stroke-miterlimit="10" cx="333.357" cy="392.956" r="3.732"/>
<radialGradient id="SVGID_14_" cx="340.8223" cy="388.9556" r="3.7319" gradientUnits="userSpaceOnUse">
	<stop  offset="0" style="stop-color:#FFFFFF"/>
	<stop  offset="0.5215" style="stop-color:#D3D3D3"/>
	<stop  offset="1" style="stop-color:#727272"/>
</radialGradient>
<circle display="none" fill="url(#SVGID_14_)" stroke="#727272" stroke-miterlimit="10" cx="340.822" cy="388.956" r="3.732"/>
<radialGradient id="SVGID_15_" cx="346.2861" cy="382.9556" r="3.7319" gradientUnits="userSpaceOnUse">
	<stop  offset="0" style="stop-color:#FFFFFF"/>
	<stop  offset="0.5215" style="stop-color:#D3D3D3"/>
	<stop  offset="1" style="stop-color:#727272"/>
</radialGradient>
<circle display="none" fill="url(#SVGID_15_)" stroke="#727272" stroke-miterlimit="10" cx="346.286" cy="382.956" r="3.732"/>
<path display="none" fill="#2B2B2B" d="M272.209,415.804l5.707-20.646c0,0,2.014-12.926-2.183-12.926s-11.918,0-11.918,0
	s-3.19-2.35-3.19-9.736c0,0-0.67-2.266-2.266-2.266c-1.302,0-5.876,0-7.512,0c-0.367,0-0.588,0-0.588,0c-1.635,0-6.209,0-7.511,0
	c-1.595,0-2.267,2.266-2.267,2.266c0,7.387-3.189,9.736-3.189,9.736s-7.722,0-11.918,0c-4.197,0-2.183,12.926-2.183,12.926
	l8.226,20.646l-9.232,10.093h28.074h0.588h28.076L272.209,415.804z"/>
<radialGradient id="SVGID_16_" cx="-4.1611" cy="524.4844" r="3.7319" fx="-6.2538" fy="521.927" gradientTransform="matrix(1 0 0 -1 244 907.2578)" gradientUnits="userSpaceOnUse">
	<stop  offset="0" style="stop-color:#FFF6BF"/>
	<stop  offset="0.5644" style="stop-color:#FFAC00"/>
	<stop  offset="1" style="stop-color:#FFC900"/>
</radialGradient>
<circle display="none" fill="url(#SVGID_16_)" stroke="#D19A00" stroke-miterlimit="10" cx="239.839" cy="382.773" r="3.732"/>
<radialGradient id="SVGID_17_" cx="0.3223" cy="518.3027" r="3.7319" fx="-1.7704" fy="515.7454" gradientTransform="matrix(1 0 0 -1 244 907.2578)" gradientUnits="userSpaceOnUse">
	<stop  offset="0" style="stop-color:#FFF6BF"/>
	<stop  offset="0.5644" style="stop-color:#FFAC00"/>
	<stop  offset="1" style="stop-color:#FFC900"/>
</radialGradient>
<circle display="none" fill="url(#SVGID_17_)" stroke="#D19A00" stroke-miterlimit="10" cx="244.322" cy="388.956" r="3.732"/>
<radialGradient id="SVGID_18_" cx="6.3413" cy="514.3027" r="3.7317" fx="4.2488" fy="511.7455" gradientTransform="matrix(1 0 0 -1 244 907.2578)" gradientUnits="userSpaceOnUse">
	<stop  offset="0" style="stop-color:#FFF6BF"/>
	<stop  offset="0.5644" style="stop-color:#FFAC00"/>
	<stop  offset="1" style="stop-color:#FFC900"/>
</radialGradient>
<circle display="none" fill="url(#SVGID_18_)" stroke="#D19A00" stroke-miterlimit="10" cx="250.342" cy="392.956" r="3.732"/>
<radialGradient id="SVGID_19_" cx="13.8062" cy="518.3027" r="3.7317" fx="11.7137" fy="515.7455" gradientTransform="matrix(1 0 0 -1 244 907.2578)" gradientUnits="userSpaceOnUse">
	<stop  offset="0" style="stop-color:#FFF6BF"/>
	<stop  offset="0.5644" style="stop-color:#FFAC00"/>
	<stop  offset="1" style="stop-color:#FFC900"/>
</radialGradient>
<circle display="none" fill="url(#SVGID_19_)" stroke="#D19A00" stroke-miterlimit="10" cx="257.807" cy="388.956" r="3.732"/>
<radialGradient id="SVGID_20_" cx="19.27" cy="524.3027" r="3.7317" fx="17.1775" fy="521.7455" gradientTransform="matrix(1 0 0 -1 244 907.2578)" gradientUnits="userSpaceOnUse">
	<stop  offset="0" style="stop-color:#FFF6BF"/>
	<stop  offset="0.5644" style="stop-color:#FFAC00"/>
	<stop  offset="1" style="stop-color:#FFC900"/>
</radialGradient>
<circle display="none" fill="url(#SVGID_20_)" stroke="#D19A00" stroke-miterlimit="10" cx="263.27" cy="382.956" r="3.732"/>
<path display="none" fill="#2B2B2B" d="M195.725,415.804l5.708-20.646c0,0,2.014-12.926-2.183-12.926c-4.196,0-11.918,0-11.918,0
	s-3.19-2.35-3.19-9.736c0,0-0.671-2.266-2.266-2.266c-1.302,0-5.876,0-7.512,0c-0.367,0-0.588,0-0.588,0c-1.635,0-6.209,0-7.511,0
	c-1.595,0-2.266,2.266-2.266,2.266c0,7.387-3.19,9.736-3.19,9.736s-7.722,0-11.918,0c-4.197,0-2.183,12.926-2.183,12.926
	l8.226,20.646l-9.232,10.093h28.075h0.588h28.075L195.725,415.804z"/>
<radialGradient id="SVGID_21_" cx="162.355" cy="382.7729" r="3.7319" gradientUnits="userSpaceOnUse">
	<stop  offset="0" style="stop-color:#FFFFFF"/>
	<stop  offset="0.5215" style="stop-color:#D3D3D3"/>
	<stop  offset="1" style="stop-color:#727272"/>
</radialGradient>
<circle display="none" fill="url(#SVGID_21_)" stroke="#727272" stroke-miterlimit="10" cx="162.355" cy="382.773" r="3.732"/>
<radialGradient id="SVGID_22_" cx="166.8384" cy="388.9556" r="3.7319" gradientUnits="userSpaceOnUse">
	<stop  offset="0" style="stop-color:#FFFFFF"/>
	<stop  offset="0.5215" style="stop-color:#D3D3D3"/>
	<stop  offset="1" style="stop-color:#727272"/>
</radialGradient>
<circle display="none" fill="url(#SVGID_22_)" stroke="#727272" stroke-miterlimit="10" cx="166.838" cy="388.956" r="3.732"/>
<radialGradient id="SVGID_23_" cx="172.8569" cy="392.9556" r="3.7322" gradientUnits="userSpaceOnUse">
	<stop  offset="0" style="stop-color:#FFFFFF"/>
	<stop  offset="0.5215" style="stop-color:#D3D3D3"/>
	<stop  offset="1" style="stop-color:#727272"/>
</radialGradient>
<circle display="none" fill="url(#SVGID_23_)" stroke="#727272" stroke-miterlimit="10" cx="172.857" cy="392.956" r="3.732"/>
<radialGradient id="SVGID_24_" cx="180.3223" cy="388.9556" r="3.7319" gradientUnits="userSpaceOnUse">
	<stop  offset="0" style="stop-color:#FFFFFF"/>
	<stop  offset="0.5215" style="stop-color:#D3D3D3"/>
	<stop  offset="1" style="stop-color:#727272"/>
</radialGradient>
<circle display="none" fill="url(#SVGID_24_)" stroke="#727272" stroke-miterlimit="10" cx="180.322" cy="388.956" r="3.732"/>
<radialGradient id="SVGID_25_" cx="185.7861" cy="382.9556" r="3.7319" gradientUnits="userSpaceOnUse">
	<stop  offset="0" style="stop-color:#FFFFFF"/>
	<stop  offset="0.5215" style="stop-color:#D3D3D3"/>
	<stop  offset="1" style="stop-color:#727272"/>
</radialGradient>
<circle display="none" fill="url(#SVGID_25_)" stroke="#727272" stroke-miterlimit="10" cx="185.786" cy="382.956" r="3.732"/>
<polygon display="none" fill="#563426" stroke="#472A1F" stroke-miterlimit="10" points="804.19,493.685 613.093,493.685 
	804.19,436.129 "/>
<linearGradient id="SVGID_26_" gradientUnits="userSpaceOnUse" x1="533.8398" y1="362.1719" x2="533.8398" y2="248.1543" gradientTransform="matrix(1 0 0 -1 244 907.2578)">
	<stop  offset="0" style="stop-color:#5E3F2F"/>
	<stop  offset="0.6442" style="stop-color:#4F3529"/>
	<stop  offset="0.9387" style="stop-color:#4F3529"/>
</linearGradient>
<rect x="613.093" y="513.903" display="none" fill="url(#SVGID_26_)" stroke="#3D251A" stroke-width="3" stroke-miterlimit="10" width="329.493" height="161.972"/>
<rect x="602.426" y="494.185" display="none" fill="#3D251A" stroke="#3D251A" stroke-width="3" stroke-miterlimit="10" width="338.028" height="19.72"/>
<polygon display="none" fill="#684536" points="618.086,518.586 939.086,518.586 939.086,544.086 "/>
<polygon display="none" opacity="0.33" fill="#3D251A" points="618.086,606.586 618.086,669.586 939.086,669.586 "/>
<rect x="602.426" y="494.185" display="none" opacity="0.43" fill="#684536" width="338.028" height="2.95"/>
<linearGradient id="SVGID_27_" gradientUnits="userSpaceOnUse" x1="1016.6382" y1="143.3584" x2="1016.6382" y2="753.9747">
	<stop  offset="0" style="stop-color:#D7D8D6"/>
	<stop  offset="1" style="stop-color:#B7B7B7"/>
</linearGradient>
<rect x="807.861" y="5.629" display="none" fill="url(#SVGID_27_)" width="417.555" height="800"/>
<path display="none" fill="#B5B4B4" d="M1229.086,807.629H804.19v-804h424.896V807.629z M811.53,803.629h410.217v-796H811.53
	V803.629z"/>
<polygon display="none" opacity="0.33" fill="#AFAEAE" points="821.851,792.949 1102.151,308.294 1102.151,791.296 "/>
<path display="none" d="M1142.434,799.607c0,26.018,42.627,47.107,12.046,47.107H953.888c-30.581,0-76.993-22.549-76.993-48.566
	l38.043-320.932c0-26.016,59.676-85.867,90.26-85.867l53.306-24.374c30.583,0,109.711,62.012,109.711,88.028L1142.434,799.607z"/>
<path display="none" fill="#1E1E1E" d="M1160.49,460.517l-13.188,133.74l-4.165,76.588L1135.5,793.71l12.183,4.398l21.839-343.145
	c0-24.562-80.711-89.714-105.478-93.538c-2.685,2.277-4.768,4.878-6.649,5.26C1065.867,368.514,1164.739,413.167,1160.49,460.517z"
	/>
<path display="none" fill="#1E1E1E" d="M1112.419,396.931c-1.214-0.26-1.702-0.266-1.214-0.068
	C1111.601,397.023,1112.007,397.017,1112.419,396.931z"/>
<path display="none" fill="#1E1E1E" d="M977.803,396.765c0,0-25.592-18.813-32.411-15.342c-6.819,3.471-40.239,90.24-40.239,90.24
	S995.132,414.655,977.803,396.765z"/>
<linearGradient id="SVGID_28_" gradientUnits="userSpaceOnUse" x1="935.7192" y1="215.29" x2="1057.201" y2="331.2185" gradientTransform="matrix(0.9419 -0.3358 0.3358 0.9419 -27.8239 353.989)">
	<stop  offset="0" style="stop-color:#FFD8BF"/>
	<stop  offset="1" style="stop-color:#EFA57F"/>
</linearGradient>
<path display="none" fill="url(#SVGID_28_)" d="M1083.244,231.609c23.175,64.998-3.313,133.833-59.165,153.747
	c-55.853,19.914-119.916-16.636-143.091-81.634c-23.176-65,3.314-133.835,59.166-153.749S1060.069,166.609,1083.244,231.609z"/>
<path display="none" fill="#F9EBE4" d="M1027.39,381.228c-54.32,19.367-116.919-16.499-139.542-79.952
	c-22.624-63.452,3.163-130.833,57.483-150.2c19.973-7.122,41.057-6.75,60.865-0.314c-21.331-7.704-44.304-8.541-66.043-0.79
	c-19.927,7.104-36.089,20.458-47.621,37.624c-19.62,31.437-24.619,74.304-9.915,115.544c14.7,41.23,45.679,71.259,80.753,83.197
	c19.793,6.006,40.77,6.127,60.708-0.981c21.729-7.748,38.986-22.92,50.632-42.369
	C1063.441,360.495,1047.353,374.109,1027.39,381.228z"/>
<ellipse transform="matrix(0.9419 -0.3358 0.3358 0.9419 -32.851 345.3744)" display="none" fill="none" cx="982.116" cy="267.665" rx="107.364" ry="124.948"/>
<path display="none" d="M1024.101,388.296c-57.203,20.396-122.985-16.981-146.637-83.317
	c-23.653-66.338,3.645-136.901,60.848-157.297c57.206-20.396,122.986,16.98,146.639,83.319
	C1108.602,297.337,1081.307,367.899,1024.101,388.296z M940.176,152.913c-54.319,19.367-80.106,86.748-57.482,150.201
	c22.624,63.453,85.223,99.318,139.542,79.951c54.319-19.367,80.107-86.747,57.483-150.199
	C1057.095,169.413,994.497,133.545,940.176,152.913z"/>
<path display="none" opacity="0.35" fill="#C98061" d="M1078,218.869c-20.938-14.002-52.61-3.477-52.61-3.477
	c0-0.001,14.039,38.908,29.974,59.28c5.237,27.957,1.43,64.455-27.973,106.555c0,0,40.621-8.294,59.889-68.213
	c6.68-25.083,5.882-53.592-4.035-81.406C1081.681,227.226,1079.917,222.984,1078,218.869z"/>
<path display="none" d="M1024.101,388.296c-57.203,20.396-122.985-16.981-146.637-83.317
	c-23.653-66.338,3.645-136.901,60.848-157.297c57.206-20.396,122.986,16.98,146.639,83.319
	C1108.602,297.337,1081.307,367.899,1024.101,388.296z M940.176,152.913c-54.319,19.367-80.106,86.748-57.482,150.201
	c22.624,63.453,85.223,99.318,139.542,79.951c54.319-19.367,80.107-86.747,57.483-150.199
	C1057.095,169.413,994.497,133.545,940.176,152.913z"/>
<path display="none" fill="#B7B1AC" d="M1036.019,149.452c0,0-24.76,23.567-31.542,45.883
	c-6.782,22.316,39.755,53.625,50.029,51.436c10.273-2.188,32.527-11.355,34.724,7.091c2.194,18.445,15.315,23.707,26.385,17.549
	C1126.685,265.254,1091.096,105.496,1036.019,149.452z"/>
<path display="none" fill="#B7B1AC" d="M1002.273,199.069c0,0-57.169,44.703-105.39,16.941c-29.566-5.561-29.04,23.956-29.04,23.956
	s-32.043-5.125-29.127-44.487c2.916-39.361,158.563-152.615,205.715-51.375C1044.703,155.2,1002.273,199.069,1002.273,199.069z"/>
<path display="none" d="M1100.195,183.643c-15.854-35.021-34.641-49.875-54.333-42.968c-19.181-38.585-57.113-50.025-107.124-32.194
	c-52.376,18.674-101.11,64.09-102.792,86.795c-3.069,41.425,31.11,47.377,31.459,47.432l3.258,0.517l-0.043-3.302
	c-0.006-0.129,2.849-10.775,9.024-17.151c0.739-2.851,0.957-3.312,1.889-6.07c-10.663,4.753-15.615,13.989-16.262,19.782
	c-7.481-2.301-25.992-11.035-23.787-40.799c1.548-20.913,49.895-64.422,99.119-81.973c27.637-9.854,77.416-18.88,101.045,30.999
	l0.041,3.8l3.871-1.739c12.484-5.613,24.611-0.231,36.39,15.874c25.023,34.213,36.511,99.865,32.128,106.442
	c-4.771,2.588-9.927,2.652-13.93,0.17c-4.379-2.716-7.277-8.298-8.163-15.724c-0.551-4.631-4.386-6.247-7.273-8.579
	c2.218,8.3,5.738,14.72,6.429,22.938c1.664,2.527,3.694,4.604,6.085,6.086c4.782,2.964,10.546,3.483,16.227,1.458
	c1.19-0.425,2.372-0.961,3.515-1.599C1126.241,268.677,1115.061,216.488,1100.195,183.643z"/>
<path display="none" fill="#DDDDDD" d="M1111.018,266.787c0,0-8.221-126.405-63.533-120.317c0,0,15.311,4.122,20.956,13.532
	c5.647,9.409-0.484-5.723-0.484-5.723s31.4,38.917,38.601,112.625C1106.913,270.484,1111.018,266.787,1111.018,266.787z"/>
<path display="none" fill="#DDDDDD" d="M1038.251,143.988c0,0-25.123-53.93-99.942-26.762
	c-74.816,27.168-94.931,81.013-94.931,81.013l11.625-11.515l-2.776,7.378l7.975-10.705c0,0,102.447-120.54,173.621-37.83
	C1036.019,149.452,1038.251,143.988,1038.251,143.988z"/>
<path display="none" opacity="0.75" fill="#FFD8BF" d="M1043.969,257.656l1.067-6.955l8.824-5.357l8.587-0.6l9.275,3.812
	l9.052,12.985l2.315,13.729l-1.899,16.891l-12.313,8.97c0,0,13.999-21.667-4.106-34.805c-9.874,1.114-8.56,3.806-8.56,3.806
	l-0.48-5.114l4.528-5.953l5.355-2.839C1065.615,256.226,1061.872,242.37,1043.969,257.656z"/>
<polygon display="none" opacity="0.35" fill="#C98061" points="958.551,280.103 1043.06,249.972 1041.365,255.551 959.959,289.734 
	"/>
<rect x="955.252" y="256.041" transform="matrix(0.9419 -0.3358 0.3358 0.9419 -28.5349 354.614)" display="none" fill="#3A1E13" width="111.461" height="7.532"/>
<path display="none" fill="#110A08" d="M1065.628,245.058l-106.295,37.898l-2.995-8.401l106.294-37.898L1065.628,245.058z
	 M960.174,281.183l103.68-36.966l-2.063-5.786l-103.679,36.966L960.174,281.183z"/>
<path display="none" d="M1038.102,258.05c0.002,0.045,0.01,0.083,0.013,0.125L1038.102,258.05z"/>
<path display="none" d="M1053.924,242.218c-6.873,1.523-12.577,6.856-15.647,14.635c-0.146,0.375-0.187,0.77-0.17,1.155l5.862-0.352
	c2.468-5.425,6.391-8.963,11.156-10.017c10.317-2.292,21.344,7.705,24.576,22.276c2.938,13.248-1.708,26.028-10.454,29.78
	l-1.572,6.09c0.312,0.035,0.629,0.035,0.944-0.034c0.032-0.005,0.066-0.015,0.099-0.024c13.05-3.395,20.257-19.652,16.404-37.014
	C1081.226,251.149,1067.23,239.265,1053.924,242.218z"/>
<path display="none" d="M1070.573,293.901c-0.8,0.285-1.677,0.378-2.613,0.27c-3.146-0.361-4.695-3.221-5.828-5.309
	c-1.602-2.951-3.26-6.003-1.098-10.126l2.458,1.289c-1.405,2.686-0.596,4.424,1.081,7.514c1.129,2.084,2.12,3.693,3.702,3.875
	c1.012,0.117,1.779-0.154,2.414-0.844c1.782-1.942,1.907-6.35,1.429-8.715c-0.974-4.829-3.881-10.853-7.563-13.018
	c-1.459-0.858-2.018-0.616-4.113,0.307c-2.682,1.181-4.219,2.506-4.158,3.564l0.343,5.92l-2.934-5.152
	c-2.02-3.541,1.101-10.292,2.465-12.352c0.755-1.137,6.247-6.481,9.781-5.978c1.21,0.173,2.089,0.958,2.471,2.208l-2.649,0.818
	c-0.081-0.258-0.136-0.266-0.217-0.276c-1.681-0.246-6.219,3.479-7.071,4.762c-0.938,1.415-1.911,3.708-2.385,5.752
	c0.857-0.632,1.917-1.228,3.19-1.788c2.25-0.997,3.998-1.756,6.685-0.18c4.589,2.699,7.82,9.596,8.88,14.862
	c0.565,2.804,0.493,8.31-2.107,11.143C1072.113,293.125,1071.385,293.612,1070.573,293.901z"/>
<rect x="895.72" y="248.384" transform="matrix(0.8367 -0.5477 0.5477 0.8367 10.024 540.725)" display="none" fill="#B7B1AC" width="31.934" height="10.34"/>
<polygon display="none" opacity="0.35" fill="#C98061" points="898.703,283.017 951.809,271.268 958.938,300.047 963.269,298.502 
	952.845,265.648 896.656,279.602 "/>
<path display="none" d="M931.721,249.938l-31.364,20.531l-8.704-13.299l31.364-20.532L931.721,249.938z M901.162,266.624
	l26.716-17.488l-5.665-8.652l-26.716,17.489L901.162,266.624z"/>
<path display="none" fill="#DDDDDD" d="M899.009,258.345c0.583-0.04,1.085,1.318,1.489,1.761c0.414,0.464,1.194,1.563,1.786,1.826
	c0.562,0.252,0.591,0.2,0.397-0.495c-0.15-0.524-0.573-0.979-0.744-1.526c-0.186-0.589-0.176-1.312-0.412-1.871
	c-0.201-0.484-1.005-0.932-0.534-1.317c1.124-0.919,2.965,1.824,3.501,2.379c0.476,0.495,1.195,1.541,1.845,1.891
	c1.001,0.541,1.641-0.641,1.312-1.662c-0.219-0.682-4.276-3.97-2.003-4.468c1.163-0.254,1.671,1.264,2.362,1.761
	c0.526,0.384,0.617,0.429,1.165,0.049c0.881-0.609,0.576-1.325,0.352-2.229c-0.244-0.981-1.338-3.414,0.645-1.925
	c0.847,0.631,2.184,1.804,3.09,0.676c1.092-1.358-0.315-5.868,2.788-5.096c1.136,0.281,2.239,0.593,3.436,0.761
	c0.991,0.141,2.089,0.515,1.736-0.8c-0.366-1.361-1.77-1.565-1.424-3.16c0.297-1.368,1.102-1.526,2.272-0.958
	c0.694,0.338,1.604,1.082,2.163,1.603c0.707,0.66,0.926,1.694,1.902,2.035c0.149-0.136,0.294-0.285,0.443-0.431l-4.363-6.668
	l-26.718,17.491l2.843,4.339C898.279,261.252,897.809,258.422,899.009,258.345z"/>
<path display="none" fill="#FFFFFF" d="M946.79,286.238c3.369,5.8-11.88,13.181-17.678,16.549
	c-5.801,3.369-13.236,1.398-16.605-4.403c-3.37-5.801-1.398-13.236,4.402-16.605C922.708,278.41,943.42,280.437,946.79,286.238z"/>
<circle display="none" cx="917.459" cy="294.645" r="5.206"/>
<circle display="none" fill="#FFFFFF" cx="918.966" cy="290.157" r="2.82"/>
<path display="none" fill="#B7B1AC" d="M907.128,336.287c0,0-7.573,8.587-3.661,17.547c3.913,8.957,15.645,2.187,15.645,2.187
	l7.07-3.699l5.382,2.319l6.344-2.262l5.185-1.849l12.12-5.547l-5.228-2.564l-4.881-9.314c0,0-4.947-2.945-10.906-4.114
	c-5.961-1.168-15.084-2.389-17.079,0.678C915.122,332.734,907.128,336.287,907.128,336.287z"/>
<path display="none" fill="#DDDDDD" d="M942.3,341.808c1.064,1.826,1.877,3.358,4.211,2.189c-0.516-0.542-1.282-0.87-1.755-1.482
	c-0.859-1.121-1.37-2.902-2.051-4.162c-0.643-1.199-1.915-3.128-1.546-4.553c1.232,0.998,2.896,3.243,4.763,2.692
	c-0.107-2.169-0.78-2.862-2.502-3.91c-0.681-0.417-1.283-0.855-1.902-1.25c-0.961-0.417-2.06-0.854-3.285-1.261
	c-3.55-0.655-7.187-1.327-10.79-1.781c-1.791-0.225-3.834-0.724-5.562-0.416c-1.276,0.228-3.198,0.758-4.39,1.459
	c-0.115,0.115-0.287,0.2-0.373,0.335c-0.055,0.083-0.129,0.167-0.19,0.251c-0.026,0.136-0.051,0.277-0.139,0.363
	c-0.131,0.125-0.292,0.22-0.452,0.32c-0.827,0.844-1.98,1.696-3.209,2.474c-0.972,0.741-1.989,1.403-3.282,1.913
	c-0.095,0.04-0.172,0.067-0.262,0.105c-0.891,0.458-1.623,0.809-2.051,1.008c-0.146,0.106-0.291,0.207-0.446,0.343
	c-0.191,0.167-0.32,0.315-0.461,0.47c-0.068,0.09-0.133,0.174-0.213,0.282l0.082-0.029c-0.423,0.398-0.772,1.387-1.092,1.961
	c-0.312,0.561-0.677,1.006-1.048,1.444c-0.422,0.845-0.817,1.794-1.152,2.815c0.067,0.238,0.136,0.51,0.153,0.881
	c0.052,1.132-0.764,2.083-0.629,3.35c0.094,0.876,0.186,1.632,0.532,2.485c1.21-1.776,1.434-4.279,2.311-6.205
	c0.76-1.67,2.205-2.784,3.783-3.479c-0.871,1.416-1.566,2.464-1.783,4.165c-0.115,0.925,0.2,1.852-0.02,2.73
	c0.097-1.796,1.884-5.019,3.45-6.084c0.89,1.542-0.033,3.766,0.497,5.511c0.089-0.694,0.332-1.298,0.503-1.947
	c0.275-1.037,0.315-2.266,0.669-3.27c0.656-1.881,2.517-2.93,3.618-4.439c0.551,2.069,0.031,4.851,0.031,6.996
	c-0.004,1.317,0.157,2.422,0.477,3.696c0.466,1.873,0.968,4.555,2.475,5.86c-0.042-1.637,0.29-3.109-0.118-4.742
	c-0.333-1.321-0.608-2.674-0.626-4.046c-0.037-3.029,1.271-5.554,2.225-8.344c0.686,1.506,0.432,3.439,0.932,5.051
	c0.337,1.083,0.696,2.164,1.039,3.245c0.395,1.252,0.868,2.71,1.586,3.761c-0.768-2.377-0.282-5.328-0.705-7.806
	c-0.225-1.313-0.176-2.586-0.36-3.885c-0.093-0.664-0.561-1.305-0.349-1.963c0.767,2.281,1.638,4.515,2.526,6.749
	c0.94,2.362,1.421,4.612,3.171,6.503c2.043,2.208,4.263,3.184,7.238,2.958c-1.512-1.358-2.381-2.514-3.107-4.391
	c-0.965-2.495-2.384-4.585-3.547-6.942c-0.65-1.325-1.764-3.448-1.647-4.943c0.066-0.85,0.666-1.533,0.749-2.372
	c0.65,0.401,1.034,1.168,1.522,1.78c0.869,1.098,1.933,2.233,3.06,3.092c1.504,1.148,3.338,1.718,4.897,2.667
	c-1.17-1.143-1.561-1.703-2.299-3.274c-0.617-1.312-1.26-2.597-1.8-3.935c1.284,1.511,2.875,2.688,4.101,4.284
	C939.118,338.857,941.192,339.912,942.3,341.808z"/>
<path display="none" fill="#020100" d="M944.935,352.695l-12.387,4.416l-5.433-2.398l-6.647,3.498
	c-0.008,0.009-1.416,0.822-3.441,1.544c-6.906,2.462-12.21,0.789-14.554-4.593c-4.37-10.043,3.538-19.326,3.878-19.715l0.482-0.359
	c2.172-0.97,8.135-3.998,9.611-6.314c1.941-3.047,8.214-3.421,18.98-1.217c6.295,1.288,11.452,4.392,11.668,4.525l0.331,0.202
	l5.04,9.678l7.566,3.797L944.935,352.695z M932.658,354.124l11.229-4.004l9.731-4.471l-3.201-1.605l-5.089-9.775
	c-1.192-0.674-5.506-2.977-10.46-3.992c-7.033-1.439-12.305-1.733-14.844-0.828c-0.615,0.22-1.032,0.495-1.24,0.816
	c-2.027,3.179-8.819,6.444-10.515,7.221c-1.086,1.372-6.583,8.917-3.251,16.566c1.758,4.042,5.484,5.08,11.075,3.087
	c1.77-0.631,3.02-1.35,3.03-1.357l7.885-4.152L932.658,354.124z"/>
<path display="none" fill="#FFD8BF" d="M903.48,332.409c-23.575,18.536-36.8-9.417-36.8-9.417l13.199-60.578"/>
<path display="none" fill="#F9EBE4" d="M879.763,260.11l4.561,14.769l-11.741,47.271c0,0,17.384,14.649,30.438,8.889l1.526,2.939
	l-9.088,3.24l-15.1-0.494l-14.145-15.04L879.763,260.11z"/>
<path display="none" d="M895.776,340.047c-15.833,4.649-27.941-8.214-31.602-15.854l-0.41-0.86l8.607-40.902l3.879-3.365
	l-6.644,43.538c1.914,3.48,15.918,17.13,29.438,13.159L895.776,340.047z"/>
<rect x="865.46" y="289.434" transform="matrix(0.9998 0.0219 -0.0219 0.9998 6.6332 -19.229)" display="none" fill="#3A1E13" width="31.389" height="7.531"/>
<path display="none" fill="#110A08" d="M897.441,298.016l-32.771-0.717l0.196-8.918l32.771,0.718L897.441,298.016z M866.088,295.941
	l29.995,0.657l0.137-6.142l-29.995-0.656L866.088,295.941z"/>
<path display="none" fill="#3A1E13" d="M966.769,302.632l-65.729,15.896l-10-41.37l65.726-15.895L966.769,302.632z M905.133,311.824
	l54.932-13.284l-7.391-30.572l-54.932,13.284L905.133,311.824z"/>
<path display="none" fill="#110A08" d="M967.605,303.145l-67.074,16.221l-10.329-42.718l67.078-16.222L967.605,303.145z
	 M901.554,317.69l64.379-15.57l-9.68-40.019l-64.374,15.568L901.554,317.69z M960.901,299.052l-56.277,13.609l-7.718-31.922
	l56.281-13.61L960.901,299.052z M905.647,310.986l53.582-12.958l-7.068-29.223l-53.582,12.958L905.647,310.986z"/>
<path display="none" fill="#9B9692" d="M1028.432,169.801c0,0-21.362,14.333-18.91,21.565c2.449,7.233,14.982,49.562,74.031,44.168
	C1142.604,230.141,1008.945,249.625,1028.432,169.801z"/>
<path display="none" fill="#9B9692" d="M900.534,210.327c0,0,40.294,26.411,108.988-18.961
	C1009.522,191.366,938.739,217.34,900.534,210.327z"/>
<path display="none" d="M927.746,366.799c0,0,22.237-12.879,32.747-3.729c10.511,9.149-21.878,15.291-21.878,15.291L927.746,366.799
	z"/>
<linearGradient id="SVGID_29_" gradientUnits="userSpaceOnUse" x1="1015.7222" y1="298.0161" x2="1035.0562" y2="298.0161">
	<stop  offset="0" style="stop-color:#FFD8BF"/>
	<stop  offset="1" style="stop-color:#EFA57F"/>
</linearGradient>
<path display="none" fill="url(#SVGID_29_)" stroke="#000000" stroke-width="3" stroke-miterlimit="10" d="M1035.056,304.795
	c0,5.339-4.328,9.667-9.667,9.667l0,0c-5.339,0-9.667-4.328-9.667-9.667v-13.559c0-5.339,4.328-9.667,9.667-9.667l0,0
	c5.339,0,9.667,4.328,9.667,9.667V304.795z"/>
<rect x="1033.769" y="255.283" transform="matrix(0.8738 -0.4863 0.4863 0.8738 -13.9232 554.16)" display="none" fill="#383835" width="53.901" height="97.244"/>
<path display="none" fill="#30302E" d="M1046.278,333.376c0,0,36.543-29.615,7.892-80.127l7.025-3.91l46.718,83.947l-47.099,26.211
	L1046.278,333.376z"/>
<path display="none" d="M1109.841,333.836l-49.576,27.59l-48.668-87.452l49.576-27.59L1109.841,333.836z M1061.365,357.568
	l44.618-24.831l-45.909-82.494l-44.618,24.831L1061.365,357.568z"/>
<circle display="none" fill="#232322" cx="1043.84" cy="273.576" r="6.028"/>
<linearGradient id="SVGID_30_" gradientUnits="userSpaceOnUse" x1="968.7466" y1="335.5806" x2="1088.4614" y2="335.5806" gradientTransform="matrix(0.9611 -0.2761 0.2761 0.9611 -52.9985 296.9513)">
	<stop  offset="0" style="stop-color:#FFD8BF"/>
	<stop  offset="1" style="stop-color:#EFA57F"/>
</linearGradient>
<path display="none" fill="url(#SVGID_30_)" stroke="#000000" stroke-width="3" stroke-miterlimit="10" d="M1079.384,303.5
	c-2.3-1.535-5.108-1.707-7.479-0.711c0.063-2.625-1.17-5.226-3.516-6.792c-3.642-2.432-8.564-1.451-10.995,2.19l-11.536,17.275
	l-0.298-0.177l12.583-18.842c2.432-3.642,1.45-8.564-2.189-10.996c-3.643-2.432-8.565-1.451-10.996,2.19l-13.032,19.516
	l-0.304-0.182l13.404-20.075c2.433-3.642,1.451-8.564-2.189-10.996c-3.642-2.432-8.564-1.451-10.995,2.19l-13.979,20.934
	c-0.01,0.016-0.018,0.033-0.028,0.048c-5.236-1.757-11.167,0.292-14.112,5.229l-28.861,48.393
	c-3.396,5.692-1.533,13.058,4.16,16.453l39.418,23.51c5.691,3.394,13.058,1.533,16.453-4.16l20.27-28.473
	c0.402-0.675,14.261-15.721,9.574-22.005c1.117-0.595,2.108-1.465,2.859-2.591l13.979-20.934
	C1084.005,310.854,1083.024,305.931,1079.384,303.5z"/>
<path display="none" fill="#E6E6E6" d="M1142.783,419.492c0,0-50.198,11.148-116.938,78.643l-14.239,6.91l-28.317,14.541
	l44.214-140.224c0,0-45.531-14.574-44.214-37.653s-61.616,95.42-61.616,95.42l-13.5,122.5l19.208,23c0,0,9.995,39,20.86,41
	s141.199-8,141.199-8S1205.658,496.537,1142.783,419.492z"/>
<path display="none" fill="#D8D8D8" d="M1141.783,418.492c0,0-0.477,1.496-5.946,4.637l-3.11,6.926l-2.684,8.074l9.044,16v26.182
	l-9.044,10.318l-9.623,18.5l-14.27,26l-10.563,23l-20.5,17.5c0,0-15,12.5-17,12.48s-11,6.779-11,6.779l-26-3.389l-26,3.39
	l-14.5-0.001l-27.934-6.779l-22.565,5.879c3.88,11.61,10.346,27.388,17.153,28.641c10.865,2,141.199-8,141.199-8
	S1204.658,495.537,1141.783,418.492z"/>
<path display="none" fill="#CCCCCC" d="M1144.216,419.039c0,0-1.077-1.972-6.85,1.359c1.966,3.629,1.876-4.458,3.387-1.437
	c2.666,5.333,36.082,60.667-55.626,176.667c0,0-111.041,18-125.041,0s0.635-36.363-22.341-36s-23.526-11.81-22.593-21.238
	s9.6-93.43,14.267-100.096s41.037-66.44,48.186-72.22c2.898-2.343,7.12-8.853,10.454-16.061c-2.546-3.76-4.023-7.875-3.771-12.305
	c1.317-23.08-61.616,95.42-61.616,95.42l-13.5,122.5l19.208,23c0,0,9.995,39,20.86,41s141.199-8,141.199-8
	S1207.091,496.084,1144.216,419.039z"/>
<path display="none" fill="#F2F2F2" d="M1112.586,442.586c1.5-1,13.5-15,17.527-14.3c3.392,0.59,11.639-2.3,14.103-7.29
	c-0.146-0.182-0.285-0.365-0.434-0.547c0,0-50.198,11.148-116.938,78.643l-14.239,6.91l-28.317,14.541l44.214-140.224
	c0,0-2.032-0.651-5.22-1.893l-6.696,10.66l-8.5,23.5l-8,25.5l-10.066,13.5v27.5l-5.613,23l-11.815,13.774l-5.005,17.226l-2.374,11
	l10.812-9.293l16.092-5.707l15.971-8.543v-4.683l12.5,4.683l17.5-7.957l10.5-16.944l11-13.374l8.917-13.182
	c0,0,29.083-12.5,30.793-13S1111.086,443.586,1112.586,442.586z"/>
<path display="none" d="M955.745,624.394c-0.002,0-0.001,0-0.003,0c-3.035,0-5.032-0.095-6.106-0.289
	c-11.396-2.064-20.889-36.391-22.311-41.773L907.612,559.1l0.07-0.635l13.749-122.786l0.138-0.254
	c0.133-0.246,13.452-24.902,27.628-49.243c29.095-49.955,33.239-49.955,35.231-49.955c0.664,0,1.278,0.259,1.73,0.729
	c0.724,0.754,0.998,1.938,0.887,3.838c-1.256,21.669,43.418,35.997,43.869,36.139l1.446,0.456L988.076,515.61l25.525-12.899
	l14.266-6.813c67.132-66.767,118.552-78.517,119.062-78.757l1.082-0.512l0.759,0.915c14.833,17.887,20.995,27.31,18.67,53.376
	c-1.849,20.718-9.155,43.854-21.718,68.768c-21.334,42.307-50.895,75.601-51.191,75.932l-0.408,0.459l-0.618,0.046
	C1092.408,616.207,983.678,624.394,955.745,624.394z M910.784,558.158l19.322,22.77l0.086,0.329
	c2.758,10.589,11.729,38.399,19.995,39.896c0.604,0.109,2.058,0.24,5.555,0.24c26.708,0,127.954-7.543,136.902-8.213
	c3.609-4.134,30.572-35.597,50.372-74.877c19.237-38.169,35.613-78.836,4.157-117.926c-7.692,3.898-55.865,16.645-117.323,77.812
	l-0.184,0.183l-14.703,7.022l-31.99,16.167l45.574-142.247c-8.066-2.751-45.813-16.818-44.545-38.692
	c0.032-0.562,0.018-0.947-0.012-1.206c-1.928,1.146-8.934,8.341-32.551,48.947c-13.228,22.744-25.61,45.571-27.042,48.215
	L910.784,558.158z"/>
<path display="none" fill="none" stroke="#000000" stroke-width="3" stroke-miterlimit="10" d="M941.71,401.29
	c0,0,13.253,62.256,68.626,34.089"/>
<polygon display="none" points="917.815,580.928 950.108,602.629 1072.882,606.586 1114.752,606.586 1089.915,649.295 
	952.237,656.629 "/>
<path display="none" d="M931.333,371.455c-0.589,0-1.146-0.348-1.387-0.925c-0.317-0.765,0.046-1.643,0.811-1.96l18.13-7.528
	c0.769-0.319,1.643,0.045,1.961,0.81c0.317,0.765-0.046,1.643-0.811,1.96l-18.13,7.528
	C931.718,371.418,931.524,371.455,931.333,371.455z"/>
<linearGradient id="SVGID_31_" gradientUnits="userSpaceOnUse" x1="538.1138" y1="291.5137" x2="588.2353" y2="339.3439">
	<stop  offset="0" style="stop-color:#FFD8BF"/>
	<stop  offset="1" style="stop-color:#EFA57F"/>
</linearGradient>
<ellipse display="none" fill="url(#SVGID_31_)" stroke="#000000" stroke-width="2" stroke-miterlimit="10" cx="556.511" cy="309.07" rx="48.796" ry="46.885"/>
<path display="none" fill="#EAD26C" d="M507.715,309.07c0,0,6.44,32.569,21.584,32.569s44.168,10.167,59.941,0
	c15.776-10.167,16.319-33.639,15.84-37.064c-0.48-3.423,9.4-30.984-2.588-41.113c-11.988-10.129-38.336-11.657-44.407-9.331
	c0,0-3.862-4.439-14.59-4.051C532.77,250.468,492.875,275.413,507.715,309.07z"/>
<path display="none" fill="#1D1D1B" d="M544.807,250.056c9.731,0,13.278,4.075,13.278,4.075c1.58-0.605,4.529-0.95,8.245-0.95
	c10.562,0,27.293,2.787,36.163,10.281c11.988,10.128,2.107,37.689,2.588,41.113c0.479,3.425-0.064,26.897-15.84,37.064
	c-5.256,3.389-11.984,4.517-19.184,4.517c-14.396,0-30.662-4.517-40.757-4.517c-15.144,0-21.584-32.569-21.584-32.569
	c-14.84-33.658,25.055-58.602,35.78-58.99C543.944,250.063,544.381,250.056,544.807,250.056 M544.807,247.973
	c-0.462,0-0.935,0.007-1.421,0.025c-7.333,0.266-22.038,8.635-31.416,20.223c-7.343,9.074-14.449,23.606-6.708,41.38
	c0.874,4.314,7.506,34.122,24.036,34.122c4.36,0,10.212,0.932,16.407,1.923c7.63,1.216,16.273,2.596,24.35,2.596
	c8.778,0,15.559-1.624,20.737-4.961c16.643-10.724,17.354-34.935,16.793-38.944c-0.049-0.551,0.436-2.876,0.867-4.93
	c2.107-10.062,6.029-28.794-4.156-37.4c-10.189-8.61-28.661-10.907-37.967-10.908c-2.272,0-5.207,0.123-7.557,0.636
	C556.761,250.27,552.394,247.973,544.807,247.973L544.807,247.973z"/>
<path display="none" opacity="0.32" fill="#FCEA7E" d="M593.006,295.105c-0.066,1.513,1.215,2.521,0.92,4.035
	c-1.424-0.259-3-1.117-4.29-1.75c-1.326,2.232,0.905,5.079,1.893,7.252c1.363,3.004,2.006,5.436,1.756,8.726
	c-1.43-2.241-3.131-4.754-5.575-6.314c-0.324,2.005,2.068,7.376,0.607,9.049c-2.186,2.5-4.416-3.122-6.34,0.769
	c-0.941,1.903,1.695,6.945-3.467,4.434c-2.602-1.264-1.754-4.076-5.622-2.557c-0.085,1.144-0.243,2.499-0.051,3.658
	c0.128,0.792,1.28,2.611,0.948,3.34c-1.351,2.991-4.358-1.152-5.951-1.553c-1.857,1.321-1.246,3.319-1.356,5.153
	c-3.172,0.016-4.339-2.241-5.553,1.399c-0.335,1.005-0.433,1.857-0.335,2.601l-0.581-0.007c-0.848-0.935-1.066-2.694-2.317-2.877
	c-1.748-0.254-0.958,1.943-1.782,2.835l-3.745-0.041c-1.262-0.76-2.287-2.042-3.296-2.649c-3.646-2.19-1.903,1.749-3.776,1.934
	c-0.011,0.081-0.04,0.148-0.063,0.221l-0.762-0.146c-0.011-0.731-0.227-0.889-1.883-1.281c-0.746-0.175-0.981,0.082-1.787-0.377
	c-0.775-0.441-0.31-1.085-1.415-1.397c-1.98-0.558-4.374,0.872-6.519,0.219c-1.644-0.499-2.43-2.002-3.946-2.524
	c-0.982-0.34-1.842-0.297-2.955-0.301c-1.801-0.004-2.238-0.221-3.606-0.91c-1.22-0.615-4.062-1.921-5.284-0.346
	c-0.325,0.418-0.072,1.132,0.337,1.799l-0.11-0.021c0,0,0.84,10.244,12.829,12.155c11.987,1.91,11.568-2.258,28.184,3.82
	c16.616,6.078,28.393-2.779,31.125-4.167c2.293-1.163,5.75-6.708,5.952-10.11c1.027-1.617,2.104-3.24,2.66-4.955
	c0.559-1.735,0.318-3.921,0.523-5.777c0.393-3.581,2.139-7.282,2.154-10.791C600.549,302.706,599.077,297.14,593.006,295.105z"/>
<path display="none" fill="#00CAE3" stroke="#000000" stroke-width="3" stroke-miterlimit="10" d="M497.12,498.336
	c0,8.418,8.155,15.243,18.217,15.243h82.218c10.064,0,18.219-6.825,18.219-15.243V386.802c0-8.42-13.912-27.214-28.424-29.997
	h-56.731c-10.061,0-33.498,18.786-33.498,27.203V498.336z"/>
<path display="none" d="M506.059,509.662l-6.399,18.023l3.2,12.62v25.238l6.362,27.133c0,0,11.396,36.596,9.331,39.119
	c-2.067,2.524-4.871,18.93-4.871,18.93l1.402,61.204l0.416,23.347l7.296,4.417h20.114h7.393l-0.865-21.453l0.7-66.884l-1.401-6.31
	l2.103-39.299l4.228-16.511l-2.194,8.573l2.194-8.573l2.404-15.288l3.884,26.93v28.394l8.413,15.774l-1.349,13.04l1.349,44.379
	v16.404l3.505,20.823h18.929h21.033v-14.512l-3.506-22.716l-3.504-59.943l-4.908-24.606l3.504-23.346l0.486-23.603l3.146-19.092
	l-0.436-9.046l3.506-15.145l1.711-10.095l-2.805-7.929H506.059z"/>
<rect x="508.792" y="515.567" display="none" fill="#4F312C" width="97.358" height="8.023"/>
<rect x="530.367" y="512.443" display="none" width="3.366" height="13.881"/>
<rect x="552.873" y="512.443" display="none" width="3.364" height="13.881"/>
<rect x="579.16" y="512.443" display="none" width="3.367" height="13.881"/>
<path display="none" fill="#1E1E1E" d="M587.033,733.067v6.626h5.168h21.033v-14.512l-3.506-22.716l-3.504-59.943l-4.908-24.606
	l3.504-23.346l0.486-23.603l3.146-19.092l-0.436-9.046l3.506-15.145l1.635-9.631l-4.672,3.637l-2.336,11.674v7.256l-3.658,5.363
	l3.658,7.571l-3.658,6.626v10.095l-5.994,2.209l-2.207,3.785v1.263l5.678,2.523l1.893,5.679l-1.893,5.363
	c0,0-0.947,5.994-0.947,6.941c0,0.946-2.523,5.994-2.523,5.994l-4.732,3.154l2.525,5.994l3.469,5.364l1.576,9.78l4.434,30.285
	l4.086,52.372l-1.895,6.309l-5.992,4.733l2.207,7.887l-5.361,4.731L587.033,733.067z"/>
<polygon display="none" fill="#1E1E1E" points="557.471,563.65 556.237,568.068 549.491,576.902 545.705,596.462 546.967,603.087 
	541.918,605.748 536.555,607.188 538.133,613.814 543.818,628.643 542.234,633.689 541.289,637.16 535.293,633.375 531.192,630.22 
	531.192,634.951 537.818,638.423 542.55,642.208 542.55,639.999 545.705,655.773 542.55,709.406 542.55,719.501 544.126,736.538 
	543.296,739.693 550.302,739.693 549.437,718.24 550.137,651.356 548.736,645.047 550.839,605.748 555.067,589.237 557.471,573.949 
	557.738,575.798 558.955,574.378 "/>
<polygon display="none" fill="#282828" points="514.998,710.5 515.083,711.93 515.499,735.276 516.68,722.447 "/>
<path display="none" fill="#282828" d="M514.123,590.364l-2.911-10.938l-5.487-7.991v-7.784v-7.36l3.067-11.777l-3.067-10.938v-5.89
	l3.067-5.048l-5.744-4.498l-3.389,9.546l3.2,12.62v25.238l6.362,27.133c0,0,11.396,36.596,9.331,39.119
	c-2.067,2.524-4.871,18.93-4.871,18.93l0.896,52.771l1.262-47.513l0.42-10.937l3.366,4.207v-9.675v-10.096v-19.538l-5.502-7.805
	V590.364z"/>
<linearGradient id="SVGID_32_" gradientUnits="userSpaceOnUse" x1="592.1685" y1="765.8984" x2="592.0103" y2="735.3665">
	<stop  offset="0" style="stop-color:#252525"/>
	<stop  offset="1" style="stop-color:#000000"/>
</linearGradient>
<path display="none" fill="url(#SVGID_32_)" d="M572.868,750.35l3.638-14.444c0,0,1.898-5.94,16.454-5.94
	c14.555,0,17.559,6.78,17.559,6.78l0.791,13.604c0,0-0.949,5.878-2.689,6.719c-1.738,0.842-32.114,0-32.114,0
	S573.5,755.726,572.868,750.35z"/>
<path display="none" d="M576.506,755.492l-0.949,6.485h34.803l-1.74-6.485C608.62,755.492,591.852,758.022,576.506,755.492z"/>
<linearGradient id="SVGID_33_" gradientUnits="userSpaceOnUse" x1="532.1113" y1="765.8975" x2="531.9531" y2="735.3666">
	<stop  offset="0" style="stop-color:#252525"/>
	<stop  offset="1" style="stop-color:#000000"/>
</linearGradient>
<path display="none" fill="url(#SVGID_33_)" d="M512.81,750.35l3.638-14.444c0,0,1.897-5.94,16.452-5.94
	c14.555,0,17.561,6.78,17.561,6.78l0.79,13.604c0,0-0.949,5.878-2.69,6.719c-1.739,0.842-32.113,0-32.113,0
	S513.442,755.726,512.81,750.35z"/>
<path display="none" d="M516.448,755.492l-0.949,6.485h34.803l-1.741-6.485C548.561,755.492,531.794,758.022,516.448,755.492z"/>
<path display="none" fill="#00CAE3" d="M508.979,368.892c0,0-27.443,20.616-27.443,29.412c0,8.799-1.148,54.695-4.208,56.225
	c-3.06,1.531,3.06,8.877,5.737,12.28c2.678,3.403,9.055,2.996,9.055,2.996L508.979,368.892z"/>
<path display="none" fill="#23B3B7" d="M481.536,398.304c0,8.799-1.148,54.695-4.208,56.225c-3.06,1.531,3.06,8.877,5.737,12.28
	c2.678,3.403,9.055,2.996,9.055,2.996l0.495-2.963c-1.421-0.431-3.377-1.014-5.438-1.604c-4.016-1.147-4.016-11.188-4.016-11.188
	l2.868-4.545v-7.489c0,0,3.442-13.209,3.821-14.357c0.379-1.146-0.092-6.023,1.629-9.752c1.721-3.729,0.574-10.328-1.147-15.203
	c-1.721-4.877,1.721-8.894,1.721-8.894l7.458-5.737l4.589-6.311l2.896-1.014l1.981-11.857
	C508.979,368.892,481.536,389.508,481.536,398.304z"/>
<path display="none" fill="#17A2AD" d="M481.536,398.304c0,8.799-1.148,54.695-4.208,56.225c-0.856,0.429-0.977,1.32-0.673,2.443
	c2.845-3.433,5.805-6.926,6.506-7.466c1.434-1.101,3.442-49.098,4.59-53.114c0.75-2.623,12.405-14.545,20.39-22.49l0.837-5.01
	C508.979,368.892,481.536,389.508,481.536,398.304z"/>
<path display="none" d="M508.979,368.892h0.005 M508.979,368.892L492.12,469.805c0,0-0.237,0.015-0.639,0.015
	c-1.682,0-6.254-0.265-8.416-3.011c-2.677-3.403-8.797-10.749-5.737-12.28c3.06-1.529,4.208-47.426,4.208-56.225
	C481.536,389.508,508.979,368.892,508.979,368.892 M508.979,366.596c-0.008,0-0.016,0-0.024,0c-0.517,0.006-0.991,0.182-1.373,0.474
	c-4.777,3.591-28.34,21.783-28.34,31.234c0,13.77-1.362,49.771-3.43,54.463c-0.775,0.539-1.305,1.324-1.514,2.265
	c-0.707,3.188,2.486,7.547,6.413,12.499l0.551,0.698c2.761,3.507,8.067,3.886,10.219,3.886c0.494,0,0.784-0.019,0.784-0.019
	c1.062-0.073,1.942-0.864,2.118-1.913l16.839-100.795c0.036-0.16,0.054-0.326,0.054-0.496c0-1.268-1.024-2.296-2.292-2.296h0
	C508.982,366.596,508.98,366.596,508.979,366.596L508.979,366.596z"/>
<path display="none" fill="#00CAE3" d="M603.696,367.067c0,0,27.443,20.616,27.443,29.412c0,8.799,1.148,54.695,4.209,56.225
	c3.059,1.531-3.061,8.877-5.738,12.28s-9.055,2.996-9.055,2.996L603.696,367.067z"/>
<path display="none" fill="#23B3B7" d="M631.139,396.479c0,8.799,1.148,54.695,4.209,56.225c3.059,1.531-3.061,8.877-5.738,12.28
	s-9.055,2.996-9.055,2.996l-0.494-2.963c1.42-0.431,3.377-1.014,5.438-1.604c4.016-1.147,4.016-11.188,4.016-11.188l-2.867-4.545
	v-7.489c0,0-3.443-13.209-3.822-14.357c-0.379-1.146,0.092-6.023-1.629-9.752c-1.721-3.729-0.574-10.328,1.146-15.203
	c1.721-4.877-1.721-8.894-1.721-8.894l-7.459-5.737l-4.59-6.311l-2.895-1.014l-1.982-11.857
	C603.696,367.067,631.139,387.684,631.139,396.479z"/>
<path display="none" fill="#17A2AD" d="M631.139,396.479c0,8.799,1.148,54.695,4.209,56.225c0.855,0.429,0.977,1.32,0.672,2.443
	c-2.844-3.433-5.805-6.926-6.506-7.466c-1.434-1.101-3.441-49.098-4.59-53.114c-0.75-2.623-12.404-14.545-20.391-22.49l-0.838-5.01
	C603.696,367.067,631.139,387.684,631.139,396.479z"/>
<path display="none" d="M603.692,367.067h0.004 M603.696,367.067c0,0,27.443,20.616,27.443,29.412
	c0,8.799,1.148,54.695,4.209,56.225c3.059,1.531-3.061,8.877-5.738,12.28c-2.16,2.746-6.732,3.011-8.416,3.011
	c-0.4,0-0.639-0.015-0.639-0.015L603.696,367.067 M603.696,364.771c0,0-0.002,0-0.004,0l0,0c-1.268,0-2.293,1.028-2.293,2.296
	c0,0.17,0.018,0.336,0.055,0.496l16.838,100.795c0.176,1.049,1.057,1.84,2.119,1.913c0,0,0.291,0.019,0.783,0.019
	c2.152,0,7.459-0.379,10.221-3.886l0.551-0.698c3.926-4.952,7.119-9.311,6.412-12.499c-0.209-0.94-0.738-1.726-1.514-2.265
	c-2.066-4.691-3.43-40.693-3.43-54.463c0-9.451-23.562-27.644-28.34-31.234c-0.383-0.292-0.857-0.468-1.373-0.474
	C603.711,364.771,603.706,364.771,603.696,364.771L603.696,364.771z"/>
<path display="none" fill="#17A2AD" d="M592.805,389.794c-0.697,1.266-0.461,3.066-0.551,4.602
	c-0.207,3.533-1.303,5.697-3.209,8.625c-1.641,2.521-3.509,4.998-4.313,7.933c-0.9,3.284-1.329,6.572-2.358,9.864
	c-0.835,2.674-1.665,5.384-2.302,8.113c-0.511,2.191-0.746,4.45-1.517,6.577c-0.989,2.728-2.955,4.864-4.072,7.484
	c-1.128,2.645-0.83,5.408-1.508,8.162c-0.654,2.657-1.918,4.87-2.175,7.601c-0.204,2.17-0.242,4.723-0.02,6.892
	c0.304,2.954,1.086,2.396,2.542,4.19c1.831,2.256,1.063,4.916-2.229,5.019c-4.394,0.137-7.646-6.952-11.759-8.006
	c-1.537-0.394-4.018,1.101-5.255-0.516c-0.604-0.789,0-3.74-0.057-4.78c-1.672-0.36-2.996,1.111-3.678,2.486
	c-1.874,3.773,2.617,7.362,4.89,9.994c2.24,2.593,7.337,4.812,8.755,7.65c1.772,3.549-3.118,6.984-5.348,8.589
	c-4.237,3.047-8.395,3.121-13.568,3.539c-7.37,0.597-14.902,0.027-22.245,0.746c-2.815,0.276-5.96,1.235-8.349,2.797
	c-1.833,1.198-3.122,3.079-5.388,3.626c-1.762,0.425-6.029-0.665-6.29,2.025c4.787-0.129,9.732,1.778,14.497,2.309
	c8.629,0.962,18.107-0.338,26.746-1.04c10.175-0.827,20.914-0.678,31.06,0.212c4.283,0.376,10.808,0.14,14.798-1.493
	c1.978-0.809,3.179-2.625,3.628-4.768c1.768-8.438,1.715-18.564,1.33-27.108c-0.197-4.396-0.293-8.882,0.682-13.188
	c1.043-4.604,0.91-9.041,1.51-13.701c0.412-3.208,1.568-6.201,1.76-9.484c0.262-4.536-0.012-9.161-0.006-13.703
	c0.008-8.126,0.586-17.271-1.73-25.118c-0.57-1.938-2.121-6.238-4.52-6.379"/>
<path display="none" fill="#17A2AD" d="M532.805,366.794c2.632,4.816,6.872,6.224,11.834,7.013c1.886,0.3,4.249,0.095,5.874,0.968
	c0.503,0.27,1.872,2.174,2.34,2.563c1.828,1.522,3.726,2.575,5.984,3.233c6.713,1.957,15.597,2.02,22.54,1.504
	c4.976-0.37,7.49-1.558,11.154-4.336c-1.141-2.107-9.841-0.178-12-0.197c-7.3-0.066-13.151-5.872-19.76-8.535
	c-3.818-1.539-7.929-1.594-11.816-2.732c-3.286-0.961-5.86-2.705-9.391-2.193c-3.199,0.463-4.773,1.826-7.258,3.463"/>
<path display="none" d="M613.454,394.757c0,0,6.662,16.914,20.455,25.175c-0.373-10.692-0.543-19.962-0.543-23.798
	c0-3.154-3.25-7.057-7.184-11.665L613.454,394.757z"/>
<path display="none" fill="#107575" d="M615.805,396.419c0,0,5.131,13.025,15.752,19.388c-0.287-8.235-0.418-15.373-0.418-18.327
	c0-2.43-2.098-5.762-5.127-9.311L615.805,396.419z"/>
<path display="none" fill="#17A2AD" d="M506.715,283.393c0,0,13.835,21.761,100.463,12.331l7.596-37.75
	c0,0-36.469-14.958-42.969-26.069c0,0-43.216,23.39-68.358,19.39L506.715,283.393z"/>
<path display="none" fill="#4FC6C9" d="M571.805,231.904c0,0-43.216,23.39-68.358,19.39l0.461,4.533
	c6.118,2.418,23.285,4.118,66.23-16.867c0,0,26.028,20.858,39.847,21.096c1.471,0.025,2.941-0.031,4.398-0.146l0.391-1.937
	C614.774,257.973,578.305,243.015,571.805,231.904z"/>
<path display="none" fill="#159093" d="M606.198,294.39l1.266-6.296c-79.973,8.29-101.729-11.467-101.729-11.467l-0.523,0.298
	l0.523,5.134C505.735,282.059,519.57,303.82,606.198,294.39z"/>
<path display="none" fill="#1D1D1B" d="M567.493,299.593c-0.001,0-0.002,0-0.003,0c-51.655,0-61.64-14.767-62.04-15.395l-0.191-0.3
	l-3.502-34.392l1.926,0.306c1.842,0.293,3.865,0.442,6.012,0.442c24.768-0.001,61.033-19.473,61.396-19.669l1.276-0.69l0.733,1.252
	c6.17,10.547,41.883,25.291,42.243,25.438l1.146,0.47l-8.057,40.041l-1.092,0.119C592.844,298.793,579.437,299.593,567.493,299.593z
	 M508.165,282.821c1.538,1.832,13.343,13.771,59.325,13.771c0.001,0,0.003,0,0.003,0c11.536,0,24.46-0.754,38.431-2.243
	l7.137-35.466c-6.145-2.593-34.2-14.824-41.752-25.02c-6.663,3.481-38.391,19.389-61.614,19.39c-1.586,0-3.114-0.077-4.564-0.228
	L508.165,282.821z"/>
<polygon display="none" opacity="0.12" fill="#1D1D1B" points="397.429,655.309 421.92,661.438 381.293,694.962 281.086,694.962 
	253.753,702.795 175.086,702.795 228.753,679.052 384.471,665.826 "/>
<path display="none" fill="#CE1919" d="M402.086,651.672c0,0-12,11.457-23.5,8.457s-79.5-2.293-106.5,8.354s-33.5,4.146-42.5-2.854
	l-29,10.5c0,0,45.5,39.023,71.5,15.012s100-18.512,102.5-10.512L402.086,651.672z"/>
<path display="none" fill="#AA2121" d="M378.586,660.129c-11.5-3-79.5-2.293-106.5,8.354s-33.5,4.146-42.5-2.854l-0.261,0.095
	l-9.974-8.438c-0.422-0.355-1.052-0.305-1.409,0.118c-0.357,0.421-0.304,1.052,0.117,1.409l9.097,7.696l-3.585,1.298l-8.595-7.271
	c-0.422-0.355-1.052-0.305-1.409,0.118c-0.357,0.421-0.304,1.052,0.117,1.409l7.718,6.529l-3.478,1.26l-9.365-7.924
	c-0.422-0.355-1.052-0.305-1.409,0.118c-0.357,0.421-0.304,1.052,0.117,1.409l8.488,7.182l-4.997,1.81l-9.532-8.065
	c-0.422-0.355-1.052-0.305-1.409,0.118c-0.357,0.421-0.304,1.052,0.117,1.409l8.655,7.323l-5.762,2.086l-9.227-7.807
	c-0.422-0.355-1.052-0.305-1.409,0.118c-0.357,0.421-0.304,1.052,0.117,1.409l8.35,7.064l-0.073,0.026c0,0,0.832,0.711,2.315,1.871
	l0.241,0.204c0.026,0.021,0.058,0.03,0.085,0.049c0.763,0.593,1.661,1.275,2.711,2.046l22.814-8.514c0,0,9.667,9.001,30.667,5.256
	s44.167-16.039,41.917-8.559s-7.25,6.509-10.583,6.828s15.333,1.319,19.333-10.681c3.396-10.188,60.947-1.384,77.94,1.847
	l7.278-7.663c0.277-0.874,0.564-1.774,0.854-2.682C391.601,658.964,385.017,661.807,378.586,660.129z"/>
<path display="none" fill="#AA2121" d="M385.741,684.687c-0.168,0-0.338-0.042-0.494-0.131l-11.896-6.776
	c-0.48-0.273-0.647-0.884-0.374-1.364c0.273-0.479,0.884-0.647,1.364-0.374l11.896,6.776c0.479,0.273,0.647,0.884,0.374,1.364
	C386.426,684.505,386.088,684.687,385.741,684.687z"/>
<path display="none" fill="#AA2121" d="M390.087,679.699c-0.168,0-0.338-0.042-0.494-0.131l-11.896-6.776
	c-0.48-0.273-0.647-0.884-0.374-1.364c0.273-0.479,0.884-0.648,1.364-0.374l11.896,6.776c0.479,0.273,0.647,0.884,0.374,1.364
	C390.773,679.518,390.435,679.699,390.087,679.699z"/>
<path display="none" fill="#AA2121" d="M394.188,674.711c-0.168,0-0.338-0.042-0.494-0.131l-11.896-6.776
	c-0.48-0.273-0.647-0.884-0.374-1.364c0.273-0.479,0.884-0.648,1.364-0.374l11.896,6.776c0.479,0.273,0.647,0.884,0.374,1.364
	C394.874,674.529,394.536,674.711,394.188,674.711z"/>
<path display="none" fill="#AA2121" d="M401.171,669.215c-0.168,0-0.338-0.042-0.494-0.131l-11.896-6.776
	c-0.48-0.273-0.647-0.884-0.374-1.364c0.273-0.479,0.884-0.647,1.364-0.374l11.896,6.776c0.479,0.273,0.647,0.884,0.374,1.364
	C401.857,669.033,401.519,669.215,401.171,669.215z"/>
<path display="none" fill="#AA2121" d="M407.119,665.826c-0.168,0-0.338-0.042-0.494-0.131l-11.896-6.776
	c-0.479-0.273-0.647-0.884-0.374-1.364c0.273-0.479,0.884-0.647,1.364-0.374l11.896,6.776c0.48,0.273,0.647,0.884,0.374,1.364
	C407.805,665.645,407.467,665.826,407.119,665.826z"/>
<g display="none">
	<polygon display="inline" fill="#D3C367" points="368.18,699.693 372.926,681.149 397.555,699.693 	"/>
	<path display="inline" fill="#0C0A00" d="M373.225,682l22.834,17.193h-27.235L373.225,682 M372.628,680.299l-5.092,19.895h31.514
		L372.628,680.299L372.628,680.299z"/>
</g>
<polygon display="none" fill="#F2E377" points="373.132,680.685 394.972,680.685 406.213,704.596 379.646,704.596 "/>
<path display="none" fill="#0C0A00" d="M406.82,704.981h-27.469l-6.723-24.683h22.589L406.82,704.981z M379.94,704.21h25.666
	l-10.879-23.141h-21.09L379.94,704.21z"/>
<path display="none" d="M387.229,699.166l-0.661-1.817l1.101-1.48c1.903-2.526,2.741-3.968,2.214-5.469
	c-0.381-1.047-1.295-1.877-2.776-1.877c-1.105,0-1.872,0.553-2.363,1.047l-1.625-2.132c0.682-0.729,1.986-1.322,3.704-1.322
	c2.921,0,5.119,1.697,5.96,4.007c0.791,2.173-0.125,3.891-1.397,5.549l-0.825,0.986l0.015,0.041h4.857l0.898,2.468H387.229z"/>
<path display="none" fill="#394751" d="M804.19,3.629v11.604C753.197,7.854,696.992,4.129,636.219,4.129
	c-92.271,0-174.019,8.583-242.972,25.512c-55.225,13.558-102.425,32.472-140.291,56.217c-64.681,40.561-79.483,80.585-80.082,82.269
	l-0.086,0.244v201.859c-2.03,0-5.429,0-6.523,0c-1.595,0-2.266,2.266-2.266,2.266c0,2.949-0.51,5.084-1.121,6.599
	c-0.172-0.024-0.344-0.053-0.523-0.053c-1.875,0-3.413,1.389-3.677,3.19c-2.594,0-6.977,0-9.787,0
	c-4.197,0-2.183,12.926-2.183,12.926l8.226,20.646l-9.232,10.093h27.087v1.482h-71.393v14.532h71.393v2.274h-59.358v131.789h34.646
	L3.621,805.629H804.19v2h424.896v-804H804.19z"/>
<linearGradient id="SVGID_34_" gradientUnits="userSpaceOnUse" x1="1273.7358" y1="119.7734" x2="1772.5658" y2="780.7225" gradientTransform="matrix(-1 0 0 1 2582.2842 0)">
	<stop  offset="0" style="stop-color:#FFEB45"/>
	<stop  offset="1" style="stop-color:#E5E5E5;stop-opacity:0"/>
</linearGradient>
<polygon opacity="0.24" fill="url(#SVGID_34_)" points="1229.824,0 1102.472,0 339.057,814.215 1229.824,814.215 "/>
<g>
	<defs>
		<path id="SVGID_1_" d="M1228.934,5.629H804.038v17.667c0,0-79.853-17.667-177.431-17.667s-364.563,9.75-448.56,166.172v360.035
			L3.468,807.629l1225.466,2V5.629z"/>
	</defs>
	<clipPath id="SVGID_35_">
		<use xlink:href="#SVGID_1_"  overflow="visible"/>
	</clipPath>
	<linearGradient id="SVGID_36_" gradientUnits="userSpaceOnUse" x1="18.8838" y1="165.8994" x2="668.6677" y2="1026.8623">
		<stop  offset="0" style="stop-color:#FFEB45"/>
		<stop  offset="1" style="stop-color:#E5E5E5;stop-opacity:0"/>
	</linearGradient>
	<polygon opacity="0.24" clip-path="url(#SVGID_35_)" fill="url(#SVGID_36_)" points="121.431,9.881 287.322,9.881 
		1281.758,1070.49 121.431,1070.49 	"/>
	<rect x="11.934" y="7.629" clip-path="url(#SVGID_35_)" fill="none" width="1213.329" height="802"/>
</g>
</svg>
