<?xml version="1.0" encoding="utf-8"?>
<!-- Generator: Adobe Illustrator 16.0.0, SVG Export Plug-In . SVG Version: 6.00 Build 0)  -->
<!DOCTYPE svg PUBLIC "-//W3C//DTD SVG 1.1//EN" "http://www.w3.org/Graphics/SVG/1.1/DTD/svg11.dtd">
<svg version="1.1" xmlns="http://www.w3.org/2000/svg" xmlns:xlink="http://www.w3.org/1999/xlink" x="0px" y="0px" width="1280px"
	 height="544.99px" viewBox="0 0 1280 544.99" enable-background="new 0 0 1280 544.99" xml:space="preserve">
<symbol  id="Arbres_1" viewBox="-41.326 -55.933 80.273 111.745">
	<g>
		<g>
			<g>
				<g>
					<path fill="#2D5447" d="M-20.757-51.691c0,0-0.895,12.675-0.634,14.744c0.256,2.066,0.256,5.99,0.256,5.99l0.564,5.287
						c0,0,0.467,2.982,0.158,3.688c-0.306,0.709-0.565,2.566-0.565,2.566s-0.289,5.092-0.238,6.244
						c0.049,1.152-0.526,4.795-0.526,4.795l-0.325,2.939c0,0-0.1,0.621-0.031,2.232c0.043,0.979,0.207,7.073-0.498,6.412
						c-0.705-0.662-1.081-7.787-1.081-7.787s-0.282-0.68-0.173-2.07c0.11-1.391,0.223-2.664,0.223-2.664l-0.138-4.207l0.736-6.498
						l0.02-3.466l-0.318-7.376c0,0-0.822-7.354-0.684-8.051c0.141-0.699-1.128-11.867-1.128-11.867S-24.592-52.238-20.757-51.691z"
						/>
					<path fill="#92523B" d="M-21.122-51.602c0,0-1.088,11.379-1.014,13.068l1.313,14.877l-0.562,2.639l-0.318,8.328
						c0,0-0.073,3.545-0.396,3.865c-0.326,0.322-0.603,4.338-0.577,4.953c0,0,0.054,3.846-0.204,3.088
						c-0.259-0.76-0.33-5.066-0.252-5.84c0.078-0.771,0.106-2.775,0.078-3.391c-0.024-0.613-0.31-1.988-0.117-2.768
						c0.192-0.775,1-8.201,0.841-9.271s-0.071-4.307-0.071-4.307s-0.768-9.975-0.798-10.74c-0.034-0.77-0.11-5.83-0.292-6.762
						c-1.648-8.47-1.712-7.197,0.542-7.74C-21.389-51.977-21.122-51.602-21.122-51.602z"/>
					<g>
						<path fill="#2D5447" d="M-3.638-22.863l-1.177,1.436c1.341-0.211-0.314,1.246-0.314,1.246
							c-1.098,0.664-1.378-0.021-1.44,0.523c-0.125,1.044-2.517,2.18-1.959,1.624c-0.325,0.323-0.719,0.958-0.719,0.958
							s-0.473,0.135-1.23,0.82c-0.085,0.075-0.162,0.102-0.235,0.109l-0.275,1.145c0,0,0.887-0.347,1.224-0.36
							c0.337-0.015,0.291-1.089,0.826-1.729c0.535-0.639,0.756-0.801,0.756-0.801l-0.128,2.313c0,0,1-0.353,1.084-0.972
							c0.088-0.619,1.495-1.91,1.495-1.91l-0.807,2.191l1.203-0.824c0,0,0.3-0.938,1.086-0.972c0.787-0.034-0.504,1.407-0.504,1.407
							s-1.607,1.918-2.705,2.582c-0.696,0.42-3.034,1.684-7.463,2.896l0.026,0.329c0,0-0.426,1.301-1.702,1.691l-0.085,0.256
							l0.283,0.354c0,0,0.45-0.02,0.886-0.348c0.436-0.324,0.839-1.42,0.839-1.42l0.854,1.502l0.984-0.658
							c0,0-0.257-0.76,0.291-1.091c0.55-0.332,0.723,1.044,0.723,1.044s0.41-0.939,0.713-1.723c0.305-0.781,0.192,1.84,0.192,1.84
							l0.733-1.262c-0.026-0.617,0.86-0.963,0.86-0.963l-0.476,2.021l1.296-1.285c0.985-0.66,0.581,0.436,0.581,0.436l1.296-1.287
							c1.786-0.388-0.702,2.028-0.702,2.028l-1.313,0.827c0.674-0.029,1.486,0.555,0.377,0.907c-1.113,0.356-2.143-0.06-2.143-0.06
							c-0.648,0.643-4.545,1.736-4.545,1.736c-0.765,0.033-0.798,0.734-1.269,0.613c0.037,0.855-0.693,1.374-1.089,1.898
							c0.82,0,1.528-0.057,1.724-0.232C-15.045-4.513-14.39-5-14.39-5l-0.727,1.416l0.351,0.293c0,0,0.443-0.174,0.971-0.967
							c0.529-0.794,1.535-0.989,1.535-0.989l-0.933,1.888l1.112-0.357c0,0,0.747-0.955,1.527-1.143
							c0.779-0.189-0.721,1.57-0.721,1.57l0.977-0.812c0.88-0.5,0.801,0.273,0.801,0.273l-1.944,1.931l-3.003,0.901
							c-1.336,0.364-5.265,3.307-5.265,3.307s-0.093,0.174-0.154,0.593l1.974-0.229l0.628,1.512c0,0,0.749-0.955,1.058-1.584
							c0.312-0.629,1.211-0.668,1.211-0.668l-0.594,1.873c0,0,0.436-0.328,1.196-0.977c0.759-0.648,1.436-0.676,1.436-0.676
							l-1.178,1.434c0,0,0.555-0.178,1.786-0.385c1.229-0.205,0.699,0.586,0.13,0.457c-0.568-0.129-1.545,0.684-1.545,0.684
							s-1.074,1.276-2.19,1.479c-1.118,0.203-3.175,2.139-3.175,2.139s-1.841,3.025-1.682,4.096c0.157,1.07-0.72,2.957-0.72,2.957
							l-0.812-3.198l-0.601-1.828c-1.341-1.636-4.125-4.952-4.766-5.097c-0.854-0.195-2.956-1.949-2.956-1.949
							s0.675-0.031,1.19,0.178c0.517,0.209,1.885,0.611,1.885,0.611l-1.081-1.57c0,0,2.641-0.757,2.657,0.295
							c0.011,0.701,1.041,1.263,1.729,1.563c-0.27-0.673-0.283-1.619-0.282-1.896c-1.565-1.645-4.24-4.334-5.263-4.608
							C-31.305-2.881-33.5-4.172-33.5-4.172l-0.749-1.66c0,0,0.656-0.49,1.713,0.539l0.826,0.889l-1.216-2.102
							c0,0,0.906,0.113,1.271,0.715c0.362,0.6,0.825,0.889,0.825,0.889l-0.052-1.23l0.925,0.574l0.615,1.205l0.653-0.488
							l1.487,1.161c0.044-0.053,0.093-0.093,0.154-0.103l-0.589-1.385c-0.662-0.152-1.282-0.377-1.659-0.707
							c-1.172-1.027-2.843-3.264-2.843-3.264s-3.037-2.484-3.954-2.906c-0.92-0.423,0.396-1.248,1.462-0.064l1.402,1.172
							c0,0-1.078-1.495-0.629-1.513c0.446-0.019,1.421,1.63,1.421,1.63l1.62,1.007c0,0-0.769-2.12-0.305-1.833
							c0.462,0.289,1.209,1.951,1.209,1.951l0.696,0.381c-0.313-0.959-0.524-1.779-0.364-1.879c0.185-0.115,0.436,0.371,0.653,0.936
							c-0.017-0.797,0.02-1.637,0.284-1.178c0.006-0.016,0.013-0.033,0.022-0.047c0.367-0.539,1.275,2.613,1.275,2.613l0.348,0.834
							l0.32,0.199c0,0,0-0.023,0-0.062c-0.155-0.751-0.256-1.507-0.028-1.493c0.028,0.004,0.057,0.014,0.085,0.028
							c0.037-0.396,0.097-0.636,0.201-0.331c0.259,0.758,0.727,1.199,0.727,1.199l-0.162,0.822c0.004,0.006,0.009,0.014,0.011,0.02
							l0.675-1.789c0,0,0.425,0.543,0.377,1.375c0.041,0.127,0.085,0.26,0.127,0.395c0.104-0.539,0.097-1.195-0.175-1.957
							l-1.487-1.451l-2.953-1.609l-2.307-1.285c0,0,1.777,0.488,3.498,1.066c-0.291-0.34-0.575-0.701-0.766-1.01
							c-0.545-0.9-4.115-1.438-4.115-1.438s-2.251-1.289-3.641-2.152c-1.387-0.863-1.755-1.54-1.755-1.54l2.231,0.827l2.093,1.525
							l-0.038-0.923l2.251,1.287c-1.061-1.104-0.776-2.274,0.298-0.935c0.224,0.281,0.597,0.449,1.038,0.549
							c-0.152-0.504-0.205-1.045-0.137-1.433l-0.783-0.276c0,0-0.362-0.6-0.386-1.061c-0.019-0.461-0.852-0.213-0.852-0.213
							s-1.415-0.152-1.764-0.443c0.603,0.504-1.105-0.566-2.109-1.143c-0.384-0.221-0.141-0.301-1.292-0.867
							c0,0-2.815-1.848-1.148-1.729l-0.364-0.512c0,0-2.719-2.961-1.818-3c0.898-0.04,1.641,1.467,1.641,1.467
							s-0.502-1.209,0.39-1.402c0.893-0.191,1.871,1.612,1.871,1.612l1.415,1.478c0,0-1.131-2.721-0.224-2.605
							c0.766,0.096,0.631,1.658,1.189,2.299c0.097-0.275,0.384-0.463,0.891-0.428l-1.297-1.328c0,0-2.717-2.964-1.819-3
							c0.899-0.039,1.642,1.467,1.642,1.467s-0.505-1.209,0.391-1.402c0.892-0.191,1.87,1.613,1.87,1.613l1.415,1.479
							c0,0-1.13-2.723-0.225-2.609c0.907,0.115,0.549,2.286,1.572,2.549c1.027,0.264,2.185,0.982,2.185,0.982
							s-0.048-0.126-0.11-0.309c-0.149-0.008-0.295-0.07-0.427-0.225c-0.766-0.891-0.972-3.135-0.091-2.942l-0.888-2.038
							c0,0-1.869-4.535-1.287-4.563c0.58-0.022,1.115,2.263,1.115,2.263s-0.371-1.832,0.201-2.088
							c0.572-0.255,1.271,2.484,1.271,2.484l0.971,2.268c0,0-0.832-4.121-0.24-3.914c0.591,0.203,0.439,3.443,1.111,3.877
							c0.676,0.432,1.449,1.553,1.449,1.553s-0.667-3.666-0.264-2.758c0.402,0.906,1.351,4.326,1.713,4.312
							c0.362-0.018-0.653-5.053,0.968-1.197c0.319,0.76,0.551,1.328,0.722,1.76c0.142-0.67,0.473-0.502,0.473-0.502l1.067-0.318
							c0,0,0.145-0.582,0.655-2.452c0.644-2.353,0.848-1.987,0.939-1.112l0.195-0.073l0.386,1.101
							c0.173-0.746,0.357-1.736,0.544-2.303c0.337-1.008,0.263,1.479,0.263,1.479s-0.181,0.314,0.337-0.014
							c0.516-0.326,0.555-2.168,1.002-2.236c0.444-0.068-0.133,3.002-0.133,3.002l0.815-2.537c0,0,0.634-3.225,1.044-2.717
							c0.413,0.506,0.062,2.689,0.062,2.689s0.492-2.701,0.92-2.484c0.306,0.156-0.403,2.789-0.838,4.289
							c0.287,0.389,0.481,1.129,0.605,1.84c0.02-0.01,0.041-0.027,0.062-0.037c0.703-0.271,0.996-2.947,1.599-3.012
							c0.32-0.035,0.388,0.66,0.385,1.32c0.185,0.166,0.377,0.398,0.554,0.641l0.28-0.227c0,0,0.29-2.479,0.833-2.092
							c0.544,0.389,0.018,2.111,0.018,2.111s0.729-2.137,1.302-1.973c0.362,0.102-0.4,1.756-1.012,2.957l1.116-0.537
							c0,0,0.737-1.143,1.633-1.854c2.949-2.334,0.948,0.266,0.948,0.266l-1.577,1.732l1.004,0.143l1.291-1.73
							c2.562-2.083,0.743,1.023,0.743,1.023l-1.795,1.42l-2.058,2.295c-0.868,0.604-1.944,0.834-2.682,0.922
							c-0.086,0.189-0.233,0.402-0.42,0.615c-0.153,0.425-0.605,0.953-0.605,0.953c-0.356,0.171-0.736,0.316-1.121,0.441
							c0.145,1.562-1.421,1.842-1.013,1.261c-0.275,0.392-0.866,0.796-0.866,0.796s-0.674,0.049-0.765,0.727
							c-0.089,0.678-0.591,0.662-0.591,0.662l-1.146,0.658c0.082,0.191,0.164,0.378,0.24,0.572l1.597,0.361
							c0.085-0.184,0.433-0.701,1.484-2.035c2.135-2.711,1.046,0.725,1.604,0.699c0.564-0.025,1.702-2.383,2.237-3.021
							c0.536-0.641-0.145,1.854-0.145,1.854s1.089-0.818,2.089-1.171c0.999-0.35,0.457-2.479,1.35-2.673
							c0.894-0.191,0,2.617,0,2.617L-5.828-24c0,0,0.821-1.881,1.727-1.769c0.905,0.114,0.51,1.364,0.51,1.364
							s0.608-1.566,1.507-1.605C-1.184-26.049-3.638-22.863-3.638-22.863z"/>
					</g>
				</g>
				<path fill="#2F8F64" d="M-17.287,5.912c0,0-2.375,0.73-2.74,2.006c-0.364,1.279-1.278,2.193-1.278,2.924l-0.182,2.191
					l-0.762-3.293l-1.43-1.271l-2.558-3.287l-2.737-1.279l2.191,0.73l-0.185-0.912c0,0,0.891,0.529,1.724,0.812l1.017,1.015
					c0,0,0.183-1.096,0.729-0.365l0.183,1.643c0,0,0.75,0.154,1.146,0.986l0.863-0.986c0,0-1.77-0.465-1.096-1.461l0.73-1.827
					c0,0,0.73-0.181,0.549,0.549c0,0,0.182,1.097,1.095,0.182c0,0,1.826-1.276,1.826-0.364l0.181,1.279l1.828-0.73l1.093,0.364
					L-17.287,5.912z"/>
				<path fill="#2F8F64" d="M-21.83,0.074c0,0,2.35-0.37,1.803,0.543c0,0-0.913,1.277,1.095,0c0,0,2.557-2.191,3.833-2.191
					c0,0,2.924-0.365,3.653-1.279c0,0-1.46-0.182-2.19,0.186c-0.731,0.365-2.193,0.18-2.193,0.18s-0.546-1.459-1.825,0.549
					l-1.095,1.096c0,0-1.461-1.096-2.007,0C-21.306,0.252-21.83,0.074-21.83,0.074z"/>
				<path fill="#2F8F64" d="M-26.054-0.114c0,0-0.163-2.276,0.649-1.595l1.438,1.877c0,0,2.069-0.527,1.087-0.951l-1.08-1.211
					l-1.18-1.771c0,0-0.83-1.326-0.548,0.367c0.283,1.689-0.549,0.545-0.549,0.545l-0.366-0.912l-0.545,0.912
					c0,0-1.096-1.46-1.645-0.729c0,0-1.276-1.826-1.276-0.731l-1.642-0.091l2.918,1.736C-28.792-2.668-26.782-2.303-26.054-0.114z"
					/>
				<path fill="#2F8F64" d="M-25.871-16.363c0,0,1.827,0,2.192,1.459c0,0,0.547,1.465,0.729,0.551l0.913,0.547
					c0,0,0.104,2.422-1.135,1.025c-1.238-1.393,0.222,0.436,0.222,0.436l-1.643-0.914l0.183,1.461l-1.462-0.914l-1.46-1.277
					l-2.372-0.914c0,0-2.556-0.546-3.104-1.094c-0.549-0.547,0.365-0.547,0.365-0.547l1.46,0.364c0,0,1.279,0.73,1.279,0.183
					l0.237-1.742c0,0,1.039,0.646,1.403,1.56c0,0,1.28,2.007,1.28,0.911c0-1.094,0.911,0,0.911,0V-16.363z"/>
				<path fill="#2F8F64" d="M-24.409-5.227c0,0,0.058-1.434-1.105-2.021c-1.16-0.588-1.088,0.379-1.088,0.379l-0.729-0.914
					l-0.912-1.641c0,0-0.226-0.574-0.206,0.625l-1.461-0.896l-0.891-1.008l0.185,1.459l-1.462-0.729c0,0,2.353,3.768,4.097,3.984
					c0,0,0.491-1.608,1.666-0.422c1.176,1.184-0.102,0.455-0.102,0.455v0.547l0.729-0.184L-24.409-5.227z"/>
				<path fill="#2F8F64" d="M-17.473-12.164c0,0,2.008,0.914,3.287,0.365l4.381-1.826c0,0,2.01-0.729,2.74-1.279
					c0.729-0.546,1.095-0.546-1.826,0.186l-2.098-0.283l-0.822,0.648l-0.403-1.362l-1.058,1.726l-1.097-0.184
					c0,0-0.731,0.184-0.549,1.098L-17.473-12.164z"/>
				<path fill="#2F8F64" d="M-14.186-7.234c0,0,3.835-0.73,4.565-1.643c0.729-0.912-1.217-0.371-1.217-0.371l-0.793-0.725h-0.73
					v1.096c0,0-0.729,0.549-1.825,0.549l-0.548-0.73l-0.731,0.909C-15.465-8.149-17.859-5.615-14.186-7.234z"/>
				<path fill="#2F8F64" d="M-30.437-19.468l-0.546-0.73c0,0-1.825,0-2.374-0.182c-0.547-0.181-2.555-1.642-2.555-1.642
					l-1.645-1.645c0,0-3.285-2.191-1.096-1.28c2.191,0.915,3.834,2.011,3.834,2.011l-0.363-1.279l1.094,0.365l0.914-0.548
					c0,0,0.467,1.306,1.645,1.827c1.174,0.521,0.546,0.182,0.546,0.182l3.469,0.549c0,0-2.823-1.051-3.694-1.713l-3.609-3.398
					c0,0-0.911-2.01,1.827,0.73l1.645,0.545l-0.183-0.91c0,0,1.092,1.824,2.736,1.64c0,0,3.287,1.646,3.834,2.376l-0.182,1.274
					c0,0-0.193,0.89,1.271,0.811c0,0-2.003,0.765-2.823-0.296l-2.491-0.242c0,0-0.799,0.25-0.155,0.463c0,0,1.095,2.189,2.556,2.189
					c1.46,0-1.096,0-2.375-0.549L-30.437-19.468z"/>
				<g>
					<path fill="#2F8F64" d="M-16.011-24.579l1.277,0.913l-1.643,1.096c-0.184,0.912-3.651,4.016-3.651,4.016
						c-0.729-2.555,0.365-1.462,1.461-1.825c1.094-0.364,0.181-2.19,0.181-2.19L-16.011-24.579z"/>
					<path fill="#2F8F64" d="M-11.382-26.338l-1.524,1.94c0,0-3.104,0.183-3.653-0.549c-0.547-0.729,1.46-0.181,2.739-0.729
						c1.278-0.545,1.278-1.643,1.278-2.19c0-0.549-0.276-2.286,0.41-0.958c0,0,0.686,0.047,1.051-0.502s0.699,0.693,0.911-0.182
						C-10.17-29.508-10.224-27-11.382-26.338z"/>
				</g>
				<path fill="#2F8F64" d="M-21.853-21.84c0,0,3.103-1.646,3.467-2.558c0,0,0.185-1.46,0.73-1.46c0.549,0,1.871,0.508,2.578-0.752
					l0.526-4.727c0,0-0.643-0.17-0.914,0.73c-0.269,0.902-1.664,1.008-1.664,1.008l-0.526-0.641l-0.365,1.277l-1.069-0.92
					l-0.391,2.746c0,0-0.364,0.73-0.911,0.914c-0.549,0.18-0.549,2.006-0.549,2.006S-23.132-23.485-21.853-21.84z"/>
				<path fill="#2F8F64" d="M-23.861-22.021l-4.382-6.027l-1.278-3.287c0,0,0.914,0,1.644,1.461c0.73,1.46,0.182-1.277,1.096,0.549
					l1.277,0.911c0,0,1.278,0.915,1.644,2.925l0.912,0.18C-22.949-25.311-22.401-19.468-23.861-22.021z"/>
				<path fill="#2F8F64" d="M-19.662-13.99c0,0,3.47,0.365,5.477-1.279c2.01-1.641,6.573-4.929,6.573-4.929l3.104-3.103
					l-3.286,1.826l0.685-0.93l-1.962,1.66l-1.827,0.184l-1.276,1.641c0,0-1.096,0.549-1.461-0.182c0,0-1.644,0-0.914,1.643
					l-2.371,0.914C-16.922-16.545-21.853-15.814-19.662-13.99z"/>
			</g>
			<g>
				<g>
					<path fill="#2D5447" d="M2.06-54.198c0,0,2.218,15.31,1.764,18.933C3.367-31.645,3.37-24.765,3.37-24.765l-0.996,9.267
						c0,0-0.821,5.227-0.279,6.464c0.542,1.238,0.998,4.497,0.998,4.497S3.6,4.389,3.512,6.408s0.928,8.404,0.928,8.404l0.572,5.152
						c0,0,0.175,1.088,0.054,3.916c-0.074,1.713-0.362,12.396,0.88,11.235c1.239-1.161,1.903-13.647,1.903-13.647
						s0.497-1.191,0.305-3.627c-0.192-2.438-0.394-4.674-0.394-4.674l0.246-7.375L6.71-5.597l-0.036-6.071l0.56-12.93
						c0,0,1.449-12.888,1.202-14.113C8.192-39.936,9.35-52.973,9.35-52.973S8.996-57.17,2.06-54.198z"/>
					<path fill="#92523B" d="M3.546-54.198c0,0,1.715,13.192,1.587,16.153L2.818-11.969l0.99,4.631L4.369,7.253
						c0,0,0.13,6.214,0.699,6.778c0.571,0.564,1.061,7.602,1.015,8.678c0,0-0.093,6.742,0.362,5.411
						c0.454-1.327,0.581-8.878,0.442-10.234c-0.142-1.354-0.187-4.864-0.142-5.94c0.049-1.078,0.548-3.484,0.21-4.85
						C6.617,5.734,5.195-7.282,5.475-9.158c0.278-1.877,0.127-7.549,0.127-7.549S6.95-34.188,7.01-35.535
						c0.057-1.349,0.045-10.251,0.512-11.85c0.465-1.6,1.328-7.77-1.423-8.429C3.348-56.471,3.546-54.198,3.546-54.198z"/>
					<g>
						<path fill="#2D5447" d="M35.422-13.262l-0.646,0.898c2.938-0.205-2.021,3.032-2.021,3.032c-2.029,0.993-1.6,1.132-2.275,1.517
							c-1.77,1.012-4.78,2.889-3.717,2.004c-0.616,0.511-3.11,0.776-3.11,0.776S22.185-5.469,22.15-4.66
							c-0.036,0.809-0.676,1.861-0.676,1.861l-1.381,0.481c0.124,0.681,0.028,1.63-0.241,2.511c0.778-0.175,1.436-0.469,1.831-0.962
							c1.889-2.347,2.395-0.302,0.522,1.644l3.97-2.258l-0.07,1.614l3.688-2.673l3.933-1.449c0,0-0.648,1.186-3.094,2.701
							c-2.446,1.512-6.416,3.771-6.416,3.771s-6.291,0.941-7.252,2.517c-0.33,0.544-0.828,1.172-1.341,1.767
							C18.651,5.855,21.783,5,21.783,5l-4.067,2.253l-5.199,2.823l-2.623,2.543c-0.479,1.336-0.489,2.488-0.308,3.432
							c0.072-0.231,0.145-0.457,0.217-0.674c-0.095-1.469,0.671-2.43,0.671-2.43l1.188,3.137c0.005-0.012,0.015-0.023,0.02-0.037
							l-0.288-1.439c0,0,0.829-0.773,1.282-2.104c0.184-0.534,0.291-0.109,0.356,0.581c0.048-0.026,0.098-0.044,0.149-0.046
							c0.399-0.025,0.223,1.298-0.051,2.621c0,0.058,0,0.102,0,0.102l0.563-0.35l0.614-1.46c0,0,1.599-5.531,2.246-4.585
							c0.016,0.023,0.025,0.054,0.038,0.08c0.47-0.82,0.531,0.666,0.501,2.067c0.385-0.987,0.826-1.841,1.153-1.638
							c0.281,0.176-0.09,1.61-0.643,3.291l1.224-0.668c0,0,1.316-2.912,2.133-3.416s-0.536,3.217-0.536,3.217l2.855-1.769
							c0,0,1.712-2.895,2.505-2.86c0.792,0.035-1.107,2.652-1.107,2.652l2.471-2.051c1.876-2.078,4.194-0.629,2.576,0.108
							c-1.622,0.741-6.968,5.099-6.968,5.099s-2.949,3.919-5.011,5.719c-0.665,0.58-1.757,0.97-2.928,1.238l-1.033,2.428
							c0.108,0.016,0.195,0.087,0.271,0.182l2.618-2.039l1.154,0.859l1.084-2.114l1.629-1.007L20.45,20.9
							c0,0,0.816-0.504,1.457-1.557c0.64-1.049,2.236-1.25,2.236-1.25l-2.143,3.684l1.457-1.557
							c1.862-1.809,3.018-0.947,3.018-0.947l-1.316,2.91c0,0-3.869,2.26-6.479,2.959c-1.8,0.48-6.516,5.191-9.271,8.074
							c0.003,0.487-0.025,2.146-0.495,3.324c1.21-0.525,3.022-1.512,3.042-2.74c0.033-1.846,4.685-0.518,4.685-0.518l-1.904,2.753
							c0,0,2.412-0.708,3.322-1.073c0.908-0.363,2.097-0.312,2.097-0.312s-3.704,3.078-5.209,3.418
							c-1.13,0.254-6.032,6.068-8.398,8.936l-1.056,3.203L4.06,55.812c0,0-1.544-3.305-1.264-5.182
							c0.279-1.878-2.967-7.176-2.967-7.176s-3.624-3.396-5.592-3.751c-1.97-0.354-3.857-2.595-3.857-2.595
							s-1.727-1.424-2.729-1.197c-1.002,0.226-1.933-1.164,0.235-0.799c2.165,0.363,3.144,0.674,3.144,0.674l-2.074-2.518
							c0,0,1.188,0.05,2.53,1.189c1.339,1.137,2.108,1.71,2.108,1.71l-1.05-3.284c0,0,1.585,0.07,2.134,1.169
							c0.549,1.104,1.865,2.78,1.865,2.78l1.106-2.648l3.479,0.398c-0.11-0.733-0.276-1.037-0.276-1.037s-6.921-5.154-9.275-5.797
							l-5.29-1.576l-3.427-3.387c0,0-0.14-1.355,1.409-0.48l1.725,1.424c0,0-2.645-3.083-1.27-2.754
							c1.374,0.332,2.69,2.007,2.69,2.007l1.959,0.622l-1.644-3.307c0,0,1.771,0.346,2.703,1.736
							c0.933,1.386,1.712,1.693,1.712,1.693l0.62-0.516l-1.282-2.482c0,0,1.154,0.857,2.108,1.709
							c0.348,0.309,1.594,0.408,3.037,0.408c-0.699-0.917-1.984-1.829-1.919-3.329c-0.829,0.216-0.886-1.015-2.236-1.073
							c0,0-6.863-1.914-8.005-3.043c0,0-1.818,0.73-3.775,0.107c-1.957-0.625-0.523-1.643,0.664-1.592l-2.319-1.449
							c0,0-4.383-4.237-1.234-3.561l2.282,2.256c0,0-0.71-1.918,1.026-0.765l2.284,2.257l-0.84-3.543c0,0,1.562,0.607,1.515,1.684
							l1.295,2.217c0,0-0.201-4.598,0.338-3.225c0.535,1.371,1.26,3.023,1.26,3.023s0.301-2.418,1.268-1.834
							c0.968,0.58,0.514,1.91,0.514,1.91l1.736,1.154l1.503-2.635c0,0,0.71,1.92,1.48,2.494c0.77,0.57,1.562,0.605,1.562,0.605
							l0.495-0.617l-0.141-0.43c-2.265-0.678-3.009-2.984-3.009-2.984l0.048-0.574c-7.804-2.132-11.923-4.342-13.151-5.08
							c-1.933-1.162-4.768-4.521-4.768-4.521s-2.27-2.527-0.886-2.469c1.389,0.061,1.912,1.703,1.912,1.703l2.122,1.439
							l-1.424-3.838c0,0,2.482,2.263,2.636,3.35c0.151,1.088,1.91,1.703,1.91,1.703l-0.221-4.057c0,0,0.385,0.285,1.327,1.406
							c0.945,1.121,0.863,3.006,1.456,3.031c0.596,0.025,2.158,0.633,2.158,0.633l-0.484-2.006c-0.13-0.018-0.268-0.06-0.413-0.193
							c-1.339-1.206-2.171-1.443-2.171-1.443s-0.696-1.109-1.268-1.672c0.984,0.971-3.23-1.016-3.448-2.848
							c-0.115-0.953-0.608,0.243-2.544-0.921c0,0-2.913-2.554-0.549-2.181l-2.075-2.519c0,0-4.322-5.584-2.739-5.515
							c1.586,0.07,2.657,2.812,2.657,2.812s-0.698-2.187,0.898-2.388c1.596-0.201,3.041,3.098,3.041,3.098l2.243,2.773
							c0-0.008,0.002-0.015,0.005-0.02c-0.136-0.436-1.482-4.865,0.011-4.545c1.574,0.34,0.619,4.076,2.378,4.693
							c1.761,0.613,3.686,2.045,3.686,2.045s-1.203-4.369-0.258-3.248c0.943,1.121,2.949,5.255,3.939,5.297
							c0.987,0.043-0.934-5.977,2.83-1.227c1.854,2.335,2.467,3.246,2.615,3.568l2.813-0.637c0.137-0.334,0.279-0.668,0.423-0.998
							l-2.02-1.154c0,0-0.492,0.146-0.651-1.042C-5.744-8.25-6.683-8.34-6.683-8.34s-0.246-0.961-0.73-1.645
							c0.725,1.023-2.284-1.381-3.09-2.033c-0.725-0.227-1.436-0.498-2.106-0.822c0,0-1.056-1.215-1.148-1.991
							c-0.411-0.304-0.809-0.585-1.152-0.823c-1.257-0.195-2.884-0.615-4.233-1.551l-3.626-4.021l-3.158-2.486
							c0,0-3.209-5.445,1.304-1.793l2.276,3.031l1.769-0.252l-2.781-3.033c0,0-3.524-4.559,1.672-0.467
							c1.579,1.242,2.879,3.245,2.879,3.245l1.967,0.946c-1.076-2.111-2.42-5.01-1.783-5.188c1.011-0.283,2.295,3.461,2.295,3.461
							s-0.925-3.024,0.03-3.703c0.956-0.68,1.468,3.669,1.468,3.669l0.489,0.396c0.319-0.424,0.659-0.832,0.979-1.119
							c-0.006-1.158,0.118-2.379,0.682-2.318c1.062,0.113,1.573,4.808,2.816,5.281c0.036,0.014,0.072,0.037,0.112,0.053
							c0.219-1.243,0.553-2.548,1.058-3.232c-0.766-2.631-2.012-7.225-1.474-7.498c0.756-0.384,1.625,4.351,1.625,4.351
							s-0.618-3.825,0.107-4.713c0.725-0.889,1.843,4.759,1.843,4.759l1.432,4.449c0,0-1.016-5.38-0.231-5.262
							c0.786,0.119,0.857,3.35,1.766,3.924c0.911,0.572,0.594,0.023,0.594,0.023s-0.13-4.357,0.462-2.59
							c0.331,0.988,0.656,2.727,0.959,4.031l0.68-1.924l0.345,0.12c0.162-1.531,0.521-2.167,1.656,1.958
							c0.899,3.273,1.151,4.299,1.151,4.299l1.883,0.553c0,0,0.58-0.295,0.832,0.881c0.3-0.758,0.71-1.757,1.273-3.084
							c2.855-6.758,1.063,2.072,1.703,2.097c0.64,0.028,2.31-5.972,3.019-7.56s-0.466,4.838-0.466,4.838s1.367-1.968,2.554-2.723
							c1.187-0.76,0.919-6.436,1.961-6.795c1.041-0.362-0.425,6.861-0.425,6.861l1.71-3.976c0,0,1.233-4.802,2.238-4.354
							c1.008,0.449,0.356,3.658,0.356,3.658s0.941-4.008,1.964-3.965c1.025,0.045-2.267,7.997-2.267,7.997l-1.565,3.577
							c1.554-0.338,1.191,3.592-0.158,5.154c-0.232,0.269-0.489,0.379-0.753,0.395c-0.11,0.322-0.192,0.543-0.192,0.543
							s2.041-1.262,3.847-1.725c1.806-0.462,1.176-4.266,2.771-4.466c1.597-0.202-0.395,4.569-0.395,4.569l2.493-2.59
							c0,0,1.724-3.164,3.297-2.826c1.574,0.338,0.688,2.457,0.688,2.457s1.305-2.641,2.89-2.572
							c1.585,0.067-3.204,5.256-3.204,5.256l-2.284,2.332c0.894-0.062,1.396,0.263,1.566,0.75c0.983-1.125,0.749-3.863,2.099-4.033
							c1.597-0.201-0.396,4.57-0.396,4.57l2.493-2.591c0,0,1.724-3.161,3.298-2.825c1.572,0.335,0.687,2.457,0.687,2.457
							s1.306-2.641,2.889-2.572C40.211-18.453,35.422-13.262,35.422-13.262z"/>
					</g>
				</g>
				<path fill="#2F8F64" d="M1.23,32.068l-5.111-2.92c0,0-4.141-2.191-5.114-2.436c0,0-4.381-1.703-2.677-1.703l-2.334-1.279
					c0,0-0.344-0.911,0.63-0.424l2.434,1.461h1.461c0,0-2.19-1.948-0.974-1.705c1.217,0.244,2.434,1.217,2.434,1.217l1.217,0.244
					l-0.43-1.311l1.403,0.58l2.437,0.486l1.459,1.704l-1.945,0.243c0,0-0.733,1.217,1.457,1.947
					C-0.23,28.903,3.421,33.284,1.23,32.068z"/>
				<path fill="#2F8F64" d="M2.447,39.859c0,0,1.461,1.217,2.19,2.922c0.73,1.703,1.947-1.462,1.947-1.462s2.896-1.724,1.447,0.599
					l3.667-3.032L6.342,44.97c0,0-1.218,2.923-1.461,4.14s0,3.408-1.46-0.244L0.5,43.023l-1.948-1.947c0,0-3.166-1.459-4.383-1.947
					c-1.217-0.486-3.407-2.678-3.407-2.678s-0.243-1.947,1.217-0.244c1.461,1.705,2.19,1.461,2.19,1.461l0.974-0.244l1.95,1.219
					L0.5,39.617c0,0-0.974-1.949,0-1.463C1.474,38.643,2.447,39.859,2.447,39.859z"/>
				<path fill="#2F8F64" d="M4.495,31.584c0,0,0.143-2.436,2.09-2.924c1.947-0.486-0.243,1.852-0.243,1.852l2.015-0.721
					c0,0,4.005-2.248,2.822-0.959c-1.187,1.288-2.518,3.129-2.518,3.129s-2.764,1.777-1.566,0.334
					c1.194-1.444-2.827,0.285-2.827,0.285L4.495,31.584z"/>
				<path fill="#2F8F64" d="M12.186,27.931c0,0,4.382-2.921,6.085-3.407c1.704-0.487,5.111-1.949,5.599-2.68
					c0.486-0.729,1.384-1.393-0.245-0.729c-1.623,0.662-2.433,0.973-2.433,0.973l1.217-1.947l-2.434,2.191l-0.487-1.461
					l-1.217,2.191l-1.947-0.73l-2.435,2.191l-5.356,2.189l0.243,1.218C8.775,27.931,12.67,24.768,12.186,27.931z"/>
				<path fill="#2F8F64" d="M6.964,20.939c0,0-4.372-0.457-4.021,0.761l-0.627-1.675l-1.467,0.611l-1.713-0.611
					c0,0,0-1.371,0.486-0.76l1.47-0.154c0,0-1.47-0.152-1.956-1.219c-0.489-1.066,0.979,0,0.979,0l-0.979-1.524
					c0,0-0.489-1.067,1.223,0.304c1.713,1.373,0.49-1.22,0.49-1.22s0.489-0.913,0.978,0.153c0.489,1.066,1.468,0.763,2.446,0.152
					c0.979-0.607,2.202-3.352,1.957-1.372l-1.034,1.968c0,0,2.259-1.357,2.259-1.968c0-0.608,1.466,0.306-0.49,2.136
					c0,0,1.713,0.457,0.244,1.371L6.401,18.84l1.296-0.488c0,0,0.116,0.412-1.223,1.064l-0.489,0.916
					C5.985,20.332,8.736,19.361,6.964,20.939z"/>
				<path fill="#2F8F64" d="M-3.15,18.191l-3.167-2.677l-1.461,0.729c0,0-2.19-2.434-2.434-1.459
					c-0.243,0.973,3.651,3.406,3.651,3.406H-3.15z"/>
				<path fill="#2F8F64" d="M-10.942,16.487l-3.164-1.946l-1.46-1.704l-0.73,0.974l-2.677-2.19c0,0-2.438,0,0,1.704
					C-16.542,15.027-10.942,16.487-10.942,16.487z"/>
				<path fill="#2F8F64" d="M-15.81,14.785c0,0-4.628,0.973-2.193-0.486L-15.81,14.785z"/>
				<path fill="#2F8F64" d="M-8.021,8.699c0,0-6.571-1.217-7.302-1.947s-4.383-1.947-1.95-1.947h4.628l8.275,4.139L-8.021,8.699z"/>
				<path fill="#2F8F64" d="M-3.395,8.699l-11.441-8.521c0,0-2.192-0.73-2.681-1.703c-0.486-0.973-2.921-0.973-3.164-2.191
					l-0.73-1.946c0,0-1.864-0.038-2.92-1.218l-0.487-1.703l-3.164-3.654c0,0,0-0.729,1.947,0.73c0,0-1.218-4.381,1.947,0.243
					l2.677,2.681c0,0-0.243-3.408,0.487-1.947l1.218,1.947l3.896,1.703l1.217,0.488l0.243-0.975l1.947,2.921l1.217,5.112
					c0,0,1.704,1.459,2.921,1.217c1.217-0.245,0.973,1.702,0.973,1.702s6.089,1.95,3.168,2.192l-1.95-0.242
					C-6.074,5.535-0.474,10.646-3.395,8.699z"/>
				<path fill="#2F8F64" d="M3.319,8.515L0.106,6.336c0,0-1.514-0.738,0.17-0.8c1.682-0.062,0.529-0.138,0.529-0.138L0.175,4.432
					c0,0-2.896-1.697-1.919-1.574c0.974,0.123,1.106-0.102,1.106-0.102L-2.03,1.045c0,0-1.39-1.713-0.322-1.238l-0.77-1.496
					c0,0-0.368-1.414,0.837-0.408l1.745,1.621l-1.323-3.62c0,0-0.367-1.411,0.892,0.524c1.261,1.936,1.269,2.688,1.269,2.688
					L0.119-5.176c0,0,0.698-0.939,1.077,1.229L1.663-1.43c0,0,1.384,0.959,1.499-0.77c0.114-1.729,0.997-1.959,0.675,1.145
					L3.546,0.723c0,0,2.312-3.438,1.46-0.193c0,0,0.659-0.361,0.022,2.256c0,0,1.401,0.688,0.954,2.205L5.535,6.508
					c0,0-1.818-2.246-2.018-0.119l1.706,2.196c0,0-1.337-0.783-0.653,1.114c0,0-2.312-0.906-2.08-0.023l-1.43-1.137
					C1.061,8.539,0.913,7.256,3.319,8.515z"/>
				<path fill="#2F8F64" d="M9.019,5.9c0,0,5.845-0.914,7.121-2.01c1.279-1.094,2.922-3.65,2.922-5.113c0,0-0.933-1.303-1.015-0.378
					l-0.993-1.81c0,0-0.73,0.912-0.914,1.641c-0.182,0.73-1.825-0.729-1.825-0.729s-0.913,0,0,2.008
					c0.914,2.008-0.532,1.088-1.279,0c-0.743-1.086-0.911-0.184-0.365,1.096c0.549,1.277-0.546,1.643-0.546,1.643
					s-1.826-2.191-1.461-0.914s0.545,1.463,0.545,1.463s-0.18,1.459-1.274,1.823C8.838,4.986,9.019,5.9,9.019,5.9z"/>
				<path fill="#2F8F64" d="M9.203,9.002c0,0,2.19-1.094,2.374-1.824c0.182-0.73-0.914-0.547-0.914-0.547L9.203,9.002z"/>
				<path fill="#2F8F64" d="M12.67,8.092c0,0,3.104-0.184-0.182,1.095c-3.285,1.276-1.644,0-1.644,0L12.67,8.092z"/>
				<path fill="#2F8F64" d="M5.475-9.158c0,0-7.41-0.461-9.233-2.834c-1.829-2.375-4.384-10.59-4.384-10.59l-0.547-4.383
					c0,0,0.547-2.373,0.911,0.364c0,0,1.947,4.233,2.615,3.212c0,0,0.631-1.717,1.475,1.006c0.841,2.723-0.255-0.383-0.255-0.383
					l0.73-0.548c0,0,0.365-3.103,1.277,1.097l1.644-1.097l-0.182,5.661c0,0,0.73,6.025,1.096,4.746c0,0,0.545-4.199,1.095-2.922
					c0.547,1.279,0.364,3.471,0.364,3.471s2.191-2.01,2.374,0.182l-0.731,0.911l2.01,0.367l-0.548,0.729L5.475-9.158z"/>
				<path fill="#2F8F64" d="M-21.167-20.514c0,0,2.13,3.651,3.65,3.895c1.522,0.244,3.818-0.278,4.314,1.169
					c0.494,1.45,1.043,1.752,2.26,2.239c1.218,0.486,3.65,2.68,3.65,2.68s1.948,2.922,1.461,0.486c0,0-0.729-3.41-2.19-4.141
					c-1.46-0.729-1.703,0-1.703,0l-0.974-3.406c0,0-1.219-0.73-0.974,0.729c0.243,1.46-1.461-3.407-1.461-3.407
					s-1.703,0.244-1.217,1.703C-13.863-17.105-16.542-21-16.542-21l-2.188-0.486c0,0,0.486,1.461,0.971,2.19
					c0.486,0.729-1.739-1.692-3.164-2.435c-1.424-0.744-2.921-0.973-3.895-2.436C-24.818-24.166-23.113-21.486-21.167-20.514z"/>
				<path fill="#2F8F64" d="M10.479-6.334c0,0,10.771-5.112,12.965-6.936c2.19-1.827,5.659-4.933,5.659-4.933
					s0.182-0.729-1.824,0.731c0,0,2.188-2.375,0.911-2.738c0,0-1.096,1.643-3.65,3.652c-2.556,2.008-3.105,1.096-3.105,1.096
					l0.365-2.01c0,0-1.095,2.374-3.104,3.65c0,0,0.366,1.096-1.276,2.01C15.774-10.897,10.479-6.334,10.479-6.334z"/>
				<path fill="#2F8F64" d="M19.792-7.065c0,0,6.573,0.915,10.224-1.458l5.295-5.662l2.372-2.736c0,0,0-0.184-2.007,1.643
					l-1.095,0.549c0,0,0.549-2.557,0-1.645c0,0-1.645,1.645-2.739,3.834c-1.096,2.191-2.191,1.825-2.191,1.825h-1.825
					c0,0,1.643-2.92,1.46-3.833c-0.182-0.912-1.095,2.191-1.095,2.191l-1.825,2.373l-3.651,0.73L21.8-8.16
					c0,0-4.183,1.043-5.104,1.984L19.792-7.065z"/>
				<path fill="#2F8F64" d="M19.609,2.432c0,0,4.381,0,5.111-0.549l2.374-1.462L25.27,0.787l-0.184-0.73l-2.737,1.277
					c0,0-0.914,0-0.364-0.913l-1.098,0.366l-2.373,2.01l-0.729,0.73L19.609,2.432z"/>
				<path fill="#2F8F64" d="M9.749-14.186c0,0,0.549-3.832,1.279-4.381c0.73-0.545,3.651-3.104,3.286-2.008
					s-1.461,3.104-1.461,3.104L9.749-14.186z"/>
				<path fill="#2F8F64" d="M15.409-21.305c0,0-0.365-2.922,0.73-4.016c1.095-1.096,1.825-3.469,1.825-3.469
					s0.914,0.182,0.549,1.643L15.409-21.305z"/>
			</g>
		</g>
	</g>
</symbol>
<g id="Calque_7" display="none">
	<linearGradient id="SVGID_1_" gradientUnits="userSpaceOnUse" x1="428.3042" y1="656.6992" x2="428.3042" y2="-115.0688">
		<stop  offset="0" style="stop-color:#5E3F2F"/>
		<stop  offset="1" style="stop-color:#000000"/>
	</linearGradient>
	<polygon display="inline" fill="url(#SVGID_1_)" points="-698.645,656.699 1537.22,517.227 1555.252,-115.069 -336.059,-104.833 
		-671.944,-103.159 	"/>
</g>
<g id="Calque_1">
	
		<use xlink:href="#Arbres_1"  width="80.273" height="111.745" x="-41.326" y="-55.933" transform="matrix(6.6398 0 0 -6.6398 79.7383 31.4976)" overflow="visible"/>
	<g>
		
			<use xlink:href="#Arbres_1"  width="80.273" height="111.745" x="-41.326" y="-55.933" transform="matrix(7.5363 0 0 -7.5363 253.9131 81.2183)" overflow="visible"/>
		<g>
			
				<use xlink:href="#Arbres_1"  width="80.273" height="111.745" x="-41.326" y="-55.933" transform="matrix(7.5363 0 0 -7.5363 925.2148 -25.3271)" overflow="visible"/>
			
				<use xlink:href="#Arbres_1"  width="80.273" height="111.745" x="-41.326" y="-55.933" transform="matrix(7.5363 0 0 -7.5363 118.2744 63.3052)" overflow="visible"/>
			
				<use xlink:href="#Arbres_1"  width="80.273" height="111.745" x="-41.326" y="-55.933" transform="matrix(7.5363 0 0 -7.5363 877.7627 68.7979)" overflow="visible"/>
			
				<use xlink:href="#Arbres_1"  width="80.273" height="111.745" x="-41.326" y="-55.933" transform="matrix(7.5363 0 0 -7.5363 968.792 75.186)" overflow="visible"/>
			
				<use xlink:href="#Arbres_1"  width="80.273" height="111.745" x="-41.326" y="-55.933" transform="matrix(7.5363 0 0 -7.5363 1209.0986 41.8457)" overflow="visible"/>
			
				<use xlink:href="#Arbres_1"  width="80.273" height="111.745" x="-41.326" y="-55.933" transform="matrix(7.5363 0 0 -7.5363 474.2275 -22.3262)" overflow="visible"/>
		</g>
	</g>
	<g>
		
			<use xlink:href="#Arbres_1"  width="80.273" height="111.745" x="-41.326" y="-55.933" transform="matrix(7.5363 0 0 -7.5363 614.2812 65.9253)" overflow="visible"/>
		<g>
			
				<use xlink:href="#Arbres_1"  width="80.273" height="111.745" x="-41.326" y="-55.933" transform="matrix(7.5363 0 0 -7.5363 1285.583 -40.6201)" overflow="visible"/>
			
				<use xlink:href="#Arbres_1"  width="80.273" height="111.745" x="-41.326" y="-55.933" transform="matrix(7.5363 0 0 -7.5363 919.9688 119.9165)" overflow="visible"/>
			
				<use xlink:href="#Arbres_1"  width="80.273" height="111.745" x="-41.326" y="-55.933" transform="matrix(7.5363 0 0 -7.5363 478.6426 48.0117)" overflow="visible"/>
			
				<use xlink:href="#Arbres_1"  width="80.273" height="111.745" x="-41.326" y="-55.933" transform="matrix(7.5363 0 0 -7.5363 1238.1309 53.5049)" overflow="visible"/>
			
				<use xlink:href="#Arbres_1"  width="80.273" height="111.745" x="-41.326" y="-55.933" transform="matrix(7.5363 0 0 -7.5363 1329.1602 59.8931)" overflow="visible"/>
			
				<use xlink:href="#Arbres_1"  width="80.273" height="111.745" x="-41.326" y="-55.933" transform="matrix(7.5363 0 0 -7.5363 1569.4668 26.5527)" overflow="visible"/>
		</g>
	</g>
	
		<use xlink:href="#Arbres_1"  width="80.273" height="111.745" x="-41.326" y="-55.933" transform="matrix(1.6456 0 0 -1.6456 622.6455 -208.4829)" overflow="visible"/>
	
		<use xlink:href="#Arbres_1"  width="80.273" height="111.745" x="-41.326" y="-55.933" transform="matrix(1.6456 0 0 -1.6456 676.5996 -200.3364)" overflow="visible"/>
	
		<use xlink:href="#Arbres_1"  width="80.273" height="111.745" x="-41.326" y="-55.933" transform="matrix(7.5363 0 0 -7.5363 585.2461 123.4653)" overflow="visible"/>
	<polygon display="none" fill="#666666" points="-237.477,506 1754.117,506 1850.816,848 -48.428,848 	"/>
</g>
<g id="Calque_2" display="none">
	<polygon display="inline" fill="#5B5150" points="852.715,296.837 831.646,362.335 842.18,389.061 891.328,357.067 
		886.607,313.424 	"/>
	
		<rect x="858.67" y="224.255" transform="matrix(-0.8982 -0.4396 0.4396 -0.8982 1547.1371 828.4861)" display="inline" fill="#6D5021" width="21.668" height="21.671"/>
	
		<rect x="852.495" y="245.703" transform="matrix(0.8982 0.4396 -0.4396 0.8982 211.7819 -360.3244)" display="inline" fill="#EFBB95" width="62.841" height="62.842"/>
	
		<rect x="858.946" y="241.678" transform="matrix(0.8982 0.4396 -0.4396 0.8982 204.2302 -359.5588)" display="inline" fill="#F9BA48" width="39.007" height="39.005"/>
	
		<line display="inline" fill="none" stroke="#000000" stroke-miterlimit="10" x1="916.901" y1="281.202" x2="911.062" y2="278.346"/>
	
		<rect x="901.207" y="298.155" transform="matrix(0.8983 0.4394 -0.4394 0.8983 223.4653 -366.9722)" display="inline" width="6.501" height="2.167"/>
	<polygon display="inline" fill="#B70000" points="909.104,262.009 900.113,272.988 902.858,282.172 903.033,274.415 
		909.57,271.283 	"/>
	
		<rect x="863.337" y="285.579" transform="matrix(0.8986 0.4389 -0.4389 0.8986 213.5673 -350.323)" display="inline" fill="#B70000" width="2.437" height="2.439"/>
	
		<rect x="876.087" y="294.856" transform="matrix(0.8981 0.4398 -0.4398 0.8981 219.9366 -355.8811)" display="inline" fill="#B70000" width="3.506" height="3.507"/>
	
		<rect x="890.043" y="293.723" transform="matrix(0.8987 0.4385 -0.4385 0.8987 219.0267 -360.8635)" display="inline" fill="#B70000" width="1.354" height="0"/>
	
		<rect x="891.489" y="303.791" transform="matrix(0.8978 0.4404 -0.4404 0.8978 224.9734 -361.9877)" display="inline" fill="#B70000" width="2.056" height="0"/>
	
		<rect x="881.542" y="307.424" transform="matrix(0.8982 0.4396 -0.4396 0.8982 226.0831 -356.9792)" display="inline" fill="#B70000" width="4.334" height="4.334"/>
	
		<rect x="914.5" y="263.893" transform="matrix(0.8983 0.4394 -0.4394 0.8983 210.7153 -376.0772)" display="inline" fill="#B70000" width="6.501" height="6.501"/>
</g>
<g id="Calque_8" display="none">
	
		<rect x="663.43" y="297.791" transform="matrix(0.979 -0.204 0.204 0.979 -51.478 147.5298)" display="inline" fill="#EFBB95" width="52.716" height="51.29"/>
	
		<rect x="676.624" y="322.752" transform="matrix(0.979 -0.2039 0.2039 0.979 -52.2643 145.4148)" display="inline" fill="#EAEAEA" width="5.699" height="7.122"/>
	
		<rect x="697.546" y="318.39" transform="matrix(0.979 -0.2039 0.2039 0.979 -50.9354 149.5896)" display="inline" fill="#EAEAEA" width="5.699" height="7.123"/>
	
		<rect x="678.415" y="325.215" transform="matrix(0.9787 -0.2052 0.2052 0.9787 -52.4578 146.2794)" display="inline" width="1.514" height="1.783"/>
	
		<rect x="699.337" y="320.854" transform="matrix(0.9787 -0.2053 0.2053 0.9787 -51.1409 150.5785)" display="inline" width="1.513" height="1.783"/>
	
		<rect x="674.617" y="321.386" transform="matrix(0.8491 -0.5283 0.5283 0.8491 -68.4485 407.4499)" display="inline" fill="#EFBB95" width="8.55" height="4.274"/>
	
		<rect x="696.933" y="316.735" transform="matrix(-0.9894 -0.1452 0.1452 -0.9894 1348.6937 736.166)" display="inline" fill="#EFBB95" width="8.55" height="4.275"/>
	<polygon display="inline" points="683.107,343.747 683.297,343.46 685.315,340.377 700.658,337.178 704.522,339.283 	"/>
	<path display="inline" fill="#FFDA6A" d="M658.753,303.708l3.197,15.341l51.606-10.755l-3.197-15.343L658.753,303.708z"/>
	<polygon display="inline" fill="#4F4F4F" points="681.771,351.302 671.662,391.249 724.441,393.104 711.525,345.101 	"/>
</g>
<g id="Calque_3" display="none">
	<path display="inline" fill="#A8A8A8" d="M1246.806,269.916l-193.944-0.173l-79.623-82.15l-315.245,51.246L583.569,353.31
		l-200.13,64.368l29.551,176.348l100.37-16.318l34.882-55.488l148.63-24.158l29.022,45.098l258.051-41.944l20.644-55.149
		l133.194-21.646l55.744,42.729l83.477-13.569L1246.806,269.916z M617.896,381.687l42.759-110.918l138.321-25.214l0.382,1.33
		l14.281,95.218L617.896,381.687z M833.097,335.363l-14.943-95.138l151.176-28.941l69.442,91.236L833.097,335.363z"/>
	
		<rect x="1021.317" y="450.433" transform="matrix(0.9852 -0.1713 0.1713 0.9852 -73.2499 194.8951)" fill="#020202" width="143.022" height="143.022"/>
	
		<rect x="568.805" y="523.117" transform="matrix(0.9852 -0.1713 0.1713 0.9852 -92.3822 118.4555)" fill="#020202" width="143.024" height="143.021"/>
	<rect x="1163" y="214" display="inline" fill="#3D3D3D" width="33" height="33"/>
	<rect x="1109" y="176" display="inline" fill="#3D3D3D" width="39" height="38"/>
	<rect x="1153" y="98" display="inline" fill="#3D3D3D" width="71" height="71"/>
	<polygon fill="none" stroke="#666666" stroke-miterlimit="10" points="807.38,234.62 854.723,511.924 971.683,491.858 
		1005.946,427.786 1068.033,416.047 1042.595,283.846 969.329,202.29 	"/>
	<polygon fill="none" stroke="#666666" stroke-miterlimit="10" points="807.38,234.62 854.723,511.924 737.623,529.957 
		686.332,480.102 621.762,491.816 598.203,356.624 659.864,259.032 	"/>
	<line fill="none" stroke="#000000" stroke-miterlimit="10" x1="627.331" y1="406.87" x2="671.325" y2="397.609"/>
	<line fill="none" stroke="#000000" stroke-miterlimit="10" x1="843.566" y1="359.299" x2="888.213" y2="353.995"/>
	<path opacity="0.2" fill="#03ABFF" d="M969.329,211.284l-151.176,28.941l0.046,0.294l14.897,94.844l205.675-32.843L969.329,211.284
		z M922.098,316.387l-12.527-9.569l-14.493,10.813l-7.713-13.278l-5.505,17.908l-13.064-13.034l-5.87,15.857l-19.142-15.863
		l-6.865,21.16l9.549-30.503l-13.008-21.875l20.136,8.795l-25.197-20.353l8.396-5.265l-3.584-19.091L845,258.902V242l20.39,30.09
		l-15.725-32.312l8.749,2.49l6.078-7.657l14.233,10.943l22.319-17.942l4.005,31.29l2.798-31.415l26.963,41.733l-17.186-42.736
		l23.547,2.623l-3.465,27.446l22.822,2.349l-14.074,33.578L974.768,304H928L922.098,316.387z"/>
	<g>
		<polygon display="inline" opacity="0.2" fill="#03ABFF" points="658.389,282.778 670.323,285.268 678.614,277.611 
			698.024,288.555 728.459,270.612 733.921,301.902 737.736,270.487 774.504,312.22 751.069,269.484 783.178,272.106 
			778.453,299.553 807.511,301.746 798.977,245.555 660.655,270.769 654.236,287.419 679.821,315.09 		"/>
		<polygon display="inline" opacity="0.2" fill="#03ABFF" points="813.006,342.23 813.64,342.103 807.963,304.722 790.382,335.48 		
			"/>
		<polygon display="inline" opacity="0.2" fill="#03ABFF" points="761.555,352.635 789.422,347 765.217,347 		"/>
		<polygon display="inline" opacity="0.2" fill="#03ABFF" points="652,293.221 649.615,299.406 652,301.902 		"/>
		<polygon display="inline" opacity="0.2" fill="#03ABFF" points="740.086,349.817 720.322,360.631 709.805,347.353 
			702.593,364.559 749.477,355.078 		"/>
		<polygon display="inline" opacity="0.2" fill="#03ABFF" points="642.706,317.329 640.741,322.426 663.757,329.798 		"/>
		<polygon display="inline" opacity="0.2" fill="#03ABFF" points="676.479,368.084 650.378,352.221 641.016,373.381 
			654.037,342.877 639.682,325.174 617.896,381.687 701.611,364.757 684.483,352.227 		"/>
		<polygon display="inline" opacity="0.2" fill="#03ABFF" points="652,285 652,293.221 654.236,287.419 		"/>
		<polygon display="inline" opacity="0.2" fill="#03ABFF" points="702.299,365.261 702.593,364.559 701.611,364.757 		"/>
	</g>
</g>
<g id="Calque_6" display="none">
	<g display="inline">
		<path fill="#0548A8" d="M392.021,387.652l13.723-45.844c0,0-56.127,10.359-98.241-3.751c0,0-59.639,16.344-99.439-1.721
			l9.735,51.18L392.021,387.652z"/>
		<rect x="217" y="387" width="174" height="10"/>
		<polyline fill="#EFBB95" points="303.916,528.746 216.697,476.241 220.651,518.838 246,551.855 246,575 303.916,575 362,575 
			362,551.855 387.264,518.838 391.257,476.241 303.916,528.746 		"/>
		<polyline fill="#F9BA48" points="304,397 389.077,397 391.135,476.039 371.935,504.438 333.537,528.146 304.19,535.048 
			274.294,528.155 235.896,504.461 216.697,476.038 218.754,397 304,397 		"/>
		<polygon fill="#92BEFF" points="307,832 307,573.178 240.285,585.062 95.693,623.097 52,791.226 52,832 		"/>
		<polygon opacity="0.5" fill="#383838" points="307,578.115 307,573.178 240.285,585.062 240.995,585.264 		"/>
		<polygon fill="#78B3F9" points="246.318,573.577 276.659,559.79 307,554.556 307,574.824 240.285,585.062 		"/>
		<polygon fill="#92BEFF" points="307,832 307,573.178 373.922,585.062 518.41,623.097 562,791.226 562,832 		"/>
		<polygon opacity="0.5" fill="#383838" points="307,578.115 307,573.178 373.922,585.062 373.108,585.264 		"/>
		<polygon fill="#78B3F9" points="368.096,573.577 337.548,559.79 307,554.556 307,574.824 373.922,585.062 		"/>
		<line opacity="0.5" fill="none" stroke="#383838" stroke-width="2" stroke-miterlimit="10" x1="164" y1="728" x2="164" y2="832"/>
		<line opacity="0.5" fill="none" stroke="#383838" stroke-width="2" stroke-miterlimit="10" x1="447" y1="728" x2="447" y2="832"/>
	</g>
</g>
<g id="Calque_5" display="none">
	
		<rect x="1039.178" y="613.017" transform="matrix(0.8072 0.5903 -0.5903 0.8072 577.6868 -497.6995)" display="inline" width="23.163" height="45.001"/>
	
		<rect x="1048.572" y="620.076" transform="matrix(0.8073 0.5902 -0.5902 0.8073 574.3488 -502.5905)" display="inline" fill="#FFFFFF" width="16.214" height="16.001"/>
</g>
</svg>
