<?xml version="1.0" encoding="utf-8"?>
<!-- Generator: Adobe Illustrator 16.0.0, SVG Export Plug-In . SVG Version: 6.00 Build 0)  -->
<!DOCTYPE svg PUBLIC "-//W3C//DTD SVG 1.1//EN" "http://www.w3.org/Graphics/SVG/1.1/DTD/svg11.dtd">
<svg version="1.1" xmlns="http://www.w3.org/2000/svg" xmlns:xlink="http://www.w3.org/1999/xlink" x="0px" y="0px" width="115px"
	 height="149px" viewBox="0 0 115 149" enable-background="new 0 0 115 149" xml:space="preserve">
<symbol  id="Arbres_1" viewBox="-41.326 -55.933 80.273 111.745">
</symbol>
<g id="Calque_7" display="none">
	<linearGradient id="SVGID_1_" gradientUnits="userSpaceOnUse" x1="-680.6958" y1="558.6992" x2="-680.6959" y2="-213.0688">
		<stop  offset="0" style="stop-color:#5E3F2F"/>
		<stop  offset="1" style="stop-color:#000000"/>
	</linearGradient>
	<polygon display="inline" fill="url(#SVGID_1_)" points="-1807.645,558.699 428.22,419.227 446.252,-213.069 -1445.059,-202.833 
		-1780.944,-201.159 	"/>
</g>
<g id="Calque_1" display="none">
	<g display="inline">
		
			<use xlink:href="#Arbres_1"  width="80.273" height="111.745" x="-41.326" y="-55.933" transform="matrix(7.5363 0 0 -7.5363 -494.7188 -32.0747)" overflow="visible"/>
		<g>
			
				<use xlink:href="#Arbres_1"  width="80.273" height="111.745" x="-41.326" y="-55.933" transform="matrix(7.5363 0 0 -7.5363 -630.3574 -49.9883)" overflow="visible"/>
			
				<use xlink:href="#Arbres_1"  width="80.273" height="111.745" x="-41.326" y="-55.933" transform="matrix(7.5363 0 0 -7.5363 129.1309 -44.4951)" overflow="visible"/>
			
				<use xlink:href="#Arbres_1"  width="80.273" height="111.745" x="-41.326" y="-55.933" transform="matrix(7.5363 0 0 -7.5363 220.1602 -38.1069)" overflow="visible"/>
			
				<use xlink:href="#Arbres_1"  width="80.273" height="111.745" x="-41.326" y="-55.933" transform="matrix(7.5363 0 0 -7.5363 460.4668 -71.4473)" overflow="visible"/>
			
				<use xlink:href="#Arbres_1"  width="80.273" height="111.745" x="-41.326" y="-55.933" transform="matrix(7.5363 0 0 -7.5363 176.583 -138.6201)" overflow="visible"/>
			
				<use xlink:href="#Arbres_1"  width="80.273" height="111.745" x="-41.326" y="-55.933" transform="matrix(7.5363 0 0 -7.5363 -274.4043 -135.6191)" overflow="visible"/>
		</g>
	</g>
	<g display="inline">
		
			<use xlink:href="#Arbres_1"  width="80.273" height="111.745" x="-41.326" y="-55.933" transform="matrix(7.5363 0 0 -7.5363 -855.0869 -16.7817)" overflow="visible"/>
		<g>
			
				<use xlink:href="#Arbres_1"  width="80.273" height="111.745" x="-41.326" y="-55.933" transform="matrix(7.5363 0 0 -7.5363 -990.7256 -34.6948)" overflow="visible"/>
			
				<use xlink:href="#Arbres_1"  width="80.273" height="111.745" x="-41.326" y="-55.933" transform="matrix(7.5363 0 0 -7.5363 -231.2373 -29.2021)" overflow="visible"/>
			
				<use xlink:href="#Arbres_1"  width="80.273" height="111.745" x="-41.326" y="-55.933" transform="matrix(7.5363 0 0 -7.5363 -140.208 -22.814)" overflow="visible"/>
			
				<use xlink:href="#Arbres_1"  width="80.273" height="111.745" x="-41.326" y="-55.933" transform="matrix(7.5363 0 0 -7.5363 100.0986 -56.1543)" overflow="visible"/>
			
				<use xlink:href="#Arbres_1"  width="80.273" height="111.745" x="-41.326" y="-55.933" transform="matrix(7.5363 0 0 -7.5363 -183.7852 -123.3271)" overflow="visible"/>
			
				<use xlink:href="#Arbres_1"  width="80.273" height="111.745" x="-41.326" y="-55.933" transform="matrix(7.5363 0 0 -7.5363 -634.7725 -120.3262)" overflow="visible"/>
		</g>
	</g>
	
		<use xlink:href="#Arbres_1"  width="80.273" height="111.745" x="-41.326" y="-55.933" transform="matrix(1.6456 0 0 -1.6456 -486.3545 -306.4829)" display="inline" overflow="visible"/>
	
		<use xlink:href="#Arbres_1"  width="80.273" height="111.745" x="-41.326" y="-55.933" transform="matrix(1.6456 0 0 -1.6456 -432.4004 -298.3364)" display="inline" overflow="visible"/>
	
		<use xlink:href="#Arbres_1"  width="80.273" height="111.745" x="-41.326" y="-55.933" transform="matrix(6.6398 0 0 -6.6398 -1029.2617 -66.5024)" display="inline" overflow="visible"/>
	
		<use xlink:href="#Arbres_1"  width="80.273" height="111.745" x="-41.326" y="-55.933" transform="matrix(7.5363 0 0 -7.5363 -523.7539 25.4653)" display="inline" overflow="visible"/>
	<polygon display="inline" fill="#666666" points="-1346.477,408 645.117,408 741.816,750 -1157.428,750 	"/>
</g>
<g id="Calque_2" display="none">
	<polygon display="inline" fill="#5B5150" points="-256.285,198.837 -277.354,264.335 -266.82,291.061 -217.672,259.067 
		-222.393,215.424 	"/>
	
		<rect x="-250.33" y="126.255" transform="matrix(-0.8982 -0.4396 0.4396 -0.8982 -514.8739 154.9384)" display="inline" fill="#6D5021" width="21.668" height="21.671"/>
	
		<rect x="-256.505" y="147.703" transform="matrix(0.8982 0.4396 -0.4396 0.8982 55.8249 117.1701)" display="inline" fill="#EFBB95" width="62.841" height="62.842"/>
	
		<rect x="-250.054" y="143.678" transform="matrix(0.8982 0.4396 -0.4396 0.8982 48.2613 117.9556)" display="inline" fill="#F9BA48" width="39.007" height="39.005"/>
	
		<line display="inline" fill="none" stroke="#000000" stroke-miterlimit="10" x1="-192.099" y1="183.202" x2="-197.938" y2="180.346"/>
	
		<rect x="-207.793" y="200.155" transform="matrix(0.8983 0.4394 -0.4394 0.8983 67.6189 110.3394)" display="inline" width="6.501" height="2.167"/>
	<polygon display="inline" fill="#B70000" points="-199.896,164.009 -208.887,174.988 -206.142,184.172 -205.967,176.415 
		-199.43,173.283 	"/>
	
		<rect x="-245.663" y="187.579" transform="matrix(0.8986 0.4389 -0.4389 0.8986 58.0583 126.4289)" display="inline" fill="#B70000" width="2.437" height="2.439"/>
	
		<rect x="-232.913" y="196.856" transform="matrix(0.8981 0.4398 -0.4398 0.8981 63.7958 121.9177)" display="inline" fill="#B70000" width="3.506" height="3.507"/>
	
		<rect x="-218.957" y="195.723" transform="matrix(0.8987 0.4385 -0.4385 0.8987 63.7227 115.5482)" display="inline" fill="#B70000" width="1.354" height="0"/>
	
		<rect x="-217.511" y="205.791" transform="matrix(0.8978 0.4404 -0.4404 0.8978 68.5019 116.358)" display="inline" fill="#B70000" width="2.056" height="0"/>
	
		<rect x="-227.458" y="209.424" transform="matrix(0.8982 0.4396 -0.4396 0.8982 70.0821 120.5882)" display="inline" fill="#B70000" width="4.334" height="4.334"/>
	
		<rect x="-194.5" y="165.893" transform="matrix(0.8983 0.4394 -0.4394 0.8983 54.8689 101.2343)" display="inline" fill="#B70000" width="6.501" height="6.501"/>
</g>
<g id="Calque_8" display="none">
	
		<rect x="-445.57" y="199.791" transform="matrix(0.979 -0.204 0.204 0.979 -54.8093 -80.784)" display="inline" fill="#EFBB95" width="52.716" height="51.29"/>
	
		<rect x="-432.376" y="224.752" transform="matrix(0.979 -0.2039 0.2039 0.979 -55.583 -82.7917)" display="inline" fill="#EAEAEA" width="5.699" height="7.122"/>
	
		<rect x="-411.454" y="220.39" transform="matrix(0.979 -0.2039 0.2039 0.979 -54.254 -78.617)" display="inline" fill="#EAEAEA" width="5.699" height="7.123"/>
	
		<rect x="-430.585" y="227.215" transform="matrix(0.9787 -0.2052 0.2052 0.9787 -55.9429 -83.3333)" display="inline" width="1.514" height="1.783"/>
	
		<rect x="-409.663" y="222.854" transform="matrix(0.9787 -0.2053 0.2053 0.9787 -54.6434 -79.1806)" display="inline" width="1.513" height="1.783"/>
	
		<rect x="-434.383" y="223.386" transform="matrix(0.8491 -0.5283 0.5283 0.8491 -184.0418 -193.1716)" display="inline" fill="#EFBB95" width="8.55" height="4.274"/>
	
		<rect x="-412.067" y="218.735" transform="matrix(-0.9894 -0.1452 0.1452 -0.9894 -843.3295 380.2015)" display="inline" fill="#EFBB95" width="8.55" height="4.275"/>
	<polygon display="inline" points="-425.893,245.747 -425.703,245.46 -423.685,242.377 -408.342,239.178 -404.478,241.283 	"/>
	<path display="inline" fill="#FFDA6A" d="M-450.247,205.708l3.197,15.341l51.606-10.755l-3.197-15.343L-450.247,205.708z"/>
	<polygon display="inline" fill="#4F4F4F" points="-427.229,253.302 -437.338,293.249 -384.559,295.104 -397.475,247.101 	"/>
</g>
<g id="Calque_3">
	<path display="none" fill="#A8A8A8" d="M137.806,171.916l-193.944-0.173l-79.623-82.15l-315.245,51.246l-74.424,114.471
		l-200.13,64.368l29.551,176.348l100.37-16.318l34.882-55.488l148.63-24.158l29.022,45.098l258.051-41.944l20.644-55.149
		l133.194-21.646l55.744,42.729l83.477-13.569L137.806,171.916z M-491.104,283.687l42.759-110.918l138.321-25.214l0.382,1.33
		l14.281,95.218L-491.104,283.687z M-275.903,237.363l-14.943-95.138l151.176-28.941l69.442,91.236L-275.903,237.363z"/>
	
		<rect x="-87.683" y="352.433" transform="matrix(0.9852 -0.1713 0.1713 0.9852 -72.853 3.4951)" display="none" fill="#020202" width="143.022" height="143.022"/>
	
		<rect x="-540.195" y="425.117" transform="matrix(0.9852 -0.1713 0.1713 0.9852 -91.9845 -72.9344)" display="none" fill="#020202" width="143.024" height="143.021"/>
	<rect x="54" y="116" fill="#3D3D3D" width="33" height="33"/>
	<rect y="78" fill="#3D3D3D" width="39" height="38"/>
	<rect x="44" fill="#3D3D3D" width="71" height="71"/>
	<polygon display="none" fill="none" stroke="#666666" stroke-miterlimit="10" points="-301.62,136.62 -254.277,413.924 
		-137.317,393.858 -103.054,329.786 -40.967,318.047 -66.405,185.846 -139.671,104.29 	"/>
	<polygon display="none" fill="none" stroke="#666666" stroke-miterlimit="10" points="-301.62,136.62 -254.277,413.924 
		-371.377,431.957 -422.668,382.102 -487.238,393.816 -510.797,258.624 -449.136,161.032 	"/>
	<line display="none" fill="none" stroke="#000000" stroke-miterlimit="10" x1="-481.669" y1="308.87" x2="-437.675" y2="299.609"/>
	
		<line display="none" fill="none" stroke="#000000" stroke-miterlimit="10" x1="-265.434" y1="261.299" x2="-220.787" y2="255.995"/>
	<path display="none" opacity="0.2" fill="#03ABFF" d="M-139.671,113.284l-151.176,28.941l0.046,0.294l14.897,94.844l205.675-32.843
		L-139.671,113.284z M-186.902,218.387l-12.527-9.569l-14.493,10.813l-7.713-13.278l-5.505,17.908l-13.064-13.034l-5.87,15.857
		l-19.142-15.863l-6.865,21.16l9.549-30.503l-13.008-21.875l20.136,8.795l-25.197-20.353l8.396-5.265l-3.584-19.091L-264,160.902
		V144l20.39,30.09l-15.725-32.312l8.749,2.49l6.078-7.657l14.233,10.943l22.319-17.942l4.005,31.29l2.798-31.415l26.963,41.733
		l-17.186-42.736l23.547,2.623l-3.465,27.446l22.822,2.349l-14.074,33.578l28.312,11.52H-181L-186.902,218.387z"/>
	<g display="none">
		<polygon display="inline" opacity="0.2" fill="#03ABFF" points="-450.611,184.778 -438.677,187.268 -430.386,179.611 
			-410.976,190.555 -380.541,172.612 -375.079,203.902 -371.264,172.487 -334.496,214.22 -357.931,171.484 -325.822,174.106 
			-330.547,201.553 -301.489,203.746 -310.023,147.555 -448.345,172.769 -454.764,189.419 -429.179,217.09 		"/>
		<polygon display="inline" opacity="0.2" fill="#03ABFF" points="-295.994,244.23 -295.36,244.103 -301.037,206.722 
			-318.618,237.48 		"/>
		<polygon display="inline" opacity="0.2" fill="#03ABFF" points="-347.445,254.635 -319.578,249 -343.783,249 		"/>
		<polygon display="inline" opacity="0.2" fill="#03ABFF" points="-457,195.221 -459.385,201.406 -457,203.902 		"/>
		<polygon display="inline" opacity="0.2" fill="#03ABFF" points="-368.914,251.817 -388.678,262.631 -399.195,249.353 
			-406.407,266.559 -359.523,257.078 		"/>
		<polygon display="inline" opacity="0.2" fill="#03ABFF" points="-466.294,219.329 -468.259,224.426 -445.243,231.798 		"/>
		<polygon display="inline" opacity="0.2" fill="#03ABFF" points="-432.521,270.084 -458.622,254.221 -467.984,275.381 
			-454.963,244.877 -469.318,227.174 -491.104,283.687 -407.389,266.757 -424.517,254.227 		"/>
		<polygon display="inline" opacity="0.2" fill="#03ABFF" points="-457,187 -457,195.221 -454.764,189.419 		"/>
		<polygon display="inline" opacity="0.2" fill="#03ABFF" points="-406.701,267.261 -406.407,266.559 -407.389,266.757 		"/>
	</g>
</g>
<g id="Calque_6" display="none">
	<g display="inline">
		<path fill="#0548A8" d="M-716.979,289.652l13.723-45.844c0,0-56.127,10.359-98.241-3.751c0,0-59.639,16.344-99.439-1.721
			l9.735,51.18L-716.979,289.652z"/>
		<rect x="-892" y="289" width="174" height="10"/>
		<polyline fill="#EFBB95" points="-805.084,430.746 -892.303,378.241 -888.349,420.838 -863,453.855 -863,477 -805.084,477 
			-747,477 -747,453.855 -721.736,420.838 -717.743,378.241 -805.084,430.746 		"/>
		<polyline fill="#F9BA48" points="-805,299 -719.923,299 -717.865,378.039 -737.065,406.438 -775.463,430.146 -804.81,437.048 
			-834.706,430.155 -873.104,406.461 -892.303,378.038 -890.246,299 -805,299 		"/>
		<polygon fill="#92BEFF" points="-802,734 -802,475.178 -868.715,487.062 -1013.307,525.097 -1057,693.226 -1057,734 		"/>
		<polygon opacity="0.5" fill="#383838" points="-802,480.115 -802,475.178 -868.715,487.062 -868.005,487.264 		"/>
		<polygon fill="#78B3F9" points="-862.682,475.577 -832.341,461.79 -802,456.556 -802,476.824 -868.715,487.062 		"/>
		<polygon fill="#92BEFF" points="-802,734 -802,475.178 -735.078,487.062 -590.59,525.097 -547,693.226 -547,734 		"/>
		<polygon opacity="0.5" fill="#383838" points="-802,480.115 -802,475.178 -735.078,487.062 -735.892,487.264 		"/>
		<polygon fill="#78B3F9" points="-740.904,475.577 -771.452,461.79 -802,456.556 -802,476.824 -735.078,487.062 		"/>
		
			<line opacity="0.5" fill="none" stroke="#383838" stroke-width="2" stroke-miterlimit="10" x1="-945" y1="630" x2="-945" y2="734"/>
		
			<line opacity="0.5" fill="none" stroke="#383838" stroke-width="2" stroke-miterlimit="10" x1="-662" y1="630" x2="-662" y2="734"/>
	</g>
</g>
<g id="Calque_5" display="none">
	
		<rect x="-69.822" y="515.017" transform="matrix(0.8072 0.5903 -0.5903 0.8072 306.0449 138.0011)" display="inline" width="23.163" height="45.001"/>
	
		<rect x="-60.428" y="522.076" transform="matrix(0.8073 0.5902 -0.5902 0.8073 302.7634 133.0456)" display="inline" fill="#FFFFFF" width="16.214" height="16.001"/>
</g>
</svg>
