<?xml version="1.0" encoding="utf-8"?>
<!-- Generator: Adobe Illustrator 16.0.0, SVG Export Plug-In . SVG Version: 6.00 Build 0)  -->
<!DOCTYPE svg PUBLIC "-//W3C//DTD SVG 1.1//EN" "http://www.w3.org/Graphics/SVG/1.1/DTD/svg11.dtd">
<svg version="1.1" xmlns="http://www.w3.org/2000/svg" xmlns:xlink="http://www.w3.org/1999/xlink" x="0px" y="0px" width="1280px"
	 height="800px" viewBox="0 0 1280 800" enable-background="new 0 0 1280 800" xml:space="preserve">
<symbol  id="Arbres_1" viewBox="-41.326 -55.933 80.273 111.745">
</symbol>
<g id="Calque_7">
	<linearGradient id="SVGID_1_" gradientUnits="userSpaceOnUse" x1="428.3042" y1="656.6992" x2="428.3042" y2="-115.0688">
		<stop  offset="0" style="stop-color:#5E3F2F"/>
		<stop  offset="1" style="stop-color:#000000"/>
	</linearGradient>
	<polygon fill="url(#SVGID_1_)" points="-698.645,656.699 1537.22,517.227 1555.252,-115.069 -336.059,-104.833 -671.944,-103.159 	
		"/>
</g>
<g id="Calque_1">
	<g>
		
			<use xlink:href="#Arbres_1"  width="80.273" height="111.745" x="-41.326" y="-55.933" transform="matrix(7.5363 0 0 -7.5363 614.2812 65.9253)" overflow="visible"/>
		<g>
			
				<use xlink:href="#Arbres_1"  width="80.273" height="111.745" x="-41.326" y="-55.933" transform="matrix(7.5363 0 0 -7.5363 478.6426 48.0117)" overflow="visible"/>
			
				<use xlink:href="#Arbres_1"  width="80.273" height="111.745" x="-41.326" y="-55.933" transform="matrix(7.5363 0 0 -7.5363 1238.1309 53.5049)" overflow="visible"/>
			
				<use xlink:href="#Arbres_1"  width="80.273" height="111.745" x="-41.326" y="-55.933" transform="matrix(7.5363 0 0 -7.5363 1329.1602 59.8931)" overflow="visible"/>
			
				<use xlink:href="#Arbres_1"  width="80.273" height="111.745" x="-41.326" y="-55.933" transform="matrix(7.5363 0 0 -7.5363 1569.4668 26.5527)" overflow="visible"/>
			
				<use xlink:href="#Arbres_1"  width="80.273" height="111.745" x="-41.326" y="-55.933" transform="matrix(7.5363 0 0 -7.5363 1285.583 -40.6201)" overflow="visible"/>
			
				<use xlink:href="#Arbres_1"  width="80.273" height="111.745" x="-41.326" y="-55.933" transform="matrix(7.5363 0 0 -7.5363 834.5957 -37.6191)" overflow="visible"/>
		</g>
	</g>
	<g>
		
			<use xlink:href="#Arbres_1"  width="80.273" height="111.745" x="-41.326" y="-55.933" transform="matrix(7.5363 0 0 -7.5363 253.9131 81.2183)" overflow="visible"/>
		<g>
			
				<use xlink:href="#Arbres_1"  width="80.273" height="111.745" x="-41.326" y="-55.933" transform="matrix(7.5363 0 0 -7.5363 118.2744 63.3052)" overflow="visible"/>
			
				<use xlink:href="#Arbres_1"  width="80.273" height="111.745" x="-41.326" y="-55.933" transform="matrix(7.5363 0 0 -7.5363 877.7627 68.7979)" overflow="visible"/>
			
				<use xlink:href="#Arbres_1"  width="80.273" height="111.745" x="-41.326" y="-55.933" transform="matrix(7.5363 0 0 -7.5363 968.792 75.186)" overflow="visible"/>
			
				<use xlink:href="#Arbres_1"  width="80.273" height="111.745" x="-41.326" y="-55.933" transform="matrix(7.5363 0 0 -7.5363 1209.0986 41.8457)" overflow="visible"/>
			
				<use xlink:href="#Arbres_1"  width="80.273" height="111.745" x="-41.326" y="-55.933" transform="matrix(7.5363 0 0 -7.5363 925.2148 -25.3271)" overflow="visible"/>
			
				<use xlink:href="#Arbres_1"  width="80.273" height="111.745" x="-41.326" y="-55.933" transform="matrix(7.5363 0 0 -7.5363 474.2275 -22.3262)" overflow="visible"/>
		</g>
	</g>
	
		<use xlink:href="#Arbres_1"  width="80.273" height="111.745" x="-41.326" y="-55.933" transform="matrix(1.6456 0 0 -1.6456 622.6455 -208.4829)" overflow="visible"/>
	
		<use xlink:href="#Arbres_1"  width="80.273" height="111.745" x="-41.326" y="-55.933" transform="matrix(1.6456 0 0 -1.6456 676.5996 -200.3364)" overflow="visible"/>
	
		<use xlink:href="#Arbres_1"  width="80.273" height="111.745" x="-41.326" y="-55.933" transform="matrix(6.6398 0 0 -6.6398 79.7383 31.4976)" overflow="visible"/>
	
		<use xlink:href="#Arbres_1"  width="80.273" height="111.745" x="-41.326" y="-55.933" transform="matrix(7.5363 0 0 -7.5363 585.2461 123.4653)" overflow="visible"/>
	<polygon fill="#666666" points="-237.477,506 1754.117,506 1850.816,848 -48.428,848 	"/>
</g>
<g id="Calque_2" display="none">
	<polygon display="inline" fill="#5B5150" points="852.715,296.837 831.646,362.335 842.18,389.061 891.328,357.067 
		886.607,313.424 	"/>
	
		<rect x="858.67" y="224.255" transform="matrix(-0.8982 -0.4396 0.4396 -0.8982 1547.1371 828.4861)" display="inline" fill="#6D5021" width="21.668" height="21.671"/>
	
		<rect x="852.495" y="245.703" transform="matrix(0.8982 0.4396 -0.4396 0.8982 211.7819 -360.3244)" display="inline" fill="#EFBB95" width="62.841" height="62.842"/>
	
		<rect x="858.946" y="241.678" transform="matrix(0.8982 0.4396 -0.4396 0.8982 204.2302 -359.5588)" display="inline" fill="#F9BA48" width="39.007" height="39.005"/>
	
		<line display="inline" fill="none" stroke="#000000" stroke-miterlimit="10" x1="916.901" y1="281.202" x2="911.062" y2="278.346"/>
	
		<rect x="901.207" y="298.155" transform="matrix(0.8983 0.4394 -0.4394 0.8983 223.4653 -366.9722)" display="inline" width="6.501" height="2.167"/>
	<polygon display="inline" fill="#B70000" points="909.104,262.009 900.113,272.988 902.858,282.172 903.033,274.415 
		909.57,271.283 	"/>
	
		<rect x="863.337" y="285.579" transform="matrix(0.8986 0.4389 -0.4389 0.8986 213.5673 -350.323)" display="inline" fill="#B70000" width="2.437" height="2.439"/>
	
		<rect x="876.087" y="294.856" transform="matrix(0.8981 0.4398 -0.4398 0.8981 219.9366 -355.8811)" display="inline" fill="#B70000" width="3.506" height="3.507"/>
	
		<rect x="890.043" y="293.723" transform="matrix(0.8987 0.4385 -0.4385 0.8987 219.0267 -360.8635)" display="inline" fill="#B70000" width="1.354" height="0"/>
	
		<rect x="891.489" y="303.791" transform="matrix(0.8978 0.4404 -0.4404 0.8978 224.9734 -361.9877)" display="inline" fill="#B70000" width="2.056" height="0"/>
	
		<rect x="881.542" y="307.424" transform="matrix(0.8982 0.4396 -0.4396 0.8982 226.0831 -356.9792)" display="inline" fill="#B70000" width="4.334" height="4.334"/>
	
		<rect x="914.5" y="263.893" transform="matrix(0.8983 0.4394 -0.4394 0.8983 210.7153 -376.0772)" display="inline" fill="#B70000" width="6.501" height="6.501"/>
</g>
<g id="Calque_8" display="none">
	
		<rect x="663.43" y="297.791" transform="matrix(0.979 -0.204 0.204 0.979 -51.478 147.5298)" display="inline" fill="#EFBB95" width="52.716" height="51.29"/>
	
		<rect x="676.624" y="322.752" transform="matrix(0.979 -0.2039 0.2039 0.979 -52.2643 145.4148)" display="inline" fill="#EAEAEA" width="5.699" height="7.122"/>
	
		<rect x="697.546" y="318.39" transform="matrix(0.979 -0.2039 0.2039 0.979 -50.9354 149.5896)" display="inline" fill="#EAEAEA" width="5.699" height="7.123"/>
	
		<rect x="678.415" y="325.215" transform="matrix(0.9787 -0.2052 0.2052 0.9787 -52.4578 146.2794)" display="inline" width="1.514" height="1.783"/>
	
		<rect x="699.337" y="320.854" transform="matrix(0.9787 -0.2053 0.2053 0.9787 -51.1409 150.5785)" display="inline" width="1.513" height="1.783"/>
	
		<rect x="674.617" y="321.386" transform="matrix(0.8491 -0.5283 0.5283 0.8491 -68.4485 407.4499)" display="inline" fill="#EFBB95" width="8.55" height="4.274"/>
	
		<rect x="696.933" y="316.735" transform="matrix(-0.9894 -0.1452 0.1452 -0.9894 1348.6937 736.166)" display="inline" fill="#EFBB95" width="8.55" height="4.275"/>
	<polygon display="inline" points="683.107,343.747 683.297,343.46 685.315,340.377 700.658,337.178 704.522,339.283 	"/>
	<path display="inline" fill="#FFDA6A" d="M658.753,303.708l3.197,15.341l51.606-10.755l-3.197-15.343L658.753,303.708z"/>
	<polygon display="inline" fill="#4F4F4F" points="681.771,351.302 671.662,391.249 724.441,393.104 711.525,345.101 	"/>
</g>
<g id="Calque_3" display="none">
	<path display="inline" fill="#A8A8A8" d="M1246.806,269.916l-193.944-0.173l-79.623-82.15l-315.245,51.246L583.569,353.31
		l-200.13,64.368l29.551,176.348l100.37-16.318l34.882-55.488l148.63-24.158l29.022,45.098l258.051-41.944l20.644-55.149
		l133.194-21.646l55.744,42.729l83.477-13.569L1246.806,269.916z M617.896,381.687l42.759-110.918l138.321-25.214l0.382,1.33
		l14.281,95.218L617.896,381.687z M833.097,335.363l-14.943-95.138l151.176-28.941l69.442,91.236L833.097,335.363z"/>
	
		<rect x="1021.317" y="450.433" transform="matrix(0.9852 -0.1713 0.1713 0.9852 -73.2499 194.8951)" display="inline" fill="#020202" width="143.022" height="143.022"/>
	
		<rect x="568.805" y="523.117" transform="matrix(0.9852 -0.1713 0.1713 0.9852 -92.3822 118.4555)" display="inline" fill="#020202" width="143.024" height="143.021"/>
	<rect x="1163" y="214" display="inline" fill="#3D3D3D" width="33" height="33"/>
	<rect x="1109" y="176" display="inline" fill="#3D3D3D" width="39" height="38"/>
	<rect x="1153" y="98" display="inline" fill="#3D3D3D" width="71" height="71"/>
	<polygon display="inline" fill="none" stroke="#666666" stroke-miterlimit="10" points="807.38,234.62 854.723,511.924 
		971.683,491.858 1005.946,427.786 1068.033,416.047 1042.595,283.846 969.329,202.29 	"/>
	<polygon display="inline" fill="none" stroke="#666666" stroke-miterlimit="10" points="807.38,234.62 854.723,511.924 
		737.623,529.957 686.332,480.102 621.762,491.816 598.203,356.624 659.864,259.032 	"/>
	<line display="inline" fill="none" stroke="#000000" stroke-miterlimit="10" x1="627.331" y1="406.87" x2="671.325" y2="397.609"/>
	
		<line display="inline" fill="none" stroke="#000000" stroke-miterlimit="10" x1="843.566" y1="359.299" x2="888.213" y2="353.995"/>
	<path display="inline" opacity="0.2" fill="#03ABFF" d="M969.329,211.284l-151.176,28.941l0.046,0.294l14.897,94.844
		l205.675-32.843L969.329,211.284z M922.098,316.387l-12.527-9.569l-14.493,10.813l-7.713-13.278l-5.505,17.908l-13.064-13.034
		l-5.87,15.857l-19.142-15.863l-6.865,21.16l9.549-30.503l-13.008-21.875l20.136,8.795l-25.197-20.353l8.396-5.265l-3.584-19.091
		L845,258.902V242l20.39,30.09l-15.725-32.312l8.749,2.49l6.078-7.657l14.233,10.943l22.319-17.942l4.005,31.29l2.798-31.415
		l26.963,41.733l-17.186-42.736l23.547,2.623l-3.465,27.446l22.822,2.349l-14.074,33.578L974.768,304H928L922.098,316.387z"/>
	<g display="inline">
		<polygon opacity="0.2" fill="#03ABFF" points="658.389,282.778 670.323,285.268 678.614,277.611 698.024,288.555 728.459,270.612 
			733.921,301.902 737.736,270.487 774.504,312.22 751.069,269.484 783.178,272.106 778.453,299.553 807.511,301.746 
			798.977,245.555 660.655,270.769 654.236,287.419 679.821,315.09 		"/>
		<polygon opacity="0.2" fill="#03ABFF" points="813.006,342.23 813.64,342.103 807.963,304.722 790.382,335.48 		"/>
		<polygon opacity="0.2" fill="#03ABFF" points="761.555,352.635 789.422,347 765.217,347 		"/>
		<polygon opacity="0.2" fill="#03ABFF" points="652,293.221 649.615,299.406 652,301.902 		"/>
		<polygon opacity="0.2" fill="#03ABFF" points="740.086,349.817 720.322,360.631 709.805,347.353 702.593,364.559 749.477,355.078 
					"/>
		<polygon opacity="0.2" fill="#03ABFF" points="642.706,317.329 640.741,322.426 663.757,329.798 		"/>
		<polygon opacity="0.2" fill="#03ABFF" points="676.479,368.084 650.378,352.221 641.016,373.381 654.037,342.877 639.682,325.174 
			617.896,381.687 701.611,364.757 684.483,352.227 		"/>
		<polygon opacity="0.2" fill="#03ABFF" points="652,285 652,293.221 654.236,287.419 		"/>
		<polygon opacity="0.2" fill="#03ABFF" points="702.299,365.261 702.593,364.559 701.611,364.757 		"/>
	</g>
</g>
<g id="Calque_6" display="none">
	<g display="inline">
		<path fill="#0548A8" d="M392.021,387.652l13.723-45.844c0,0-56.127,10.359-98.241-3.751c0,0-59.639,16.344-99.439-1.721
			l9.735,51.18L392.021,387.652z"/>
		<rect x="217" y="387" width="174" height="10"/>
		<polyline fill="#EFBB95" points="303.916,528.746 216.697,476.241 220.651,518.838 246,551.855 246,575 303.916,575 362,575 
			362,551.855 387.264,518.838 391.257,476.241 303.916,528.746 		"/>
		<polyline fill="#F9BA48" points="304,397 389.077,397 391.135,476.039 371.935,504.438 333.537,528.146 304.19,535.048 
			274.294,528.155 235.896,504.461 216.697,476.038 218.754,397 304,397 		"/>
		<polygon fill="#92BEFF" points="307,832 307,573.178 240.285,585.062 95.693,623.097 52,791.226 52,832 		"/>
		<polygon opacity="0.5" fill="#383838" points="307,578.115 307,573.178 240.285,585.062 240.995,585.264 		"/>
		<polygon fill="#78B3F9" points="246.318,573.577 276.659,559.79 307,554.556 307,574.824 240.285,585.062 		"/>
		<polygon fill="#92BEFF" points="307,832 307,573.178 373.922,585.062 518.41,623.097 562,791.226 562,832 		"/>
		<polygon opacity="0.5" fill="#383838" points="307,578.115 307,573.178 373.922,585.062 373.108,585.264 		"/>
		<polygon fill="#78B3F9" points="368.096,573.577 337.548,559.79 307,554.556 307,574.824 373.922,585.062 		"/>
		<line opacity="0.5" fill="none" stroke="#383838" stroke-width="2" stroke-miterlimit="10" x1="164" y1="728" x2="164" y2="832"/>
		<line opacity="0.5" fill="none" stroke="#383838" stroke-width="2" stroke-miterlimit="10" x1="447" y1="728" x2="447" y2="832"/>
	</g>
</g>
<g id="Calque_5" display="none">
	
		<rect x="1039.178" y="613.017" transform="matrix(0.8072 0.5903 -0.5903 0.8072 577.6868 -497.6995)" display="inline" width="23.163" height="45.001"/>
	
		<rect x="1048.572" y="620.076" transform="matrix(0.8073 0.5902 -0.5902 0.8073 574.3488 -502.5905)" display="inline" fill="#FFFFFF" width="16.214" height="16.001"/>
</g>
</svg>
