<?xml version="1.0" encoding="utf-8"?>
<!-- Generator: Adobe Illustrator 16.0.0, SVG Export Plug-In . SVG Version: 6.00 Build 0)  -->
<!DOCTYPE svg PUBLIC "-//W3C//DTD SVG 1.1//EN" "http://www.w3.org/Graphics/SVG/1.1/DTD/svg11.dtd">
<svg version="1.1" xmlns="http://www.w3.org/2000/svg" xmlns:xlink="http://www.w3.org/1999/xlink" x="0px" y="0px" width="510px"
	 height="463.664px" viewBox="0 0 510 463.664" enable-background="new 0 0 510 463.664" xml:space="preserve">
<symbol  id="Arbres_1" viewBox="-41.326 -55.933 80.273 111.745">
</symbol>
<g id="Calque_7" display="none">
	<linearGradient id="SVGID_1_" gradientUnits="userSpaceOnUse" x1="376.3042" y1="320.3628" x2="376.3042" y2="-451.4053">
		<stop  offset="0" style="stop-color:#5E3F2F"/>
		<stop  offset="1" style="stop-color:#000000"/>
	</linearGradient>
	<polygon display="inline" fill="url(#SVGID_1_)" points="-750.645,320.363 1485.22,180.89 1503.252,-451.406 -388.059,-441.169 
		-723.944,-439.495 	"/>
</g>
<g id="Calque_1" display="none">
	<g display="inline">
		
			<use xlink:href="#Arbres_1"  width="80.273" height="111.745" x="-41.326" y="-55.933" transform="matrix(7.5363 0 0 -7.5363 562.2812 -270.4111)" overflow="visible"/>
		<g>
			
				<use xlink:href="#Arbres_1"  width="80.273" height="111.745" x="-41.326" y="-55.933" transform="matrix(7.5363 0 0 -7.5363 426.6426 -288.3247)" overflow="visible"/>
			
				<use xlink:href="#Arbres_1"  width="80.273" height="111.745" x="-41.326" y="-55.933" transform="matrix(7.5363 0 0 -7.5363 1186.1309 -282.8315)" overflow="visible"/>
			
				<use xlink:href="#Arbres_1"  width="80.273" height="111.745" x="-41.326" y="-55.933" transform="matrix(7.5363 0 0 -7.5363 1277.1602 -276.4434)" overflow="visible"/>
			
				<use xlink:href="#Arbres_1"  width="80.273" height="111.745" x="-41.326" y="-55.933" transform="matrix(7.5363 0 0 -7.5363 1517.4668 -309.7837)" overflow="visible"/>
			
				<use xlink:href="#Arbres_1"  width="80.273" height="111.745" x="-41.326" y="-55.933" transform="matrix(7.5363 0 0 -7.5363 1233.583 -376.9565)" overflow="visible"/>
			
				<use xlink:href="#Arbres_1"  width="80.273" height="111.745" x="-41.326" y="-55.933" transform="matrix(7.5363 0 0 -7.5363 782.5957 -373.9556)" overflow="visible"/>
		</g>
	</g>
	<g display="inline">
		
			<use xlink:href="#Arbres_1"  width="80.273" height="111.745" x="-41.326" y="-55.933" transform="matrix(7.5363 0 0 -7.5363 201.9131 -255.1182)" overflow="visible"/>
		<g>
			
				<use xlink:href="#Arbres_1"  width="80.273" height="111.745" x="-41.326" y="-55.933" transform="matrix(7.5363 0 0 -7.5363 66.2744 -273.0312)" overflow="visible"/>
			
				<use xlink:href="#Arbres_1"  width="80.273" height="111.745" x="-41.326" y="-55.933" transform="matrix(7.5363 0 0 -7.5363 825.7627 -267.5386)" overflow="visible"/>
			
				<use xlink:href="#Arbres_1"  width="80.273" height="111.745" x="-41.326" y="-55.933" transform="matrix(7.5363 0 0 -7.5363 916.792 -261.1504)" overflow="visible"/>
			
				<use xlink:href="#Arbres_1"  width="80.273" height="111.745" x="-41.326" y="-55.933" transform="matrix(7.5363 0 0 -7.5363 1157.0986 -294.4907)" overflow="visible"/>
			
				<use xlink:href="#Arbres_1"  width="80.273" height="111.745" x="-41.326" y="-55.933" transform="matrix(7.5363 0 0 -7.5363 873.2148 -361.6636)" overflow="visible"/>
			
				<use xlink:href="#Arbres_1"  width="80.273" height="111.745" x="-41.326" y="-55.933" transform="matrix(7.5363 0 0 -7.5363 422.2275 -358.6626)" overflow="visible"/>
		</g>
	</g>
	
		<use xlink:href="#Arbres_1"  width="80.273" height="111.745" x="-41.326" y="-55.933" transform="matrix(1.6456 0 0 -1.6456 570.6455 -544.8193)" display="inline" overflow="visible"/>
	
		<use xlink:href="#Arbres_1"  width="80.273" height="111.745" x="-41.326" y="-55.933" transform="matrix(1.6456 0 0 -1.6456 624.5996 -536.6729)" display="inline" overflow="visible"/>
	
		<use xlink:href="#Arbres_1"  width="80.273" height="111.745" x="-41.326" y="-55.933" transform="matrix(6.6398 0 0 -6.6398 27.7383 -304.8389)" display="inline" overflow="visible"/>
	
		<use xlink:href="#Arbres_1"  width="80.273" height="111.745" x="-41.326" y="-55.933" transform="matrix(7.5363 0 0 -7.5363 533.2461 -212.8711)" display="inline" overflow="visible"/>
	<polygon display="inline" fill="#666666" points="-289.477,169.664 1702.117,169.664 1798.816,511.664 -100.428,511.664 	"/>
</g>
<g id="Calque_2" display="none">
	<polygon display="inline" fill="#5B5150" points="800.715,-39.5 779.646,25.999 790.18,52.724 839.328,20.731 834.607,-22.913 	"/>
	
		<rect x="806.67" y="-112.082" transform="matrix(-0.8982 -0.4396 0.4396 -0.8982 1596.2874 167.1961)" display="inline" fill="#6D5021" width="21.668" height="21.671"/>
	
		<rect x="800.495" y="-90.634" transform="matrix(0.8982 0.4396 -0.4396 0.8982 58.6497 -371.7016)" display="inline" fill="#EFBB95" width="62.841" height="62.842"/>
	
		<rect x="806.946" y="-94.659" transform="matrix(0.8982 0.4396 -0.4396 0.8982 51.0913 -370.9382)" display="inline" fill="#F9BA48" width="39.007" height="39.005"/>
	
		<line display="inline" fill="none" stroke="#000000" stroke-miterlimit="10" x1="864.901" y1="-55.134" x2="859.062" y2="-57.991"/>
	
		<rect x="849.207" y="-38.182" transform="matrix(0.8983 0.4394 -0.4394 0.8983 70.3956 -378.33)" display="inline" width="6.501" height="2.167"/>
	<polygon display="inline" fill="#B70000" points="857.104,-74.328 848.113,-63.348 850.858,-54.165 851.033,-61.921 
		857.57,-65.053 	"/>
	
		<rect x="811.337" y="-50.758" transform="matrix(0.8986 0.4389 -0.4389 0.8986 60.6883 -361.6216)" display="inline" fill="#B70000" width="2.437" height="2.439"/>
	
		<rect x="824.087" y="-41.481" transform="matrix(0.8981 0.4398 -0.4398 0.8981 66.7007 -367.2906)" display="inline" fill="#B70000" width="3.506" height="3.507"/>
	
		<rect x="838.043" y="-42.614" transform="matrix(0.8987 0.4385 -0.4385 0.8987 66.2637 -372.1261)" display="inline" fill="#B70000" width="1.354" height="0"/>
	
		<rect x="839.489" y="-32.546" transform="matrix(0.8978 0.4404 -0.4404 0.8978 71.551 -373.4554)" display="inline" fill="#B70000" width="2.056" height="0"/>
	
		<rect x="829.542" y="-28.912" transform="matrix(0.8982 0.4396 -0.4396 0.8982 72.9261 -368.3642)" display="inline" fill="#B70000" width="4.334" height="4.334"/>
	
		<rect x="862.5" y="-72.443" transform="matrix(0.8983 0.4394 -0.4394 0.8983 57.6456 -387.435)" display="inline" fill="#B70000" width="6.501" height="6.501"/>
</g>
<g id="Calque_8" display="none">
	
		<rect x="611.43" y="-38.545" transform="matrix(0.979 -0.204 0.204 0.979 16.046 129.8471)" display="inline" fill="#EFBB95" width="52.716" height="51.29"/>
	
		<rect x="624.624" y="-13.584" transform="matrix(0.979 -0.2039 0.2039 0.979 15.2288 127.7437)" display="inline" fill="#EAEAEA" width="5.699" height="7.122"/>
	
		<rect x="645.546" y="-17.946" transform="matrix(0.979 -0.2039 0.2039 0.979 16.5577 131.9185)" display="inline" fill="#EAEAEA" width="5.699" height="7.123"/>
	
		<rect x="626.415" y="-11.122" transform="matrix(0.9787 -0.2052 0.2052 0.9787 15.4405 128.4561)" display="inline" width="1.514" height="1.783"/>
	
		<rect x="647.337" y="-15.482" transform="matrix(0.9787 -0.2053 0.2053 0.9787 16.7997 132.7393)" display="inline" width="1.513" height="1.783"/>
	
		<rect x="622.617" y="-14.95" transform="matrix(0.8491 -0.5283 0.5283 0.8491 101.3746 329.2233)" display="inline" fill="#EFBB95" width="8.55" height="4.274"/>
	
		<rect x="644.933" y="-19.602" transform="matrix(-0.9894 -0.1452 0.1452 -0.9894 1294.0735 59.5073)" display="inline" fill="#EFBB95" width="8.55" height="4.275"/>
	<polygon display="inline" points="631.107,7.411 631.297,7.124 633.315,4.041 648.658,0.841 652.522,2.947 	"/>
	<path display="inline" fill="#FFDA6A" d="M606.753-32.628l3.197,15.341l51.606-10.755l-3.197-15.343L606.753-32.628z"/>
	<polygon display="inline" fill="#4F4F4F" points="629.771,14.965 619.662,54.913 672.441,56.767 659.525,8.764 	"/>
</g>
<g id="Calque_3" display="none">
	<path display="inline" fill="#A8A8A8" d="M1194.806-66.42l-193.944-0.173l-79.623-82.15L605.993-97.498L531.569,16.973
		l-200.13,64.368l29.551,176.348l100.37-16.318l34.882-55.488l148.63-24.158l29.022,45.098l258.051-41.944l20.644-55.149
		l133.194-21.646l55.744,42.729l83.477-13.569L1194.806-66.42z M565.896,45.35l42.759-110.918l138.321-25.214l0.382,1.33
		L761.64,5.766L565.896,45.35z M781.097-0.973l-14.943-95.138l151.176-28.941l69.442,91.236L781.097-0.973z"/>
	
		<rect x="969.317" y="114.097" transform="matrix(0.9852 -0.1713 0.1713 0.9852 -16.4099 181.0181)" display="inline" fill="#020202" width="143.022" height="143.022"/>
	
		<rect x="516.805" y="186.781" transform="matrix(0.9852 -0.1713 0.1713 0.9852 -35.5452 104.5795)" display="inline" fill="#020202" width="143.024" height="143.021"/>
	<rect x="1111" y="-122.336" display="inline" fill="#3D3D3D" width="33" height="33"/>
	<rect x="1057" y="-160.336" display="inline" fill="#3D3D3D" width="39" height="38"/>
	<rect x="1101" y="-238.336" display="inline" fill="#3D3D3D" width="71" height="71"/>
	<polygon display="inline" fill="none" stroke="#666666" stroke-miterlimit="10" points="755.38,-101.716 802.723,175.587 
		919.683,155.522 953.946,91.45 1016.033,79.71 990.595,-52.491 917.329,-134.046 	"/>
	<polygon display="inline" fill="none" stroke="#666666" stroke-miterlimit="10" points="755.38,-101.716 802.723,175.587 
		685.623,193.621 634.332,143.765 569.762,155.48 546.203,20.288 607.864,-77.304 	"/>
	<line display="inline" fill="none" stroke="#000000" stroke-miterlimit="10" x1="575.331" y1="70.534" x2="619.325" y2="61.273"/>
	<line display="inline" fill="none" stroke="#000000" stroke-miterlimit="10" x1="791.566" y1="22.962" x2="836.213" y2="17.659"/>
	<path display="inline" opacity="0.2" fill="#03ABFF" d="M917.329-125.052L766.153-96.111l0.046,0.294l14.897,94.844l205.675-32.843
		L917.329-125.052z M870.098-19.95l-12.527-9.569l-14.493,10.813l-7.713-13.278l-5.505,17.908L816.795-27.11l-5.87,15.857
		l-19.142-15.863l-6.865,21.16l9.549-30.503l-13.008-21.875l20.136,8.795l-25.197-20.353l8.396-5.265l-3.584-19.091L793-77.435
		v-16.902l20.39,30.09l-15.725-32.312l8.749,2.49l6.078-7.657l14.233,10.943l22.319-17.942l4.005,31.29l2.798-31.415l26.963,41.733
		l-17.186-42.736l23.547,2.623l-3.465,27.446l22.822,2.349l-14.074,33.578l28.312,11.52H876L870.098-19.95z"/>
	<g display="inline">
		<polygon opacity="0.2" fill="#03ABFF" points="606.389,-53.559 618.323,-51.068 626.614,-58.725 646.024,-47.782 676.459,-65.724 
			681.921,-34.435 685.736,-65.85 722.504,-24.116 699.069,-66.853 731.178,-64.23 726.453,-36.784 755.511,-34.59 746.977,-90.782 
			608.655,-65.568 602.236,-48.917 627.821,-21.246 		"/>
		<polygon opacity="0.2" fill="#03ABFF" points="761.006,5.894 761.64,5.766 755.963,-31.615 738.382,-0.856 		"/>
		<polygon opacity="0.2" fill="#03ABFF" points="709.555,16.299 737.422,10.664 713.217,10.664 		"/>
		<polygon opacity="0.2" fill="#03ABFF" points="600,-43.116 597.615,-36.931 600,-34.435 		"/>
		<polygon opacity="0.2" fill="#03ABFF" points="688.086,13.481 668.322,24.294 657.805,11.017 650.593,28.222 697.477,18.742 		"/>
		<polygon opacity="0.2" fill="#03ABFF" points="590.706,-19.007 588.741,-13.911 611.757,-6.538 		"/>
		<polygon opacity="0.2" fill="#03ABFF" points="624.479,31.748 598.378,15.884 589.016,37.044 602.037,6.541 587.682,-11.162 
			565.896,45.35 649.611,28.421 632.483,15.89 		"/>
		<polygon opacity="0.2" fill="#03ABFF" points="600,-51.336 600,-43.116 602.236,-48.917 		"/>
		<polygon opacity="0.2" fill="#03ABFF" points="650.299,28.924 650.593,28.222 649.611,28.421 		"/>
	</g>
</g>
<g id="Calque_6">
	<g>
		<path fill="#0548A8" d="M340.021,51.316l13.723-45.844c0,0-56.127,10.359-98.241-3.751c0,0-59.639,16.344-99.439-1.721
			l9.735,51.18L340.021,51.316z"/>
		<rect x="165" y="50.664" width="174" height="10"/>
		<polyline fill="#EFBB95" points="251.916,192.41 164.697,139.905 168.651,182.501 194,215.519 194,238.664 251.916,238.664 
			310,238.664 310,215.519 335.264,182.501 339.257,139.905 251.916,192.41 		"/>
		<polyline fill="#F9BA48" points="252,60.664 337.077,60.664 339.135,139.703 319.935,168.102 281.537,191.81 252.19,198.711 
			222.294,191.819 183.896,168.125 164.697,139.702 166.754,60.664 252,60.664 		"/>
		<polygon fill="#92BEFF" points="255,495.664 255,236.841 188.285,248.726 43.693,286.76 0,454.889 0,495.664 		"/>
		<polygon opacity="0.5" fill="#383838" points="255,241.779 255,236.841 188.285,248.726 188.995,248.927 		"/>
		<polygon fill="#78B3F9" points="194.318,237.241 224.659,223.454 255,218.219 255,238.488 188.285,248.726 		"/>
		<polygon fill="#92BEFF" points="255,495.664 255,236.841 321.922,248.726 466.41,286.76 510,454.889 510,495.664 		"/>
		<polygon opacity="0.5" fill="#383838" points="255,241.779 255,236.841 321.922,248.726 321.108,248.927 		"/>
		<polygon fill="#78B3F9" points="316.096,237.241 285.548,223.454 255,218.219 255,238.488 321.922,248.726 		"/>
		
			<line opacity="0.5" fill="none" stroke="#383838" stroke-width="2" stroke-miterlimit="10" x1="112" y1="391.664" x2="112" y2="495.664"/>
		
			<line opacity="0.5" fill="none" stroke="#383838" stroke-width="2" stroke-miterlimit="10" x1="395" y1="391.664" x2="395" y2="495.664"/>
	</g>
</g>
<g id="Calque_5" display="none">
	
		<rect x="987.178" y="276.681" transform="matrix(0.8072 0.5903 -0.5903 0.8072 369.1377 -531.8462)" display="inline" width="23.163" height="45.001"/>
	
		<rect x="996.572" y="283.74" transform="matrix(0.8073 0.5902 -0.5902 0.8073 365.8229 -536.7252)" display="inline" fill="#FFFFFF" width="16.214" height="16.001"/>
</g>
</svg>
