<?xml version="1.0" encoding="utf-8"?>
<!-- Generator: Adobe Illustrator 16.0.0, SVG Export Plug-In . SVG Version: 6.00 Build 0)  -->
<!DOCTYPE svg PUBLIC "-//W3C//DTD SVG 1.1//EN" "http://www.w3.org/Graphics/SVG/1.1/DTD/svg11.dtd">
<svg version="1.1" xmlns="http://www.w3.org/2000/svg" xmlns:xlink="http://www.w3.org/1999/xlink" x="0px" y="0px"
	 width="896.561px" height="489.737px" viewBox="0 0 896.561 489.737" enable-background="new 0 0 896.561 489.737"
	 xml:space="preserve">
<symbol  id="Arbres_1" viewBox="-41.326 -55.933 80.273 111.745">
</symbol>
<g id="Calque_7" display="none">
	<linearGradient id="SVGID_1_" gradientUnits="userSpaceOnUse" x1="44.8647" y1="469.1064" x2="44.8647" y2="-302.6616">
		<stop  offset="0" style="stop-color:#5E3F2F"/>
		<stop  offset="1" style="stop-color:#000000"/>
	</linearGradient>
	<polygon display="inline" fill="url(#SVGID_1_)" points="-1082.084,469.106 1153.78,329.634 1171.812,-302.662 -719.498,-292.425 
		-1055.383,-290.751 	"/>
</g>
<g id="Calque_1" display="none">
	<g display="inline">
		
			<use xlink:href="#Arbres_1"  width="80.273" height="111.745" x="-41.326" y="-55.933" transform="matrix(7.5363 0 0 -7.5363 230.8418 -121.6675)" overflow="visible"/>
		<g>
			
				<use xlink:href="#Arbres_1"  width="80.273" height="111.745" x="-41.326" y="-55.933" transform="matrix(7.5363 0 0 -7.5363 95.2031 -139.5811)" overflow="visible"/>
			
				<use xlink:href="#Arbres_1"  width="80.273" height="111.745" x="-41.326" y="-55.933" transform="matrix(7.5363 0 0 -7.5363 854.6914 -134.0879)" overflow="visible"/>
			
				<use xlink:href="#Arbres_1"  width="80.273" height="111.745" x="-41.326" y="-55.933" transform="matrix(7.5363 0 0 -7.5363 945.7207 -127.6997)" overflow="visible"/>
			
				<use xlink:href="#Arbres_1"  width="80.273" height="111.745" x="-41.326" y="-55.933" transform="matrix(7.5363 0 0 -7.5363 1186.0273 -161.04)" overflow="visible"/>
			
				<use xlink:href="#Arbres_1"  width="80.273" height="111.745" x="-41.326" y="-55.933" transform="matrix(7.5363 0 0 -7.5363 902.1436 -228.2129)" overflow="visible"/>
			
				<use xlink:href="#Arbres_1"  width="80.273" height="111.745" x="-41.326" y="-55.933" transform="matrix(7.5363 0 0 -7.5363 451.1562 -225.2119)" overflow="visible"/>
		</g>
	</g>
	<g display="inline">
		
			<use xlink:href="#Arbres_1"  width="80.273" height="111.745" x="-41.326" y="-55.933" transform="matrix(7.5363 0 0 -7.5363 -129.5264 -106.3745)" overflow="visible"/>
		<g>
			
				<use xlink:href="#Arbres_1"  width="80.273" height="111.745" x="-41.326" y="-55.933" transform="matrix(7.5363 0 0 -7.5363 -265.165 -124.2876)" overflow="visible"/>
			
				<use xlink:href="#Arbres_1"  width="80.273" height="111.745" x="-41.326" y="-55.933" transform="matrix(7.5363 0 0 -7.5363 494.3232 -118.7949)" overflow="visible"/>
			
				<use xlink:href="#Arbres_1"  width="80.273" height="111.745" x="-41.326" y="-55.933" transform="matrix(7.5363 0 0 -7.5363 585.3525 -112.4067)" overflow="visible"/>
			
				<use xlink:href="#Arbres_1"  width="80.273" height="111.745" x="-41.326" y="-55.933" transform="matrix(7.5363 0 0 -7.5363 825.6592 -145.7471)" overflow="visible"/>
			
				<use xlink:href="#Arbres_1"  width="80.273" height="111.745" x="-41.326" y="-55.933" transform="matrix(7.5363 0 0 -7.5363 541.7754 -212.9199)" overflow="visible"/>
			
				<use xlink:href="#Arbres_1"  width="80.273" height="111.745" x="-41.326" y="-55.933" transform="matrix(7.5363 0 0 -7.5363 90.7881 -209.9189)" overflow="visible"/>
		</g>
	</g>
	
		<use xlink:href="#Arbres_1"  width="80.273" height="111.745" x="-41.326" y="-55.933" transform="matrix(1.6456 0 0 -1.6456 239.2061 -396.0757)" display="inline" overflow="visible"/>
	
		<use xlink:href="#Arbres_1"  width="80.273" height="111.745" x="-41.326" y="-55.933" transform="matrix(1.6456 0 0 -1.6456 293.1602 -387.9292)" display="inline" overflow="visible"/>
	
		<use xlink:href="#Arbres_1"  width="80.273" height="111.745" x="-41.326" y="-55.933" transform="matrix(6.6398 0 0 -6.6398 -303.7012 -156.0952)" display="inline" overflow="visible"/>
	
		<use xlink:href="#Arbres_1"  width="80.273" height="111.745" x="-41.326" y="-55.933" transform="matrix(7.5363 0 0 -7.5363 201.8066 -64.1274)" display="inline" overflow="visible"/>
	<polygon display="inline" fill="#666666" points="-620.917,318.407 1370.678,318.407 1467.377,660.407 -431.868,660.407 	"/>
</g>
<g id="Calque_2" display="none">
	<polygon display="inline" fill="#5B5150" points="469.275,109.244 448.206,174.742 458.74,201.468 507.889,169.475 
		503.168,125.831 	"/>
	
		<rect x="475.231" y="36.662" transform="matrix(-0.8982 -0.4396 0.4396 -0.8982 901.7634 303.8364)" display="inline" fill="#6D5021" width="21.668" height="21.671"/>
	
		<rect x="469.055" y="58.11" transform="matrix(0.8982 0.4396 -0.4396 0.8982 90.2954 -210.8749)" display="inline" fill="#EFBB95" width="62.841" height="62.842"/>
	
		<rect x="475.506" y="54.085" transform="matrix(0.8982 0.4396 -0.4396 0.8982 82.7367 -210.1039)" display="inline" fill="#F9BA48" width="39.007" height="39.005"/>
	<line display="inline" fill="none" stroke="#000000" stroke-miterlimit="10" x1="533.462" y1="93.609" x2="527.622" y2="90.753"/>
	
		<rect x="517.767" y="110.562" transform="matrix(0.8983 0.4394 -0.4394 0.8983 102.0435 -217.5729)" display="inline" width="6.501" height="2.167"/>
	<polygon display="inline" fill="#B70000" points="525.664,74.416 516.674,85.396 519.419,94.579 519.594,86.822 526.131,83.69 	"/>
	
		<rect x="479.897" y="97.986" transform="matrix(0.8986 0.4389 -0.4389 0.8986 92.3432 -201.0777)" display="inline" fill="#B70000" width="2.437" height="2.439"/>
	
		<rect x="492.648" y="107.263" transform="matrix(0.8981 0.4398 -0.4398 0.8981 98.3424 -206.3479)" display="inline" fill="#B70000" width="3.506" height="3.507"/>
	
		<rect x="506.603" y="106.13" transform="matrix(0.8987 0.4385 -0.4385 0.8987 97.9228 -211.7117)" display="inline" fill="#B70000" width="1.354" height="0"/>
	
		<rect x="508.049" y="116.198" transform="matrix(0.8978 0.4404 -0.4404 0.8978 103.1857 -212.3043)" display="inline" fill="#B70000" width="2.056" height="0"/>
	
		<rect x="498.102" y="119.832" transform="matrix(0.8982 0.4396 -0.4396 0.8982 104.5708 -207.5096)" display="inline" fill="#B70000" width="4.334" height="4.334"/>
	
		<rect x="531.061" y="76.3" transform="matrix(0.8983 0.4394 -0.4394 0.8983 89.2935 -226.678)" display="inline" fill="#B70000" width="6.501" height="6.501"/>
</g>
<g id="Calque_8" display="none">
	
		<rect x="279.991" y="110.198" transform="matrix(0.979 -0.204 0.204 0.979 -21.2708 65.3569)" display="inline" fill="#EFBB95" width="52.716" height="51.29"/>
	
		<rect x="293.184" y="135.159" transform="matrix(0.979 -0.2039 0.2039 0.979 -22.0674 63.282)" display="inline" fill="#EAEAEA" width="5.699" height="7.122"/>
	
		<rect x="314.106" y="130.797" transform="matrix(0.979 -0.2039 0.2039 0.979 -20.7385 67.4568)" display="inline" fill="#EAEAEA" width="5.699" height="7.123"/>
	
		<rect x="294.976" y="137.622" transform="matrix(0.9787 -0.2052 0.2052 0.9787 -22.1271 63.6205)" display="inline" width="1.514" height="1.783"/>
	
		<rect x="315.897" y="133.261" transform="matrix(0.9787 -0.2053 0.2053 0.9787 -20.7962 67.8648)" display="inline" width="1.513" height="1.783"/>
	
		<rect x="291.177" y="133.793" transform="matrix(0.8491 -0.5283 0.5283 0.8491 -27.218 176.5869)" display="inline" fill="#EFBB95" width="8.55" height="4.274"/>
	
		<rect x="313.494" y="129.142" transform="matrix(-0.9894 -0.1452 0.1452 -0.9894 613.1116 307.3009)" display="inline" fill="#EFBB95" width="8.55" height="4.275"/>
	<polygon display="inline" points="299.668,156.154 299.857,155.867 301.876,152.784 317.219,149.585 321.083,151.69 	"/>
	<path display="inline" fill="#FFDA6A" d="M275.313,116.115l3.197,15.341l51.606-10.755l-3.197-15.343L275.313,116.115z"/>
	<polygon display="inline" fill="#4F4F4F" points="298.331,163.709 288.223,203.656 341.002,205.511 328.086,157.508 	"/>
</g>
<g id="Calque_3">
	<path fill="#A8A8A8" d="M863.366,82.323L669.422,82.15L589.799,0L274.554,51.246L200.13,165.717L0,230.085l29.551,176.348
		l100.37-16.318l34.882-55.488l148.63-24.158l29.022,45.098l258.051-41.944l20.644-55.149l133.194-21.646l55.744,42.729
		l83.477-13.569L863.366,82.323z M234.457,194.094l42.759-110.918l138.321-25.214l0.382,1.33L430.2,154.51L234.457,194.094z
		 M449.657,147.771l-14.943-95.138L585.89,23.691l69.442,91.236L449.657,147.771z"/>
	
		<rect x="637.878" y="262.84" transform="matrix(0.9852 -0.1713 0.1713 0.9852 -46.785 126.4466)" fill="#020202" width="143.022" height="143.022"/>
	
		<rect x="185.366" y="335.525" transform="matrix(0.9852 -0.1713 0.1713 0.9852 -65.9185 50.0107)" fill="#020202" width="143.024" height="143.021"/>
	<rect x="779.561" y="26.407" display="none" fill="#3D3D3D" width="33" height="33"/>
	<rect x="725.561" y="-11.593" display="none" fill="#3D3D3D" width="39" height="38"/>
	<rect x="769.561" y="-89.593" display="none" fill="#3D3D3D" width="71" height="71"/>
	<polygon fill="none" stroke="#666666" stroke-miterlimit="10" points="423.94,47.027 471.283,324.331 588.243,304.266 
		622.507,240.193 684.594,228.454 659.155,96.253 585.89,14.697 	"/>
	<polygon fill="none" stroke="#666666" stroke-miterlimit="10" points="423.94,47.027 471.283,324.331 354.184,342.364 
		302.893,292.509 238.322,304.224 214.764,169.031 276.425,71.439 	"/>
	<line fill="none" stroke="#000000" stroke-miterlimit="10" x1="243.892" y1="219.277" x2="287.886" y2="210.017"/>
	<line fill="none" stroke="#000000" stroke-miterlimit="10" x1="460.127" y1="171.706" x2="504.773" y2="166.402"/>
	<path opacity="0.2" fill="#03ABFF" d="M585.89,23.691L434.714,52.633l0.046,0.294l14.897,94.844l205.675-32.843L585.89,23.691z
		 M538.658,128.794l-12.527-9.569l-14.493,10.813l-7.713-13.278l-5.505,17.908l-13.064-13.034l-5.87,15.857l-19.142-15.863
		l-6.865,21.16l9.549-30.503L450.02,90.41l20.136,8.795l-25.197-20.353l8.396-5.265l-3.584-19.091l11.791,16.813V54.407l20.39,30.09
		l-15.725-32.312l8.749,2.49l6.078-7.657l14.233,10.943l22.319-17.942l4.005,31.29l2.798-31.415l26.963,41.733l-17.186-42.736
		l23.547,2.623l-3.465,27.446l22.822,2.349l-14.074,33.578l28.312,11.52h-46.768L538.658,128.794z"/>
	<g>
		<polygon opacity="0.2" fill="#03ABFF" points="274.949,95.185 286.884,97.675 295.175,90.019 314.585,100.962 345.02,83.02 
			350.481,114.309 354.297,82.894 391.064,124.627 367.63,81.891 399.738,84.514 395.014,111.96 424.071,114.153 415.537,57.962 
			277.216,83.176 270.797,99.826 296.382,127.498 		"/>
		<polygon opacity="0.2" fill="#03ABFF" points="429.566,154.638 430.2,154.51 424.523,117.129 406.942,147.887 		"/>
		<polygon opacity="0.2" fill="#03ABFF" points="378.115,165.042 405.982,159.407 381.777,159.407 		"/>
		<polygon opacity="0.2" fill="#03ABFF" points="268.561,105.628 266.176,111.813 268.561,114.309 		"/>
		<polygon opacity="0.2" fill="#03ABFF" points="356.646,162.225 336.883,173.038 326.365,159.76 319.153,176.966 366.037,167.485 
					"/>
		<polygon opacity="0.2" fill="#03ABFF" points="259.267,129.736 257.302,134.833 280.317,142.206 		"/>
		<polygon opacity="0.2" fill="#03ABFF" points="293.04,180.491 266.938,164.628 257.576,185.788 270.598,155.285 256.242,137.582 
			234.457,194.094 318.172,177.165 301.044,164.634 		"/>
		<polygon opacity="0.2" fill="#03ABFF" points="268.561,97.407 268.561,105.628 270.797,99.826 		"/>
		<polygon opacity="0.2" fill="#03ABFF" points="318.859,177.668 319.153,176.966 318.172,177.165 		"/>
	</g>
</g>
<g id="Calque_6" display="none">
	<g display="inline">
		<path fill="#0548A8" d="M8.582,200.06l13.723-45.844c0,0-56.127,10.359-98.241-3.751c0,0-59.639,16.344-99.439-1.721l9.735,51.18
			L8.582,200.06z"/>
		<rect x="-166.439" y="199.407" width="174" height="10"/>
		<polyline fill="#EFBB95" points="-79.523,341.153 -166.742,288.648 -162.788,331.245 -137.439,364.263 -137.439,387.407 
			-79.523,387.407 -21.439,387.407 -21.439,364.263 3.824,331.245 7.817,288.648 -79.523,341.153 		"/>
		<polyline fill="#F9BA48" points="-79.439,209.407 5.638,209.407 7.695,288.446 -11.505,316.846 -49.902,340.554 -79.249,347.455 
			-109.146,340.562 -147.543,316.868 -166.742,288.445 -164.686,209.407 -79.439,209.407 		"/>
		<polygon fill="#92BEFF" points="-76.439,644.407 -76.439,385.585 -143.154,397.47 -287.746,435.504 -331.439,603.633 
			-331.439,644.407 		"/>
		<polygon opacity="0.5" fill="#383838" points="-76.439,390.522 -76.439,385.585 -143.154,397.47 -142.444,397.671 		"/>
		<polygon fill="#78B3F9" points="-137.121,385.984 -106.78,372.197 -76.439,366.963 -76.439,387.231 -143.154,397.47 		"/>
		<polygon fill="#92BEFF" points="-76.439,644.407 -76.439,385.585 -9.518,397.47 134.971,435.504 178.561,603.633 178.561,644.407 
					"/>
		<polygon opacity="0.5" fill="#383838" points="-76.439,390.522 -76.439,385.585 -9.518,397.47 -10.331,397.671 		"/>
		<polygon fill="#78B3F9" points="-15.344,385.984 -45.892,372.197 -76.439,366.963 -76.439,387.231 -9.518,397.47 		"/>
		
			<line opacity="0.5" fill="none" stroke="#383838" stroke-width="2" stroke-miterlimit="10" x1="-219.439" y1="540.407" x2="-219.439" y2="644.407"/>
		
			<line opacity="0.5" fill="none" stroke="#383838" stroke-width="2" stroke-miterlimit="10" x1="63.561" y1="540.407" x2="63.561" y2="644.407"/>
	</g>
</g>
<g id="Calque_5" display="none">
	
		<rect x="655.739" y="425.424" transform="matrix(0.8072 0.5903 -0.5903 0.8072 393.0384 -307.5369)" display="inline" width="23.163" height="45.001"/>
	
		<rect x="665.132" y="432.484" transform="matrix(0.8073 0.5902 -0.5902 0.8073 389.7294 -312.4433)" display="inline" fill="#FFFFFF" width="16.214" height="16.001"/>
</g>
</svg>
