<?xml version="1.0" encoding="utf-8"?>
<!-- Generator: Adobe Illustrator 16.0.0, SVG Export Plug-In . SVG Version: 6.00 Build 0)  -->
<!DOCTYPE svg PUBLIC "-//W3C//DTD SVG 1.1//EN" "http://www.w3.org/Graphics/SVG/1.1/DTD/svg11.dtd">
<svg version="1.1" id="Calque_1" xmlns="http://www.w3.org/2000/svg" xmlns:xlink="http://www.w3.org/1999/xlink" x="0px" y="0px"
	 width="1024px" height="768px" viewBox="0 0 1024 768" enable-background="new 0 0 1024 768" xml:space="preserve">
<g>
	<polygon fill="#FFFFFF" points="805.188,491.97 736.168,276.03 722.793,276.03 716.619,276.03 703.547,276.03 637.326,482.335 
		571.385,276.03 558.01,276.03 551.836,276.03 538.764,276.03 472.543,482.335 406.602,276.03 387.053,276.03 456.37,491.97 
		469.441,491.97 475.614,491.97 488.989,491.97 554.932,285.666 621.152,491.97 634.225,491.97 640.404,491.97 653.771,491.97 
		719.723,285.666 785.936,491.97 	"/>
	<path fill="#FFFFFF" d="M347.176,472.11c-12.729,12.732-31.512,19.691-53.939,19.691h-72.426V276.03h72.426
		c22.427,0,41.209,6.96,53.939,19.691c21.82,21.815,20.928,56.064,20.928,85.161C368.104,409.974,368.993,450.274,347.176,472.11z
		 M334.862,308.762c-12.187-12.481-28.513-16.35-45.445-16.35h-51.116v183.009h51.116c16.932,0,33.258-3.869,45.445-16.35
		c16.932-17.221,15.72-54.67,15.72-78.129C350.582,357.479,351.793,325.982,334.862,308.762z"/>
</g>
</svg>
