<?xml version="1.0" encoding="utf-8"?>
<!-- Generator: Adobe Illustrator 16.0.0, SVG Export Plug-In . SVG Version: 6.00 Build 0)  -->
<!DOCTYPE svg PUBLIC "-//W3C//DTD SVG 1.1//EN" "http://www.w3.org/Graphics/SVG/1.1/DTD/svg11.dtd">
<svg version="1.1" id="Calque_1" xmlns="http://www.w3.org/2000/svg" xmlns:xlink="http://www.w3.org/1999/xlink" x="0px" y="0px"
	 width="362.181px" height="547.275px" viewBox="0 0 362.181 547.275" enable-background="new 0 0 362.181 547.275"
	 xml:space="preserve">
<path fill="#4D4D4D" d="M159.964,264.421v262.347h0.009c0.146,8.751,5.68,16.186,13.427,19.14V264.421H159.964z"/>
<path fill="#333333" d="M362.181,150.795c0-16.458-9.692-30.647-23.677-37.189c0-0.037,0.002-0.074,0.002-0.111
	c0-18.663-13.676-34.129-31.552-36.93c0.002-0.152,0.012-0.303,0.012-0.456c0-21.803-17.675-39.479-39.479-39.479
	c-8.531,0-16.422,2.715-22.878,7.315C236.644,18.48,212.87,0,184.778,0c-23.306,0-43.64,12.722-54.44,31.599
	c-5.667-1.495-11.617-2.294-17.754-2.294c-38.351,0-69.442,31.09-69.442,69.442c0,11.028,2.575,21.454,7.151,30.715
	C22.394,130.203,0,153.037,0,181.116c0,28.547,23.142,51.688,51.688,51.688c4.556,0,8.972-0.595,13.18-1.702
	c-0.12,1.516-0.198,3.043-0.198,4.59c0,31.855,25.825,57.68,57.68,57.68c12.897,0,24.804-4.235,34.41-11.388
	c3.504,8.574,9.306,15.965,16.639,21.407v242.516c2.307,0.88,4.808,1.367,7.425,1.367c11.402,0,20.663-9.15,20.852-20.507h0.009
	V313.236c0.544,0.018,1.088,0.031,1.636,0.031c25.138,0,45.964-18.444,49.692-42.538c1.409,0.161,2.838,0.251,4.29,0.251
	c12.499,0,23.564-6.115,30.388-15.511c5.936,2.689,12.519,4.199,19.458,4.199c26.074,0,47.212-21.138,47.212-47.211
	c0-10.599-3.493-20.381-9.389-28.26C355.387,176.753,362.181,164.571,362.181,150.795z"/>
</svg>
