<?xml version="1.0" encoding="utf-8"?>
<!-- Generator: Adobe Illustrator 16.0.0, SVG Export Plug-In . SVG Version: 6.00 Build 0)  -->
<!DOCTYPE svg PUBLIC "-//W3C//DTD SVG 1.1//EN" "http://www.w3.org/Graphics/SVG/1.1/DTD/svg11.dtd">
<svg version="1.1" xmlns="http://www.w3.org/2000/svg" xmlns:xlink="http://www.w3.org/1999/xlink" x="0px" y="0px"
	 width="227.449px" height="367.226px" viewBox="0 0 227.449 367.226" enable-background="new 0 0 227.449 367.226"
	 xml:space="preserve">
<g id="Calque_1">
	<path fill="#999999" d="M177.149,172.599h24.963c0,0,7.195-83.53-54.695-105h20.438c0,0-2.188-67.599-53.353-67.599
		C63.337,0,59,67.599,59,67.599h24.025c-62.573,21.47-58.034,105-58.034,105h29.155C4.038,211.653,0,293.599,0,293.599h94v58h0.02
		c0.199,8.663,7.27,15.627,15.98,15.627s15.781-6.964,15.98-15.627H126v-58h101.449
		C227.449,293.599,226.016,211.653,177.149,172.599z"/>
</g>
<g id="Calque_2">
</g>
</svg>
