<?xml version="1.0" encoding="utf-8"?>
<!-- Generator: Adobe Illustrator 16.0.0, SVG Export Plug-In . SVG Version: 6.00 Build 0)  -->
<!DOCTYPE svg PUBLIC "-//W3C//DTD SVG 1.1//EN" "http://www.w3.org/Graphics/SVG/1.1/DTD/svg11.dtd">
<svg version="1.1" xmlns="http://www.w3.org/2000/svg" xmlns:xlink="http://www.w3.org/1999/xlink" x="0px" y="0px"
	 width="462.621px" height="443.057px" viewBox="0 0 462.621 443.057" enable-background="new 0 0 462.621 443.057"
	 xml:space="preserve">
<g id="Calque_1">
</g>
<g id="Calque_2">
	<path fill="#666666" d="M357.81,27.999c-18.911,0-36.651,5.011-51.97,13.774C300.848,17.742,283.397,0,262.634,0
		c-12.914,0-24.54,6.871-32.692,17.841C209.042,6.496,184.784,0,158.908,0C80.4,0,16.757,59.767,16.757,133.493
		c0,31.488,11.616,60.425,31.035,83.252C18.665,240.022,0,275.843,0,316.027c0,70.156,56.873,127.029,127.029,127.029
		c70.156,0,127.029-56.873,127.029-127.029c0-8.794-0.895-17.379-2.596-25.67c32.041-2.858,57.162-29.762,57.162-62.547
		c0-0.827-0.03-1.646-0.062-2.467c14.683,7.831,31.445,12.275,49.248,12.275c57.886,0,104.811-46.926,104.811-104.811
		S415.696,27.999,357.81,27.999z"/>
</g>
</svg>
