<?xml version="1.0" encoding="utf-8"?>
<!-- Generator: Adobe Illustrator 15.0.0, SVG Export Plug-In . SVG Version: 6.00 Build 0)  -->
<!DOCTYPE svg PUBLIC "-//W3C//DTD SVG 1.1//EN" "http://www.w3.org/Graphics/SVG/1.1/DTD/svg11.dtd">
<svg version="1.1" id="Calque_1" xmlns="http://www.w3.org/2000/svg" xmlns:xlink="http://www.w3.org/1999/xlink" x="0px" y="0px"
	 width="914.683px" height="604.976px" viewBox="0 0 914.683 604.976" enable-background="new 0 0 914.683 604.976"
	 xml:space="preserve">
<ellipse fill="#A9DDF3" cx="457.341" cy="456.072" rx="457.34" ry="456.073"/>
<rect x="-203.223" y="668.976" fill="#E6E6E6" width="1279" height="25"/>
<path fill="#4D4D4D" d="M882.601,286.976h-35.822v318h43.189c16.014-47,24.715-97.166,24.715-149.066
	C914.683,396.535,903.302,338.976,882.601,286.976z"/>
<polygon fill="#9D8F80" points="862.71,208.976 111.97,208.976 161.14,68.976 812.412,68.976 "/>
<polygon fill="#BCC5CC" points="694.777,208.976 694.777,137.976 285.777,137.976 285.777,208.976 111.777,208.976 111.777,604.976 
	862.777,604.976 862.777,208.976 "/>
<rect x="474.777" y="336.976" fill="#FFFFFF" width="388" height="268"/>
<path fill="#4D4D4D" d="M862.71,337.16l-8.289,9.473c0,0-73.416,162.725-70.26,169.828c3.156,7.105,70.26,88.516,70.26,88.516
	h35.523l-4.738-191.932L862.71,337.16z"/>
<rect x="483.777" y="346.976" fill="#D4EEF9" width="371" height="200"/>
<rect x="163.777" y="369.976" fill="#FFFFFF" width="173" height="235"/>
<rect x="176.777" y="378.976" fill="#D4EEF9" width="146" height="226"/>
<rect x="243.777" y="369.976" fill="#FFFFFF" width="7" height="235"/>
<rect x="465.777" y="546.976" fill="#BCC5CC" width="397" height="58"/>
<rect x="489.777" y="378.976" opacity="0.3" fill="#F2F2F2" enable-background="new    " width="365" height="57"/>
<rect x="488.777" y="470.976" opacity="0.3" fill="#F2F2F2" enable-background="new    " width="366" height="64"/>
<path fill="#4D4D4D" d="M32.081,286.976c-14.263,37-24.101,75-28.84,115h52.537v203h56v-318H32.081z"/>
<path fill="#666666" d="M3.24,401.976c-2.139,17-3.24,36.189-3.24,54.648c0,51.9,8.701,101.352,24.714,148.352h31.063v-203H3.24z"/>
<rect x="234.777" y="487.976" fill="#666666" width="5" height="47"/>
<rect x="256.777" y="487.976" fill="#666666" width="5" height="47"/>
</svg>
