<?xml version="1.0" encoding="utf-8"?>
<!-- Generator: Adobe Illustrator 16.0.0, SVG Export Plug-In . SVG Version: 6.00 Build 0)  -->
<!DOCTYPE svg PUBLIC "-//W3C//DTD SVG 1.1//EN" "http://www.w3.org/Graphics/SVG/1.1/DTD/svg11.dtd">
<svg version="1.1" id="Calque_1" xmlns="http://www.w3.org/2000/svg" xmlns:xlink="http://www.w3.org/1999/xlink" x="0px" y="0px"
	 width="111.302px" height="241.384px" viewBox="0 0 111.302 241.384" enable-background="new 0 0 111.302 241.384"
	 xml:space="preserve">
<ellipse opacity="0.1" fill="#1A1A1A" cx="61.151" cy="233.55" rx="50.151" ry="7.834"/>
<ellipse fill="#CCCCCC" cx="84.056" cy="52.014" rx="5.004" ry="8.352"/>
<ellipse fill="#CCCCCC" cx="16.397" cy="52.014" rx="5.004" ry="8.352"/>
<circle fill="#BFA450" cx="30.329" cy="27.704" r="18.94"/>
<g>
	<rect x="18.302" y="31.717" fill="#E9E0D6" width="66" height="42"/>
	<ellipse fill="#E9E0D6" cx="50.678" cy="69.019" rx="32.741" ry="10.265"/>
	<path fill="#E9E0D6" d="M61.337,23.444c-6.47-8.321-31.504,2.22-43.372,7.878c-0.013,0.378-0.029,0.756-0.029,1.138
		c0,17.927,14.829,32.459,33.122,32.459c18.052,0,32.72-14.154,33.104-31.755C76.854,32.407,66.539,30.133,61.337,23.444z"/>
	<path fill="#E9E0D6" d="M34.232,60.209c-9.551-5.695-15.93-15.992-15.93-27.749v36.559C18.302,65.275,24.691,62.003,34.232,60.209z
		"/>
</g>
<rect x="30.302" y="148.717" fill="#E9E0D6" width="6" height="81"/>
<rect x="64.302" y="148.717" fill="#E9E0D6" width="6" height="81"/>
<rect x="18.302" y="69.717" fill="#666666" width="66" height="79"/>
<ellipse fill="#E9E0D6" cx="51.059" cy="32.46" rx="33.122" ry="32.459"/>
<rect x="18.302" y="141.717" fill="#CCCCCC" width="66" height="7"/>
<polygon fill="#4D4D4D" points="62.099,69.717 70.666,85.338 60.484,88.439 70.477,90.581 50.302,128.889 50.302,69.717 "/>
<polygon fill="#4D4D4D" points="39.384,69.717 30.5,85.338 41,88.439 30.312,90.581 50.302,128.889 50.302,69.717 "/>
<path fill="#CCCCCC" d="M39.637,69.717c0,25,10.665,59.172,10.665,59.172V69.717C50.302,69.717,50.678,69.717,39.637,69.717z"/>
<path fill="#CCCCCC" d="M62.099,69.717c0,25-11.797,59.172-11.797,59.172V69.717C50.302,69.717,51.059,69.717,62.099,69.717z"/>
<path fill="#363943" d="M39.541,223.762c-1.515-6.365-3.812-11.045-6.42-11.045h-0.223c-3.842,1-7.067,9.579-8.065,22h14.708h1.646
	C40.866,230.576,40.298,226.771,39.541,223.762z"/>
<path fill="#363943" d="M73.805,223.762c-1.515-6.365-3.812-11.045-6.42-11.045h-0.224c-3.842,1-7.066,9.579-8.064,22h14.708h1.646
	C75.13,230.576,74.562,226.771,73.805,223.762z"/>
<rect x="18.302" y="69.717" fill="#FBB03B" width="66" height="2"/>
<circle fill="#FBB03B" cx="50.769" cy="75.416" r="3.39"/>
<polyline fill="none" stroke="#666666" stroke-width="10" stroke-miterlimit="10" points="80.374,75.761 92.552,101.56 
	93.742,132.905 "/>
<polygon fill="#666666" points="84.181,148.717 17.937,148.717 14.129,189.717 15.843,189.717 17.937,177.786 20.03,189.717 
	87.988,189.717 "/>
<ellipse fill="#F2F2F2" cx="74.586" cy="46.445" rx="6.61" ry="7.881"/>
<ellipse fill="#00A1BF" cx="75.743" cy="48.612" rx="3.14" ry="3.743"/>
<ellipse fill="#F2F2F2" cx="73.76" cy="46.247" rx="1.817" ry="2.168"/>
<ellipse fill="#F2F2F2" cx="52.891" cy="46.445" rx="6.61" ry="7.881"/>
<ellipse fill="#00A1BF" cx="54.048" cy="48.612" rx="3.14" ry="3.743"/>
<ellipse fill="#F2F2F2" cx="52.064" cy="46.247" rx="1.818" ry="2.168"/>
<line fill="none" stroke="#FBB03B" stroke-width="3" stroke-miterlimit="10" x1="88.906" y1="126.836" x2="97.99" y2="126.652"/>
<polygon fill="#B04733" points="100.302,159.717 90.119,159.717 87.302,159.717 87.302,130.717 100.302,130.717 "/>
<polygon opacity="0.2" points="92.12,135.404 92.689,159.717 89.251,159.717 "/>
<polygon opacity="0.2" points="93.438,135.404 95.058,159.717 98.164,159.717 "/>
<polyline fill="none" stroke="#666666" stroke-width="10" stroke-miterlimit="10" points="21.744,79.283 8.039,109.082 
	9.054,145.249 "/>
<path fill="#E9E0D6" d="M14.881,149.847c-0.189,5.163-2.774,8.833-5.773,8.199c-3.002-0.632-5.282-5.332-5.094-10.494
	c0.188-5.161,2.773-8.833,5.774-8.2C12.789,139.985,15.069,144.685,14.881,149.847z"/>
<rect x="51.051" y="53.704" transform="matrix(0.7263 -0.6873 0.6873 0.7263 -59.122 65.7081)" fill="#B04733" width="3.808" height="106.791"/>
<path fill="#E9E0D6" d="M99.4,139.187c-0.189,5.163-2.773,8.833-5.773,8.2c-3.002-0.633-5.281-5.332-5.095-10.494
	c0.188-5.162,2.774-8.834,5.774-8.2C97.307,129.325,99.587,134.025,99.4,139.187z"/>
<path fill="#E9E0D6" d="M17.937,69.019v0.469h0.038C17.952,69.331,17.937,69.175,17.937,69.019z"/>
<path fill="#E9E0D6" d="M17.937,32.178v0.282c0-0.095,0.005-0.188,0.007-0.282H17.937z"/>
<path fill="#E9E0D6" d="M67.886,60.32c0.831,0.164,1.416,0.338,2.416,0.523v-2.093C69.302,59.307,68.716,59.832,67.886,60.32z"/>
<path fill="#FFDA6A" d="M61.251,23.444c2.286,2.94,6.051,5.027,9.051,6.508V6.169C65.302,2.292,58.227,0,50.972,0
	C33.069,0,18.493,13.923,17.879,31.322C29.747,25.664,54.782,15.123,61.251,23.444z"/>
<path fill="#363943" d="M84.181,32.178h-0.01c0.001,0.095,0.01,0.188,0.01,0.282V32.178z"/>
<g>
	<path fill="#FFDA6A" d="M51.059,0C33.155,0,18.579,13.923,17.965,31.322c11.868-5.658,36.902-16.199,43.372-7.878
		c5.201,6.688,15.517,8.963,22.825,9.72c0.005-0.235,0.019-0.468,0.019-0.704C84.181,14.532,69.351,0,51.059,0z"/>
	<path fill="#FFDA6A" d="M84.163,32.934c0.005-0.235,0.019-0.583,0.019-0.819c0-0.095-0.009,0.603-0.01-0.397h-6.329
		C80.06,32.717,82.218,32.732,84.163,32.934z"/>
</g>
<path fill="#E9E0D6" d="M33.867,60.209c5.012,2.988,10.896,4.71,17.192,4.71c6.216,0,12.031-1.679,17-4.599
	c-5.037-0.991-10.993-1.567-17.38-1.567C44.531,58.753,38.781,59.285,33.867,60.209z"/>
<line fill="none" stroke="#000000" stroke-miterlimit="10" x1="57.302" y1="63.217" x2="72.302" y2="63.217"/>
<path opacity="0.1" fill="#363943" d="M84.302,148.676v-64.85V69.487c0,0-0.074-36.559-0.079-36.323l-0.107-0.986
	c-0.094-10.701-5.813-20.162-13.813-26.009v23.783v2.226v26.573v2.093v8.644v7.706v71.482v41.041h17.686L84.302,148.676z"/>
</svg>
