<?xml version="1.0" encoding="utf-8"?>
<!-- Generator: Adobe Illustrator 16.0.0, SVG Export Plug-In . SVG Version: 6.00 Build 0)  -->
<!DOCTYPE svg PUBLIC "-//W3C//DTD SVG 1.1//EN" "http://www.w3.org/Graphics/SVG/1.1/DTD/svg11.dtd">
<svg version="1.1" id="Calque_1" xmlns="http://www.w3.org/2000/svg" xmlns:xlink="http://www.w3.org/1999/xlink" x="0px" y="0px"
	 width="656.334px" height="128.323px" viewBox="0 0 656.334 128.323" enable-background="new 0 0 656.334 128.323"
	 xml:space="preserve">
<path fill="#FFFFFF" d="M656.193,58.687c-0.438-7.066-1.856-14.286-4.641-21.196c-2.745-6.912-6.87-13.49-12.271-19.079
	c-5.387-5.597-12.061-10.134-19.424-13.211c-3.68-1.545-7.53-2.713-11.458-3.553c-3.927-0.836-7.922-1.34-12.046-1.551l-2.869-0.09
	c-0.032-0.002-0.354-0.013-0.471,0l-0.396,0.023l-0.794,0.047l-1.588,0.098c-2.189,0.085-4.095,0.394-6.071,0.65
	c-3.982,0.47-7.795,1.209-11.716,1.834c-3.887,0.681-7.761,1.431-11.674,2.15c-3.888,0.784-7.795,1.573-11.721,2.365
	c-7.834,1.632-15.739,3.287-23.685,5.035c-15.906,3.446-32.029,7.099-48.347,10.813c-8.153,1.876-16.355,3.764-24.6,5.66
	c-8.23,1.946-16.502,3.902-24.807,5.865c-12.504,2.997-25.099,6.015-37.725,9.042c1.144,3.366,2.026,6.852,2.611,10.439
	c12.579-3.062,25.127-6.118,37.586-9.151c16.576-3.998,33.021-7.964,49.27-11.883c16.25-3.891,32.308-7.719,48.121-11.331
	c15.805-3.62,31.392-7.086,46.608-10.09c3.788-0.675,7.604-1.485,11.295-1.985c1.853-0.279,3.754-0.611,5.41-0.691l1.284-0.11
	l0.643-0.057l0.32-0.029c0.123-0.014,0.041-0.011,0.248-0.009l2.87,0.037c3.509,0.122,7.079,0.497,10.546,1.169
	c3.462,0.672,6.838,1.628,10.051,2.908c6.428,2.551,12.221,6.336,16.961,11.078c4.759,4.731,8.428,10.392,11.031,16.421
	c2.62,6.036,4.07,12.475,4.633,18.879c0.15,1.603,0.207,3.206,0.254,4.804c0.003,0.175,0.01,0.095,0.006,0.22l-0.004,0.314
	l-0.008,0.626l-0.015,1.251c0.008,0.866-0.071,1.576-0.112,2.348c-0.211,3.053-0.635,6.196-1.359,9.171
	c-2.786,12.025-9.55,22.446-18.056,29.885c-8.519,7.504-18.815,11.959-28.867,13.521c-10.093,1.604-19.882,0.363-28.274-2.524
	c-8.408-2.943-15.43-7.546-20.842-12.642c-5.423-5.115-9.302-10.663-12.013-15.809c-2.701-5.167-4.245-9.943-5.182-13.87
	c-0.928-3.939-1.216-7.045-1.417-9.13c-0.107-2.095-0.162-3.177-0.162-3.177s0.003,1.084,0.01,3.185
	c0.102,2.096,0.239,5.226,0.985,9.245c0.755,4.006,2.082,8.919,4.587,14.329c2.498,5.397,6.244,11.275,11.661,16.791
	c5.399,5.501,12.522,10.608,21.267,14.065c8.724,3.432,19.099,5.048,29.963,3.705c10.834-1.32,22.15-5.751,31.719-13.636
	c9.556-7.821,17.289-19.131,20.75-32.413c0.892-3.323,1.449-6.699,1.785-10.25c0.071-0.881,0.178-1.826,0.189-2.628l0.048-1.25
	l0.023-0.626l0.012-0.313l0.005-0.407C656.331,62.216,656.311,60.456,656.193,58.687z"/>
<path fill="#FFFFFF" d="M226.515,83.157c-16.574,4.012-33.017,7.991-49.262,11.923c-16.247,3.91-32.302,7.748-48.111,11.384
	c-15.803,3.642-31.38,7.145-46.596,10.204c-1.899,0.356-3.792,0.712-5.681,1.066l-2.829,0.532l-2.685,0.419l-2.674,0.423
	c-0.451,0.066-0.877,0.154-1.348,0.203l-1.438,0.12l-2.869,0.241l-2.452-0.033c-7.171-0.215-14.188-1.579-20.607-4.182
	c-6.419-2.594-12.202-6.433-16.979-11.167c-4.788-4.732-8.542-10.349-11.229-16.346c-2.702-5.991-4.235-12.436-4.821-18.777
	c-0.056-0.792-0.144-1.528-0.179-2.361c-0.029-0.841-0.059-1.68-0.088-2.516c0.007-0.77,0.014-1.538,0.021-2.305
	c-0.011-0.789,0.069-1.571,0.11-2.354c0.217-3.126,0.637-6.217,1.363-9.209c2.788-12.029,9.556-22.448,18.061-29.893
	c8.521-7.505,18.821-11.959,28.874-13.521c1.263-0.191,2.515-0.369,3.737-0.458c1.199-0.143,2.517-0.17,3.789-0.227
	c1.174-0.043,2.445,0,3.647,0.009c1.211,0.091,2.422,0.102,3.608,0.253c4.756,0.488,9.296,1.49,13.499,2.95
	c8.41,2.945,15.431,7.549,20.843,12.646c5.422,5.116,9.303,10.664,12.013,15.812c2.701,5.168,4.243,9.945,5.179,13.871
	c0.928,3.94,1.215,7.045,1.417,9.128c0.106,2.097,0.161,3.179,0.161,3.179s-0.003-1.083-0.01-3.183
	c-0.102-2.097-0.241-5.229-0.987-9.247c-0.755-4.006-2.083-8.919-4.588-14.328c-2.5-5.396-6.244-11.274-11.662-16.788
	c-5.398-5.5-12.522-10.606-21.265-14.062c-4.366-1.718-9.134-2.971-14.176-3.642c-1.257-0.2-2.541-0.259-3.83-0.395
	c-1.306-0.054-2.568-0.142-3.948-0.137c-1.282,0.016-2.542-0.003-3.931,0.107c-1.373,0.057-2.721,0.203-4.075,0.363
	C43.686,4.183,32.373,8.613,22.806,16.498C13.249,24.313,5.521,35.625,2.061,48.903c-0.89,3.306-1.451,6.733-1.782,10.211
	c-0.069,0.871-0.176,1.743-0.19,2.622L0.04,63.055l-0.024,0.661l-0.012,0.331c-0.006,0.096-0.002,0.357-0.002,0.395
	c0.008,0.837,0.016,1.676,0.024,2.518c0.013,0.849,0.086,1.793,0.129,2.689c0.472,7.126,1.989,14.311,4.869,21.188
	c2.841,6.872,7.031,13.38,12.438,18.929c5.396,5.553,12.009,10.12,19.348,13.244c7.338,3.136,15.341,4.835,23.431,5.225l1.519,0.049
	l0.761,0.023l0.38,0.013c-0.1,0.009,0.565,0.004,0.626-0.008l2.872-0.188l1.439-0.094c0.487-0.041,1.01-0.126,1.515-0.188
	l3.057-0.407l3.062-0.419l2.905-0.49c1.94-0.327,3.885-0.655,5.835-0.985c15.516-2.768,31.138-6.196,47.046-9.648
	c15.899-3.472,32.02-7.136,48.332-10.869c16.31-3.736,32.805-7.567,49.399-11.547c12.216-2.93,24.52-5.881,36.853-8.84
	c-1.087-3.379-1.909-6.877-2.436-10.472C251.061,77.173,238.744,80.175,226.515,83.157z"/>
<polyline fill="none" stroke="#FFFFFF" stroke-width="5" stroke-miterlimit="10" points="327.23,27.822 290.772,59.417 
	327.23,122.609 "/>
<polyline fill="none" stroke="#FFFFFF" stroke-width="5" stroke-miterlimit="10" points="327.23,27.822 363.682,59.417 
	327.23,122.609 "/>
<polyline fill="none" stroke="#FFFFFF" stroke-width="5" stroke-miterlimit="10" points="327.23,27.822 380.622,53.548 
	328.367,120.385 "/>
<polyline fill="none" stroke="#FFFFFF" stroke-width="5" stroke-miterlimit="10" points="325.937,27.822 272.54,53.548 
	324.801,120.385 "/>
<polyline fill="none" stroke="#FFFFFF" stroke-width="5" stroke-miterlimit="10" points="327.23,27.822 308.998,63.062 
	327.23,122.609 "/>
<polyline fill="none" stroke="#FFFFFF" stroke-width="5" stroke-miterlimit="10" points="327.23,27.822 345.457,63.062 
	327.23,122.609 "/>
</svg>
