<?xml version="1.0" encoding="utf-8"?>
<!-- Generator: Adobe Illustrator 16.0.0, SVG Export Plug-In . SVG Version: 6.00 Build 0)  -->
<!DOCTYPE svg PUBLIC "-//W3C//DTD SVG 1.1//EN" "http://www.w3.org/Graphics/SVG/1.1/DTD/svg11.dtd">
<svg version="1.1" id="Calque_1" xmlns="http://www.w3.org/2000/svg" xmlns:xlink="http://www.w3.org/1999/xlink" x="0px" y="0px"
	 width="164px" height="140.332px" viewBox="0 0 164 140.332" enable-background="new 0 0 164 140.332" xml:space="preserve">
<circle fill="#DDDDDD" cx="149" cy="131.332" r="9"/>
<circle fill="#DDDDDD" cx="127.22" cy="108.553" r="13.887"/>
<path fill="#DDDDDD" d="M132.667,20.333c-7.229,0-13.88,2.454-19.182,6.566C108.518,11.486,94.064,0.333,77,0.333
	c-18.42,0-33.8,12.995-37.487,30.315c-2.509-0.64-5.138-0.981-7.846-0.981C14.178,29.666,0,43.844,0,61.333
	s14.178,31.667,31.667,31.667c6.062,0,11.724-1.706,16.538-4.66c4.399,11.071,15.202,18.903,27.841,18.903
	c9.477,0,17.919-4.405,23.409-11.274c1.551,0.446,3.185,0.698,4.879,0.698c9.049,0,16.498-6.808,17.533-15.579
	c3.367,1.236,7.005,1.912,10.801,1.912C149.972,83,164,68.971,164,51.666S149.972,20.333,132.667,20.333z"/>
<path fill="#CCCCCC" d="M31.667,34.666c2.708,0,5.337,0.342,7.846,0.981C43.2,18.327,58.58,5.333,77,5.333
	c17.064,0,31.518,11.154,36.485,26.566c5.302-4.112,11.953-6.566,19.182-6.566c16.463,0,29.95,12.699,31.225,28.833
	c0.065-0.826,0.108-1.658,0.108-2.5c0-17.305-14.028-31.333-31.333-31.333c-7.229,0-13.88,2.454-19.182,6.566
	C108.518,11.486,94.064,0.333,77,0.333c-18.42,0-33.8,12.995-37.487,30.315c-2.509-0.64-5.138-0.981-7.846-0.981
	C14.178,29.666,0,43.844,0,61.333c0,0.842,0.043,1.674,0.107,2.5C1.383,47.514,15.02,34.666,31.667,34.666z"/>
<g opacity="0.4">
	<path d="M77.892,65.03h10.232v9.882H77.892V65.03z M79.059,16.826h7.898v25.483L86.14,54.253h-6.264l-0.817-11.944V16.826z"/>
</g>
<g opacity="0.4">
	<path d="M90.356,67.195h7.991v7.717h-7.991V67.195z M91.268,29.55h6.167v19.901l-0.638,9.328h-4.892l-0.638-9.328V29.55z"/>
</g>
<g opacity="0.4">
	<path d="M101.936,69.093h5.991v5.786h-5.991V69.093z M102.619,40.869h4.625V55.79l-0.479,6.994h-3.667l-0.479-6.994V40.869z"/>
</g>
<ellipse fill="#CCCCCC" cx="29.188" cy="61.95" rx="2.923" ry="4.879"/>
<ellipse fill="#CCCCCC" cx="74.498" cy="61.95" rx="2.923" ry="4.879"/>
<path fill="#E9E0D6" d="M29.549,49.612h-0.503c0.041-12.563,10.146-23.008,22.609-23.008c12.462,0,22.567,10.445,22.608,23.008
	h0.305v23.033H29.549V49.612z"/>
<polygon fill="#E9E0D6" points="74.568,49.612 74.568,72.645 29.549,72.645 29.549,49.612 74.263,49.612 "/>
<rect x="29.549" y="72.645" fill="#C1272D" width="45.019" height="10.47"/>
<polygon fill="#911D22" points="51.917,90.341 57.04,91.697 59.831,77.531 54.708,76.176 "/>
<polygon fill="#911D22" points="64.278,91.75 68.103,87.445 59.748,76.891 55.923,81.196 "/>
<path fill="#E9E0D6" d="M51.655,26.745c0.099,0,0.196,0.006,0.295,0.008h-0.591C51.458,26.751,51.556,26.745,51.655,26.745z"/>
<polyline fill="#E9E0D6" points="29.549,47.518 29.549,49.612 29.025,49.612 "/>
<rect x="29.549" y="72.645" fill="#C1272D" width="4.711" height="10.47"/>
<path fill="#8CC63F" d="M34.26,35.152c3.665-5.083,10.161-8.573,17.099-8.573h0.591c10.221,0,18.801,7.329,21.458,16.751H34.26
	V35.152z"/>
<path fill="#22B573" d="M74.568,43.33v6.282h-0.305c-0.007-2.094-0.309-4.188-0.856-6.282H74.568z"/>
<path fill="#22B573" d="M73.407,43.33c0.547,2.094,0.849,4.188,0.856,6.282H34.26V43.33H73.407z"/>
<path fill="#8CC63F" d="M29.902,43.33c0.854-3.141,2.264-5.773,4.357-8.178v8.178H29.902z"/>
<path opacity="0.1" enable-background="new    " d="M29.902,43.33c0.854-3.141,2.264-5.773,4.357-8.178v8.178H29.902z"/>
<path fill="#22B573" d="M29.549,47.256V43.33h0.354C29.567,44.377,29.549,45.958,29.549,47.256z"/>
<path fill="#22B573" d="M34.26,43.33v6.282h-5.234v-2.356c0-1.297,0-2.355,0-3.926H34.26z"/>
<polygon opacity="0.1" enable-background="new    " points="29.422,43.33 31.107,43.33 36.354,43.33 36.354,49.612 31.317,49.612 
	29.025,49.612 29.025,47.256 29.025,43.33 "/>
<polygon opacity="0.1" enable-background="new    " points="29.549,72.645 36.354,72.645 36.354,73.581 36.354,83.114 
	29.549,83.114 29.549,73.581 "/>
<rect x="29.549" y="49.612" opacity="0.1" enable-background="new    " width="4.711" height="23.033"/>
<polygon opacity="0.3" enable-background="new    " points="74.492,79.45 29.549,77.807 29.549,79.45 "/>
<polygon opacity="0.3" enable-background="new    " points="74.568,74.409 29.184,72.645 74.568,72.645 "/>
<ellipse opacity="0.1" enable-background="new    " cx="69.61" cy="59.162" rx="2.923" ry="4.879"/>
<ellipse opacity="0.1" enable-background="new    " cx="55.954" cy="59.162" rx="2.923" ry="4.879"/>
<ellipse fill="#F2F2F2" cx="69.61" cy="57.769" rx="2.923" ry="3.485"/>
<ellipse fill="#F2F2F2" cx="55.954" cy="57.769" rx="2.923" ry="3.485"/>
<ellipse fill="#42210B" cx="69.098" cy="58.378" rx="1.389" ry="1.655"/>
<ellipse fill="#42210B" cx="55.442" cy="58.727" rx="1.389" ry="1.655"/>
<ellipse fill="#F2F2F2" cx="69.976" cy="57.681" rx="0.804" ry="0.958"/>
<ellipse fill="#F2F2F2" cx="56.319" cy="57.681" rx="0.804" ry="0.958"/>
<polygon fill="none" points="27.978,90.312 27.978,102.006 21.782,95.332 "/>
<polygon fill="#567EAF" points="33.04,107.418 32.984,107.494 32.984,107.357 "/>
<polygon fill="#567EAF" points="32.069,87.012 27.978,90.312 27.978,84.413 29.979,82.976 "/>
<polygon opacity="0.1" enable-background="new    " points="32.069,87.012 27.978,90.479 27.978,84.413 29.979,82.976 "/>
<polygon fill="#567EAF" points="81.354,95.58 73.532,92.098 71.5,85.984 87.667,93.183 78.97,108.451 77.146,102.969 "/>
<polygon fill="#6B7285" points="69.453,93.134 72.391,90.65 69.495,87.653 66.554,90.136 "/>
<path fill="#E9E0D6" d="M94.817,97.18c0,1.225,1.062,2.219,2.372,2.219c1.312,0,2.373-0.994,2.373-2.219s-1.062-2.221-2.373-2.221
	C95.879,94.959,94.817,95.953,94.817,97.18z"/>
<circle fill="#22B573" cx="52.115" cy="26.416" r="2.245"/>
<polygon fill="#C1272D" points="52.501,89.141 57.67,90.3 59.921,76.039 54.751,74.879 "/>
<polygon fill="#C1272D" points="64.615,91.412 68.44,87.108 60.084,76.555 56.259,80.859 "/>
<ellipse fill="#603813" cx="66.99" cy="67.966" rx="0.351" ry="0.386"/>
<ellipse fill="#603813" cx="68.825" cy="66.282" rx="0.35" ry="0.385"/>
<ellipse fill="#603813" cx="70.659" cy="67.966" rx="0.351" ry="0.386"/>
<ellipse fill="#603813" cx="68.825" cy="68.977" rx="0.35" ry="0.385"/>
<ellipse fill="#603813" cx="72.494" cy="68.977" rx="0.35" ry="0.385"/>
<ellipse fill="#603813" cx="70.659" cy="70.66" rx="0.351" ry="0.385"/>
<ellipse fill="#603813" cx="74.328" cy="70.66" rx="0.35" ry="0.385"/>
<ellipse fill="#603813" cx="72.494" cy="72.007" rx="0.35" ry="0.385"/>
<ellipse fill="#603813" cx="68.825" cy="72.007" rx="0.35" ry="0.385"/>
<ellipse fill="#603813" cx="66.99" cy="70.66" rx="0.351" ry="0.385"/>
<ellipse fill="#603813" cx="66.99" cy="67.966" rx="0.351" ry="0.386"/>
<ellipse fill="#603813" cx="65.155" cy="66.282" rx="0.351" ry="0.385"/>
<ellipse fill="#603813" cx="65.155" cy="68.977" rx="0.351" ry="0.385"/>
<ellipse fill="#603813" cx="65.155" cy="72.007" rx="0.351" ry="0.385"/>
<ellipse fill="#603813" cx="63.321" cy="65.273" rx="0.35" ry="0.386"/>
<ellipse fill="#603813" cx="63.321" cy="67.966" rx="0.35" ry="0.386"/>
<ellipse fill="#603813" cx="63.321" cy="70.66" rx="0.35" ry="0.385"/>
<ellipse fill="#603813" cx="61.485" cy="72.007" rx="0.35" ry="0.385"/>
<ellipse fill="#603813" cx="61.485" cy="68.977" rx="0.35" ry="0.385"/>
<ellipse fill="#603813" cx="61.485" cy="66.282" rx="0.35" ry="0.385"/>
<ellipse fill="#603813" cx="59.651" cy="65.273" rx="0.35" ry="0.386"/>
<ellipse fill="#603813" cx="59.651" cy="67.966" rx="0.35" ry="0.386"/>
<ellipse fill="#603813" cx="59.651" cy="70.66" rx="0.35" ry="0.385"/>
<ellipse fill="#603813" cx="57.816" cy="66.282" rx="0.35" ry="0.385"/>
<ellipse fill="#603813" cx="57.816" cy="68.977" rx="0.35" ry="0.385"/>
<ellipse fill="#603813" cx="57.816" cy="72.007" rx="0.35" ry="0.385"/>
<ellipse fill="#603813" cx="55.982" cy="65.273" rx="0.35" ry="0.386"/>
<ellipse fill="#603813" cx="55.982" cy="67.966" rx="0.35" ry="0.386"/>
<ellipse fill="#603813" cx="55.982" cy="70.66" rx="0.35" ry="0.385"/>
<ellipse fill="#603813" cx="54.147" cy="66.282" rx="0.35" ry="0.385"/>
<ellipse fill="#603813" cx="54.147" cy="68.977" rx="0.35" ry="0.385"/>
<ellipse fill="#603813" cx="54.147" cy="72.007" rx="0.35" ry="0.385"/>
<ellipse fill="#603813" cx="52.312" cy="67.966" rx="0.351" ry="0.386"/>
<ellipse fill="#603813" cx="52.312" cy="70.66" rx="0.351" ry="0.385"/>
<ellipse fill="#603813" cx="50.478" cy="66.282" rx="0.35" ry="0.385"/>
<ellipse fill="#603813" cx="50.478" cy="68.977" rx="0.35" ry="0.385"/>
<ellipse fill="#603813" cx="50.478" cy="72.007" rx="0.35" ry="0.385"/>
<ellipse fill="#603813" cx="48.644" cy="67.966" rx="0.351" ry="0.386"/>
<ellipse fill="#603813" cx="48.644" cy="70.66" rx="0.351" ry="0.385"/>
<ellipse fill="#603813" cx="46.809" cy="68.977" rx="0.35" ry="0.385"/>
<ellipse fill="#603813" cx="46.809" cy="72.007" rx="0.35" ry="0.385"/>
<ellipse fill="#603813" cx="44.974" cy="70.66" rx="0.35" ry="0.385"/>
<ellipse fill="#603813" cx="43.14" cy="72.007" rx="0.351" ry="0.385"/>
<ellipse cx="63.405" cy="69.457" rx="5.275" ry="0.625"/>
<ellipse fill="#CCCCCC" cx="96.426" cy="57.09" rx="2.347" ry="3.918"/>
<ellipse fill="#CCCCCC" cx="132.817" cy="57.09" rx="2.349" ry="3.918"/>
<rect x="96.636" y="50.178" fill="#E9E0D6" width="36.21" height="23.646"/>
<path fill="#E9E0D6" d="M77.778,93.457c0.056,0,0.111,0.004,0.168,0.004h-0.337C77.666,93.461,77.722,93.457,77.778,93.457z"/>
<polygon opacity="0.1" enable-background="new    " points="96.636,65.695 101.07,65.695 101.07,66.431 101.07,73.823 
	96.636,73.823 96.636,66.431 "/>
<path fill="#567EAF" d="M48.241,88.34c2.458,6.185,6.899,11.299,12.558,14.66l-1.533-20H34.334v9.884
	C39.334,92.471,44.122,90.867,48.241,88.34z"/>
<path fill="#567EAF" d="M61.334,83v20.446c4,2.183,8,3.508,13,3.739V83H61.334z"/>
<polygon fill="#DDDDDD" points="61.334,81 59.106,81 59.266,83 61.334,83 "/>
<polygon opacity="0.1" enable-background="new    " points="61.334,81 59.106,81 59.266,83 61.334,83 "/>
<path fill="#567EAF" d="M61.334,103.446V83h-2.068l1.441,20C60.937,103.137,61.334,103.316,61.334,103.446z"/>
<path opacity="0.1" enable-background="new    " d="M61.334,103.446V83h-2.068l1.441,20
	C60.937,103.137,61.334,103.316,61.334,103.446z"/>
<path fill="#567EAF" d="M34.334,92.884V83h-5v9.921c1,0.046,1.55,0.078,2.262,0.078C32.47,92.999,33.334,92.953,34.334,92.884z"/>
<path opacity="0.1" enable-background="new    " d="M34.334,92.884V83h-5v9.921c1,0.046,1.55,0.078,2.262,0.078
	C32.47,92.999,33.334,92.953,34.334,92.884z"/>
<path fill="#567EAF" d="M28.334,90.312v-5.899l-8.068,6.393c1.712,0.673,3.583,1.207,5.426,1.576L28.334,90.312z"/>
<path fill="#8CC63F" d="M101.334,74v22.345c1,0.202,2.014,0.321,3.131,0.321c9.05,0,16.432-6.808,17.467-15.578
	c3.367,1.236,7.216,1.912,11.012,1.912c0.06,0-0.61-0.004,0.39-0.004V74H101.334z"/>
<path fill="#8CC63F" d="M99.435,95.968c0.528,0.152,0.899,0.272,1.899,0.377V74h-5v25.019
	C97.334,98.065,98.569,97.051,99.435,95.968z"/>
<path opacity="0.1" enable-background="new    " d="M99.435,95.968c0.528,0.152,0.899,0.272,1.899,0.377V74h-5v25.019
	C97.334,98.065,98.569,97.051,99.435,95.968z"/>
<rect x="96.636" y="50.178" opacity="0.1" enable-background="new    " width="4.434" height="15.517"/>
<ellipse opacity="0.1" enable-background="new    " cx="124.904" cy="60.33" rx="2.348" ry="3.178"/>
<ellipse opacity="0.1" enable-background="new    " cx="114.382" cy="60.33" rx="2.347" ry="3.178"/>
<ellipse fill="#F2F2F2" cx="124.904" cy="59.95" rx="2.348" ry="2.8"/>
<ellipse fill="#F2F2F2" cx="114.382" cy="59.95" rx="2.347" ry="2.8"/>
<path fill="#754C24" d="M95.166,92.592c0-2.832,2.205-5.127,4.926-5.127s4.927,2.295,4.927,5.127c0,1.631-0.736,3.086-1.88,4.021
	c0.148-0.504,0.231-1.053,0.231-1.629c0-2.455-1.477-4.447-3.296-4.447c-1.821,0-3.296,1.99-3.296,4.447
	c0,0.562,0.079,1.098,0.22,1.594C95.881,95.639,95.166,94.201,95.166,92.592z"/>
<path fill="#603813" d="M100.074,90.537c1.82,0,3.296,1.99,3.296,4.447c0,0.576-0.083,1.125-0.231,1.629
	c-0.839,0.691-1.896,1.104-3.047,1.104c-1.172,0-2.248-0.428-3.094-1.139c-0.141-0.496-0.22-1.031-0.22-1.594
	C96.778,92.529,98.253,90.537,100.074,90.537z"/>
<path fill="#754C24" d="M100.96,96.771c0-1.479,1.198-2.678,2.676-2.678s2.676,1.199,2.676,2.678c0,0.852-0.4,1.609-1.021,2.102
	c0.08-0.266,0.125-0.551,0.125-0.852c0-1.283-0.802-2.322-1.791-2.322s-1.791,1.039-1.791,2.322c0,0.293,0.045,0.572,0.121,0.832
	C101.349,98.363,100.96,97.613,100.96,96.771z"/>
<path fill="#603813" d="M103.626,95.699c0.988,0,1.791,1.039,1.791,2.322c0,0.301-0.045,0.586-0.125,0.852
	c-0.455,0.357-1.03,0.574-1.655,0.574c-0.637,0-1.222-0.225-1.679-0.594c-0.077-0.26-0.121-0.541-0.121-0.834
	C101.835,96.738,102.638,95.699,103.626,95.699z"/>
<path fill="#754C24" d="M93.633,96.771c0-1.479,1.196-2.678,2.675-2.678c1.477,0,2.675,1.199,2.675,2.678
	c0,0.852-0.4,1.609-1.021,2.102c0.081-0.266,0.126-0.551,0.126-0.852c0-1.283-0.802-2.322-1.791-2.322
	c-0.989,0-1.79,1.039-1.79,2.322c0,0.293,0.043,0.572,0.12,0.832C94.021,98.363,93.633,97.613,93.633,96.771z"/>
<path fill="#603813" d="M96.297,95.699c0.989,0,1.791,1.039,1.791,2.322c0,0.301-0.045,0.586-0.126,0.852
	c-0.456,0.357-1.029,0.574-1.654,0.574c-0.636,0-1.22-0.225-1.68-0.594c-0.077-0.26-0.12-0.541-0.12-0.834
	C94.507,96.738,95.308,95.699,96.297,95.699z"/>
<path fill="#754C24" d="M104.587,86.51c0,2.384-1.932,4.314-4.315,4.314s-4.315-1.93-4.315-4.314c0-1.375,0.644-2.596,1.646-3.387
	c-0.128,0.424-0.201,0.887-0.201,1.373c0,2.065,1.292,3.742,2.887,3.742s2.887-1.676,2.887-3.742c0-0.474-0.071-0.926-0.194-1.343
	C103.961,83.945,104.587,85.154,104.587,86.51z"/>
<path fill="#754C24" d="M100.288,88.238c-1.594,0-2.887-1.676-2.887-3.742c0-0.485,0.074-0.947,0.202-1.373
	c0.734-0.58,1.66-0.928,2.669-0.928c1.026,0,1.968,0.361,2.708,0.959c0.124,0.417,0.195,0.867,0.195,1.341
	C103.176,86.562,101.884,88.238,100.288,88.238z"/>
<path fill="#754C24" d="M95.695,84.023c-0.508-0.655-0.39-1.595,0.263-2.105c0.653-0.508,1.596-0.392,2.104,0.262
	c0.293,0.378,0.378,0.849,0.272,1.279c-0.056-0.143-0.133-0.284-0.238-0.416c-0.441-0.568-1.154-0.753-1.591-0.411
	c-0.437,0.34-0.433,1.075,0.008,1.643c0.102,0.13,0.216,0.237,0.339,0.326C96.415,84.593,95.985,84.396,95.695,84.023z"/>
<path fill="#603813" d="M96.505,82.632c0.437-0.342,1.15-0.157,1.591,0.411c0.104,0.132,0.182,0.273,0.237,0.416
	c-0.077,0.317-0.258,0.609-0.533,0.827c-0.283,0.218-0.617,0.32-0.949,0.314c-0.123-0.088-0.237-0.196-0.339-0.326
	C96.072,83.708,96.067,82.973,96.505,82.632z"/>
<ellipse transform="matrix(-0.7147 -0.6995 0.6995 -0.7147 117.874 215.7949)" fill="#C69C6D" cx="102.952" cy="83.855" rx="0.739" ry="0.461"/>
<ellipse fill="#F2F2F2" cx="101.701" cy="85.859" rx="0.392" ry="0.467"/>
<ellipse fill="#F2F2F2" cx="98.961" cy="85.859" rx="0.391" ry="0.467"/>
<ellipse opacity="0.2" enable-background="new    " cx="100.046" cy="87.499" rx="1.412" ry="1.185"/>
<ellipse transform="matrix(0.7948 -0.6069 0.6069 0.7948 -33.8483 82.6711)" fill="#754C24" cx="105.321" cy="91.387" rx="1.007" ry="2.281"/>
<ellipse fill="#42210B" cx="125.97" cy="60.441" rx="1.116" ry="1.33"/>
<ellipse fill="#42210B" cx="115.448" cy="60.721" rx="1.115" ry="1.329"/>
<ellipse fill="#F2F2F2" cx="126.675" cy="59.88" rx="0.646" ry="0.769"/>
<ellipse fill="#F2F2F2" cx="116.152" cy="59.88" rx="0.646" ry="0.769"/>
<polygon fill="#8CC63F" points="97.315,96.518 99.52,93.608 90.506,83.9 98.754,77.217 96.907,73.976 85.198,83.463 "/>
<polygon fill="none" points="95.158,79.87 95.158,89.262 90.181,83.9 "/>
<polygon fill="#567EAF" points="99.52,93.608 99.474,93.67 99.474,93.559 "/>
<polygon opacity="0.1" enable-background="new    " points="95.104,94.135 95.183,88.938 99.52,93.608 97.315,96.518 "/>
<polyline fill="#8CC63F" points="96.907,73.976 98.754,77.217 95.187,80.107 "/>
<polygon opacity="0.1" enable-background="new    " points="98.781,77.217 95.158,80.175 95.158,75.439 96.948,73.976 "/>
<path fill="#E9E0D6" d="M96.635,96.314c1.639,1.465,3.679,1.523,4.558,0.129s0.263-3.715-1.375-5.182
	c-1.638-1.466-3.679-1.524-4.558-0.132C94.382,92.527,94.997,94.848,96.635,96.314z"/>
<polygon fill="#8CC63F" points="138.836,83.493 141.053,76.983 145.794,74.912 141.213,88.368 128.366,82.522 132.621,80.664 "/>
<path fill="#E9E0D6" d="M145.222,73.114c-2.323-0.165-4.498,0.927-4.855,2.44c-0.36,1.516,1.232,2.875,3.555,3.042
	c2.323,0.166,4.498-0.927,4.855-2.44C149.135,74.645,147.543,73.281,145.222,73.114z"/>
<polygon fill="#6B7285" points="128.326,81.59 130.638,79.638 128.359,77.278 126.047,79.233 "/>
<path fill="#FFDA6A" d="M130.266,43.165c-3.234-3.81-8.979-6.44-15.548-6.44C104.63,36.725,96.451,43,96.399,50h0.087l0.1,8.604
	c7.927,0,14.453-3.598,15.972-8.441l16.729,0.054c0.008,5.843,1.741,10.589,3.883,10.62l0.02-21.291
	C132.024,39.546,130.98,40.954,130.266,43.165z"/>
<ellipse cx="121.87" cy="68.689" rx="4.042" ry="2.779"/>
<path fill="#E9E0D6" d="M74.579,104.064c-1.415,2.531-1.333,5.561,0.183,6.766c1.516,1.203,3.893,0.131,5.308-2.4
	s1.333-5.559-0.183-6.764C78.37,100.461,75.994,101.535,74.579,104.064z"/>
</svg>
