<?xml version="1.0" encoding="utf-8"?>
<!-- Generator: Adobe Illustrator 16.0.0, SVG Export Plug-In . SVG Version: 6.00 Build 0)  -->
<!DOCTYPE svg PUBLIC "-//W3C//DTD SVG 1.1//EN" "http://www.w3.org/Graphics/SVG/1.1/DTD/svg11.dtd">
<svg version="1.1" id="Calque_1" xmlns="http://www.w3.org/2000/svg" xmlns:xlink="http://www.w3.org/1999/xlink" x="0px" y="0px"
	 width="841.814px" height="330.974px" viewBox="0 0 841.814 330.974" enable-background="new 0 0 841.814 330.974"
	 xml:space="preserve">
<path fill="#999999" d="M841.814,65.132l-59.536-0.541l-33.687-39.052l-58.1,39.052l-43.9-28.74l-40.421,70.158l-21.515-60.242
	l-23.216,64.86l-38.849-42.438l-14.104,60.993L469.057,25.539l-37.622,49.454l-30.024-17.177l-25.275,42.415L352.939,0
	l-30.872,68.188l-70.742-10.372l-30.466-35l-50.34,35L0,49.914C47.598,167.3,142.767,260.423,261.68,305.503l224.365,25.471
	C645.265,309.492,778.468,206.306,841.814,65.132z"/>
<polygon fill="#808080" points="531.259,189.619 469.057,25.539 431.435,74.993 "/>
<polygon fill="#808080" points="401.411,57.816 435.259,174.953 376.135,100.231 "/>
<polygon fill="#808080" points="522.592,68.188 625.592,181.286 508.487,129.182 "/>
<polygon fill="#999999" points="410.773,63.173 411.592,68.525 420.093,122.467 421.6,127.683 438.585,83.204 431.435,74.993 "/>
<polygon fill="#808080" points="519.5,81.561 580.664,145.587 571.194,121.556 522.592,68.188 "/>
</svg>
