<?xml version="1.0" encoding="utf-8"?>
<!-- Generator: Adobe Illustrator 16.0.0, SVG Export Plug-In . SVG Version: 6.00 Build 0)  -->
<!DOCTYPE svg PUBLIC "-//W3C//DTD SVG 1.1//EN" "http://www.w3.org/Graphics/SVG/1.1/DTD/svg11.dtd">
<svg version="1.1" id="Calque_1" xmlns="http://www.w3.org/2000/svg" xmlns:xlink="http://www.w3.org/1999/xlink" x="0px" y="0px"
	 width="914.683px" height="766.976px" viewBox="0 0 914.683 766.976" enable-background="new 0 0 914.683 766.976"
	 xml:space="preserve">
<path display="none" fill="#A9DDF3" d="M355.777,11.294C152.076,57.356,0,239,0,456.072c0,120.156,46.614,229.442,122.771,310.903
	h233.007V11.294z"/>
<path display="none" fill="#A9DDF3" d="M791.919,766.976c76.154-81.46,122.764-190.748,122.764-310.903
	c0-194.079-121.567-359.836-292.905-425.696v736.6H791.919z"/>
<path display="none" fill="#333333" d="M621.777,766.976v-736.6C570.747,10.761,515.306,0,457.342,0
	c-4.202,0-8.39,0.061-12.564,0.173v766.803H621.777z"/>
<path display="none" fill="#4D4D4D" d="M444.777,766.976V0.173c-30.506,0.821-60.266,4.624-89,11.121v755.682H444.777z"/>
<polygon display="none" fill="none" points="761.562,371.976 710.438,371.976 551.008,371.976 608.111,280.156 562.065,300.859 
	582.484,180.308 548.438,255.663 521.99,314.236 518.878,219.908 505.833,290.365 492.288,268.601 473.292,328.419 471.438,312.418 
	459.275,196.865 439.444,272.157 355.771,130.865 406.46,318.245 347.43,257.69 386.951,354.058 239.603,282.365 297.004,422.697 
	224.577,433.768 274.98,475.918 190.519,565.616 287.777,572.365 287.777,677.729 347.459,614.621 464.513,630.619 471.438,675.938 
	480.963,736.365 521.995,628.923 548.448,656.62 640.531,753 577.477,592.937 667.879,614.621 644.106,517.477 710.777,484.964 
	710.777,477.865 649.232,422.6 710.438,395.048 "/>
<path opacity="0.2" fill="#A9DDF3" d="M914.905,455.097c0-251.882-204.759-456.072-457.341-456.072
	c-252.583,0-457.342,204.19-457.342,456.072c0,120.629,46.968,230.316,123.656,311.879h667.37
	C867.938,685.413,914.905,575.726,914.905,455.097z M710.777,477.865v7.099l-66.671,32.513l23.772,97.145l-90.402-21.685
	L640.531,753l-92.083-96.38l-26.453-27.697l-41.032,107.442l-9.524-60.427l-6.926-45.319l-117.053-15.998l-59.682,63.107V572.365
	l-97.258-6.749l84.461-89.698l-50.404-42.15l72.427-11.07l-57.401-140.332l147.348,71.692L347.43,257.69l59.031,60.555
	l-50.689-187.38l83.673,141.292l19.832-75.292l12.162,115.553l1.854,16.001l18.996-59.818l13.545,21.764l13.045-70.458l3.112,94.329
	l26.447-58.573l34.047-75.355l-20.419,120.552l46.046-20.704l-57.104,91.82h159.43h51.125l-51.125,23.073L649.232,422.6
	L710.777,477.865z"/>
<path fill="#4D4D4D" d="M742.251,99.479C664.096,37.327,565.067,0.173,457.334,0.173c-107.728,0-206.75,37.148-284.903,99.293
	c81.549-6.828,192.817-14.412,284.838-14.412C549.346,85.054,660.688,92.646,742.251,99.479z"/>
</svg>
