<?xml version="1.0" encoding="utf-8"?>
<!-- Generator: Adobe Illustrator 15.0.0, SVG Export Plug-In . SVG Version: 6.00 Build 0)  -->
<!DOCTYPE svg PUBLIC "-//W3C//DTD SVG 1.1//EN" "http://www.w3.org/Graphics/SVG/1.1/DTD/svg11.dtd">
<svg version="1.1" id="Layer_1" xmlns="http://www.w3.org/2000/svg" xmlns:xlink="http://www.w3.org/1999/xlink" x="0px" y="0px"
	 width="35px" height="13px" viewBox="0 0 35 13" enable-background="new 0 0 35 13" xml:space="preserve">
<polygon fill="#EFEFEF" points="35.109,12.974 30.963,0 30.161,0 29.788,0 29.001,0 25.021,12.394 21.063,0 20.259,0 19.891,0 
	19.104,0 15.123,12.394 11.163,0 9.987,0 14.149,12.974 14.938,12.974 15.308,12.974 16.112,12.974 20.073,0.58 24.052,12.974 
	24.839,12.974 25.208,12.974 26.01,12.974 29.975,0.58 33.95,12.974 "/>
<path fill="#EFEFEF" d="M7.59,11.783c-0.763,0.762-1.891,1.182-3.241,1.182H0V0h4.349C5.7,0,6.828,0.419,7.59,1.184
	C8.902,2.495,8.851,4.552,8.851,6.3C8.851,8.049,8.903,10.47,7.59,11.783 M6.854,1.966C6.121,1.218,5.14,0.985,4.121,0.985H1.048
	v10.994H4.12c1.019,0,2-0.232,2.733-0.983C7.87,9.963,7.797,7.711,7.797,6.303C7.797,4.894,7.87,3.003,6.854,1.966"/>
</svg>
