<?xml version="1.0" encoding="utf-8"?>
<!-- Generator: Adobe Illustrator 16.0.0, SVG Export Plug-In . SVG Version: 6.00 Build 0)  -->
<!DOCTYPE svg PUBLIC "-//W3C//DTD SVG 1.1//EN" "http://www.w3.org/Graphics/SVG/1.1/DTD/svg11.dtd">
<svg version="1.1" id="Calque_1" xmlns="http://www.w3.org/2000/svg" xmlns:xlink="http://www.w3.org/1999/xlink" x="0px" y="0px"
	 width="382px" height="119px" viewBox="0 0 382 119" enable-background="new 0 0 382 119" xml:space="preserve">
<rect fill="#FFFFFF" width="382" height="119"/>
<g enable-background="new    ">
	<path fill="#4D4D4D" d="M17.044,109.411v-2.73c3.16-0.359,3.16-0.717,3.16-2.801V64.09c0-2.084,0-2.514-3.16-2.801v-2.73h7.039
		l8.762,7.541l8.763-7.541h7.039v2.73c-3.16,0.287-3.16,0.717-3.16,2.801v39.789c0,2.084,0,2.441,3.16,2.801v2.73H38.95v-2.73
		c2.945-0.359,2.945-0.861,2.945-2.801V62.366l-9.05,8.045l-9.049-8.045v41.514c0,1.939,0,2.441,2.944,2.801v2.73H17.044z"/>
	<path fill="#4D4D4D" d="M53.318,109.411v-2.73c2.945-0.359,2.945-0.717,2.945-2.801V64.09c0-2.084,0-2.514-2.945-2.801v-2.73H66.39
		c6.249,0,8.116,2.513,8.116,5.89c0,2.227-0.79,4.668-4.166,5.602c0,7.039,0.862,23.055,2.658,29.734
		c1.293,4.955,2.514,6.535,4.956,6.895v2.73h-5.458c-0.934-2.084-1.867-4.381-2.801-7.9c-2.298-8.619-2.945-24.061-2.945-31.244
		h-6.895v33.613c0,1.939,0,2.441,2.945,2.801v2.73H53.318z M66.39,67.106c2.873,0,4.31-0.646,4.31-2.729
		c0-1.867-1.939-2.658-4.31-2.658h-6.536v5.387H66.39z"/>
	<path fill="#4D4D4D" d="M124.643,68.256c0.144,0.43,0.287,1.004,0.287,1.436c0,5.961-4.524,8.834-8.116,9.049v0.145
		c3.16,1.867,5.961,4.885,5.961,13.646c0,8.188-3.448,17.74-12.21,17.74c-6.68,0-13.144-7.613-13.144-21.26
		c0-11.707,4.812-17.668,9.337-19.32v-0.145c-2.227-0.357-4.74-1.363-4.74-5.242c0-3.734,2.657-6.608,6.967-6.608
		c1.58,0,2.945,0.359,4.022,1.077l2.083-0.861l2.083,1.077l-1.939,5.602h-1.508c-0.288-1.221-1.005-3.734-4.453-3.734
		c-2.514,0-4.094,1.436-4.094,3.303c0,1.223,0.934,3.736,5.817,3.736c0.718,0,1.437-0.145,2.155-0.217v3.664
		c-7.685,0.143-12.569,6.105-12.569,17.453c0,12.209,5.53,18.314,10.199,18.314c3.807,0,8.834-4.668,8.834-14.58
		c0-6.033-2.442-11.994-7.039-11.994c-2.801,0-5.027,2.227-5.027,8.043c0,4.67,1.221,6.25,2.873,6.25
		c1.292,0,2.011-1.508,2.011-2.514h2.729c0,2.656-1.293,5.674-5.1,5.674c-2.945,0-5.674-2.084-5.674-9.338
		c0-13.287,9.193-10.055,14.221-13.287c2.658-1.723,3.448-3.662,3.448-5.242L124.643,68.256z"/>
	<path fill="#4D4D4D" d="M143.392,109.411v-2.73c3.16-0.359,3.16-0.717,3.16-2.801V64.09c0-2.084,0-2.514-3.16-2.801v-2.73h7.039
		l8.763,7.541l8.762-7.541h7.039v2.73c-3.16,0.287-3.16,0.717-3.16,2.801v39.789c0,2.084,0,2.441,3.16,2.801v2.73h-9.696v-2.73
		c2.944-0.359,2.944-0.861,2.944-2.801V62.366l-9.049,8.045l-9.05-8.045v41.514c0,1.939,0,2.441,2.944,2.801v2.73H143.392z"/>
	<path fill="#4D4D4D" d="M190.368,64.305c-2.37-2.082-3.304-3.16-4.669-3.16c-1.364,0-2.082,1.006-2.082,2.082
		c0,2.516,3.016,6.105,7.469,14.293c3.448,6.25,7.686,14.51,7.686,21.477c0,7.254-4.812,11.275-10.271,11.275
		c-1.939,0-4.166-0.789-5.53-1.652l-1.293,0.791h-1.867l-1.006-7.9l2.299-0.863c1.293,2.873,2.873,6.178,7.397,6.178
		c3.806,0,6.679-3.232,6.679-7.254c0-6.248-3.59-13.574-6.967-19.68c-4.955-9.338-8.188-13.504-8.188-17.094
		c0-3.233,1.939-5.1,5.027-5.1c0.575,0,1.078,0.072,1.652,0.144l1.293-0.934h2.154l2.586,6.537L190.368,64.305z"/>
	<path fill="#4D4D4D" d="M232.317,109.411v-2.73c2.012-0.215,3.232,0,3.592-3.088l3.592-33.9c0.287-2.514,0.646-5.746,0.646-6.967
		c0-1.078-0.719-1.293-2.873-1.436v-2.946c3.52,0.144,6.967,0.216,10.486,0.216c2.871,0,6.967-0.072,10.27-0.216v2.946
		c-2.012,0.143-2.873,0.215-2.873,1.436s0.359,4.453,0.646,6.967l4.021,33.9c0.359,3.088,1.582,2.873,3.162,3.088v2.73h-9.41v-2.73
		c1.797-0.143,2.801-0.143,2.801-1.867c-0.143-1.795-0.43-3.949-0.646-6.176l-3.375-29.16h-9.336l-3.018,29.16
		c-0.215,2.227-0.502,4.381-0.646,6.176c0,1.725,1.006,1.725,2.801,1.867v2.73H232.317z M243.307,66.317h8.617l-0.43-4.598h-7.686
		L243.307,66.317z"/>
	<path fill="#4D4D4D" d="M267.514,109.411v-2.73c3.16-0.359,3.16-0.717,3.16-2.801V64.09c0-2.084,0-2.514-3.16-2.801v-2.73h9.695
		v2.73c-2.945,0.287-2.945,0.717-2.945,2.801v42.16h7.471c3.088,0,3.879-1.58,4.955-3.16l2.299,1.436l-2.658,5.746
		c-1.004-0.359-2.369-0.574-3.807-0.646c-1.436-0.143-2.943-0.215-4.309-0.215H267.514z"/>
	<path fill="#4D4D4D" d="M292.797,109.411v-2.73c3.16-0.359,3.16-0.717,3.16-2.801V64.09c0-2.084,0-2.514-3.16-2.801v-2.73h9.695
		v2.73c-2.943,0.287-2.943,0.717-2.943,2.801v42.16h7.469c3.088,0,3.879-1.58,4.955-3.16l2.299,1.436l-2.656,5.746
		c-1.006-0.359-2.371-0.574-3.807-0.646c-1.438-0.143-2.945-0.215-4.311-0.215H292.797z"/>
	<path fill="#4D4D4D" d="M318.512,109.411v-2.73c3.232-0.359,3.232-0.717,3.232-2.801V64.09c0-2.084,0-2.514-3.232-2.801v-2.73
		h8.689c1.725,0,4.525,0,7.111-1.077l2.586,4.883l-2.154,1.221c-1.15-0.934-1.725-1.867-4.094-1.867h-5.316v6.178h6.752
		c2.371,0,2.586-0.791,2.658-2.012h2.154v7.182h-2.154c-0.217-1.076-0.504-2.01-2.514-2.01h-6.896v35.193h7.398
		c3.305,0,3.807-1.51,5.027-3.018l2.154,1.438l-2.584,5.602c-1.365-0.359-3.09-0.574-4.885-0.719
		c-1.725-0.143-3.447-0.143-4.74-0.143H318.512z"/>
	<path fill="#4D4D4D" d="M343.077,106.68c2.945-0.359,2.945-0.717,2.945-2.801V64.09c0-2.084,0-2.514-2.945-2.801v-2.73h6.537v0.718
		c0,1.221,0.143,1.366,1.221,1.94l11.707,6.535V64.09c0-2.084,0-2.514-2.945-2.801v-2.73h9.48v2.73
		c-2.943,0.287-2.943,0.717-2.943,2.801v39.789c0,1.939,0,2.441,2.943,2.801v2.73h-9.48v-2.73c2.945-0.359,2.945-0.717,2.945-2.801
		V71.417l-12.928-7.326v39.789c0,1.939,0,2.441,2.943,2.801v2.73h-9.48V106.68z"/>
</g>
<polyline fill="none" stroke="#000000" stroke-miterlimit="10" points="185.012,8.959 173.17,19.221 185.012,39.746 "/>
<polyline fill="none" stroke="#000000" stroke-miterlimit="10" points="185.012,8.959 196.852,19.221 185.012,39.746 "/>
<polyline fill="none" stroke="#000000" stroke-miterlimit="10" points="185.012,8.959 202.354,17.315 185.381,39.024 "/>
<polyline fill="none" stroke="#000000" stroke-miterlimit="10" points="184.592,8.959 167.248,17.315 184.223,39.024 "/>
<polyline fill="none" stroke="#000000" stroke-miterlimit="10" points="185.012,8.959 179.09,20.405 185.012,39.746 "/>
<polyline fill="none" stroke="#000000" stroke-miterlimit="10" points="185.012,8.959 190.932,20.405 185.012,39.746 "/>
</svg>
