<?xml version="1.0" encoding="utf-8"?>
<!-- Generator: Adobe Illustrator 16.0.0, SVG Export Plug-In . SVG Version: 6.00 Build 0)  -->
<!DOCTYPE svg PUBLIC "-//W3C//DTD SVG 1.1//EN" "http://www.w3.org/Graphics/SVG/1.1/DTD/svg11.dtd">
<svg version="1.1" id="Calque_1" xmlns="http://www.w3.org/2000/svg" xmlns:xlink="http://www.w3.org/1999/xlink" x="0px" y="0px"
	 width="914.683px" height="766.976px" viewBox="0 0 914.683 766.976" enable-background="new 0 0 914.683 766.976"
	 xml:space="preserve">
<path fill="#A9DDF3" d="M355.777,11.294C152.076,57.356,0,239,0,456.072c0,120.156,46.614,229.442,122.771,310.903h233.007V11.294z"
	/>
<path fill="#A9DDF3" d="M791.919,766.976c76.154-81.46,122.764-190.748,122.764-310.903c0-194.079-121.567-359.836-292.905-425.696
	v736.6H791.919z"/>
<polygon fill="#FFFFFF" points="287.777,572.365 287.777,677.729 347.459,614.621 464.513,630.619 471.438,675.938 480.963,736.365 
	521.995,628.923 548.448,656.62 640.531,753 577.477,592.937 667.879,614.621 644.106,517.477 710.777,484.964 710.777,477.865 
	649.232,422.6 710.438,395.048 761.562,371.976 710.438,371.976 551.008,371.976 608.111,280.156 562.065,300.859 582.484,180.308 
	548.438,255.663 521.99,314.236 518.878,219.908 505.833,290.365 492.288,268.601 473.292,328.419 471.438,312.418 459.275,196.865 
	439.444,272.157 355.771,130.865 406.46,318.245 347.43,257.69 386.951,354.058 239.603,282.365 297.004,422.697 224.577,433.768 
	274.98,475.918 190.777,565.342 190.777,565.634 "/>
<path fill="#333333" d="M621.777,766.976v-736.6C570.747,10.761,515.306,0,457.342,0c-4.202,0-8.39,0.061-12.564,0.173v766.803
	H621.777z"/>
<path fill="#4D4D4D" d="M444.777,766.976V0.173c-30.506,0.821-60.266,4.624-89,11.121v755.682H444.777z"/>
<polygon display="none" fill="none" points="761.562,371.976 710.438,371.976 551.008,371.976 608.111,280.156 562.065,300.859 
	582.484,180.308 548.438,255.663 521.99,314.236 518.878,219.908 505.833,290.365 492.288,268.601 473.292,328.419 471.438,312.418 
	459.275,196.865 439.444,272.157 355.771,130.865 406.46,318.245 347.43,257.69 386.951,354.058 239.603,282.365 297.004,422.697 
	224.577,433.768 274.98,475.918 190.519,565.616 287.777,572.365 287.777,677.729 347.459,614.621 464.513,630.619 471.438,675.938 
	480.963,736.365 521.995,628.923 548.448,656.62 640.531,753 577.477,592.937 667.879,614.621 644.106,517.477 710.777,484.964 
	710.777,477.865 649.232,422.6 710.438,395.048 "/>
<path display="none" fill="#4D4D4D" d="M742.251,99.479C664.096,37.327,565.067,0.173,457.334,0.173
	c-107.728,0-206.75,37.148-284.903,99.293c81.549-6.828,192.817-14.412,284.838-14.412
	C549.346,85.054,660.688,92.646,742.251,99.479z"/>
<path fill="#999999" d="M355.777,766.976h89h177h170.142c33.749-36.101,61.689-77.67,82.349-123.225l-50.097-0.456l-34.194-39.643
	L731,643.295l-44.564-29.174l-41.032,71.218l-21.839-61.152l-23.567,65.839l-39.435-43.078l-14.318,61.913l-40.025-105.208
	l-38.191,50.202l-30.478-17.438l-25.657,43.058l-23.545-101.747l-31.338,69.22l-71.811-10.53l-30.926-35.528l-51.1,35.528
	l-169.306-7.846c21.133,51.521,51.44,98.331,88.904,138.404H355.777z"/>
<polygon fill="#808080" points="565.656,773.556 503.454,609.476 465.832,658.931 "/>
<polygon fill="#808080" points="436.277,637.161 470.126,754.298 411.002,679.577 "/>
<polygon fill="#808080" points="560.277,649.976 663.277,763.073 546.173,710.968 "/>
<polygon fill="none" points="190.777,565.634 190.777,565.342 190.519,565.616 "/>
</svg>
