<?xml version="1.0" encoding="utf-8"?>
<!-- Generator: Adobe Illustrator 16.0.0, SVG Export Plug-In . SVG Version: 6.00 Build 0)  -->
<!DOCTYPE svg PUBLIC "-//W3C//DTD SVG 1.1//EN" "http://www.w3.org/Graphics/SVG/1.1/DTD/svg11.dtd">
<svg version="1.1" xmlns="http://www.w3.org/2000/svg" xmlns:xlink="http://www.w3.org/1999/xlink" x="0px" y="0px"
	 width="915.683px" height="769.411px" viewBox="0 0 915.683 769.411" enable-background="new 0 0 915.683 769.411"
	 xml:space="preserve">
<g id="Calque_1">
	<ellipse fill="#A9DDF3" cx="457.341" cy="456.073" rx="457.341" ry="456.073"/>
	<ellipse fill="#A9DDF3" cx="458.341" cy="456.073" rx="457.341" ry="456.073"/>
	<path fill="#999999" d="M822.784,573.469c-13.085,0-25.883,0.569-38.294,1.646c-52.355-26.501-135.757-43.646-229.706-43.646
		c-86.632,0-164.297,14.578-216.919,37.627c-38.804-7.435-82.651-11.627-129.081-11.627c-72.819,0-139.292,10.306-189.893,27.278
		C38.6,654.976,178.875,775.47,208.784,775.47c86.631,0,539.265-13.009,586.216-10.714c46.591-52.119,84.651-114.704,103.41-184.108
		C874.287,576.081,850.45,573.469,822.784,573.469z"/>
	<path fill="#999999" d="M535.167,506.469c0,0-1.102-63.149-38.847-93h19.421c0,0,5.408-62.781-40.541-80h14.276
		c0,0-1.678-51.827-40.905-51.827c-39.227,0-42.553,51.827-42.553,51.827h17.013c-46.498,17.219-43.086,80-43.086,80h22.643
		c-38.695,29.851-41.804,93-41.804,93h75v45h0.15c0.153,6,5.573,11.98,12.253,11.98c6.678,0,12.099-5.98,12.251-11.98h0.346v-45
		H535.167z"/>
	<path fill="#999999" d="M330.923,521.469c0,0-1.137-65.136-40.044-96h19.977c0,0,5.661-65.75-42.875-83h15.743
		c0,0-1.733-53.538-42.255-53.538c-40.522,0-43.957,53.538-43.957,53.538h18.579c-49.084,17.25-45.514,83-45.514,83h23.303
		c-39.889,30.864-43.096,96-43.096,96h78v46h-0.369c0.158,7,5.757,12.377,12.656,12.377s12.499-5.377,12.657-12.377h0.056v-46
		H330.923z"/>
	<path fill="#666666" d="M237.233,536.469c0,0-1.433-81.945-50.299-121h24.963c0,0,7.195-83.53-54.695-105h20.438
		c0,0-2.188-67.599-53.353-67.599s-55.501,67.599-55.501,67.599H92.81c-62.573,21.47-58.034,105-58.034,105H63.93
		c-50.108,39.055-54.146,121-54.146,121h98v58h0.019c0.2,8.663,7.271,15.627,15.981,15.627s15.781-6.964,15.981-15.627h0.019v-58
		H237.233z"/>
	<path fill="#666666" d="M448.183,520.469c0,0-1.302-74.259-45.458-110h22.354c0,0,6.628-76.827-50.589-96h19.352
		c0,0-1.996-61.64-48.649-61.64c-46.654,0-50.609,61.64-50.609,61.64h22.632c-57.827,19.173-53.643,96-53.643,96h26.167
		c-45.292,35.741-48.955,110-48.955,110h89v53h0.379c0.182,8,6.629,14.249,14.571,14.249c7.943,0,14.391-6.249,14.572-14.249h0.478
		v-53H448.183z"/>
	<path fill="#666666" d="M558.784,535.469h90.898c0,0-1.338-76.724-47.194-113h23.59c0,0,6.75-78.278-51.452-98h19.536
		c0,0-2.038-62.977-49.704-62.977c-47.667,0-51.708,62.977-51.708,62.977h22.886c-58.829,19.722-54.569,98-54.569,98h27.505
		c-47.01,36.276-50.787,113-50.787,113h91v54h0.318c0.186,8,6.772,14.559,14.888,14.559s14.702-6.559,14.888-14.559h-0.094V535.469z
		"/>
	<path fill="#999999" d="M793.934,399.469h24.963c0,0,7.195-83.53-54.695-105h20.438c0,0-2.188-67.599-53.353-67.599
		c-51.165,0-55.502,67.599-55.502,67.599h24.025c-62.573,21.47-58.034,105-58.034,105h29.155c-50.108,39.055-54.146,121-54.146,121
		h94v58h0.02c0.199,8.663,7.27,15.627,15.98,15.627s15.781-6.964,15.98-15.627h0.02v-58h101.449
		C844.233,520.469,842.8,438.524,793.934,399.469z"/>
</g>
<g id="Calque_2">
</g>
</svg>
