<?xml version="1.0" encoding="utf-8"?>
<!-- Generator: Adobe Illustrator 16.0.0, SVG Export Plug-In . SVG Version: 6.00 Build 0)  -->
<!DOCTYPE svg PUBLIC "-//W3C//DTD SVG 1.1//EN" "http://www.w3.org/Graphics/SVG/1.1/DTD/svg11.dtd">
<svg version="1.1" id="Calque_1" xmlns="http://www.w3.org/2000/svg" xmlns:xlink="http://www.w3.org/1999/xlink" x="0px" y="0px"
	 width="915.683px" height="623.508px" viewBox="0 0 915.683 623.508" enable-background="new 0 0 915.683 623.508"
	 xml:space="preserve">
<path fill="#A9DDF3" d="M337.865,569.096c52.622-23.049,130.287-37.627,216.919-37.627c93.949,0,177.35,17.145,229.705,43.646
	c12.412-1.078,25.209-1.646,38.295-1.646c27.666,0,51.502,2.611,75.625,7.18c11.249-39.598,17.271-81.386,17.271-124.576
	C915.681,204.191,710.923,0,458.341,0C205.759,0,1,204.191,1,456.073c0,44.622,6.433,87.744,18.413,128.503
	c50.537-16.868,116.8-27.106,189.372-27.106C255.214,557.469,299.061,561.661,337.865,569.096z"/>
<path fill="#999999" d="M898.383,580.743c0.009-0.031,0.018-0.062,0.026-0.094c-24.123-4.568-47.959-7.18-75.625-7.18
	c-13.086,0-25.883,0.568-38.295,1.646c-52.355-26.502-135.756-43.646-229.705-43.646c-86.633,0-164.298,14.578-216.919,37.627
	c-38.804-7.436-82.651-11.627-129.081-11.627c-72.572,0-138.835,10.238-189.372,27.106c2.875,9.781,6.066,19.429,9.569,28.926
	c1.338,3.28,2.761,6.624,4.245,10.007h850.642c5.492-13.865,10.328-28.06,14.456-42.553
	C898.343,580.884,898.364,580.814,898.383,580.743z"/>
<path fill="#999999" d="M535.167,506.469c0,0-1.102-63.148-38.848-93h19.422c0,0,5.408-62.782-40.541-80h14.275
	c0,0-1.678-51.827-40.905-51.827s-42.553,51.827-42.553,51.827h17.013c-46.498,17.219-43.086,80-43.086,80h22.643
	c-38.695,29.852-41.804,93-41.804,93h75v45h0.149c0.153,6,5.573,11.98,12.253,11.98c6.679,0,12.1-5.98,12.25-11.98h0.348v-45
	H535.167z"/>
<path fill="#999999" d="M330.923,521.469c0,0-1.137-65.137-40.044-96h19.977c0,0,5.661-65.75-42.875-83h15.743
	c0,0-1.733-53.538-42.255-53.538c-40.522,0-43.957,53.538-43.957,53.538h18.579c-49.084,17.25-45.514,83-45.514,83h23.303
	c-39.889,30.863-43.096,96-43.096,96h78v46h-0.369c0.158,7,5.757,12.377,12.656,12.377c6.899,0,12.499-5.377,12.657-12.377h0.056
	v-46H330.923z"/>
<path fill="#666666" d="M237.233,536.469c0,0-1.433-81.945-50.299-121h24.963c0,0,7.195-83.53-54.695-105h20.438
	c0,0-2.188-67.599-53.353-67.599s-55.501,67.599-55.501,67.599H92.81c-62.573,21.471-58.034,105-58.034,105H63.93
	c-50.108,39.055-54.146,121-54.146,121h98v58h0.019c0.2,8.662,7.271,15.627,15.981,15.627s15.781-6.965,15.981-15.627h0.019v-58
	H237.233z"/>
<path fill="#666666" d="M448.183,520.469c0,0-1.302-74.26-45.458-110h22.354c0,0,6.628-76.828-50.589-96h19.352
	c0,0-1.996-61.64-48.649-61.64c-46.654,0-50.609,61.64-50.609,61.64h22.632c-57.827,19.173-53.643,96-53.643,96h26.167
	c-45.292,35.74-48.955,110-48.955,110h89v53h0.379c0.182,8,6.629,14.248,14.571,14.248c7.943,0,14.391-6.248,14.572-14.248h0.478
	v-53H448.183z"/>
<path fill="#666666" d="M558.785,535.469h90.896c0,0-1.338-76.725-47.193-113h23.59c0,0,6.75-78.278-51.451-98h19.535
	c0,0-2.037-62.977-49.703-62.977c-47.668,0-51.709,62.977-51.709,62.977h22.887c-58.83,19.723-54.568,98-54.568,98h27.504
	c-47.009,36.275-50.787,113-50.787,113h91v54h0.318c0.186,8,6.771,14.559,14.889,14.559c8.115,0,14.701-6.559,14.887-14.559h-0.094
	V535.469L558.785,535.469z"/>
<path fill="#999999" d="M793.933,399.469h24.965c0,0,7.193-83.53-54.695-105h20.438c0,0-2.188-67.599-53.354-67.599
	c-51.164,0-55.502,67.599-55.502,67.599h24.025c-62.572,21.471-58.033,105-58.033,105h29.154c-50.107,39.055-54.146,121-54.146,121
	h94v58h0.02c0.199,8.662,7.271,15.627,15.98,15.627c8.711,0,15.781-6.965,15.98-15.627h0.02v-58h101.449
	C844.234,520.469,842.8,438.524,793.933,399.469z"/>
<g id="Calque_2">
</g>
<path fill="#999999" d="M125.766,769.411c1.198,1.191,2.384,2.345,3.543,3.416c-1.093-1.129-2.169-2.275-3.251-3.416H125.766z"/>
<path fill="#999999" d="M18.891,584.747c2.462,8.772,5.9,18.48,10.09,28.755c-3.503-9.497-6.694-19.145-9.569-28.926
	C19.24,584.633,19.063,584.689,18.891,584.747z"/>
<path fill="#999999" d="M795,764.756c0.055-0.061,0.107-0.123,0.162-0.184c-0.057,0.062-0.114,0.122-0.171,0.184
	C794.994,764.756,794.997,764.756,795,764.756z"/>
</svg>
