<?xml version="1.0" encoding="utf-8"?>
<!-- Generator: Adobe Illustrator 16.0.0, SVG Export Plug-In . SVG Version: 6.00 Build 0)  -->
<!DOCTYPE svg PUBLIC "-//W3C//DTD SVG 1.1//EN" "http://www.w3.org/Graphics/SVG/1.1/DTD/svg11.dtd">
<svg version="1.1" id="Calque_1" xmlns="http://www.w3.org/2000/svg" xmlns:xlink="http://www.w3.org/1999/xlink" x="0px" y="0px"
	 width="175.588px" height="182.952px" viewBox="0 0 175.588 182.952" enable-background="new 0 0 175.588 182.952"
	 xml:space="preserve">
<path fill="#E0A0E0" d="M173.684,2.606c-2.7-2.942-7.275-3.137-10.217-0.437c-2.069,1.899-2.773,4.724-2.074,7.257l-33.023,30.315
	l-0.218,0.18c-6.597-6.514-17.203-6.787-24.107-0.449c-0.124,0.114-0.231,0.24-0.352,0.357l-0.018-0.019L5.697,129.752l0.018,0.02
	c-6.768,6.574-7.128,17.372-0.707,24.369c0.199,0.216,0.402,0.427,0.609,0.63c0.191,0.188,0.396,0.354,0.593,0.531l19.275,21.922
	l0.018-0.025c0.025,0.028,0.046,0.06,0.072,0.088c0.199,0.216,0.402,0.427,0.609,0.631c6.596,6.512,17.213,6.764,24.117,0.427
	l97.979-89.942c6.911-6.345,7.561-16.962,1.614-24.091c-0.18-0.215-0.365-0.427-0.557-0.635l-17.536-20.022L164.52,13.62
	c2.691,1.688,6.274,1.456,8.728-0.796C176.189,10.124,176.385,5.549,173.684,2.606z"/>
<path fill="#FFFFFF" d="M93.383,135.463c-3.328,3.105-8.544,2.928-11.651-0.4l-22.032-23.595c-3.107-3.329-2.929-8.544,0.398-11.651
	l47.809-44.642c3.328-3.106,8.544-2.928,11.651,0.399l22.032,23.597c3.106,3.326,2.929,8.544-0.399,11.65L93.383,135.463z"/>
</svg>
