<?xml version="1.0" encoding="utf-8"?>
<!-- Generator: Adobe Illustrator 16.0.0, SVG Export Plug-In . SVG Version: 6.00 Build 0)  -->
<!DOCTYPE svg PUBLIC "-//W3C//DTD SVG 1.1//EN" "http://www.w3.org/Graphics/SVG/1.1/DTD/svg11.dtd">
<svg version="1.1" id="Calque_1" xmlns="http://www.w3.org/2000/svg" xmlns:xlink="http://www.w3.org/1999/xlink" x="0px" y="0px"
	 width="465.924px" height="387.733px" viewBox="0 0 465.924 387.733" enable-background="new 0 0 465.924 387.733"
	 xml:space="preserve">
<ellipse transform="matrix(0.9132 0.4075 -0.4075 0.9132 146.4308 -147.7693)" fill="#CCCCCC" cx="420.079" cy="269.837" rx="21.13" ry="35.268"/>
<path fill="#CCCCCC" d="M178.472,162.021c-7.938,17.79-23.009,28.351-33.663,23.597c-10.661-4.759-12.866-23.028-4.928-40.817
	c7.937-17.785,23.01-28.348,33.67-23.593C184.205,125.964,186.409,144.237,178.472,162.021z"/>
<g>
	
		<rect x="153.376" y="127.112" transform="matrix(0.9132 0.4075 -0.4075 0.9132 113.2009 -100.6929)" fill="#E9E0D6" width="279.189" height="176.546"/>
	<path fill="#E9E0D6" d="M388.361,334.316c-9.756,21.862-74.189,14.354-143.919-16.763
		c-69.727-31.112-118.345-74.054-108.588-95.918c9.757-21.865,74.189-14.363,143.916,16.753
		C349.499,269.504,398.119,312.451,388.361,334.316z"/>
	<path fill="#E9E0D6" d="M381.634,120.577c-10.63-43.221-125.303-45.652-180.805-44.255c-0.698,1.435-1.41,2.866-2.066,4.338
		c-30.848,69.129,1.324,150.682,71.865,182.16c69.614,31.064,150.531,1.725,182.296-65.485
		C426.044,181.838,390.18,155.32,381.634,120.577z"/>
	<path fill="#E9E0D6" d="M213.662,215.62c-27.03-38.396-33.908-89.08-13.678-134.415l-62.909,140.974
		C143.516,207.744,173.783,206.12,213.662,215.62z"/>
</g>
<path fill="#E9E0D6" d="M454.209,194.65c-30.85,69.129-113.043,99.647-183.582,68.17c-70.541-31.478-102.712-113.031-71.865-182.16
	c30.85-69.132,113.035-99.653,183.575-68.175C452.877,43.962,485.059,125.519,454.209,194.65z"/>
<rect x="121.921" y="282.177" transform="matrix(0.9132 0.4075 -0.4075 0.9132 139.1939 -81.7563)" fill="#FBB03B" width="279.19" height="7.392"/>
<path fill="#E9E0D6" d="M136.325,221.845l-0.862,1.932l-0.329-0.146C135.386,222.844,136.057,222.448,136.325,221.845z"/>
<path fill="#E9E0D6" d="M199.249,79.571l-0.486,1.088c0.163-0.365,0.343-0.717,0.512-1.076L199.249,79.571z"/>
<path fill="#E9E0D6" d="M343.692,274.159c2.922,2.063,4.235,3.453,8.416,6.176l3.601-8.068
	C350.253,272.401,347.733,273.707,343.692,274.159z"/>
<path fill="#FFDA6A" d="M381.432,120.487c3.756,15.273,14.382,29.665,23.833,40.725l40.926-91.709
	c-12.826-23.649-36.079-44.625-64.055-57.108c-69.037-30.807-149.202-2.202-181.508,63.838
	C256.127,74.833,370.804,77.266,381.432,120.487z"/>
<path fill="#363943" d="M454.695,193.562l-0.04-0.017c-0.156,0.366-0.283,0.741-0.445,1.104L454.695,193.562z"/>
<g>
	<path fill="#FFDA6A" d="M382.338,12.484c-69.034-30.806-149.199-2.2-181.509,63.837l-35.338,82.179
		c36.014,32.93,152.136,33.2,159.463,62.995c8.549,34.742,82.616,0.643,109.496,16.139c0.424-0.899,19.352-42.072,19.76-42.985
		C485.059,125.519,452.877,43.962,382.338,12.484z"/>
	<path fill="#FFDA6A" d="M453.421,196.22c0.425-0.901,1.127-2.33,1.534-3.241c0.162-0.364-1.308,2.837,0.695-1.663l-24.405-10.891
		C437.788,188.741,446.272,192.099,453.421,196.22z"/>
</g>
<path fill="#E9E0D6" d="M212.44,215.074c14.184,20.148,33.914,36.913,58.188,47.746c23.971,10.698,49.283,14.229,73.466,11.52
	c-17.718-12.488-39.694-24.959-64.325-35.951C256.066,227.812,232.979,219.968,212.44,215.074z"/>
<path fill="#BFA450" d="M337.515,120.586c-18.001,40.338-65.29,58.445-105.625,40.445c-40.337-17.999-58.449-65.29-40.448-105.629
	C209.44,15.068,256.735-3.042,297.075,14.96C337.409,32.959,355.514,80.252,337.515,120.586z"/>
<rect x="371.483" y="351.723" transform="matrix(-0.4075 0.9132 -0.9132 -0.4075 863.0781 143.4826)" fill="#666666" width="27.021" height="0"/>
<polygon fill="#666666" points="135.543,225.612 127.088,244.56 53.158,313.388 43.892,387.733 63.198,387.733 88.176,387.733 
	304.183,387.733 323.974,343.381 336.509,315.292 "/>
<path opacity="0.1" fill="#363943" d="M391.224,337.76c0,0,62.49-141.161,62.065-140.263l1.35-3.961
	c18.053-41.424,12.235-87.768-8.448-124.034l-40.926,91.709l-3.83,8.584l-45.727,102.47l-3.601,8.068l-14.874,33.332l-0.725,1.626
	l53.99,24.093L391.224,337.76z"/>
<polygon fill="#666666" points="304.183,387.733 345.9,387.733 334.543,344.718 375.708,349.743 379.487,364.06 390.499,339.385 
	336.509,315.292 323.974,343.381 "/>
<polygon opacity="0.1" fill="#363943" points="304.183,387.733 345.9,387.733 334.543,344.718 375.708,349.743 379.487,364.06 
	390.499,339.385 336.509,315.292 323.974,343.381 "/>
<polygon fill="#666666" points="385.737,387.733 379.488,364.061 368.925,387.733 "/>
<rect x="374.205" y="362.936" fill="#666666" width="0.001" height="25.922"/>
<polygon fill="#666666" points="375.708,349.743 334.543,344.718 345.9,387.733 368.923,387.733 379.487,364.06 "/>
</svg>
