<?xml version="1.0" encoding="utf-8"?>
<!-- Generator: Adobe Illustrator 16.0.0, SVG Export Plug-In . SVG Version: 6.00 Build 0)  -->
<!DOCTYPE svg PUBLIC "-//W3C//DTD SVG 1.1//EN" "http://www.w3.org/Graphics/SVG/1.1/DTD/svg11.dtd">
<svg version="1.1" id="Calque_1" xmlns="http://www.w3.org/2000/svg" xmlns:xlink="http://www.w3.org/1999/xlink" x="0px" y="0px"
	 width="338.556px" height="98.101px" viewBox="0 0 338.556 98.101" enable-background="new 0 0 338.556 98.101"
	 xml:space="preserve">
<g>
	
		<rect x="54.814" y="57.497" transform="matrix(0.5335 0.8458 -0.8458 0.5335 91.1714 -22.3134)" fill="#1A1A1A" width="22" height="28.001"/>
	
		<rect x="1.924" y="87.326" transform="matrix(0.2011 0.9796 -0.9796 0.2011 95.8666 68.0421)" fill="#1A1A1A" width="8.591" height="10.935"/>
	
		<rect x="105.814" y="44.497" transform="matrix(0.8992 0.4376 -0.4376 0.8992 33.7451 -44.4471)" fill="#1A1A1A" width="15" height="13.001"/>
	
		<rect x="183.814" y="57.498" transform="matrix(-0.7901 -0.613 0.613 -0.7901 301.1193 235.1097)" fill="#1A1A1A" width="14" height="17"/>
	
		<rect x="263.814" y="1.497" transform="matrix(0.8121 0.5836 -0.5836 0.8121 54.7984 -155.1675)" fill="#1A1A1A" width="9" height="12"/>
	
		<rect x="320.814" y="30.498" transform="matrix(-0.7901 -0.613 0.613 -0.7901 562.9125 270.7567)" fill="#1A1A1A" width="14" height="17"/>
</g>
</svg>
