<?xml version="1.0" encoding="utf-8"?>
<!-- Generator: Adobe Illustrator 16.0.0, SVG Export Plug-In . SVG Version: 6.00 Build 0)  -->
<!DOCTYPE svg PUBLIC "-//W3C//DTD SVG 1.1//EN" "http://www.w3.org/Graphics/SVG/1.1/DTD/svg11.dtd">
<svg version="1.1" xmlns="http://www.w3.org/2000/svg" xmlns:xlink="http://www.w3.org/1999/xlink" x="0px" y="0px"
	 width="136.485px" height="144.035px" viewBox="0 0 136.485 144.035" enable-background="new 0 0 136.485 144.035"
	 xml:space="preserve">
<g id="Calque_1">
	<ellipse opacity="0.1" fill="#1A1A1A" cx="68.243" cy="132.612" rx="68.243" ry="11.994"/>
	
		<ellipse transform="matrix(0.975 0.2222 -0.2222 0.975 11.8866 -23.5747)" fill="#CCCCCC" cx="110.699" cy="41.032" rx="3.812" ry="6.364"/>
	
		<ellipse transform="matrix(0.975 0.2222 -0.2222 0.975 7.5266 -11.0991)" fill="#CCCCCC" cx="53.089" cy="27.9" rx="3.813" ry="6.363"/>
	
		<rect x="41.202" y="60.343" transform="matrix(0.975 0.2223 -0.2223 0.975 20.2446 -13.6117)" fill="#8CC63F" width="58.794" height="45.596"/>
	
		<rect x="60.735" y="12.8" transform="matrix(0.2222 -0.975 0.975 0.2222 21.0267 110.7517)" fill="#E9E0D6" width="38.395" height="58.793"/>
	
		<rect x="92.152" y="66.077" transform="matrix(-0.975 -0.2222 0.2222 -0.975 169.3588 196.8051)" fill="#8CC63F" width="7.199" height="45.595"/>
	<path fill="#6B7285" d="M36.666,98.788l-0.586,2.516c-2.489,11.143,8.27,22.989,24.146,26.608
		c15.88,3.619,30.867-2.411,33.404-13.542l0.562-2.468L36.666,98.788z"/>
	<polygon opacity="0.1" points="107.261,54.579 100.242,52.979 99.977,54.145 97.309,65.848 104.327,67.447 106.995,55.744 	"/>
	
		<rect x="72.953" y="85.276" transform="matrix(0.2223 -0.975 0.975 0.2223 -12.1822 162.4783)" opacity="0.1" width="45.595" height="7.199"/>
	<path fill="#6B7285" d="M87.187,110.253l-3.478,15.258l0.497,0.114c4.671-2.628,8.355-6.559,9.425-11.255l0.574-2.519l-0.012,0.051
		l-7.019-1.6L87.187,110.253z"/>
	<path opacity="0.1" d="M87.187,110.253l-3.478,15.258l0.497,0.114c4.671-2.628,8.355-6.559,9.425-11.255l0.574-2.519l-0.012,0.051
		l-7.019-1.6L87.187,110.253z"/>
	
		<rect x="102.952" y="28.897" transform="matrix(0.975 0.2222 -0.2222 0.975 11.8849 -22.6397)" opacity="0.1" width="7.199" height="25.198"/>
	
		<ellipse transform="matrix(0.975 0.2224 -0.2224 0.975 9.5924 -13.4316)" opacity="0.1" cx="64.447" cy="35.885" rx="3.812" ry="5.159"/>
	
		<ellipse transform="matrix(0.975 0.2223 -0.2223 0.975 10.8483 -17.0339)" opacity="0.1" cx="81.106" cy="39.682" rx="3.812" ry="5.16"/>
	
		<ellipse transform="matrix(0.975 0.2221 -0.2221 0.975 9.4487 -13.4619)" fill="#F2F2F2" cx="64.584" cy="35.284" rx="3.812" ry="4.545"/>
	
		<ellipse transform="matrix(0.975 0.2223 -0.2223 0.975 10.7182 -17.0793)" fill="#F2F2F2" cx="81.243" cy="39.082" rx="3.812" ry="4.545"/>
	<g>
		<path fill="#754C24" d="M99.884,97.688c1.022-4.482-1.641-8.911-5.949-9.894c-4.308-0.982-8.628,1.856-9.65,6.338
			c-0.589,2.585,0.054,5.149,1.524,7.047c-0.052-0.852,0.015-1.751,0.222-2.663c0.887-3.888,3.942-6.508,6.824-5.851
			c2.882,0.656,4.499,4.342,3.613,8.23c-0.203,0.891-0.522,1.71-0.925,2.443C97.65,102.254,99.302,100.239,99.884,97.688z"/>
		<path fill="#603813" d="M92.854,92.665c-2.882-0.657-5.938,1.963-6.824,5.851c-0.207,0.912-0.273,1.812-0.222,2.663
			c1.081,1.395,2.604,2.432,4.426,2.847c1.856,0.424,3.712,0.135,5.309-0.687c0.402-0.733,0.722-1.553,0.925-2.443
			C97.354,97.007,95.736,93.321,92.854,92.665z"/>
		<path fill="#754C24" d="M89.202,102.214c0.533-2.341-0.932-4.67-3.271-5.202c-2.339-0.534-4.668,0.931-5.202,3.271
			c-0.307,1.349,0.054,2.692,0.858,3.692c-0.03-0.445,0.001-0.916,0.109-1.391c0.462-2.03,2.106-3.386,3.672-3.029
			s2.46,2.292,1.997,4.322c-0.105,0.464-0.277,0.891-0.491,1.271C88.013,104.592,88.898,103.544,89.202,102.214z"/>
		<path fill="#603813" d="M85.368,99.555c-1.565-0.356-3.21,0.999-3.672,3.029c-0.108,0.475-0.14,0.945-0.109,1.391
			c0.594,0.733,1.424,1.284,2.413,1.509c1.008,0.23,2.013,0.089,2.874-0.335c0.214-0.381,0.386-0.808,0.491-1.271
			C87.828,101.847,86.934,99.911,85.368,99.555z"/>
		<path fill="#754C24" d="M100.803,104.858c0.534-2.34-0.93-4.669-3.271-5.202c-2.338-0.533-4.667,0.931-5.201,3.271
			c-0.307,1.349,0.053,2.692,0.858,3.692c-0.033-0.446-0.001-0.916,0.107-1.392c0.463-2.029,2.107-3.386,3.673-3.029
			c1.565,0.357,2.459,2.292,1.996,4.322c-0.105,0.463-0.274,0.891-0.489,1.271C99.613,107.236,100.5,106.188,100.803,104.858z"/>
		<path fill="#603813" d="M96.97,102.199c-1.565-0.356-3.21,1-3.673,3.029c-0.108,0.476-0.141,0.945-0.107,1.392
			c0.592,0.733,1.422,1.283,2.411,1.509c1.008,0.229,2.014,0.087,2.876-0.336c0.215-0.381,0.384-0.809,0.489-1.271
			C99.429,104.491,98.535,102.557,96.97,102.199z"/>
		<path fill="#754C24" d="M87.162,84.661c-0.86,3.772,1.5,7.528,5.273,8.388c3.774,0.86,7.528-1.501,8.389-5.273
			c0.496-2.176-0.084-4.342-1.383-5.955c0.05,0.719,0,1.477-0.176,2.245c-0.745,3.271-3.396,5.459-5.922,4.884
			c-2.524-0.576-3.966-3.696-3.22-6.968c0.171-0.75,0.446-1.438,0.791-2.053C89.079,80.827,87.651,82.514,87.162,84.661z"/>
		<path fill="#754C24" d="M93.344,88.949c2.525,0.575,5.177-1.612,5.922-4.884c0.176-0.769,0.226-1.526,0.176-2.245
			c-0.955-1.185-2.293-2.069-3.891-2.434c-1.624-0.371-3.247-0.14-4.636,0.542c-0.345,0.614-0.62,1.303-0.791,2.053
			C89.378,85.253,90.819,88.373,93.344,88.949z"/>
		<path fill="#754C24" d="M102.137,83.935c1.042-0.852,1.195-2.385,0.344-3.428c-0.85-1.041-2.385-1.195-3.426-0.346
			c-0.601,0.491-0.906,1.211-0.893,1.931c0.141-0.209,0.314-0.406,0.527-0.579c0.903-0.738,2.099-0.773,2.668-0.074
			c0.568,0.697,0.297,1.859-0.607,2.6c-0.206,0.168-0.428,0.298-0.653,0.393C100.791,84.577,101.543,84.419,102.137,83.935z"/>
		<path fill="#603813" d="M101.357,81.438c-0.569-0.699-1.765-0.664-2.668,0.074c-0.213,0.173-0.387,0.37-0.527,0.579
			c0.008,0.527,0.188,1.057,0.546,1.498c0.367,0.448,0.861,0.73,1.389,0.841c0.226-0.095,0.447-0.225,0.653-0.393
			C101.654,83.298,101.926,82.136,101.357,81.438z"/>
		
			<ellipse transform="matrix(-0.522 -0.853 0.853 -0.522 68.9057 200.7382)" fill="#C69C6D" cx="90.705" cy="81.06" rx="0.749" ry="1.2"/>
		
			<ellipse transform="matrix(0.9751 0.2219 -0.2219 0.9751 21.0801 -18.2953)" fill="#F2F2F2" cx="91.966" cy="84.672" rx="0.636" ry="0.757"/>
		<path fill="#F2F2F2" d="M96.925,85.804c-0.093,0.407-0.445,0.674-0.788,0.596c-0.342-0.078-0.546-0.472-0.452-0.879
			c0.093-0.41,0.447-0.676,0.789-0.599C96.816,85,97.019,85.394,96.925,85.804z"/>
		
			<ellipse transform="matrix(-0.2225 0.9749 -0.9749 -0.2225 200.5704 15.7782)" opacity="0.2" cx="93.994" cy="87.867" rx="1.925" ry="2.291"/>
		
			<ellipse transform="matrix(-0.7686 0.6397 -0.6397 -0.7686 207.9084 109.0052)" fill="#754C24" cx="84.24" cy="92.104" rx="3.702" ry="1.634"/>
	</g>
	
		<ellipse transform="matrix(0.9749 0.2225 -0.2225 0.9749 9.5097 -13.0603)" fill="#42210B" cx="62.718" cy="35.675" rx="1.811" ry="2.158"/>
	
		<ellipse transform="matrix(0.975 0.2224 -0.2224 0.975 10.8614 -16.6298)" fill="#42210B" cx="79.276" cy="39.916" rx="1.811" ry="2.159"/>
	
		<ellipse transform="matrix(0.9749 0.2224 -0.2224 0.9749 9.2305 -12.883)" fill="#F2F2F2" cx="61.805" cy="34.534" rx="1.049" ry="1.25"/>
	
		<ellipse transform="matrix(0.975 0.2221 -0.2221 0.975 10.4734 -16.4697)" fill="#F2F2F2" cx="78.464" cy="38.332" rx="1.049" ry="1.251"/>
	<polygon fill="#8CC63F" points="95.062,103.126 92.622,97.729 110.396,85.613 99.75,72.058 103.843,67.592 118.956,86.836 	"/>
	<polygon fill="none" points="104.486,77.551 101.097,92.419 110.909,85.73 	"/>
	<polygon fill="#567EAF" points="92.622,97.729 92.673,97.839 92.712,97.667 	"/>
	<polygon opacity="0.1" points="99.425,100.153 101.173,91.899 92.622,97.729 95.062,103.126 	"/>
	<polyline fill="#8CC63F" points="103.843,67.592 99.75,72.058 104.354,77.919 	"/>
	<polygon opacity="0.1" points="99.707,72.047 104.375,78.036 106.085,70.536 103.779,67.577 	"/>
	<path fill="#E9E0D6" d="M96.214,103.051c-3.124,1.731-6.374,1.087-7.263-1.439c-0.889-2.523,0.925-5.976,4.046-7.708
		c3.122-1.729,6.375-1.087,7.263,1.438C101.147,97.868,99.337,101.32,96.214,103.051z"/>
	<polygon fill="#8CC63F" points="46.211,54.923 48.485,68.923 42.604,77.366 37.906,48.435 64.217,46.335 58.94,53.91 	"/>
	<polygon fill="#6B7285" points="51.358,68.308 48.403,64.38 52.862,61.47 55.816,65.396 	"/>
	<polygon fill="#8CC63F" points="82.312,120.696 79.283,122.553 77.035,119.383 80.062,117.526 	"/>
	<path fill="#FFDA6A" d="M89.059,2.33C73.043-1.321,57.888,5.239,55.21,16.985l58.027,13.109
		C115.82,18.384,105.027,5.971,89.059,2.33z"/>
	<path fill="#FFDA6A" d="M61.164,18.267C63.286,8.956,62.24,0.777,58.827,0l-7.653,33.721
		C54.583,34.448,59.049,27.547,61.164,18.267z"/>
	<path fill="#FFDA6A" d="M113.099,30.063l-25.195-9.332c-0.004,0.013-0.006,0.025-0.009,0.037
		c-2.123,9.312,7.612,19.469,21.972,22.741L113.099,30.063z"/>
	<ellipse transform="matrix(0.975 0.2223 -0.2223 0.975 12.6069 -13.8645)" cx="67.903" cy="49.08" rx="6.562" ry="2.992"/>
	<circle fill="#6B7285" cx="49.121" cy="101.952" r="5.95"/>
	<polyline fill="none" stroke="#6B7285" stroke-width="10" stroke-miterlimit="10" points="45.572,110.937 25.536,107.543 
		16.153,124.029 	"/>
	<path fill="#363943" d="M20.297,125.639c-1.604-2.024-4.039-3.014-6.804-3.014h-0.236c-4.073,0-7.493,2.399-8.551,5.999h15.591
		h1.745C21.702,127.425,21.101,126.596,20.297,125.639z"/>
	<polyline fill="none" stroke="#6B7285" stroke-width="10" stroke-miterlimit="10" points="61.017,121.753 41.619,115.698 
		30.106,130.775 	"/>
	<path fill="#363943" d="M36.704,130.692c-1.604-2.024-4.039-3.013-6.804-3.013h-0.236c-4.073,0-7.493,2.399-8.551,5.999h15.591
		h1.745C38.11,132.479,37.508,131.649,36.704,130.692z"/>
	<path fill="#F5ECE2" d="M66.566,53.653c-3.124,1.731-6.374,1.087-7.263-1.439c-0.889-2.523,0.924-5.976,4.045-7.708
		c3.123-1.729,6.375-1.087,7.264,1.438C71.5,48.471,69.689,51.922,66.566,53.653z"/>
	
		<ellipse transform="matrix(0.9035 0.4287 -0.4287 0.9035 53.9049 -5.4679)" fill="#E9E0D6" cx="39.092" cy="116.945" rx="2.192" ry="2.049"/>
</g>
<g id="Calque_2">
</g>
</svg>
