<?xml version="1.0" encoding="utf-8"?>
<!-- Generator: Adobe Illustrator 16.0.0, SVG Export Plug-In . SVG Version: 6.00 Build 0)  -->
<!DOCTYPE svg PUBLIC "-//W3C//DTD SVG 1.1//EN" "http://www.w3.org/Graphics/SVG/1.1/DTD/svg11.dtd">
<svg version="1.1" id="Calque_1" xmlns="http://www.w3.org/2000/svg" xmlns:xlink="http://www.w3.org/1999/xlink" x="0px" y="0px"
	 width="113px" height="171px" viewBox="0 0 113 171" enable-background="new 0 0 113 171" xml:space="preserve">
<ellipse opacity="0.1" fill="#4D4D4D" cx="56.5" cy="158.187" rx="56.5" ry="9.187"/>
<path fill="#CCCCCC" d="M36,67v86h0.025c0.253,2.803,2.606,5,5.475,5s5.222-2.197,5.475-5H47V67H36z"/>
<path fill="#CCCCCC" d="M36,67v86h0.025c0.253,2.803,2.606,5,5.475,5c0.905,0,1.747-0.238,2.5-0.626V67H36z"/>
<path fill="#CCCCCC" d="M44,67v90.374c1.633-0.841,2.802-2.456,2.975-4.374H47V67H44z"/>
<path opacity="0.2" d="M44,67v90.374c1.633-0.841,2.802-2.456,2.975-4.374H47V67H44z"/>
<path fill="#CCCCCC" d="M72,67v86h0.025c0.253,2.803,2.606,5,5.475,5s5.222-2.197,5.475-5H83V67H72z"/>
<path fill="#CCCCCC" d="M72,67v86h0.025c0.253,2.803,2.606,5,5.475,5c0.905,0,1.747-0.238,2.5-0.626V67H72z"/>
<path fill="#CCCCCC" d="M80,67v90.374c1.633-0.841,2.802-2.456,2.975-4.374H83V67H80z"/>
<path opacity="0.2" d="M80,67v90.374c1.633-0.841,2.802-2.456,2.975-4.374H83V67H80z"/>
<path fill="#B3B3B3" d="M113,70c0,6.627-5.373,12-12,12H12C5.373,82,0,76.627,0,70V12C0,5.373,5.373,0,12,0h89
	c6.627,0,12,5.373,12,12V70z"/>
<path fill="#B4CADE" d="M109,67.415C109,73.813,103.813,79,97.416,79H11.584C5.187,79,0,73.813,0,67.415v-55.83
	C0,5.187,5.187,0,11.584,0h85.832C103.813,0,109,5.187,109,11.585V67.415z"/>
<g>
	<path fill="#6F7B9A" d="M18.446,12.993c0,0.76-0.37,1.376-1.11,1.847c-0.754,0.491-1.76,0.736-3.018,0.736
		c-1.259,0-2.271-0.245-3.038-0.736c-0.74-0.478-1.11-1.094-1.11-1.847V8.047h1.211V12.7c0,0.572,0.251,1.009,0.752,1.312
		s1.229,0.455,2.186,0.455c0.955,0,1.68-0.152,2.175-0.455c0.494-0.303,0.741-0.739,0.741-1.312V8.047h1.212V12.993z"/>
	<path fill="#6F7B9A" d="M27.912,15.354h-1.807l-4.219-5.178v5.178h-1.211V9.147h1.805l4.221,5.18v-5.18h1.211V15.354z"/>
	<path fill="#6F7B9A" d="M41.77,15.354h-1.211l-0.03-5.107l-3.118,4.229l-3.109-4.27l-0.03,0.04v5.107H33.06V9.147h1.818
		l2.531,3.511l2.538-3.511h1.822V15.354z"/>
	<path fill="#6F7B9A" d="M50.571,15.354H43.89V9.147h6.449v1.09h-5.238v1.343h3.644v1.09h-3.644v1.595h5.471V15.354z M48.271,6.927
		l-1.252,1.676h-0.615L47.1,6.927H48.271z"/>
	<path fill="#6F7B9A" d="M58.474,10.237h-2.968v5.117h-1.211v-5.117h-2.968v-1.09h7.146V10.237z"/>
	<path fill="#6F7B9A" d="M60.996,15.354h-1.211V9.147h1.211V15.354z"/>
	<path fill="#6F7B9A" d="M69.797,15.354h-6.682V9.147h6.449v1.09h-5.238v1.343h3.644v1.09h-3.644v1.595h5.471V15.354z"/>
	<path fill="#6F7B9A" d="M78.669,15.354h-1.388l-1.625-2.281h-3.084v2.281h-1.211V9.147h5.017c0.659,0,1.184,0.179,1.574,0.535
		c0.39,0.356,0.585,0.834,0.585,1.433c0,1.029-0.515,1.659-1.544,1.888L78.669,15.354z M76.196,11.983c0.733,0,1.1-0.282,1.1-0.848
		c0-0.599-0.391-0.898-1.171-0.898h-3.553v1.746H76.196z"/>
	<path fill="#6F7B9A" d="M81.898,15.637c0,0.733-0.42,1.101-1.261,1.101h-0.232v-0.596c0.505-0.007,0.757-0.148,0.757-0.424v-0.363
		h-0.827v-1.101h1.563V15.637z"/>
	<path fill="#FFFFFF" d="M17.204,25.427c0,0.653-0.326,1.187-0.979,1.6c-0.653,0.414-1.527,0.621-2.624,0.621
		c-1.104,0-1.981-0.207-2.635-0.621c-0.652-0.413-0.979-0.946-0.979-1.6v-4.168h1.211v3.926c0,0.915,0.801,1.373,2.402,1.373
		c1.595,0,2.392-0.458,2.392-1.373v-3.926h1.211V25.427z"/>
	<path fill="#FFFFFF" d="M26.489,27.466h-1.807l-4.219-5.178v5.178h-1.211v-6.207h1.805l4.221,5.18v-5.18h1.211V27.466z"/>
	<path fill="#FFFFFF" d="M35.291,27.466h-6.682v-6.207h6.449v1.09H29.82v1.343h3.644v1.09H29.82v1.595h5.471V27.466z"/>
	<path fill="#FFFFFF" d="M47.312,22.753l-1.11,0.383c-0.666-0.659-1.511-0.989-2.533-0.989c-0.882,0-1.585,0.203-2.109,0.609
		c-0.525,0.406-0.787,0.932-0.787,1.576c0,0.665,0.262,1.198,0.787,1.602c0.524,0.402,1.234,0.604,2.129,0.604
		c1.036,0,1.881-0.336,2.534-1.009l1.039,0.555c-0.915,1.029-2.116,1.544-3.604,1.544c-1.237,0-2.238-0.308-3.002-0.923
		c-0.764-0.616-1.146-1.404-1.146-2.367c0-1.002,0.434-1.82,1.302-2.452c0.754-0.552,1.679-0.828,2.775-0.828
		C45.128,21.057,46.369,21.622,47.312,22.753z"/>
	<path fill="#FFFFFF" d="M56.344,27.466H55.01l-0.714-1.332h-4.171l-0.714,1.332h-1.334l3.381-6.207h1.505L56.344,27.466z
		 M53.69,25.044l-1.475-2.75l-1.485,2.75H53.69z"/>
	<path fill="#FFFFFF" d="M64.842,27.466h-1.388l-1.625-2.281h-3.084v2.281h-1.211v-6.207h5.017c0.659,0,1.184,0.179,1.574,0.535
		c0.39,0.356,0.585,0.834,0.585,1.433c0,1.029-0.515,1.659-1.544,1.888L64.842,27.466z M62.369,24.095c0.733,0,1.1-0.282,1.1-0.848
		c0-0.599-0.391-0.898-1.171-0.898h-3.553v1.746H62.369z"/>
	<path fill="#FFFFFF" d="M73.865,27.466h-1.388l-1.625-2.281h-3.084v2.281h-1.211v-6.207h5.017c0.659,0,1.184,0.179,1.574,0.535
		c0.39,0.356,0.585,0.834,0.585,1.433c0,1.029-0.515,1.659-1.544,1.888L73.865,27.466z M71.393,24.095c0.733,0,1.1-0.282,1.1-0.848
		c0-0.599-0.391-0.898-1.171-0.898h-3.553v1.746H71.393z"/>
	<path fill="#FFFFFF" d="M76.791,27.466H75.58v-6.207h1.211V27.466z"/>
	<path fill="#FFFFFF" d="M85.593,27.466h-6.682v-6.207h6.449v1.09h-5.238v1.343h3.644v1.09h-3.644v1.595h5.471V27.466z
		 M82.686,20.714H82.07l-1.252-1.676h1.171L82.686,20.714z"/>
	<path fill="#FFFFFF" d="M94.464,27.466h-1.388l-1.625-2.281h-3.084v2.281h-1.211v-6.207h5.017c0.659,0,1.184,0.179,1.574,0.535
		c0.39,0.356,0.585,0.834,0.585,1.433c0,1.029-0.515,1.659-1.544,1.888L94.464,27.466z M91.991,24.095c0.733,0,1.1-0.282,1.1-0.848
		c0-0.599-0.391-0.898-1.171-0.898h-3.553v1.746H91.991z"/>
	<path fill="#FFFFFF" d="M102.861,27.466H96.18v-6.207h6.449v1.09h-5.238v1.343h3.644v1.09h-3.644v1.595h5.471V27.466z"/>
	<path fill="#D48C8C" d="M17.204,37.538c0,0.653-0.326,1.187-0.979,1.6c-0.653,0.414-1.527,0.621-2.624,0.621
		c-1.104,0-1.981-0.207-2.635-0.621c-0.652-0.413-0.979-0.946-0.979-1.6V33.37h1.211v3.926c0,0.915,0.801,1.373,2.402,1.373
		c1.595,0,2.392-0.458,2.392-1.373V33.37h1.211V37.538z"/>
	<path fill="#D48C8C" d="M26.489,39.577h-1.807l-4.219-5.178v5.178h-1.211V33.37h1.805l4.221,5.18v-5.18h1.211V39.577z"/>
	<path fill="#D48C8C" d="M38.975,39.577h-1.334l-0.714-1.332h-4.171l-0.714,1.332h-1.334l3.381-6.207h1.505L38.975,39.577z
		 M36.321,37.155l-1.475-2.75l-1.485,2.75H36.321z"/>
	<path fill="#D48C8C" d="M47.412,33.37l-3.432,6.207h-1.393l-3.432-6.207h1.338l2.79,5.151l2.79-5.151H47.412z"/>
	<path fill="#D48C8C" d="M55.203,39.577h-6.682V33.37h6.449v1.09h-5.238v1.343h3.644v1.09h-3.644v1.595h5.471V39.577z"/>
	<path fill="#D48C8C" d="M64.004,39.577h-1.807l-4.219-5.178v5.178h-1.211V33.37h1.805l4.221,5.18v-5.18h1.211V39.577z"/>
	<path fill="#D48C8C" d="M67.334,39.577h-1.211V33.37h1.211V39.577z"/>
	<path fill="#D48C8C" d="M76.762,39.577h-1.388l-1.625-2.281h-3.084v2.281h-1.211V33.37h5.017c0.659,0,1.184,0.179,1.574,0.535
		c0.39,0.356,0.585,0.834,0.585,1.433c0,1.029-0.515,1.659-1.544,1.888L76.762,39.577z M74.289,36.206c0.733,0,1.1-0.282,1.1-0.848
		c0-0.599-0.391-0.898-1.171-0.898h-3.553v1.746H74.289z"/>
	<path fill="#D48C8C" d="M79.99,39.577h-1.563v-1.101h1.563V39.577z"/>
	<path fill="#D48C8C" d="M83.573,39.577H82.01v-1.101h1.563V39.577z"/>
	<path fill="#D48C8C" d="M87.156,39.577h-1.563v-1.101h1.563V39.577z"/>
</g>
<g>
	<path fill="#4D4D4D" d="M14.499,52.58h-3.395v-3.62h0.6v3.08h2.795V52.58z"/>
	<path fill="#4D4D4D" d="M19.259,52.58h-0.656l-0.417-0.81h-2.438l-0.417,0.81h-0.656l1.915-3.62h0.755L19.259,52.58z M17.894,51.23
		l-0.922-1.754l-0.934,1.754H17.894z"/>
	<path fill="#4D4D4D" d="M21.509,54.548c1.332,0,2.388,0.369,3.168,1.107s1.17,1.725,1.17,2.961c0,1.296-0.404,2.286-1.215,2.97
		c-0.81,0.685-1.989,1.026-3.537,1.026h-7.758v4.968h-2.16V54.548H21.509z M21.131,60.668c1.668,0,2.502-0.672,2.502-2.016
		c0-1.44-0.882-2.16-2.646-2.16h-7.65v4.176H21.131z"/>
	<path fill="#4D4D4D" d="M44.387,61.046c0,2.137-0.877,3.864-2.628,5.185c-1.537,1.151-3.444,1.728-5.725,1.728
		c-2.304,0-4.224-0.582-5.76-1.746c-1.752-1.319-2.628-3.042-2.628-5.166c0-2.088,0.888-3.804,2.664-5.147
		c1.56-1.176,3.468-1.765,5.724-1.765c2.269,0,4.17,0.589,5.706,1.765C43.504,57.242,44.387,58.958,44.387,61.046z M42.137,61.046
		c0-1.523-0.648-2.76-1.944-3.708c-1.116-0.815-2.502-1.224-4.158-1.224c-1.812,0-3.288,0.465-4.428,1.395
		c-1.141,0.931-1.71,2.109-1.71,3.537c0,1.477,0.558,2.667,1.674,3.573s2.604,1.359,4.464,1.359c1.848,0,3.327-0.456,4.438-1.368
		C41.581,63.698,42.137,62.511,42.137,61.046z"/>
	<path fill="#4D4D4D" d="M60.281,67.58H48.059V54.548h2.16v11.088h10.062V67.58z"/>
	<path fill="#4D4D4D" d="M64.979,67.58h-2.16V54.548h2.16V67.58z"/>
	<path fill="#4D4D4D" d="M84.544,57.519l-1.962,0.701c-1.32-1.403-3.168-2.105-5.544-2.105c-1.8,0-3.267,0.462-4.4,1.386
		c-1.135,0.924-1.701,2.101-1.701,3.528c0,1.476,0.561,2.667,1.683,3.573c1.122,0.905,2.637,1.358,4.545,1.358
		c2.304,0,4.116-0.714,5.437-2.142l1.854,1.025c-0.936,1.093-1.995,1.881-3.177,2.367c-1.183,0.486-2.595,0.729-4.239,0.729
		c-2.304,0-4.218-0.576-5.742-1.729c-1.739-1.319-2.609-3.048-2.609-5.184c0-2.1,0.882-3.816,2.646-5.148
		c1.536-1.164,3.438-1.746,5.706-1.746C80.302,54.134,82.804,55.262,84.544,57.519z"/>
	<path fill="#4D4D4D" d="M101.807,67.58H88.162V54.548h13.141v1.944h-10.98v3.348h7.632v1.944h-7.632v3.852h11.484V67.58z"/>
</g>
</svg>
