<?xml version="1.0" encoding="utf-8"?>
<!-- Generator: Adobe Illustrator 16.0.0, SVG Export Plug-In . SVG Version: 6.00 Build 0)  -->
<!DOCTYPE svg PUBLIC "-//W3C//DTD SVG 1.1//EN" "http://www.w3.org/Graphics/SVG/1.1/DTD/svg11.dtd">
<svg version="1.1" id="Calque_1" xmlns="http://www.w3.org/2000/svg" xmlns:xlink="http://www.w3.org/1999/xlink" x="0px" y="0px"
	 width="390.975px" height="187.892px" viewBox="0 0 390.975 187.892" enable-background="new 0 0 390.975 187.892"
	 xml:space="preserve">
<ellipse opacity="0.2" cx="189.051" cy="177.962" rx="147.076" ry="4.93"/>
<path fill="#EF4848" d="M221.124,6.974c-5.94,0.295-10.437,6.969-10.043,14.907l21.512-1.067
	C232.198,12.875,227.063,6.679,221.124,6.974z"/>
<ellipse fill="#4D4D4D" cx="224.633" cy="58.084" rx="2.6" ry="4.34"/>
<ellipse fill="#4D4D4D" cx="184.33" cy="58.084" rx="2.601" ry="4.34"/>
<path fill="#4D4D4D" d="M224.312,47.109h0.446c-0.034-11.175-9.023-20.466-20.11-20.466c-11.084,0-20.073,9.291-20.109,20.466
	h-0.271v20.488h40.045L224.312,47.109L224.312,47.109z"/>
<rect x="184.267" y="76.91" fill="#4D4D4D" width="40.045" height="30.732"/>
<polygon fill="#4D4D4D" points="184.267,47.109 184.267,67.597 224.312,67.597 224.312,47.109 184.539,47.109 "/>
<rect x="184.267" y="67.597" fill="#4D4D4D" width="40.045" height="9.312"/>
<path fill="#4D4D4D" d="M204.648,26.769c-0.087,0-0.174,0.005-0.263,0.008h0.525C204.825,26.774,204.737,26.769,204.648,26.769z"/>
<polyline fill="#4D4D4D" points="224.312,45.247 224.312,47.109 224.778,47.109 "/>
<rect x="220.122" y="76.91" fill="#4D4D4D" width="4.19" height="30.732"/>
<rect x="220.122" y="67.597" fill="#4D4D4D" width="4.19" height="9.312"/>
<path fill="#4D4D4D" d="M220.122,34.247c-3.259-4.521-9.037-7.626-15.209-7.626h-0.525c-9.094,0-16.724,6.519-19.086,14.901h34.821
	V34.247z"/>
<path fill="#4D4D4D" d="M184.267,41.522v5.587h0.271c0.007-1.862,0.274-3.726,0.762-5.587H184.267z"/>
<path fill="#4D4D4D" d="M185.3,41.522c-0.487,1.861-0.755,3.725-0.762,5.587h35.583v-5.587H185.3z"/>
<path fill="#4D4D4D" d="M223.997,41.522c-0.758-2.794-2.013-5.137-3.875-7.275v7.275H223.997z"/>
<path fill="#4D4D4D" d="M224.312,45.015v-3.493h-0.315C224.295,42.453,224.312,43.86,224.312,45.015z"/>
<path fill="#4D4D4D" d="M184.267,107.642v1.801c0,7.787,8.801,14.053,19.907,14.053c11.109,0,20.138-6.266,20.138-14.053v-1.801
	H184.267z"/>
<path fill="#4D4D4D" d="M220.122,41.522v5.587h4.656v-2.094c0-1.155,0-2.098,0-3.493H220.122z"/>
<polygon fill="#4D4D4D" points="223.648,101.75 221.208,98.529 231.188,87.776 222.183,80.377 224.1,76.787 237.066,87.293 "/>
<polygon fill="#4D4D4D" points="221.208,98.529 221.256,98.595 221.256,98.474 "/>
<polygon fill="#4D4D4D" points="225.708,99.563 225.708,93.712 221.519,98.474 221.519,98.595 223.793,101.75 "/>
<polygon opacity="0.1" fill="#4D4D4D" enable-background="new    " points="225.708,99.563 225.708,93.414 221.519,98.175 
	221.519,98.294 223.793,101.75 "/>
<path fill="#4D4D4D" d="M224.401,101.524c-1.812,1.625-4.074,1.688-5.048,0.146c-0.974-1.547-0.291-4.114,1.522-5.74
	c1.813-1.624,4.074-1.688,5.047-0.145C226.898,97.33,226.215,99.9,224.401,101.524z"/>
<polygon fill="#4D4D4D" points="178.23,87.999 185.189,84.901 186.996,79.462 172.616,85.866 180.353,99.449 181.974,94.571 "/>
<path fill="#4D4D4D" d="M184.258,95.546c1.259,2.25,1.186,4.943-0.163,6.016c-1.348,1.072-3.462,0.115-4.721-2.135
	c-1.26-2.25-1.187-4.944,0.162-6.018C180.884,92.339,182.999,93.294,184.258,95.546z"/>
<polygon fill="#4D4D4D" points="188.818,85.822 186.205,83.614 188.781,80.946 191.395,83.156 "/>
<path fill="#1A1A1A" d="M32.353,129.923c0.43-10.447,2.609-20.346,6.135-27.873C42.354,93.802,47.603,89,53.271,88.53
	c0.457-0.036,8.194-0.648,8.651-0.629c11.721,0.48,19.816,19.015,18.829,43.106c-0.43,10.447-2.606,20.347-6.136,27.873
	c-3.865,8.248-9.115,13.052-14.783,13.521c-0.458,0.038-8.192,0.649-8.651,0.632c-6.01-0.248-11.228-5.229-14.693-14.029
	C33.377,151.097,31.908,140.77,32.353,129.923z"/>
<path fill="#1A1A1A" d="M211.549,135.806c0.752-18.297,11.1-32.904,24.072-33.98c0.746-0.062,9.295-0.722,10.043-0.691
	c6.854,0.281,13.07,4.334,17.498,11.408c4.213,6.733,6.326,15.492,5.95,24.658c-0.752,18.299-11.102,32.908-24.075,33.982
	c-0.744,0.062-9.291,0.725-10.039,0.691c-6.858-0.281-13.072-4.332-17.498-11.408C213.286,153.732,211.172,144.974,211.549,135.806z
	"/>
<path fill="#4D4D4D" d="M255.622,82.802l-2.195-3.417l16.996-0.265c-5.233-18.34-28.795-50.096-28.795-50.096
	s-1.619-0.488-5.34-1.095l-1.631-9.055c12.648,1.467,18.623,3.107,18.623,3.107s0.061,0.068,0.16,0.194l-1.499,3.416
	c0,0,28.157,45.326,29.463,53.28l2.126,0.479l-4.48,6.952L255.622,82.802z"/>
<path opacity="0.2" fill="#29ABE2" enable-background="new    " d="M256.559,26.269c-24.465-1.863-73.454,0.094-73.454,0.094
	c-16.04,11.62-48.527,51.572-48.527,51.572l188.883,1.043c-4.736-18.578-30.475-48.019-30.475-48.019S281.023,28.132,256.559,26.269
	z"/>
<path fill="#1F2828" d="M343.565,80.351l-6.639-1.377c-0.875-8.037-31.016-51.236-31.016-51.236l2.149-3.408
	c-0.11-0.129-0.175-0.198-0.175-0.198s-14.006-3.309-42.645-5.49c-28.643-2.181-116.707,6.779-116.707,6.779
	c-1.158,0.839-1.486,1.114-2.778,2.188l36.819-1.521c0,0-31.358,27.555-49.245,52.997l-34.655,1.398
	c2.06-0.116-79.279,5.903-83.784,8.46c-7.209,4.096-9.176,4.92-13.448,12.547c-4.272,7.629,2.304,56.234,2.304,56.234l376.203-3.984
	l-2.537-65.046C377.413,88.694,379.872,80.999,343.565,80.351z M234.758,78.489l-94.172-0.695c0,0,32.488-39.953,48.529-51.573
	c0,0,20.49-0.916,44.242-0.734L234.758,78.489z M245.945,78.55l-1.396-52.869c4.371,0.127,8.449,0.316,12.01,0.588
	c24.464,1.863,36.428,4.69,36.428,4.69s25.737,29.44,30.475,48.019L245.945,78.55z"/>
<path opacity="0.2" fill="#29ABE2" enable-background="new    " d="M336.926,78.974l6.639,1.377
	c-5.303-20.797-33.074-53.214-35.504-56.021l-2.148,3.408C305.913,27.738,336.051,70.937,336.926,78.974z"/>
<polygon fill="#1F2828" points="273.405,23.174 272.286,22.04 288.079,2.594 289.198,3.729 "/>
<path fill="#1F2828" d="M290.848,4.872c-0.947,1.168-2.59,1.231-3.665,0.139c-1.075-1.09-1.179-2.923-0.229-4.092
	c0.949-1.168,2.59-1.231,3.666-0.14C291.696,1.871,291.797,3.704,290.848,4.872z"/>
<path opacity="0.2" fill="#29ABE2" enable-background="new    " d="M182.576,26.087c0,0-31.358,27.555-49.245,52.997L95.99,80.846
	c0.001-0.001,37.497-41.259,53.838-53.405L182.576,26.087z"/>
<polygon fill="#808080" points="91.157,81.075 95.99,80.846 95.99,80.846 "/>
<path fill="#808080" d="M145.743,27.505l4.623-0.463c-0.176,0.127-0.357,0.263-0.538,0.398
	C133.487,39.587,95.991,80.845,95.99,80.846l-4.833,0.229C109.057,55.742,145.743,27.505,145.743,27.505z"/>
<path fill="#152F33" d="M1.443,101.49c4.272-7.627,6.239-8.451,13.448-12.547c3.329-1.889,86.273-8.561,86.273-8.561
	c-12.351,22.655-5.372,76.159-5.372,76.159l-92.046,1.184C3.747,157.724-2.83,109.119,1.443,101.49z"/>
<ellipse transform="matrix(-0.0536 0.9986 -0.9986 -0.0536 180.7616 44.7)" fill="#FFFFFF" cx="69.198" cy="108.01" rx="14.285" ry="8.044"/>
<ellipse transform="matrix(0.0436 0.999 -0.999 0.0436 118.4354 98.8622)" fill="#FFFFFF" cx="7.582" cy="111.29" rx="11.731" ry="6.607"/>
<path fill="#333333" d="M108.111,137.292c-0.038-10.457,1.853-20.455,5.322-28.15c3.764-8.346,9.13-13.365,15.104-14.131
	c0.516-0.065,1.039-0.102,1.557-0.102c6.381-0.025,12.19,4.682,16.362,13.252c3.786,7.787,5.895,18.072,5.936,28.965
	c0.039,10.457-1.851,20.453-5.322,28.149c-3.765,8.347-9.129,13.365-15.104,14.13c-0.514,0.067-1.038,0.102-1.556,0.104
	c-6.382,0.023-12.192-4.684-16.361-13.254C110.261,158.47,108.153,148.184,108.111,137.292z"/>
<path fill="#333333" d="M310.82,141.798c-0.067-18.313,9.617-33.369,22.528-35.022c0.742-0.096,1.5-0.146,2.246-0.147
	c6.863-0.024,13.253,3.744,17.992,10.615c4.511,6.539,7.014,15.193,7.047,24.369c0.068,18.312-9.618,33.368-22.53,35.021
	c-0.741,0.096-1.496,0.145-2.246,0.148c-6.86,0.025-13.251-3.746-17.989-10.615C313.356,159.626,310.854,150.974,310.82,141.798z"/>
<polygon fill="#4D4D4D" points="21.179,153.362 57.653,153.734 54.723,99.445 17.797,101.873 "/>
<path fill="#666666" d="M126.14,137.03c-0.007-1.854,0.329-3.626,0.943-4.989c0.669-1.48,1.618-2.369,2.679-2.504
	c0.092-0.013,0.185-0.019,0.275-0.02c1.132-0.003,2.161,0.829,2.901,2.35c0.67,1.379,1.044,3.203,1.053,5.135
	c0.005,1.854-0.328,3.625-0.944,4.99c-0.667,1.48-1.619,2.369-2.677,2.506c-0.092,0.01-0.185,0.017-0.276,0.018
	c-1.132,0.004-2.162-0.831-2.901-2.35C126.522,140.785,126.148,138.96,126.14,137.03z"/>
<path fill="#666666" d="M330.725,141.934c-0.016-3.974,2.087-7.239,4.887-7.601c0.162-0.02,0.325-0.031,0.488-0.031
	c1.488-0.004,2.874,0.812,3.902,2.303c0.979,1.419,1.521,3.297,1.527,5.288c0.016,3.972-2.086,7.237-4.887,7.599
	c-0.161,0.02-0.325,0.029-0.486,0.03c-1.488,0.005-2.875-0.812-3.902-2.304C331.275,145.802,330.733,143.923,330.725,141.934z"/>
<path fill="none" d="M189.116,26.22c-16.041,11.62-48.529,51.573-48.529,51.573l38.842,0.287l-0.493-8.588l55.502-3.185
	l-1.079-40.822C209.606,25.304,189.116,26.22,189.116,26.22z"/>
<path fill="none" d="M292.987,30.959c0,0-11.964-2.827-36.428-4.69c-3.561-0.271-7.639-0.461-12.01-0.588l1.056,39.985l36.373-2.087
	l0.871,15.174l40.612,0.225C318.724,60.4,292.987,30.959,292.987,30.959z"/>
<polygon fill="#CCCCCC" points="282.849,78.753 179.428,78.081 183.889,155.816 287.208,154.722 "/>
<g>
	<path d="M193.45,114.662c1.191-0.219,2.752-0.414,4.742-0.449c2.443-0.041,4.244,0.498,5.398,1.502
		c1.066,0.893,1.715,2.275,1.744,3.979c0.028,1.734-0.459,3.106-1.41,4.119c-1.283,1.414-3.404,2.16-5.82,2.201
		c-0.738,0.012-1.42-0.005-1.992-0.138l0.129,7.674l-2.473,0.041L193.45,114.662z M196.079,123.859
		c0.543,0.133,1.228,0.178,2.051,0.164c2.982-0.051,4.777-1.529,4.734-4.174c-0.043-2.529-1.855-3.723-4.582-3.676
		c-1.08,0.018-1.904,0.117-2.328,0.238L196.079,123.859z"/>
	<path d="M225.094,123.285c0.111,6.596-3.838,10.158-8.727,10.24c-5.06,0.084-8.679-3.777-8.775-9.576
		c-0.102-6.082,3.611-10.125,8.727-10.211C221.549,113.65,224.999,117.601,225.094,123.285z M210.235,123.848
		c0.068,4.092,2.348,7.722,6.242,7.655c3.922-0.064,6.078-3.711,6.004-8.062c-0.062-3.81-2.119-7.754-6.24-7.687
		C212.147,115.828,210.165,119.64,210.235,123.848z"/>
	<path d="M228.145,113.851l2.475-0.041l0.287,17.082l8.186-0.137l0.033,2.074l-10.658,0.18L228.145,113.851z"/>
	<path d="M244.032,113.583l0.322,19.158l-2.475,0.041l-0.32-19.156L244.032,113.583z"/>
	<path d="M262.049,131.82c-0.902,0.469-2.715,0.955-5.045,0.994c-5.4,0.09-9.521-3.252-9.627-9.533
		c-0.103-5.996,3.895-10.131,9.834-10.23c2.389-0.039,3.904,0.447,4.562,0.777l-0.562,2.027c-0.945-0.439-2.287-0.758-3.879-0.73
		c-4.49,0.076-7.429,2.996-7.342,8.026c0.077,4.69,2.829,7.657,7.489,7.579c1.508-0.025,3.037-0.363,4.022-0.863L262.049,131.82z"/>
	<path d="M274.924,123.244l-7.447,0.125l0.117,6.908l8.299-0.141l0.033,2.074l-10.771,0.182l-0.322-19.157l10.347-0.174l0.034,2.075
		l-7.873,0.133l0.105,6.055l7.444-0.125L274.924,123.244z"/>
</g>
</svg>
