<?xml version="1.0" encoding="utf-8"?>
<!-- Generator: Adobe Illustrator 16.0.0, SVG Export Plug-In . SVG Version: 6.00 Build 0)  -->
<!DOCTYPE svg PUBLIC "-//W3C//DTD SVG 1.1//EN" "http://www.w3.org/Graphics/SVG/1.1/DTD/svg11.dtd">
<svg version="1.1" id="Calque_1" xmlns="http://www.w3.org/2000/svg" xmlns:xlink="http://www.w3.org/1999/xlink" x="0px" y="0px"
	 width="40.664px" height="54.219px" viewBox="0 0 40.664 54.219" enable-background="new 0 0 40.664 54.219" xml:space="preserve">
<rect fill="#F2F2F2" width="40.664" height="54.219"/>
<g>
	<path d="M1.523,10.068c-0.063,0-0.109-0.055-0.109-0.128V8.518c0-0.073,0.109-0.174,0.191-0.174h1.98V4.949h-2.08
		c-0.092,0-0.128-0.046-0.128-0.091V3.307c0-0.072,0.091-0.082,0.155-0.082H13.14c2.546,0,4.361,1.04,4.361,2.126
		c0,1.798-3.449,2.09-4.023,2.09h-5.22v0.903h2.107c0.165,0,0.201,0.091,0.201,0.164v1.387c0,0.119-0.046,0.174-0.201,0.174H1.523z
		 M11.543,5.844c0.155,0,0.767-0.073,0.767-0.429c0-0.329-0.512-0.466-0.721-0.466H8.258v0.895H11.543z"/>
	<path d="M19.919,7.997c0.063,0,0.128,0.055,0.128,0.146v1.835c0,0.055-0.109,0.091-0.191,0.091h-3.185
		c-0.092,0-0.146-0.055-0.146-0.174V8.106c0-0.055,0.073-0.109,0.174-0.109H19.919z"/>
	<path d="M30.633,6.51l1.46-1.606h-1.178c-0.063,0-0.137,0-0.137-0.055V3.334c0-0.055,0.063-0.109,0.21-0.109h6.351
		c0.073,0,0.174,0.055,0.174,0.101v1.479c0,0.055-0.027,0.1-0.101,0.1h-1.926l-4.689,5.11c-0.055,0.046-0.137,0.055-0.164,0.055
		h-2.336c-0.055,0-0.092-0.036-0.128-0.063L23.46,4.903h-2.025c-0.073,0-0.164-0.027-0.164-0.137V3.353
		c0-0.063,0.055-0.128,0.128-0.128h8.832c0.101,0,0.183,0.019,0.183,0.128v1.451c0,0.055-0.045,0.1-0.128,0.1H29.19L30.633,6.51z"/>
	<path d="M39.666,7.997c0.063,0,0.128,0.055,0.128,0.146v1.835c0,0.055-0.109,0.091-0.191,0.091h-3.185
		c-0.092,0-0.146-0.055-0.146-0.174V8.106c0-0.055,0.073-0.109,0.174-0.109H39.666z"/>
</g>
<rect x="3.189" y="35.083" fill="#C1272D" width="33.488" height="15.149"/>
<rect x="5.581" y="37.475" fill="#FFFFFF" width="21.528" height="2.393"/>
<rect x="3.189" y="13.156" width="33.488" height="2.392"/>
<rect x="3.189" y="17.541" width="27.707" height="2.393"/>
<rect x="3.189" y="22.126" width="33.488" height="2.392"/>
<rect x="3.588" y="27.109" width="8.372" height="2.393"/>
<rect x="5.98" y="41.462" fill="#FFFFFF" width="21.527" height="2.392"/>
</svg>
