<?xml version="1.0" encoding="utf-8"?>
<!-- Generator: Adobe Illustrator 16.0.0, SVG Export Plug-In . SVG Version: 6.00 Build 0)  -->
<!DOCTYPE svg PUBLIC "-//W3C//DTD SVG 1.1//EN" "http://www.w3.org/Graphics/SVG/1.1/DTD/svg11.dtd">
<svg version="1.1" id="Calque_1" xmlns="http://www.w3.org/2000/svg" xmlns:xlink="http://www.w3.org/1999/xlink" x="0px" y="0px"
	 width="203.487px" height="149.463px" viewBox="0 0 203.487 149.463" enable-background="new 0 0 203.487 149.463"
	 xml:space="preserve">
<path fill="#666666" d="M121.494,19.5c0-10.77-8.729-19.5-19.5-19.5c-10.77,0-19.5,8.73-19.5,19.5c0,0.169,0.021,0.332,0.025,0.5
	h-0.025v79h39V20h-0.024C121.472,19.832,121.494,19.669,121.494,19.5z"/>
<path fill="#666666" d="M101.994,0c-10.77,0-19.5,7.397-19.5,16.753c0,0.146,0.021,0.247,0.025,0.247h-0.025v69h30V2.681
	C109.46,0.992,105.864,0,101.994,0z"/>
<path d="M121.494,20v-0.5c0,0.169-0.021,0.332-0.024,0.5H121.494z"/>
<path opacity="0.1" enable-background="new    " d="M112.494,3.086V86c0,0,9-3.833,9-7c0-13.833,0-59,0-59h-0.024
	c0.004-0.168,0.024-0.331,0.024-0.5C121.494,12.601,117.901,6.552,112.494,3.086z"/>
<path fill="#666666" d="M101.744,149.463C157.75,149.463,203.181,117,203.487,79H0C0.306,117,45.738,149.463,101.744,149.463z"/>
<path fill="#CCCCCC" d="M102.209,145c48.134,0,87.18-26.34,87.442-59H14.766C15.03,118.66,54.076,145,102.209,145z"/>
<path fill="#CCCCCC" d="M14.766,86c0.259,32.104,37.987,58.096,84.983,58.975L130.626,86H14.766z"/>
<path fill="#CCCCCC" d="M189.653,86h-20.195l-27.51,52.542C170.132,128.779,189.467,108.951,189.653,86z"/>
<path opacity="0.1" fill="#F2F2F2" enable-background="new    " d="M130.626,86L99.75,144.975c0.816,0.017,1.637,0.025,2.46,0.025
	c14.31,0,27.814-2.328,39.737-6.458L169.457,86H130.626z"/>
</svg>
