<?xml version="1.0" encoding="utf-8"?>
<!-- Generator: Adobe Illustrator 16.0.0, SVG Export Plug-In . SVG Version: 6.00 Build 0)  -->
<!DOCTYPE svg PUBLIC "-//W3C//DTD SVG 1.1//EN" "http://www.w3.org/Graphics/SVG/1.1/DTD/svg11.dtd">
<svg version="1.1" id="Calque_1" xmlns="http://www.w3.org/2000/svg" xmlns:xlink="http://www.w3.org/1999/xlink" x="0px" y="0px"
	 width="341.487px" height="250.825px" viewBox="0 0 341.487 250.825" enable-background="new 0 0 341.487 250.825"
	 xml:space="preserve">
<path fill="#666666" d="M203.888,32.725C203.888,14.651,189.237,0,171.164,0s-32.725,14.651-32.725,32.725
	c0,0.283,0.036,0.557,0.043,0.839h-0.043v132.576h65.449V33.563h-0.043C203.852,33.282,203.888,33.008,203.888,32.725z"/>
<path fill="#666666" d="M171.164,0c-18.073,0-32.725,12.414-32.725,28.114c0,0.246,0.036,0.415,0.043,0.415h-0.043v115.794h50.346
	V4.499C183.694,1.664,177.658,0,171.164,0z"/>
<path opacity="0.1" d="M188.785,5.179v139.144c0,0,15.104-6.433,15.104-11.748c0-23.214,0-99.011,0-99.011h-0.043
	c0.007-0.282,0.043-0.556,0.043-0.839C203.888,21.146,197.859,10.995,188.785,5.179z"/>
<path fill="#666666" d="M170.744,250.825c93.986,0,170.229-54.479,170.743-118.248H0C0.514,196.346,76.757,250.825,170.744,250.825z
	"/>
<path fill="#CCCCCC" d="M171.526,243.335c80.776,0,146.303-44.202,146.745-99.013H24.781
	C25.223,199.133,90.75,243.335,171.526,243.335z"/>
<path fill="#CCCCCC" d="M24.781,144.323c0.435,53.874,63.749,97.496,142.616,98.971l51.817-98.971H24.781z"/>
<path fill="#CCCCCC" d="M318.271,144.323h-33.893l-46.165,88.176C285.512,216.116,317.959,182.839,318.271,144.323z"/>
<path opacity="0.1" fill="#F2F2F2" d="M219.214,144.323l-51.817,98.971c1.372,0.026,2.747,0.042,4.129,0.042
	c24.014,0,46.679-3.907,66.688-10.837l46.165-88.176H219.214z"/>
<path fill="#CCCCCC" d="M100.625,193.952l-0.196-9.816l-14.043,0.238c-1.164,0.022-2.126-1.047-2.198-2.047h0.235v-0.033
	c0-0.006,0-0.012,0-0.018c0-0.011,0-0.021,0-0.031l-0.201-11.493c-0.212-12.619,9.289-23.425,22.371-26.425H24.781
	c0.223,28,17.066,52.668,44.088,70.612C75.271,204.911,86.727,197.194,100.625,193.952z"/>
<path fill="#CCCCCC" d="M104.75,184.057l0.18,9.051c2.939-0.473,5.964-0.762,9.063-0.824c2.984-0.059,5.908,0.095,8.761,0.423
	l-0.179-8.977L104.75,184.057z"/>
<path fill="#CCCCCC" d="M230.643,231.327c-0.297-19,15.51-34.809,37.295-39.892l-0.197-9.816l-14.043,0.497
	c-1.164,0.021-2.125-0.789-2.197-1.789h-0.078v-0.551c0-0.006,0.033-0.012,0.033-0.018c0-0.011,0.021-0.021,0.021-0.031
	l-0.073-11.493c-0.17-10.196,6.091-18.907,15.396-23.907H120.544c12.561,3,21.983,13.041,22.266,25.254l0.557,11.432
	c0.002,0.027,0.056,0.055,0.056,0.082c0,0.011,0,0.02,0,0.03l-0.098,0.202h-0.005c-0.024,1-0.951,2.02-2.113,2.042l0.002,0.055
	l-14.313,0.245l0.271,9.689c10.278,1.913,19.257,6.273,26.257,12.285v-0.011c0,0.078,0.095,0.159,0.183,0.237
	c0.298,0.268,0.554,0.537,0.844,0.81c0.192,0.181,0.36,0.364,0.548,0.548c0.285,0.279,0.56,0.559,0.835,0.843
	c0.173,0.179,0.333,0.36,0.502,0.542c0.956,1.021,1.848,2.08,2.681,3.174c0.157,0.207,0.315,0.41,0.468,0.619
	c0.216,0.295,0.421,0.596,0.627,0.896c0.159,0.231,0.318,0.463,0.472,0.697c0.194,0.297,0.382,0.596,0.567,0.896
	c0.152,0.247,0.301,0.495,0.446,0.745c0.174,0.298,0.347,0.598,0.512,0.899c0.144,0.262,0.279,0.527,0.415,0.792
	c0.153,0.298,0.31,0.596,0.454,0.897c0.141,0.293,0.269,0.59,0.401,0.887c0.212,0.477,0.413,0.956,0.604,1.44
	c0.138,0.351,0.277,0.7,0.403,1.056c0.103,0.289,0.191,0.581,0.286,0.872c0.102,0.313,0.203,0.626,0.296,0.942
	c0.087,0.299,0.165,0.6,0.244,0.902c0.082,0.313,0.161,0.629,0.234,0.945c0.069,0.305,0.135,0.609,0.196,0.916
	c0.064,0.324,0.122,0.649,0.177,0.977c0.052,0.303,0.104,0.605,0.146,0.911c0.049,0.347,0.085,0.696,0.122,1.047
	c0.031,0.289,0.068,0.576,0.091,0.867c0.002,0.021,0.005,0.043,0.007,0.064c0.047,0.618,0.08,1.24,0.094,1.866
	c0.01,0.627,0.004,1.25-0.02,1.87l0.189,9.478c1.687,0.039,3.378,0.065,5.078,0.065c21.062,0,41.082-3.01,59.187-8.424l-0.071-3.585
	H230.643z"/>
<path fill="#CCCCCC" d="M310.122,167.063l0.39,8.764c4.946-9.891,7.671-20.5,7.76-31.5h-23.344
	C303.8,148.327,309.896,157.279,310.122,167.063z"/>
<path fill="#CCCCCC" d="M294.401,190.833c1.863,0.346,3.682,0.779,5.46,1.282c2.959-3.611,5.601-7.359,7.891-11.229l-13.545,0.248
	L294.401,190.833z"/>
<path fill="#CCCCCC" d="M272.062,181.54l0.18,9.051c2.939-0.473,5.965-0.762,9.063-0.824c2.984-0.059,5.908,0.095,8.761,0.423
	l-0.18-8.977L272.062,181.54z"/>
<path fill="#808080" d="M153.269,205.643c-6.828-6.012-15.903-10.381-26.181-12.293l0.003,0.176c0.021,1.074-0.94,1.963-2.122,1.986
	c-1.18,0.024-2.178-0.826-2.198-1.9l-0.018-0.905c-2.853-0.328-5.777-0.481-8.761-0.423c-3.099,0.062-6.124,0.352-9.063,0.824
	l0.017,0.859c0.022,1.074-0.939,1.964-2.121,1.987c-1.181,0.024-2.177-0.827-2.198-1.901l-0.002-0.102
	c-13.898,3.242-25.354,10.957-31.756,20.985c22.538,14.966,52.157,25.032,85.138,27.69L153.269,205.643z"/>
<path fill="#4D4D4D" d="M84.221,170.751l0.201,11.493c0,0.01,0,0.021,0,0.031c0,0.006,0,0.012,0,0.018v0.033h-0.235
	c0.072,1,1.034,2.069,2.198,2.047l14.043-0.248l-0.168-8.402c-0.022-1.074,0.94-1.961,2.122-1.984
	c1.181-0.023,2.177,0.828,2.199,1.902l0.167,8.415l17.825-0.327l-0.169-8.443c-0.021-1.074,0.94-1.963,2.121-1.986
	s2.178,0.826,2.199,1.9l0.169,8.451l14.313-0.263l-0.002-0.02c1.162-0.022,2.089-1.042,2.113-2.042h0.005l0.098-0.202
	c0-0.011,0-0.02,0-0.03c0-0.027-0.054-0.055-0.056-0.084l-0.532-11.43c-0.282-12.213-9.729-22.254-22.291-25.254h-13.952
	C93.51,147.327,84.009,158.132,84.221,170.751z"/>
<path fill="#E6E6E6" d="M100.429,184.135l0.196,9.816c1.41-0.33,2.847-0.609,4.304-0.844l-0.18-9.051L100.429,184.135z"/>
<path fill="#E6E6E6" d="M100.627,194.053c0.021,1.074,1.018,1.926,2.198,1.901c1.182-0.023,2.144-0.913,2.121-1.987l-0.017-0.859
	c-1.458,0.234-2.894,0.514-4.304,0.844L100.627,194.053z"/>
<path fill="#E6E6E6" d="M104.582,175.642c-0.022-1.073-1.019-1.925-2.199-1.901c-1.182,0.023-2.145,0.914-2.122,1.987l0.168,8.407
	l4.321-0.078L104.582,175.642z"/>
<path fill="#E6E6E6" d="M122.753,192.707c1.465,0.169,2.913,0.378,4.335,0.644l-0.194-9.699l-4.32,0.079L122.753,192.707z"/>
<path fill="#E6E6E6" d="M122.771,193.612c0.021,1.074,1.019,1.925,2.198,1.9c1.182-0.023,2.144-0.912,2.122-1.986l-0.003-0.176
	c-1.422-0.266-2.87-0.475-4.335-0.644L122.771,193.612z"/>
<path fill="#E6E6E6" d="M124.526,173.299c-1.181,0.023-2.143,0.912-2.121,1.986l0.169,8.444l4.32-0.079l-0.169-8.451
	C126.704,174.125,125.707,173.276,124.526,173.299z"/>
<path fill="#808080" d="M166.186,230.162c-0.004-0.057-0.004-0.114-0.009-0.17c-0.022-0.291-0.06-0.578-0.091-0.867
	c-0.037-0.351-0.073-0.7-0.122-1.047c-0.042-0.306-0.094-0.608-0.146-0.911c-0.055-0.326-0.112-0.652-0.177-0.977
	c-0.062-0.307-0.127-0.611-0.196-0.916c-0.073-0.316-0.152-0.632-0.234-0.945c-0.078-0.303-0.157-0.604-0.244-0.902
	c-0.093-0.316-0.194-0.629-0.296-0.942c-0.095-0.291-0.184-0.583-0.286-0.872c-0.126-0.355-0.266-0.705-0.403-1.056
	c-0.19-0.484-0.392-0.964-0.604-1.44c-0.132-0.297-0.261-0.594-0.401-0.887c-0.145-0.302-0.301-0.6-0.454-0.897
	c-0.136-0.265-0.271-0.53-0.415-0.792c-0.165-0.302-0.338-0.602-0.512-0.899c-0.146-0.25-0.294-0.498-0.446-0.745
	c-0.185-0.301-0.374-0.6-0.568-0.896c-0.153-0.234-0.313-0.466-0.472-0.697c-0.207-0.301-0.412-0.602-0.628-0.896
	c-0.152-0.209-0.312-0.412-0.469-0.619c-0.833-1.094-1.728-2.152-2.683-3.174c-0.169-0.182-0.334-0.363-0.507-0.542
	c-0.275-0.284-0.56-0.563-0.845-0.843c-0.188-0.184-0.375-0.367-0.567-0.548c-0.29-0.272-0.584-0.542-0.882-0.81
	c-0.085-0.076-0.173-0.15-0.259-0.227l0.738,36.984c4.097,0.33,8.247,0.546,12.441,0.643l-0.189-9.478L166.186,230.162z"/>
<path fill="#808080" d="M299.861,192.115c-1.778-0.503-3.597-0.937-5.46-1.282l0.004,0.176c0.021,1.074-0.941,1.963-2.123,1.986
	c-1.18,0.024-2.178-0.826-2.197-1.9l-0.019-0.905c-2.853-0.328-5.776-0.481-8.761-0.423c-3.099,0.062-6.124,0.352-9.063,0.824
	l0.017,0.859c0.023,1.074-0.939,1.964-2.121,1.987c-1.18,0.024-2.176-0.827-2.197-1.901l-0.002-0.101
	c-21.785,5.083-37.592,20.892-37.295,39.892h-0.002l0.071,3.585C260.065,226.132,284.367,211.022,299.861,192.115z"/>
<path fill="#4D4D4D" d="M251.413,168.234l0.082,11.494c0,0.011-0.039,0.021-0.039,0.03c0,0.006-0.033,0.012-0.033,0.018v0.551h0.078
	c0.072,1,1.033,1.811,2.197,1.788l14.043-0.377l-0.168-8.468c-0.021-1.073,0.941-1.993,2.123-2.018
	c1.18-0.023,2.176,0.813,2.199,1.887l0.167,8.407l17.824-0.33l-0.169-8.446c-0.021-1.074,0.941-1.965,2.121-1.987
	c1.182-0.024,2.178,0.826,2.199,1.899l0.169,8.451l13.545-0.248c0.985-1.666,1.905-3.354,2.76-5.062l-0.39-8.761
	c-0.226-9.784-6.321-18.736-15.194-22.736h-28.128C257.494,149.327,251.242,158.038,251.413,168.234z"/>
<path fill="#E6E6E6" d="M267.741,181.618l0.197,9.816c1.41-0.33,2.846-0.609,4.304-0.844l-0.18-9.051L267.741,181.618z"/>
<path fill="#E6E6E6" d="M267.94,191.536c0.021,1.074,1.018,1.926,2.197,1.901c1.182-0.023,2.145-0.913,2.121-1.987l-0.017-0.859
	c-1.458,0.234-2.894,0.514-4.304,0.844L267.94,191.536z"/>
<path fill="#E6E6E6" d="M271.895,173.125c-0.023-1.073-1.02-1.925-2.199-1.901c-1.182,0.023-2.145,0.914-2.123,1.987l0.168,8.407
	l4.321-0.078L271.895,173.125z"/>
<path fill="#E6E6E6" d="M289.886,181.212l0.18,8.977c1.466,0.169,2.913,0.378,4.335,0.644l-0.194-9.699L289.886,181.212z"/>
<path fill="#E6E6E6" d="M290.084,191.094c0.02,1.074,1.018,1.925,2.197,1.9c1.182-0.023,2.145-0.912,2.123-1.986l-0.004-0.176
	c-1.422-0.266-2.869-0.475-4.335-0.644L290.084,191.094z"/>
<path fill="#E6E6E6" d="M294.038,172.682c-0.021-1.074-1.018-1.924-2.199-1.9c-1.18,0.023-2.143,0.912-2.121,1.986l0.169,8.444
	l4.32-0.079L294.038,172.682z"/>
<text transform="matrix(0.9949 -0.1006 0.1006 0.9949 211.4292 206.4834)" fill="#FFFFFF" font-family="'AmericanTypewriter-Bold'" font-size="16.7386">$</text>
<path fill="#CCCCCC" d="M183.41,243.036c1.68-0.088,3.013-0.201,5.013-0.326v-1.955L183.41,243.036z"/>
<path fill="#CCCCCC" d="M279.422,175.124v5.834c1,0.026,0.568,0.045,0.748,0.045c3.293,0,6.067-4.45,6.067-9.941
	c0-5.49-2.612-9.942-5.905-9.942c-0.081,0-0.725-0.001-0.403,0.021l-0.179,13.986C279.708,175.125,279.422,175.124,279.422,175.124z
	"/>
<path fill="#CCCCCC" d="M187.381,180.595l-0.127-19.347c-2.854,0.736-4.881,4.844-4.881,9.812c0,5.45,2.049,9.869,6.049,9.936
	v-0.514C187.422,180.548,187.66,180.591,187.381,180.595z"/>
<path fill="#8CC63F" d="M268.422,213.327h-80v17.805l0.354-0.26l10.901,4.711l-11.256,5.172v1.955c30-2.326,58-11.084,80-24.258
	V213.327z M193.591,228.265l5.781-5.981l5.867,4.954l-5.783,5.983L193.591,228.265z"/>
<path fill="#E9E0D6" d="M268.422,192.893v-18.799c-15-2.726-25.961-10.623-29.057-20.498l-42.395,0.082
	c-0.01,7.785-1.204,14.791-3.146,19.703c-0.627,4.37-2.749,7.621-5.559,7.621c-0.024,0,0.155-0.006,0.155-0.006v32.33h80V194.76
	V192.893z M202.182,179.282c0-0.086,0.008-0.17,0.01-0.256c-0.115-0.266-0.186-0.564-0.186-0.885c0-0.4,0.102-0.771,0.274-1.081
	c0.5-3.32,2.93-5.842,5.858-5.842c3.289,0,5.956,3.179,5.956,7.101c0,0.152-0.011,0.301-0.02,0.451
	c0.009,0.17,0.02,0.339,0.02,0.512c0,4.453-2.667,8.062-5.956,8.062C204.849,187.343,202.182,183.735,202.182,179.282z
	 M215.838,207.536c-5.663,0-10.253-3.156-10.253-7.05c0-3.89,4.59-7.049,10.253-7.049s10.254,3.159,10.254,7.049
	C226.092,204.379,221.501,207.536,215.838,207.536z M240.792,179.282c0,4.453-2.666,8.062-5.957,8.062
	c-3.289,0-5.955-3.608-5.955-8.062c0-0.086,0.008-0.17,0.01-0.256c-0.114-0.267-0.186-0.564-0.186-0.885
	c0-0.4,0.102-0.771,0.274-1.08c0.499-3.321,2.928-5.843,5.856-5.843c3.291,0,5.957,3.179,5.957,7.101
	c0,0.152-0.011,0.301-0.02,0.451C240.782,178.94,240.792,179.109,240.792,179.282z"/>
<path fill="#E9E0D6" d="M194.066,173.381c-1.567,3.967-3.644,6.562-5.644,7.102v0.514c0,0-0.06,0.006-0.035,0.006
	C191.197,181.002,193.439,177.751,194.066,173.381z"/>
<path fill="#E9E0D6" d="M234.611,108.072c-0.201,0-0.399,0.013-0.602,0.014h1.204C235.012,108.084,234.812,108.072,234.611,108.072z
	"/>
<path fill="#E9E0D6" d="M279.422,193.327h-11v1.434v18.566h7.855c1.213-1,2.145-1.496,3.145-2.363V194.76V193.327z"/>
<path opacity="0.1" d="M279.422,193.327h-11v1.434v18.566h7.855c1.213-1,2.145-1.496,3.145-2.363V194.76V193.327z"/>
<path fill="#8CC63F" d="M268.422,213.327v5.125c3-1.583,5.387-3.125,7.855-5.125H268.422z"/>
<path opacity="0.1" d="M268.422,213.327v5.125c3-1.583,5.387-3.125,7.855-5.125H268.422z"/>
<path fill="#E9E0D6" d="M274.588,174.918c-2.154-0.171-4.166-0.448-6.166-0.824v19.232h11v-12.369
	C277.422,180.627,275.424,178.234,274.588,174.918z"/>
<path opacity="0.1" d="M274.588,174.918c-2.154-0.171-4.166-0.448-6.166-0.824v19.232h11v-12.369
	C277.422,180.627,275.424,178.234,274.588,174.918z"/>
<path fill="#E9E0D6" d="M274.463,174.918c0.837,3.315,2.959,5.709,4.959,6.039v-5.834
	C278.422,175.12,276.089,175.046,274.463,174.918z"/>
<path opacity="0.1" d="M274.463,174.918c0.837,3.315,2.959,5.709,4.959,6.039v-5.834
	C278.422,175.12,276.089,175.046,274.463,174.918z"/>
<path fill="#E9E0D6" d="M214.095,179.282c0-0.173-0.011-0.342-0.02-0.512c-0.195,3.712-2.775,6.65-5.937,6.65
	c-3.073,0-5.602-2.773-5.921-6.336c-0.01-0.02-0.019-0.039-0.026-0.059c-0.002,0.086-0.01,0.17-0.01,0.256
	c0,4.453,2.667,8.062,5.957,8.062C211.428,187.343,214.095,183.735,214.095,179.282z"/>
<path opacity="0.1" d="M214.095,179.282c0-0.173-0.011-0.342-0.02-0.512c-0.195,3.712-2.775,6.65-5.937,6.65
	c-3.073,0-5.602-2.773-5.921-6.336c-0.01-0.02-0.019-0.039-0.026-0.059c-0.002,0.086-0.01,0.17-0.01,0.256
	c0,4.453,2.667,8.062,5.957,8.062C211.428,187.343,214.095,183.735,214.095,179.282z"/>
<path fill="#E9E0D6" d="M234.835,185.42c-1.917,0-3.618-1.084-4.708-2.763c-0.297-0.354-0.518-0.794-0.659-1.277
	c-0.285-0.71-0.479-1.48-0.552-2.297c-0.01-0.019-0.019-0.038-0.026-0.058c-0.002,0.086-0.01,0.17-0.01,0.256
	c0,4.453,2.666,8.062,5.955,8.062c3.291,0,5.957-3.608,5.957-8.062c0-0.173-0.011-0.342-0.02-0.512
	C240.578,182.482,237.999,185.42,234.835,185.42z"/>
<path opacity="0.1" d="M234.835,185.42c-1.917,0-3.618-1.084-4.708-2.763c-0.297-0.354-0.518-0.794-0.659-1.277
	c-0.285-0.71-0.479-1.48-0.552-2.297c-0.01-0.019-0.019-0.038-0.026-0.058c-0.002,0.086-0.01,0.17-0.01,0.256
	c0,4.453,2.666,8.062,5.955,8.062c3.291,0,5.957-3.608,5.957-8.062c0-0.173-0.011-0.342-0.02-0.512
	C240.578,182.482,237.999,185.42,234.835,185.42z"/>
<path fill="#F2F2F2" d="M208.139,171.218c-2.929,0-5.358,2.521-5.858,5.842c0.06-0.105,0.126-0.204,0.201-0.294
	C203.263,173.546,205.499,171.218,208.139,171.218z"/>
<path fill="#F2F2F2" d="M214.076,178.77c0.009-0.15,0.02-0.299,0.02-0.451c0-3.922-2.667-7.101-5.956-7.101
	C211.3,171.218,213.88,174.557,214.076,178.77z"/>
<path fill="#F2F2F2" d="M202.482,176.766c0.296-0.355,0.707-0.576,1.162-0.576c0.278,0,0.536,0.09,0.766,0.236
	c0.317-0.148,0.66-0.236,1.021-0.236c1.562,0,2.829,1.51,2.829,3.372s-1.267,3.372-2.829,3.372c-1.537,0-2.783-1.466-2.821-3.289
	c-0.159-0.156-0.291-0.345-0.392-0.561c0.319,3.562,2.848,6.336,5.921,6.336c3.161,0,5.741-2.938,5.937-6.65
	c-0.195-4.213-2.775-7.552-5.937-7.552C205.499,171.218,203.263,173.546,202.482,176.766z"/>
<path fill="#F2F2F2" d="M234.835,171.218c-2.929,0-5.357,2.521-5.856,5.843c0.06-0.105,0.126-0.204,0.2-0.294
	C229.96,173.547,232.196,171.218,234.835,171.218z"/>
<path fill="#F2F2F2" d="M234.835,171.218c3.163,0,5.742,3.339,5.938,7.552c0.009-0.15,0.02-0.299,0.02-0.451
	C240.792,174.397,238.126,171.218,234.835,171.218z"/>
<path fill="#F2F2F2" d="M229.349,179.685c-0.178-0.163-0.324-0.366-0.433-0.602c0.072,0.816,0.267,1.587,0.552,2.297
	c-0.103-0.349-0.169-0.718-0.169-1.107C229.299,180.072,229.321,179.877,229.349,179.685z"/>
<path fill="#F2F2F2" d="M234.835,171.218c-2.64,0-4.875,2.329-5.656,5.549c0.297-0.356,0.708-0.577,1.162-0.577
	c0.529,0,0.996,0.305,1.296,0.77c0.16-0.034,0.322-0.06,0.491-0.06c1.563,0,2.83,1.511,2.83,3.373s-1.267,3.372-2.83,3.372
	c-0.782,0-1.489-0.377-2.001-0.987c1.09,1.679,2.791,2.763,4.708,2.763c3.163,0,5.742-2.938,5.938-6.65
	C240.578,174.557,237.999,171.218,234.835,171.218z"/>
<path fill="#42210B" d="M205.283,178.141c0,1.078-0.734,1.954-1.639,1.954c-0.395,0-0.752-0.173-1.034-0.45
	c0.038,1.823,1.284,3.289,2.821,3.289c1.562,0,2.829-1.51,2.829-3.372s-1.267-3.372-2.829-3.372c-0.361,0-0.704,0.088-1.021,0.236
	C204.926,176.754,205.283,177.395,205.283,178.141z"/>
<path fill="#42210B" d="M230.127,182.658c-0.256-0.395-0.477-0.822-0.659-1.277C229.61,181.864,229.831,182.303,230.127,182.658z"/>
<path fill="#42210B" d="M230.341,180.095c-0.375,0-0.717-0.157-0.992-0.41c-0.028,0.192-0.05,0.387-0.05,0.588
	c0,0.39,0.066,0.759,0.169,1.107c0.183,0.455,0.403,0.883,0.659,1.277c0.512,0.61,1.219,0.987,2.001,0.987
	c1.563,0,2.83-1.51,2.83-3.372s-1.267-3.373-2.83-3.373c-0.169,0-0.331,0.025-0.491,0.06c0.212,0.328,0.343,0.735,0.343,1.182
	C231.98,179.219,231.246,180.095,230.341,180.095z"/>
<path fill="#F2F2F2" d="M202.182,178.319c0-0.43,0.037-0.85,0.099-1.259c-0.173,0.31-0.274,0.681-0.274,1.081
	c0,0.32,0.07,0.619,0.186,0.885c0.002-0.086,0.006-0.17,0.01-0.256C202.193,178.62,202.182,178.471,202.182,178.319z"/>
<path fill="#F2F2F2" d="M202.202,178.77c-0.004,0.086-0.008,0.17-0.01,0.256c0.008,0.02,0.017,0.039,0.026,0.059
	C202.208,178.981,202.207,178.875,202.202,178.77z"/>
<path fill="#F2F2F2" d="M202.202,178.77c0.032-0.695,0.126-1.367,0.28-2.004c-0.075,0.09-0.142,0.188-0.201,0.294
	c-0.062,0.409-0.099,0.829-0.099,1.259C202.182,178.471,202.193,178.62,202.202,178.77z"/>
<path fill="#F2F2F2" d="M202.61,179.645c0-0.027-0.007-0.055-0.007-0.083c0-1.431,0.751-2.647,1.807-3.136
	c-0.229-0.146-0.487-0.236-0.766-0.236c-0.455,0-0.866,0.221-1.162,0.576c-0.154,0.637-0.248,1.309-0.28,2.004
	c0.005,0.105,0.007,0.211,0.017,0.314C202.319,179.3,202.451,179.489,202.61,179.645z"/>
<path fill="#F2F2F2" d="M202.603,179.562c0,0.028,0.007,0.056,0.007,0.083c0.282,0.277,0.64,0.45,1.034,0.45
	c0.904,0,1.639-0.876,1.639-1.954c0-0.746-0.356-1.387-0.873-1.715C203.354,176.915,202.603,178.131,202.603,179.562z"/>
<path fill="#F2F2F2" d="M228.88,178.319c0-0.43,0.037-0.85,0.099-1.258c-0.173,0.309-0.274,0.68-0.274,1.08
	c0,0.32,0.071,0.618,0.186,0.885c0.002-0.086,0.006-0.171,0.01-0.256C228.891,178.62,228.88,178.471,228.88,178.319z"/>
<path fill="#F2F2F2" d="M228.9,178.77c-0.004,0.085-0.008,0.17-0.01,0.256c0.008,0.02,0.017,0.039,0.026,0.058
	C228.907,178.981,228.905,178.875,228.9,178.77z"/>
<path fill="#F2F2F2" d="M228.9,178.77c0.032-0.695,0.126-1.366,0.279-2.003c-0.074,0.09-0.141,0.188-0.2,0.294
	c-0.062,0.408-0.099,0.828-0.099,1.258C228.88,178.471,228.891,178.62,228.9,178.77z"/>
<path fill="#F2F2F2" d="M228.917,179.083c0.108,0.235,0.255,0.438,0.433,0.602c0.205-1.39,1.12-2.481,2.288-2.726
	c-0.3-0.465-0.767-0.77-1.296-0.77c-0.454,0-0.865,0.221-1.162,0.577c-0.153,0.637-0.247,1.308-0.279,2.003
	C228.905,178.875,228.907,178.981,228.917,179.083z"/>
<path fill="#F2F2F2" d="M229.349,179.685c0.275,0.253,0.617,0.41,0.992,0.41c0.904,0,1.639-0.876,1.639-1.954
	c0-0.446-0.131-0.854-0.343-1.182C230.469,177.204,229.554,178.295,229.349,179.685z"/>
<path fill="#8CC63F" d="M188.422,231.131l-15.414,6.916l-5.394-15.523c-1.593,1.676-4.366,2.865-7.668,3.1
	c-0.526,0.038-1.074,0.042-1.59,0.03l5.966,17.562c2.392,0.078,4.791,0.12,7.211,0.12c3.854,0,7.886-0.103,11.663-0.3l5.227-2.281
	V231.131z"/>
<polygon fill="#8CC63F" points="199.57,235.583 188.885,230.872 188.422,231.131 188.422,240.754 "/>
<path fill="#E9E0D6" d="M168.911,217.911c-0.908-3.842-6.426-6.613-12.318-6.191c-5.893,0.421-9.932,3.875-9.021,7.715
	c0.83,3.497,5.481,6.1,10.757,6.22l-3.192-9.376l12.031,5.252l0.339,0.994C168.754,221.21,169.311,219.598,168.911,217.911z"/>
<path fill="#E9E0D6" d="M155.136,216.278l3.192,9.376c0.517,0.012,1.038,0.008,1.563-0.03c3.303-0.234,6.021-1.424,7.614-3.1
	l-0.339-0.994L155.136,216.278z"/>
<polygon fill="#6B7285" points="199.373,222.284 193.591,228.265 199.457,233.221 205.24,227.238 "/>
<path fill="#FFDA6A" d="M278.664,144.327h-82.241h-7.126h-2.167l0.233,16.923l0.127,19.346c0.278-0.004-0.067-0.047,0.933-0.112
	c2-0.539,4.076-3.135,5.644-7.102c0.036-0.251,0.052-0.817,0.061-1.075c1.796-4.863,3.165-9.981,3.175-17.981l42.121-0.795
	c3,9.874,14.074,17.805,29.074,20.531c1.961,0.368,4,0.655,6.109,0.826c0.001,0.004-0.017,0.018-0.016,0.022
	c1.626,0.128,3.842,0.206,4.842,0.21c0,0,0.294,0.004,0.337,0.004c0,0,0.082-13.98,0.16-13.984
	C279.929,161.139,279.802,147.327,278.664,144.327z M280.044,153.409"/>
<path d="M215.838,193.437c-5.663,0-10.253,3.159-10.253,7.049c0,3.894,4.59,7.05,10.253,7.05s10.254-3.156,10.254-7.05
	C226.092,196.596,221.501,193.437,215.838,193.437z"/>
<path opacity="0.1" fill="#CCCCCC" d="M171.526,243.335c80.776,0,146.303-44.202,146.745-99.013H24.781
	C25.223,199.133,90.75,243.335,171.526,243.335z"/>
</svg>
