<?xml version="1.0" encoding="utf-8"?>
<!-- Generator: Adobe Illustrator 15.0.0, SVG Export Plug-In . SVG Version: 6.00 Build 0)  -->
<!DOCTYPE svg PUBLIC "-//W3C//DTD SVG 1.1//EN" "http://www.w3.org/Graphics/SVG/1.1/DTD/svg11.dtd">
<svg version="1.1" id="Calque_1" xmlns="http://www.w3.org/2000/svg" xmlns:xlink="http://www.w3.org/1999/xlink" x="0px" y="0px"
	 width="146.682px" height="233.644px" viewBox="0 18.99 146.682 233.644" enable-background="new 0 18.99 146.682 233.644"
	 xml:space="preserve">
<path fill="#E9E0D6" d="M22.262,158.053c0,2.821,2.447,5.114,5.464,5.114c3.021,0,5.466-2.293,5.466-5.114
	c0-2.819-2.446-5.11-5.466-5.11C24.709,152.943,22.262,155.233,22.262,158.053z"/>
<ellipse fill="#CCCCCC" cx="25.967" cy="65.702" rx="5.408" ry="9.027"/>
<ellipse fill="#CCCCCC" cx="109.801" cy="65.702" rx="5.409" ry="9.027"/>
<rect x="79.225" y="223.416" fill="#E9E0D6" width="5.107" height="15.321"/>
<rect x="26.452" y="104.251" fill="#8CC63F" width="83.416" height="64.69"/>
<rect x="77.523" y="182.56" fill="#6B7285" width="10.213" height="45.964"/>
<rect x="43.475" y="180.857" fill="#6B7285" width="10.214" height="52.773"/>
<rect x="26.452" y="49.777" fill="#E9E0D6" width="83.416" height="54.476"/>
<rect x="26.452" y="104.251" fill="#8CC63F" width="10.214" height="64.69"/>
<polygon opacity="0.1" enable-background="new    " points="26.452,85.525 36.666,85.525 36.666,87.22 36.666,104.251 
	26.452,104.251 26.452,87.22 "/>
<rect x="26.452" y="104.251" opacity="0.1" enable-background="new    " width="10.214" height="64.69"/>
<path fill="#6B7285" d="M36.666,168.867v22.204h-0.725c-5.633-5.107-9.489-11.704-9.489-18.54v-3.664v0.073h10.214V168.867z"/>
<path opacity="0.1" enable-background="new    " d="M36.666,168.867v22.204h-0.725c-5.633-5.107-9.489-11.704-9.489-18.54v-3.664
	v0.073h10.214V168.867z"/>
<rect x="26.452" y="49.777" opacity="0.1" enable-background="new    " width="10.214" height="35.75"/>
<ellipse opacity="0.1" enable-background="new    " cx="91.57" cy="73.166" rx="5.409" ry="7.321"/>
<ellipse opacity="0.1" enable-background="new    " cx="67.331" cy="73.166" rx="5.407" ry="7.321"/>
<ellipse fill="#F2F2F2" cx="91.57" cy="72.293" rx="5.409" ry="6.45"/>
<ellipse fill="#F2F2F2" cx="67.331" cy="72.293" rx="5.407" ry="6.45"/>
<g>
	<path fill="#754C24" d="M23.063,147.487c0-6.523,5.081-11.812,11.35-11.812s11.35,5.286,11.35,11.812
		c0,3.76-1.696,7.105-4.331,9.265c0.341-1.16,0.534-2.427,0.534-3.754c0-5.653-3.401-10.244-7.594-10.244
		c-4.196,0-7.594,4.589-7.594,10.244c0,1.299,0.181,2.53,0.509,3.675C24.712,154.505,23.063,151.196,23.063,147.487z"/>
	<path fill="#603813" d="M34.371,142.753c4.193,0,7.594,4.589,7.594,10.244c0,1.327-0.193,2.594-0.534,3.754
		c-1.933,1.592-4.367,2.544-7.019,2.544c-2.702,0-5.179-0.984-7.127-2.623c-0.326-1.145-0.509-2.376-0.509-3.675
		C26.777,147.344,30.175,142.753,34.371,142.753z"/>
	<path fill="#754C24" d="M36.413,157.114c0-3.404,2.76-6.164,6.165-6.164s6.164,2.76,6.164,6.164c0,1.962-0.922,3.709-2.352,4.84
		c0.185-0.608,0.289-1.268,0.289-1.959c0-2.955-1.847-5.35-4.125-5.35c-2.277,0-4.126,2.393-4.126,5.35
		c0,0.674,0.103,1.32,0.279,1.916C37.307,160.778,36.413,159.05,36.413,157.114z"/>
	<path fill="#603813" d="M42.554,154.645c2.278,0,4.125,2.393,4.125,5.35c0,0.691-0.104,1.351-0.289,1.959
		c-1.049,0.826-2.373,1.325-3.812,1.325c-1.467,0-2.813-0.516-3.869-1.37c-0.178-0.596-0.279-1.241-0.279-1.916
		C38.428,157.037,40.276,154.645,42.554,154.645z"/>
	<path fill="#754C24" d="M19.532,157.114c0-3.404,2.756-6.164,6.165-6.164c3.401,0,6.161,2.76,6.161,6.164
		c0,1.962-0.921,3.709-2.351,4.84c0.187-0.608,0.29-1.268,0.29-1.959c0-2.955-1.847-5.35-4.125-5.35
		c-2.279,0-4.125,2.393-4.125,5.35c0,0.674,0.099,1.32,0.276,1.916C20.427,160.778,19.532,159.05,19.532,157.114z"/>
	<path fill="#603813" d="M25.672,154.645c2.277,0,4.125,2.393,4.125,5.35c0,0.691-0.103,1.351-0.29,1.959
		c-1.05,0.826-2.371,1.325-3.81,1.325c-1.466,0-2.813-0.516-3.872-1.37c-0.178-0.596-0.276-1.241-0.276-1.916
		C21.547,157.037,23.393,154.645,25.672,154.645z"/>
	<path fill="#754C24" d="M44.768,133.477c0,5.491-4.448,9.938-9.939,9.938s-9.94-4.447-9.94-9.938c0-3.169,1.484-5.982,3.79-7.804
		c-0.295,0.98-0.463,2.044-0.463,3.162c0,4.762,2.978,8.62,6.651,8.62c3.674,0,6.65-3.86,6.65-8.62c0-1.093-0.163-2.131-0.447-3.089
		C43.326,127.568,44.768,130.352,44.768,133.477z"/>
	<path fill="#754C24" d="M34.863,137.457c-3.672,0-6.65-3.86-6.65-8.62c0-1.117,0.17-2.181,0.465-3.162
		c1.693-1.337,3.824-2.138,6.148-2.138c2.364,0,4.535,0.831,6.241,2.21c0.284,0.958,0.449,1.998,0.449,3.089
		C41.517,133.597,38.541,137.457,34.863,137.457z"/>
	<path fill="#754C24" d="M24.284,127.748c-1.17-1.506-0.899-3.672,0.605-4.848c1.505-1.174,3.676-0.904,4.848,0.604
		c0.677,0.868,0.871,1.957,0.626,2.947c-0.127-0.333-0.307-0.658-0.546-0.962c-1.018-1.309-2.659-1.734-3.666-0.946
		c-1.005,0.784-0.999,2.477,0.02,3.788c0.234,0.296,0.499,0.543,0.781,0.747C25.943,129.061,24.952,128.606,24.284,127.748z"/>
	<path fill="#603813" d="M26.148,124.543c1.008-0.789,2.65-0.363,3.668,0.946c0.239,0.306,0.419,0.629,0.545,0.962
		c-0.177,0.728-0.594,1.404-1.229,1.902c-0.65,0.505-1.421,0.738-2.184,0.725c-0.283-0.203-0.547-0.452-0.782-0.747
		C25.151,127.02,25.142,125.327,26.148,124.543z"/>
	
		<ellipse transform="matrix(-0.7149 -0.6992 0.6992 -0.7149 -18.7448 247.0789)" fill="#C69C6D" cx="41.001" cy="127.361" rx="1.702" ry="1.064"/>
	<ellipse fill="#F2F2F2" cx="38.119" cy="131.978" rx="0.902" ry="1.074"/>
	<ellipse fill="#F2F2F2" cx="31.808" cy="131.978" rx="0.901" ry="1.074"/>
	<ellipse opacity="0.2" enable-background="new    " cx="34.308" cy="135.757" rx="3.252" ry="2.731"/>
	
		<ellipse transform="matrix(0.7945 -0.6073 0.6073 0.7945 -78.3345 57.9575)" fill="#754C24" cx="46.461" cy="144.712" rx="2.32" ry="5.253"/>
</g>
<ellipse fill="#42210B" cx="94.027" cy="73.423" rx="2.57" ry="3.063"/>
<ellipse fill="#42210B" cx="69.789" cy="74.068" rx="2.568" ry="3.063"/>
<ellipse fill="#F2F2F2" cx="95.649" cy="72.132" rx="1.49" ry="1.772"/>
<ellipse fill="#F2F2F2" cx="71.411" cy="72.132" rx="1.488" ry="1.772"/>
<polygon fill="#8CC63F" points="28.018,156.529 33.095,149.83 12.331,127.466 31.331,112.071 27.077,104.603 0.102,126.458 "/>
<polygon fill="none" points="23.047,118.179 23.047,139.814 11.583,127.466 "/>
<polygon fill="#567EAF" points="33.095,149.83 32.99,149.97 32.99,149.716 "/>
<polygon opacity="0.1" enable-background="new    " points="22.92,151.041 23.105,139.07 33.095,149.83 28.018,156.529 "/>
<polyline fill="#8CC63F" points="27.077,104.603 31.331,112.071 23.113,118.727 "/>
<polygon opacity="0.1" enable-background="new    " points="31.393,112.071 23.047,118.884 23.047,107.973 27.169,104.603 "/>
<path fill="#E9E0D6" d="M26.448,156.061c3.775,3.38,8.475,3.514,10.5,0.301c2.025-3.214,0.605-8.56-3.166-11.938
	c-3.773-3.377-8.475-3.513-10.5-0.304C21.258,147.337,22.674,152.681,26.448,156.061z"/>
<polygon fill="#8CC63F" points="123.666,126.525 128.772,111.531 139.695,106.758 129.143,137.756 99.547,124.289 109.349,120.01 
	"/>
<path fill="#E9E0D6" d="M138.376,102.618c-5.351-0.382-10.36,2.135-11.186,5.623c-0.828,3.489,2.839,6.625,8.189,7.006
	c5.352,0.382,10.36-2.135,11.185-5.623C147.393,106.141,143.725,103.001,138.376,102.618z"/>
<path fill="#363943" d="M36.566,236.204c2.277-2.873,5.732-4.276,9.655-4.276h0.336c5.779,0,10.63,3.405,12.129,8.512H36.566h-2.474
	C34.574,238.738,35.429,237.566,36.566,236.204z"/>
<polygon fill="#6B7285" points="99.454,122.142 104.78,117.643 99.529,112.211 94.204,116.711 "/>
<ellipse fill="#E9E0D6" cx="49.387" cy="210.785" rx="3.109" ry="2.906"/>
<path fill="#FFDA6A" d="M103.928,33.578C96.475,24.82,83.222,18.99,68.106,18.99c-23.238,0-42.081,13.769-42.201,30.784l0.202,0
	l0.231,19.62c18.264,0,33.297-8.388,36.795-19.548l38.536,0.074c0.018,13.462,4.012,24.372,8.946,24.442l0.047-49.061
	C107.981,25.3,105.575,28.503,103.928,33.578z"/>
<ellipse cx="84.582" cy="92.421" rx="9.31" ry="6.402"/>
<path fill="#6B7285" d="M110.165,168.941h-9.81c-0.235-4.45-3.908-7.991-8.418-7.991c-4.509,0-8.183,3.541-8.417,7.991H26.452v3.591
	c0,16.198,18.832,29.264,41.94,29.264c23.103,0,41.721-12.991,41.792-29.19L110.165,168.941z"/>
<path fill="#363943" d="M72.315,236.204c2.277-2.873,5.732-4.276,9.655-4.276h0.336c5.779,0,10.629,3.405,12.129,8.512H72.315
	h-2.474C70.324,238.738,71.178,237.566,72.315,236.204z"/>
<polygon fill="#8CC63F" points="40.113,184.854 43.721,188.374 47.828,184.7 44.227,181.178 "/>
<ellipse opacity="0.1" fill="#1A1A1A" enable-background="new    " cx="68.317" cy="240.44" rx="58.448" ry="9.13"/>
</svg>
