<?xml version="1.0" encoding="utf-8"?>
<!-- Generator: Adobe Illustrator 16.0.0, SVG Export Plug-In . SVG Version: 6.00 Build 0)  -->
<!DOCTYPE svg PUBLIC "-//W3C//DTD SVG 1.1//EN" "http://www.w3.org/Graphics/SVG/1.1/DTD/svg11.dtd">
<svg version="1.1" id="Calque_1" xmlns="http://www.w3.org/2000/svg" xmlns:xlink="http://www.w3.org/1999/xlink" x="0px" y="0px"
	 width="167.444px" height="276.109px" viewBox="0 0 167.444 276.109" enable-background="new 0 0 167.444 276.109"
	 xml:space="preserve">
<ellipse opacity="0.1" fill="#1A1A1A" cx="105.793" cy="248.271" rx="61.651" ry="9.63"/>
<ellipse fill="#CCCCCC" cx="140.74" cy="72.169" rx="5.584" ry="9.32"/>
<ellipse fill="#CCCCCC" cx="54.187" cy="72.169" rx="5.584" ry="9.32"/>
<rect x="70.053" y="232.599" fill="#E9E0D6" width="5" height="15"/>
<rect x="124.053" y="231.599" fill="#E9E0D6" width="4" height="15"/>
<path fill="#E9E0D6" d="M140.053,48.599h0.961c-0.077-24-19.382-43.952-43.189-43.952c-23.807,0-43.111,19.952-43.189,43.952h-0.582
	v44h86V48.599z"/>
<rect x="54.053" y="112.599" fill="#567EAF" width="86" height="66"/>
<polygon opacity="0.1" points="79.053,108.599 79.053,168.314 83.589,108.599 "/>
<rect x="66.053" y="190.599" fill="#6B7285" width="11" height="48"/>
<rect x="120.053" y="189.599" fill="#6B7285" width="11" height="48"/>
<polygon fill="#E9E0D6" points="54.053,48.599 54.053,92.599 140.053,92.599 140.053,48.599 54.635,48.599 "/>
<rect x="54.053" y="92.599" fill="#C1272D" width="86" height="20"/>
<polygon fill="#911D22" points="97.321,126.405 87.537,128.995 82.205,101.934 91.989,99.345 "/>
<polygon fill="#911D22" points="73.71,129.095 66.402,120.871 82.363,100.711 89.67,108.935 "/>
<path fill="#E9E0D6" d="M97.824,4.917c-0.189,0-0.375,0.012-0.564,0.015h1.129C98.2,4.929,98.013,4.917,97.824,4.917z"/>
<polyline fill="#E9E0D6" points="140.053,44.599 140.053,48.599 141.053,48.599 "/>
<rect x="131.053" y="112.599" fill="#567EAF" width="9" height="66"/>
<rect x="131.053" y="92.599" fill="#C1272D" width="9" height="20"/>
<path fill="#8CC63F" d="M131.053,20.976c-7-9.709-19.41-16.377-32.664-16.377H97.26c-19.526,0-35.915,14-40.99,32h74.783V20.976z"/>
<path fill="#22B573" d="M54.053,36.599v12h0.582c0.014-4,0.59-8,1.635-12H54.053z"/>
<path fill="#22B573" d="M56.27,36.599c-1.045,4-1.621,8-1.635,12h76.418v-12H56.27z"/>
<path fill="#8CC63F" d="M139.377,36.599c-1.63-6-4.324-11.028-8.324-15.623v15.623H139.377z"/>
<path opacity="0.1" d="M139.377,36.599c-1.63-6-4.324-11.028-8.324-15.623v15.623H139.377z"/>
<path fill="#22B573" d="M140.053,44.099v-7.5h-0.676C140.018,38.599,140.053,41.62,140.053,44.099z"/>
<path fill="#6B7285" d="M54.053,178.599v3.867c0,16.725,18.9,30.18,42.756,30.18s43.244-13.455,43.244-30.18v-3.867H54.053z"/>
<path fill="#22B573" d="M131.053,36.599v12h10v-4.5c0-2.479,0-4.5,0-7.5H131.053z"/>
<polygon opacity="0.1" points="140.294,36.599 137.075,36.599 127.053,36.599 127.053,48.599 136.675,48.599 141.053,48.599 
	141.053,44.099 141.053,36.599 "/>
<polygon opacity="0.1" points="140.053,92.599 127.053,92.599 127.053,94.387 127.053,112.599 140.053,112.599 140.053,94.387 "/>
<rect x="131.053" y="112.599" opacity="0.1" width="9" height="66"/>
<path fill="#6B7285" d="M131.053,178.685v22.914h0.091c5.815-6,8.909-12.076,8.909-19.133v-3.781v-0.086h-9V178.685z"/>
<path opacity="0.1" d="M131.053,178.685v22.914h0.091c5.815-6,8.909-12.076,8.909-19.133v-3.781v-0.086h-9V178.685z"/>
<rect x="131.053" y="48.599" opacity="0.1" width="9" height="44"/>
<polygon opacity="0.3" points="54.197,105.599 140.053,102.46 140.053,105.599 "/>
<polygon opacity="0.3" points="54.053,95.969 140.75,92.599 54.053,92.599 "/>
<ellipse opacity="0.1" cx="63.523" cy="66.843" rx="5.584" ry="9.321"/>
<ellipse opacity="0.1" cx="89.611" cy="66.843" rx="5.584" ry="9.321"/>
<ellipse fill="#F2F2F2" cx="63.523" cy="64.181" rx="5.584" ry="6.657"/>
<ellipse fill="#F2F2F2" cx="89.611" cy="64.181" rx="5.584" ry="6.657"/>
<ellipse fill="#42210B" cx="64.5" cy="65.346" rx="2.652" ry="3.162"/>
<ellipse fill="#42210B" cx="90.589" cy="66.012" rx="2.652" ry="3.162"/>
<ellipse fill="#F2F2F2" cx="62.825" cy="64.014" rx="1.535" ry="1.831"/>
<ellipse fill="#F2F2F2" cx="88.914" cy="64.014" rx="1.536" ry="1.831"/>
<polygon fill="#567EAF" points="138.625,165.943 133.383,159.027 154.819,135.937 135.481,120.044 139.597,112.335 167.444,134.897 
	"/>
<polygon fill="none" points="143.053,126.348 143.053,148.686 154.889,135.937 "/>
<polygon fill="#567EAF" points="154.889,135.937 143.053,148.686 143.053,161.247 167.514,134.897 143.053,115.079 143.053,126.348 
	"/>
<polygon fill="#567EAF" points="133.383,159.027 133.49,159.17 133.49,158.911 "/>
<polygon fill="#567EAF" points="143.053,161.247 143.053,148.686 134.053,158.911 134.053,159.17 138.939,165.943 "/>
<polygon opacity="0.1" points="143.053,161.247 143.053,148.042 134.053,158.269 134.053,158.526 138.939,165.943 "/>
<polygon fill="#567EAF" points="135.237,120.044 143.053,126.348 143.053,115.079 139.23,112.335 "/>
<polygon opacity="0.1" points="135.237,120.044 143.053,126.668 143.053,115.079 139.23,112.335 "/>
<path fill="#E9E0D6" d="M140.243,165.46c-3.896,3.489-8.75,3.628-10.84,0.311c-2.092-3.318-0.626-8.837,3.27-12.326
	c3.896-3.488,8.75-3.628,10.841-0.311C145.604,156.452,144.141,161.972,140.243,165.46z"/>
<polygon fill="#567EAF" points="41.088,136.412 56.03,129.759 59.913,118.081 29.029,131.832 45.644,161.001 49.127,150.526 "/>
<path fill="#E9E0D6" d="M54.032,152.621c2.703,4.834,2.547,10.619-0.349,12.921c-2.896,2.303-7.437,0.25-10.14-4.583
	c-2.703-4.835-2.547-10.619,0.349-12.922C46.789,145.735,51.329,147.787,54.032,152.621z"/>
<polygon fill="#6B7285" points="63.824,131.739 58.211,126.995 63.745,121.269 69.36,126.013 "/>
<polygon fill="#567EAF" points="126.134,195.188 122.413,198.824 118.17,195.029 121.891,191.393 "/>
<ellipse fill="#E9E0D6" cx="71.303" cy="220.202" rx="3.21" ry="3.003"/>
<circle fill="#22B573" cx="96.944" cy="4.288" r="4.288"/>
<polygon fill="#C1272D" points="96.207,124.111 86.332,126.326 82.032,99.082 91.908,96.867 "/>
<polygon fill="#C1272D" points="73.066,128.451 65.759,120.228 81.72,100.068 89.027,108.291 "/>
<g opacity="0.3">
	<ellipse fill="#603813" cx="68.529" cy="83.661" rx="0.669" ry="0.737"/>
	<ellipse fill="#603813" cx="65.024" cy="80.445" rx="0.67" ry="0.737"/>
	<ellipse fill="#603813" cx="61.52" cy="83.661" rx="0.669" ry="0.737"/>
	<ellipse fill="#603813" cx="65.024" cy="85.592" rx="0.67" ry="0.736"/>
	<ellipse fill="#603813" cx="58.015" cy="85.592" rx="0.67" ry="0.736"/>
	<ellipse fill="#603813" cx="61.52" cy="88.808" rx="0.669" ry="0.736"/>
	<ellipse fill="#603813" cx="54.51" cy="88.808" rx="0.669" ry="0.736"/>
	<ellipse fill="#603813" cx="58.015" cy="91.381" rx="0.67" ry="0.736"/>
	<ellipse fill="#603813" cx="65.024" cy="91.381" rx="0.67" ry="0.736"/>
	<ellipse fill="#603813" cx="68.529" cy="88.808" rx="0.669" ry="0.736"/>
	<ellipse fill="#603813" cx="68.529" cy="83.661" rx="0.669" ry="0.737"/>
	<ellipse fill="#603813" cx="72.033" cy="80.445" rx="0.67" ry="0.737"/>
	<ellipse fill="#603813" cx="72.033" cy="85.592" rx="0.67" ry="0.736"/>
	<ellipse fill="#603813" cx="72.033" cy="91.381" rx="0.67" ry="0.736"/>
	<ellipse fill="#603813" cx="75.538" cy="78.516" rx="0.669" ry="0.737"/>
	<ellipse fill="#603813" cx="75.538" cy="83.661" rx="0.669" ry="0.737"/>
	<ellipse fill="#603813" cx="75.538" cy="88.808" rx="0.669" ry="0.736"/>
	<ellipse fill="#603813" cx="79.043" cy="91.381" rx="0.669" ry="0.736"/>
	<ellipse fill="#603813" cx="79.043" cy="85.592" rx="0.669" ry="0.736"/>
	<ellipse fill="#603813" cx="79.043" cy="80.445" rx="0.669" ry="0.737"/>
	<ellipse fill="#603813" cx="82.548" cy="78.516" rx="0.669" ry="0.737"/>
	<ellipse fill="#603813" cx="82.548" cy="83.661" rx="0.669" ry="0.737"/>
	<ellipse fill="#603813" cx="82.548" cy="88.808" rx="0.669" ry="0.736"/>
	<ellipse fill="#603813" cx="86.052" cy="80.445" rx="0.669" ry="0.737"/>
	<ellipse fill="#603813" cx="86.052" cy="85.592" rx="0.669" ry="0.736"/>
	<ellipse fill="#603813" cx="86.052" cy="91.381" rx="0.669" ry="0.736"/>
	<ellipse fill="#603813" cx="89.557" cy="78.516" rx="0.67" ry="0.737"/>
	<ellipse fill="#603813" cx="89.557" cy="83.661" rx="0.67" ry="0.737"/>
	<ellipse fill="#603813" cx="89.557" cy="88.808" rx="0.67" ry="0.736"/>
	<ellipse fill="#603813" cx="93.062" cy="80.445" rx="0.669" ry="0.737"/>
	<ellipse fill="#603813" cx="93.062" cy="85.592" rx="0.669" ry="0.736"/>
	<ellipse fill="#603813" cx="93.062" cy="91.381" rx="0.669" ry="0.736"/>
	<ellipse fill="#603813" cx="96.567" cy="83.661" rx="0.67" ry="0.737"/>
	<ellipse fill="#603813" cx="96.567" cy="88.808" rx="0.67" ry="0.736"/>
	<ellipse fill="#603813" cx="100.071" cy="80.445" rx="0.669" ry="0.737"/>
	<ellipse fill="#603813" cx="100.071" cy="85.592" rx="0.669" ry="0.736"/>
	<ellipse fill="#603813" cx="100.071" cy="91.381" rx="0.669" ry="0.736"/>
	<ellipse fill="#603813" cx="103.576" cy="83.661" rx="0.67" ry="0.737"/>
	<ellipse fill="#603813" cx="103.576" cy="88.808" rx="0.67" ry="0.736"/>
	<ellipse fill="#603813" cx="107.081" cy="85.592" rx="0.669" ry="0.736"/>
	<ellipse fill="#603813" cx="107.081" cy="91.381" rx="0.669" ry="0.736"/>
	<ellipse fill="#603813" cx="110.585" cy="88.808" rx="0.67" ry="0.736"/>
	<ellipse fill="#603813" cx="114.09" cy="91.381" rx="0.669" ry="0.736"/>
</g>
<ellipse cx="75.376" cy="86.51" rx="10.077" ry="1.193"/>
<path fill="#363943" d="M72.443,240.772c-5.721,0-10.36,4.826-10.391,9.826h20.78C82.804,245.599,78.164,240.772,72.443,240.772z"/>
<path fill="#363943" d="M136.865,250.599c0,0,0.002,0.132,0.002,0.114c0-5.455-4.653-9.795-10.392-9.795
	c-5.739,0-10.393,4.298-10.393,9.753c0,0.018,0.002-0.072,0.002-0.072H136.865z"/>
<path fill="#E9E0D6" d="M129.401,245.944c-2.302,0-4.169,1.935-4.169,4.324c0,0.113,0.009,0.33,0.017,0.33h8.305
	c0.009,0,0.016-0.217,0.016-0.33C133.569,247.879,131.704,245.944,129.401,245.944z"/>
<ellipse opacity="0.1" fill="#1A1A1A" cx="65.901" cy="268.433" rx="50.151" ry="7.834"/>
<ellipse fill="#CCCCCC" cx="71.337" cy="165.954" rx="3.177" ry="5.303"/>
<ellipse fill="#CCCCCC" cx="22.092" cy="165.954" rx="3.177" ry="5.303"/>
<rect x="37.053" y="258.599" fill="#E9E0D6" width="3" height="9"/>
<rect x="22.053" y="188.599" fill="#8CC63F" width="49" height="38"/>
<rect x="35.053" y="234.599" fill="#6B7285" width="6" height="27"/>
<rect x="55.053" y="233.599" fill="#6B7285" width="6" height="31"/>
<rect x="22.053" y="156.599" fill="#E9E0D6" width="49" height="32"/>
<path fill="#E9E0D6" d="M46.92,132.357c-0.108,0-0.213,0.007-0.321,0.008h0.643C47.134,132.364,47.027,132.357,46.92,132.357z"/>
<rect x="65.053" y="188.599" fill="#8CC63F" width="6" height="38"/>
<path fill="#6B7285" d="M21.878,226.599l-0.011,2.152c0.041,9.516,10.978,17.148,24.55,17.148c13.573,0,24.636-7.677,24.636-17.191
	v-2.109H21.878z"/>
<polygon opacity="0.1" points="71.053,177.599 65.053,177.599 65.053,178.595 65.053,188.599 71.053,188.599 71.053,178.595 "/>
<rect x="65.053" y="188.599" opacity="0.1" width="6" height="38"/>
<path fill="#6B7285" d="M65.053,226.556v13.043h0.426c3.309-3,5.574-6.876,5.574-10.891v-2.152v0.043h-6V226.556z"/>
<path opacity="0.1" d="M65.053,226.556v13.043h0.426c3.309-3,5.574-6.876,5.574-10.891v-2.152v0.043h-6V226.556z"/>
<rect x="65.053" y="156.599" opacity="0.1" width="6" height="21"/>
<ellipse opacity="0.1" cx="32.8" cy="170.339" rx="3.177" ry="4.3"/>
<ellipse opacity="0.1" cx="47.04" cy="170.339" rx="3.177" ry="4.3"/>
<ellipse fill="#F2F2F2" cx="32.8" cy="169.825" rx="3.177" ry="3.788"/>
<ellipse fill="#F2F2F2" cx="47.04" cy="169.825" rx="3.177" ry="3.788"/>
<g>
	<path fill="#754C24" d="M73.043,213.994c0-3.831-2.985-6.938-6.667-6.938c-3.682,0-6.667,3.106-6.667,6.938
		c0,2.21,0.997,4.175,2.543,5.444c-0.2-0.683-0.313-1.426-0.313-2.205c0-3.323,1.998-6.019,4.461-6.019s4.46,2.695,4.46,6.019
		c0,0.762-0.108,1.486-0.299,2.157C72.074,218.118,73.043,216.175,73.043,213.994z"/>
	<path fill="#603813" d="M66.401,211.215c-2.463,0-4.461,2.695-4.461,6.019c0,0.779,0.113,1.522,0.313,2.205
		c1.135,0.933,2.565,1.493,4.123,1.493c1.586,0,3.042-0.578,4.186-1.541c0.191-0.671,0.299-1.396,0.299-2.157
		C70.861,213.91,68.864,211.215,66.401,211.215z"/>
	<path fill="#754C24" d="M65.202,219.65c0-2-1.621-3.621-3.621-3.621c-2,0-3.621,1.621-3.621,3.621c0,1.153,0.542,2.179,1.381,2.842
		c-0.108-0.356-0.17-0.744-0.17-1.15c0-1.735,1.085-3.142,2.423-3.142c1.338,0,2.423,1.406,2.423,3.142
		c0,0.396-0.06,0.775-0.163,1.125C64.675,221.803,65.202,220.788,65.202,219.65z"/>
	<path fill="#603813" d="M61.594,218.2c-1.338,0-2.423,1.406-2.423,3.142c0,0.406,0.062,0.794,0.17,1.15
		c0.617,0.486,1.394,0.779,2.24,0.779c0.861,0,1.652-0.302,2.273-0.805c0.104-0.35,0.163-0.729,0.163-1.125
		C64.017,219.606,62.932,218.2,61.594,218.2z"/>
	<path fill="#754C24" d="M75.118,219.65c0-2-1.621-3.621-3.621-3.621c-2,0-3.621,1.621-3.621,3.621c0,1.153,0.541,2.179,1.381,2.842
		c-0.109-0.356-0.17-0.744-0.17-1.15c0-1.735,1.085-3.142,2.423-3.142c1.338,0,2.423,1.406,2.423,3.142
		c0,0.396-0.059,0.775-0.163,1.125C74.592,221.803,75.118,220.788,75.118,219.65z"/>
	<path fill="#603813" d="M71.511,218.2c-1.338,0-2.423,1.406-2.423,3.142c0,0.406,0.062,0.794,0.17,1.15
		c0.617,0.486,1.393,0.779,2.239,0.779c0.861,0,1.652-0.302,2.274-0.805c0.104-0.35,0.163-0.729,0.163-1.125
		C73.934,219.606,72.849,218.2,71.511,218.2z"/>
	<path fill="#754C24" d="M60.293,205.766c0,3.225,2.614,5.839,5.839,5.839s5.839-2.614,5.839-5.839c0-1.86-0.873-3.513-2.228-4.583
		c0.174,0.575,0.274,1.2,0.274,1.856c0,2.797-1.749,5.065-3.907,5.065s-3.907-2.269-3.907-5.065c0-0.641,0.096-1.251,0.263-1.814
		C61.141,202.295,60.293,203.931,60.293,205.766z"/>
	<path fill="#754C24" d="M66.11,208.104c2.158,0,3.907-2.269,3.907-5.065c0-0.656-0.1-1.281-0.274-1.856
		c-0.995-0.785-2.247-1.257-3.612-1.257c-1.389,0-2.664,0.488-3.666,1.299c-0.167,0.563-0.263,1.174-0.263,1.814
		C62.203,205.836,63.952,208.104,66.11,208.104z"/>
	<path fill="#754C24" d="M72.326,202.401c0.689-0.885,0.53-2.159-0.354-2.849c-0.884-0.688-2.16-0.53-2.848,0.354
		c-0.397,0.511-0.512,1.151-0.368,1.733c0.075-0.195,0.181-0.388,0.321-0.567c0.598-0.768,1.562-1.017,2.154-0.555
		c0.591,0.461,0.586,1.456-0.011,2.225c-0.137,0.175-0.293,0.321-0.459,0.44C71.352,203.173,71.934,202.905,72.326,202.401z"/>
	<path fill="#603813" d="M71.23,200.518c-0.592-0.462-1.557-0.213-2.154,0.555c-0.14,0.18-0.246,0.372-0.321,0.567
		c0.105,0.428,0.348,0.824,0.722,1.116c0.381,0.297,0.834,0.435,1.283,0.427c0.166-0.119,0.323-0.266,0.459-0.44
		C71.817,201.974,71.821,200.979,71.23,200.518z"/>
	
		<ellipse transform="matrix(-0.6989 -0.7153 0.7153 -0.6989 -38.4301 388.186)" fill="#C69C6D" cx="62.504" cy="202.183" rx="0.625" ry="1"/>
	<ellipse fill="#F2F2F2" cx="64.198" cy="204.885" rx="0.53" ry="0.631"/>
	<ellipse fill="#F2F2F2" cx="67.907" cy="204.885" rx="0.53" ry="0.631"/>
	<ellipse opacity="0.2" cx="66.438" cy="207.105" rx="1.91" ry="1.604"/>
	
		<ellipse transform="matrix(-0.6072 0.7945 -0.7945 -0.6072 264.0273 294.1879)" fill="#754C24" cx="59.297" cy="212.355" rx="3.085" ry="1.362"/>
</g>
<ellipse fill="#42210B" cx="31.356" cy="170.488" rx="1.509" ry="1.799"/>
<ellipse fill="#42210B" cx="45.596" cy="170.867" rx="1.509" ry="1.799"/>
<ellipse fill="#F2F2F2" cx="30.403" cy="169.73" rx="0.874" ry="1.042"/>
<ellipse fill="#F2F2F2" cx="44.643" cy="169.73" rx="0.874" ry="1.042"/>
<polygon fill="#8CC63F" points="70.133,219.307 67.15,215.372 79.347,202.235 68.187,193.192 70.686,188.806 86.53,201.644 "/>
<polygon fill="none" points="73.053,196.779 73.053,209.488 79.787,202.235 "/>
<polygon fill="#567EAF" points="67.15,215.372 67.212,215.453 67.212,215.306 "/>
<polygon opacity="0.1" points="73.126,216.082 73.019,209.052 67.15,215.372 70.133,219.307 "/>
<polyline fill="#8CC63F" points="70.686,188.806 68.187,193.192 73.014,197.103 "/>
<polygon opacity="0.1" points="68.149,193.192 73.053,197.194 73.053,190.783 70.631,188.806 "/>
<path fill="#E9E0D6" d="M71.054,219.032c-2.217,1.985-4.979,2.063-6.167,0.176c-1.19-1.887-0.356-5.027,1.86-7.013
	c2.217-1.984,4.979-2.064,6.168-0.177C74.104,213.907,73.271,217.047,71.054,219.032z"/>
<polygon fill="#8CC63F" points="13.947,201.683 10.947,192.873 4.53,190.071 10.73,208.279 28.114,200.368 22.358,197.855 "/>
<path fill="#E9E0D6" d="M5.307,187.64c3.143-0.225,6.085,1.254,6.57,3.303c0.486,2.048-1.668,3.891-4.811,4.114
	c-3.144,0.225-6.085-1.254-6.571-3.302S2.164,187.864,5.307,187.64z"/>
<path fill="#363943" d="M65.11,266.11c-1.337-1.688-3.367-2.512-5.671-2.512h-0.197c-3.394,0-6.244,2-7.126,5H65.11h1.454
	C66.282,267.599,65.78,266.908,65.11,266.11z"/>
<polygon fill="#6B7285" points="28.169,199.108 25.041,196.465 28.125,193.274 31.253,195.917 "/>
<polygon fill="#8CC63F" points="63.026,235.945 60.909,238.015 58.496,235.855 60.612,233.786 "/>
<ellipse fill="#E9E0D6" cx="57.581" cy="251.178" rx="1.827" ry="1.708"/>
<path fill="#FFDA6A" d="M46.584,138.514c-13.692,0-24.792,8.139-24.792,18.179l49.581-0.096
	C71.303,146.602,60.233,138.514,46.584,138.514z"/>
<path fill="#FFDA6A" d="M26.869,156.631c0-7.959-2.365-14.41-5.283-14.41l0.028,28.818
	C24.519,170.998,26.869,164.563,26.869,156.631z"/>
<path fill="#FFDA6A" d="M71.255,156.597l-22.202-2.916c0,0.011,0,0.021,0,0.032c0,7.959,9.792,14.409,22.066,14.409L71.255,156.597z
	"/>
<ellipse cx="36.907" cy="181.648" rx="5.469" ry="3.76"/>
<circle fill="#6B7285" cx="32.584" cy="226.862" r="4.958"/>
<text transform="matrix(0.9949 -0.1006 0.1006 0.9949 34.5503 184.8428)" fill="#FFFFFF" font-family="'AmericanTypewriter-Bold'" font-size="8.9279">$</text>
<path fill="#363943" d="M44.11,266.11c-1.337-1.688-3.367-2.512-5.671-2.512h-0.197c-3.394,0-6.244,2-7.126,5H44.11h1.454
	C45.282,267.599,44.78,266.908,44.11,266.11z"/>
</svg>
