<?xml version="1.0" encoding="utf-8"?>
<!-- Generator: Adobe Illustrator 16.0.0, SVG Export Plug-In . SVG Version: 6.00 Build 0)  -->
<!DOCTYPE svg PUBLIC "-//W3C//DTD SVG 1.1//EN" "http://www.w3.org/Graphics/SVG/1.1/DTD/svg11.dtd">
<svg version="1.1" id="Calque_1" xmlns="http://www.w3.org/2000/svg" xmlns:xlink="http://www.w3.org/1999/xlink" x="0px" y="0px"
	 width="170.625px" height="276.266px" viewBox="0 0 170.625 276.266" enable-background="new 0 0 170.625 276.266"
	 xml:space="preserve">
<ellipse opacity="0.1" fill="#1A1A1A" cx="61.651" cy="248.229" rx="61.651" ry="9.631"/>
<ellipse fill="#CCCCCC" cx="31.312" cy="72.169" rx="5.584" ry="9.32"/>
<ellipse fill="#CCCCCC" cx="117.866" cy="72.169" rx="5.584" ry="9.32"/>
<rect x="97" y="232.598" fill="#E9E0D6" width="5" height="15"/>
<rect x="44" y="231.598" fill="#E9E0D6" width="4" height="15"/>
<path fill="#E9E0D6" d="M32,48.599h-0.961c0.077-24,19.382-43.952,43.189-43.952c23.807,0,43.111,19.952,43.189,43.952H118v44H32
	V48.599z"/>
<rect x="32" y="112.599" fill="#567EAF" width="86" height="66"/>
<polygon opacity="0.1" points="93,108.599 93,168.315 88.464,108.599 "/>
<rect x="95" y="190.598" fill="#6B7285" width="11" height="48"/>
<rect x="41" y="189.598" fill="#6B7285" width="11" height="48"/>
<polygon fill="#E9E0D6" points="118,48.599 118,92.599 32,92.599 32,48.599 117.418,48.599 "/>
<rect x="32" y="92.599" fill="#C1272D" width="86" height="20"/>
<polygon fill="#911D22" points="74.731,126.405 84.516,128.995 89.848,101.934 80.063,99.345 "/>
<polygon fill="#911D22" points="98.343,129.095 105.65,120.871 89.689,100.711 82.383,108.935 "/>
<path fill="#E9E0D6" d="M74.229,4.917c0.189,0,0.375,0.012,0.564,0.015h-1.129C73.853,4.929,74.04,4.917,74.229,4.917z"/>
<polyline fill="#E9E0D6" points="32,44.599 32,48.599 31,48.599 "/>
<rect x="32" y="112.599" fill="#567EAF" width="9" height="66"/>
<rect x="32" y="92.599" fill="#C1272D" width="9" height="20"/>
<path fill="#8CC63F" d="M41,20.976c7-9.709,19.41-16.377,32.664-16.377h1.129c19.526,0,35.915,14,40.99,32H41V20.976z"/>
<path fill="#22B573" d="M118,36.599v12h-0.582c-0.014-4-0.59-8-1.635-12H118z"/>
<path fill="#22B573" d="M115.783,36.599c1.045,4,1.621,8,1.635,12H41v-12H115.783z"/>
<path fill="#8CC63F" d="M32.676,36.599c1.63-6,4.324-11.028,8.324-15.623v15.623H32.676z"/>
<path opacity="0.1" d="M32.676,36.599c1.63-6,4.324-11.028,8.324-15.623v15.623H32.676z"/>
<path fill="#22B573" d="M32,44.099v-7.5h0.676C32.035,38.599,32,41.62,32,44.099z"/>
<path fill="#6B7285" d="M118,178.598v3.867c0,16.725-18.9,30.18-42.756,30.18S32,199.19,32,182.465v-3.867H118z"/>
<path fill="#22B573" d="M41,36.599v12H31v-4.5c0-2.479,0-4.5,0-7.5H41z"/>
<polygon opacity="0.1" points="31.759,36.599 34.978,36.599 45,36.599 45,48.599 35.378,48.599 31,48.599 31,44.099 31,36.599 "/>
<polygon opacity="0.1" points="32,92.599 45,92.599 45,94.387 45,112.599 32,112.599 32,94.387 "/>
<rect x="32" y="112.599" opacity="0.1" width="9" height="66"/>
<path fill="#6B7285" d="M41,178.684v22.914h-0.091c-5.815-6-8.909-12.076-8.909-19.133v-3.781v-0.086h9V178.684z"/>
<path opacity="0.1" d="M41,178.684v22.914h-0.091c-5.815-6-8.909-12.076-8.909-19.133v-3.781v-0.086h9V178.684z"/>
<rect x="32" y="48.599" opacity="0.1" width="9" height="44"/>
<polygon opacity="0.3" points="117.855,105.599 32,102.46 32,105.599 "/>
<polygon opacity="0.3" points="118,95.969 31.303,92.599 118,92.599 "/>
<ellipse opacity="0.1" cx="108.529" cy="66.843" rx="5.584" ry="9.321"/>
<ellipse opacity="0.1" cx="82.441" cy="66.843" rx="5.584" ry="9.321"/>
<ellipse fill="#F2F2F2" cx="108.529" cy="64.181" rx="5.584" ry="6.657"/>
<ellipse fill="#F2F2F2" cx="82.441" cy="64.181" rx="5.584" ry="6.657"/>
<ellipse fill="#42210B" cx="107.552" cy="65.346" rx="2.652" ry="3.162"/>
<ellipse fill="#42210B" cx="81.464" cy="66.012" rx="2.652" ry="3.162"/>
<ellipse fill="#F2F2F2" cx="109.228" cy="64.014" rx="1.535" ry="1.831"/>
<ellipse fill="#F2F2F2" cx="83.139" cy="64.014" rx="1.536" ry="1.831"/>
<polygon fill="#567EAF" points="33.428,165.943 38.67,159.027 17.233,135.937 36.571,120.044 32.456,112.335 4.608,134.897 "/>
<polygon fill="none" points="29,126.348 29,148.686 17.164,135.937 "/>
<polygon fill="#567EAF" points="17.164,135.937 29,148.686 29,161.247 4.539,134.897 29,115.079 29,126.348 "/>
<polygon fill="#567EAF" points="38.67,159.027 38.562,159.17 38.562,158.911 "/>
<polygon fill="#567EAF" points="29,161.247 29,148.686 38,158.911 38,159.17 33.113,165.943 "/>
<polygon opacity="0.1" points="29,161.247 29,148.042 38,158.269 38,158.526 33.113,165.943 "/>
<polygon fill="#567EAF" points="36.815,120.044 29,126.348 29,115.079 32.822,112.335 "/>
<polygon opacity="0.1" points="36.815,120.044 29,126.668 29,115.079 32.822,112.335 "/>
<path fill="#E9E0D6" d="M31.81,165.46c3.896,3.49,8.75,3.628,10.84,0.311c2.092-3.318,0.626-8.837-3.27-12.326
	c-3.896-3.488-8.75-3.628-10.841-0.311C26.448,156.452,27.912,161.972,31.81,165.46z"/>
<polygon fill="#567EAF" points="130.965,136.412 116.022,129.759 112.14,118.081 143.023,131.832 126.409,161.001 122.926,150.526 
	"/>
<path fill="#E9E0D6" d="M118.021,152.621c-2.703,4.834-2.547,10.619,0.349,12.921c2.896,2.302,7.437,0.25,10.14-4.583
	c2.703-4.835,2.547-10.619-0.349-12.922C125.264,145.735,120.724,147.787,118.021,152.621z"/>
<polygon fill="#6B7285" points="108.229,131.739 113.842,126.995 108.308,121.269 102.692,126.013 "/>
<polygon fill="#567EAF" points="45.919,195.188 49.64,198.825 53.883,195.03 50.162,191.393 "/>
<path fill="#E9E0D6" d="M97.539,220.202c0,1.658,1.438,3.004,3.21,3.004c1.774,0,3.211-1.346,3.211-3.004
	c0-1.656-1.437-3.002-3.211-3.002C98.977,217.2,97.539,218.545,97.539,220.202z"/>
<circle fill="#22B573" cx="75.108" cy="4.288" r="4.288"/>
<polygon fill="#C1272D" points="75.846,124.111 85.721,126.326 90.021,99.082 80.145,96.867 "/>
<polygon fill="#C1272D" points="98.986,128.451 106.294,120.228 90.333,100.068 83.025,108.291 "/>
<g opacity="0.3">
	<ellipse fill="#603813" cx="103.524" cy="83.661" rx="0.669" ry="0.737"/>
	<ellipse fill="#603813" cx="107.029" cy="80.445" rx="0.669" ry="0.737"/>
	<ellipse fill="#603813" cx="110.533" cy="83.661" rx="0.67" ry="0.737"/>
	<ellipse fill="#603813" cx="107.029" cy="85.592" rx="0.669" ry="0.736"/>
	<ellipse fill="#603813" cx="114.038" cy="85.592" rx="0.669" ry="0.736"/>
	<ellipse fill="#603813" cx="110.533" cy="88.808" rx="0.67" ry="0.736"/>
	<ellipse fill="#603813" cx="117.542" cy="88.808" rx="0.669" ry="0.736"/>
	<ellipse fill="#603813" cx="114.038" cy="91.381" rx="0.669" ry="0.736"/>
	<ellipse fill="#603813" cx="107.029" cy="91.381" rx="0.669" ry="0.736"/>
	<ellipse fill="#603813" cx="103.524" cy="88.808" rx="0.669" ry="0.736"/>
	<ellipse fill="#603813" cx="103.524" cy="83.661" rx="0.669" ry="0.737"/>
	<ellipse fill="#603813" cx="100.02" cy="80.445" rx="0.67" ry="0.737"/>
	<ellipse fill="#603813" cx="100.02" cy="85.592" rx="0.67" ry="0.736"/>
	<ellipse fill="#603813" cx="100.02" cy="91.381" rx="0.67" ry="0.736"/>
	<ellipse fill="#603813" cx="96.515" cy="78.516" rx="0.669" ry="0.737"/>
	<ellipse fill="#603813" cx="96.515" cy="83.661" rx="0.669" ry="0.737"/>
	<ellipse fill="#603813" cx="96.515" cy="88.808" rx="0.669" ry="0.736"/>
	<ellipse fill="#603813" cx="93.009" cy="91.381" rx="0.669" ry="0.736"/>
	<ellipse fill="#603813" cx="93.009" cy="85.592" rx="0.669" ry="0.736"/>
	<ellipse fill="#603813" cx="93.009" cy="80.445" rx="0.669" ry="0.737"/>
	<ellipse fill="#603813" cx="89.505" cy="78.516" rx="0.669" ry="0.737"/>
	<ellipse fill="#603813" cx="89.505" cy="83.661" rx="0.669" ry="0.737"/>
	<ellipse fill="#603813" cx="89.505" cy="88.808" rx="0.669" ry="0.736"/>
	<ellipse fill="#603813" cx="86" cy="80.445" rx="0.669" ry="0.737"/>
	<ellipse fill="#603813" cx="86" cy="85.592" rx="0.669" ry="0.736"/>
	<ellipse fill="#603813" cx="86" cy="91.381" rx="0.669" ry="0.736"/>
	<ellipse fill="#603813" cx="82.496" cy="78.516" rx="0.669" ry="0.737"/>
	<ellipse fill="#603813" cx="82.496" cy="83.661" rx="0.669" ry="0.737"/>
	<ellipse fill="#603813" cx="82.496" cy="88.808" rx="0.669" ry="0.736"/>
	<ellipse fill="#603813" cx="78.991" cy="80.445" rx="0.669" ry="0.737"/>
	<ellipse fill="#603813" cx="78.991" cy="85.592" rx="0.669" ry="0.736"/>
	<ellipse fill="#603813" cx="78.991" cy="91.381" rx="0.669" ry="0.736"/>
	<ellipse fill="#603813" cx="75.486" cy="83.661" rx="0.67" ry="0.737"/>
	<ellipse fill="#603813" cx="75.486" cy="88.808" rx="0.67" ry="0.736"/>
	<ellipse fill="#603813" cx="71.981" cy="80.445" rx="0.669" ry="0.737"/>
	<ellipse fill="#603813" cx="71.981" cy="85.592" rx="0.669" ry="0.736"/>
	<ellipse fill="#603813" cx="71.981" cy="91.381" rx="0.669" ry="0.736"/>
	<ellipse fill="#603813" cx="68.477" cy="83.661" rx="0.67" ry="0.737"/>
	<ellipse fill="#603813" cx="68.477" cy="88.808" rx="0.67" ry="0.736"/>
	<ellipse fill="#603813" cx="64.972" cy="85.592" rx="0.669" ry="0.736"/>
	<ellipse fill="#603813" cx="64.972" cy="91.381" rx="0.669" ry="0.736"/>
	<ellipse fill="#603813" cx="61.467" cy="88.808" rx="0.669" ry="0.736"/>
	<ellipse fill="#603813" cx="57.963" cy="91.381" rx="0.67" ry="0.736"/>
</g>
<ellipse cx="96.676" cy="86.51" rx="10.077" ry="1.193"/>
<path fill="#363943" d="M99.609,240.772c5.721,0,10.36,4.826,10.391,9.826H89.22C89.249,245.598,93.889,240.772,99.609,240.772z"/>
<path fill="#363943" d="M35.188,250.598c0,0-0.002,0.133-0.002,0.115c0-5.455,4.653-9.795,10.392-9.795
	c5.739,0,10.393,4.297,10.393,9.752c0,0.018-0.002-0.072-0.002-0.072H35.188z"/>
<path fill="#E9E0D6" d="M42.651,245.944c2.302,0,4.169,1.936,4.169,4.324c0,0.113-0.009,0.33-0.017,0.33h-8.305
	c-0.009,0-0.016-0.217-0.016-0.33C38.483,247.879,40.349,245.944,42.651,245.944z"/>
<ellipse opacity="0.1" fill="#1A1A1A" cx="105.151" cy="268.432" rx="50.151" ry="7.834"/>
<ellipse fill="#CCCCCC" cx="99.716" cy="165.954" rx="3.177" ry="5.302"/>
<ellipse fill="#CCCCCC" cx="148.961" cy="165.954" rx="3.178" ry="5.302"/>
<rect x="131" y="258.598" fill="#E9E0D6" width="3" height="9"/>
<rect x="100" y="188.598" fill="#8CC63F" width="49" height="38"/>
<rect x="130" y="234.598" fill="#6B7285" width="6" height="27"/>
<rect x="110" y="233.598" fill="#6B7285" width="6" height="31"/>
<rect x="100" y="156.599" fill="#E9E0D6" width="49" height="32"/>
<path fill="#E9E0D6" d="M124.133,132.357c0.107,0,0.213,0.007,0.321,0.008h-0.643C123.919,132.364,124.025,132.357,124.133,132.357z
	"/>
<rect x="100" y="188.598" fill="#8CC63F" width="6" height="38"/>
<path fill="#6B7285" d="M149.175,226.598l0.011,2.152c-0.041,9.516-10.978,17.148-24.55,17.148
	c-13.573,0-24.636-7.676-24.636-17.191v-2.109H149.175z"/>
<polygon opacity="0.1" points="100,177.598 106,177.598 106,178.594 106,188.598 100,188.598 100,178.594 "/>
<rect x="100" y="188.598" opacity="0.1" width="6" height="38"/>
<path fill="#6B7285" d="M106,226.555v13.043h-0.426c-3.309-3-5.574-6.875-5.574-10.891v-2.152v0.043h6V226.555z"/>
<path opacity="0.1" d="M106,226.555v13.043h-0.426c-3.309-3-5.574-6.875-5.574-10.891v-2.152v0.043h6V226.555z"/>
<rect x="100" y="156.599" opacity="0.1" width="6" height="21"/>
<ellipse opacity="0.1" cx="138.252" cy="170.338" rx="3.177" ry="4.301"/>
<ellipse opacity="0.1" cx="124.013" cy="170.338" rx="3.177" ry="4.301"/>
<ellipse fill="#F2F2F2" cx="138.252" cy="169.825" rx="3.177" ry="3.789"/>
<ellipse fill="#F2F2F2" cx="124.013" cy="169.825" rx="3.177" ry="3.789"/>
<g>
	<path fill="#754C24" d="M98.01,213.995c0-3.832,2.984-6.938,6.667-6.938c3.682,0,6.667,3.105,6.667,6.938
		c0,2.209-0.997,4.174-2.544,5.443c0.2-0.682,0.313-1.426,0.313-2.205c0-3.322-1.998-6.018-4.461-6.018
		c-2.464,0-4.461,2.695-4.461,6.018c0,0.762,0.107,1.486,0.299,2.158C98.979,218.118,98.01,216.174,98.01,213.995z"/>
	<path fill="#603813" d="M104.652,211.215c2.463,0,4.461,2.695,4.461,6.018c0,0.779-0.113,1.523-0.313,2.205
		c-1.136,0.934-2.565,1.494-4.123,1.494c-1.587,0-3.042-0.578-4.187-1.541c-0.191-0.672-0.299-1.396-0.299-2.158
		C100.191,213.911,102.188,211.215,104.652,211.215z"/>
	<path fill="#754C24" d="M105.852,219.651c0-2,1.621-3.621,3.621-3.621c1.999,0,3.621,1.621,3.621,3.621
		c0,1.152-0.542,2.178-1.382,2.842c0.108-0.357,0.17-0.744,0.17-1.15c0-1.736-1.085-3.143-2.423-3.143s-2.424,1.406-2.424,3.143
		c0,0.396,0.061,0.775,0.164,1.125C106.377,221.803,105.852,220.788,105.852,219.651z"/>
	<path fill="#603813" d="M109.459,218.2c1.338,0,2.423,1.406,2.423,3.143c0,0.406-0.062,0.793-0.17,1.15
		c-0.617,0.486-1.394,0.779-2.239,0.779c-0.861,0-1.652-0.303-2.273-0.805c-0.104-0.35-0.164-0.729-0.164-1.125
		C107.035,219.606,108.121,218.2,109.459,218.2z"/>
	<path fill="#754C24" d="M95.935,219.651c0-2,1.62-3.621,3.621-3.621c1.999,0,3.62,1.621,3.62,3.621
		c0,1.152-0.541,2.178-1.381,2.842c0.109-0.357,0.17-0.744,0.17-1.15c0-1.736-1.085-3.143-2.423-3.143
		c-1.339,0-2.423,1.406-2.423,3.143c0,0.396,0.059,0.775,0.162,1.125C96.461,221.803,95.935,220.788,95.935,219.651z"/>
	<path fill="#603813" d="M99.542,218.2c1.338,0,2.423,1.406,2.423,3.143c0,0.406-0.061,0.793-0.17,1.15
		c-0.617,0.486-1.393,0.779-2.239,0.779c-0.861,0-1.652-0.303-2.274-0.805c-0.104-0.35-0.162-0.729-0.162-1.125
		C97.119,219.606,98.203,218.2,99.542,218.2z"/>
	<path fill="#754C24" d="M110.76,205.766c0,3.225-2.613,5.838-5.839,5.838s-5.839-2.613-5.839-5.838
		c0-1.861,0.872-3.514,2.227-4.584c-0.174,0.576-0.273,1.201-0.273,1.857c0,2.797,1.749,5.064,3.907,5.064s3.907-2.268,3.907-5.064
		c0-0.641-0.096-1.252-0.263-1.814C109.912,202.295,110.76,203.93,110.76,205.766z"/>
	<path fill="#754C24" d="M104.942,208.104c-2.158,0-3.907-2.268-3.907-5.064c0-0.656,0.1-1.281,0.273-1.857
		c0.995-0.785,2.247-1.256,3.612-1.256c1.389,0,2.664,0.488,3.666,1.299c0.167,0.562,0.263,1.174,0.263,1.814
		C108.85,205.836,107.101,208.104,104.942,208.104z"/>
	<path fill="#754C24" d="M98.727,202.401c-0.688-0.885-0.529-2.158,0.355-2.848c0.884-0.689,2.159-0.531,2.848,0.354
		c0.397,0.51,0.512,1.15,0.368,1.732c-0.075-0.195-0.181-0.387-0.321-0.566c-0.598-0.768-1.562-1.018-2.154-0.555
		c-0.591,0.461-0.586,1.455,0.012,2.225c0.137,0.174,0.293,0.32,0.459,0.439C99.701,203.172,99.119,202.905,98.727,202.401z"/>
	<path fill="#603813" d="M99.822,200.518c0.592-0.463,1.557-0.213,2.154,0.555c0.141,0.18,0.246,0.371,0.321,0.566
		c-0.104,0.428-0.349,0.824-0.722,1.117c-0.381,0.297-0.835,0.434-1.283,0.426c-0.166-0.119-0.322-0.266-0.459-0.439
		C99.236,201.973,99.231,200.979,99.822,200.518z"/>
	
		<ellipse transform="matrix(0.6992 -0.7149 0.7149 0.6992 -111.8907 138.4081)" fill="#C69C6D" cx="108.549" cy="202.183" rx="0.624" ry="1"/>
	<ellipse fill="#F2F2F2" cx="106.854" cy="204.885" rx="0.53" ry="0.631"/>
	<ellipse fill="#F2F2F2" cx="103.146" cy="204.885" rx="0.53" ry="0.631"/>
	<ellipse opacity="0.2" cx="104.615" cy="207.105" rx="1.91" ry="1.604"/>
	
		<ellipse transform="matrix(0.6072 0.7946 -0.7946 0.6072 212.6337 -5.378)" fill="#754C24" cx="111.756" cy="212.356" rx="3.085" ry="1.363"/>
</g>
<ellipse fill="#42210B" cx="139.696" cy="170.489" rx="1.509" ry="1.799"/>
<ellipse fill="#42210B" cx="125.457" cy="170.868" rx="1.509" ry="1.799"/>
<ellipse fill="#F2F2F2" cx="140.649" cy="169.731" rx="0.874" ry="1.041"/>
<ellipse fill="#F2F2F2" cx="126.41" cy="169.731" rx="0.874" ry="1.041"/>
<polygon fill="#8CC63F" points="100.92,219.307 103.902,215.372 91.705,202.235 102.866,193.192 100.367,188.805 84.522,201.643 "/>
<polygon fill="none" points="98,196.78 98,209.489 91.266,202.235 "/>
<polygon fill="#567EAF" points="103.902,215.372 103.841,215.454 103.841,215.305 "/>
<polygon opacity="0.1" points="97.926,216.083 98.034,209.051 103.902,215.372 100.92,219.307 "/>
<polyline fill="#8CC63F" points="100.367,188.805 102.866,193.192 98.039,197.102 "/>
<polygon opacity="0.1" points="102.903,193.192 98,197.194 98,190.784 100.422,188.805 "/>
<path fill="#E9E0D6" d="M99.998,219.032c2.218,1.986,4.979,2.064,6.168,0.176c1.189-1.887,0.356-5.027-1.859-7.012
	c-2.217-1.984-4.979-2.064-6.168-0.178C96.949,213.907,97.781,217.047,99.998,219.032z"/>
<polygon fill="#8CC63F" points="157.105,201.682 160.105,192.874 166.522,190.071 160.322,208.28 142.938,200.368 148.695,197.856 
	"/>
<path fill="#E9E0D6" d="M165.746,187.639c-3.143-0.225-6.086,1.254-6.57,3.303c-0.486,2.049,1.668,3.891,4.811,4.115
	s6.085-1.254,6.57-3.303C171.043,189.708,168.889,187.864,165.746,187.639z"/>
<path fill="#363943" d="M105.942,266.11c1.337-1.688,3.367-2.512,5.671-2.512h0.197c3.395,0,6.244,2,7.126,5h-12.994h-1.454
	C104.771,267.598,105.273,266.909,105.942,266.11z"/>
<polygon fill="#6B7285" points="142.883,199.108 146.012,196.465 142.928,193.274 139.799,195.917 "/>
<polygon fill="#8CC63F" points="108.026,235.946 110.144,238.014 112.557,235.856 110.441,233.786 "/>
<ellipse fill="#E9E0D6" cx="113.472" cy="251.178" rx="1.827" ry="1.707"/>
<path fill="#FFDA6A" d="M124.469,138.514c13.691,0,24.791,8.139,24.791,18.179l-49.58-0.096
	C99.75,146.602,110.819,138.514,124.469,138.514z"/>
<path fill="#FFDA6A" d="M144.184,156.631c0-7.959,2.365-14.41,5.283-14.41l-0.027,28.819
	C146.534,170.999,144.184,164.563,144.184,156.631z"/>
<path fill="#FFDA6A" d="M99.798,156.597L122,153.681c0,0.011,0,0.021,0,0.032c0,7.959-9.792,14.409-22.066,14.409L99.798,156.597z"
	/>
<ellipse cx="134.146" cy="181.649" rx="5.469" ry="3.76"/>
<circle fill="#6B7285" cx="138.468" cy="226.862" r="4.958"/>
<path fill="#363943" d="M126.942,266.11c1.337-1.688,3.367-2.512,5.671-2.512h0.197c3.395,0,6.244,2,7.126,5h-12.994h-1.454
	C125.771,267.598,126.273,266.909,126.942,266.11z"/>
</svg>
