<?xml version="1.0" encoding="utf-8"?>
<!-- Generator: Adobe Illustrator 16.0.0, SVG Export Plug-In . SVG Version: 6.00 Build 0)  -->
<!DOCTYPE svg PUBLIC "-//W3C//DTD SVG 1.1//EN" "http://www.w3.org/Graphics/SVG/1.1/DTD/svg11.dtd">
<svg version="1.1" id="Calque_1" xmlns="http://www.w3.org/2000/svg" xmlns:xlink="http://www.w3.org/1999/xlink" x="0px" y="0px"
	 width="959.549px" height="720.671px" viewBox="0 0 959.549 720.671" enable-background="new 0 0 959.549 720.671"
	 xml:space="preserve">
<path fill="#CCCCCC" d="M412.174,300.977c0,23.724-11.52,42.948-25.732,42.948c-14.211,0-25.731-19.225-25.731-42.948
	c0-23.718,11.52-42.945,25.731-42.945C400.654,258.031,412.174,277.259,412.174,300.977z"/>
<path fill="#CCCCCC" d="M64.244,300.977c0,23.724-11.52,42.948-25.727,42.948c-14.217,0-25.737-19.225-25.737-42.948
	c0-23.718,11.521-42.945,25.737-42.945C52.724,258.031,64.244,277.259,64.244,300.977z"/>
<g>
	<rect x="48.061" y="196" fill="#E9E0D6" width="340" height="215"/>
	<path fill="#E9E0D6" d="M383.167,388.423c0,29.156-75.382,52.783-168.372,52.783c-92.984,0-168.363-23.627-168.363-52.783
		c0-29.158,75.378-52.791,168.363-52.791C307.785,335.633,383.167,359.266,383.167,388.423z"/>
	<path fill="#E9E0D6" d="M269.613,154.063c-33.27-42.792-162.005,11.414-223.036,40.511c-0.065,1.942-0.145,3.887-0.145,5.85
		c0,92.187,76.251,166.917,170.322,166.917c92.834,0,168.262-72.786,170.235-163.296
		C349.405,200.153,296.36,188.458,269.613,154.063z"/>
	<path fill="#E9E0D6" d="M129.977,343.12C80.863,313.834,48.06,260.882,48.06,200.424v188
		C48.061,369.173,80.913,352.346,129.977,343.12z"/>
</g>
<line fill="none" x1="110.061" y1="798" x2="140.061" y2="798"/>
<line fill="none" x1="284.061" y1="798" x2="316.061" y2="798"/>
<rect x="48.061" y="393" fill="#666666" width="340" height="405"/>
<path fill="#E9E0D6" d="M387.085,200.424c0,92.187-76.263,166.917-170.332,166.917c-94.07,0-170.322-74.73-170.322-166.917
	c0-92.191,76.251-166.921,170.322-166.921C310.822,33.503,387.085,108.232,387.085,200.424z"/>
<rect x="48.061" y="393" fill="#FBB03B" width="340" height="9"/>
<line fill="none" x1="387.061" y1="798" x2="46.061" y2="798"/>
<path fill="#666666" d="M35.241,647.177L0,531.501L49.027,415.99l50.489,1.1L53.861,524.654l33.031,108.436L35.241,647.177z"/>
<path fill="#E9E0D6" d="M47.061,388.423V391h-0.438C46.512,390,47.061,389.226,47.061,388.423z"/>
<path fill="#E9E0D6" d="M46.432,198.973v1.451c0-0.486,0.025-0.968,0.035-1.451H46.432z"/>
<path fill="#E9E0D6" d="M303.637,343.693c4.273,0.844,6.423,1.736,12.423,2.689v-10.761
	C310.061,338.48,307.906,341.184,303.637,343.693z"/>
<path fill="#FFDA6A" d="M269.345,154.063c11.757,15.12,30.716,25.852,46.716,33.464V65.226c-26-19.937-62.269-31.723-99.576-31.723
	c-92.065,0-167.021,71.596-170.175,161.071C107.335,165.477,236.076,111.271,269.345,154.063z"/>
<path fill="#363943" d="M387.085,198.973h-0.051c0.005,0.487,0.051,0.965,0.051,1.451V198.973z"/>
<g>
	<path fill="#FFDA6A" d="M216.754,33.503c-92.062,0-167.017,71.596-170.177,161.071l1.483,108.93
		c56.393,18.75,185.667-38.58,208.603-9.08c26.747,34.396,92.195-40.285,129.779-36.393c0.025-1.21,0.644-56.391,0.644-57.607
		C387.085,108.232,310.822,33.503,216.754,33.503z"/>
	<path fill="#FFDA6A" d="M386.989,202.559c0.025-1.211,0.096-3.148,0.096-4.364c0-0.487-0.046,3.805-0.051-2.195h-32.546
		C365.892,202,376.991,201.524,386.989,202.559z"/>
</g>
<path fill="#E9E0D6" d="M128.349,343.12c25.771,15.366,56.034,24.221,88.405,24.221c31.968,0,61.868-8.633,87.419-23.647
	c-25.902-5.099-56.53-8.062-89.378-8.062C183.187,335.633,153.619,338.37,128.349,343.12z"/>
<path opacity="0.1" fill="#363943" enable-background="new    " d="M388.061,798V464.57v-73.736c0,0-0.559-187.999-0.584-186.789
	l-0.467-5.072c-0.481-55.029-29.949-103.68-70.949-133.747v122.301v11.445v136.65v10.761v44.451v39.625V798"/>
<path fill="#BFA450" d="M220.553,175.968c0,53.794-43.604,97.399-97.394,97.399c-53.793,0-97.404-43.604-97.404-97.399
	c0-53.789,43.61-97.399,97.404-97.399C176.948,78.569,220.553,122.18,220.553,175.968z"/>
<polygon fill="#666666" points="388.449,508.726 371.677,460.562 483.159,421.742 435.068,368.595 472.883,334.377 572.618,444.593 
	"/>
<polygon fill="#FBB03B" points="442.531,385.5 429.683,376.951 466.393,323.375 479.239,331.926 "/>
<path fill="#808080" d="M407.269,484.501c0-83.166-85.336-150.586-190.604-150.586c-105.056,0-190.252,67.149-190.596,150.084
	h-0.008v239h381v-231.58C407.192,489.126,407.269,486.822,407.269,484.501z"/>
<path fill="#4D4D4D" d="M326.055,294.775c0-0.037,0.005-0.072,0.005-0.109c0-0.105-0.012-0.208-0.016-0.312L325.012,252
	c-0.17-54-48.769-98.522-108.699-98.522S107.783,198,107.614,252l-0.547,42.552c0,0.039-0.006,0.076-0.006,0.114
	c0,0.023,0.003,0.045,0.003,0.068L107.061,295h0.017c0.177,4.263,3.678,7.666,7.983,7.666l203,0.334v-0.334
	c4.306,0,7.807-3.403,7.983-7.666h0.017L326.055,294.775z"/>
<path fill="#CCCCCC" d="M175.061,264.42c-4.373,0-8,3.223-8,7.197v67.86c0,3.978,3.627,7.198,8,7.198c4.374,0,8-3.222,8-7.198
	v-67.86C183.061,267.643,179.435,264.42,175.061,264.42z"/>
<path fill="#CCCCCC" d="M257.061,264.42c-4.373,0-8,3.223-8,7.197v67.86c0,3.978,3.627,7.198,8,7.198s8-3.222,8-7.198v-67.86
	C265.061,267.643,261.434,264.42,257.061,264.42z"/>
<path fill="#808080" d="M407.061,477.583v13.836c0.131-2.293,0.208-4.598,0.208-6.918
	C407.269,482.183,407.192,479.878,407.061,477.583z"/>
<polygon fill="#666666" points="330.177,643 110.418,643 89.062,615 351.533,615 "/>
<rect x="110.061" y="643" fill="#666666" width="220" height="78"/>
<path opacity="0.1" enable-background="new    " d="M361.061,386.226V723h46v-231.58v-13.836
	C405.065,442.732,388.069,410.974,361.061,386.226z"/>
<rect x="582.061" y="484" fill="#808080" width="381" height="239"/>
<ellipse fill="#808080" cx="772.665" cy="484.502" rx="190.604" ry="150.587"/>
<path fill="#4D4D4D" d="M882.055,294.775c0.001-0.037,0.006-0.072,0.006-0.109c0-0.105-0.012-0.208-0.016-0.312L881.012,252
	c-0.17-54-48.77-98.522-108.698-98.522c-59.93,0-108.53,44.522-108.7,98.522l-0.547,42.552c-0.001,0.039-0.007,0.076-0.007,0.114
	c0,0.023,0.003,0.045,0.005,0.068L663.061,295h0.018c0.177,4.263,3.678,7.666,7.982,7.666l203,0.334v-0.334
	c4.306,0,7.808-3.403,7.983-7.666h0.017L882.055,294.775z"/>
<path fill="#CCCCCC" d="M731.061,264.42c-4.373,0-8,3.223-8,7.197v67.86c0,3.978,3.627,7.198,8,7.198c4.374,0,8-3.222,8-7.198
	v-67.86C739.061,267.643,735.435,264.42,731.061,264.42z"/>
<path fill="#CCCCCC" d="M813.061,264.42c-4.373,0-8,3.223-8,7.197v67.86c0,3.978,3.627,7.198,8,7.198s8-3.222,8-7.198v-67.86
	C821.061,267.643,817.434,264.42,813.061,264.42z"/>
<polygon fill="#666666" points="882.177,643 662.418,643 641.062,615 903.533,615 "/>
<rect x="662.061" y="643" fill="#666666" width="220" height="78"/>
<path opacity="0.1" enable-background="new    " d="M917.061,386.226V723h46v-231.58v-13.836
	C961.065,442.732,944.069,410.974,917.061,386.226z"/>
</svg>
