<?xml version="1.0" encoding="utf-8"?>
<!-- Generator: Adobe Illustrator 16.0.0, SVG Export Plug-In . SVG Version: 6.00 Build 0)  -->
<!DOCTYPE svg PUBLIC "-//W3C//DTD SVG 1.1//EN" "http://www.w3.org/Graphics/SVG/1.1/DTD/svg11.dtd">
<svg version="1.1" id="Calque_1" xmlns="http://www.w3.org/2000/svg" xmlns:xlink="http://www.w3.org/1999/xlink" x="0px" y="0px"
	 width="914.683px" height="777.868px" viewBox="0 0 914.683 777.868" enable-background="new 0 0 914.683 777.868"
	 xml:space="preserve">
<ellipse opacity="0.1" fill="#1A1A1A" cx="387.429" cy="594.097" rx="61.651" ry="9.631"/>
<ellipse fill="#CCCCCC" cx="357.09" cy="418.037" rx="5.584" ry="9.32"/>
<ellipse fill="#CCCCCC" cx="443.643" cy="418.037" rx="5.584" ry="9.32"/>
<rect x="422.777" y="578.466" fill="#E9E0D6" width="5" height="15"/>
<rect x="369.777" y="577.466" fill="#E9E0D6" width="4" height="15"/>
<path fill="#E9E0D6" d="M357.777,394.466h-0.961c0.077-24,19.382-43.952,43.189-43.952c23.807,0,43.111,19.952,43.189,43.952h0.582
	v44h-86V394.466z"/>
<rect x="357.777" y="458.466" fill="#567EAF" width="86" height="66"/>
<polygon opacity="0.1" points="418.777,454.466 418.777,514.183 414.241,454.466 "/>
<rect x="420.777" y="536.466" fill="#6B7285" width="11" height="48"/>
<rect x="366.777" y="535.466" fill="#6B7285" width="11" height="48"/>
<polygon fill="#E9E0D6" points="443.777,394.466 443.777,438.466 357.777,438.466 357.777,394.466 443.195,394.466 "/>
<rect x="357.777" y="438.466" fill="#C1272D" width="86" height="20"/>
<polygon fill="#911D22" points="400.509,472.273 410.293,474.863 415.625,447.801 405.841,445.212 "/>
<polygon fill="#911D22" points="424.12,474.962 431.428,466.739 415.467,446.579 408.16,454.802 "/>
<path fill="#E9E0D6" d="M400.006,350.785c0.189,0,0.375,0.012,0.564,0.015h-1.129C399.63,350.796,399.817,350.785,400.006,350.785z"
	/>
<polyline fill="#E9E0D6" points="357.777,390.466 357.777,394.466 356.777,394.466 "/>
<rect x="357.777" y="458.466" fill="#567EAF" width="9" height="66"/>
<rect x="357.777" y="438.466" fill="#C1272D" width="9" height="20"/>
<path fill="#8CC63F" d="M366.777,366.843c7-9.709,19.41-16.377,32.664-16.377h1.129c19.526,0,35.915,14,40.99,32h-74.783V366.843z"
	/>
<path fill="#22B573" d="M443.777,382.466v12h-0.582c-0.014-4-0.59-8-1.635-12H443.777z"/>
<path fill="#22B573" d="M441.561,382.466c1.045,4,1.621,8,1.635,12h-76.418v-12H441.561z"/>
<path fill="#8CC63F" d="M358.453,382.466c1.63-6,4.324-11.028,8.324-15.623v15.623H358.453z"/>
<path opacity="0.1" d="M358.453,382.466c1.63-6,4.324-11.028,8.324-15.623v15.623H358.453z"/>
<path fill="#22B573" d="M357.777,389.966v-7.5h0.676C357.812,384.466,357.777,387.488,357.777,389.966z"/>
<path fill="#6B7285" d="M443.777,524.466v3.867c0,16.725-18.9,30.18-42.756,30.18s-43.244-13.455-43.244-30.18v-3.867H443.777z"/>
<path fill="#22B573" d="M366.777,382.466v12h-10v-4.5c0-2.479,0-4.5,0-7.5H366.777z"/>
<polygon opacity="0.1" points="357.536,382.466 360.755,382.466 370.777,382.466 370.777,394.466 361.155,394.466 356.777,394.466 
	356.777,389.966 356.777,382.466 "/>
<polygon opacity="0.1" points="357.777,438.466 370.777,438.466 370.777,440.254 370.777,458.466 357.777,458.466 357.777,440.254 
	"/>
<rect x="357.777" y="458.466" opacity="0.1" width="9" height="66"/>
<path fill="#6B7285" d="M366.777,524.552v22.914h-0.091c-5.815-6-8.909-12.076-8.909-19.133v-3.781v-0.086h9V524.552z"/>
<path opacity="0.1" d="M366.777,524.552v22.914h-0.091c-5.815-6-8.909-12.076-8.909-19.133v-3.781v-0.086h9V524.552z"/>
<rect x="357.777" y="394.466" opacity="0.1" width="9" height="44"/>
<polygon opacity="0.3" points="443.633,451.466 357.777,448.328 357.777,451.466 "/>
<polygon opacity="0.3" points="443.777,441.836 357.08,438.466 443.777,438.466 "/>
<ellipse opacity="0.1" cx="434.307" cy="412.71" rx="5.584" ry="9.321"/>
<ellipse opacity="0.1" cx="408.219" cy="412.71" rx="5.584" ry="9.321"/>
<ellipse fill="#F2F2F2" cx="434.307" cy="410.048" rx="5.584" ry="6.657"/>
<ellipse fill="#F2F2F2" cx="408.219" cy="410.048" rx="5.584" ry="6.657"/>
<ellipse fill="#42210B" cx="433.33" cy="411.213" rx="2.652" ry="3.162"/>
<ellipse fill="#42210B" cx="407.241" cy="411.879" rx="2.652" ry="3.162"/>
<ellipse fill="#F2F2F2" cx="435.005" cy="409.881" rx="1.535" ry="1.831"/>
<ellipse fill="#F2F2F2" cx="408.917" cy="409.881" rx="1.536" ry="1.831"/>
<polygon fill="#567EAF" points="359.205,511.811 364.447,504.895 343.011,481.804 362.349,465.912 358.233,458.203 330.386,480.765 
	"/>
<polygon fill="none" points="354.777,472.215 354.777,494.553 342.941,481.804 "/>
<polygon fill="#567EAF" points="342.941,481.804 354.777,494.553 354.777,507.115 330.316,480.765 354.777,460.947 354.777,472.215 
	"/>
<polygon fill="#567EAF" points="364.447,504.895 364.34,505.038 364.34,504.779 "/>
<polygon fill="#567EAF" points="354.777,507.115 354.777,494.553 363.777,504.779 363.777,505.038 358.891,511.811 "/>
<polygon opacity="0.1" points="354.777,507.115 354.777,493.91 363.777,504.136 363.777,504.394 358.891,511.811 "/>
<polygon fill="#567EAF" points="362.593,465.912 354.777,472.215 354.777,460.947 358.6,458.203 "/>
<polygon opacity="0.1" points="362.593,465.912 354.777,472.536 354.777,460.947 358.6,458.203 "/>
<path fill="#E9E0D6" d="M357.587,511.328c3.896,3.49,8.75,3.628,10.84,0.311c2.092-3.318,0.626-8.837-3.27-12.326
	c-3.896-3.488-8.75-3.628-10.841-0.311C352.226,502.32,353.689,507.839,357.587,511.328z"/>
<polygon fill="#567EAF" points="456.742,482.28 441.8,475.626 437.917,463.949 468.801,477.7 452.187,506.869 448.703,496.394 "/>
<path fill="#E9E0D6" d="M443.798,498.489c-2.703,4.834-2.547,10.619,0.349,12.921c2.896,2.302,7.437,0.25,10.14-4.583
	c2.703-4.835,2.547-10.619-0.349-12.922C451.041,491.603,446.501,493.655,443.798,498.489z"/>
<polygon fill="#6B7285" points="434.006,477.607 439.619,472.863 434.085,467.136 428.47,471.88 "/>
<polygon fill="#567EAF" points="371.696,541.056 375.417,544.692 379.66,540.897 375.939,537.261 "/>
<path fill="#E9E0D6" d="M423.316,566.069c0,1.658,1.438,3.004,3.21,3.004c1.774,0,3.211-1.346,3.211-3.004
	c0-1.656-1.437-3.002-3.211-3.002C424.754,563.067,423.316,564.413,423.316,566.069z"/>
<circle fill="#22B573" cx="400.886" cy="350.156" r="4.288"/>
<polygon fill="#C1272D" points="401.623,469.979 411.498,472.194 415.798,444.95 405.922,442.735 "/>
<polygon fill="#C1272D" points="424.764,474.319 432.071,466.095 416.11,445.936 408.803,454.159 "/>
<g opacity="0.3">
	<ellipse fill="#603813" cx="429.301" cy="429.529" rx="0.669" ry="0.737"/>
	<ellipse fill="#603813" cx="432.806" cy="426.313" rx="0.669" ry="0.737"/>
	<ellipse fill="#603813" cx="436.311" cy="429.529" rx="0.67" ry="0.737"/>
	<ellipse fill="#603813" cx="432.806" cy="431.459" rx="0.669" ry="0.736"/>
	<ellipse fill="#603813" cx="439.815" cy="431.459" rx="0.669" ry="0.736"/>
	<ellipse fill="#603813" cx="436.311" cy="434.675" rx="0.67" ry="0.736"/>
	<ellipse fill="#603813" cx="443.32" cy="434.675" rx="0.669" ry="0.736"/>
	<ellipse fill="#603813" cx="439.815" cy="437.249" rx="0.669" ry="0.736"/>
	<ellipse fill="#603813" cx="432.806" cy="437.249" rx="0.669" ry="0.736"/>
	<ellipse fill="#603813" cx="429.301" cy="434.675" rx="0.669" ry="0.736"/>
	<ellipse fill="#603813" cx="429.301" cy="429.529" rx="0.669" ry="0.737"/>
	<ellipse fill="#603813" cx="425.797" cy="426.313" rx="0.67" ry="0.737"/>
	<ellipse fill="#603813" cx="425.797" cy="431.459" rx="0.67" ry="0.736"/>
	<ellipse fill="#603813" cx="425.797" cy="437.249" rx="0.67" ry="0.736"/>
	<ellipse fill="#603813" cx="422.292" cy="424.383" rx="0.669" ry="0.737"/>
	<ellipse fill="#603813" cx="422.292" cy="429.529" rx="0.669" ry="0.737"/>
	<ellipse fill="#603813" cx="422.292" cy="434.675" rx="0.669" ry="0.736"/>
	<ellipse fill="#603813" cx="418.787" cy="437.249" rx="0.669" ry="0.736"/>
	<ellipse fill="#603813" cx="418.787" cy="431.459" rx="0.669" ry="0.736"/>
	<ellipse fill="#603813" cx="418.787" cy="426.313" rx="0.669" ry="0.737"/>
	<ellipse fill="#603813" cx="415.282" cy="424.383" rx="0.669" ry="0.737"/>
	<ellipse fill="#603813" cx="415.282" cy="429.529" rx="0.669" ry="0.737"/>
	<ellipse fill="#603813" cx="415.282" cy="434.675" rx="0.669" ry="0.736"/>
	<ellipse fill="#603813" cx="411.778" cy="426.313" rx="0.669" ry="0.737"/>
	<ellipse fill="#603813" cx="411.778" cy="431.459" rx="0.669" ry="0.736"/>
	<ellipse fill="#603813" cx="411.778" cy="437.249" rx="0.669" ry="0.736"/>
	<ellipse fill="#603813" cx="408.273" cy="424.383" rx="0.669" ry="0.737"/>
	<ellipse fill="#603813" cx="408.273" cy="429.529" rx="0.669" ry="0.737"/>
	<ellipse fill="#603813" cx="408.273" cy="434.675" rx="0.669" ry="0.736"/>
	<ellipse fill="#603813" cx="404.768" cy="426.313" rx="0.669" ry="0.737"/>
	<ellipse fill="#603813" cx="404.768" cy="431.459" rx="0.669" ry="0.736"/>
	<ellipse fill="#603813" cx="404.768" cy="437.249" rx="0.669" ry="0.736"/>
	<ellipse fill="#603813" cx="401.264" cy="429.529" rx="0.67" ry="0.737"/>
	<ellipse fill="#603813" cx="401.264" cy="434.675" rx="0.67" ry="0.736"/>
	<ellipse fill="#603813" cx="397.759" cy="426.313" rx="0.669" ry="0.737"/>
	<ellipse fill="#603813" cx="397.759" cy="431.459" rx="0.669" ry="0.736"/>
	<ellipse fill="#603813" cx="397.759" cy="437.249" rx="0.669" ry="0.736"/>
	<ellipse fill="#603813" cx="394.254" cy="429.529" rx="0.67" ry="0.737"/>
	<ellipse fill="#603813" cx="394.254" cy="434.675" rx="0.67" ry="0.736"/>
	<ellipse fill="#603813" cx="390.75" cy="431.459" rx="0.669" ry="0.736"/>
	<ellipse fill="#603813" cx="390.75" cy="437.249" rx="0.669" ry="0.736"/>
	<ellipse fill="#603813" cx="387.245" cy="434.675" rx="0.669" ry="0.736"/>
	<ellipse fill="#603813" cx="383.74" cy="437.249" rx="0.67" ry="0.736"/>
</g>
<ellipse cx="422.454" cy="432.377" rx="10.077" ry="1.193"/>
<path fill="#363943" d="M425.387,586.64c5.721,0,10.36,4.826,10.391,9.826h-20.78C415.026,591.466,419.666,586.64,425.387,586.64z"
	/>
<path fill="#363943" d="M360.965,596.466c0,0-0.002,0.133-0.002,0.115c0-5.455,4.653-9.795,10.392-9.795
	c5.739,0,10.393,4.297,10.393,9.752c0,0.018-0.002-0.072-0.002-0.072H360.965z"/>
<path fill="#E9E0D6" d="M368.429,591.812c2.302,0,4.169,1.936,4.169,4.324c0,0.113-0.009,0.33-0.017,0.33h-8.305
	c-0.009,0-0.016-0.217-0.016-0.33C364.261,593.747,366.126,591.812,368.429,591.812z"/>
<ellipse opacity="0.1" fill="#1A1A1A" cx="430.929" cy="614.3" rx="50.151" ry="7.834"/>
<ellipse fill="#CCCCCC" cx="425.493" cy="511.822" rx="3.177" ry="5.302"/>
<ellipse fill="#CCCCCC" cx="474.738" cy="511.822" rx="3.178" ry="5.302"/>
<rect x="456.777" y="604.466" fill="#E9E0D6" width="3" height="9"/>
<rect x="425.777" y="534.466" fill="#8CC63F" width="49" height="38"/>
<rect x="455.777" y="580.466" fill="#6B7285" width="6" height="27"/>
<rect x="435.777" y="579.466" fill="#6B7285" width="6" height="31"/>
<rect x="425.777" y="502.466" fill="#E9E0D6" width="49" height="32"/>
<path fill="#E9E0D6" d="M449.91,478.225c0.107,0,0.213,0.007,0.321,0.008h-0.643C449.696,478.232,449.803,478.225,449.91,478.225z"
	/>
<rect x="425.777" y="534.466" fill="#8CC63F" width="6" height="38"/>
<path fill="#6B7285" d="M474.952,572.466l0.011,2.152c-0.041,9.516-10.978,17.148-24.55,17.148
	c-13.573,0-24.636-7.676-24.636-17.191v-2.109H474.952z"/>
<polygon opacity="0.1" points="425.777,523.466 431.777,523.466 431.777,524.462 431.777,534.466 425.777,534.466 425.777,524.462 
	"/>
<rect x="425.777" y="534.466" opacity="0.1" width="6" height="38"/>
<path fill="#6B7285" d="M431.777,572.423v13.043h-0.426c-3.309-3-5.574-6.875-5.574-10.891v-2.152v0.043h6V572.423z"/>
<path opacity="0.1" d="M431.777,572.423v13.043h-0.426c-3.309-3-5.574-6.875-5.574-10.891v-2.152v0.043h6V572.423z"/>
<rect x="425.777" y="502.466" opacity="0.1" width="6" height="21"/>
<ellipse opacity="0.1" cx="464.03" cy="516.206" rx="3.177" ry="4.301"/>
<ellipse opacity="0.1" cx="449.79" cy="516.206" rx="3.177" ry="4.301"/>
<ellipse fill="#F2F2F2" cx="464.03" cy="515.692" rx="3.177" ry="3.789"/>
<ellipse fill="#F2F2F2" cx="449.79" cy="515.692" rx="3.177" ry="3.789"/>
<g>
	<path fill="#754C24" d="M423.787,559.862c0-3.832,2.984-6.938,6.667-6.938c3.682,0,6.667,3.105,6.667,6.938
		c0,2.209-0.997,4.174-2.544,5.443c0.2-0.682,0.313-1.426,0.313-2.205c0-3.322-1.998-6.018-4.461-6.018
		c-2.464,0-4.461,2.695-4.461,6.018c0,0.762,0.107,1.486,0.299,2.158C424.756,563.985,423.787,562.042,423.787,559.862z"/>
	<path fill="#603813" d="M430.43,557.083c2.463,0,4.461,2.695,4.461,6.018c0,0.779-0.113,1.523-0.313,2.205
		c-1.136,0.934-2.565,1.494-4.123,1.494c-1.587,0-3.042-0.578-4.187-1.541c-0.191-0.672-0.299-1.396-0.299-2.158
		C425.969,559.778,427.966,557.083,430.43,557.083z"/>
	<path fill="#754C24" d="M431.629,565.519c0-2,1.621-3.621,3.621-3.621c1.999,0,3.621,1.621,3.621,3.621
		c0,1.152-0.542,2.178-1.382,2.842c0.108-0.357,0.17-0.744,0.17-1.15c0-1.736-1.085-3.143-2.423-3.143s-2.424,1.406-2.424,3.143
		c0,0.396,0.061,0.775,0.164,1.125C432.154,567.671,431.629,566.655,431.629,565.519z"/>
	<path fill="#603813" d="M435.236,564.067c1.338,0,2.423,1.406,2.423,3.143c0,0.406-0.062,0.793-0.17,1.15
		c-0.617,0.486-1.394,0.779-2.239,0.779c-0.861,0-1.652-0.303-2.273-0.805c-0.104-0.35-0.164-0.729-0.164-1.125
		C432.812,565.474,433.898,564.067,435.236,564.067z"/>
	<path fill="#754C24" d="M421.712,565.519c0-2,1.62-3.621,3.621-3.621c1.999,0,3.62,1.621,3.62,3.621
		c0,1.152-0.541,2.178-1.381,2.842c0.109-0.357,0.17-0.744,0.17-1.15c0-1.736-1.085-3.143-2.423-3.143
		c-1.339,0-2.423,1.406-2.423,3.143c0,0.396,0.059,0.775,0.162,1.125C422.238,567.671,421.712,566.655,421.712,565.519z"/>
	<path fill="#603813" d="M425.319,564.067c1.338,0,2.423,1.406,2.423,3.143c0,0.406-0.061,0.793-0.17,1.15
		c-0.617,0.486-1.393,0.779-2.239,0.779c-0.861,0-1.652-0.303-2.274-0.805c-0.104-0.35-0.162-0.729-0.162-1.125
		C422.896,565.474,423.98,564.067,425.319,564.067z"/>
	<path fill="#754C24" d="M436.537,551.634c0,3.225-2.613,5.838-5.839,5.838s-5.839-2.613-5.839-5.838
		c0-1.861,0.872-3.514,2.227-4.584c-0.174,0.576-0.273,1.201-0.273,1.857c0,2.797,1.749,5.064,3.907,5.064s3.907-2.268,3.907-5.064
		c0-0.641-0.096-1.252-0.263-1.814C435.689,548.163,436.537,549.798,436.537,551.634z"/>
	<path fill="#754C24" d="M430.72,553.972c-2.158,0-3.907-2.268-3.907-5.064c0-0.656,0.1-1.281,0.273-1.857
		c0.995-0.785,2.247-1.256,3.612-1.256c1.389,0,2.664,0.488,3.666,1.299c0.167,0.562,0.263,1.174,0.263,1.814
		C434.627,551.704,432.878,553.972,430.72,553.972z"/>
	<path fill="#754C24" d="M424.504,548.269c-0.688-0.885-0.529-2.158,0.355-2.848c0.884-0.689,2.159-0.531,2.848,0.354
		c0.397,0.51,0.512,1.15,0.368,1.732c-0.075-0.195-0.181-0.387-0.321-0.566c-0.598-0.768-1.562-1.018-2.154-0.555
		c-0.591,0.461-0.586,1.455,0.012,2.225c0.137,0.174,0.293,0.32,0.459,0.439C425.479,549.04,424.896,548.772,424.504,548.269z"/>
	<path fill="#603813" d="M425.6,546.386c0.592-0.463,1.557-0.213,2.154,0.555c0.141,0.18,0.246,0.371,0.321,0.566
		c-0.104,0.428-0.349,0.824-0.722,1.117c-0.381,0.297-0.835,0.434-1.283,0.426c-0.166-0.119-0.322-0.266-0.459-0.439
		C425.014,547.841,425.009,546.847,425.6,546.386z"/>
	
		<ellipse transform="matrix(0.6992 -0.7149 0.7149 0.6992 -261.1663 475.3239)" fill="#C69C6D" cx="434.326" cy="548.051" rx="0.624" ry="1"/>
	<ellipse fill="#F2F2F2" cx="432.632" cy="550.753" rx="0.53" ry="0.631"/>
	<ellipse fill="#F2F2F2" cx="428.923" cy="550.753" rx="0.53" ry="0.631"/>
	<ellipse opacity="0.2" cx="430.393" cy="552.973" rx="1.91" ry="1.604"/>
	
		<ellipse transform="matrix(0.6072 0.7946 -0.7946 0.6072 615.4266 -128.3642)" fill="#754C24" cx="437.533" cy="558.224" rx="3.085" ry="1.363"/>
</g>
<ellipse fill="#42210B" cx="465.474" cy="516.356" rx="1.509" ry="1.799"/>
<ellipse fill="#42210B" cx="451.234" cy="516.735" rx="1.509" ry="1.799"/>
<ellipse fill="#F2F2F2" cx="466.427" cy="515.599" rx="0.874" ry="1.041"/>
<ellipse fill="#F2F2F2" cx="452.187" cy="515.599" rx="0.874" ry="1.041"/>
<polygon fill="#8CC63F" points="426.697,565.175 429.68,561.239 417.482,548.103 428.644,539.06 426.145,534.673 410.3,547.511 "/>
<polygon fill="none" points="423.777,542.647 423.777,555.356 417.043,548.103 "/>
<polygon fill="#567EAF" points="429.68,561.239 429.618,561.321 429.618,561.173 "/>
<polygon opacity="0.1" points="423.703,561.95 423.812,554.919 429.68,561.239 426.697,565.175 "/>
<polyline fill="#8CC63F" points="426.145,534.673 428.644,539.06 423.816,542.97 "/>
<polygon opacity="0.1" points="428.681,539.06 423.777,543.062 423.777,536.651 426.199,534.673 "/>
<path fill="#E9E0D6" d="M425.775,564.899c2.218,1.986,4.979,2.064,6.168,0.176c1.189-1.887,0.356-5.027-1.859-7.012
	c-2.217-1.984-4.979-2.064-6.168-0.178C422.727,559.774,423.559,562.915,425.775,564.899z"/>
<polygon fill="#8CC63F" points="482.883,547.55 485.883,538.741 492.3,535.938 486.1,554.147 468.716,546.235 474.473,543.724 "/>
<path fill="#E9E0D6" d="M491.523,533.507c-3.143-0.225-6.086,1.254-6.57,3.303c-0.486,2.049,1.668,3.891,4.811,4.115
	s6.085-1.254,6.57-3.303C496.82,535.575,494.666,533.731,491.523,533.507z"/>
<path fill="#363943" d="M431.72,611.978c1.337-1.688,3.367-2.512,5.671-2.512h0.197c3.395,0,6.244,2,7.126,5H431.72h-1.454
	C430.549,613.466,431.051,612.776,431.72,611.978z"/>
<polygon fill="#6B7285" points="468.66,544.976 471.789,542.333 468.705,539.142 465.576,541.784 "/>
<polygon fill="#8CC63F" points="433.804,581.813 435.921,583.882 438.334,581.724 436.219,579.653 "/>
<ellipse fill="#E9E0D6" cx="439.25" cy="597.046" rx="1.827" ry="1.707"/>
<path fill="#FFDA6A" d="M450.246,484.381c13.691,0,24.791,8.139,24.791,18.179l-49.58-0.096
	C425.527,492.469,436.597,484.381,450.246,484.381z"/>
<path fill="#FFDA6A" d="M469.961,502.499c0-7.959,2.365-14.41,5.283-14.41l-0.027,28.819
	C472.312,516.866,469.961,510.431,469.961,502.499z"/>
<path fill="#FFDA6A" d="M425.575,502.464l22.202-2.916c0,0.011,0,0.021,0,0.032c0,7.959-9.792,14.409-22.066,14.409L425.575,502.464
	z"/>
<ellipse cx="459.923" cy="527.517" rx="5.469" ry="3.76"/>
<circle fill="#6B7285" cx="464.246" cy="572.729" r="4.958"/>
<path fill="#363943" d="M452.72,611.978c1.337-1.688,3.367-2.512,5.671-2.512h0.197c3.395,0,6.244,2,7.126,5H452.72h-1.454
	C451.549,613.466,452.051,612.776,452.72,611.978z"/>
<ellipse fill="#A9DDF3" cx="457.341" cy="455.964" rx="457.341" ry="456.074"/>
<path fill="#CCCCCC" d="M906.777,778.868h-845v-338c0,0,148.675,0,217.547,0s133.07,65,133.07,65h494.382V778.868z"/>
<path fill="#666666" d="M888.777,788.868h-853v-338c0,0,150.024,0,219.521,0s134.277,65,134.277,65h499.202V788.868z"/>
<rect x="457.777" y="515.868" fill="#999999" width="378" height="166"/>
<path fill="#E6E6E6" d="M488.277,671.444c-17.5,23.424-8.672,106.424-8.672,106.424l-73.913,1.268c0,0,8.71-83.545-21.322-113.691
	S278.985,559.655,278.985,559.655l-23.688-108.788c69.497,0,134.277,65,134.277,65h193.202v24.502
	C582.777,540.37,505.777,648.021,488.277,671.444z"/>
<path fill="#4D4D4D" d="M742.259,99.198C664.104,37.046,565.075-0.108,457.342-0.108c-107.728,0-206.75,37.149-284.903,99.293
	c81.549-6.829,192.816-14.412,284.838-14.412C549.354,84.773,660.696,92.365,742.259,99.198z"/>
<rect x="388.777" y="564.868" fill="#B3B3B3" width="110" height="63"/>
<rect x="388.777" y="573.868" fill="#F2F2F2" width="110" height="63"/>
<rect x="418.777" y="720.868" fill="#CCCCCC" width="50" height="57"/>
<circle fill="#999999" cx="400.527" cy="629.618" r="5.25"/>
<circle fill="#999999" cx="489.527" cy="630.618" r="5.25"/>
</svg>
