<?xml version="1.0" encoding="utf-8"?>
<!-- Generator: Adobe Illustrator 16.0.0, SVG Export Plug-In . SVG Version: 6.00 Build 0)  -->
<!DOCTYPE svg PUBLIC "-//W3C//DTD SVG 1.1//EN" "http://www.w3.org/Graphics/SVG/1.1/DTD/svg11.dtd">
<svg version="1.1" id="Calque_1" xmlns="http://www.w3.org/2000/svg" xmlns:xlink="http://www.w3.org/1999/xlink" x="0px" y="0px"
	 width="88.523px" height="221.358px" viewBox="0 0 88.523 221.358" enable-background="new 0 0 88.523 221.358"
	 xml:space="preserve">
<path fill="#E0A0E0" d="M88.523,7.231c0-3.994-3.237-7.231-7.23-7.231c-3.994,0-7.231,3.237-7.231,7.231
	c0,2.244,1.022,4.25,2.627,5.576l-9.817,44.013c-0.969-0.167-1.959-0.271-2.976-0.271c-8.533,0-15.631,6.111-17.178,14.194
	l-0.031-0.007L17.732,200.544l0.035,0.008c-0.205,1.07-0.322,2.174-0.322,3.307c0,9.666,7.835,17.5,17.5,17.5
	c8.177,0,15.024-5.615,16.944-13.197l0.003,0.002l0.018-0.08c0.085-0.342,0.167-0.686,0.231-1.035L80.847,78.355l-0.007-0.001
	c0.35-1.38,0.556-2.817,0.556-4.306c0-6.804-3.891-12.687-9.561-15.582l9.819-44.022C85.479,14.254,88.523,11.103,88.523,7.231z"/>
<path fill="#E9E0D6" d="M64.534,131.149c18.321,19.242,22.545,41.932,9.44,50.699c-13.11,8.775-38.591,0.283-56.918-18.941
	c-18.32-19.235-22.545-41.94-9.437-50.705C20.727,103.432,46.215,111.921,64.534,131.149z"/>
</svg>
