<?xml version="1.0" encoding="utf-8"?>
<!-- Generator: Adobe Illustrator 16.0.0, SVG Export Plug-In . SVG Version: 6.00 Build 0)  -->
<!DOCTYPE svg PUBLIC "-//W3C//DTD SVG 1.1//EN" "http://www.w3.org/Graphics/SVG/1.1/DTD/svg11.dtd">
<svg version="1.1" id="Calque_1" xmlns="http://www.w3.org/2000/svg" xmlns:xlink="http://www.w3.org/1999/xlink" x="0px" y="0px"
	 width="1104.137px" height="134.081px" viewBox="0 0 1104.137 134.081" enable-background="new 0 0 1104.137 134.081"
	 xml:space="preserve">
<rect x="17.777" y="13.559" transform="matrix(0.5968 -0.8024 0.8024 0.5968 -21.4894 66.3525)" fill="#C3E8F4" width="75" height="82"/>
<rect x="21.795" y="21.555" transform="matrix(0.5968 -0.8024 0.8024 0.5968 -24.6866 68.9819)" fill="#A9DDF3" width="69" height="75"/>
<rect x="242.777" y="49.559" transform="matrix(0.9688 -0.2477 0.2477 0.9688 -9.2112 66.8953)" fill="#C3E8F4" width="37" height="41"/>
<rect x="243.319" y="53.867" transform="matrix(0.9688 -0.2477 0.2477 0.9688 -9.8129 66.7294)" fill="#A9DDF3" width="34" height="37"/>
<rect x="360.17" y="61.025" transform="matrix(0.9688 -0.2477 0.2477 0.9688 -11.209 99.595)" fill="#C3E8F4" width="60.144" height="66.646"/>
<rect x="361.051" y="68.029" transform="matrix(0.9688 -0.2477 0.2477 0.9688 -12.1871 99.3259)" fill="#A9DDF3" width="55.267" height="60.144"/>
<rect x="679.822" y="66.003" transform="matrix(0.9688 -0.2477 0.2477 0.9688 1.2208 174.6236)" fill="#C3E8F4" width="29.702" height="32.912"/>
<rect x="680.257" y="69.462" transform="matrix(0.9688 -0.2477 0.2477 0.9688 0.7377 174.4903)" fill="#A9DDF3" width="27.293" height="29.702"/>
<rect x="971.822" y="88.004" transform="matrix(0.9514 -0.308 0.308 0.9514 15.7943 308.9829)" fill="#C3E8F4" width="29.702" height="32.911"/>
<rect x="972.375" y="91.507" transform="matrix(0.9514 -0.308 0.308 0.9514 15.1768 308.8691)" fill="#A9DDF3" width="27.293" height="29.702"/>
<rect x="1070.822" y="43.003" transform="matrix(0.9688 -0.2477 0.2477 0.9688 19.0999 270.7486)" fill="#C3E8F4" width="29.702" height="32.912"/>
<rect x="1071.257" y="46.462" transform="matrix(0.9688 -0.2477 0.2477 0.9688 18.6167 270.6152)" fill="#A9DDF3" width="27.293" height="29.702"/>
</svg>
