<?xml version="1.0" encoding="utf-8"?>
<!-- Generator: Adobe Illustrator 16.0.0, SVG Export Plug-In . SVG Version: 6.00 Build 0)  -->
<!DOCTYPE svg PUBLIC "-//W3C//DTD SVG 1.1//EN" "http://www.w3.org/Graphics/SVG/1.1/DTD/svg11.dtd">
<svg version="1.1" id="Calque_1" xmlns="http://www.w3.org/2000/svg" xmlns:xlink="http://www.w3.org/1999/xlink" x="0px" y="0px"
	 width="728.109px" height="484.942px" viewBox="0 0 728.109 484.942" enable-background="new 0 0 728.109 484.942"
	 xml:space="preserve">
<g id="Calque_2">
</g>
<g>
	<g id="Calque_2_1_">
		
			<rect x="308.716" y="120.163" transform="matrix(-0.6715 0.741 -0.741 -0.6715 622.0115 -6.7158)" fill="#E0A0E0" width="7.556" height="28.714"/>
		<circle fill="#E0A0E0" cx="301.766" cy="124.786" r="3.778"/>
		<circle fill="#E0A0E0" cx="323.045" cy="144.068" r="3.778"/>
		
			<rect x="296.321" y="112.855" transform="matrix(0.6714 -0.7411 0.7411 0.6714 8.7119 259.3935)" fill="#E0A0E0" width="1.122" height="14.034"/>
		<circle fill="#E0A0E0" cx="291.08" cy="114.393" r="1.561"/>
		<path fill="#333333" d="M393.667,18.3c-1.244,0.33-1.815,1.77-1.269,3.251c0.011,0.023,0.019,0.039,0.019,0.038l-0.003,0.001
			l4.053,10.927l3.465-0.921l-4.896-13.194C394.586,18.228,394.111,18.181,393.667,18.3z"/>
		<path opacity="0.1" enable-background="new    " d="M395.059,18.466l4.871,13.129c0,0,0.813-0.883,0.627-1.384
			c-0.812-2.191-3.465-9.344-3.465-9.344l-0.003,0.001c-0.01-0.027-0.019-0.054-0.026-0.08
			C396.657,19.696,395.889,18.849,395.059,18.466z"/>
		<path fill="#333333" d="M402.416,41.976c6.466-1.719,9.804-8.255,7.607-14.282l-23.491,6.248
			C388.799,39.949,395.952,43.695,402.416,41.976z"/>
		<circle fill="#FBB03B" cx="411.723" cy="62.527" r="6.121"/>
		<circle fill="#E6E6E6" cx="411.795" cy="62.56" r="4.772"/>
		<circle fill="#FBB03B" cx="405.32" cy="31.812" r="2.987"/>
		<circle fill="#FBB03B" cx="407.398" cy="37.412" r="2.986"/>
		<circle fill="#FBB03B" cx="408.796" cy="43.087" r="2.986"/>
		<circle fill="#FBB03B" cx="408.407" cy="48.717" r="2.985"/>
		<circle fill="#FBB03B" cx="407.609" cy="54.675" r="2.986"/>
	</g>
	<circle fill="#BFA450" cx="309.219" cy="78.397" r="25.202"/>
	<g>
		
			<rect x="307.172" y="70.285" transform="matrix(-0.9376 0.3478 -0.3478 -0.9376 714.4391 68.044)" fill="#E9E0D6" width="87.88" height="55.716"/>
		
			<ellipse transform="matrix(0.9376 -0.3478 0.3478 0.9376 -18.8152 132.2845)" fill="#E9E0D6" cx="359.076" cy="118.553" rx="43.566" ry="13.658"/>
		<path fill="#E9E0D6" d="M324.702,66.609c4.221-13.375,40.331-11.809,57.752-10.242c0.19,0.465,0.385,0.93,0.562,1.405
			c8.295,22.365-3.48,47.356-26.301,55.82c-22.52,8.353-47.368-2.52-55.99-24.296C309.494,84.971,321.309,77.359,324.702,66.609z"/>
		<path fill="#E9E0D6" d="M375.973,99.767c9.278-11.523,12.471-27.322,7.032-41.989l16.916,45.606
			C398.189,98.715,388.707,97.589,375.973,99.767z"/>
	</g>
	
		<rect x="333.34" y="116.099" transform="matrix(-0.9376 0.3477 -0.3477 -0.9376 789.6559 195.6018)" fill="#666666" width="87.875" height="105.106"/>
	<path fill="#E9E0D6" d="M300.377,88.428c8.295,22.36,33.519,33.627,56.338,25.165c22.82-8.464,34.596-33.455,26.301-55.82
		c-8.295-22.363-33.519-33.631-56.338-25.167C303.857,41.071,292.082,66.061,300.377,88.428z"/>
	<polygon fill="#4D4D4D" points="381.488,114.173 381.328,136.475 391.585,137.109 383.74,143.078 418.738,184.48 391.309,110.527 	
		"/>
	<polygon fill="#4D4D4D" points="401.146,106.879 416.089,123.582 408.451,130.854 418.503,130.186 418.738,184.48 391.309,110.527 
			"/>
	<path fill="#CCCCCC" d="M400.93,106.959c11.782,31.773,17.809,77.521,17.809,77.521l-27.43-73.953
		C391.309,110.527,391.375,110.505,400.93,106.959z"/>
	<path fill="#CCCCCC" d="M381.488,114.173c11.785,31.771,37.25,70.307,37.25,70.307l-27.43-73.953
		C391.309,110.527,391.044,110.626,381.488,114.173z"/>
	
		<rect x="315.558" y="119.321" transform="matrix(-0.9376 0.3478 -0.3478 -0.9376 738.5542 108.943)" fill="#FBB03B" width="87.883" height="2.871"/>
	
		<ellipse transform="matrix(0.9375 -0.348 0.348 0.9375 -14.9617 145.1859)" fill="#FBB03B" cx="396.625" cy="114.237" rx="3.131" ry="4.51"/>
	
		<ellipse transform="matrix(0.9376 -0.3477 0.3477 0.9376 -4.0023 133.6333)" fill="#F2F2F2" cx="370.361" cy="77.969" rx="6.011" ry="10.486"/>
	
		<ellipse transform="matrix(0.9375 -0.3479 0.3479 0.9375 -4.2809 134.6561)" fill="#00A1BF" cx="372.87" cy="79.25" rx="2.855" ry="4.98"/>
	
		<ellipse transform="matrix(0.9373 -0.3485 0.3485 0.9373 -2.9551 134.9016)" fill="#F2F2F2" cx="373.483" cy="75.665" rx="1.652" ry="2.885"/>
	<path fill="#E9E0D6" d="M399.932,103.38l0.219,0.583l-0.047,0.018C400.059,103.778,400.005,103.577,399.932,103.38z"/>
	<path fill="#E9E0D6" d="M382.884,57.421l0.132,0.351c-0.043-0.117-0.095-0.23-0.14-0.348L382.884,57.421z"/>
	<path fill="#E9E0D6" d="M333.215,115.784c-0.962,0.59-1.783,1.142-2.773,1.771l-0.968-2.611
		C330.807,115.237,331.952,115.557,333.215,115.784z"/>
	<path fill="#FFDA6A" d="M324.62,66.64c-1.493,4.727-4.311,8.733-8.472,12.378l-11.004-29.67c5.206-7.433,12.4-13.354,21.451-16.71
		c22.333-8.285,46.959,2.341,55.775,23.76C364.947,54.832,328.839,53.266,324.62,66.64z"/>
	<g>
		<path fill="#FFDA6A" d="M326.678,32.606c22.333-8.283,46.96,2.34,55.776,23.762c-17.425-1.567-53.533-3.133-57.752,10.242
			c-3.393,10.75-15.208,18.362-23.976,22.687c-0.114-0.293-0.24-0.575-0.348-0.868C292.082,66.061,303.857,41.071,326.678,32.606z"
			/>
		<path fill="#FFDA6A" d="M300.697,89.219c-0.113-0.291-0.252-0.613-0.363-0.907c-0.042-0.119,0.066,0.144-0.134-0.395l7.897-2.929
			C305.531,86.553,303.03,88.071,300.697,89.219z"/>
	</g>
	<path fill="#E9E0D6" d="M375.982,99.762c-4.869,6.047-11.414,10.917-19.268,13.83c-7.754,2.877-15.785,3.474-23.334,2.13
		c5.826-3.567,12.988-7.042,20.957-9.998C362.006,102.88,369.425,100.884,375.982,99.762z"/>
	<path opacity="0.1" fill="#363943" enable-background="new    " d="M354.389,233.317l-30.006-80.9l-6.635-17.887
		c0,0-17.018-45.568-16.903-45.277l-0.612-1.176c-4.833-13.389-2.615-27.64,4.911-38.729l11.004,29.67l1.03,2.776l12.296,33.149
		l0.968,2.611l4,10.782l3.564,9.614l33.078,89.174L354.389,233.317z"/>
	
		<ellipse transform="matrix(0.9376 -0.3477 0.3477 0.9376 -2.134 137.8449)" fill="#F2F2F2" cx="383.062" cy="74.869" rx="6.011" ry="10.486"/>
	
		<ellipse transform="matrix(0.9376 -0.3478 0.3478 0.9376 -2.424 138.8524)" fill="#00A1BF" cx="385.574" cy="76.178" rx="2.855" ry="4.979"/>
	<path fill="#4D4D4D" d="M457.474,102.323c-0.567-3.725,1.988-7.207,5.711-7.776c3.726-0.568,7.205,1.987,7.777,5.711l4.701,30.714
		l-13.486,2.064L457.474,102.323z"/>
	
		<ellipse transform="matrix(0.9376 -0.3478 0.3478 0.9376 -1.1354 138.8496)" fill="#F2F2F2" cx="386.17" cy="72.587" rx="1.653" ry="2.886"/>
	<polyline fill="none" stroke="#666666" stroke-width="18" stroke-miterlimit="10" points="453.554,111.951 404.311,144.186 
		367.645,129.027 	"/>
	<path fill="#E9E0D6" d="M452.767,113.399c2.625,6.353,7.55,9.736,10.998,7.558c3.451-2.176,4.121-9.096,1.498-15.45
		c-2.623-6.351-7.547-9.735-10.996-7.557C450.816,100.13,450.144,107.046,452.767,113.399z"/>
	
		<ellipse transform="matrix(-0.9302 0.367 -0.367 -0.9302 775.2153 45.3142)" fill="#1A1A1A" cx="383.3" cy="96.354" rx="7.64" ry="12.879"/>
	<path fill="#1A1A1A" d="M159.84,275.247c-4.334-34.867-26.437-61.16-51.412-61.16c-1.435,0-2.885,0.091-4.311,0.268
		c-13.066,1.624-24.306,10.355-31.65,24.586c-6.989,13.544-9.643,30.624-7.471,48.095c4.334,34.867,6.438,61.158,31.415,61.158
		c1.434,0,22.883-0.09,24.308-0.268c13.065-1.625,24.305-10.355,31.649-24.586C159.357,309.795,162.011,292.715,159.84,275.247z"/>
	<path fill="#1A1A1A" d="M552.839,230.246c-4.334-34.866-26.436-61.159-51.412-61.159c-1.434,0-2.885,0.091-4.311,0.268
		c-13.066,1.624-24.308,10.355-31.65,24.586c-6.987,13.544-9.643,30.624-7.471,48.095c4.334,34.866,8.377,52.412,31.381,61.187
		c1.34,0.512,22.918-0.119,24.342-0.297c13.066-1.625,24.308-10.355,31.65-24.586C552.357,264.795,555.011,247.715,552.839,230.246z
		"/>
	<path fill="#1A1A1A" d="M669.585,217.384c-2.473-19.909-8.207-38.492-16.145-52.326c-8.697-15.158-19.496-23.506-30.408-23.506
		c-0.879,0-15.771,0.055-16.642,0.163c-22.338,2.777-34.879,39.495-29.174,85.408c2.478,19.909,8.209,38.493,16.146,52.325
		c8.696,15.158,19.498,23.506,30.41,23.506c0.879,0,15.768-0.055,16.639-0.162c11.453-1.424,20.641-11.776,25.871-29.152
		C670.984,258.03,672.156,238.051,669.585,217.384z"/>
	<path fill="#1A1A1A" d="M327.888,257.015c-4.335-34.866-26.438-61.158-51.414-61.158c-1.435,0-17.885,0.09-19.31,0.267
		c-13.065,1.625-24.305,10.356-31.649,24.587c-6.99,13.543-9.643,30.624-7.472,48.093c4.334,34.866,26.438,61.159,51.415,61.159
		c1.434,0,17.883-0.09,19.308-0.268c13.065-1.625,24.306-10.355,31.649-24.586C327.405,291.565,330.059,274.486,327.888,257.015z"/>
	<path fill="#4D4D4D" d="M230.505,149.52l3.344-7.038l-32.407,3.639c5.489-36.177,42.585-102.354,42.585-102.354
		s2.964-1.325,9.898-3.385l0.896-17.63c-23.713,5.875-34.684,10.453-34.684,10.453s-0.098,0.145-0.258,0.408l3.685,6.138
		c0,0-42.535,93.118-43.083,108.575l-3.93,1.431l10.222,12.137L230.505,149.52z"/>
	<path opacity="0.2" fill="#29ABE2" enable-background="new    " d="M214.941,42.163c46.102-9.509,139.808-17.727,139.808-17.727
		c33.358,18.205,104.922,86.317,104.922,86.317l-359.199,48.024c4.487-36.51,46.29-98.811,46.29-98.811
		S168.84,51.671,214.941,42.163z"/>
	<path fill="#808080" d="M0.167,190.416l11.027,124.405l716.905-84.114c0,0,0.666-94.104-9.321-107.578
		c-9.99-13.474-13.935-14.563-28.652-20.599c-9.197-3.769-165.457,4.6-161.508,4.321l-66.291,5.784
		c-40.24-44.058-106.635-88.852-106.635-88.852l70.439-6.08c-2.721-1.728-3.41-2.172-5.819-3.486c0,0-169.775,4.414-223.75,15.545
		c-53.974,11.131-79.822,20.841-79.822,20.841s-0.099,0.149-0.281,0.422l4.919,5.959c0,0-46.826,89.558-46.533,105.065l-12.298,4.24
		C-6.387,176.372,0.167,190.416,0.167,190.416z M258.903,35.017c45.158-6.135,84.376-9.388,84.376-9.388
		c33.358,18.205,104.922,86.317,104.922,86.317l-179.044,24.278L258.903,35.017z M100.472,158.777
		c4.487-36.51,46.29-98.811,46.29-98.811s22.078-8.295,68.18-17.803c6.708-1.384,14.425-2.74,22.714-4.047l10.228,100.953
		L100.472,158.777z"/>
	<path opacity="0.2" fill="#29ABE2" enable-background="new    " d="M74.845,162.05l-12.298,4.24
		c5.022-40.869,49.975-109.332,53.912-115.265l4.919,5.959C121.378,56.985,74.552,146.543,74.845,162.05z"/>
	<polygon fill="#808080" points="182.13,40.378 183.983,37.947 149.189,4.79 147.337,7.222 	"/>
	<path fill="#808080" d="M144.47,9.799c2.091,1.993,5.23,1.711,7.011-0.628c1.781-2.337,1.53-5.85-0.561-7.842
		c-2.091-1.993-5.23-1.712-7.011,0.627C142.128,4.296,142.38,7.808,144.47,9.799z"/>
	<path opacity="0.2" fill="#29ABE2" enable-background="new    " d="M355.691,23.783c0,0,66.395,44.794,106.635,88.852l71.49-5.747
		c-0.002-0.001-81.414-69.379-115.473-88.513L355.691,23.783z"/>
	<polygon fill="#808080" points="543.07,106.144 533.814,106.888 533.814,106.888 	"/>
	<path fill="#808080" d="M426.13,17.503l-8.909,0.246c0.364,0.2,0.743,0.414,1.12,0.626c34.06,19.134,115.472,88.511,115.474,88.513
		l9.254-0.744C502.83,62.298,426.13,17.503,426.13,17.503z"/>
	<path fill="#B3B3B3" d="M718.777,123.128c-9.99-13.474-13.935-14.563-28.652-20.599c-6.795-2.784-166.268,4.736-166.268,4.736
		c29.022,40.1,28.782,143.625,28.782,143.625l175.459-20.185C728.099,230.707,728.765,136.602,718.777,123.128z"/>
	
		<ellipse transform="matrix(-0.9837 0.18 -0.18 -0.9837 1200.5786 195.201)" fill="#FFFFFF" cx="591.434" cy="152.067" rx="15.438" ry="27.407"/>
	
		<ellipse transform="matrix(-0.9965 0.0837 -0.0837 -0.9965 1428.4736 226.6339)" fill="#FFFFFF" cx="709.486" cy="143.262" rx="12.676" ry="22.507"/>
	<path fill="#333333" d="M524.505,217.26c-2.475-19.91-8.508-38.475-16.99-52.273c-9.196-14.967-20.629-23.21-32.188-23.21
		c-0.996,0-2,0.062-2.988,0.185c-12.147,1.51-22.059,11.883-27.906,29.21c-5.311,15.738-6.813,35.828-4.235,56.567
		c2.475,19.91,8.508,38.474,16.988,52.273c9.198,14.968,20.633,23.211,32.188,23.211c0.996,0,2-0.062,2.988-0.186
		c12.147-1.512,22.059-11.887,27.903-29.211C525.578,258.088,527.083,238,524.505,217.26z"/>
	<path fill="#333333" d="M139.84,275.247c-4.334-34.867-26.437-61.16-51.412-61.16c-1.435,0-2.885,0.091-4.311,0.268
		c-13.066,1.624-24.306,10.355-31.65,24.586c-6.989,13.544-9.643,30.624-7.471,48.095c4.334,34.867,26.438,61.158,51.415,61.158
		c1.434,0,2.883-0.09,4.308-0.268c13.065-1.625,24.305-10.355,31.649-24.586C139.357,309.795,142.011,292.715,139.84,275.247z"/>
	<path fill="#808080" d="M444.757,73.729l0.066-0.007C444.781,73.726,444.761,73.729,444.757,73.729z"/>
	<polygon fill="#4D4D4D" points="693.861,226.652 624.539,236.252 616.882,132.225 687.748,127.842 	"/>
	<path fill="#666666" d="M490.13,221.158c-0.438-3.529-1.508-6.82-3.012-9.267c-1.631-2.653-3.656-4.114-5.705-4.114
		c-0.178,0-0.355,0.011-0.529,0.033c-2.153,0.268-3.912,2.105-4.946,5.178c-0.941,2.79-1.209,6.351-0.752,10.027
		c0.438,3.529,1.51,6.82,3.014,9.267c1.631,2.653,3.656,4.114,5.705,4.114c0.178,0,0.354-0.011,0.528-0.032
		c2.152-0.269,3.91-2.107,4.947-5.179C490.322,228.395,490.587,224.834,490.13,221.158z"/>
	<path fill="#666666" d="M101.992,280.354c-0.94-7.562-5.735-13.268-11.153-13.268c-0.312,0-0.626,0.02-0.935,0.058
		c-2.834,0.353-5.273,2.247-6.866,5.334c-1.516,2.938-2.092,6.644-1.621,10.435c0.94,7.562,5.735,13.268,11.154,13.268
		c0.311,0,0.625-0.021,0.935-0.059c2.834-0.354,5.272-2.248,6.866-5.334C101.887,287.849,102.463,284.144,101.992,280.354z"/>
	
		<ellipse transform="matrix(-0.9961 -0.0887 0.0887 -0.9961 452.2502 886.8424)" opacity="0.1" enable-background="new    " cx="245.828" cy="433.374" rx="183.953" ry="49.098"/>
	<g>
		<path fill="#FFFFFF" d="M378.427,84.284c0.681-0.249,1.349-0.216,2.003,0.101c0.869,0.411,1.521,1.206,1.95,2.385
			c0.285,0.78,0.456,1.671,0.513,2.668c0.058,1-0.012,1.934-0.205,2.802c-0.223,0.983-0.489,1.533-0.805,1.647
			c-0.307,0.112-0.925-0.238-1.855-1.053c-0.687-0.599-1.307-1.282-1.861-2.052c-0.555-0.77-0.961-1.511-1.221-2.223
			c-0.319-0.872-0.393-1.674-0.217-2.405C376.943,85.243,377.508,84.62,378.427,84.284z M382.448,95.112
			c0.665-0.244,1.327-0.203,1.983,0.121c0.652,0.316,1.101,0.804,1.34,1.461c0.25,0.682,0.219,1.358-0.09,2.031
			c-0.311,0.673-0.806,1.134-1.486,1.382c-0.665,0.243-1.318,0.227-1.959-0.053c-0.69-0.301-1.168-0.812-1.432-1.532
			c-0.242-0.666-0.223-1.311,0.062-1.935C381.178,95.875,381.706,95.382,382.448,95.112z"/>
	</g>
</g>
</svg>
