<?xml version="1.0" encoding="utf-8"?>
<!-- Generator: Adobe Illustrator 15.0.0, SVG Export Plug-In . SVG Version: 6.00 Build 0)  -->
<!DOCTYPE svg PUBLIC "-//W3C//DTD SVG 1.1//EN" "http://www.w3.org/Graphics/SVG/1.1/DTD/svg11.dtd">
<svg version="1.1" id="Calque_1" xmlns="http://www.w3.org/2000/svg" xmlns:xlink="http://www.w3.org/1999/xlink" x="0px" y="0px"
	 width="1533px" height="497.149px" viewBox="0 0 1533 497.149" enable-background="new 0 0 1533 497.149" xml:space="preserve">
<circle fill="#BFA450" cx="815.798" cy="153.845" r="44.334"/>
<g>
	
		<rect x="675.099" y="155.986" transform="matrix(-0.9932 -0.1166 0.1166 -0.9932 1475.7571 496.3097)" fill="#E9E0D6" width="154.592" height="98.009"/>
	
		<ellipse transform="matrix(0.1166 -0.9932 0.9932 0.1166 418.5822 956.9512)" fill="#E9E0D6" cx="747.23" cy="243.174" rx="24.027" ry="76.638"/>
	<path fill="#E9E0D6" d="M784.436,140.124c-12.771-21.111-73.846-3.438-102.978,6.478c-0.134,0.877-0.275,1.749-0.379,2.637
		c-4.893,41.675,25.616,79.506,68.142,84.497c41.966,4.928,79.927-23.978,85.623-64.786
		C818.061,165.194,794.7,157.092,784.436,140.124z"/>
	<path fill="#E9E0D6" d="M710.561,218.099c-20.647-15.846-32.669-41.525-29.461-68.858l-9.977,84.989
		C672.146,225.528,687.891,219.662,710.561,218.099z"/>
</g>
<rect x="659.665" y="244" transform="matrix(-0.9932 -0.1166 0.1166 -0.9932 1429.6675 756.5374)" fill="#666666" width="154.593" height="184.906"/>
<ellipse transform="matrix(0.1166 -0.9932 0.9932 0.1166 512.4878 892.7562)" fill="#E9E0D6" cx="758.091" cy="158.292" rx="75.979" ry="77.529"/>
<polygon fill="#4D4D4D" points="707.114,245.015 716.652,283.073 699.378,288.418 715.271,295.364 672.636,380.672 688.812,242.865 
	"/>
<polygon fill="#4D4D4D" points="670.478,240.714 651.87,275.47 667.951,284.729 650.488,287.76 672.636,380.672 688.812,242.865 "/>
<path fill="#CCCCCC" d="M670.885,240.761c-6.948,59.207,1.751,139.912,1.751,139.912l16.176-137.807
	C688.812,242.865,688.692,242.852,670.885,240.761z"/>
<path fill="#CCCCCC" d="M707.114,245.015c-6.95,59.206-34.479,135.657-34.479,135.657l16.177-137.807
	C688.812,242.865,689.306,242.924,707.114,245.015z"/>
<rect x="670.15" y="244.613" transform="matrix(-0.9932 -0.1166 0.1166 -0.9932 1460.9781 579.7423)" fill="#FBB03B" width="154.593" height="5.05"/>
<ellipse transform="matrix(0.1165 -0.9932 0.9932 0.1165 352.2768 898.7031)" fill="#FBB03B" cx="681.271" cy="251.348" rx="7.935" ry="5.506"/>
<ellipse transform="matrix(0.1166 -0.9932 0.9932 0.1166 450.892 863.9661)" fill="#F2F2F2" cx="711.112" cy="178.521" rx="18.446" ry="10.577"/>
<ellipse transform="matrix(0.1165 -0.9932 0.9932 0.1165 444.4354 863.1013)" fill="#00A1BF" cx="707.366" cy="181.734" rx="8.761" ry="5.024"/>
<ellipse transform="matrix(0.1167 -0.9932 0.9932 0.1167 447.8922 855.4152)" fill="#F2F2F2" cx="704.865" cy="175.9" rx="5.074" ry="2.909"/>
<path fill="#E9E0D6" d="M671.104,234.227l-0.13,1.092l0.089,0.009C671.054,234.96,671.06,234.592,671.104,234.227z"/>
<path fill="#E9E0D6" d="M681.156,148.582l-0.077,0.656c0.025-0.22,0.063-0.438,0.094-0.654L681.156,148.582z"/>
<path fill="#E9E0D6" d="M790.305,227.722c1.891,0.606,3.521,1.208,5.478,1.875l0.569-4.864
	C794.194,225.787,792.369,226.812,790.305,227.722z"/>
<path fill="#FFDA6A" d="M784.59,140.142c4.515,7.461,10.993,13.139,19.621,17.642l6.49-55.29
	c-11.986-10.546-26.744-17.679-43.609-19.657c-41.619-4.887-79.305,23.504-85.479,63.783
	C710.745,136.704,771.82,119.032,784.59,140.142z"/>
<g>
	<path fill="#FFDA6A" d="M766.936,82.817c-41.618-4.886-79.305,23.503-85.478,63.784c29.132-9.915,90.207-27.589,102.979-6.478
		c10.265,16.968,33.625,25.07,50.407,28.825c0.074-0.547,0.17-1.084,0.234-1.634C839.97,125.64,809.463,87.809,766.936,82.817z"/>
	<path fill="#FFDA6A" d="M834.86,168.807c0.074-0.547,0.179-1.155,0.242-1.704c0.025-0.219-0.053,0.274,0.063-0.729l-14.714-1.728
		C825.49,166.255,830.396,167.809,834.86,168.807z"/>
</g>
<path fill="#E9E0D6" d="M710.54,218.097c10.835,8.313,24.046,13.922,38.681,15.639c14.451,1.697,28.429-0.619,40.775-6.05
	c-11.441-3.682-25.129-6.645-39.979-8.388C735.729,217.62,722.217,217.29,710.54,218.097z"/>
<line fill="none" stroke="#000000" stroke-miterlimit="10" x1="675.849" y1="213.533" x2="698.382" y2="216.179"/>
<ellipse transform="matrix(0.1166 -0.9932 0.9932 0.1166 430.5748 841.1221)" fill="#F2F2F2" cx="688.112" cy="178.52" rx="18.446" ry="10.577"/>
<path opacity="0.1" fill="#363943" enable-background="new    " d="M820.617,286.676l3.913-33.334c0,0,10.167-84.965,10.092-84.418
	l0.558-2.262c2.701-24.9-7.008-48.34-24.479-64.169l-6.49,55.29l-0.606,5.174l-7.253,61.775l-0.569,4.864l-2.359,20.094
	l-2.103,17.914l-15.418,131.34l30.656,7.502L820.617,286.676z"/>
<ellipse transform="matrix(0.1165 -0.9932 0.9932 0.1165 424.1513 840.2723)" fill="#00A1BF" cx="684.365" cy="181.735" rx="8.761" ry="5.024"/>
<path fill="#4D4D4D" d="M572.295,256.315c-0.572-6.604-6.389-11.491-12.991-10.92c-6.603,0.572-11.491,6.389-10.92,12.991
	l4.718,54.458l23.91-2.071L572.295,256.315z"/>
<ellipse transform="matrix(0.1166 -0.9932 0.9932 0.1166 427.6395 832.5958)" fill="#F2F2F2" cx="681.864" cy="175.9" rx="5.074" ry="2.909"/>
<polyline fill="none" stroke="#666666" stroke-width="18" stroke-miterlimit="10" points="582.999,271.146 680.564,305.799 
	736.951,264.661 "/>
<path fill="#E9E0D6" d="M584.943,273.297c-1.85,11.951-8.858,19.777-15.659,17.486c-6.807-2.291-10.822-13.838-8.979-25.787
	c1.848-11.947,8.859-19.778,15.661-17.488C582.771,249.801,586.789,261.349,584.943,273.297z"/>
<ellipse transform="matrix(0.1166 -0.9932 0.9932 0.1166 494.9217 949.9549)" fill="#CCCCCC" cx="781.462" cy="196.766" rx="19.548" ry="11.712"/>
<path opacity="0.2" fill="#29ABE2" enable-background="new    " d="M946.262,94.631c-98.228-6.833-295.536,0-295.536,0
	C584.956,136.484,450,280.48,450,280.48l759.821,4.626c-17.083-67.051-117.5-173.393-117.5-173.393S1044.489,101.464,946.262,94.631
	z"/>
<path fill="none" d="M650.726,94.631C584.956,136.484,450,280.48,450,280.48l403,2.453V91.698
	C757.456,90.935,650.726,94.631,650.726,94.631z"/>
<path fill="none" d="M946.262,94.631c-14.293-0.994-30.687-1.698-48.262-2.178v190.754l311.821,1.898
	c-17.083-67.051-117.5-173.393-117.5-173.393S1044.489,101.464,946.262,94.631z"/>
<path fill="#808080" d="M1290.563,290.149l-26.563-5c-2.667-29-119.333-185-119.333-185l9.007-12.281
	c-0.436-0.466-0.674-0.719-0.674-0.719s-56-12-171-20s-346,0-346,0c-4.751,3.023-9.811,6.503-15.122,10.369l12.456,9.631
	c0,0-137.999,106.248-212.666,197.957L401,284.733c0,0-308.108,16.938-337.554,31.678C34,331.149,26,334.114,8,361.614
	s0,135.535,0,135.535h1525V329.817C1533,329.817,1436.563,292.649,1290.563,290.149z M853,282.934l-403-2.453
	c0,0,134.956-143.996,200.726-185.85c0,0,106.73-3.696,202.274-2.933V282.934z M898,283.208V92.453
	c17.575,0.479,33.969,1.184,48.262,2.178c98.229,6.833,146.061,17.083,146.061,17.083s100.417,106.342,117.5,173.393L898,283.208z"
	/>
<path opacity="0.2" fill="#29ABE2" enable-background="new    " d="M1264,285.149l26.563,5
	c-19.122-75.055-127.42-192.146-136.891-202.281l-9.007,12.281C1144.667,100.149,1261.333,256.149,1264,285.149z"/>
<path opacity="0.2" fill="#29ABE2" enable-background="new    " d="M633.334,87.149l-12.456-9.631
	C540.104,136.312,401,284.733,401,284.733l19.668,0.373C495.335,193.397,633.334,87.149,633.334,87.149z"/>
<rect x="1042.021" y="-1.532" transform="matrix(-0.7302 -0.6833 0.6833 -0.7302 1776.2964 794.4431)" fill="#808080" width="6" height="96.006"/>
<circle fill="#808080" cx="1078.869" cy="10.446" r="10.446"/>
<ellipse fill="#FFFFFF" cx="23.293" cy="391.382" rx="9.293" ry="33.769"/>
</svg>
