<?xml version="1.0" encoding="utf-8"?>
<!-- Generator: Adobe Illustrator 16.0.0, SVG Export Plug-In . SVG Version: 6.00 Build 0)  -->
<!DOCTYPE svg PUBLIC "-//W3C//DTD SVG 1.1//EN" "http://www.w3.org/Graphics/SVG/1.1/DTD/svg11.dtd">
<svg version="1.1" id="Calque_1" xmlns="http://www.w3.org/2000/svg" xmlns:xlink="http://www.w3.org/1999/xlink" x="0px" y="0px"
	 width="75.635px" height="173.538px" viewBox="0 0 75.635 173.538" enable-background="new 0 0 75.635 173.538"
	 xml:space="preserve">
<g id="Calque_1_1_" display="none">
	<rect x="-13" y="-18" display="inline" fill="#999999" width="1306" height="825"/>
	<g display="inline">
		<rect x="269.67" y="173.021" fill="#F4F1ED" width="739.963" height="336.684"/>
		<rect x="278.509" y="323.069" opacity="0.3" enable-background="new    " width="241.517" height="180.47"/>
		<rect x="875.514" y="234.376" opacity="0.3" enable-background="new    " width="91.57" height="54.572"/>
		<path fill="#BFD49B" d="M856.09,385.144h20.658l-4.779,4.777v15.107h4.779v-8.632h4.779v13.257l-4.473,4.471h-5.705v8.479h6.17
			v-3.697h4.008h5.238v5.703v3.084l-5.162,5.164h-8.402l-6.203-6.205l-7.824,12.141l-0.152,2.775h11.717v3.697h-21.275v-4.934h7.863
			c0,0-2.312-12.178-2.312-11.715c0,0.461-3.547,3.082-3.547,3.082H841.6v-20.656H852.7l9.4-9.403L856.09,385.144z"/>
		<polygon fill="#BFD49B" points="551.679,173.021 551.679,178.776 560.722,178.776 560.722,218.446 569.971,218.446 
			569.971,239.617 561.75,239.617 561.75,258.733 549.315,271.167 549.315,324.096 537.495,324.096 530.198,331.393 530.198,346.5 
			506.714,369.984 506.714,386.169 546.744,386.169 546.744,378.977 562.778,378.977 562.778,386.169 602.036,386.169 
			602.036,322.246 616.63,322.246 616.63,315.257 623.619,315.257 623.619,295.731 614.781,286.893 607.792,279.904 
			595.357,267.468 615.604,267.468 615.604,250.1 615.604,231.189 636.979,231.189 647.36,220.809 647.36,209.196 666.373,209.196 
			666.373,228.312 690.01,228.312 705.221,228.312 705.221,218.857 719.608,218.857 719.608,233.041 727.317,240.748 
			748.18,240.748 755.014,233.914 767.09,233.914 767.09,218.857 777.16,218.857 777.16,173.021 		"/>
		<g>
			<line fill="none" x1="394.026" y1="419.471" x2="287.758" y2="419.471"/>
			<rect x="287.758" y="417.621" fill="#FFD800" width="106.269" height="3.699"/>
		</g>
		<polygon fill="#F59900" points="392.337,509.705 381.285,450.96 378.665,406.873 383.589,406.578 386.2,450.513 397.272,509.705 
					"/>
		<polygon points="434.58,412.968 434.58,410.441 459.406,406.48 499.243,376.604 514.163,363.744 528.824,367.671 535.115,356.555 
			535.33,356.398 565.391,334.507 623.379,298.05 645.571,267.791 655.166,265.906 676.826,279.992 688.406,269.304 730.088,261.43 
			751.133,245.335 763.84,244.882 775.428,227.268 787.977,227.582 803.235,214.685 815.69,221.852 820.393,240.356 
			833.231,260.593 852.994,272.097 882.684,295.207 893.977,297.767 893.434,300.171 881.604,297.49 851.543,274.093 
			831.469,262.423 818.051,241.156 813.555,223.47 803.502,217.686 788.854,230.071 776.737,229.768 765.201,247.302 
			752.008,247.773 731.121,263.746 689.559,271.595 677.09,283.105 654.66,268.519 646.99,270.025 625.091,299.888 566.774,336.548 
			536.998,358.234 530.031,370.548 514.785,366.462 500.788,378.524 460.397,408.82 		"/>
		<polygon fill="#FFD800" points="829.717,510.191 825.951,510.191 835.293,475.537 862.117,443.023 854.793,407.212 
			854.963,406.73 909.924,250.048 905.014,173.139 908.707,172.903 913.664,250.564 913.539,250.917 858.621,407.473 
			866.096,444.011 838.656,477.275 		"/>
		<polygon fill="#FFD800" points="903.182,277.835 902.727,274.164 935.438,270.109 910.797,251.896 912.996,248.921 
			945.086,272.64 		"/>
		<rect x="938.412" y="268.908" fill="#FFD800" width="71.221" height="3.7"/>
		<polygon fill="#FFD800" points="1009.633,428.103 997.973,402.939 996.305,390.602 1003.467,378.769 1003.467,368.246 
			988.791,332.908 977.295,328.066 976.99,327.644 937.744,273.173 941.147,271.527 979.69,325.06 991.627,330.085 
			1007.166,367.509 1007.166,379.802 1000.147,391.402 1001.561,401.878 1009.633,419.029 		"/>
		<rect x="285.908" y="385.863" fill="#FFD800" width="3.699" height="49.846"/>
		<g>
			<line fill="none" x1="287.347" y1="410.785" x2="269.67" y2="410.785"/>
			<rect x="269.67" y="408.934" fill="#FFD800" width="17.677" height="3.7"/>
		</g>
		<polygon fill="#F59900" points="594.592,509.705 545.502,483.876 534.409,484.904 503.095,468.601 489.74,453.628 439.83,438.996 
			382.925,438.996 382.925,432.83 440.715,432.83 493.167,448.207 506.945,463.654 535.647,478.595 546.754,477.568 
			607.791,509.705 		"/>
		<polygon fill="#91BBFE" points="654.965,233.759 647.566,241.16 647.566,254.828 638.572,263.822 631.481,270.912 
			631.481,274.766 640.06,275.305 645.571,267.791 655.166,265.906 676.826,279.992 680.864,258.322 673.258,259.658 662.879,257.5 
			660.309,255.445 651.265,258.014 651.162,248.354 657.328,242.291 659.487,233.759 663.188,222.042 660.926,217.212 
			659.692,224.613 		"/>
		<polygon fill="#BFD49B" points="679.424,291.106 679.424,322.863 633.486,322.863 633.486,346.604 647.976,346.604 
			647.976,377.126 658.459,377.126 658.459,382.985 661.389,385.916 661.389,391.619 666.862,397.091 666.862,402.41 
			679.424,402.41 686.053,409.037 690.563,413.546 698.385,421.371 718.58,421.371 718.58,378.977 729.065,378.977 729.065,343.83 
			729.065,291.106 		"/>
		<polygon fill="#BFD49B" points="768.221,250.716 768.221,313.828 790.418,313.828 790.418,323.171 805.528,323.171 
			805.528,313.828 820.018,313.828 820.018,294.807 846.225,294.807 846.225,291.106 837.592,291.106 837.592,265.809 
			820.942,265.809 820.942,248.603 818.051,241.156 785.178,241.156 785.178,250.716 		"/>
		<polygon fill="#FFFFFF" stroke="#000000" stroke-miterlimit="10" points="633.691,283.572 628.782,275.105 633.029,266.026 
			639.091,259.358 643.542,241.548 629.272,236.5 615.404,231.772 565.729,223.298 543.389,232.787 510.119,241.809 489.503,233.5 
			471.575,240.919 459.542,234.089 461.051,223.225 437.656,221.425 421.054,221.427 408.615,219.259 376.253,209.093 
			290.636,209.093 290.636,207.861 376.443,207.861 408.906,218.064 421.161,220.203 437.703,220.194 462.453,222.096 
			460.878,233.43 471.66,239.548 489.497,232.167 510.197,240.509 542.987,231.623 565.58,222.022 565.759,222.052 615.706,230.582 
			629.676,235.333 645.01,240.759 640.212,259.958 634.004,266.787 630.171,275.042 634.757,282.953 		"/>
		<polygon fill="#F59900" points="395.523,423.203 365.181,394.369 318.268,349.123 291.493,237.203 281.833,173.483 
			287.929,172.559 297.57,236.149 323.845,345.935 369.445,389.914 397.05,416.148 416.448,409.425 434.58,408.473 434.58,414.742 
			417.643,415.537 		"/>
		<rect x="269.67" y="173.021" fill="none" stroke="#000000" stroke-miterlimit="10" width="739.963" height="336.684"/>
		<g>
			<path d="M886.66,255.958v9.969h-1.287v-9.969H886.66z"/>
			<path d="M889.016,260.707c0-0.74-0.016-1.347-0.061-1.938h1.154l0.072,1.184h0.029c0.355-0.682,1.186-1.347,2.367-1.347
				c0.99,0,2.525,0.591,2.525,3.046v4.273h-1.299V261.8c0-1.154-0.432-2.115-1.658-2.115c-0.855,0-1.521,0.607-1.744,1.331
				c-0.061,0.163-0.09,0.385-0.09,0.606v4.303h-1.301v-5.219H889.016L889.016,260.707z"/>
			<path d="M903.41,255.425v8.652c0,0.637,0.014,1.36,0.059,1.848h-1.168l-0.059-1.241h-0.031c-0.398,0.799-1.271,1.405-2.439,1.405
				c-1.729,0-3.061-1.465-3.061-3.639c-0.018-2.381,1.463-3.845,3.209-3.845c1.094,0,1.834,0.517,2.16,1.095h0.025v-4.275H903.41
				L903.41,255.425z M902.108,261.683c0-0.164-0.016-0.385-0.061-0.549c-0.189-0.828-0.9-1.508-1.879-1.508
				c-1.346,0-2.143,1.183-2.143,2.766c0,1.449,0.709,2.646,2.111,2.646c0.873,0,1.672-0.576,1.908-1.553
				c0.045-0.177,0.059-0.354,0.059-0.562v-1.24H902.108z"/>
			<path d="M907.026,256.755c0.014,0.445-0.312,0.8-0.83,0.8c-0.457,0-0.783-0.354-0.783-0.8c0-0.457,0.34-0.812,0.812-0.812
				C906.715,255.943,907.026,256.298,907.026,256.755z M905.576,265.927v-7.158h1.299v7.158H905.576z"/>
			<path d="M913.002,265.927l-0.104-0.902h-0.045c-0.398,0.562-1.17,1.064-2.189,1.064c-1.449,0-2.189-1.021-2.189-2.057
				c0-1.73,1.539-2.677,4.307-2.662v-0.147c0-0.591-0.162-1.657-1.627-1.657c-0.666,0-1.359,0.207-1.863,0.532l-0.297-0.856
				c0.592-0.386,1.449-0.637,2.352-0.637c2.189,0,2.725,1.493,2.725,2.928v2.678c0,0.621,0.027,1.228,0.115,1.715h-1.183
				L913.002,265.927L913.002,265.927z M912.809,262.273c-1.42-0.029-3.029,0.223-3.029,1.611c0,0.844,0.561,1.244,1.227,1.244
				c0.936,0,1.523-0.592,1.73-1.198c0.045-0.134,0.072-0.281,0.072-0.414V262.273L912.809,262.273z"/>
			<path d="M916.172,260.707c0-0.74-0.016-1.347-0.061-1.938h1.152l0.074,1.184h0.029c0.354-0.682,1.184-1.347,2.365-1.347
				c0.99,0,2.527,0.591,2.527,3.046v4.273h-1.301V261.8c0-1.154-0.43-2.115-1.656-2.115c-0.855,0-1.521,0.607-1.746,1.331
				c-0.059,0.163-0.088,0.385-0.088,0.606v4.303h-1.301v-5.219H916.172L916.172,260.707z"/>
			<path d="M928.66,265.927l-2.529-9.969h1.359l1.186,5.043c0.295,1.242,0.562,2.484,0.738,3.447h0.029
				c0.162-0.992,0.475-2.176,0.812-3.461l1.33-5.029h1.349l1.214,5.058c0.277,1.185,0.547,2.366,0.691,3.417h0.029
				c0.207-1.094,0.486-2.204,0.801-3.446l1.316-5.028h1.314l-2.826,9.969h-1.346l-1.258-5.191c-0.311-1.271-0.518-2.249-0.65-3.254
				h-0.027c-0.18,0.991-0.398,1.967-0.771,3.254l-1.42,5.191H928.66z"/>
			<path d="M939.744,262.583c0.031,1.76,1.154,2.484,2.455,2.484c0.934,0,1.494-0.162,1.98-0.369l0.225,0.932
				c-0.459,0.207-1.242,0.443-2.381,0.443c-2.205,0-3.521-1.449-3.521-3.609c0-2.159,1.271-3.859,3.357-3.859
				c2.336,0,2.957,2.057,2.957,3.372c0,0.267-0.029,0.474-0.047,0.606H939.744L939.744,262.583z M943.561,261.652
				c0.018-0.828-0.34-2.115-1.803-2.115c-1.318,0-1.895,1.213-1.998,2.115H943.561z"/>
			<path d="M946.436,255.425h1.303v10.5h-1.303V255.425z"/>
			<path d="M949.928,255.425h1.301v10.5h-1.301V255.425z"/>
			<path d="M953.242,264.596c0.383,0.251,1.062,0.519,1.715,0.519c0.947,0,1.391-0.475,1.391-1.066c0-0.621-0.369-0.961-1.33-1.316
				c-1.289-0.458-1.893-1.168-1.893-2.025c0-1.154,0.932-2.101,2.469-2.101c0.727,0,1.361,0.206,1.76,0.442l-0.324,0.947
				c-0.279-0.177-0.799-0.414-1.465-0.414c-0.77,0-1.195,0.444-1.195,0.978c0,0.591,0.428,0.856,1.357,1.212
				c1.242,0.475,1.879,1.096,1.879,2.16c0,1.257-0.975,2.145-2.678,2.145c-0.783,0-1.508-0.193-2.012-0.488L953.242,264.596z"/>
		</g>
		<g>
			<path d="M352.781,413.541c0.703-0.147,1.812-0.26,2.939-0.26c1.608,0,2.646,0.277,3.422,0.906
				c0.647,0.479,1.036,1.221,1.036,2.199c0,1.203-0.795,2.258-2.107,2.738v0.035c1.184,0.297,2.569,1.276,2.569,3.129
				c0,1.072-0.425,1.885-1.054,2.496c-0.87,0.795-2.273,1.166-4.31,1.166c-1.11,0-1.961-0.074-2.497-0.148L352.781,413.541
				L352.781,413.541z M354.389,418.645h1.461c1.702,0,2.701-0.888,2.701-2.088c0-1.464-1.108-2.035-2.738-2.035
				c-0.737,0-1.163,0.056-1.424,0.108V418.645L354.389,418.645z M354.389,424.619c0.314,0.057,0.777,0.076,1.353,0.076
				c1.664,0,3.2-0.611,3.2-2.424c0-1.701-1.461-2.404-3.22-2.404h-1.333V424.619L354.389,424.619z"/>
			<path d="M367.708,425.841l-0.129-1.129h-0.056c-0.5,0.703-1.461,1.332-2.737,1.332c-1.813,0-2.738-1.275-2.738-2.57
				c0-2.166,1.924-3.35,5.383-3.329v-0.187c0-0.74-0.204-2.071-2.033-2.071c-0.832,0-1.702,0.26-2.331,0.665l-0.37-1.071
				c0.738-0.479,1.812-0.797,2.939-0.797c2.738,0,3.404,1.868,3.404,3.664v3.349c0,0.775,0.037,1.535,0.148,2.146h-1.48V425.841z
				 M367.468,421.271c-1.773-0.035-3.792,0.277-3.792,2.018c0,1.055,0.703,1.555,1.535,1.555c1.165,0,1.905-0.742,2.165-1.5
				c0.055-0.166,0.092-0.35,0.092-0.518V421.271L367.468,421.271z"/>
			<path d="M373.277,420.994h0.036c0.223-0.312,0.536-0.703,0.796-1.016l2.626-3.09h1.961l-3.459,3.682l3.938,5.271h-1.979
				l-3.089-4.291l-0.833,0.924v3.367h-1.609v-13.135h1.609L373.277,420.994L373.277,420.994z"/>
			<path d="M381.25,421.66c0.037,2.203,1.443,3.109,3.071,3.109c1.165,0,1.868-0.205,2.479-0.465l0.277,1.166
				c-0.573,0.26-1.554,0.557-2.979,0.557c-2.756,0-4.401-1.814-4.401-4.516c0-2.7,1.591-4.828,4.198-4.828
				c2.924,0,3.699,2.57,3.699,4.219c0,0.334-0.037,0.594-0.056,0.758H381.25L381.25,421.66z M386.023,420.496
				c0.019-1.037-0.427-2.645-2.259-2.645c-1.646,0-2.366,1.516-2.498,2.645H386.023z"/>
			<path d="M389.612,419.682c0-1.056-0.02-1.961-0.073-2.793h1.424l0.056,1.756h0.074c0.407-1.201,1.39-1.961,2.479-1.961
				c0.185,0,0.313,0.021,0.462,0.058v1.534c-0.166-0.036-0.333-0.055-0.555-0.055c-1.147,0-1.963,0.868-2.185,2.09
				c-0.038,0.224-0.074,0.479-0.074,0.759v4.771h-1.608V419.682L389.612,419.682z"/>
			<path d="M395.438,424.175c0.481,0.316,1.332,0.648,2.146,0.648c1.184,0,1.739-0.592,1.739-1.332c0-0.777-0.462-1.201-1.665-1.646
				c-1.609-0.574-2.368-1.461-2.368-2.534c0-1.44,1.166-2.627,3.089-2.627c0.906,0,1.702,0.26,2.202,0.558l-0.407,1.184
				c-0.352-0.223-0.999-0.518-1.832-0.518c-0.962,0-1.499,0.555-1.499,1.221c0,0.74,0.537,1.072,1.703,1.52
				c1.553,0.592,2.349,1.367,2.349,2.697c0,1.572-1.221,2.686-3.348,2.686c-0.979,0-1.887-0.24-2.516-0.611L395.438,424.175z"/>
			<path d="M403.153,425.841v-7.715h-1.26v-1.237h1.26v-0.479c0-2.369,1.387-3.904,3.901-3.904c0.832,0,1.812,0.262,2.275,0.594
				l-0.462,1.236c-0.389-0.273-1.091-0.519-1.887-0.519c-1.722,0-2.222,1.203-2.222,2.627v0.445h5.198v8.952h-1.609v-7.715h-3.589
				v7.715H403.153z"/>
			<path d="M413.568,421.66c0.036,2.203,1.441,3.109,3.069,3.109c1.165,0,1.869-0.205,2.479-0.465l0.276,1.166
				c-0.572,0.26-1.554,0.557-2.979,0.557c-2.756,0-4.403-1.814-4.403-4.516c0-2.7,1.591-4.828,4.199-4.828
				c2.923,0,3.7,2.57,3.7,4.219c0,0.334-0.037,0.594-0.055,0.758H413.568L413.568,421.66z M418.34,420.496
				c0.021-1.037-0.425-2.645-2.257-2.645c-1.646,0-2.368,1.516-2.498,2.645H418.34z"/>
			<path d="M421.928,412.707h1.628v13.135h-1.628V412.707z"/>
			<path d="M434.027,412.707v10.822c0,0.797,0.019,1.701,0.073,2.312h-1.461l-0.072-1.553h-0.037
				c-0.5,0.998-1.592,1.756-3.054,1.756c-2.163,0-3.829-1.832-3.829-4.549c-0.019-2.979,1.832-4.812,4.016-4.812
				c1.368,0,2.293,0.646,2.701,1.369h0.038v-5.348L434.027,412.707L434.027,412.707z M432.4,420.533c0-0.205-0.021-0.48-0.075-0.686
				c-0.241-1.035-1.128-1.889-2.351-1.889c-1.684,0-2.683,1.479-2.683,3.459c0,1.812,0.889,3.312,2.646,3.312
				c1.093,0,2.092-0.725,2.388-1.943c0.056-0.223,0.074-0.443,0.074-0.703L432.4,420.533L432.4,420.533z"/>
		</g>
		<g>
			<path fill="#2D5420" d="M682.68,284.087h1.609v6.012h0.056c0.333-0.48,0.665-0.926,0.979-1.332l3.81-4.68h1.998l-4.513,5.289
				l4.863,7.176h-1.904l-4.105-6.121l-1.184,1.369v4.752h-1.609V284.087z"/>
			<path fill="#2D5420" d="M693.557,292.375c0.037,2.201,1.443,3.106,3.07,3.106c1.165,0,1.868-0.203,2.479-0.462l0.275,1.165
				c-0.573,0.259-1.554,0.556-2.978,0.556c-2.756,0-4.401-1.812-4.401-4.514c0-2.7,1.59-4.827,4.197-4.827
				c2.923,0,3.699,2.569,3.699,4.216c0,0.334-0.037,0.592-0.058,0.758L693.557,292.375L693.557,292.375z M698.328,291.208
				c0.019-1.037-0.425-2.646-2.256-2.646c-1.646,0-2.367,1.517-2.497,2.646H698.328z"/>
			<path fill="#2D5420" d="M701.918,290.395c0-1.054-0.018-1.96-0.073-2.793h1.425l0.057,1.757h0.073
				c0.405-1.201,1.388-1.96,2.479-1.96c0.187,0,0.314,0.019,0.462,0.056v1.535c-0.166-0.037-0.332-0.055-0.555-0.055
				c-1.146,0-1.96,0.869-2.184,2.089c-0.035,0.222-0.072,0.481-0.072,0.759v4.77h-1.609L701.918,290.395L701.918,290.395z"/>
			<path fill="#2D5420" d="M708.041,290.025c0-0.925-0.018-1.684-0.073-2.423h1.442l0.092,1.479h0.037
				c0.444-0.852,1.479-1.684,2.959-1.684c1.239,0,3.163,0.74,3.163,3.811v5.344h-1.628v-5.159c0-1.442-0.536-2.646-2.071-2.646
				c-1.072,0-1.904,0.758-2.182,1.666c-0.074,0.203-0.111,0.479-0.111,0.758v5.381h-1.628V290.025z"/>
			<path fill="#2D5420" d="M722.285,284.255c0.812-0.168,1.979-0.26,3.089-0.26c1.72,0,2.829,0.314,3.606,1.018
				c0.629,0.555,0.979,1.404,0.979,2.367c0,1.646-1.035,2.736-2.349,3.181v0.056c0.962,0.334,1.533,1.221,1.831,2.516
				c0.405,1.738,0.701,2.939,0.962,3.42h-1.665c-0.203-0.352-0.48-1.424-0.832-2.977c-0.37-1.721-1.035-2.367-2.496-2.424h-1.519
				v5.4h-1.607L722.285,284.255L722.285,284.255z M723.895,289.933h1.646c1.72,0,2.812-0.943,2.812-2.367
				c0-1.609-1.165-2.312-2.867-2.331c-0.776,0-1.331,0.074-1.59,0.147v4.551H723.895z"/>
			<path fill="#2D5420" d="M734.18,285.087c0.021,0.555-0.388,0.998-1.035,0.998c-0.571,0-0.979-0.443-0.979-0.998
				c0-0.574,0.426-1.019,1.018-1.019C733.792,284.07,734.18,284.514,734.18,285.087z M732.367,296.552v-8.95h1.628v8.95H732.367z"/>
			<path fill="#2D5420" d="M737.324,287.602l1.757,5.03c0.296,0.813,0.537,1.554,0.722,2.293h0.058
				c0.202-0.74,0.462-1.479,0.758-2.293l1.737-5.03h1.701l-3.515,8.95h-1.553l-3.403-8.95H737.324z"/>
			<path fill="#2D5420" d="M746.315,292.375c0.035,2.201,1.441,3.106,3.068,3.106c1.165,0,1.868-0.203,2.479-0.462l0.275,1.165
				c-0.571,0.259-1.554,0.556-2.978,0.556c-2.756,0-4.401-1.812-4.401-4.514c0-2.7,1.59-4.827,4.197-4.827
				c2.923,0,3.699,2.569,3.699,4.216c0,0.334-0.037,0.592-0.058,0.758L746.315,292.375L746.315,292.375z M751.086,291.208
				c0.021-1.037-0.425-2.646-2.256-2.646c-1.646,0-2.367,1.517-2.497,2.646H751.086z"/>
			<path fill="#2D5420" d="M754.677,290.395c0-1.054-0.019-1.96-0.073-2.793h1.426l0.056,1.757h0.073
				c0.407-1.201,1.388-1.96,2.479-1.96c0.187,0,0.314,0.019,0.463,0.056v1.535c-0.167-0.037-0.333-0.055-0.556-0.055
				c-1.146,0-1.96,0.869-2.182,2.089c-0.037,0.222-0.074,0.481-0.074,0.759v4.77h-1.609L754.677,290.395L754.677,290.395z"/>
		</g>
	</g>
	<rect x="-1" y="605" display="inline" fill="#A46D55" width="318" height="66"/>
	<rect x="-1" y="671" display="inline" fill="#5E3F2F" width="318" height="13"/>
	<rect x="202" y="684" display="inline" fill="#A46D55" width="20" height="147"/>
	<rect x="196" y="684" display="inline" fill="#7F5441" width="6" height="145"/>
</g>
<g id="Calque_6" display="none">
	<g display="inline" opacity="0.25">
		<path fill="#020202" d="M700.035,259.796c-17.136,6.973-13.822,24.404,22.302,9.707c36.125-14.697-6.635-16.311-6.635-16.311"/>
		<g>
			<path fill="#FF5003" d="M701.334,259.046c-4.51,1.877-10.584,4.91-12.309,9.845c-2.015,5.756,5.559,7.116,9.525,7.082
				c5.355-0.05,10.7-1.554,15.747-3.214c5.469-1.801,10.884-4.021,15.905-6.852c2.536-1.431,11.144-5.689,6.601-9.324
				c-3.001-2.401-7.816-2.877-11.479-3.387c-2.756-0.383-5.545-0.646-8.326-0.754c-0.856-0.033-1.765,1.532-2.598,1.5
				c3.646,0.141,22.889,0.855,20.995,7.176c-1.003,3.348-6.055,5.155-8.776,6.371c-6.047,2.696-12.392,4.943-18.896,6.234
				c-4.26,0.845-14.74,2.456-16.288-3.682c-0.444-1.771,0.437-3.603,1.438-5.004c0.69-0.967,1.568-1.795,2.479-2.552
				c0.562-0.467,1.164-0.882,1.775-1.28c-1.729,1.127,1.01-0.414,1.604-0.66C699.655,260.166,700.422,259.425,701.334,259.046
				L701.334,259.046z"/>
		</g>
	</g>
	<g display="inline">
		<g>
			<path fill="#FF5003" d="M701.334,259.046c-4.51,1.877-10.584,4.91-12.309,9.845c-2.015,5.756,5.559,7.116,9.525,7.082
				c5.355-0.05,10.7-1.554,15.747-3.214c5.469-1.801,10.884-4.021,15.905-6.852c2.536-1.431,11.144-5.689,6.601-9.324
				c-3.001-2.401-7.816-2.877-11.479-3.387c-2.756-0.383-5.545-0.646-8.326-0.754c-0.856-0.033-1.765,1.532-2.598,1.5
				c3.646,0.141,22.889,0.855,20.995,7.176c-1.003,3.348-6.055,5.155-8.776,6.371c-6.047,2.696-12.392,4.943-18.896,6.234
				c-4.26,0.845-14.74,2.456-16.288-3.682c-0.444-1.771,0.437-3.603,1.438-5.004c0.69-0.967,1.568-1.795,2.479-2.552
				c0.562-0.467,1.164-0.882,1.775-1.28c-1.729,1.127,1.01-0.414,1.604-0.66C699.655,260.166,700.422,259.425,701.334,259.046
				L701.334,259.046z"/>
		</g>
	</g>
</g>
<g id="Calque_3" display="none">
	<rect x="150" y="629" display="inline" fill="#4C4847" width="49" height="23"/>
	<rect x="101" y="629" display="inline" fill="#4C4847" width="49" height="23"/>
	<g display="inline">
		<g>
			<rect x="10" y="466" fill="#211F1F" width="280" height="154"/>
			<polygon opacity="0.2" fill="#FFFFFF" enable-background="new    " points="95.164,466 10,538.855 10,514.888 67.166,466 			"/>
			<polygon opacity="0.2" fill="#FFFFFF" enable-background="new    " points="196.908,466 31.989,620 10,620 10,616.63 168.91,466 
							"/>
			<polygon opacity="0.2" fill="#FFFFFF" enable-background="new    " points="204.583,620 290,546.617 290,570.583 232.581,620 			
				"/>
			<polygon opacity="0.2" fill="#FFFFFF" enable-background="new    " points="289.608,466 124.688,620 102.7,620 99.309,620 
				261.61,466 			"/>
			<g>
				<rect x="30" y="476" fill="#F9F9F9" width="240" height="133"/>
			</g>
		</g>
	</g>
	<polygon display="inline" fill="#0C0B0B" points="144,620 144,629 144,638 156,638 156,620 	"/>
	<g display="inline">
		<rect x="30" y="605" fill="#E6E6E6" width="240" height="4"/>
		<rect x="90" y="519" fill="#BCC5CC" width="141" height="73"/>
		<polygon fill="#9D8F80" points="230.469,519 89.41,519 98.649,493 221.019,493 		"/>
		<rect x="121" y="506" fill="#BCC5CC" width="77" height="13"/>
		<rect x="124" y="508" fill="#FFFFFF" width="72" height="22"/>
		<rect x="158" y="543" fill="#FFFFFF" width="73" height="49"/>
		<rect x="160" y="544" fill="#D4EEF9" width="69" height="38"/>
		<rect x="99" y="549" fill="#FFFFFF" width="32" height="43"/>
		<rect x="102" y="550" fill="#D4EEF9" width="27" height="42"/>
		<rect x="114" y="549" fill="#FFFFFF" width="2" height="43"/>
		<rect x="156" y="582" fill="#BCC5CC" width="75" height="10"/>
		<g>
			<path fill="#4D4D4D" d="M133.771,528.378v-5.416l-1.979,4.295h-0.66l-2.009-4.295v5.416h-0.771v-7.129h0.771l2.354,5.057
				l2.293-5.057h0.771v7.129H133.771z"/>
			<path fill="#4D4D4D" d="M139.291,524.394c-0.137-0.133-0.265-0.227-0.387-0.279c-0.121-0.055-0.28-0.08-0.477-0.08
				c-0.183,0-0.348,0.035-0.497,0.102c-0.148,0.066-0.273,0.16-0.375,0.279c-0.101,0.121-0.181,0.262-0.238,0.422
				s-0.086,0.332-0.086,0.521v3.021h-0.729v-4.926h0.729v0.6c0.136-0.207,0.33-0.369,0.583-0.482
				c0.254-0.117,0.526-0.178,0.817-0.178c0.237,0,0.452,0.033,0.644,0.102c0.193,0.064,0.377,0.188,0.554,0.359L139.291,524.394z"/>
			<path fill="#4D4D4D" d="M148.229,528.378l-0.648-0.781c-0.075,0.068-0.172,0.148-0.294,0.246c-0.122,0.1-0.271,0.189-0.446,0.275
				c-0.176,0.086-0.379,0.162-0.609,0.225c-0.229,0.064-0.489,0.098-0.78,0.098c-0.353,0-0.668-0.053-0.948-0.15
				c-0.281-0.1-0.521-0.24-0.721-0.42c-0.2-0.18-0.353-0.396-0.457-0.65c-0.105-0.254-0.157-0.537-0.157-0.852
				c0-0.27,0.044-0.504,0.132-0.711s0.205-0.396,0.35-0.562c0.146-0.168,0.313-0.316,0.502-0.455
				c0.189-0.137,0.383-0.271,0.578-0.404c-0.088-0.107-0.178-0.219-0.269-0.33c-0.091-0.113-0.176-0.234-0.253-0.361
				c-0.078-0.127-0.142-0.262-0.188-0.404s-0.07-0.297-0.07-0.457c0-0.213,0.038-0.408,0.116-0.59
				c0.078-0.18,0.188-0.338,0.331-0.471c0.144-0.133,0.312-0.238,0.509-0.314c0.197-0.078,0.411-0.115,0.643-0.115
				c0.224,0,0.433,0.039,0.626,0.115s0.361,0.184,0.504,0.314c0.142,0.133,0.252,0.293,0.331,0.475
				c0.078,0.188,0.117,0.385,0.117,0.6c0,0.285-0.076,0.529-0.229,0.732c-0.151,0.205-0.343,0.383-0.572,0.537
				c-0.008,0.006-0.041,0.027-0.102,0.064s-0.136,0.084-0.224,0.145c-0.088,0.062-0.159,0.111-0.213,0.15l1.836,2.191
				c0.073-0.105,0.137-0.215,0.188-0.324s0.091-0.229,0.122-0.355c0.031-0.125,0.054-0.266,0.071-0.42
				c0.017-0.154,0.024-0.33,0.024-0.531h0.731c-0.007,0.455-0.062,0.861-0.163,1.225c-0.102,0.359-0.271,0.68-0.507,0.961
				l1.105,1.311h-0.965V528.378L148.229,528.378z M145.155,524.714c-0.155,0.107-0.308,0.213-0.456,0.32
				c-0.149,0.105-0.281,0.225-0.396,0.35c-0.115,0.127-0.208,0.271-0.279,0.426c-0.07,0.158-0.105,0.338-0.105,0.537
				c0,0.213,0.037,0.406,0.11,0.58c0.075,0.174,0.18,0.324,0.314,0.451s0.296,0.223,0.482,0.289
				c0.186,0.066,0.391,0.102,0.613,0.102c0.271,0,0.544-0.047,0.822-0.141s0.571-0.277,0.883-0.551L145.155,524.714z
				 M146.149,522.076c-0.162-0.162-0.364-0.244-0.608-0.244c-0.25,0-0.451,0.078-0.604,0.234c-0.151,0.154-0.229,0.354-0.229,0.596
				c0,0.168,0.049,0.332,0.146,0.496c0.099,0.164,0.266,0.389,0.502,0.676c0.041-0.027,0.094-0.062,0.157-0.105
				c0.064-0.043,0.117-0.076,0.158-0.104c0.041-0.025,0.063-0.043,0.071-0.049c0.169-0.113,0.319-0.24,0.451-0.377
				c0.133-0.137,0.198-0.311,0.198-0.518C146.393,522.441,146.312,522.24,146.149,522.076z"/>
			<path fill="#4D4D4D" d="M158.873,528.378v-5.416l-1.979,4.295h-0.66l-2.009-4.295v5.416h-0.771v-7.129h0.771l2.354,5.057
				l2.293-5.057h0.771v7.129H158.873z"/>
			<path fill="#4D4D4D" d="M165.057,527.574c-0.098,0.184-0.237,0.34-0.416,0.471c-0.18,0.129-0.393,0.229-0.64,0.295
				s-0.522,0.102-0.827,0.102c-0.426,0-0.805-0.055-1.136-0.16c-0.332-0.107-0.637-0.291-0.913-0.553l0.486-0.479
				c0.196,0.207,0.427,0.354,0.69,0.439c0.264,0.088,0.551,0.131,0.862,0.131c0.413,0,0.736-0.072,0.974-0.217
				c0.237-0.143,0.355-0.359,0.355-0.654c0-0.213-0.066-0.381-0.198-0.5c-0.132-0.121-0.343-0.193-0.634-0.223l-0.822-0.068
				c-0.487-0.039-0.857-0.168-1.111-0.385c-0.254-0.219-0.38-0.529-0.38-0.938c0-0.229,0.045-0.43,0.137-0.607
				c0.093-0.176,0.219-0.324,0.381-0.447s0.356-0.221,0.583-0.285c0.227-0.068,0.472-0.104,0.735-0.104c0.358,0,0.691,0.047,1,0.133
				s0.573,0.221,0.796,0.398l-0.477,0.471c-0.176-0.133-0.377-0.23-0.604-0.295c-0.227-0.062-0.469-0.096-0.726-0.096
				c-0.365,0-0.644,0.072-0.832,0.215c-0.189,0.146-0.284,0.344-0.284,0.598c0,0.215,0.066,0.381,0.198,0.502
				c0.132,0.119,0.356,0.191,0.675,0.219l0.802,0.07c0.217,0.021,0.416,0.057,0.6,0.109c0.183,0.051,0.338,0.133,0.467,0.24
				c0.128,0.105,0.228,0.24,0.299,0.4c0.071,0.158,0.106,0.354,0.106,0.58C165.204,527.177,165.155,527.39,165.057,527.574z"/>
			<path fill="#4D4D4D" d="M176.03,528.378l-0.578-1.611h-3.155l-0.579,1.611h-0.822l2.659-7.129h0.649l2.647,7.129H176.03z
				 M173.889,522.341l-1.358,3.768h2.698L173.889,522.341z"/>
			<path fill="#4D4D4D" d="M179.134,528.378c-0.44,0-0.761-0.125-0.964-0.375s-0.304-0.561-0.304-0.936v-5.818h0.729v5.787
				c0,0.24,0.047,0.422,0.142,0.541c0.095,0.121,0.271,0.18,0.527,0.18h0.396v0.621H179.134L179.134,528.378z"/>
			<path fill="#4D4D4D" d="M182.147,528.378c-0.439,0-0.761-0.125-0.964-0.375s-0.304-0.561-0.304-0.936v-5.818h0.729v5.787
				c0,0.24,0.048,0.422,0.143,0.541c0.094,0.121,0.271,0.18,0.526,0.18h0.396v0.621H182.147L182.147,528.378z"/>
			<path fill="#4D4D4D" d="M184.116,526.107c0,0.535,0.125,0.951,0.375,1.248c0.25,0.295,0.614,0.441,1.096,0.441
				c0.291,0,0.533-0.045,0.726-0.135c0.193-0.09,0.388-0.232,0.583-0.426l0.497,0.43c-0.128,0.129-0.255,0.24-0.38,0.334
				c-0.125,0.096-0.259,0.176-0.401,0.24c-0.142,0.062-0.299,0.111-0.472,0.145c-0.173,0.035-0.364,0.053-0.573,0.053
				c-0.332,0-0.631-0.051-0.897-0.148c-0.269-0.102-0.496-0.254-0.686-0.461c-0.188-0.207-0.336-0.469-0.44-0.787
				c-0.105-0.316-0.157-0.691-0.157-1.125c0-0.801,0.183-1.422,0.548-1.863c0.365-0.438,0.866-0.66,1.502-0.66
				c0.649,0,1.153,0.215,1.513,0.643c0.357,0.428,0.537,1.008,0.537,1.742v0.33H184.116L184.116,526.107z M186.733,525.304
				c-0.007-0.07-0.015-0.139-0.024-0.197c-0.01-0.062-0.023-0.119-0.041-0.178c-0.018-0.057-0.039-0.117-0.066-0.186
				c-0.095-0.229-0.247-0.406-0.457-0.539c-0.209-0.135-0.445-0.201-0.71-0.201c-0.264,0-0.501,0.066-0.71,0.201
				c-0.21,0.133-0.362,0.311-0.457,0.539c-0.054,0.135-0.091,0.254-0.112,0.359c-0.02,0.107-0.033,0.262-0.04,0.463h2.638
				C186.747,525.464,186.74,525.378,186.733,525.304z"/>
			<path fill="#4D4D4D" d="M192.233,528.378v-3.033c0-0.439-0.109-0.77-0.33-0.984c-0.22-0.217-0.519-0.326-0.897-0.326
				s-0.68,0.109-0.903,0.332c-0.223,0.219-0.335,0.547-0.335,0.979v3.033h-0.729v-4.926h0.729v0.541
				c0.176-0.201,0.382-0.352,0.619-0.451s0.497-0.15,0.781-0.15c0.541,0,0.967,0.154,1.277,0.461
				c0.346,0.334,0.519,0.791,0.519,1.371v3.154H192.233L192.233,528.378z"/>
		</g>
		<polyline fill="none" stroke="#000000" stroke-miterlimit="10" points="159.272,509.753 157.047,511.658 159.272,515.462 		"/>
		<polyline fill="none" stroke="#000000" stroke-miterlimit="10" points="159.272,509.753 161.497,511.658 159.272,515.462 		"/>
		<polyline fill="none" stroke="#000000" stroke-miterlimit="10" points="159.272,509.753 162.531,511.304 159.342,515.33 		"/>
		<polyline fill="none" stroke="#000000" stroke-miterlimit="10" points="159.193,509.753 155.935,511.304 159.125,515.33 		"/>
		<polyline fill="none" stroke="#000000" stroke-miterlimit="10" points="159.272,509.753 158.16,511.876 159.272,515.462 		"/>
		<polyline fill="none" stroke="#000000" stroke-miterlimit="10" points="159.272,509.753 160.385,511.876 159.272,515.462 		"/>
		<rect x="160" y="576" fill="#FFFFFF" width="4" height="5"/>
		<rect x="161" y="577" fill="#C1272D" width="3" height="2"/>
		<rect x="161" y="550" opacity="0.3" fill="#F2F2F2" enable-background="new    " width="68" height="11"/>
		<rect x="160" y="567" opacity="0.3" fill="#F2F2F2" enable-background="new    " width="69" height="12"/>
		<rect x="113" y="571" fill="#666666" width="0" height="8"/>
		<rect x="117" y="571" fill="#666666" width="0" height="8"/>
		<rect x="30" y="575" opacity="0.75" fill="#FF0000" enable-background="new    " width="240" height="30"/>
		<g>
			<path d="M50.545,585.656c-0.124,0.297-0.298,0.545-0.522,0.744c-0.224,0.197-0.491,0.35-0.804,0.447
				c-0.312,0.104-0.656,0.15-1.032,0.15h-3.324v-8.543h3.217c0.367,0,0.708,0.051,1.02,0.156c0.312,0.104,0.578,0.254,0.798,0.447
				c0.221,0.195,0.393,0.436,0.517,0.717c0.124,0.277,0.186,0.6,0.186,0.959c0,0.457-0.12,0.848-0.36,1.176
				c-0.239,0.328-0.539,0.561-0.899,0.697c0.408,0.148,0.742,0.396,1.002,0.74c0.26,0.348,0.39,0.773,0.39,1.285
				C50.731,585.019,50.669,585.361,50.545,585.656z M49.556,580.087c-0.088-0.184-0.206-0.336-0.354-0.455
				c-0.148-0.121-0.324-0.211-0.528-0.27c-0.204-0.062-0.426-0.092-0.666-0.092h-2.232v2.965h2.232c0.24,0,0.462-0.029,0.666-0.092
				c0.204-0.061,0.38-0.148,0.528-0.27c0.147-0.121,0.266-0.273,0.354-0.463c0.088-0.188,0.132-0.41,0.132-0.666
				S49.644,580.271,49.556,580.087z M49.357,583.472c-0.308-0.277-0.726-0.42-1.254-0.42h-2.328v3.131h2.328
				c0.528,0,0.946-0.141,1.254-0.426c0.309-0.283,0.462-0.666,0.462-1.145C49.819,584.132,49.666,583.751,49.357,583.472z"/>
			<path d="M56.023,582.224c-0.16-0.158-0.312-0.271-0.456-0.336c-0.144-0.062-0.332-0.096-0.563-0.096
				c-0.216,0-0.412,0.039-0.588,0.119c-0.177,0.08-0.324,0.189-0.444,0.336c-0.12,0.145-0.214,0.312-0.282,0.504
				c-0.067,0.193-0.102,0.4-0.102,0.625V587h-0.864v-5.904h0.864v0.723c0.16-0.248,0.39-0.441,0.689-0.582
				c0.301-0.143,0.622-0.209,0.967-0.209c0.279,0,0.533,0.039,0.762,0.117c0.228,0.08,0.446,0.227,0.654,0.434L56.023,582.224z"/>
			<path d="M57.907,584.277c0,0.643,0.147,1.143,0.443,1.496s0.729,0.529,1.296,0.529c0.345,0,0.63-0.055,0.858-0.162
				c0.228-0.105,0.458-0.275,0.689-0.51l0.589,0.518c-0.152,0.15-0.303,0.285-0.45,0.398c-0.148,0.113-0.307,0.209-0.475,0.285
				c-0.168,0.078-0.354,0.137-0.558,0.178s-0.43,0.062-0.678,0.062c-0.393,0-0.746-0.062-1.062-0.184
				c-0.315-0.117-0.586-0.303-0.81-0.551c-0.225-0.248-0.398-0.562-0.522-0.939c-0.124-0.379-0.186-0.83-0.186-1.354
				c0-0.959,0.216-1.703,0.647-2.229c0.433-0.529,1.024-0.793,1.776-0.793c0.768,0,1.364,0.256,1.788,0.768s0.636,1.209,0.636,2.088
				v0.396h-3.983V584.277z M61.003,583.316c-0.008-0.09-0.019-0.168-0.03-0.24s-0.028-0.145-0.048-0.209
				c-0.021-0.068-0.046-0.145-0.078-0.225c-0.112-0.271-0.292-0.486-0.54-0.646s-0.528-0.24-0.84-0.24
				c-0.312,0-0.592,0.08-0.84,0.24s-0.428,0.377-0.54,0.646c-0.064,0.16-0.108,0.307-0.132,0.434
				c-0.024,0.129-0.04,0.312-0.048,0.553h3.119C61.019,583.507,61.011,583.404,61.003,583.316z"/>
			<path d="M67.076,587v-0.564c-0.24,0.24-0.486,0.406-0.738,0.498c-0.252,0.094-0.574,0.141-0.966,0.141
				c-0.408,0-0.742-0.041-1.002-0.125c-0.261-0.084-0.482-0.225-0.666-0.414c-0.145-0.146-0.254-0.322-0.33-0.535
				c-0.076-0.211-0.114-0.434-0.114-0.666c0-0.521,0.174-0.934,0.522-1.242c0.348-0.307,0.854-0.461,1.518-0.461h1.776v-0.562
				c0-0.434-0.116-0.758-0.349-0.975c-0.231-0.215-0.62-0.324-1.164-0.324c-0.384,0-0.684,0.053-0.899,0.15
				c-0.216,0.102-0.412,0.275-0.588,0.523l-0.589-0.541c0.265-0.346,0.559-0.576,0.883-0.695c0.323-0.121,0.726-0.18,1.206-0.18
				c0.8,0,1.394,0.166,1.781,0.498c0.389,0.332,0.582,0.818,0.582,1.469V587H67.076z M67.076,584.277H65.42
				c-0.88,0-1.32,0.348-1.32,1.043c0,0.344,0.108,0.598,0.324,0.762s0.56,0.246,1.032,0.246c0.256,0,0.494-0.021,0.714-0.062
				c0.22-0.037,0.422-0.148,0.605-0.336c0.2-0.189,0.301-0.529,0.301-1.02V584.277z"/>
			<path d="M73.927,587l-1.872-3.023l-1.152,1.32V587h-0.863v-8.543h0.863v5.711l2.664-3.072h1.08l-2.004,2.256L74.995,587H73.927z"
				/>
			<path d="M76.423,579.416v-0.971h0.972v0.971H76.423z M76.471,587v-5.904h0.864V587H76.471z"/>
			<path d="M83.287,587v-3.635c0-0.529-0.13-0.922-0.391-1.186c-0.26-0.26-0.613-0.389-1.062-0.389s-0.804,0.131-1.068,0.395
				c-0.264,0.266-0.396,0.654-0.396,1.178V587h-0.864v-5.904h0.864v0.648c0.208-0.24,0.452-0.42,0.731-0.539
				c0.28-0.121,0.588-0.18,0.924-0.18c0.641,0,1.145,0.184,1.513,0.551c0.407,0.4,0.611,0.949,0.611,1.645V587H83.287z"/>
			<path d="M90.439,588.195c-0.111,0.307-0.271,0.57-0.479,0.797c-0.208,0.225-0.466,0.398-0.774,0.525
				c-0.308,0.129-0.653,0.193-1.038,0.193c-0.224,0-0.424-0.016-0.6-0.043c-0.176-0.029-0.342-0.076-0.498-0.141
				s-0.308-0.148-0.456-0.25c-0.148-0.104-0.298-0.227-0.45-0.371l0.564-0.553c0.104,0.098,0.206,0.182,0.306,0.254
				c0.1,0.068,0.204,0.133,0.312,0.186c0.107,0.051,0.226,0.09,0.354,0.113c0.128,0.021,0.276,0.037,0.444,0.037
				c0.288,0,0.534-0.051,0.737-0.145c0.204-0.096,0.372-0.223,0.505-0.381c0.132-0.16,0.228-0.348,0.287-0.566
				c0.061-0.217,0.091-0.451,0.091-0.705v-0.916c-0.24,0.299-0.496,0.5-0.769,0.602c-0.271,0.104-0.567,0.154-0.888,0.154
				c-0.304,0-0.578-0.047-0.822-0.146c-0.244-0.096-0.446-0.223-0.605-0.383c-0.297-0.297-0.49-0.66-0.582-1.092
				c-0.093-0.436-0.139-0.889-0.139-1.369c0-0.479,0.046-0.936,0.139-1.367c0.092-0.432,0.285-0.797,0.582-1.092
				c0.159-0.16,0.363-0.287,0.611-0.379s0.524-0.137,0.828-0.137c0.328,0,0.625,0.049,0.895,0.146
				c0.268,0.104,0.521,0.309,0.762,0.619v-0.697h0.852v6.084C90.607,587.548,90.551,587.886,90.439,588.195z M89.695,583.193
				c-0.031-0.27-0.1-0.506-0.203-0.709c-0.104-0.205-0.253-0.371-0.444-0.5c-0.192-0.129-0.448-0.191-0.769-0.191
				c-0.319,0-0.577,0.062-0.773,0.191s-0.346,0.295-0.45,0.5c-0.104,0.203-0.172,0.439-0.204,0.709s-0.048,0.541-0.048,0.812
				c0,0.281,0.016,0.553,0.048,0.818c0.032,0.264,0.101,0.5,0.204,0.703c0.104,0.203,0.254,0.371,0.45,0.5s0.454,0.189,0.773,0.189
				c0.32,0,0.576-0.061,0.769-0.189c0.191-0.129,0.34-0.295,0.444-0.5c0.104-0.203,0.172-0.439,0.203-0.703
				c0.032-0.268,0.049-0.537,0.049-0.818C89.743,583.734,89.727,583.462,89.695,583.193z"/>
			<path d="M99.535,587v-3.635c0-0.529-0.131-0.922-0.391-1.186c-0.26-0.26-0.613-0.389-1.062-0.389s-0.805,0.131-1.068,0.395
				c-0.264,0.266-0.396,0.654-0.396,1.178V587h-0.864v-5.904h0.864v0.648c0.208-0.24,0.451-0.42,0.731-0.539
				c0.28-0.121,0.588-0.18,0.924-0.18c0.641,0,1.145,0.184,1.513,0.551c0.407,0.4,0.611,0.949,0.611,1.645V587H99.535z"/>
			<path d="M103.039,584.277c0,0.643,0.147,1.143,0.443,1.496s0.729,0.529,1.296,0.529c0.345,0,0.631-0.055,0.858-0.162
				c0.229-0.105,0.458-0.275,0.69-0.51l0.588,0.518c-0.152,0.15-0.303,0.285-0.45,0.398c-0.148,0.113-0.306,0.209-0.474,0.285
				c-0.168,0.078-0.354,0.137-0.559,0.178s-0.43,0.062-0.678,0.062c-0.393,0-0.746-0.062-1.062-0.184
				c-0.315-0.117-0.586-0.303-0.81-0.551s-0.398-0.562-0.522-0.939c-0.124-0.379-0.186-0.83-0.186-1.354
				c0-0.959,0.216-1.703,0.648-2.229c0.432-0.529,1.023-0.793,1.775-0.793c0.769,0,1.364,0.256,1.788,0.768s0.636,1.209,0.636,2.088
				v0.396h-3.983V584.277z M106.135,583.316c-0.008-0.09-0.018-0.168-0.03-0.24c-0.012-0.072-0.027-0.145-0.048-0.209
				c-0.02-0.068-0.046-0.145-0.078-0.225c-0.111-0.271-0.292-0.486-0.54-0.646s-0.527-0.24-0.84-0.24c-0.312,0-0.592,0.08-0.84,0.24
				s-0.428,0.377-0.54,0.646c-0.064,0.16-0.108,0.307-0.132,0.434c-0.024,0.129-0.04,0.312-0.048,0.553h3.12
				C106.151,583.507,106.143,583.404,106.135,583.316z"/>
			<path d="M114.415,587h-0.805l-1.548-4.584L110.527,587h-0.804l-1.872-5.904h0.937l1.355,4.74l1.548-4.74h0.744l1.561,4.74
				l1.344-4.74h0.936L114.415,587z"/>
			<path d="M121.573,586.035c-0.116,0.219-0.28,0.408-0.492,0.561c-0.212,0.156-0.464,0.275-0.756,0.355s-0.618,0.119-0.979,0.119
				c-0.504,0-0.952-0.064-1.344-0.191c-0.393-0.129-0.752-0.348-1.08-0.66l0.576-0.576c0.231,0.248,0.504,0.426,0.815,0.527
				c0.312,0.105,0.652,0.156,1.021,0.156c0.488,0,0.872-0.086,1.151-0.258c0.28-0.172,0.421-0.436,0.421-0.785
				c0-0.256-0.078-0.457-0.234-0.604c-0.156-0.143-0.406-0.229-0.75-0.264l-0.972-0.084c-0.576-0.047-1.015-0.201-1.314-0.461
				s-0.45-0.635-0.45-1.123c0-0.27,0.055-0.514,0.162-0.725c0.108-0.213,0.258-0.395,0.45-0.541
				c0.192-0.148,0.422-0.264,0.689-0.344c0.269-0.078,0.559-0.117,0.87-0.117c0.425,0,0.818,0.051,1.183,0.152
				c0.363,0.105,0.678,0.268,0.941,0.48l-0.563,0.562c-0.208-0.16-0.446-0.275-0.714-0.354c-0.269-0.078-0.555-0.115-0.858-0.115
				c-0.432,0-0.76,0.086-0.984,0.258c-0.224,0.174-0.336,0.41-0.336,0.715c0,0.258,0.078,0.455,0.234,0.602
				c0.156,0.145,0.422,0.23,0.798,0.264l0.948,0.084c0.256,0.025,0.492,0.068,0.708,0.133s0.4,0.16,0.552,0.287
				c0.152,0.129,0.271,0.289,0.354,0.48c0.084,0.189,0.126,0.424,0.126,0.695C121.747,585.56,121.688,585.814,121.573,586.035z"/>
			<path d="M126.259,584.167v-0.803h3.288v0.803H126.259z"/>
			<path d="M134.682,587v-8.543h0.912v7.727h4.368V587H134.682z"/>
			<path d="M144.75,587v-0.564c-0.24,0.24-0.486,0.406-0.738,0.498c-0.252,0.094-0.574,0.141-0.966,0.141
				c-0.408,0-0.742-0.041-1.002-0.125s-0.482-0.225-0.666-0.414c-0.145-0.146-0.254-0.322-0.33-0.535
				c-0.076-0.211-0.114-0.434-0.114-0.666c0-0.521,0.174-0.934,0.522-1.242c0.348-0.307,0.854-0.461,1.518-0.461h1.776v-0.562
				c0-0.434-0.116-0.758-0.349-0.975c-0.231-0.215-0.619-0.324-1.164-0.324c-0.384,0-0.684,0.053-0.899,0.15
				c-0.216,0.102-0.412,0.275-0.588,0.523l-0.588-0.541c0.264-0.346,0.558-0.576,0.882-0.695c0.324-0.121,0.726-0.18,1.206-0.18
				c0.8,0,1.394,0.166,1.782,0.498c0.388,0.332,0.581,0.818,0.581,1.469V587H144.75z M144.75,584.277h-1.656
				c-0.88,0-1.32,0.348-1.32,1.043c0,0.344,0.108,0.598,0.324,0.762s0.561,0.246,1.032,0.246c0.256,0,0.494-0.021,0.714-0.062
				c0.22-0.037,0.422-0.148,0.606-0.336c0.199-0.189,0.3-0.529,0.3-1.02V584.277z"/>
			<path d="M155.365,584.744c-0.021,0.23-0.057,0.459-0.108,0.678c-0.052,0.221-0.124,0.426-0.216,0.619
				c-0.092,0.191-0.214,0.363-0.366,0.516c-0.16,0.16-0.364,0.285-0.612,0.377c-0.248,0.094-0.523,0.141-0.828,0.141
				c-0.328,0-0.628-0.055-0.899-0.156c-0.272-0.104-0.528-0.312-0.769-0.623V587h-0.863v-8.543h0.863v3.324
				c0.24-0.307,0.496-0.506,0.769-0.607c0.271-0.1,0.572-0.146,0.899-0.146c0.305,0,0.58,0.045,0.828,0.137s0.452,0.219,0.612,0.379
				c0.152,0.152,0.274,0.324,0.366,0.516s0.164,0.398,0.216,0.617c0.052,0.221,0.088,0.447,0.108,0.678
				c0.02,0.232,0.029,0.467,0.029,0.697S155.384,584.511,155.365,584.744z M154.482,583.208c-0.031-0.271-0.1-0.512-0.204-0.721
				c-0.104-0.207-0.254-0.375-0.449-0.504c-0.196-0.127-0.454-0.191-0.774-0.191s-0.578,0.064-0.774,0.191
				c-0.195,0.129-0.346,0.297-0.449,0.504c-0.104,0.209-0.174,0.447-0.21,0.721c-0.036,0.271-0.055,0.551-0.055,0.84
				c0,0.287,0.019,0.568,0.055,0.84c0.035,0.271,0.105,0.514,0.21,0.723c0.104,0.207,0.254,0.375,0.449,0.504
				c0.196,0.127,0.454,0.189,0.774,0.189s0.578-0.062,0.774-0.189c0.195-0.129,0.346-0.297,0.449-0.504
				c0.104-0.209,0.173-0.449,0.204-0.723c0.032-0.271,0.048-0.553,0.048-0.84C154.53,583.759,154.514,583.48,154.482,583.208z"/>
			<path d="M157.194,579.416v-0.971h0.973v0.971H157.194z M157.242,587v-5.904h0.863V587H157.242z"/>
			<path d="M161.052,588.681c-0.06,0.191-0.152,0.361-0.276,0.51c-0.124,0.145-0.279,0.26-0.468,0.342
				c-0.188,0.08-0.41,0.121-0.666,0.121h-0.624v-0.77h0.468c0.305,0,0.513-0.072,0.624-0.217c0.112-0.143,0.168-0.359,0.168-0.648
				v-6.896h0.864v6.936C161.142,588.281,161.112,588.488,161.052,588.681z M160.23,579.416v-0.971h0.973v0.971H160.23z"/>
			<path d="M167.688,585.337c-0.092,0.404-0.286,0.758-0.582,1.062c-0.208,0.209-0.452,0.373-0.731,0.49
				c-0.28,0.119-0.601,0.182-0.96,0.182c-0.36,0-0.681-0.062-0.96-0.182c-0.28-0.117-0.524-0.281-0.732-0.49
				c-0.152-0.152-0.273-0.318-0.366-0.498c-0.092-0.182-0.164-0.367-0.216-0.564c-0.052-0.195-0.088-0.402-0.107-0.617
				c-0.021-0.217-0.03-0.438-0.03-0.672c0-0.225,0.01-0.443,0.03-0.666c0.02-0.221,0.056-0.428,0.107-0.625
				c0.052-0.195,0.124-0.383,0.216-0.561c0.093-0.184,0.214-0.35,0.366-0.498c0.208-0.209,0.452-0.373,0.732-0.492
				c0.279-0.121,0.6-0.18,0.96-0.18c0.359,0,0.68,0.059,0.96,0.18c0.279,0.119,0.523,0.283,0.731,0.492
				c0.296,0.303,0.49,0.658,0.582,1.061c0.092,0.404,0.139,0.834,0.139,1.291C167.826,584.505,167.78,584.935,167.688,585.337z
				 M166.95,583.544c-0.009-0.168-0.028-0.332-0.061-0.492s-0.08-0.311-0.144-0.451c-0.064-0.139-0.148-0.266-0.252-0.377
				c-0.288-0.289-0.648-0.432-1.08-0.432c-0.424,0-0.78,0.143-1.068,0.432c-0.112,0.111-0.198,0.238-0.258,0.377
				c-0.061,0.143-0.108,0.291-0.145,0.451c-0.035,0.16-0.058,0.324-0.065,0.492s-0.012,0.336-0.012,0.504s0.004,0.336,0.012,0.504
				s0.03,0.332,0.065,0.492c0.036,0.16,0.084,0.312,0.145,0.455c0.06,0.146,0.146,0.271,0.258,0.373
				c0.288,0.287,0.645,0.432,1.068,0.432c0.432,0,0.792-0.145,1.08-0.432c0.104-0.105,0.188-0.23,0.252-0.373
				c0.063-0.143,0.111-0.295,0.144-0.455s0.052-0.324,0.061-0.492c0.008-0.168,0.012-0.336,0.012-0.504
				S166.958,583.712,166.95,583.544z"/>
			<path d="M173.394,587v-0.66c-0.207,0.24-0.453,0.422-0.734,0.547c-0.283,0.123-0.593,0.188-0.928,0.188
				c-0.646,0-1.151-0.186-1.519-0.553c-0.208-0.207-0.359-0.449-0.455-0.727s-0.144-0.586-0.144-0.93v-3.771h0.863v3.639
				c0,0.525,0.127,0.922,0.382,1.182c0.256,0.26,0.605,0.391,1.053,0.391c0.446,0,0.803-0.133,1.069-0.396
				c0.268-0.266,0.4-0.656,0.4-1.176v-3.639h0.876V587H173.394z"/>
			<path d="M178.074,587c-0.257,0-0.479-0.041-0.666-0.125c-0.188-0.084-0.345-0.199-0.469-0.342
				c-0.124-0.146-0.218-0.312-0.281-0.504c-0.064-0.193-0.097-0.396-0.097-0.613v-3.623h-0.744v-0.66h0.744v-1.848h0.864v1.848h1.26
				v0.66h-1.26v3.6c0,0.271,0.064,0.484,0.192,0.639c0.128,0.148,0.332,0.227,0.611,0.227h0.456V587H178.074z"/>
			<path d="M180.846,584.277c0,0.643,0.148,1.143,0.444,1.496s0.728,0.529,1.296,0.529c0.344,0,0.63-0.055,0.857-0.162
				c0.229-0.105,0.458-0.275,0.69-0.51l0.588,0.518c-0.152,0.15-0.302,0.285-0.45,0.398c-0.147,0.113-0.306,0.209-0.474,0.285
				c-0.168,0.078-0.354,0.137-0.558,0.178c-0.204,0.041-0.431,0.062-0.679,0.062c-0.392,0-0.746-0.062-1.062-0.184
				c-0.316-0.117-0.586-0.303-0.811-0.551c-0.224-0.248-0.397-0.562-0.521-0.939c-0.124-0.379-0.187-0.83-0.187-1.354
				c0-0.959,0.217-1.703,0.648-2.229c0.432-0.529,1.023-0.793,1.776-0.793c0.768,0,1.363,0.256,1.787,0.768
				c0.425,0.512,0.637,1.209,0.637,2.088v0.396h-3.984V584.277z M183.941,583.316c-0.008-0.09-0.018-0.168-0.029-0.24
				c-0.013-0.072-0.028-0.145-0.049-0.209c-0.02-0.068-0.046-0.145-0.077-0.225c-0.112-0.271-0.292-0.486-0.54-0.646
				s-0.528-0.24-0.841-0.24c-0.312,0-0.592,0.08-0.84,0.24s-0.428,0.377-0.54,0.646c-0.063,0.16-0.107,0.307-0.132,0.434
				c-0.023,0.129-0.04,0.312-0.048,0.553h3.12C183.958,583.507,183.949,583.404,183.941,583.316z"/>
			<path d="M189.966,582.224c-0.16-0.158-0.312-0.271-0.456-0.336c-0.144-0.062-0.332-0.096-0.564-0.096
				c-0.216,0-0.411,0.039-0.588,0.119c-0.176,0.08-0.323,0.189-0.443,0.336c-0.12,0.145-0.214,0.312-0.282,0.504
				c-0.068,0.193-0.102,0.4-0.102,0.625V587h-0.864v-5.904h0.864v0.723c0.159-0.248,0.39-0.441,0.689-0.582
				c0.3-0.143,0.622-0.209,0.966-0.209c0.28,0,0.534,0.039,0.763,0.117c0.228,0.08,0.445,0.227,0.653,0.434L189.966,582.224z"/>
			<path d="M191.67,579.416v-0.971h0.972v0.971H191.67z M191.718,587v-5.904h0.864V587H191.718z"/>
			<path d="M195.294,584.277c0,0.643,0.147,1.143,0.443,1.496c0.297,0.354,0.729,0.529,1.297,0.529c0.344,0,0.63-0.055,0.857-0.162
				c0.229-0.105,0.458-0.275,0.69-0.51l0.588,0.518c-0.152,0.15-0.302,0.285-0.45,0.398c-0.147,0.113-0.306,0.209-0.474,0.285
				c-0.168,0.078-0.354,0.137-0.559,0.178s-0.43,0.062-0.678,0.062c-0.392,0-0.746-0.062-1.062-0.184
				c-0.316-0.117-0.587-0.303-0.811-0.551s-0.397-0.562-0.521-0.939c-0.124-0.379-0.187-0.83-0.187-1.354
				c0-0.959,0.216-1.703,0.648-2.229c0.432-0.529,1.023-0.793,1.775-0.793c0.769,0,1.364,0.256,1.788,0.768s0.636,1.209,0.636,2.088
				v0.396h-3.983V584.277z M198.39,583.316c-0.008-0.09-0.018-0.168-0.03-0.24c-0.012-0.072-0.027-0.145-0.048-0.209
				c-0.02-0.068-0.046-0.145-0.078-0.225c-0.111-0.271-0.292-0.486-0.54-0.646s-0.527-0.24-0.84-0.24c-0.312,0-0.592,0.08-0.84,0.24
				s-0.428,0.377-0.54,0.646c-0.063,0.16-0.107,0.307-0.132,0.434c-0.024,0.129-0.04,0.312-0.048,0.553h3.12
				C198.406,583.507,198.397,583.404,198.39,583.316z"/>
			<path d="M210.666,587v-6.492l-2.34,5.148h-0.78l-2.376-5.148V587h-0.912v-8.543h0.912l2.784,6.059l2.712-6.059h0.912V587H210.666
				z"/>
			<path d="M217.193,582.224c-0.159-0.158-0.312-0.271-0.456-0.336c-0.144-0.062-0.332-0.096-0.563-0.096
				c-0.216,0-0.412,0.039-0.588,0.119s-0.324,0.189-0.444,0.336c-0.12,0.145-0.214,0.312-0.282,0.504
				c-0.067,0.193-0.102,0.4-0.102,0.625V587h-0.864v-5.904h0.864v0.723c0.16-0.248,0.39-0.441,0.69-0.582
				c0.3-0.143,0.621-0.209,0.966-0.209c0.279,0,0.534,0.039,0.762,0.117c0.228,0.08,0.446,0.227,0.654,0.434L217.193,582.224z"/>
			<path d="M227.765,587l-0.768-0.936c-0.088,0.08-0.204,0.178-0.349,0.295c-0.144,0.113-0.319,0.225-0.527,0.33
				c-0.208,0.104-0.448,0.191-0.721,0.27c-0.271,0.078-0.58,0.113-0.924,0.113c-0.416,0-0.79-0.062-1.122-0.182
				c-0.332-0.117-0.615-0.287-0.852-0.504s-0.416-0.477-0.54-0.777c-0.124-0.307-0.187-0.646-0.187-1.021
				c0-0.32,0.053-0.604,0.156-0.852c0.104-0.248,0.242-0.475,0.414-0.672c0.172-0.201,0.37-0.385,0.594-0.549
				c0.225-0.162,0.452-0.324,0.685-0.484c-0.104-0.127-0.21-0.26-0.318-0.396c-0.107-0.135-0.208-0.277-0.3-0.432
				c-0.092-0.152-0.166-0.314-0.222-0.486c-0.057-0.172-0.084-0.354-0.084-0.545c0-0.256,0.046-0.492,0.138-0.709
				c0.092-0.215,0.223-0.402,0.392-0.561c0.168-0.16,0.369-0.287,0.603-0.379c0.232-0.094,0.484-0.141,0.758-0.141
				c0.265,0,0.512,0.047,0.741,0.141c0.229,0.092,0.427,0.219,0.596,0.379c0.169,0.158,0.299,0.35,0.391,0.566
				c0.093,0.223,0.14,0.459,0.14,0.715c0,0.346-0.09,0.641-0.271,0.885c-0.18,0.242-0.405,0.457-0.678,0.641
				c-0.008,0.008-0.048,0.035-0.12,0.078c-0.072,0.045-0.16,0.102-0.264,0.174c-0.104,0.072-0.188,0.133-0.252,0.18l2.172,2.629
				c0.088-0.129,0.162-0.258,0.222-0.391c0.061-0.131,0.108-0.271,0.145-0.426s0.063-0.32,0.084-0.504
				c0.02-0.186,0.029-0.396,0.029-0.639h0.864c-0.008,0.545-0.072,1.033-0.191,1.467c-0.12,0.432-0.32,0.814-0.601,1.15l1.309,1.572
				H227.765L227.765,587z M224.129,582.609c-0.185,0.127-0.364,0.256-0.54,0.383c-0.176,0.129-0.332,0.268-0.468,0.42
				c-0.137,0.15-0.246,0.322-0.33,0.51c-0.084,0.189-0.126,0.402-0.126,0.643c0,0.258,0.044,0.488,0.132,0.695
				c0.088,0.209,0.212,0.389,0.372,0.541s0.35,0.27,0.57,0.348c0.22,0.08,0.462,0.119,0.726,0.119c0.32,0,0.644-0.055,0.972-0.168
				c0.328-0.109,0.676-0.33,1.044-0.658L224.129,582.609z M225.305,579.447c-0.192-0.197-0.432-0.295-0.72-0.295
				c-0.296,0-0.534,0.094-0.714,0.279c-0.181,0.189-0.271,0.43-0.271,0.717c0,0.197,0.059,0.396,0.174,0.594
				c0.116,0.195,0.314,0.467,0.595,0.811c0.048-0.031,0.109-0.074,0.186-0.127c0.076-0.051,0.138-0.094,0.187-0.125
				c0.048-0.031,0.075-0.053,0.084-0.061c0.199-0.135,0.378-0.285,0.533-0.449c0.156-0.164,0.234-0.371,0.234-0.619
				C225.593,579.884,225.497,579.642,225.305,579.447z"/>
			<path d="M240.353,587v-6.492l-2.34,5.148h-0.78l-2.376-5.148V587h-0.912v-8.543h0.912l2.784,6.059l2.712-6.059h0.912V587H240.353
				z"/>
			<path d="M246.881,582.224c-0.16-0.158-0.312-0.271-0.456-0.336c-0.144-0.062-0.332-0.096-0.564-0.096
				c-0.216,0-0.411,0.039-0.588,0.119c-0.176,0.08-0.323,0.189-0.443,0.336c-0.12,0.145-0.214,0.312-0.282,0.504
				c-0.068,0.193-0.103,0.4-0.103,0.625V587h-0.863v-5.904h0.863v0.723c0.16-0.248,0.391-0.441,0.69-0.582
				c0.3-0.143,0.622-0.209,0.966-0.209c0.28,0,0.534,0.039,0.762,0.117c0.229,0.08,0.446,0.227,0.654,0.434L246.881,582.224z"/>
			<path d="M252.599,586.035c-0.116,0.219-0.28,0.408-0.492,0.561c-0.212,0.156-0.464,0.275-0.756,0.355s-0.618,0.119-0.978,0.119
				c-0.504,0-0.952-0.064-1.345-0.191c-0.392-0.129-0.752-0.348-1.079-0.66l0.575-0.576c0.232,0.248,0.504,0.426,0.816,0.527
				c0.312,0.105,0.652,0.156,1.02,0.156c0.488,0,0.872-0.086,1.152-0.258s0.42-0.436,0.42-0.785c0-0.256-0.078-0.457-0.233-0.604
				c-0.156-0.143-0.406-0.229-0.75-0.264l-0.973-0.084c-0.576-0.047-1.014-0.201-1.313-0.461s-0.45-0.635-0.45-1.123
				c0-0.27,0.054-0.514,0.162-0.725c0.107-0.213,0.258-0.395,0.45-0.541c0.191-0.148,0.422-0.264,0.689-0.344
				c0.269-0.078,0.559-0.117,0.87-0.117c0.424,0,0.818,0.051,1.182,0.152c0.364,0.105,0.679,0.268,0.942,0.48l-0.564,0.562
				c-0.208-0.16-0.445-0.275-0.714-0.354c-0.268-0.078-0.554-0.115-0.857-0.115c-0.433,0-0.76,0.086-0.984,0.258
				c-0.224,0.174-0.336,0.41-0.336,0.715c0,0.258,0.078,0.455,0.234,0.602c0.155,0.145,0.422,0.23,0.798,0.264l0.948,0.084
				c0.256,0.025,0.491,0.068,0.708,0.133c0.216,0.064,0.399,0.16,0.552,0.287c0.151,0.129,0.27,0.289,0.354,0.48
				c0.084,0.189,0.126,0.424,0.126,0.695C252.773,585.56,252.715,585.814,252.599,586.035z"/>
			<path d="M77.929,600.435c-0.116,0.221-0.28,0.408-0.492,0.562c-0.212,0.156-0.464,0.273-0.756,0.354
				c-0.292,0.082-0.618,0.121-0.978,0.121c-0.504,0-0.952-0.062-1.345-0.191c-0.392-0.127-0.752-0.35-1.08-0.66l0.576-0.576
				c0.232,0.248,0.504,0.426,0.816,0.529c0.312,0.102,0.652,0.156,1.02,0.156c0.488,0,0.872-0.088,1.152-0.26s0.42-0.436,0.42-0.787
				c0-0.256-0.078-0.453-0.234-0.6c-0.155-0.145-0.405-0.232-0.75-0.264l-0.972-0.084c-0.576-0.049-1.014-0.203-1.313-0.463
				c-0.301-0.262-0.45-0.635-0.45-1.121c0-0.271,0.054-0.516,0.162-0.729c0.107-0.211,0.258-0.393,0.449-0.539
				c0.192-0.146,0.423-0.264,0.69-0.344c0.268-0.078,0.558-0.119,0.87-0.119c0.424,0,0.818,0.053,1.182,0.156
				c0.364,0.104,0.679,0.264,0.942,0.479l-0.564,0.562c-0.208-0.158-0.445-0.277-0.714-0.354c-0.268-0.076-0.554-0.113-0.857-0.113
				c-0.433,0-0.761,0.086-0.984,0.258c-0.224,0.174-0.336,0.41-0.336,0.715c0,0.256,0.078,0.455,0.234,0.602
				c0.155,0.145,0.422,0.23,0.798,0.264l0.947,0.084c0.257,0.023,0.492,0.068,0.708,0.133c0.217,0.062,0.4,0.16,0.553,0.287
				c0.151,0.129,0.27,0.289,0.354,0.48c0.084,0.189,0.126,0.424,0.126,0.695C78.103,599.96,78.045,600.214,77.929,600.435z"/>
			<path d="M79.195,594.812v-1.955h1.044v1.008L79.195,594.812z"/>
			<path d="M82.915,598.677c0,0.645,0.147,1.145,0.443,1.496c0.296,0.355,0.729,0.531,1.296,0.531c0.345,0,0.631-0.055,0.858-0.162
				c0.229-0.107,0.458-0.277,0.69-0.51l0.588,0.516c-0.152,0.152-0.303,0.287-0.45,0.4c-0.148,0.113-0.306,0.209-0.474,0.285
				c-0.168,0.078-0.354,0.137-0.559,0.178s-0.43,0.061-0.678,0.061c-0.392,0-0.746-0.061-1.062-0.18
				c-0.315-0.119-0.586-0.305-0.81-0.553s-0.398-0.562-0.522-0.941s-0.186-0.83-0.186-1.35c0-0.961,0.216-1.705,0.648-2.232
				c0.432-0.525,1.023-0.791,1.775-0.791c0.769,0,1.364,0.256,1.788,0.77c0.424,0.512,0.636,1.207,0.636,2.088v0.395H82.915
				L82.915,598.677z M86.011,597.716c-0.008-0.088-0.018-0.168-0.03-0.24c-0.012-0.07-0.027-0.143-0.048-0.209
				c-0.02-0.066-0.046-0.143-0.078-0.223c-0.111-0.271-0.292-0.488-0.54-0.648c-0.248-0.158-0.527-0.238-0.84-0.238
				c-0.312,0-0.592,0.08-0.84,0.238c-0.248,0.16-0.428,0.379-0.54,0.648c-0.063,0.16-0.108,0.305-0.132,0.432
				c-0.024,0.129-0.04,0.312-0.048,0.555h3.12C86.027,597.908,86.019,597.804,86.011,597.716z"/>
			<path d="M92.821,600.435c-0.115,0.221-0.279,0.408-0.491,0.562c-0.212,0.156-0.464,0.273-0.756,0.354
				c-0.292,0.082-0.618,0.121-0.979,0.121c-0.504,0-0.952-0.062-1.344-0.191c-0.393-0.127-0.752-0.35-1.08-0.66l0.576-0.576
				c0.231,0.248,0.504,0.426,0.815,0.529c0.312,0.102,0.652,0.156,1.021,0.156c0.487,0,0.872-0.088,1.151-0.26
				c0.28-0.172,0.42-0.436,0.42-0.787c0-0.256-0.077-0.453-0.233-0.6c-0.156-0.145-0.406-0.232-0.75-0.264l-0.972-0.084
				c-0.576-0.049-1.015-0.203-1.314-0.463c-0.3-0.262-0.45-0.635-0.45-1.121c0-0.271,0.054-0.516,0.162-0.729
				c0.108-0.211,0.258-0.393,0.45-0.539c0.191-0.146,0.422-0.264,0.689-0.344c0.269-0.078,0.559-0.119,0.87-0.119
				c0.425,0,0.818,0.053,1.183,0.156c0.363,0.104,0.678,0.264,0.941,0.479l-0.563,0.562c-0.208-0.158-0.446-0.277-0.714-0.354
				c-0.269-0.076-0.555-0.113-0.858-0.113c-0.432,0-0.76,0.086-0.984,0.258c-0.224,0.174-0.336,0.41-0.336,0.715
				c0,0.256,0.078,0.455,0.234,0.602c0.156,0.145,0.422,0.23,0.798,0.264l0.948,0.084c0.256,0.023,0.492,0.068,0.708,0.133
				c0.216,0.062,0.399,0.16,0.552,0.287c0.152,0.129,0.271,0.289,0.354,0.48c0.084,0.189,0.126,0.424,0.126,0.695
				C92.995,599.96,92.937,600.214,92.821,600.435z"/>
			<path d="M96.223,601.4c-0.256,0-0.478-0.041-0.666-0.125c-0.188-0.084-0.344-0.199-0.468-0.344s-0.218-0.312-0.282-0.504
				c-0.063-0.191-0.096-0.396-0.096-0.611v-3.623h-0.744v-0.66h0.744v-1.85h0.864v1.85h1.26v0.66h-1.26v3.6
				c0,0.271,0.063,0.484,0.191,0.637c0.128,0.15,0.332,0.229,0.612,0.229h0.456v0.744L96.223,601.4L96.223,601.4z"/>
			<path d="M102.595,596.193v5.207h-0.864v-5.207h-0.756v-0.66h0.756v-1.117c0-0.215,0.03-0.42,0.09-0.611
				c0.061-0.189,0.154-0.357,0.282-0.504c0.128-0.145,0.284-0.258,0.468-0.342c0.185-0.084,0.404-0.127,0.66-0.127h0.624v0.744
				h-0.468c-0.28,0-0.482,0.076-0.605,0.229c-0.124,0.152-0.187,0.365-0.187,0.639v1.092h1.26v0.66L102.595,596.193L102.595,596.193
				z"/>
			<path d="M108.427,601.4v-0.564c-0.24,0.24-0.486,0.406-0.738,0.498s-0.573,0.139-0.966,0.139c-0.408,0-0.742-0.041-1.002-0.125
				s-0.482-0.223-0.666-0.414c-0.144-0.145-0.254-0.32-0.33-0.533s-0.114-0.436-0.114-0.666c0-0.521,0.175-0.936,0.522-1.242
				c0.348-0.309,0.854-0.461,1.518-0.461h1.776v-0.564c0-0.432-0.116-0.756-0.348-0.973c-0.232-0.215-0.62-0.324-1.164-0.324
				c-0.384,0-0.685,0.051-0.9,0.15c-0.216,0.102-0.412,0.273-0.588,0.521l-0.588-0.541c0.264-0.344,0.558-0.576,0.882-0.693
				c0.324-0.121,0.726-0.182,1.206-0.182c0.8,0,1.394,0.166,1.782,0.498c0.388,0.332,0.582,0.82,0.582,1.469v4.01L108.427,601.4
				L108.427,601.4z M108.427,598.677h-1.656c-0.88,0-1.319,0.35-1.319,1.043c0,0.346,0.107,0.6,0.323,0.764
				c0.217,0.164,0.561,0.244,1.032,0.244c0.256,0,0.494-0.02,0.714-0.061c0.221-0.039,0.422-0.15,0.606-0.336
				c0.2-0.191,0.3-0.531,0.3-1.02V598.677z"/>
			<path d="M111.343,593.816v-0.973h0.972v0.973H111.343z M111.391,601.4v-5.904h0.864v5.904H111.391z"/>
			<path d="M116.082,601.4c-0.256,0-0.479-0.041-0.666-0.125c-0.188-0.084-0.345-0.199-0.468-0.344
				c-0.124-0.145-0.219-0.312-0.282-0.504c-0.064-0.191-0.097-0.396-0.097-0.611v-3.623h-0.743v-0.66h0.743v-1.85h0.864v1.85h1.26
				v0.66h-1.26v3.6c0,0.271,0.064,0.484,0.192,0.637c0.128,0.15,0.332,0.229,0.611,0.229h0.456v0.744L116.082,601.4L116.082,601.4z"
				/>
			<path d="M124.74,601.281c-0.292,0.127-0.643,0.189-1.051,0.189c-0.376,0-0.722-0.061-1.038-0.186
				c-0.315-0.125-0.592-0.312-0.827-0.564c-0.236-0.25-0.421-0.566-0.553-0.945c-0.132-0.381-0.197-0.822-0.197-1.326
				s0.065-0.943,0.197-1.32c0.132-0.375,0.316-0.688,0.553-0.941c0.235-0.252,0.512-0.441,0.827-0.568
				c0.316-0.129,0.662-0.191,1.038-0.191c0.408,0,0.759,0.062,1.051,0.191c0.292,0.127,0.59,0.354,0.894,0.684l-0.588,0.553
				c-0.225-0.246-0.437-0.42-0.636-0.518c-0.2-0.096-0.44-0.143-0.721-0.143c-0.288,0-0.548,0.055-0.779,0.168
				c-0.232,0.109-0.429,0.277-0.589,0.504c-0.136,0.189-0.233,0.41-0.294,0.652c-0.06,0.244-0.09,0.555-0.09,0.932
				c0,0.375,0.03,0.686,0.09,0.93c0.061,0.244,0.158,0.463,0.294,0.654c0.16,0.225,0.356,0.393,0.589,0.504
				c0.231,0.111,0.491,0.168,0.779,0.168c0.28,0,0.521-0.051,0.721-0.148c0.199-0.102,0.411-0.273,0.636-0.521l0.588,0.562
				C125.33,600.925,125.032,601.152,124.74,601.281z"/>
			<path d="M130.482,601.4v-0.564c-0.239,0.24-0.485,0.406-0.737,0.498s-0.574,0.139-0.967,0.139c-0.407,0-0.741-0.041-1.002-0.125
				c-0.26-0.084-0.481-0.223-0.666-0.414c-0.144-0.145-0.254-0.32-0.33-0.533c-0.075-0.213-0.113-0.436-0.113-0.666
				c0-0.521,0.174-0.936,0.521-1.242c0.349-0.309,0.854-0.461,1.519-0.461h1.775v-0.564c0-0.432-0.115-0.756-0.348-0.973
				c-0.232-0.215-0.62-0.324-1.164-0.324c-0.384,0-0.684,0.051-0.9,0.15c-0.216,0.102-0.411,0.273-0.588,0.521l-0.588-0.541
				c0.265-0.344,0.559-0.576,0.882-0.693c0.324-0.121,0.727-0.182,1.206-0.182c0.801,0,1.395,0.166,1.782,0.498
				s0.582,0.82,0.582,1.469v4.01L130.482,601.4L130.482,601.4z M130.482,598.677h-1.655c-0.881,0-1.32,0.35-1.32,1.043
				c0,0.346,0.107,0.6,0.324,0.764c0.216,0.164,0.56,0.244,1.031,0.244c0.257,0,0.494-0.02,0.715-0.061
				c0.22-0.039,0.422-0.15,0.605-0.336c0.2-0.191,0.3-0.531,0.3-1.02V598.677z"/>
			<path d="M141.03,601.4v-3.637c0-0.527-0.13-0.922-0.39-1.184c-0.26-0.26-0.614-0.389-1.062-0.389
				c-0.433,0-0.786,0.127-1.062,0.383c-0.275,0.256-0.414,0.621-0.414,1.092v3.732h-0.864v-3.637c0-0.527-0.13-0.922-0.39-1.184
				c-0.26-0.26-0.614-0.391-1.062-0.391c-0.448,0-0.807,0.133-1.074,0.396c-0.27,0.264-0.402,0.656-0.402,1.176v3.637h-0.864v-5.902
				h0.864v0.646c0.208-0.238,0.454-0.42,0.738-0.541c0.284-0.119,0.594-0.18,0.93-0.18c0.408,0,0.767,0.082,1.074,0.246
				s0.554,0.41,0.738,0.738c0.464-0.656,1.111-0.984,1.943-0.984c0.32,0,0.608,0.049,0.864,0.146c0.256,0.096,0.477,0.23,0.66,0.406
				c0.424,0.408,0.636,0.955,0.636,1.645v3.781h-0.863L141.03,601.4L141.03,601.4z"/>
			<path d="M148.656,599.144c-0.021,0.232-0.057,0.459-0.108,0.68s-0.124,0.426-0.216,0.619c-0.092,0.189-0.214,0.361-0.366,0.516
				c-0.16,0.16-0.364,0.285-0.612,0.377s-0.523,0.139-0.828,0.139c-0.327,0-0.628-0.053-0.899-0.154
				c-0.272-0.104-0.528-0.312-0.769-0.623v0.707h-0.863v-8.545h0.863v3.324c0.24-0.305,0.496-0.506,0.769-0.605
				c0.271-0.102,0.572-0.148,0.899-0.148c0.305,0,0.58,0.045,0.828,0.139c0.248,0.092,0.452,0.219,0.612,0.379
				c0.152,0.15,0.274,0.322,0.366,0.516c0.092,0.191,0.164,0.396,0.216,0.617s0.088,0.445,0.108,0.678
				c0.02,0.232,0.029,0.465,0.029,0.697C148.686,598.681,148.676,598.912,148.656,599.144z M147.774,597.609
				c-0.031-0.271-0.1-0.514-0.204-0.723c-0.104-0.207-0.254-0.375-0.449-0.504c-0.196-0.127-0.454-0.189-0.774-0.189
				s-0.578,0.062-0.774,0.189c-0.195,0.129-0.346,0.297-0.449,0.504c-0.104,0.209-0.174,0.449-0.21,0.723
				c-0.036,0.27-0.055,0.551-0.055,0.84c0,0.287,0.019,0.566,0.055,0.84c0.036,0.27,0.105,0.512,0.21,0.721
				c0.104,0.207,0.254,0.375,0.449,0.504c0.196,0.127,0.454,0.191,0.774,0.191s0.578-0.064,0.774-0.191
				c0.195-0.129,0.346-0.297,0.449-0.504c0.104-0.209,0.173-0.449,0.204-0.721c0.032-0.271,0.048-0.553,0.048-0.84
				C147.822,598.16,147.806,597.88,147.774,597.609z"/>
			<path d="M153.833,596.625c-0.16-0.16-0.312-0.271-0.456-0.336c-0.145-0.064-0.332-0.096-0.564-0.096
				c-0.216,0-0.412,0.039-0.588,0.119c-0.176,0.078-0.324,0.189-0.443,0.336c-0.12,0.145-0.215,0.312-0.282,0.504
				c-0.068,0.191-0.103,0.398-0.103,0.625v3.623h-0.863v-5.904h0.863v0.721c0.16-0.248,0.391-0.439,0.69-0.582
				c0.3-0.141,0.622-0.209,0.966-0.209c0.28,0,0.534,0.039,0.762,0.119c0.229,0.08,0.446,0.227,0.654,0.434L153.833,596.625z"/>
			<path d="M155.538,593.816v-0.973h0.972v0.973H155.538z M155.586,601.4v-5.904h0.864v5.904H155.586z"/>
			<path d="M162.996,599.738c-0.093,0.402-0.286,0.758-0.582,1.062c-0.208,0.207-0.452,0.371-0.732,0.49
				c-0.28,0.121-0.6,0.182-0.96,0.182s-0.68-0.061-0.96-0.182c-0.28-0.119-0.524-0.283-0.732-0.49
				c-0.151-0.15-0.273-0.316-0.365-0.498s-0.164-0.369-0.216-0.562c-0.053-0.197-0.089-0.402-0.108-0.619
				c-0.021-0.215-0.03-0.439-0.03-0.672c0-0.225,0.01-0.445,0.03-0.666c0.02-0.219,0.056-0.43,0.108-0.623
				c0.052-0.195,0.123-0.385,0.216-0.564c0.092-0.18,0.214-0.346,0.365-0.498c0.208-0.207,0.452-0.371,0.732-0.49
				s0.6-0.182,0.96-0.182s0.68,0.062,0.96,0.182s0.524,0.283,0.732,0.49c0.296,0.307,0.489,0.658,0.582,1.062
				c0.092,0.404,0.138,0.834,0.138,1.291C163.134,598.906,163.087,599.335,162.996,599.738z M162.257,597.945
				c-0.008-0.168-0.028-0.332-0.06-0.492c-0.032-0.16-0.08-0.312-0.145-0.451c-0.063-0.139-0.147-0.266-0.252-0.377
				c-0.288-0.289-0.648-0.432-1.08-0.432c-0.424,0-0.78,0.143-1.068,0.432c-0.111,0.111-0.197,0.238-0.258,0.377
				c-0.06,0.141-0.107,0.291-0.144,0.451s-0.059,0.324-0.066,0.492s-0.012,0.336-0.012,0.504s0.004,0.336,0.012,0.504
				s0.03,0.332,0.066,0.492s0.084,0.311,0.144,0.455c0.061,0.145,0.146,0.27,0.258,0.373c0.288,0.287,0.645,0.432,1.068,0.432
				c0.432,0,0.792-0.145,1.08-0.432c0.104-0.105,0.188-0.23,0.252-0.373c0.064-0.145,0.112-0.297,0.145-0.455
				c0.031-0.16,0.052-0.324,0.06-0.492s0.012-0.336,0.012-0.504S162.265,598.113,162.257,597.945z"/>
			<path d="M166.458,601.4c-0.521,0-0.9-0.15-1.141-0.449c-0.239-0.301-0.359-0.674-0.359-1.123v-6.971h0.863v6.936
				c0,0.287,0.057,0.504,0.169,0.648c0.111,0.143,0.319,0.215,0.623,0.215h0.469v0.744H166.458z"/>
			<path d="M168.786,598.677c0,0.645,0.147,1.145,0.443,1.496c0.296,0.355,0.729,0.531,1.296,0.531c0.345,0,0.631-0.055,0.858-0.162
				s0.458-0.277,0.69-0.51l0.588,0.516c-0.152,0.152-0.303,0.287-0.45,0.4c-0.148,0.113-0.306,0.209-0.475,0.285
				c-0.168,0.078-0.354,0.137-0.558,0.178s-0.43,0.061-0.678,0.061c-0.393,0-0.746-0.061-1.062-0.18
				c-0.315-0.119-0.586-0.305-0.81-0.553s-0.398-0.562-0.522-0.941s-0.186-0.83-0.186-1.35c0-0.961,0.216-1.705,0.647-2.232
				c0.433-0.525,1.024-0.791,1.776-0.791c0.769,0,1.364,0.256,1.788,0.77c0.424,0.512,0.636,1.207,0.636,2.088v0.395H168.786
				L168.786,598.677z M171.881,597.716c-0.008-0.088-0.019-0.168-0.03-0.24c-0.012-0.07-0.027-0.143-0.048-0.209
				c-0.02-0.066-0.046-0.143-0.078-0.223c-0.112-0.271-0.292-0.488-0.54-0.648c-0.248-0.158-0.527-0.238-0.84-0.238
				c-0.312,0-0.592,0.08-0.84,0.238c-0.248,0.16-0.428,0.379-0.54,0.648c-0.064,0.16-0.108,0.305-0.132,0.432
				c-0.024,0.129-0.04,0.312-0.048,0.555h3.119C171.897,597.908,171.889,597.804,171.881,597.716z"/>
			<path d="M177.905,596.625c-0.159-0.16-0.312-0.271-0.455-0.336c-0.145-0.064-0.332-0.096-0.564-0.096
				c-0.216,0-0.412,0.039-0.588,0.119c-0.176,0.078-0.324,0.189-0.444,0.336c-0.12,0.145-0.214,0.312-0.282,0.504
				c-0.067,0.191-0.102,0.398-0.102,0.625v3.623h-0.864v-5.904h0.864v0.721c0.16-0.248,0.39-0.439,0.69-0.582
				c0.3-0.141,0.622-0.209,0.966-0.209c0.28,0,0.534,0.039,0.762,0.119c0.229,0.08,0.446,0.227,0.654,0.434L177.905,596.625z"/>
			<path d="M185.987,601.281c-0.292,0.127-0.642,0.189-1.05,0.189c-0.376,0-0.722-0.061-1.038-0.186
				c-0.315-0.125-0.592-0.312-0.828-0.564c-0.235-0.25-0.42-0.566-0.552-0.945c-0.132-0.381-0.198-0.822-0.198-1.326
				s0.066-0.943,0.198-1.32c0.132-0.375,0.316-0.688,0.552-0.941c0.236-0.252,0.513-0.441,0.828-0.568
				c0.316-0.129,0.662-0.191,1.038-0.191c0.408,0,0.758,0.062,1.05,0.191c0.292,0.127,0.591,0.354,0.895,0.684l-0.588,0.553
				c-0.225-0.246-0.437-0.42-0.636-0.518c-0.2-0.096-0.44-0.143-0.721-0.143c-0.288,0-0.548,0.055-0.779,0.168
				c-0.232,0.109-0.429,0.277-0.589,0.504c-0.136,0.189-0.233,0.41-0.294,0.652c-0.06,0.244-0.09,0.555-0.09,0.932
				c0,0.375,0.03,0.686,0.09,0.93c0.061,0.244,0.158,0.463,0.294,0.654c0.16,0.225,0.356,0.393,0.589,0.504
				c0.231,0.111,0.491,0.168,0.779,0.168c0.28,0,0.521-0.051,0.721-0.148c0.199-0.102,0.411-0.273,0.636-0.521l0.588,0.562
				C186.577,600.925,186.279,601.152,185.987,601.281z"/>
			<path d="M188.885,598.677c0,0.645,0.148,1.145,0.444,1.496c0.296,0.355,0.728,0.531,1.296,0.531c0.344,0,0.63-0.055,0.857-0.162
				c0.229-0.107,0.458-0.277,0.69-0.51l0.588,0.516c-0.152,0.152-0.302,0.287-0.45,0.4c-0.147,0.113-0.306,0.209-0.474,0.285
				c-0.168,0.078-0.354,0.137-0.559,0.178c-0.203,0.041-0.43,0.061-0.678,0.061c-0.392,0-0.746-0.061-1.062-0.18
				c-0.316-0.119-0.586-0.305-0.811-0.553c-0.224-0.248-0.397-0.562-0.521-0.941s-0.187-0.83-0.187-1.35
				c0-0.961,0.216-1.705,0.648-2.232c0.432-0.525,1.023-0.791,1.775-0.791c0.769,0,1.364,0.256,1.788,0.77
				c0.425,0.512,0.637,1.207,0.637,2.088v0.395H188.885L188.885,598.677z M191.981,597.716c-0.008-0.088-0.018-0.168-0.029-0.24
				c-0.013-0.07-0.028-0.143-0.049-0.209c-0.02-0.066-0.046-0.143-0.077-0.223c-0.112-0.271-0.292-0.488-0.54-0.648
				c-0.248-0.158-0.528-0.238-0.841-0.238c-0.312,0-0.592,0.08-0.84,0.238c-0.248,0.16-0.428,0.379-0.54,0.648
				c-0.063,0.16-0.107,0.305-0.132,0.432c-0.023,0.129-0.04,0.312-0.048,0.555h3.12C191.997,597.908,191.99,597.804,191.981,597.716
				z"/>
			<path d="M205.277,601.4v-3.637c0-0.527-0.13-0.922-0.39-1.184c-0.26-0.26-0.614-0.389-1.062-0.389
				c-0.433,0-0.786,0.127-1.062,0.383s-0.414,0.621-0.414,1.092v3.732h-0.864v-3.637c0-0.527-0.13-0.922-0.39-1.184
				c-0.26-0.26-0.614-0.391-1.062-0.391c-0.448,0-0.807,0.133-1.074,0.396c-0.27,0.264-0.402,0.656-0.402,1.176v3.637h-0.864v-5.902
				h0.864v0.646c0.208-0.238,0.454-0.42,0.738-0.541c0.284-0.119,0.594-0.18,0.93-0.18c0.408,0,0.767,0.082,1.074,0.246
				s0.554,0.41,0.738,0.738c0.464-0.656,1.111-0.984,1.943-0.984c0.32,0,0.608,0.049,0.864,0.146c0.256,0.096,0.476,0.23,0.66,0.406
				c0.424,0.408,0.636,0.955,0.636,1.645v3.781h-0.864V601.4L205.277,601.4z"/>
			<path d="M211.589,601.4v-0.564c-0.24,0.24-0.486,0.406-0.738,0.498s-0.574,0.139-0.966,0.139c-0.408,0-0.742-0.041-1.002-0.125
				s-0.482-0.223-0.666-0.414c-0.144-0.145-0.254-0.32-0.33-0.533s-0.114-0.436-0.114-0.666c0-0.521,0.174-0.936,0.522-1.242
				c0.348-0.309,0.854-0.461,1.518-0.461h1.776v-0.564c0-0.432-0.116-0.756-0.348-0.973c-0.232-0.215-0.62-0.324-1.164-0.324
				c-0.385,0-0.685,0.051-0.9,0.15c-0.216,0.102-0.412,0.273-0.588,0.521l-0.588-0.541c0.264-0.344,0.558-0.576,0.882-0.693
				c0.324-0.121,0.726-0.182,1.206-0.182c0.8,0,1.394,0.166,1.782,0.498c0.388,0.332,0.582,0.82,0.582,1.469v4.01L211.589,601.4
				L211.589,601.4z M211.589,598.677h-1.656c-0.88,0-1.32,0.35-1.32,1.043c0,0.346,0.108,0.6,0.324,0.764s0.561,0.244,1.032,0.244
				c0.256,0,0.494-0.02,0.714-0.061c0.22-0.039,0.422-0.15,0.606-0.336c0.2-0.191,0.3-0.531,0.3-1.02V598.677z"/>
			<path d="M216.209,601.4c-0.256,0-0.479-0.041-0.666-0.125c-0.188-0.084-0.344-0.199-0.468-0.344s-0.219-0.312-0.282-0.504
				c-0.064-0.191-0.096-0.396-0.096-0.611v-3.623h-0.744v-0.66h0.744v-1.85h0.863v1.85h1.26v0.66h-1.26v3.6
				c0,0.271,0.064,0.484,0.192,0.637c0.128,0.15,0.332,0.229,0.612,0.229h0.455v0.744L216.209,601.4L216.209,601.4z"/>
			<path d="M218.49,593.816v-0.973h0.972v0.973H218.49z M218.537,601.4v-5.904h0.863v5.904H218.537z"/>
			<path d="M225.353,601.4v-3.637c0-0.527-0.13-0.922-0.39-1.184c-0.26-0.26-0.614-0.389-1.062-0.389
				c-0.447,0-0.804,0.131-1.067,0.395c-0.265,0.264-0.396,0.656-0.396,1.176v3.639h-0.863v-5.904h0.863v0.646
				c0.208-0.238,0.452-0.42,0.732-0.539s0.588-0.182,0.924-0.182c0.64,0,1.144,0.186,1.512,0.553c0.408,0.4,0.612,0.947,0.612,1.645
				v3.781H225.353L225.353,601.4z"/>
		</g>
	</g>
</g>
<g id="Calque_5">
	<g display="none">
		<path display="inline" fill="#92BEFF" d="M-192.107,196.672l-89.539,15.34l-101.821,135.951l120.762,122.363l3.498-39.847
			l94.45-81.054l13.729-156.398L-192.107,196.672z M-257.939,416.034l-53.359-63.742l65.383-73.231L-257.939,416.034z"/>
		
			<rect x="-258.268" y="349.054" transform="matrix(-0.9962 -0.0874 0.0874 -0.9962 -380.9161 830.4203)" display="inline" fill="#92BEFF" width="172" height="149"/>
		<path display="inline" fill="#0548A8" d="M-89.827,85.229l10.743-27.02c0,0-34.526,3.288-59.27-7.491
			c0,0-36.968,6.725-60.103-6.325l3.175,31.498L-89.827,85.229z"/>
		
			<rect x="-196.401" y="80.274" transform="matrix(-0.9962 -0.0874 0.0874 -0.9962 -293.5341 153.6896)" display="inline" width="106" height="6"/>
		<polyline display="inline" fill="#EFBB95" points="-150.659,165.957 -200.666,129.54 -200.439,155.542 -186.753,176.885 
			-187.974,190.789 -153.108,193.849 -118.242,196.91 -117.021,183.007 -99.826,164.375 -95.072,138.809 -150.659,165.957 		"/>
		<polyline display="inline" fill="#F9BA48" points="-143.663,86.263 -92.111,90.789 -95.064,138.713 -108.194,154.873 
			-132.697,167.174 -150.828,169.791 -168.559,164.026 -190.543,147.643 -200.657,129.444 -195.215,81.738 -143.663,86.263 		"/>
		<polygon display="inline" opacity="0.5" fill="#383838" enable-background="new    " points="-151.29,196.016 -151.028,193.028 
			-192.107,196.672 -191.657,196.833 		"/>
		<polygon display="inline" fill="#78B3F9" points="-187.907,190.034 -168.746,183.307 -150.038,181.754 -151.115,194.024 
			-192.107,196.672 		"/>
		<polygon display="inline" fill="#92BEFF" points="-164.758,349.426 -151.028,193.028 -111.211,203.774 -31.059,195.78 
			-26.939,244.344 -31.304,248.604 -60.686,269.139 -80.083,356.86 		"/>
		<polygon display="inline" opacity="0.5" fill="#383838" enable-background="new    " points="-151.29,196.016 -151.028,193.028 
			-111.211,203.774 -111.683,203.854 		"/>
		<polygon display="inline" fill="#78B3F9" points="-114.191,196.505 -131.887,186.542 -150.038,181.754 -151.115,194.024 
			-111.211,203.774 		"/>
		
			<line display="inline" opacity="0.5" fill="none" stroke="#383838" stroke-width="2" stroke-miterlimit="10" enable-background="new    " x1="-257.983" y1="416.532" x2="-262.705" y2="470.325"/>
		<path display="inline" fill="#92BEFF" d="M-251.424,341.819"/>
		<polyline display="inline" fill="#19151C" points="-262.337,490.433 -267.34,523.122 -91.018,538.6 -93.928,505.05 
			-262.462,490.422 		"/>
	</g>
	<g>
		<polygon fill="#FF5003" points="19.001,16.804 18.821,19.799 26.76,20.274 27.023,17.285 		"/>
		<g>
			<polygon fill="#92BEFF" points="47.785,169.069 53.742,63.774 24.497,68.292 0.508,146.201 			"/>
			<polygon display="none" fill="#92BEFF" points="-0.017,148.061 -71.992,207.789 -46.001,258.875 -26.939,244.344 46.817,171.946 
							"/>
			
				<ellipse transform="matrix(-0.8904 -0.4552 0.4552 -0.8904 -27.1479 311.2939)" fill="#92BEFF" cx="23.906" cy="158.916" rx="26.546" ry="9.599"/>
			<polygon fill="#EFBB95" points="49.742,64.391 51.354,43.152 58.777,13.9 42.969,5.274 27.406,12.923 25.83,30.874 
				33.024,42.546 29.39,67.505 			"/>
			<polygon fill="#FF5003" points="75.455,23.195 75.635,20.199 37.009,17.885 36.746,20.874 			"/>
		</g>
		<polygon opacity="0.5" fill="#383838" enable-background="new    " points="37.009,17.885 33.39,9.982 34.202,9.584 34.94,9.221 
			39.474,18.032 		"/>
	</g>
</g>
<g id="Calque_2" display="none">
	<rect x="1030" y="194" display="inline" fill="#FFFFFF" width="122" height="186"/>
	<g display="inline">
		<polyline fill="none" stroke="#000000" stroke-miterlimit="10" points="1044.693,258.25 1067.659,218.5 1113.591,218.5 
			1136.557,258.375 		"/>
		<rect x="1085" y="213" width="10" height="10"/>
		<polygon fill="none" stroke="#000000" stroke-miterlimit="10" points="1136.5,258.397 1044.5,258.25 1051.001,302 1081.75,332.5 
			1099.334,332.5 1129.334,301.755 		"/>
		<rect x="1061.5" y="264.5" fill="none" stroke="#000000" stroke-miterlimit="10" width="16" height="15"/>
		<rect x="1065" y="268" width="9" height="8"/>
		<rect x="1103.5" y="264.5" fill="none" stroke="#000000" stroke-miterlimit="10" width="16" height="15"/>
		<rect x="1107" y="268" width="9" height="8"/>
		<polyline fill="none" stroke="#000000" stroke-miterlimit="10" points="1089.875,285.375 1087,299.5 1093,299.5 		"/>
		<polyline fill="none" stroke="#020202" stroke-miterlimit="10" points="1077,316.5 1090,313 1103,316.5 		"/>
		<rect x="1058.5" y="303.875" fill="#020202" width="1.5" height="1.5"/>
		<rect x="1062.5" y="305.875" fill="#020202" width="1.5" height="1.5"/>
		<rect x="1068.5" y="309.875" fill="#020202" width="1.5" height="1.5"/>
		<rect x="1070.5" y="313.875" fill="#020202" width="1.5" height="1.5"/>
		<rect x="1073.5" y="306.875" fill="#020202" width="1.5" height="1.5"/>
		<rect x="1080.5" y="307.875" fill="#020202" width="1.5" height="1.5"/>
		<rect x="1075.5" y="310.875" fill="#020202" width="1.5" height="1.5"/>
		<rect x="1080.5" y="317.875" fill="#020202" width="1.5" height="1.5"/>
		<rect x="1085.5" y="319.875" fill="#020202" width="1.5" height="1.5"/>
		<rect x="1093.5" y="318.875" fill="#020202" width="1.5" height="1.5"/>
		<rect x="1098.5" y="318.875" fill="#020202" width="1.5" height="1.5"/>
		<rect x="1095.5" y="322.875" fill="#020202" width="1.5" height="1.5"/>
		<rect x="1085.5" y="309.875" fill="#020202" width="1.5" height="1.5"/>
		<rect x="1085.5" y="304.875" fill="#020202" width="1.5" height="1.5"/>
		<rect x="1071.5" y="299.875" fill="#020202" width="1.5" height="1.5"/>
		<rect x="1093.5" y="308.875" fill="#020202" width="1.5" height="1.5"/>
		<rect x="1098.5" y="302.875" fill="#020202" width="1.5" height="1.5"/>
		<rect x="1093.5" y="301.875" fill="#020202" width="1.5" height="1.5"/>
		<rect x="1122.5" y="304.875" fill="#020202" width="1.5" height="1.5"/>
		<rect x="1115.5" y="303.875" fill="#020202" width="1.5" height="1.5"/>
		<rect x="1120.5" y="300.875" fill="#020202" width="1.5" height="1.5"/>
		<rect x="1116.5" y="307.875" fill="#020202" width="1.5" height="1.5"/>
		<rect x="1111.5" y="305.875" fill="#020202" width="1.5" height="1.5"/>
		<rect x="1113.5" y="311.875" fill="#020202" width="1.5" height="1.5"/>
		<rect x="1108.5" y="311.875" fill="#020202" width="1.5" height="1.5"/>
		<rect x="1102.5" y="311.875" fill="#020202" width="1.5" height="1.5"/>
		<rect x="1103.5" y="307.875" fill="#020202" width="1.5" height="1.5"/>
		<rect x="1111.5" y="315.875" fill="#020202" width="1.5" height="1.5"/>
		<rect x="1103.5" y="316.875" fill="#020202" width="1.5" height="1.5"/>
		<rect x="1091.5" y="324.875" fill="#020202" width="1.5" height="1.5"/>
		<rect x="1084.5" y="323.875" fill="#020202" width="1.5" height="1.5"/>
		<rect x="1075.5" y="319.875" fill="#020202" width="1.5" height="1.5"/>
		<rect x="1066.5" y="304.875" fill="#020202" width="1.5" height="1.5"/>
	</g>
	<g display="inline">
		<path d="M1050.351,357.892l-0.684-1.932h-3.732l-0.684,1.932h-0.973l3.145-8.544h0.77l3.133,8.544H1050.351z M1047.819,350.656
			l-1.607,4.512h3.191L1047.819,350.656z"/>
		<path d="M1054.323,357.892h-0.77l-2.159-5.904h0.938l1.606,4.74l1.62-4.74h0.938L1054.323,357.892z"/>
		<path d="M1057.659,350.308v-0.973h0.972v0.973H1057.659z M1057.707,357.892v-5.904h0.864v5.904H1057.707z"/>
		<path d="M1064.828,356.925c-0.116,0.221-0.28,0.408-0.492,0.564s-0.464,0.274-0.756,0.354c-0.292,0.08-0.618,0.121-0.979,0.121
			c-0.506,0-0.951-0.064-1.346-0.192c-0.392-0.128-0.752-0.349-1.08-0.66l0.576-0.575c0.232,0.248,0.504,0.424,0.816,0.527
			c0.312,0.104,0.65,0.156,1.02,0.156c0.488,0,0.872-0.086,1.152-0.258s0.42-0.434,0.42-0.787c0-0.256-0.078-0.455-0.232-0.6
			c-0.155-0.144-0.405-0.232-0.75-0.264l-0.974-0.084c-0.576-0.048-1.014-0.202-1.312-0.462c-0.303-0.261-0.45-0.634-0.45-1.122
			c0-0.271,0.054-0.514,0.162-0.727c0.105-0.211,0.258-0.392,0.448-0.539c0.191-0.148,0.423-0.262,0.689-0.342
			s0.558-0.121,0.87-0.121c0.424,0,0.815,0.053,1.182,0.156s0.679,0.264,0.942,0.48l-0.564,0.564
			c-0.208-0.16-0.443-0.279-0.714-0.355c-0.268-0.075-0.554-0.113-0.855-0.113c-0.435,0-0.763,0.086-0.984,0.258
			c-0.223,0.172-0.336,0.41-0.336,0.715c0,0.256,0.078,0.455,0.233,0.6c0.154,0.144,0.422,0.232,0.799,0.264l0.945,0.084
			c0.258,0.023,0.492,0.068,0.709,0.133c0.218,0.062,0.399,0.159,0.554,0.287c0.149,0.129,0.27,0.288,0.354,0.48
			c0.084,0.191,0.126,0.424,0.126,0.695C1065.002,356.453,1064.945,356.707,1064.828,356.925z"/>
		<path d="M1073.198,357.892v-0.708c-0.239,0.312-0.496,0.521-0.771,0.624c-0.273,0.104-0.576,0.156-0.901,0.156
			c-0.305,0-0.578-0.047-0.825-0.139s-0.45-0.218-0.61-0.377c-0.149-0.152-0.271-0.324-0.363-0.517s-0.163-0.397-0.217-0.618
			c-0.052-0.221-0.088-0.445-0.105-0.678c-0.021-0.232-0.03-0.465-0.03-0.696s0.011-0.464,0.03-0.696
			c0.021-0.232,0.056-0.457,0.107-0.678c0.053-0.221,0.123-0.426,0.217-0.618c0.092-0.192,0.214-0.364,0.365-0.516
			c0.158-0.16,0.362-0.286,0.61-0.378s0.523-0.139,0.828-0.139c0.328,0,0.628,0.051,0.899,0.15c0.271,0.1,0.527,0.303,0.769,0.605
			l-0.012-3.324h0.875v8.545H1073.198z M1073.139,354.1c-0.03-0.272-0.1-0.513-0.203-0.72c-0.103-0.209-0.253-0.375-0.446-0.504
			c-0.195-0.129-0.452-0.192-0.771-0.192c-0.317,0-0.576,0.063-0.771,0.192c-0.195,0.127-0.346,0.295-0.448,0.504
			c-0.103,0.207-0.173,0.447-0.209,0.72s-0.054,0.552-0.054,0.84s0.018,0.567,0.054,0.841c0.036,0.27,0.104,0.512,0.209,0.719
			c0.104,0.209,0.253,0.377,0.448,0.504c0.193,0.129,0.452,0.192,0.771,0.192c0.319,0,0.575-0.063,0.771-0.192
			c0.193-0.127,0.345-0.295,0.446-0.504c0.104-0.207,0.173-0.447,0.203-0.719c0.032-0.273,0.049-0.553,0.049-0.841
			S1073.171,354.373,1073.139,354.1z"/>
		<path d="M1076.763,355.167c0,0.646,0.147,1.145,0.444,1.498c0.296,0.354,0.728,0.531,1.296,0.531c0.344,0,0.63-0.055,0.857-0.162
			c0.229-0.109,0.458-0.279,0.688-0.511l0.588,0.517c-0.15,0.152-0.302,0.285-0.449,0.399s-0.307,0.209-0.475,0.287
			s-0.354,0.136-0.559,0.177s-0.432,0.061-0.68,0.061c-0.392,0-0.744-0.059-1.062-0.18c-0.317-0.119-0.587-0.304-0.812-0.552
			s-0.396-0.562-0.521-0.942c-0.125-0.379-0.188-0.83-0.188-1.35c0-0.96,0.217-1.704,0.647-2.232
			c0.431-0.527,1.022-0.791,1.775-0.791c0.769,0,1.362,0.256,1.788,0.768c0.424,0.512,0.636,1.208,0.636,2.088v0.396
			L1076.763,355.167L1076.763,355.167z M1079.859,354.208c-0.01-0.088-0.02-0.168-0.03-0.24c-0.012-0.072-0.027-0.143-0.048-0.211
			c-0.021-0.067-0.046-0.141-0.078-0.221c-0.111-0.272-0.292-0.488-0.54-0.648s-0.527-0.24-0.84-0.24c-0.313,0-0.592,0.08-0.84,0.24
			s-0.43,0.376-0.54,0.648c-0.063,0.16-0.107,0.303-0.132,0.432c-0.025,0.128-0.041,0.312-0.05,0.552h3.12
			C1079.875,354.4,1079.866,354.296,1079.859,354.208z"/>
		<path d="M1088.87,353.117c-0.16-0.16-0.312-0.273-0.456-0.336c-0.146-0.064-0.332-0.097-0.563-0.097
			c-0.217,0-0.411,0.04-0.588,0.12s-0.323,0.191-0.442,0.336c-0.12,0.145-0.215,0.312-0.282,0.504
			c-0.068,0.191-0.104,0.4-0.104,0.624v3.624h-0.862v-5.904h0.862v0.721c0.159-0.248,0.392-0.442,0.689-0.582
			c0.3-0.141,0.622-0.211,0.966-0.211c0.28,0,0.534,0.041,0.763,0.121c0.229,0.08,0.445,0.223,0.653,0.432L1088.87,353.117z"/>
		<path d="M1090.754,355.167c0,0.646,0.147,1.145,0.444,1.498c0.296,0.354,0.728,0.531,1.296,0.531c0.344,0,0.63-0.055,0.857-0.162
			c0.229-0.109,0.457-0.279,0.688-0.511l0.588,0.517c-0.151,0.152-0.302,0.285-0.45,0.399c-0.146,0.114-0.306,0.209-0.474,0.287
			s-0.354,0.136-0.559,0.177c-0.205,0.041-0.432,0.061-0.68,0.061c-0.392,0-0.745-0.059-1.062-0.18
			c-0.317-0.119-0.587-0.304-0.812-0.552c-0.224-0.248-0.396-0.562-0.521-0.942c-0.125-0.379-0.188-0.83-0.188-1.35
			c0-0.96,0.218-1.704,0.648-2.232c0.431-0.527,1.021-0.791,1.775-0.791c0.769,0,1.362,0.256,1.786,0.768
			c0.425,0.512,0.638,1.208,0.638,2.088v0.396L1090.754,355.167L1090.754,355.167z M1093.85,354.208
			c-0.008-0.088-0.018-0.168-0.028-0.24c-0.014-0.072-0.027-0.143-0.05-0.211c-0.02-0.067-0.046-0.141-0.076-0.221
			c-0.111-0.272-0.292-0.488-0.54-0.648s-0.527-0.24-0.841-0.24c-0.312,0-0.593,0.08-0.841,0.24c-0.247,0.16-0.428,0.376-0.54,0.648
			c-0.062,0.16-0.105,0.303-0.132,0.432c-0.023,0.128-0.04,0.312-0.048,0.552h3.12C1093.866,354.4,1093.858,354.296,1093.85,354.208
			z"/>
		<path d="M1099.916,357.772c-0.292,0.128-0.642,0.192-1.05,0.192c-0.376,0-0.724-0.062-1.038-0.187
			c-0.316-0.124-0.592-0.312-0.828-0.563s-0.42-0.568-0.552-0.948s-0.198-0.822-0.198-1.326s0.066-0.944,0.198-1.319
			c0.132-0.377,0.313-0.69,0.552-0.943c0.237-0.252,0.512-0.441,0.828-0.569s0.662-0.192,1.038-0.192
			c0.407,0,0.758,0.064,1.05,0.192s0.59,0.356,0.895,0.685l-0.589,0.551c-0.224-0.247-0.436-0.42-0.636-0.516
			s-0.438-0.144-0.72-0.144c-0.288,0-0.548,0.056-0.78,0.168c-0.229,0.112-0.428,0.28-0.588,0.504
			c-0.136,0.192-0.234,0.41-0.294,0.653c-0.06,0.244-0.09,0.555-0.09,0.931s0.03,0.687,0.09,0.931
			c0.06,0.243,0.158,0.461,0.294,0.653c0.16,0.224,0.355,0.392,0.588,0.504s0.492,0.168,0.78,0.168c0.28,0,0.52-0.05,0.72-0.149
			c0.2-0.101,0.412-0.274,0.636-0.522l0.589,0.563C1100.506,357.416,1100.208,357.644,1099.916,357.772z"/>
		<path d="M1106.235,357.892v-3.648c0-0.52-0.129-0.91-0.387-1.17c-0.256-0.26-0.605-0.39-1.056-0.39s-0.806,0.132-1.074,0.396
			c-0.268,0.264-0.399,0.652-0.399,1.164v3.648h-0.864v-8.544h0.864v3.288c0.424-0.48,0.976-0.721,1.653-0.721
			c0.675,0,1.194,0.196,1.566,0.588c0.372,0.393,0.558,0.924,0.558,1.597v3.792H1106.235z"/>
		<path d="M1109.739,355.167c0,0.646,0.146,1.145,0.442,1.498c0.298,0.354,0.729,0.531,1.298,0.531c0.344,0,0.63-0.055,0.855-0.162
			c0.229-0.109,0.458-0.279,0.689-0.511l0.589,0.517c-0.152,0.152-0.304,0.285-0.45,0.399c-0.147,0.114-0.307,0.209-0.475,0.287
			s-0.354,0.136-0.56,0.177s-0.43,0.061-0.678,0.061c-0.393,0-0.746-0.059-1.062-0.18c-0.315-0.119-0.588-0.304-0.812-0.552
			c-0.225-0.248-0.397-0.562-0.521-0.942c-0.125-0.379-0.188-0.83-0.188-1.35c0-0.96,0.216-1.704,0.647-2.232
			c0.433-0.527,1.022-0.791,1.774-0.791c0.77,0,1.364,0.256,1.788,0.768s0.636,1.208,0.636,2.088v0.396L1109.739,355.167
			L1109.739,355.167z M1112.834,354.208c-0.008-0.088-0.018-0.168-0.03-0.24c-0.012-0.072-0.025-0.143-0.048-0.211
			c-0.02-0.067-0.046-0.141-0.078-0.221c-0.109-0.272-0.292-0.488-0.54-0.648s-0.525-0.24-0.84-0.24c-0.312,0-0.592,0.08-0.84,0.24
			s-0.428,0.376-0.54,0.648c-0.062,0.16-0.107,0.303-0.132,0.432c-0.025,0.128-0.04,0.312-0.048,0.552h3.12
			C1112.851,354.4,1112.842,354.296,1112.834,354.208z"/>
		<path d="M1118.858,353.117c-0.16-0.16-0.312-0.273-0.456-0.336c-0.146-0.064-0.332-0.097-0.563-0.097
			c-0.217,0-0.412,0.04-0.588,0.12c-0.177,0.08-0.324,0.191-0.444,0.336s-0.214,0.312-0.28,0.504
			c-0.068,0.191-0.104,0.4-0.104,0.624v3.624h-0.864v-5.904h0.864v0.721c0.159-0.248,0.391-0.442,0.689-0.582
			c0.3-0.141,0.621-0.211,0.966-0.211c0.28,0,0.534,0.041,0.763,0.121s0.445,0.223,0.653,0.432L1118.858,353.117z"/>
		<path d="M1123.544,357.772c-0.292,0.128-0.642,0.192-1.05,0.192c-0.376,0-0.724-0.062-1.038-0.187
			c-0.316-0.124-0.592-0.312-0.828-0.563s-0.42-0.568-0.552-0.948s-0.198-0.822-0.198-1.326s0.066-0.944,0.198-1.319
			c0.132-0.377,0.313-0.69,0.552-0.943c0.237-0.252,0.512-0.441,0.828-0.569c0.314-0.128,0.662-0.192,1.038-0.192
			c0.408,0,0.758,0.064,1.05,0.192s0.59,0.356,0.896,0.685l-0.59,0.551c-0.224-0.247-0.436-0.42-0.636-0.516
			s-0.438-0.144-0.72-0.144c-0.288,0-0.548,0.056-0.78,0.168c-0.229,0.112-0.428,0.28-0.588,0.504
			c-0.136,0.192-0.234,0.41-0.294,0.653c-0.061,0.244-0.09,0.555-0.09,0.931s0.03,0.687,0.09,0.931
			c0.061,0.243,0.158,0.461,0.294,0.653c0.16,0.224,0.356,0.392,0.588,0.504c0.232,0.112,0.492,0.168,0.78,0.168
			c0.28,0,0.52-0.05,0.72-0.149c0.2-0.101,0.412-0.274,0.636-0.522l0.59,0.563C1124.134,357.416,1123.836,357.644,1123.544,357.772z
			"/>
		<path d="M1129.863,357.892v-3.648c0-0.52-0.128-0.91-0.386-1.17c-0.257-0.26-0.606-0.39-1.057-0.39s-0.806,0.132-1.074,0.396
			c-0.268,0.264-0.399,0.652-0.399,1.164v3.648h-0.864v-8.544h0.864v3.288c0.424-0.48,0.976-0.721,1.655-0.721
			c0.673,0,1.192,0.196,1.564,0.588c0.372,0.393,0.558,0.924,0.558,1.597v3.792H1129.863z"/>
		<path d="M1133.365,355.167c0,0.646,0.146,1.145,0.442,1.498c0.298,0.354,0.729,0.531,1.298,0.531c0.344,0,0.63-0.055,0.855-0.162
			c0.229-0.109,0.458-0.279,0.689-0.511l0.589,0.517c-0.152,0.152-0.304,0.285-0.45,0.399c-0.147,0.114-0.307,0.209-0.475,0.287
			s-0.354,0.136-0.56,0.177s-0.43,0.061-0.678,0.061c-0.393,0-0.746-0.059-1.062-0.18c-0.315-0.119-0.588-0.304-0.812-0.552
			c-0.225-0.248-0.397-0.562-0.521-0.942c-0.125-0.379-0.188-0.83-0.188-1.35c0-0.96,0.216-1.704,0.647-2.232
			c0.433-0.527,1.022-0.791,1.774-0.791c0.77,0,1.364,0.256,1.788,0.768s0.636,1.208,0.636,2.088v0.396L1133.365,355.167
			L1133.365,355.167z M1136.461,354.208c-0.008-0.088-0.018-0.168-0.03-0.24c-0.012-0.072-0.025-0.143-0.048-0.211
			c-0.02-0.067-0.046-0.141-0.078-0.221c-0.109-0.272-0.292-0.488-0.54-0.648s-0.525-0.24-0.84-0.24c-0.312,0-0.592,0.08-0.84,0.24
			s-0.428,0.376-0.54,0.648c-0.062,0.16-0.107,0.303-0.132,0.432c-0.024,0.128-0.04,0.312-0.048,0.552h3.12
			C1136.479,354.4,1136.469,354.296,1136.461,354.208z"/>
	</g>
</g>
</svg>
