<?xml version="1.0" encoding="utf-8"?>
<!-- Generator: Adobe Illustrator 16.0.0, SVG Export Plug-In . SVG Version: 6.00 Build 0)  -->
<!DOCTYPE svg PUBLIC "-//W3C//DTD SVG 1.1//EN" "http://www.w3.org/Graphics/SVG/1.1/DTD/svg11.dtd">
<svg version="1.1" id="Calque_1" xmlns="http://www.w3.org/2000/svg" xmlns:xlink="http://www.w3.org/1999/xlink" x="0px" y="0px"
	 width="207.91px" height="26.224px" viewBox="44.863 575.25 207.91 26.224" enable-background="new 44.863 575.25 207.91 26.224"
	 xml:space="preserve">
<g id="Calque_1_1_" display="none">
	<rect x="-13" y="-18" display="inline" fill="#999999" width="1306" height="825"/>
	<g display="inline">
		<rect x="269.67" y="173.021" fill="#F4F1ED" width="739.963" height="336.683"/>
		<rect x="278.509" y="323.069" opacity="0.3" enable-background="new    " width="241.516" height="180.469"/>
		<rect x="875.514" y="234.376" opacity="0.3" enable-background="new    " width="91.57" height="54.573"/>
		<path fill="#BFD49B" d="M856.09,385.144h20.658l-4.779,4.778v15.107h4.779v-8.632h4.779v13.257l-4.472,4.471h-5.705v8.479h6.169
			v-3.698h4.008h5.239v5.703v3.084l-5.163,5.164h-8.402l-6.203-6.205l-7.824,12.141l-0.153,2.775h11.717v3.698h-21.275v-4.934h7.863
			c0,0-2.312-12.178-2.312-11.715c0,0.461-3.547,3.082-3.547,3.082H841.6v-20.656H852.7l9.401-9.404L856.09,385.144z"/>
		<polygon fill="#BFD49B" points="551.679,173.021 551.679,178.776 560.722,178.776 560.722,218.446 569.971,218.446 
			569.971,239.617 561.75,239.617 561.75,258.733 549.314,271.167 549.314,324.096 537.495,324.096 530.198,331.393 530.198,346.5 
			506.714,369.984 506.714,386.169 546.744,386.169 546.744,378.977 562.777,378.977 562.777,386.169 602.036,386.169 
			602.036,322.246 616.63,322.246 616.63,315.258 623.619,315.258 623.619,295.731 614.78,286.893 607.792,279.904 595.356,267.469 
			615.604,267.469 615.604,250.1 615.604,231.189 636.979,231.189 647.359,220.809 647.359,209.196 666.373,209.196 
			666.373,228.312 690.01,228.312 705.221,228.312 705.221,218.857 719.607,218.857 719.607,233.04 727.316,240.748 748.18,240.748 
			755.014,233.913 767.09,233.913 767.09,218.857 777.16,218.857 777.16,173.021 		"/>
		<g>
			<line fill="none" x1="394.025" y1="419.471" x2="287.758" y2="419.471"/>
			<rect x="287.758" y="417.621" fill="#FFD800" width="106.268" height="3.699"/>
		</g>
		<polygon fill="#F59900" points="392.337,509.704 381.285,450.961 378.665,406.873 383.589,406.578 386.2,450.514 397.271,509.704 
					"/>
		<polygon points="434.58,412.969 434.58,410.441 459.406,406.48 499.243,376.604 514.163,363.743 528.824,367.672 535.114,356.555 
			535.33,356.398 565.391,334.507 623.379,298.05 645.57,267.791 655.166,265.905 676.826,279.992 688.406,269.304 730.088,261.43 
			751.133,245.336 763.84,244.882 775.428,227.268 787.977,227.582 803.234,214.685 815.689,221.852 820.393,240.356 
			833.23,260.594 852.994,272.097 882.684,295.207 893.977,297.767 893.434,300.171 881.604,297.49 851.543,274.094 
			831.469,262.423 818.051,241.155 813.555,223.47 803.502,217.686 788.854,230.071 776.736,229.768 765.201,247.302 
			752.008,247.773 731.121,263.745 689.559,271.595 677.09,283.105 654.66,268.519 646.99,270.025 625.091,299.888 566.773,336.549 
			536.998,358.234 530.031,370.549 514.785,366.463 500.788,378.524 460.396,408.82 		"/>
		<polygon fill="#FFD800" points="829.717,510.19 825.951,510.19 835.293,475.536 862.117,443.023 854.793,407.213 854.963,406.73 
			909.924,250.049 905.014,173.139 908.707,172.903 913.664,250.564 913.539,250.918 858.621,407.473 866.096,444.012 
			838.656,477.274 		"/>
		<polygon fill="#FFD800" points="903.182,277.835 902.727,274.163 935.438,270.109 910.797,251.896 912.996,248.921 
			945.086,272.64 		"/>
		<rect x="938.412" y="268.908" fill="#FFD800" width="71.221" height="3.7"/>
		<polygon fill="#FFD800" points="1009.633,428.104 997.973,402.939 996.305,390.602 1003.467,378.769 1003.467,368.246 
			988.791,332.907 977.295,328.066 976.99,327.644 937.744,273.173 941.146,271.527 979.689,325.06 991.627,330.086 
			1007.166,367.509 1007.166,379.802 1000.146,391.402 1001.561,401.879 1009.633,419.029 		"/>
		<rect x="285.908" y="385.863" fill="#FFD800" width="3.7" height="49.846"/>
		<g>
			<line fill="none" x1="287.347" y1="410.785" x2="269.67" y2="410.785"/>
			<rect x="269.67" y="408.934" fill="#FFD800" width="17.677" height="3.701"/>
		</g>
		<polygon fill="#F59900" points="594.592,509.704 545.502,483.876 534.409,484.903 503.095,468.602 489.739,453.629 
			439.83,438.996 382.925,438.996 382.925,432.83 440.715,432.83 493.167,448.207 506.944,463.654 535.646,478.595 546.754,477.567 
			607.791,509.704 		"/>
		<polygon fill="#91BBFE" points="654.965,233.76 647.565,241.159 647.565,254.828 638.571,263.821 631.48,270.912 631.48,274.766 
			640.06,275.305 645.57,267.791 655.166,265.905 676.826,279.992 680.863,258.322 673.258,259.658 662.879,257.5 660.309,255.445 
			651.265,258.014 651.162,248.354 657.328,242.29 659.486,233.76 663.188,222.043 660.926,217.213 659.691,224.613 		"/>
		<polygon fill="#BFD49B" points="679.424,291.106 679.424,322.863 633.485,322.863 633.485,346.604 647.976,346.604 
			647.976,377.127 658.459,377.127 658.459,382.985 661.389,385.915 661.389,391.619 666.861,397.091 666.861,402.41 
			679.424,402.41 686.053,409.037 690.562,413.547 698.385,421.371 718.58,421.371 718.58,378.977 729.064,378.977 729.064,343.829 
			729.064,291.106 		"/>
		<polygon fill="#BFD49B" points="768.221,250.717 768.221,313.827 790.418,313.827 790.418,323.172 805.527,323.172 
			805.527,313.827 820.018,313.827 820.018,294.807 846.225,294.807 846.225,291.106 837.592,291.106 837.592,265.809 
			820.941,265.809 820.941,248.603 818.051,241.155 785.178,241.155 785.178,250.717 		"/>
		<polygon fill="#FFFFFF" stroke="#000000" stroke-miterlimit="10" points="633.69,283.572 628.782,275.105 633.028,266.026 
			639.091,259.358 643.542,241.549 629.271,236.499 615.403,231.772 565.729,223.298 543.389,232.786 510.119,241.809 
			489.503,233.5 471.575,240.919 459.542,234.089 461.051,223.225 437.655,221.425 421.054,221.427 408.615,219.26 376.253,209.094 
			290.636,209.094 290.636,207.861 376.442,207.861 408.906,218.064 421.161,220.203 437.703,220.194 462.453,222.096 
			460.878,233.43 471.66,239.549 489.497,232.168 510.196,240.51 542.986,231.623 565.58,222.022 565.759,222.053 615.706,230.582 
			629.676,235.334 645.01,240.76 640.212,259.958 634.004,266.787 630.171,275.043 634.757,282.953 		"/>
		<polygon fill="#F59900" points="395.522,423.203 365.181,394.368 318.268,349.123 291.493,237.202 281.833,173.483 
			287.929,172.559 297.569,236.149 323.845,345.935 369.444,389.913 397.05,416.148 416.448,409.426 434.58,408.473 434.58,414.742 
			417.643,415.537 		"/>
		<rect x="269.67" y="173.021" fill="none" stroke="#000000" stroke-miterlimit="10" width="739.963" height="336.683"/>
		<g>
			<path d="M886.66,255.958v9.969h-1.287v-9.969H886.66z"/>
			<path d="M889.016,260.706c0-0.74-0.016-1.346-0.061-1.937h1.154l0.073,1.183h0.029c0.355-0.681,1.185-1.346,2.367-1.346
				c0.99,0,2.526,0.591,2.526,3.046v4.274h-1.299V261.8c0-1.154-0.432-2.115-1.658-2.115c-0.856,0-1.522,0.607-1.745,1.331
				c-0.06,0.163-0.089,0.385-0.089,0.606v4.304h-1.301v-5.22H889.016z"/>
			<path d="M903.41,255.425v8.653c0,0.636,0.014,1.36,0.059,1.848h-1.168l-0.059-1.242h-0.031c-0.398,0.799-1.271,1.405-2.439,1.405
				c-1.729,0-3.061-1.464-3.061-3.638c-0.018-2.381,1.463-3.845,3.209-3.845c1.094,0,1.834,0.517,2.16,1.094h0.026v-4.274
				L903.41,255.425L903.41,255.425z M902.107,261.683c0-0.164-0.015-0.385-0.06-0.548c-0.19-0.829-0.901-1.509-1.879-1.509
				c-1.346,0-2.143,1.183-2.143,2.766c0,1.45,0.709,2.647,2.112,2.647c0.873,0,1.672-0.577,1.908-1.553
				c0.045-0.177,0.059-0.354,0.059-0.562v-1.241H902.107z"/>
			<path d="M907.025,256.756c0.014,0.444-0.312,0.799-0.83,0.799c-0.457,0-0.783-0.355-0.783-0.799c0-0.458,0.34-0.813,0.813-0.813
				C906.715,255.943,907.025,256.298,907.025,256.756z M905.576,265.927v-7.158h1.299v7.158H905.576z"/>
			<path d="M913.002,265.927l-0.104-0.902h-0.045c-0.398,0.562-1.169,1.064-2.189,1.064c-1.449,0-2.189-1.021-2.189-2.056
				c0-1.73,1.539-2.677,4.306-2.662v-0.148c0-0.591-0.162-1.657-1.627-1.657c-0.666,0-1.359,0.207-1.863,0.532l-0.297-0.857
				c0.592-0.385,1.449-0.636,2.352-0.636c2.189,0,2.724,1.493,2.724,2.928v2.677c0,0.621,0.028,1.228,0.116,1.715h-1.183V265.927z
				 M912.809,262.273c-1.42-0.029-3.03,0.222-3.03,1.612c0,0.843,0.561,1.243,1.227,1.243c0.935,0,1.523-0.592,1.73-1.198
				c0.045-0.133,0.073-0.281,0.073-0.414V262.273L912.809,262.273z"/>
			<path d="M916.172,260.706c0-0.74-0.016-1.346-0.061-1.937h1.153l0.074,1.183h0.029c0.354-0.681,1.184-1.346,2.365-1.346
				c0.991,0,2.528,0.591,2.528,3.046v4.274h-1.301V261.8c0-1.154-0.43-2.115-1.656-2.115c-0.856,0-1.522,0.607-1.746,1.331
				c-0.059,0.163-0.088,0.385-0.088,0.606v4.304h-1.301v-5.22H916.172z"/>
			<path d="M928.66,265.927l-2.529-9.969h1.359l1.186,5.044c0.295,1.242,0.562,2.484,0.738,3.446h0.029
				c0.162-0.991,0.475-2.175,0.813-3.461l1.33-5.029h1.349l1.213,5.058c0.278,1.184,0.547,2.367,0.692,3.417h0.029
				c0.207-1.094,0.487-2.204,0.801-3.446l1.316-5.029h1.315l-2.826,9.969h-1.346l-1.258-5.191c-0.311-1.272-0.518-2.249-0.65-3.254
				h-0.028c-0.179,0.991-0.398,1.967-0.771,3.254l-1.42,5.191H928.66z"/>
			<path d="M939.744,262.584c0.031,1.76,1.154,2.484,2.455,2.484c0.934,0,1.494-0.163,1.981-0.37l0.224,0.932
				c-0.459,0.208-1.242,0.444-2.381,0.444c-2.205,0-3.521-1.45-3.521-3.609c0-2.16,1.271-3.86,3.357-3.86
				c2.336,0,2.957,2.056,2.957,3.372c0,0.266-0.029,0.473-0.046,0.606L939.744,262.584L939.744,262.584z M943.561,261.652
				c0.017-0.828-0.34-2.115-1.803-2.115c-1.318,0-1.895,1.213-1.998,2.115H943.561z"/>
			<path d="M946.436,255.425h1.302v10.501h-1.302V255.425z"/>
			<path d="M949.928,255.425h1.301v10.501h-1.301V255.425z"/>
			<path d="M953.242,264.596c0.383,0.251,1.063,0.518,1.715,0.518c0.947,0,1.391-0.474,1.391-1.065c0-0.622-0.369-0.961-1.33-1.317
				c-1.289-0.458-1.893-1.168-1.893-2.026c0-1.153,0.932-2.1,2.469-2.1c0.726,0,1.361,0.206,1.76,0.443l-0.325,0.947
				c-0.279-0.177-0.798-0.414-1.464-0.414c-0.77,0-1.196,0.444-1.196,0.977c0,0.591,0.428,0.857,1.358,1.212
				c1.242,0.474,1.879,1.095,1.879,2.16c0,1.257-0.975,2.145-2.678,2.145c-0.783,0-1.508-0.193-2.012-0.488L953.242,264.596z"/>
		</g>
		<g>
			<path d="M352.78,413.541c0.703-0.148,1.812-0.26,2.94-0.26c1.608,0,2.646,0.277,3.422,0.906c0.647,0.479,1.036,1.221,1.036,2.2
				c0,1.203-0.795,2.257-2.108,2.738v0.035c1.184,0.297,2.57,1.276,2.57,3.129c0,1.072-0.425,1.885-1.054,2.496
				c-0.87,0.795-2.274,1.166-4.31,1.166c-1.11,0-1.961-0.074-2.497-0.148V413.541L352.78,413.541z M354.389,418.645h1.461
				c1.702,0,2.701-0.887,2.701-2.088c0-1.463-1.109-2.035-2.738-2.035c-0.738,0-1.164,0.056-1.424,0.109V418.645L354.389,418.645z
				 M354.389,424.619c0.314,0.057,0.777,0.076,1.352,0.076c1.664,0,3.2-0.611,3.2-2.424c0-1.701-1.461-2.404-3.219-2.404h-1.333
				V424.619L354.389,424.619z"/>
			<path d="M367.708,425.842l-0.129-1.129h-0.056c-0.5,0.703-1.461,1.332-2.737,1.332c-1.813,0-2.738-1.275-2.738-2.57
				c0-2.166,1.924-3.35,5.383-3.33v-0.186c0-0.74-0.204-2.072-2.034-2.072c-0.832,0-1.702,0.26-2.331,0.666l-0.37-1.072
				c0.739-0.479,1.812-0.797,2.94-0.797c2.738,0,3.404,1.869,3.404,3.664v3.349c0,0.776,0.037,1.535,0.148,2.146H367.708z
				 M367.468,421.271c-1.774-0.035-3.792,0.278-3.792,2.018c0,1.055,0.703,1.555,1.535,1.555c1.165,0,1.905-0.742,2.165-1.5
				c0.055-0.166,0.092-0.35,0.092-0.518V421.271L367.468,421.271z"/>
			<path d="M373.276,420.994h0.036c0.223-0.312,0.537-0.703,0.796-1.016l2.626-3.09h1.961l-3.459,3.682l3.939,5.271h-1.979
				l-3.089-4.291l-0.833,0.924v3.367h-1.609v-13.135h1.609L373.276,420.994L373.276,420.994z"/>
			<path d="M381.25,421.66c0.037,2.203,1.443,3.109,3.071,3.109c1.165,0,1.868-0.205,2.479-0.464l0.277,1.166
				c-0.573,0.259-1.554,0.556-2.979,0.556c-2.756,0-4.402-1.814-4.402-4.515s1.591-4.829,4.199-4.829
				c2.923,0,3.699,2.571,3.699,4.219c0,0.334-0.037,0.594-0.056,0.758H381.25L381.25,421.66z M386.022,420.496
				c0.019-1.037-0.426-2.645-2.258-2.645c-1.646,0-2.367,1.516-2.498,2.645H386.022z"/>
			<path d="M389.611,419.682c0-1.055-0.019-1.961-0.073-2.793h1.424l0.056,1.756h0.074c0.407-1.201,1.389-1.961,2.479-1.961
				c0.185,0,0.314,0.021,0.462,0.058v1.534c-0.166-0.036-0.333-0.055-0.555-0.055c-1.147,0-1.962,0.869-2.184,2.09
				c-0.038,0.224-0.074,0.48-0.074,0.759v4.772h-1.609V419.682L389.611,419.682z"/>
			<path d="M395.438,424.176c0.481,0.316,1.332,0.648,2.146,0.648c1.184,0,1.739-0.592,1.739-1.332c0-0.777-0.462-1.201-1.665-1.646
				c-1.609-0.574-2.368-1.461-2.368-2.535c0-1.44,1.166-2.627,3.089-2.627c0.906,0,1.702,0.26,2.202,0.558l-0.407,1.184
				c-0.352-0.223-0.999-0.518-1.832-0.518c-0.962,0-1.499,0.555-1.499,1.221c0,0.74,0.537,1.072,1.703,1.519
				c1.553,0.592,2.349,1.368,2.349,2.698c0,1.572-1.221,2.685-3.348,2.685c-0.979,0-1.887-0.24-2.516-0.611L395.438,424.176z"/>
			<path d="M403.152,425.842v-7.715h-1.259v-1.238h1.259v-0.479c0-2.369,1.387-3.904,3.902-3.904c0.832,0,1.812,0.261,2.275,0.593
				l-0.462,1.237c-0.388-0.274-1.091-0.519-1.887-0.519c-1.721,0-2.221,1.203-2.221,2.627v0.445h5.198v8.953h-1.609v-7.715h-3.589
				v7.715H403.152z"/>
			<path d="M413.567,421.66c0.036,2.203,1.442,3.109,3.07,3.109c1.165,0,1.869-0.205,2.479-0.464l0.277,1.166
				c-0.573,0.259-1.554,0.556-2.979,0.556c-2.756,0-4.403-1.814-4.403-4.515s1.591-4.829,4.199-4.829c2.923,0,3.7,2.571,3.7,4.219
				c0,0.334-0.037,0.594-0.055,0.758H413.567L413.567,421.66z M418.34,420.496c0.02-1.037-0.425-2.645-2.257-2.645
				c-1.646,0-2.368,1.516-2.498,2.645H418.34z"/>
			<path d="M421.928,412.707h1.628v13.135h-1.628V412.707z"/>
			<path d="M434.026,412.707v10.822c0,0.797,0.019,1.701,0.074,2.312h-1.461l-0.073-1.553h-0.037
				c-0.5,0.998-1.592,1.756-3.053,1.756c-2.164,0-3.829-1.832-3.829-4.549c-0.019-2.979,1.831-4.812,4.015-4.812
				c1.368,0,2.293,0.647,2.701,1.37h0.038v-5.348L434.026,412.707L434.026,412.707z M432.399,420.533c0-0.205-0.02-0.48-0.075-0.686
				c-0.241-1.035-1.128-1.888-2.35-1.888c-1.684,0-2.683,1.479-2.683,3.459c0,1.812,0.889,3.312,2.646,3.312
				c1.092,0,2.091-0.724,2.387-1.943c0.056-0.223,0.074-0.443,0.074-0.703L432.399,420.533L432.399,420.533z"/>
		</g>
		<g>
			<path fill="#2D5420" d="M682.68,284.088h1.609v6.011h0.056c0.333-0.481,0.665-0.925,0.979-1.332l3.81-4.679h1.998l-4.513,5.289
				l4.863,7.176h-1.904l-4.105-6.122l-1.184,1.369v4.753h-1.609V284.088z"/>
			<path fill="#2D5420" d="M693.557,292.374c0.037,2.201,1.443,3.107,3.07,3.107c1.165,0,1.868-0.203,2.479-0.462l0.276,1.165
				c-0.573,0.259-1.554,0.555-2.978,0.555c-2.756,0-4.401-1.812-4.401-4.513c0-2.7,1.59-4.827,4.197-4.827
				c2.923,0,3.699,2.57,3.699,4.216c0,0.333-0.037,0.592-0.057,0.758L693.557,292.374L693.557,292.374z M698.328,291.208
				c0.019-1.036-0.425-2.645-2.256-2.645c-1.646,0-2.367,1.517-2.497,2.645H698.328z"/>
			<path fill="#2D5420" d="M701.918,290.395c0-1.054-0.018-1.96-0.073-2.793h1.425l0.056,1.757h0.073
				c0.406-1.202,1.388-1.96,2.479-1.96c0.186,0,0.314,0.019,0.462,0.056v1.535c-0.166-0.037-0.332-0.055-0.555-0.055
				c-1.146,0-1.96,0.869-2.183,2.089c-0.036,0.222-0.073,0.481-0.073,0.758v4.771h-1.609L701.918,290.395L701.918,290.395z"/>
			<path fill="#2D5420" d="M708.041,290.025c0-0.925-0.018-1.683-0.073-2.423h1.442l0.092,1.479h0.037
				c0.444-0.851,1.479-1.683,2.959-1.683c1.239,0,3.163,0.74,3.163,3.81v5.345h-1.628v-5.16c0-1.442-0.536-2.645-2.071-2.645
				c-1.072,0-1.904,0.758-2.182,1.665c-0.074,0.203-0.111,0.48-0.111,0.758v5.382h-1.628V290.025z"/>
			<path fill="#2D5420" d="M722.285,284.255c0.813-0.167,1.979-0.259,3.089-0.259c1.72,0,2.829,0.314,3.606,1.017
				c0.629,0.555,0.979,1.405,0.979,2.367c0,1.646-1.035,2.737-2.349,3.181v0.056c0.962,0.333,1.534,1.221,1.831,2.515
				c0.406,1.738,0.702,2.94,0.962,3.421h-1.665c-0.203-0.352-0.48-1.424-0.832-2.978c-0.37-1.72-1.035-2.367-2.496-2.423h-1.518v5.4
				h-1.608L722.285,284.255L722.285,284.255z M723.895,289.933h1.646c1.72,0,2.812-0.943,2.812-2.367
				c0-1.609-1.165-2.312-2.867-2.331c-0.776,0-1.331,0.074-1.59,0.148v4.55H723.895z"/>
			<path fill="#2D5420" d="M734.18,285.087c0.02,0.555-0.388,0.999-1.035,0.999c-0.572,0-0.979-0.444-0.979-0.999
				c0-0.574,0.426-1.018,1.018-1.018C733.792,284.07,734.18,284.514,734.18,285.087z M732.367,296.553v-8.951h1.628v8.951H732.367z"
				/>
			<path fill="#2D5420" d="M737.324,287.602l1.757,5.03c0.296,0.814,0.537,1.554,0.722,2.293h0.057
				c0.203-0.74,0.462-1.479,0.758-2.293l1.738-5.03h1.701l-3.515,8.951h-1.553l-3.403-8.951H737.324z"/>
			<path fill="#2D5420" d="M746.314,292.374c0.036,2.201,1.442,3.107,3.069,3.107c1.165,0,1.868-0.203,2.479-0.462l0.276,1.165
				c-0.572,0.259-1.554,0.555-2.978,0.555c-2.756,0-4.401-1.812-4.401-4.513c0-2.7,1.59-4.827,4.197-4.827
				c2.923,0,3.699,2.57,3.699,4.216c0,0.333-0.037,0.592-0.057,0.758L746.314,292.374L746.314,292.374z M751.086,291.208
				c0.02-1.036-0.425-2.645-2.256-2.645c-1.646,0-2.367,1.517-2.497,2.645H751.086z"/>
			<path fill="#2D5420" d="M754.677,290.395c0-1.054-0.019-1.96-0.073-2.793h1.425l0.056,1.757h0.073
				c0.407-1.202,1.388-1.96,2.479-1.96c0.186,0,0.314,0.019,0.463,0.056v1.535c-0.167-0.037-0.333-0.055-0.556-0.055
				c-1.146,0-1.96,0.869-2.182,2.089c-0.037,0.222-0.074,0.481-0.074,0.758v4.771h-1.609L754.677,290.395L754.677,290.395z"/>
		</g>
	</g>
	<rect x="-1" y="605" display="inline" fill="#A46D55" width="318" height="66"/>
	<rect x="-1" y="671" display="inline" fill="#5E3F2F" width="318" height="13"/>
	<rect x="202" y="684" display="inline" fill="#A46D55" width="20" height="147"/>
	<rect x="196" y="684" display="inline" fill="#7F5441" width="6" height="145"/>
</g>
<g id="Calque_6" display="none">
	<g display="inline" opacity="0.25">
		<path fill="#020202" d="M700.035,259.797c-17.136,6.972-13.822,24.403,22.302,9.706c36.125-14.697-6.635-16.31-6.635-16.31"/>
		<g>
			<path fill="#FF5003" d="M701.334,259.047c-4.51,1.876-10.584,4.909-12.309,9.844c-2.014,5.756,5.559,7.117,9.526,7.082
				c5.355-0.049,10.7-1.553,15.747-3.214c5.469-1.8,10.884-4.021,15.905-6.852c2.536-1.43,11.144-5.688,6.601-9.324
				c-3.001-2.401-7.817-2.877-11.479-3.386c-2.756-0.383-5.545-0.646-8.326-0.754c-0.856-0.033-1.765,1.532-2.598,1.5
				c3.646,0.141,22.889,0.855,20.996,7.176c-1.003,3.348-6.055,5.155-8.777,6.37c-6.047,2.697-12.391,4.944-18.896,6.235
				c-4.26,0.845-14.741,2.456-16.288-3.682c-0.445-1.77,0.436-3.602,1.438-5.003c0.69-0.968,1.568-1.795,2.479-2.552
				c0.562-0.467,1.164-0.882,1.775-1.281c-1.729,1.128,1.01-0.413,1.604-0.659C699.654,260.165,700.422,259.426,701.334,259.047
				L701.334,259.047z"/>
		</g>
	</g>
	<g display="inline">
		<g>
			<path fill="#FF5003" d="M701.334,259.047c-4.51,1.876-10.584,4.909-12.309,9.844c-2.014,5.756,5.559,7.117,9.526,7.082
				c5.355-0.049,10.7-1.553,15.747-3.214c5.469-1.8,10.884-4.021,15.905-6.852c2.536-1.43,11.144-5.688,6.601-9.324
				c-3.001-2.401-7.817-2.877-11.479-3.386c-2.756-0.383-5.545-0.646-8.326-0.754c-0.856-0.033-1.765,1.532-2.598,1.5
				c3.646,0.141,22.889,0.855,20.996,7.176c-1.003,3.348-6.055,5.155-8.777,6.37c-6.047,2.697-12.391,4.944-18.896,6.235
				c-4.26,0.845-14.741,2.456-16.288-3.682c-0.445-1.77,0.436-3.602,1.438-5.003c0.69-0.968,1.568-1.795,2.479-2.552
				c0.562-0.467,1.164-0.882,1.775-1.281c-1.729,1.128,1.01-0.413,1.604-0.659C699.654,260.165,700.422,259.426,701.334,259.047
				L701.334,259.047z"/>
		</g>
	</g>
</g>
<g id="Calque_3">
	<rect x="150" y="629" display="none" fill="#4C4847" width="49" height="23"/>
	<rect x="101" y="629" display="none" fill="#4C4847" width="49" height="23"/>
	<g display="none">
		<g display="inline">
			<rect x="10" y="466" fill="#211F1F" width="280" height="154"/>
			<polygon opacity="0.2" fill="#FFFFFF" enable-background="new    " points="95.164,466 10,538.855 10,514.888 67.166,466 			"/>
			<polygon opacity="0.2" fill="#FFFFFF" enable-background="new    " points="196.908,466 31.989,620 10,620 10,616.631 
				168.91,466 			"/>
			<polygon opacity="0.2" fill="#FFFFFF" enable-background="new    " points="204.583,620 290,546.617 290,570.584 232.581,620 			
				"/>
			<polygon opacity="0.2" fill="#FFFFFF" enable-background="new    " points="289.608,466 124.688,620 102.7,620 99.309,620 
				261.61,466 			"/>
			<g>
				<rect x="30" y="476" fill="#F9F9F9" width="240" height="133"/>
			</g>
		</g>
	</g>
	<polygon display="none" fill="#0C0B0B" points="144,620 144,629 144,638 156,638 156,620 	"/>
	<g>
		<rect x="30" y="605" display="none" fill="#E6E6E6" width="240" height="4"/>
		<rect x="90" y="519" display="none" fill="#BCC5CC" width="141" height="73"/>
		<polygon display="none" fill="#9D8F80" points="230.469,519 89.41,519 98.649,493 221.019,493 		"/>
		<rect x="121" y="506" display="none" fill="#BCC5CC" width="77" height="13"/>
		<rect x="124" y="508" display="none" fill="#FFFFFF" width="72" height="22"/>
		<rect x="158" y="543" display="none" fill="#FFFFFF" width="73" height="49"/>
		<rect x="160" y="544" display="none" fill="#D4EEF9" width="69" height="38"/>
		<rect x="99" y="549" display="none" fill="#FFFFFF" width="32" height="43"/>
		<rect x="102" y="550" display="none" fill="#D4EEF9" width="27" height="42"/>
		<rect x="114" y="549" display="none" fill="#FFFFFF" width="2" height="43"/>
		<rect x="156" y="582" display="none" fill="#BCC5CC" width="75" height="10"/>
		<g display="none">
			<path display="inline" fill="#4D4D4D" d="M133.771,528.379v-5.417l-1.979,4.296h-0.66l-2.009-4.296v5.417h-0.771v-7.129h0.771
				l2.354,5.057l2.293-5.057h0.771v7.129H133.771z"/>
			<path display="inline" fill="#4D4D4D" d="M139.291,524.394c-0.136-0.133-0.264-0.227-0.386-0.279
				c-0.122-0.054-0.281-0.08-0.477-0.08c-0.183,0-0.348,0.034-0.497,0.101c-0.149,0.067-0.274,0.16-0.375,0.28
				s-0.181,0.261-0.238,0.421c-0.058,0.16-0.086,0.333-0.086,0.521v3.022h-0.73v-4.926h0.73v0.601
				c0.135-0.207,0.33-0.369,0.583-0.484c0.254-0.117,0.526-0.177,0.817-0.177c0.237,0,0.452,0.033,0.644,0.102
				c0.193,0.065,0.377,0.187,0.553,0.36L139.291,524.394z"/>
			<path display="inline" fill="#4D4D4D" d="M148.229,528.379l-0.649-0.781c-0.075,0.067-0.172,0.148-0.294,0.245
				c-0.122,0.099-0.271,0.189-0.446,0.275c-0.176,0.087-0.379,0.162-0.609,0.226c-0.23,0.064-0.49,0.097-0.781,0.097
				c-0.352,0-0.668-0.052-0.948-0.15c-0.281-0.101-0.521-0.24-0.721-0.421c-0.2-0.18-0.352-0.396-0.457-0.65
				s-0.157-0.537-0.157-0.852c0-0.268,0.044-0.504,0.132-0.711c0.088-0.206,0.205-0.395,0.35-0.562s0.313-0.317,0.502-0.455
				c0.189-0.137,0.382-0.271,0.578-0.405c-0.088-0.106-0.178-0.218-0.269-0.33c-0.091-0.113-0.176-0.233-0.253-0.36
				c-0.078-0.127-0.141-0.262-0.188-0.405c-0.047-0.143-0.071-0.296-0.071-0.456c0-0.213,0.039-0.409,0.117-0.591
				c0.078-0.18,0.188-0.337,0.331-0.471c0.143-0.133,0.312-0.238,0.509-0.314c0.197-0.077,0.411-0.114,0.642-0.114
				c0.224,0,0.433,0.038,0.626,0.114c0.193,0.076,0.361,0.183,0.504,0.314c0.142,0.134,0.252,0.293,0.331,0.476
				c0.078,0.186,0.117,0.384,0.117,0.598c0,0.286-0.076,0.531-0.229,0.734c-0.152,0.204-0.343,0.382-0.573,0.536
				c-0.007,0.006-0.041,0.028-0.101,0.064c-0.061,0.037-0.136,0.085-0.224,0.146s-0.159,0.11-0.213,0.15l1.836,2.191
				c0.074-0.105,0.137-0.215,0.188-0.324c0.051-0.11,0.091-0.229,0.122-0.355c0.031-0.126,0.054-0.267,0.071-0.421
				c0.017-0.153,0.025-0.33,0.025-0.53h0.731c-0.007,0.454-0.061,0.861-0.163,1.223c-0.102,0.36-0.271,0.681-0.507,0.961
				l1.106,1.312h-0.965V528.379z M145.155,524.715c-0.156,0.106-0.308,0.213-0.457,0.32c-0.149,0.105-0.281,0.224-0.396,0.35
				c-0.115,0.127-0.208,0.271-0.279,0.426c-0.071,0.157-0.106,0.337-0.106,0.536c0,0.214,0.037,0.407,0.111,0.58
				c0.075,0.175,0.179,0.324,0.314,0.451c0.135,0.127,0.296,0.224,0.482,0.29c0.186,0.066,0.391,0.102,0.614,0.102
				c0.271,0,0.544-0.048,0.822-0.142c0.278-0.094,0.571-0.276,0.883-0.551L145.155,524.715z M146.149,522.076
				c-0.162-0.163-0.365-0.245-0.609-0.245c-0.25,0-0.451,0.078-0.604,0.235c-0.152,0.155-0.229,0.354-0.229,0.596
				c0,0.167,0.049,0.332,0.147,0.495c0.098,0.164,0.265,0.39,0.502,0.676c0.041-0.026,0.093-0.062,0.157-0.104
				c0.064-0.044,0.117-0.078,0.158-0.104s0.064-0.043,0.071-0.05c0.169-0.113,0.32-0.239,0.452-0.376
				c0.132-0.137,0.198-0.31,0.198-0.517C146.393,522.441,146.312,522.24,146.149,522.076z"/>
			<path display="inline" fill="#4D4D4D" d="M158.873,528.379v-5.417l-1.979,4.296h-0.66l-2.009-4.296v5.417h-0.771v-7.129h0.771
				l2.354,5.057l2.293-5.057h0.771v7.129H158.873z"/>
			<path display="inline" fill="#4D4D4D" d="M165.057,527.573c-0.098,0.184-0.237,0.34-0.416,0.471
				c-0.18,0.13-0.393,0.229-0.64,0.295c-0.247,0.066-0.522,0.102-0.827,0.102c-0.426,0-0.805-0.055-1.136-0.161
				c-0.332-0.106-0.636-0.29-0.913-0.551l0.487-0.48c0.196,0.207,0.426,0.354,0.69,0.441c0.264,0.086,0.551,0.13,0.862,0.13
				c0.413,0,0.737-0.072,0.974-0.217c0.237-0.143,0.355-0.36,0.355-0.654c0-0.214-0.066-0.381-0.198-0.501s-0.343-0.193-0.634-0.221
				l-0.822-0.069c-0.487-0.04-0.857-0.169-1.111-0.386c-0.254-0.218-0.38-0.528-0.38-0.937c0-0.228,0.045-0.43,0.137-0.606
				c0.092-0.176,0.218-0.326,0.38-0.449c0.163-0.123,0.357-0.22,0.583-0.285c0.227-0.067,0.472-0.102,0.736-0.102
				c0.358,0,0.691,0.045,1,0.131c0.308,0.087,0.573,0.221,0.796,0.4l-0.477,0.47c-0.176-0.133-0.377-0.23-0.604-0.295
				c-0.227-0.062-0.469-0.095-0.726-0.095c-0.365,0-0.643,0.071-0.832,0.215c-0.189,0.145-0.284,0.342-0.284,0.597
				c0,0.214,0.066,0.381,0.198,0.501c0.132,0.119,0.357,0.192,0.675,0.22l0.802,0.07c0.216,0.021,0.416,0.057,0.599,0.109
				s0.338,0.134,0.467,0.24c0.128,0.106,0.228,0.24,0.299,0.4c0.071,0.159,0.106,0.354,0.106,0.581
				C165.204,527.178,165.155,527.39,165.057,527.573z"/>
			<path display="inline" fill="#4D4D4D" d="M176.03,528.379l-0.579-1.612h-3.155l-0.579,1.612h-0.822l2.659-7.129h0.649
				l2.648,7.129H176.03z M173.889,522.342l-1.359,3.766h2.699L173.889,522.342z"/>
			<path display="inline" fill="#4D4D4D" d="M179.134,528.379c-0.44,0-0.761-0.125-0.964-0.375
				c-0.203-0.251-0.304-0.562-0.304-0.937v-5.817h0.73v5.787c0,0.24,0.047,0.421,0.142,0.541c0.094,0.12,0.271,0.18,0.527,0.18
				h0.396v0.621H179.134L179.134,528.379z"/>
			<path display="inline" fill="#4D4D4D" d="M182.147,528.379c-0.44,0-0.761-0.125-0.964-0.375
				c-0.203-0.251-0.304-0.562-0.304-0.937v-5.817h0.73v5.787c0,0.24,0.047,0.421,0.142,0.541c0.094,0.12,0.271,0.18,0.527,0.18
				h0.396v0.621H182.147L182.147,528.379z"/>
			<path display="inline" fill="#4D4D4D" d="M184.116,526.106c0,0.536,0.125,0.953,0.375,1.249c0.25,0.295,0.615,0.441,1.096,0.441
				c0.291,0,0.533-0.045,0.726-0.135s0.387-0.231,0.583-0.426l0.497,0.431c-0.128,0.128-0.255,0.239-0.38,0.334
				s-0.259,0.175-0.401,0.239c-0.142,0.063-0.299,0.113-0.472,0.146c-0.173,0.034-0.364,0.053-0.573,0.053
				c-0.332,0-0.631-0.052-0.898-0.15c-0.268-0.101-0.496-0.254-0.685-0.461s-0.336-0.469-0.441-0.786
				c-0.105-0.316-0.157-0.692-0.157-1.126c0-0.801,0.183-1.422,0.548-1.862c0.365-0.439,0.866-0.661,1.502-0.661
				c0.649,0,1.153,0.215,1.512,0.642c0.358,0.428,0.538,1.009,0.538,1.742v0.331H184.116z M186.733,525.305
				c-0.007-0.072-0.015-0.14-0.025-0.199c-0.01-0.061-0.023-0.118-0.041-0.176c-0.017-0.057-0.039-0.117-0.066-0.186
				c-0.095-0.228-0.247-0.407-0.457-0.54c-0.209-0.134-0.446-0.2-0.71-0.2s-0.501,0.066-0.71,0.2
				c-0.21,0.133-0.362,0.312-0.457,0.54c-0.054,0.134-0.091,0.254-0.112,0.359c-0.02,0.107-0.034,0.262-0.041,0.462h2.638
				C186.747,525.465,186.74,525.379,186.733,525.305z"/>
			<path display="inline" fill="#4D4D4D" d="M192.233,528.379v-3.034c0-0.439-0.11-0.769-0.33-0.984
				c-0.22-0.216-0.519-0.326-0.898-0.326s-0.68,0.11-0.903,0.331c-0.223,0.22-0.335,0.547-0.335,0.979v3.034h-0.73v-4.926h0.73v0.54
				c0.176-0.2,0.382-0.351,0.619-0.45c0.237-0.1,0.497-0.15,0.781-0.15c0.541,0,0.967,0.154,1.278,0.461
				c0.345,0.334,0.518,0.791,0.518,1.371v3.154H192.233L192.233,528.379z"/>
		</g>
		<polyline display="none" fill="none" stroke="#000000" stroke-miterlimit="10" points="159.272,509.754 157.047,511.657 
			159.272,515.463 		"/>
		<polyline display="none" fill="none" stroke="#000000" stroke-miterlimit="10" points="159.272,509.754 161.497,511.657 
			159.272,515.463 		"/>
		<polyline display="none" fill="none" stroke="#000000" stroke-miterlimit="10" points="159.272,509.754 162.531,511.304 
			159.342,515.329 		"/>
		<polyline display="none" fill="none" stroke="#000000" stroke-miterlimit="10" points="159.193,509.754 155.935,511.304 
			159.125,515.329 		"/>
		<polyline display="none" fill="none" stroke="#000000" stroke-miterlimit="10" points="159.272,509.754 158.16,511.877 
			159.272,515.463 		"/>
		<polyline display="none" fill="none" stroke="#000000" stroke-miterlimit="10" points="159.272,509.754 160.385,511.877 
			159.272,515.463 		"/>
		<rect x="160" y="576" display="none" fill="#FFFFFF" width="4" height="5"/>
		<rect x="161" y="577" display="none" fill="#C1272D" width="3" height="2"/>
		<rect x="161" y="550" display="none" opacity="0.3" fill="#F2F2F2" enable-background="new    " width="68" height="11"/>
		<rect x="160" y="567" display="none" opacity="0.3" fill="#F2F2F2" enable-background="new    " width="69" height="12"/>
		<rect x="113" y="571" display="none" fill="#666666" width="0" height="8"/>
		<rect x="117" y="571" display="none" fill="#666666" width="0" height="8"/>
		<rect x="30" y="575" display="none" opacity="0.75" fill="#FF0000" enable-background="new    " width="240" height="30"/>
		<g>
			<path d="M50.545,585.656c-0.124,0.296-0.298,0.544-0.522,0.744c-0.224,0.198-0.492,0.35-0.804,0.448
				c-0.312,0.102-0.656,0.15-1.032,0.15h-3.324v-8.544h3.216c0.368,0,0.708,0.052,1.02,0.156c0.312,0.104,0.578,0.254,0.798,0.448
				c0.22,0.196,0.392,0.436,0.516,0.716c0.124,0.278,0.186,0.6,0.186,0.96c0,0.456-0.12,0.848-0.36,1.176
				c-0.24,0.328-0.54,0.56-0.9,0.696c0.408,0.15,0.742,0.398,1.002,0.742c0.26,0.346,0.39,0.772,0.39,1.284
				C50.731,585.02,50.669,585.36,50.545,585.656z M49.556,580.088c-0.088-0.184-0.206-0.336-0.354-0.456s-0.324-0.21-0.528-0.27
				c-0.204-0.062-0.426-0.091-0.666-0.091h-2.232v2.965h2.232c0.24,0,0.462-0.03,0.666-0.091c0.204-0.061,0.38-0.149,0.528-0.271
				c0.148-0.12,0.266-0.273,0.354-0.462c0.088-0.188,0.132-0.41,0.132-0.666S49.644,580.271,49.556,580.088z M49.357,583.472
				c-0.308-0.278-0.726-0.42-1.254-0.42h-2.328v3.132h2.328c0.528,0,0.946-0.142,1.254-0.426c0.308-0.283,0.462-0.666,0.462-1.146
				C49.819,584.132,49.666,583.752,49.357,583.472z"/>
			<path d="M56.023,582.224c-0.16-0.158-0.312-0.271-0.456-0.336c-0.144-0.062-0.332-0.096-0.564-0.096
				c-0.216,0-0.412,0.04-0.588,0.12c-0.176,0.08-0.324,0.19-0.444,0.336c-0.12,0.144-0.214,0.312-0.282,0.504
				s-0.102,0.4-0.102,0.624V587h-0.864v-5.904h0.864v0.722c0.16-0.248,0.39-0.442,0.69-0.582c0.3-0.142,0.622-0.21,0.966-0.21
				c0.28,0,0.534,0.04,0.762,0.119s0.446,0.225,0.654,0.433L56.023,582.224z"/>
			<path d="M57.907,584.276c0,0.644,0.148,1.143,0.444,1.497c0.296,0.354,0.728,0.529,1.296,0.529c0.344,0,0.63-0.054,0.858-0.162
				c0.228-0.106,0.458-0.276,0.69-0.51l0.588,0.518c-0.152,0.151-0.302,0.285-0.45,0.398c-0.148,0.114-0.306,0.209-0.474,0.286
				c-0.168,0.078-0.354,0.137-0.558,0.177c-0.204,0.041-0.43,0.062-0.678,0.062c-0.392,0-0.746-0.062-1.062-0.182
				c-0.316-0.118-0.586-0.304-0.81-0.552s-0.398-0.562-0.522-0.94s-0.186-0.83-0.186-1.352c0-0.96,0.216-1.704,0.648-2.23
				c0.432-0.528,1.024-0.792,1.776-0.792c0.768,0,1.364,0.256,1.788,0.768c0.424,0.512,0.636,1.208,0.636,2.088v0.396H57.907
				L57.907,584.276z M61.003,583.316c-0.008-0.089-0.018-0.168-0.03-0.24c-0.012-0.072-0.028-0.144-0.048-0.21
				c-0.02-0.068-0.046-0.144-0.078-0.224c-0.112-0.271-0.292-0.486-0.54-0.646s-0.528-0.24-0.84-0.24s-0.592,0.08-0.84,0.24
				s-0.428,0.376-0.54,0.646c-0.064,0.16-0.108,0.306-0.132,0.434s-0.04,0.312-0.048,0.552h3.12
				C61.019,583.508,61.011,583.404,61.003,583.316z"/>
			<path d="M67.076,587v-0.564c-0.24,0.24-0.486,0.406-0.738,0.498c-0.252,0.093-0.574,0.14-0.966,0.14
				c-0.408,0-0.742-0.042-1.002-0.126c-0.26-0.084-0.482-0.224-0.666-0.414c-0.144-0.146-0.254-0.322-0.33-0.534
				s-0.114-0.435-0.114-0.666c0-0.521,0.174-0.935,0.522-1.242c0.348-0.308,0.854-0.462,1.518-0.462h1.776v-0.562
				c0-0.434-0.116-0.758-0.348-0.974s-0.62-0.324-1.164-0.324c-0.384,0-0.684,0.052-0.9,0.15c-0.216,0.101-0.412,0.274-0.588,0.522
				l-0.588-0.54c0.264-0.346,0.558-0.576,0.882-0.696c0.324-0.12,0.726-0.18,1.206-0.18c0.8,0,1.394,0.166,1.782,0.498
				c0.388,0.332,0.582,0.82,0.582,1.47V587H67.076z M67.076,584.276H65.42c-0.88,0-1.32,0.348-1.32,1.044
				c0,0.344,0.108,0.598,0.324,0.762c0.216,0.164,0.56,0.246,1.032,0.246c0.256,0,0.494-0.021,0.714-0.062
				c0.22-0.038,0.422-0.15,0.606-0.336c0.2-0.19,0.3-0.53,0.3-1.02V584.276z"/>
			<path d="M73.927,587l-1.872-3.024l-1.152,1.32V587h-0.864v-8.544h0.864v5.712l2.664-3.072h1.08l-2.004,2.256L74.995,587H73.927z"
				/>
			<path d="M76.423,579.416v-0.972h0.972v0.972H76.423z M76.471,587v-5.904h0.864V587H76.471z"/>
			<path d="M83.287,587v-3.636c0-0.528-0.13-0.922-0.39-1.184c-0.26-0.26-0.614-0.39-1.062-0.39c-0.448,0-0.804,0.132-1.068,0.396
				c-0.264,0.264-0.396,0.654-0.396,1.176V587h-0.864v-5.904h0.864v0.648c0.208-0.24,0.452-0.42,0.732-0.54s0.588-0.18,0.924-0.18
				c0.64,0,1.144,0.184,1.512,0.552c0.408,0.4,0.612,0.948,0.612,1.644V587H83.287z"/>
			<path d="M90.439,588.194c-0.112,0.308-0.272,0.572-0.48,0.798c-0.208,0.224-0.466,0.398-0.774,0.526s-0.654,0.192-1.038,0.192
				c-0.224,0-0.424-0.015-0.6-0.042c-0.176-0.029-0.342-0.076-0.498-0.141c-0.156-0.065-0.308-0.148-0.456-0.25
				c-0.148-0.103-0.298-0.227-0.45-0.371l0.564-0.552c0.104,0.096,0.206,0.18,0.306,0.252c0.1,0.07,0.204,0.134,0.312,0.186
				c0.108,0.052,0.226,0.09,0.354,0.114c0.128,0.022,0.276,0.036,0.444,0.036c0.288,0,0.534-0.049,0.738-0.144
				c0.204-0.096,0.372-0.223,0.504-0.381c0.132-0.159,0.228-0.348,0.288-0.565c0.06-0.217,0.09-0.453,0.09-0.707v-0.916
				c-0.24,0.3-0.496,0.5-0.768,0.603s-0.568,0.154-0.888,0.154c-0.304,0-0.578-0.048-0.822-0.146
				c-0.244-0.096-0.446-0.224-0.606-0.384c-0.296-0.296-0.49-0.66-0.582-1.092c-0.092-0.434-0.138-0.888-0.138-1.368
				s0.046-0.936,0.138-1.368c0.092-0.432,0.286-0.796,0.582-1.092c0.16-0.16,0.364-0.286,0.612-0.378s0.524-0.138,0.828-0.138
				c0.328,0,0.625,0.05,0.894,0.148c0.268,0.102,0.522,0.308,0.762,0.618v-0.696h0.852v6.084
				C90.607,587.548,90.551,587.886,90.439,588.194z M89.695,583.193c-0.032-0.27-0.1-0.506-0.204-0.71s-0.252-0.37-0.444-0.499
				s-0.448-0.192-0.768-0.192c-0.32,0-0.578,0.063-0.774,0.192c-0.196,0.129-0.346,0.295-0.45,0.499s-0.172,0.44-0.204,0.71
				c-0.032,0.27-0.048,0.54-0.048,0.812c0,0.281,0.016,0.554,0.048,0.818c0.032,0.265,0.1,0.5,0.204,0.704
				c0.104,0.203,0.254,0.371,0.45,0.499c0.196,0.129,0.454,0.191,0.774,0.191c0.32,0,0.576-0.062,0.768-0.191
				c0.192-0.128,0.34-0.295,0.444-0.499s0.172-0.439,0.204-0.704c0.032-0.266,0.048-0.537,0.048-0.818
				C89.743,583.733,89.727,583.463,89.695,583.193z"/>
			<path d="M99.535,587v-3.636c0-0.528-0.13-0.922-0.39-1.184c-0.26-0.26-0.614-0.39-1.062-0.39s-0.804,0.132-1.068,0.396
				c-0.264,0.264-0.396,0.654-0.396,1.176V587h-0.864v-5.904h0.864v0.648c0.208-0.24,0.452-0.42,0.732-0.54
				c0.28-0.12,0.588-0.18,0.924-0.18c0.64,0,1.144,0.184,1.512,0.552c0.408,0.4,0.612,0.948,0.612,1.644V587H99.535z"/>
			<path d="M103.039,584.276c0,0.644,0.148,1.143,0.444,1.497c0.296,0.354,0.728,0.529,1.296,0.529c0.344,0,0.63-0.054,0.858-0.162
				c0.228-0.106,0.458-0.276,0.69-0.51l0.588,0.518c-0.152,0.151-0.302,0.285-0.45,0.398c-0.148,0.114-0.306,0.209-0.474,0.286
				c-0.168,0.078-0.354,0.137-0.558,0.177c-0.204,0.041-0.43,0.062-0.678,0.062c-0.392,0-0.746-0.062-1.062-0.182
				c-0.316-0.118-0.586-0.304-0.81-0.552c-0.224-0.248-0.398-0.562-0.522-0.94s-0.186-0.83-0.186-1.352
				c0-0.96,0.216-1.704,0.648-2.23c0.432-0.528,1.024-0.792,1.776-0.792c0.768,0,1.364,0.256,1.788,0.768
				c0.424,0.512,0.636,1.208,0.636,2.088v0.396H103.039L103.039,584.276z M106.135,583.316c-0.008-0.089-0.018-0.168-0.03-0.24
				s-0.028-0.144-0.048-0.21c-0.02-0.068-0.046-0.144-0.078-0.224c-0.112-0.271-0.292-0.486-0.54-0.646s-0.528-0.24-0.84-0.24
				s-0.592,0.08-0.84,0.24c-0.248,0.16-0.428,0.376-0.54,0.646c-0.064,0.16-0.108,0.306-0.132,0.434s-0.04,0.312-0.048,0.552h3.12
				C106.151,583.508,106.143,583.404,106.135,583.316z"/>
			<path d="M114.415,587h-0.804l-1.548-4.584L110.527,587h-0.804l-1.872-5.904h0.936l1.356,4.74l1.548-4.74h0.744l1.56,4.74
				l1.344-4.74h0.936L114.415,587z"/>
			<path d="M121.573,586.034c-0.116,0.22-0.28,0.408-0.492,0.562c-0.212,0.156-0.464,0.274-0.756,0.354s-0.618,0.12-0.978,0.12
				c-0.504,0-0.952-0.064-1.344-0.192s-0.752-0.348-1.08-0.66l0.576-0.576c0.232,0.248,0.504,0.426,0.816,0.528
				c0.312,0.104,0.652,0.156,1.02,0.156c0.488,0,0.872-0.086,1.152-0.258c0.28-0.172,0.42-0.436,0.42-0.786
				c0-0.256-0.078-0.456-0.234-0.602c-0.156-0.144-0.406-0.23-0.75-0.264l-0.972-0.084c-0.576-0.048-1.014-0.202-1.314-0.462
				c-0.3-0.26-0.45-0.634-0.45-1.122c0-0.271,0.054-0.514,0.162-0.726s0.258-0.394,0.45-0.54c0.192-0.148,0.422-0.264,0.69-0.344
				c0.268-0.078,0.558-0.118,0.87-0.118c0.424,0,0.818,0.052,1.182,0.154c0.364,0.104,0.678,0.266,0.942,0.48l-0.564,0.562
				c-0.208-0.159-0.446-0.276-0.714-0.354s-0.554-0.114-0.858-0.114c-0.432,0-0.76,0.086-0.984,0.258
				c-0.224,0.173-0.336,0.41-0.336,0.714c0,0.258,0.078,0.456,0.234,0.602c0.156,0.144,0.422,0.231,0.798,0.264l0.948,0.084
				c0.256,0.024,0.492,0.068,0.708,0.132c0.216,0.064,0.4,0.16,0.552,0.288s0.27,0.288,0.354,0.48
				c0.084,0.19,0.126,0.424,0.126,0.695C121.747,585.56,121.688,585.814,121.573,586.034z"/>
			<path d="M126.259,584.168v-0.804h3.288v0.804H126.259z"/>
			<path d="M134.682,587v-8.544h0.912v7.728h4.368V587H134.682z"/>
			<path d="M144.75,587v-0.564c-0.24,0.24-0.486,0.406-0.738,0.498c-0.252,0.093-0.574,0.14-0.966,0.14
				c-0.408,0-0.742-0.042-1.002-0.126c-0.26-0.084-0.482-0.224-0.666-0.414c-0.144-0.146-0.254-0.322-0.33-0.534
				c-0.076-0.212-0.114-0.435-0.114-0.666c0-0.521,0.174-0.935,0.522-1.242s0.854-0.462,1.518-0.462h1.776v-0.562
				c0-0.434-0.116-0.758-0.348-0.974s-0.62-0.324-1.164-0.324c-0.384,0-0.684,0.052-0.9,0.15c-0.216,0.101-0.412,0.274-0.588,0.522
				l-0.588-0.54c0.264-0.346,0.558-0.576,0.882-0.696c0.324-0.12,0.726-0.18,1.206-0.18c0.8,0,1.394,0.166,1.782,0.498
				c0.388,0.332,0.582,0.82,0.582,1.47V587H144.75z M144.75,584.276h-1.656c-0.88,0-1.32,0.348-1.32,1.044
				c0,0.344,0.108,0.598,0.324,0.762c0.216,0.164,0.56,0.246,1.032,0.246c0.256,0,0.494-0.021,0.714-0.062
				c0.22-0.038,0.422-0.15,0.606-0.336c0.2-0.19,0.3-0.53,0.3-1.02V584.276z"/>
			<path d="M155.364,584.744c-0.021,0.231-0.056,0.458-0.108,0.678c-0.052,0.221-0.124,0.426-0.216,0.618s-0.214,0.364-0.366,0.516
				c-0.16,0.16-0.364,0.286-0.612,0.378c-0.248,0.093-0.524,0.14-0.828,0.14c-0.328,0-0.628-0.054-0.9-0.156
				c-0.272-0.104-0.528-0.312-0.768-0.624V587h-0.864v-8.544h0.864v3.324c0.24-0.306,0.496-0.506,0.768-0.606
				c0.272-0.1,0.572-0.148,0.9-0.148c0.304,0,0.58,0.046,0.828,0.138s0.452,0.218,0.612,0.378c0.152,0.152,0.274,0.324,0.366,0.516
				c0.092,0.192,0.164,0.398,0.216,0.618c0.052,0.221,0.088,0.446,0.108,0.678c0.02,0.232,0.03,0.466,0.03,0.696
				C155.394,584.28,155.384,584.512,155.364,584.744z M154.482,583.208c-0.032-0.271-0.1-0.512-0.204-0.72s-0.254-0.376-0.45-0.504
				c-0.196-0.128-0.454-0.192-0.774-0.192c-0.32,0-0.578,0.064-0.774,0.192c-0.196,0.128-0.346,0.296-0.45,0.504
				s-0.174,0.447-0.21,0.72s-0.054,0.552-0.054,0.84s0.018,0.568,0.054,0.84c0.036,0.272,0.106,0.514,0.21,0.722
				s0.254,0.376,0.45,0.504c0.196,0.128,0.454,0.19,0.774,0.19c0.32,0,0.578-0.062,0.774-0.19c0.196-0.128,0.346-0.296,0.45-0.504
				s0.172-0.448,0.204-0.722c0.032-0.271,0.048-0.552,0.048-0.84S154.514,583.48,154.482,583.208z"/>
			<path d="M157.194,579.416v-0.972h0.972v0.972H157.194z M157.242,587v-5.904h0.864V587H157.242z"/>
			<path d="M161.052,588.681c-0.06,0.192-0.152,0.361-0.276,0.509c-0.124,0.146-0.28,0.261-0.468,0.342s-0.41,0.122-0.666,0.122
				h-0.624v-0.77h0.468c0.304,0,0.512-0.071,0.624-0.216c0.112-0.144,0.168-0.36,0.168-0.648v-6.898h0.864v6.936
				C161.142,588.28,161.112,588.488,161.052,588.681z M160.23,579.416v-0.972h0.972v0.972H160.23z"/>
			<path d="M167.688,585.338c-0.092,0.404-0.286,0.758-0.582,1.062c-0.208,0.208-0.452,0.372-0.732,0.49
				c-0.28,0.12-0.6,0.182-0.96,0.182s-0.68-0.062-0.96-0.182c-0.28-0.118-0.524-0.282-0.732-0.49
				c-0.152-0.152-0.274-0.318-0.366-0.498c-0.092-0.182-0.164-0.368-0.216-0.564c-0.052-0.196-0.088-0.402-0.108-0.618
				c-0.02-0.216-0.03-0.438-0.03-0.672c0-0.224,0.01-0.444,0.03-0.666c0.02-0.22,0.056-0.428,0.108-0.624
				c0.052-0.195,0.124-0.384,0.216-0.562c0.092-0.182,0.214-0.348,0.366-0.498c0.208-0.208,0.452-0.372,0.732-0.492
				c0.28-0.12,0.6-0.18,0.96-0.18s0.68,0.06,0.96,0.18c0.28,0.12,0.524,0.284,0.732,0.492c0.296,0.304,0.49,0.658,0.582,1.062
				c0.092,0.404,0.138,0.834,0.138,1.29S167.78,584.935,167.688,585.338z M166.95,583.544c-0.008-0.168-0.028-0.332-0.06-0.492
				c-0.032-0.16-0.08-0.31-0.144-0.45c-0.064-0.14-0.148-0.266-0.252-0.378c-0.288-0.288-0.648-0.432-1.08-0.432
				c-0.424,0-0.78,0.144-1.068,0.432c-0.112,0.112-0.198,0.238-0.258,0.378c-0.06,0.142-0.108,0.29-0.144,0.45
				c-0.036,0.16-0.058,0.324-0.066,0.492c-0.008,0.168-0.012,0.336-0.012,0.504s0.004,0.336,0.012,0.504
				c0.008,0.168,0.03,0.332,0.066,0.492c0.036,0.16,0.084,0.312,0.144,0.456c0.06,0.145,0.146,0.27,0.258,0.372
				c0.288,0.288,0.644,0.432,1.068,0.432c0.432,0,0.792-0.144,1.08-0.432c0.104-0.104,0.188-0.229,0.252-0.372
				c0.064-0.144,0.112-0.296,0.144-0.456c0.032-0.16,0.052-0.324,0.06-0.492c0.008-0.168,0.012-0.336,0.012-0.504
				S166.958,583.712,166.95,583.544z"/>
			<path d="M173.394,587v-0.66c-0.207,0.24-0.453,0.422-0.735,0.546c-0.283,0.124-0.592,0.188-0.927,0.188
				c-0.646,0-1.152-0.186-1.519-0.553c-0.208-0.207-0.359-0.449-0.455-0.727c-0.096-0.277-0.144-0.586-0.144-0.93v-3.77h0.864v3.638
				c0,0.526,0.127,0.922,0.382,1.182c0.255,0.26,0.605,0.39,1.052,0.39c0.447,0,0.803-0.132,1.07-0.396
				c0.267-0.265,0.4-0.656,0.4-1.176v-3.638h0.876V587H173.394z"/>
			<path d="M178.074,587c-0.256,0-0.478-0.042-0.666-0.126s-0.344-0.198-0.468-0.342c-0.124-0.146-0.218-0.312-0.282-0.504
				c-0.064-0.192-0.096-0.396-0.096-0.612v-3.624h-0.744v-0.66h0.744v-1.848h0.864v1.848h1.26v0.66h-1.26v3.6
				c0,0.272,0.064,0.484,0.192,0.638c0.128,0.15,0.332,0.228,0.612,0.228h0.456V587H178.074z"/>
			<path d="M180.846,584.276c0,0.644,0.148,1.143,0.444,1.497c0.296,0.354,0.728,0.529,1.296,0.529c0.344,0,0.63-0.054,0.858-0.162
				c0.228-0.106,0.458-0.276,0.69-0.51l0.588,0.518c-0.152,0.151-0.302,0.285-0.45,0.398c-0.148,0.114-0.306,0.209-0.474,0.286
				c-0.168,0.078-0.354,0.137-0.558,0.177c-0.204,0.041-0.43,0.062-0.678,0.062c-0.392,0-0.746-0.062-1.062-0.182
				c-0.316-0.118-0.586-0.304-0.81-0.552s-0.398-0.562-0.522-0.94s-0.186-0.83-0.186-1.352c0-0.96,0.216-1.704,0.648-2.23
				c0.432-0.528,1.024-0.792,1.776-0.792c0.768,0,1.364,0.256,1.788,0.768c0.424,0.512,0.636,1.208,0.636,2.088v0.396H180.846
				L180.846,584.276z M183.941,583.316c-0.008-0.089-0.018-0.168-0.03-0.24c-0.012-0.072-0.028-0.144-0.048-0.21
				c-0.02-0.068-0.046-0.144-0.078-0.224c-0.112-0.271-0.292-0.486-0.54-0.646s-0.528-0.24-0.84-0.24s-0.592,0.08-0.84,0.24
				s-0.428,0.376-0.54,0.646c-0.064,0.16-0.108,0.306-0.132,0.434s-0.04,0.312-0.048,0.552h3.12
				C183.958,583.508,183.949,583.404,183.941,583.316z"/>
			<path d="M189.966,582.224c-0.16-0.158-0.312-0.271-0.456-0.336c-0.144-0.062-0.332-0.096-0.564-0.096
				c-0.216,0-0.412,0.04-0.588,0.12c-0.176,0.08-0.324,0.19-0.444,0.336c-0.12,0.144-0.214,0.312-0.282,0.504
				c-0.068,0.192-0.102,0.4-0.102,0.624V587h-0.864v-5.904h0.864v0.722c0.16-0.248,0.39-0.442,0.69-0.582
				c0.3-0.142,0.622-0.21,0.966-0.21c0.28,0,0.534,0.04,0.762,0.119c0.228,0.079,0.446,0.225,0.654,0.433L189.966,582.224z"/>
			<path d="M191.67,579.416v-0.972h0.972v0.972H191.67z M191.718,587v-5.904h0.864V587H191.718z"/>
			<path d="M195.294,584.276c0,0.644,0.148,1.143,0.444,1.497c0.296,0.354,0.728,0.529,1.296,0.529c0.344,0,0.63-0.054,0.858-0.162
				c0.228-0.106,0.458-0.276,0.69-0.51l0.588,0.518c-0.152,0.151-0.302,0.285-0.45,0.398c-0.148,0.114-0.306,0.209-0.474,0.286
				c-0.168,0.078-0.354,0.137-0.558,0.177c-0.204,0.041-0.43,0.062-0.678,0.062c-0.392,0-0.746-0.062-1.062-0.182
				c-0.316-0.118-0.586-0.304-0.81-0.552c-0.224-0.248-0.398-0.562-0.522-0.94s-0.186-0.83-0.186-1.352
				c0-0.96,0.216-1.704,0.648-2.23c0.432-0.528,1.024-0.792,1.776-0.792c0.768,0,1.364,0.256,1.788,0.768
				c0.424,0.512,0.636,1.208,0.636,2.088v0.396H195.294L195.294,584.276z M198.39,583.316c-0.008-0.089-0.018-0.168-0.03-0.24
				c-0.012-0.072-0.028-0.144-0.048-0.21c-0.02-0.068-0.046-0.144-0.078-0.224c-0.112-0.271-0.292-0.486-0.54-0.646
				s-0.528-0.24-0.84-0.24s-0.592,0.08-0.84,0.24s-0.428,0.376-0.54,0.646c-0.064,0.16-0.108,0.306-0.132,0.434
				c-0.024,0.128-0.04,0.312-0.048,0.552h3.12C198.406,583.508,198.397,583.404,198.39,583.316z"/>
			<path d="M210.666,587v-6.492l-2.34,5.148h-0.78l-2.376-5.148V587h-0.912v-8.544h0.912l2.784,6.06l2.712-6.06h0.912V587H210.666z"
				/>
			<path d="M217.193,582.224c-0.16-0.158-0.312-0.271-0.456-0.336c-0.144-0.062-0.332-0.096-0.564-0.096
				c-0.216,0-0.412,0.04-0.588,0.12s-0.324,0.19-0.444,0.336c-0.12,0.144-0.214,0.312-0.282,0.504s-0.102,0.4-0.102,0.624V587
				h-0.864v-5.904h0.864v0.722c0.16-0.248,0.39-0.442,0.69-0.582c0.3-0.142,0.622-0.21,0.966-0.21c0.28,0,0.534,0.04,0.762,0.119
				c0.228,0.079,0.446,0.225,0.654,0.433L217.193,582.224z"/>
			<path d="M227.765,587l-0.768-0.936c-0.088,0.08-0.204,0.178-0.348,0.294c-0.144,0.114-0.32,0.226-0.528,0.33
				c-0.208,0.104-0.448,0.192-0.72,0.27s-0.58,0.114-0.924,0.114c-0.416,0-0.79-0.062-1.122-0.182
				c-0.332-0.118-0.616-0.287-0.852-0.504c-0.236-0.216-0.416-0.476-0.54-0.778c-0.124-0.306-0.186-0.646-0.186-1.021
				c0-0.319,0.052-0.604,0.156-0.852s0.242-0.474,0.414-0.672c0.172-0.2,0.37-0.384,0.594-0.548
				c0.224-0.162,0.452-0.324,0.684-0.484c-0.104-0.128-0.21-0.26-0.318-0.396c-0.108-0.136-0.208-0.278-0.3-0.432
				c-0.092-0.152-0.166-0.314-0.222-0.486c-0.056-0.172-0.084-0.354-0.084-0.546c0-0.256,0.046-0.492,0.138-0.708
				c0.092-0.216,0.223-0.403,0.392-0.562c0.168-0.16,0.369-0.286,0.602-0.378c0.233-0.094,0.485-0.14,0.758-0.14
				c0.265,0,0.512,0.046,0.741,0.14c0.229,0.092,0.427,0.218,0.596,0.378c0.169,0.159,0.299,0.35,0.391,0.568
				c0.092,0.222,0.139,0.458,0.139,0.714c0,0.346-0.09,0.64-0.27,0.884c-0.18,0.243-0.406,0.458-0.678,0.642
				c-0.008,0.008-0.048,0.034-0.12,0.078c-0.072,0.044-0.16,0.102-0.264,0.174s-0.188,0.132-0.252,0.18l2.172,2.628
				c0.088-0.128,0.162-0.258,0.222-0.39s0.108-0.272,0.144-0.426s0.064-0.32,0.084-0.504c0.02-0.186,0.03-0.396,0.03-0.638h0.864
				c-0.008,0.545-0.072,1.032-0.192,1.466c-0.12,0.432-0.32,0.814-0.6,1.15l1.308,1.572L227.765,587L227.765,587z M224.129,582.608
				c-0.184,0.128-0.364,0.256-0.54,0.384c-0.176,0.128-0.332,0.268-0.468,0.42c-0.136,0.151-0.246,0.322-0.33,0.51
				c-0.084,0.188-0.126,0.402-0.126,0.643c0,0.257,0.044,0.487,0.132,0.695s0.212,0.389,0.372,0.54c0.16,0.152,0.35,0.27,0.57,0.349
				c0.22,0.08,0.462,0.119,0.726,0.119c0.32,0,0.644-0.056,0.972-0.168c0.328-0.11,0.676-0.331,1.044-0.658L224.129,582.608z
				 M225.305,579.446c-0.192-0.196-0.432-0.294-0.72-0.294c-0.296,0-0.534,0.094-0.714,0.28c-0.18,0.188-0.27,0.428-0.27,0.716
				c0,0.198,0.058,0.396,0.174,0.594c0.116,0.195,0.314,0.466,0.594,0.81c0.048-0.03,0.11-0.073,0.186-0.126
				c0.076-0.052,0.138-0.094,0.186-0.126c0.048-0.03,0.076-0.052,0.084-0.06c0.2-0.136,0.378-0.286,0.534-0.45
				c0.156-0.164,0.234-0.37,0.234-0.618C225.593,579.884,225.497,579.643,225.305,579.446z"/>
			<path d="M240.353,587v-6.492l-2.34,5.148h-0.78l-2.376-5.148V587h-0.912v-8.544h0.912l2.784,6.06l2.712-6.06h0.912V587H240.353z"
				/>
			<path d="M246.881,582.224c-0.16-0.158-0.312-0.271-0.456-0.336c-0.144-0.062-0.332-0.096-0.564-0.096
				c-0.216,0-0.412,0.04-0.588,0.12c-0.176,0.08-0.324,0.19-0.444,0.336c-0.12,0.144-0.214,0.312-0.282,0.504
				c-0.068,0.192-0.102,0.4-0.102,0.624V587h-0.864v-5.904h0.864v0.722c0.16-0.248,0.39-0.442,0.69-0.582
				c0.3-0.142,0.622-0.21,0.966-0.21c0.28,0,0.534,0.04,0.762,0.119s0.446,0.225,0.654,0.433L246.881,582.224z"/>
			<path d="M252.599,586.034c-0.116,0.22-0.28,0.408-0.492,0.562c-0.212,0.156-0.464,0.274-0.756,0.354s-0.618,0.12-0.978,0.12
				c-0.504,0-0.952-0.064-1.344-0.192c-0.392-0.128-0.752-0.348-1.08-0.66l0.576-0.576c0.232,0.248,0.504,0.426,0.816,0.528
				c0.312,0.104,0.652,0.156,1.02,0.156c0.488,0,0.872-0.086,1.152-0.258c0.28-0.172,0.42-0.436,0.42-0.786
				c0-0.256-0.078-0.456-0.234-0.602c-0.156-0.144-0.406-0.23-0.75-0.264l-0.972-0.084c-0.576-0.048-1.014-0.202-1.314-0.462
				s-0.45-0.634-0.45-1.122c0-0.271,0.054-0.514,0.162-0.726s0.258-0.394,0.45-0.54c0.192-0.148,0.422-0.264,0.69-0.344
				c0.268-0.078,0.558-0.118,0.87-0.118c0.424,0,0.818,0.052,1.182,0.154c0.364,0.104,0.678,0.266,0.942,0.48l-0.564,0.562
				c-0.208-0.159-0.446-0.276-0.714-0.354s-0.554-0.114-0.858-0.114c-0.432,0-0.76,0.086-0.984,0.258
				c-0.224,0.173-0.336,0.41-0.336,0.714c0,0.258,0.078,0.456,0.234,0.602c0.156,0.144,0.422,0.231,0.798,0.264l0.948,0.084
				c0.256,0.024,0.492,0.068,0.708,0.132c0.216,0.064,0.4,0.16,0.552,0.288s0.27,0.288,0.354,0.48
				c0.084,0.19,0.126,0.424,0.126,0.695C252.773,585.56,252.715,585.814,252.599,586.034z"/>
			<path d="M77.929,600.435c-0.116,0.221-0.28,0.408-0.492,0.563c-0.212,0.156-0.464,0.273-0.756,0.354s-0.618,0.12-0.978,0.12
				c-0.504,0-0.952-0.063-1.344-0.191s-0.752-0.349-1.08-0.66l0.576-0.576c0.232,0.248,0.504,0.425,0.816,0.528
				s0.652,0.156,1.02,0.156c0.488,0,0.872-0.087,1.152-0.259c0.28-0.172,0.42-0.435,0.42-0.786c0-0.256-0.078-0.455-0.234-0.601
				c-0.156-0.144-0.406-0.231-0.75-0.264l-0.972-0.084c-0.576-0.048-1.014-0.202-1.314-0.462c-0.3-0.261-0.45-0.635-0.45-1.122
				c0-0.271,0.054-0.515,0.162-0.727s0.258-0.393,0.45-0.54c0.192-0.147,0.422-0.263,0.69-0.343c0.268-0.079,0.558-0.119,0.87-0.119
				c0.424,0,0.818,0.052,1.182,0.155c0.364,0.104,0.678,0.265,0.942,0.479l-0.564,0.563c-0.208-0.159-0.446-0.277-0.714-0.354
				c-0.268-0.076-0.554-0.113-0.858-0.113c-0.432,0-0.76,0.086-0.984,0.258c-0.224,0.173-0.336,0.41-0.336,0.714
				c0,0.257,0.078,0.456,0.234,0.601c0.156,0.145,0.422,0.232,0.798,0.265l0.948,0.084c0.256,0.023,0.492,0.067,0.708,0.132
				c0.216,0.063,0.4,0.16,0.552,0.288s0.27,0.288,0.354,0.479s0.126,0.425,0.126,0.696C78.103,599.96,78.045,600.215,77.929,600.435
				z"/>
			<path d="M79.195,594.812v-1.956h1.044v1.008L79.195,594.812z"/>
			<path d="M82.915,598.677c0,0.645,0.148,1.144,0.444,1.497c0.296,0.354,0.728,0.53,1.296,0.53c0.344,0,0.63-0.054,0.858-0.162
				c0.228-0.106,0.458-0.277,0.69-0.51l0.588,0.517c-0.152,0.152-0.302,0.286-0.45,0.399c-0.148,0.114-0.306,0.209-0.474,0.286
				c-0.168,0.078-0.354,0.137-0.558,0.177c-0.204,0.041-0.43,0.062-0.678,0.062c-0.392,0-0.746-0.061-1.062-0.181
				c-0.316-0.119-0.586-0.304-0.81-0.552c-0.224-0.248-0.398-0.562-0.522-0.941s-0.186-0.83-0.186-1.351
				c0-0.96,0.216-1.704,0.648-2.231c0.432-0.527,1.024-0.792,1.776-0.792c0.768,0,1.364,0.256,1.788,0.769
				c0.424,0.512,0.636,1.208,0.636,2.088v0.396H82.915L82.915,598.677z M86.011,597.717c-0.008-0.088-0.018-0.168-0.03-0.24
				c-0.012-0.071-0.028-0.143-0.048-0.21s-0.046-0.143-0.078-0.223c-0.112-0.271-0.292-0.487-0.54-0.647
				c-0.248-0.159-0.528-0.239-0.84-0.239s-0.592,0.08-0.84,0.239c-0.248,0.16-0.428,0.377-0.54,0.647
				c-0.064,0.16-0.108,0.305-0.132,0.433s-0.04,0.312-0.048,0.553h3.12C86.027,597.908,86.019,597.805,86.011,597.717z"/>
			<path d="M92.821,600.435c-0.116,0.221-0.28,0.408-0.492,0.563c-0.212,0.156-0.464,0.273-0.756,0.354s-0.618,0.12-0.978,0.12
				c-0.504,0-0.952-0.063-1.344-0.191s-0.752-0.349-1.08-0.66l0.576-0.576c0.232,0.248,0.504,0.425,0.816,0.528
				s0.652,0.156,1.02,0.156c0.488,0,0.872-0.087,1.152-0.259c0.28-0.172,0.42-0.435,0.42-0.786c0-0.256-0.078-0.455-0.234-0.601
				c-0.156-0.144-0.406-0.231-0.75-0.264l-0.972-0.084c-0.576-0.048-1.014-0.202-1.314-0.462c-0.3-0.261-0.45-0.635-0.45-1.122
				c0-0.271,0.054-0.515,0.162-0.727c0.108-0.212,0.258-0.393,0.45-0.54s0.422-0.263,0.69-0.343c0.268-0.079,0.558-0.119,0.87-0.119
				c0.424,0,0.818,0.052,1.182,0.155c0.364,0.104,0.678,0.265,0.942,0.479l-0.564,0.563c-0.208-0.159-0.446-0.277-0.714-0.354
				c-0.268-0.076-0.554-0.113-0.858-0.113c-0.432,0-0.76,0.086-0.984,0.258c-0.224,0.173-0.336,0.41-0.336,0.714
				c0,0.257,0.078,0.456,0.234,0.601c0.156,0.145,0.422,0.232,0.798,0.265l0.948,0.084c0.256,0.023,0.492,0.067,0.708,0.132
				c0.216,0.063,0.4,0.16,0.552,0.288c0.152,0.128,0.27,0.288,0.354,0.479s0.126,0.425,0.126,0.696
				C92.995,599.96,92.937,600.215,92.821,600.435z"/>
			<path d="M96.223,601.4c-0.256,0-0.478-0.042-0.666-0.126s-0.344-0.198-0.468-0.343s-0.218-0.312-0.282-0.504
				c-0.064-0.191-0.096-0.396-0.096-0.611v-3.624h-0.744v-0.66h0.744v-1.849h0.864v1.849h1.26v0.66h-1.26v3.6
				c0,0.272,0.064,0.484,0.192,0.637c0.128,0.151,0.332,0.229,0.612,0.229h0.456v0.744L96.223,601.4L96.223,601.4z"/>
			<path d="M102.595,596.192v5.208h-0.864v-5.208h-0.756v-0.66h0.756v-1.116c0-0.216,0.03-0.42,0.09-0.611
				c0.06-0.191,0.154-0.359,0.282-0.504s0.284-0.259,0.468-0.343c0.184-0.084,0.404-0.126,0.66-0.126h0.624v0.744h-0.468
				c-0.28,0-0.482,0.076-0.606,0.229c-0.124,0.151-0.186,0.364-0.186,0.637v1.092h1.26v0.66L102.595,596.192L102.595,596.192z"/>
			<path d="M108.427,601.4v-0.564c-0.24,0.24-0.486,0.406-0.738,0.498s-0.574,0.139-0.966,0.139c-0.408,0-0.742-0.042-1.002-0.126
				c-0.26-0.084-0.482-0.223-0.666-0.414c-0.144-0.145-0.254-0.321-0.33-0.533c-0.076-0.212-0.114-0.435-0.114-0.666
				c0-0.521,0.174-0.935,0.522-1.242c0.348-0.309,0.854-0.462,1.518-0.462h1.776v-0.563c0-0.433-0.116-0.757-0.348-0.973
				s-0.62-0.324-1.164-0.324c-0.384,0-0.684,0.051-0.9,0.15c-0.216,0.101-0.412,0.273-0.588,0.521l-0.588-0.54
				c0.264-0.345,0.558-0.576,0.882-0.695c0.324-0.12,0.726-0.181,1.206-0.181c0.8,0,1.394,0.166,1.782,0.498s0.582,0.821,0.582,1.47
				v4.009L108.427,601.4L108.427,601.4z M108.427,598.677h-1.656c-0.88,0-1.32,0.349-1.32,1.044c0,0.345,0.108,0.599,0.324,0.763
				c0.216,0.164,0.56,0.245,1.032,0.245c0.256,0,0.494-0.02,0.714-0.061c0.22-0.039,0.422-0.151,0.606-0.336
				c0.2-0.191,0.3-0.531,0.3-1.02V598.677z"/>
			<path d="M111.343,593.816v-0.973h0.972v0.973H111.343z M111.391,601.4v-5.904h0.864v5.904H111.391z"/>
			<path d="M116.082,601.4c-0.256,0-0.478-0.042-0.666-0.126s-0.344-0.198-0.468-0.343c-0.124-0.145-0.218-0.312-0.282-0.504
				c-0.064-0.191-0.096-0.396-0.096-0.611v-3.624h-0.744v-0.66h0.744v-1.849h0.864v1.849h1.26v0.66h-1.26v3.6
				c0,0.272,0.064,0.484,0.192,0.637c0.128,0.151,0.332,0.229,0.612,0.229h0.456v0.744L116.082,601.4L116.082,601.4z"/>
			<path d="M124.74,601.28c-0.292,0.128-0.642,0.191-1.05,0.191c-0.376,0-0.722-0.062-1.038-0.187s-0.592-0.312-0.828-0.563
				c-0.236-0.251-0.42-0.567-0.552-0.947s-0.198-0.822-0.198-1.326s0.066-0.943,0.198-1.32c0.132-0.375,0.316-0.688,0.552-0.94
				c0.236-0.252,0.512-0.442,0.828-0.57s0.662-0.191,1.038-0.191c0.408,0,0.758,0.063,1.05,0.191s0.59,0.355,0.894,0.685
				l-0.588,0.553c-0.224-0.248-0.436-0.421-0.636-0.518c-0.2-0.096-0.44-0.144-0.72-0.144c-0.288,0-0.548,0.056-0.78,0.168
				c-0.232,0.111-0.428,0.279-0.588,0.504c-0.136,0.191-0.234,0.41-0.294,0.654c-0.06,0.243-0.09,0.554-0.09,0.93
				s0.03,0.687,0.09,0.93c0.06,0.244,0.158,0.463,0.294,0.654c0.16,0.225,0.356,0.393,0.588,0.504
				c0.232,0.112,0.492,0.168,0.78,0.168c0.28,0,0.52-0.05,0.72-0.148c0.2-0.102,0.412-0.274,0.636-0.522l0.588,0.564
				C125.33,600.925,125.032,601.152,124.74,601.28z"/>
			<path d="M130.482,601.4v-0.564c-0.24,0.24-0.486,0.406-0.738,0.498s-0.574,0.139-0.966,0.139c-0.408,0-0.742-0.042-1.002-0.126
				c-0.26-0.084-0.482-0.223-0.666-0.414c-0.144-0.145-0.254-0.321-0.33-0.533c-0.076-0.212-0.114-0.435-0.114-0.666
				c0-0.521,0.174-0.935,0.522-1.242c0.348-0.309,0.854-0.462,1.518-0.462h1.776v-0.563c0-0.433-0.116-0.757-0.348-0.973
				c-0.232-0.216-0.62-0.324-1.164-0.324c-0.384,0-0.684,0.051-0.9,0.15c-0.216,0.101-0.412,0.273-0.588,0.521l-0.588-0.54
				c0.264-0.345,0.558-0.576,0.882-0.695c0.324-0.12,0.726-0.181,1.206-0.181c0.8,0,1.394,0.166,1.782,0.498
				c0.388,0.332,0.582,0.821,0.582,1.47v4.009L130.482,601.4L130.482,601.4z M130.482,598.677h-1.656c-0.88,0-1.32,0.349-1.32,1.044
				c0,0.345,0.108,0.599,0.324,0.763c0.216,0.164,0.56,0.245,1.032,0.245c0.256,0,0.494-0.02,0.714-0.061
				c0.22-0.039,0.422-0.151,0.606-0.336c0.2-0.191,0.3-0.531,0.3-1.02V598.677z"/>
			<path d="M141.03,601.4v-3.637c0-0.527-0.13-0.922-0.39-1.183c-0.26-0.26-0.614-0.39-1.062-0.39c-0.432,0-0.786,0.128-1.062,0.384
				s-0.414,0.62-0.414,1.092v3.732h-0.864v-3.637c0-0.527-0.13-0.922-0.39-1.183c-0.26-0.26-0.614-0.39-1.062-0.39
				c-0.448,0-0.806,0.132-1.074,0.396c-0.269,0.264-0.402,0.655-0.402,1.176v3.637h-0.864v-5.904h0.864v0.647
				c0.208-0.239,0.454-0.42,0.738-0.54c0.284-0.119,0.594-0.18,0.93-0.18c0.408,0,0.766,0.082,1.074,0.245
				c0.308,0.164,0.554,0.41,0.738,0.738c0.464-0.655,1.112-0.983,1.944-0.983c0.32,0,0.608,0.048,0.864,0.145
				c0.256,0.096,0.476,0.231,0.66,0.407c0.424,0.408,0.636,0.956,0.636,1.645v3.78h-0.864V601.4z"/>
			<path d="M148.656,599.145c-0.02,0.232-0.056,0.459-0.108,0.679c-0.052,0.221-0.124,0.426-0.216,0.618
				c-0.092,0.191-0.214,0.363-0.366,0.516c-0.16,0.16-0.364,0.286-0.612,0.378s-0.524,0.139-0.828,0.139
				c-0.328,0-0.628-0.053-0.9-0.155c-0.272-0.104-0.528-0.312-0.768-0.624v0.708h-0.864v-8.545h0.864v3.324
				c0.24-0.305,0.496-0.506,0.768-0.605c0.272-0.101,0.572-0.149,0.9-0.149c0.304,0,0.58,0.046,0.828,0.138
				c0.248,0.093,0.452,0.219,0.612,0.379c0.152,0.151,0.274,0.323,0.366,0.516c0.092,0.191,0.164,0.397,0.216,0.618
				c0.052,0.221,0.088,0.445,0.108,0.678c0.02,0.231,0.03,0.465,0.03,0.696C148.686,598.681,148.676,598.912,148.656,599.145z
				 M147.774,597.608c-0.032-0.271-0.1-0.513-0.204-0.721s-0.254-0.376-0.45-0.504c-0.196-0.128-0.454-0.191-0.774-0.191
				c-0.32,0-0.578,0.063-0.774,0.191c-0.196,0.128-0.346,0.296-0.45,0.504s-0.174,0.448-0.21,0.721
				c-0.036,0.271-0.054,0.552-0.054,0.84s0.018,0.567,0.054,0.84c0.036,0.271,0.106,0.513,0.21,0.721s0.254,0.376,0.45,0.504
				c0.196,0.128,0.454,0.191,0.774,0.191c0.32,0,0.578-0.063,0.774-0.191c0.196-0.128,0.346-0.296,0.45-0.504
				s0.172-0.448,0.204-0.721c0.032-0.271,0.048-0.552,0.048-0.84S147.806,597.881,147.774,597.608z"/>
			<path d="M153.833,596.624c-0.16-0.159-0.312-0.271-0.456-0.336c-0.144-0.063-0.332-0.096-0.564-0.096
				c-0.216,0-0.412,0.04-0.588,0.12c-0.176,0.079-0.324,0.19-0.444,0.336c-0.12,0.144-0.214,0.312-0.282,0.504
				c-0.068,0.191-0.102,0.399-0.102,0.624v3.624h-0.864v-5.904h0.864v0.721c0.16-0.248,0.39-0.441,0.69-0.582
				c0.3-0.141,0.622-0.21,0.966-0.21c0.28,0,0.534,0.04,0.762,0.119c0.228,0.08,0.446,0.226,0.654,0.434L153.833,596.624z"/>
			<path d="M155.538,593.816v-0.973h0.972v0.973H155.538z M155.586,601.4v-5.904h0.864v5.904H155.586z"/>
			<path d="M162.996,599.738c-0.092,0.403-0.286,0.758-0.582,1.062c-0.208,0.208-0.452,0.372-0.732,0.491
				c-0.28,0.12-0.6,0.181-0.96,0.181c-0.36,0-0.68-0.061-0.96-0.181c-0.28-0.119-0.524-0.283-0.732-0.491
				c-0.152-0.151-0.274-0.317-0.366-0.498s-0.164-0.368-0.216-0.563c-0.052-0.196-0.088-0.402-0.108-0.618s-0.03-0.439-0.03-0.672
				c0-0.225,0.01-0.445,0.03-0.666c0.02-0.22,0.056-0.429,0.108-0.624c0.052-0.195,0.124-0.384,0.216-0.563
				c0.092-0.181,0.214-0.347,0.366-0.498c0.208-0.208,0.452-0.372,0.732-0.491c0.28-0.12,0.6-0.181,0.96-0.181
				c0.36,0,0.68,0.061,0.96,0.181c0.28,0.119,0.524,0.283,0.732,0.491c0.296,0.305,0.49,0.658,0.582,1.062
				c0.092,0.403,0.138,0.834,0.138,1.29S163.087,599.335,162.996,599.738z M162.257,597.944c-0.008-0.168-0.028-0.332-0.06-0.492
				c-0.032-0.16-0.08-0.311-0.144-0.45s-0.148-0.266-0.252-0.378c-0.288-0.288-0.648-0.432-1.08-0.432
				c-0.424,0-0.78,0.144-1.068,0.432c-0.112,0.112-0.198,0.238-0.258,0.378c-0.06,0.141-0.108,0.29-0.144,0.45
				s-0.058,0.324-0.066,0.492s-0.012,0.336-0.012,0.504s0.004,0.336,0.012,0.504s0.03,0.332,0.066,0.492s0.084,0.312,0.144,0.456
				c0.06,0.144,0.146,0.269,0.258,0.372c0.288,0.288,0.644,0.432,1.068,0.432c0.432,0,0.792-0.144,1.08-0.432
				c0.104-0.104,0.188-0.229,0.252-0.372c0.064-0.145,0.112-0.297,0.144-0.456c0.032-0.16,0.052-0.324,0.06-0.492
				c0.008-0.168,0.012-0.336,0.012-0.504S162.265,598.112,162.257,597.944z"/>
			<path d="M166.458,601.4c-0.521,0-0.9-0.15-1.14-0.45c-0.24-0.3-0.36-0.674-0.36-1.122v-6.972h0.864v6.936
				c0,0.288,0.056,0.505,0.168,0.648c0.112,0.143,0.32,0.216,0.624,0.216h0.468v0.744H166.458z"/>
			<path d="M168.786,598.677c0,0.645,0.148,1.144,0.444,1.497c0.296,0.354,0.728,0.53,1.296,0.53c0.344,0,0.63-0.054,0.858-0.162
				c0.228-0.106,0.458-0.277,0.69-0.51l0.588,0.517c-0.152,0.152-0.302,0.286-0.45,0.399c-0.148,0.114-0.306,0.209-0.474,0.286
				c-0.168,0.078-0.354,0.137-0.558,0.177c-0.204,0.041-0.43,0.062-0.678,0.062c-0.392,0-0.746-0.061-1.062-0.181
				c-0.316-0.119-0.586-0.304-0.81-0.552c-0.224-0.248-0.398-0.562-0.522-0.941s-0.186-0.83-0.186-1.351
				c0-0.96,0.216-1.704,0.648-2.231c0.432-0.527,1.024-0.792,1.776-0.792c0.768,0,1.364,0.256,1.788,0.769
				c0.424,0.512,0.636,1.208,0.636,2.088v0.396H168.786L168.786,598.677z M171.881,597.717c-0.008-0.088-0.018-0.168-0.03-0.24
				c-0.012-0.071-0.028-0.143-0.048-0.21c-0.02-0.067-0.046-0.143-0.078-0.223c-0.112-0.271-0.292-0.487-0.54-0.647
				c-0.248-0.159-0.528-0.239-0.84-0.239s-0.592,0.08-0.84,0.239c-0.248,0.16-0.428,0.377-0.54,0.647
				c-0.064,0.16-0.108,0.305-0.132,0.433s-0.04,0.312-0.048,0.553h3.12C171.897,597.908,171.889,597.805,171.881,597.717z"/>
			<path d="M177.905,596.624c-0.16-0.159-0.312-0.271-0.456-0.336c-0.144-0.063-0.332-0.096-0.564-0.096
				c-0.216,0-0.412,0.04-0.588,0.12c-0.176,0.079-0.324,0.19-0.444,0.336c-0.12,0.144-0.214,0.312-0.282,0.504
				c-0.068,0.191-0.102,0.399-0.102,0.624v3.624h-0.864v-5.904h0.864v0.721c0.16-0.248,0.39-0.441,0.69-0.582
				c0.3-0.141,0.622-0.21,0.966-0.21c0.28,0,0.534,0.04,0.762,0.119c0.228,0.08,0.446,0.226,0.654,0.434L177.905,596.624z"/>
			<path d="M185.987,601.28c-0.292,0.128-0.642,0.191-1.05,0.191c-0.376,0-0.722-0.062-1.038-0.187s-0.592-0.312-0.828-0.563
				c-0.236-0.251-0.42-0.567-0.552-0.947s-0.198-0.822-0.198-1.326s0.066-0.943,0.198-1.32c0.132-0.375,0.316-0.688,0.552-0.94
				c0.236-0.252,0.512-0.442,0.828-0.57s0.662-0.191,1.038-0.191c0.408,0,0.758,0.063,1.05,0.191s0.59,0.355,0.894,0.685
				l-0.588,0.553c-0.224-0.248-0.436-0.421-0.636-0.518c-0.2-0.096-0.44-0.144-0.72-0.144c-0.288,0-0.548,0.056-0.78,0.168
				c-0.232,0.111-0.428,0.279-0.588,0.504c-0.136,0.191-0.234,0.41-0.294,0.654c-0.06,0.243-0.09,0.554-0.09,0.93
				s0.03,0.687,0.09,0.93c0.06,0.244,0.158,0.463,0.294,0.654c0.16,0.225,0.356,0.393,0.588,0.504
				c0.232,0.112,0.492,0.168,0.78,0.168c0.28,0,0.52-0.05,0.72-0.148c0.2-0.102,0.412-0.274,0.636-0.522l0.588,0.564
				C186.577,600.925,186.279,601.152,185.987,601.28z"/>
			<path d="M188.885,598.677c0,0.645,0.148,1.144,0.444,1.497c0.296,0.354,0.728,0.53,1.296,0.53c0.344,0,0.63-0.054,0.858-0.162
				c0.228-0.106,0.458-0.277,0.69-0.51l0.588,0.517c-0.152,0.152-0.302,0.286-0.45,0.399c-0.148,0.114-0.306,0.209-0.474,0.286
				c-0.168,0.078-0.354,0.137-0.558,0.177c-0.204,0.041-0.43,0.062-0.678,0.062c-0.392,0-0.746-0.061-1.062-0.181
				c-0.316-0.119-0.586-0.304-0.81-0.552s-0.398-0.562-0.522-0.941s-0.186-0.83-0.186-1.351c0-0.96,0.216-1.704,0.648-2.231
				s1.024-0.792,1.776-0.792c0.768,0,1.364,0.256,1.788,0.769c0.424,0.512,0.636,1.208,0.636,2.088v0.396H188.885L188.885,598.677z
				 M191.981,597.717c-0.008-0.088-0.018-0.168-0.03-0.24c-0.012-0.071-0.028-0.143-0.048-0.21s-0.046-0.143-0.078-0.223
				c-0.112-0.271-0.292-0.487-0.54-0.647c-0.248-0.159-0.528-0.239-0.84-0.239s-0.592,0.08-0.84,0.239
				c-0.248,0.16-0.428,0.377-0.54,0.647c-0.064,0.16-0.108,0.305-0.132,0.433s-0.04,0.312-0.048,0.553h3.12
				C191.997,597.908,191.989,597.805,191.981,597.717z"/>
			<path d="M205.277,601.4v-3.637c0-0.527-0.13-0.922-0.39-1.183c-0.26-0.26-0.614-0.39-1.062-0.39
				c-0.432,0-0.786,0.128-1.062,0.384c-0.276,0.256-0.414,0.62-0.414,1.092v3.732h-0.864v-3.637c0-0.527-0.13-0.922-0.39-1.183
				c-0.26-0.26-0.614-0.39-1.062-0.39c-0.448,0-0.806,0.132-1.074,0.396c-0.269,0.264-0.402,0.655-0.402,1.176v3.637h-0.864v-5.904
				h0.864v0.647c0.208-0.239,0.454-0.42,0.738-0.54c0.284-0.119,0.594-0.18,0.93-0.18c0.408,0,0.766,0.082,1.074,0.245
				c0.308,0.164,0.554,0.41,0.738,0.738c0.464-0.655,1.112-0.983,1.944-0.983c0.32,0,0.608,0.048,0.864,0.145
				c0.256,0.096,0.476,0.231,0.66,0.407c0.424,0.408,0.636,0.956,0.636,1.645v3.78h-0.864V601.4z"/>
			<path d="M211.589,601.4v-0.564c-0.24,0.24-0.486,0.406-0.738,0.498s-0.574,0.139-0.966,0.139c-0.408,0-0.742-0.042-1.002-0.126
				c-0.26-0.084-0.482-0.223-0.666-0.414c-0.144-0.145-0.254-0.321-0.33-0.533c-0.076-0.212-0.114-0.435-0.114-0.666
				c0-0.521,0.174-0.935,0.522-1.242c0.348-0.309,0.854-0.462,1.518-0.462h1.776v-0.563c0-0.433-0.116-0.757-0.348-0.973
				c-0.232-0.216-0.62-0.324-1.164-0.324c-0.384,0-0.684,0.051-0.9,0.15c-0.216,0.101-0.412,0.273-0.588,0.521l-0.588-0.54
				c0.264-0.345,0.558-0.576,0.882-0.695c0.324-0.12,0.726-0.181,1.206-0.181c0.8,0,1.394,0.166,1.782,0.498
				c0.388,0.332,0.582,0.821,0.582,1.47v4.009L211.589,601.4L211.589,601.4z M211.589,598.677h-1.656c-0.88,0-1.32,0.349-1.32,1.044
				c0,0.345,0.108,0.599,0.324,0.763s0.56,0.245,1.032,0.245c0.256,0,0.494-0.02,0.714-0.061c0.22-0.039,0.422-0.151,0.606-0.336
				c0.2-0.191,0.3-0.531,0.3-1.02V598.677z"/>
			<path d="M216.209,601.4c-0.256,0-0.478-0.042-0.666-0.126s-0.344-0.198-0.468-0.343s-0.218-0.312-0.282-0.504
				c-0.064-0.191-0.096-0.396-0.096-0.611v-3.624h-0.744v-0.66h0.744v-1.849h0.864v1.849h1.26v0.66h-1.26v3.6
				c0,0.272,0.064,0.484,0.192,0.637c0.128,0.151,0.332,0.229,0.612,0.229h0.456v0.744L216.209,601.4L216.209,601.4z"/>
			<path d="M218.489,593.816v-0.973h0.972v0.973H218.489z M218.537,601.4v-5.904h0.864v5.904H218.537z"/>
			<path d="M225.353,601.4v-3.637c0-0.527-0.13-0.922-0.39-1.183c-0.26-0.26-0.614-0.39-1.062-0.39
				c-0.448,0-0.804,0.132-1.068,0.396s-0.396,0.655-0.396,1.176v3.637h-0.864v-5.904h0.864v0.647
				c0.208-0.239,0.452-0.42,0.732-0.539c0.28-0.12,0.588-0.181,0.924-0.181c0.64,0,1.144,0.185,1.512,0.552
				c0.408,0.4,0.612,0.948,0.612,1.645v3.78L225.353,601.4L225.353,601.4z"/>
		</g>
	</g>
</g>
<g id="Calque_5" display="none">
	<g display="inline">
		<path fill="#92BEFF" d="M502.396,468.222l-87.854,23.112L325,635.667l131,111.334v-40L543,618V461L502.396,468.222z M456,692.5
			l-58.729-58.833L456,555V692.5z"/>
		<rect x="456" y="618" fill="#92BEFF" width="172" height="149"/>
		<path fill="#0548A8" d="M594.539,348.262l8.339-27.856c0,0-34.106,6.295-59.698-2.279c0,0-36.239,9.931-60.426-1.046l5.917,31.1
			L594.539,348.262z"/>
		<rect x="488" y="348" width="106" height="6"/>
		<polyline fill="#EFBB95" points="541,434 488,402.095 490.5,427.979 506,448.043 506,462 541,462 576,462 576,448.043 
			591.5,427.979 594,402.095 541,434 		"/>
		<polyline fill="#F9BA48" points="541,354 592.75,354 594,402 582.333,419.243 559,433.643 541.167,437.833 523,433.643 
			499.667,419.243 488,402 489.25,354 541,354 		"/>
		<polygon opacity="0.5" fill="#383838" enable-background="new    " points="543,464 543,461 502.396,468.222 502.859,468.344 		
			"/>
		<polygon fill="#78B3F9" points="506,461.242 524.5,452.864 543,449.684 543,462 502.396,468.222 		"/>
		<polygon fill="#92BEFF" points="543,618 543,461 583.604,468.222 662.75,453.25 671.101,501.267 667.125,505.893 639.651,528.92 
			628,618 		"/>
		<polygon opacity="0.5" fill="#383838" enable-background="new    " points="543,464 543,461 583.604,468.222 583.141,468.344 		
			"/>
		<polygon fill="#78B3F9" points="580,461.242 561.5,452.864 543,449.684 543,462 583.604,468.222 		"/>
		
			<line opacity="0.5" fill="none" stroke="#383838" stroke-width="2" stroke-miterlimit="10" enable-background="new    " x1="456" y1="693" x2="456" y2="747"/>
		<path fill="#92BEFF" d="M456,618"/>
		<polyline fill="#19151C" points="458.125,767 456,800 633,800 627.167,766.833 458,767 		"/>
	</g>
	<g display="inline">
		<polygon fill="#FF5003" points="696.967,270.582 697.05,273.581 705,273.36 705,270.359 		"/>
		<g>
			<polygon fill="#92BEFF" points="738.955,419.746 735.682,314.333 706.944,321.391 689.86,401.1 			"/>
			<polygon fill="#92BEFF" points="689.5,403 623.023,468.792 653.383,517.41 671.101,501.267 738.243,422.696 			"/>
			
				<ellipse transform="matrix(0.3756 -0.9268 0.9268 0.3756 64.4006 919.0634)" fill="#92BEFF" cx="714.276" cy="411.737" rx="9.6" ry="26.546"/>
			<polygon fill="#EFBB95" points="731.752,315.298 731.5,294 736.336,264.21 719.835,257 705,265.981 705,284 713.188,295 
				711.75,320.18 			"/>
			<polygon fill="#FF5003" points="753.764,272.011 753.681,269.012 715,270.083 715,273.084 			"/>
		</g>
		<polygon opacity="0.5" fill="#383838" enable-background="new    " points="715,270.083 710.704,262.528 711.479,262.06 
			712.181,261.634 717.469,270.014 		"/>
	</g>
</g>
<g id="Calque_2" display="none">
	<rect x="1030" y="194" display="inline" fill="#FFFFFF" width="122" height="186"/>
	<g display="inline">
		<polyline fill="none" stroke="#000000" stroke-miterlimit="10" points="1044.692,258.25 1067.659,218.5 1113.591,218.5 
			1136.557,258.375 		"/>
		<rect x="1085" y="213" width="10" height="10"/>
		<polygon fill="none" stroke="#000000" stroke-miterlimit="10" points="1136.5,258.397 1044.5,258.25 1051.001,302 1081.75,332.5 
			1099.334,332.5 1129.334,301.755 		"/>
		<rect x="1061.5" y="264.5" fill="none" stroke="#000000" stroke-miterlimit="10" width="16" height="15"/>
		<rect x="1065" y="268" width="9" height="8"/>
		<rect x="1103.5" y="264.5" fill="none" stroke="#000000" stroke-miterlimit="10" width="16" height="15"/>
		<rect x="1107" y="268" width="9" height="8"/>
		<polyline fill="none" stroke="#000000" stroke-miterlimit="10" points="1089.875,285.375 1087,299.5 1093,299.5 		"/>
		<polyline fill="none" stroke="#020202" stroke-miterlimit="10" points="1077,316.5 1090,313 1103,316.5 		"/>
		<rect x="1058.5" y="303.875" fill="#020202" width="1.5" height="1.5"/>
		<rect x="1062.5" y="305.875" fill="#020202" width="1.5" height="1.5"/>
		<rect x="1068.5" y="309.875" fill="#020202" width="1.5" height="1.5"/>
		<rect x="1070.5" y="313.875" fill="#020202" width="1.5" height="1.5"/>
		<rect x="1073.5" y="306.875" fill="#020202" width="1.5" height="1.5"/>
		<rect x="1080.5" y="307.875" fill="#020202" width="1.5" height="1.5"/>
		<rect x="1075.5" y="310.875" fill="#020202" width="1.5" height="1.5"/>
		<rect x="1080.5" y="317.875" fill="#020202" width="1.5" height="1.5"/>
		<rect x="1085.5" y="319.875" fill="#020202" width="1.5" height="1.5"/>
		<rect x="1093.5" y="318.875" fill="#020202" width="1.5" height="1.5"/>
		<rect x="1098.5" y="318.875" fill="#020202" width="1.5" height="1.5"/>
		<rect x="1095.5" y="322.875" fill="#020202" width="1.5" height="1.5"/>
		<rect x="1085.5" y="309.875" fill="#020202" width="1.5" height="1.5"/>
		<rect x="1085.5" y="304.875" fill="#020202" width="1.5" height="1.5"/>
		<rect x="1071.5" y="299.875" fill="#020202" width="1.5" height="1.5"/>
		<rect x="1093.5" y="308.875" fill="#020202" width="1.5" height="1.5"/>
		<rect x="1098.5" y="302.875" fill="#020202" width="1.5" height="1.5"/>
		<rect x="1093.5" y="301.875" fill="#020202" width="1.5" height="1.5"/>
		<rect x="1122.5" y="304.875" fill="#020202" width="1.5" height="1.5"/>
		<rect x="1115.5" y="303.875" fill="#020202" width="1.5" height="1.5"/>
		<rect x="1120.5" y="300.875" fill="#020202" width="1.5" height="1.5"/>
		<rect x="1116.5" y="307.875" fill="#020202" width="1.5" height="1.5"/>
		<rect x="1111.5" y="305.875" fill="#020202" width="1.5" height="1.5"/>
		<rect x="1113.5" y="311.875" fill="#020202" width="1.5" height="1.5"/>
		<rect x="1108.5" y="311.875" fill="#020202" width="1.5" height="1.5"/>
		<rect x="1102.5" y="311.875" fill="#020202" width="1.5" height="1.5"/>
		<rect x="1103.5" y="307.875" fill="#020202" width="1.5" height="1.5"/>
		<rect x="1111.5" y="315.875" fill="#020202" width="1.5" height="1.5"/>
		<rect x="1103.5" y="316.875" fill="#020202" width="1.5" height="1.5"/>
		<rect x="1091.5" y="324.875" fill="#020202" width="1.5" height="1.5"/>
		<rect x="1084.5" y="323.875" fill="#020202" width="1.5" height="1.5"/>
		<rect x="1075.5" y="319.875" fill="#020202" width="1.5" height="1.5"/>
		<rect x="1066.5" y="304.875" fill="#020202" width="1.5" height="1.5"/>
	</g>
	<g display="inline">
		<path d="M1050.351,357.892l-0.684-1.932h-3.732l-0.684,1.932h-0.973l3.145-8.544h0.769l3.133,8.544H1050.351z M1047.818,350.656
			l-1.607,4.512h3.191L1047.818,350.656z"/>
		<path d="M1054.322,357.892h-0.769l-2.159-5.904h0.937l1.607,4.74l1.62-4.74h0.937L1054.322,357.892z"/>
		<path d="M1057.659,350.308v-0.972h0.972v0.972H1057.659z M1057.707,357.892v-5.904h0.864v5.904H1057.707z"/>
		<path d="M1064.828,356.926c-0.116,0.22-0.28,0.408-0.492,0.564c-0.212,0.156-0.464,0.274-0.756,0.354
			c-0.292,0.08-0.618,0.12-0.979,0.12c-0.505,0-0.951-0.064-1.345-0.192c-0.392-0.128-0.752-0.348-1.08-0.66l0.576-0.576
			c0.232,0.248,0.504,0.424,0.816,0.528c0.312,0.104,0.651,0.156,1.02,0.156c0.488,0,0.872-0.086,1.152-0.258s0.42-0.434,0.42-0.786
			c0-0.256-0.078-0.456-0.233-0.6s-0.405-0.232-0.75-0.264l-0.973-0.084c-0.576-0.048-1.014-0.202-1.312-0.462
			c-0.302-0.26-0.45-0.634-0.45-1.122c0-0.272,0.054-0.514,0.162-0.726c0.106-0.212,0.258-0.392,0.448-0.54
			c0.192-0.148,0.423-0.262,0.69-0.342s0.558-0.12,0.87-0.12c0.424,0,0.816,0.052,1.182,0.156s0.678,0.264,0.942,0.48l-0.564,0.564
			c-0.208-0.16-0.444-0.278-0.714-0.354c-0.268-0.076-0.554-0.114-0.856-0.114c-0.434,0-0.762,0.086-0.984,0.258
			c-0.223,0.172-0.336,0.41-0.336,0.714c0,0.256,0.078,0.456,0.233,0.6c0.155,0.144,0.422,0.232,0.799,0.264l0.946,0.084
			c0.257,0.024,0.492,0.068,0.708,0.132c0.218,0.063,0.4,0.16,0.554,0.288c0.15,0.128,0.27,0.288,0.354,0.48
			c0.084,0.192,0.126,0.424,0.126,0.696C1065.002,356.452,1064.944,356.706,1064.828,356.926z"/>
		<path d="M1073.198,357.892v-0.708c-0.239,0.312-0.496,0.52-0.771,0.624c-0.274,0.104-0.576,0.156-0.902,0.156
			c-0.304,0-0.578-0.046-0.825-0.138c-0.247-0.092-0.45-0.218-0.61-0.378c-0.15-0.152-0.271-0.324-0.364-0.516
			c-0.092-0.192-0.163-0.398-0.216-0.618c-0.052-0.22-0.088-0.446-0.106-0.678c-0.02-0.232-0.03-0.464-0.03-0.696
			s0.011-0.464,0.03-0.696c0.021-0.232,0.056-0.458,0.107-0.678c0.053-0.22,0.124-0.426,0.217-0.618
			c0.092-0.192,0.214-0.364,0.365-0.516c0.159-0.16,0.363-0.286,0.611-0.378c0.248-0.092,0.523-0.138,0.828-0.138
			c0.328,0,0.628,0.05,0.899,0.15s0.528,0.302,0.769,0.606l-0.012-3.324h0.875v8.544H1073.198z M1073.139,354.1
			c-0.031-0.272-0.1-0.512-0.203-0.72s-0.253-0.375-0.447-0.504c-0.195-0.128-0.452-0.192-0.771-0.192
			c-0.318,0-0.576,0.064-0.771,0.192c-0.195,0.128-0.345,0.296-0.448,0.504s-0.173,0.448-0.209,0.72s-0.054,0.552-0.054,0.84
			s0.018,0.568,0.054,0.84c0.036,0.271,0.105,0.512,0.209,0.72s0.253,0.376,0.448,0.504c0.194,0.128,0.452,0.192,0.771,0.192
			s0.575-0.064,0.771-0.192c0.194-0.128,0.345-0.296,0.447-0.504c0.104-0.208,0.172-0.448,0.203-0.72
			c0.032-0.272,0.049-0.552,0.049-0.84S1073.171,354.372,1073.139,354.1z"/>
		<path d="M1076.763,355.168c0,0.645,0.147,1.144,0.444,1.497c0.296,0.354,0.728,0.531,1.296,0.531c0.344,0,0.63-0.054,0.857-0.162
			c0.229-0.108,0.458-0.278,0.689-0.51l0.588,0.516c-0.151,0.153-0.302,0.286-0.45,0.4c-0.147,0.114-0.306,0.209-0.474,0.287
			c-0.168,0.078-0.354,0.136-0.559,0.177s-0.431,0.061-0.679,0.061c-0.392,0-0.745-0.06-1.062-0.18s-0.587-0.304-0.812-0.552
			c-0.224-0.248-0.396-0.562-0.521-0.942s-0.187-0.83-0.187-1.35c0-0.96,0.216-1.704,0.647-2.232s1.022-0.792,1.775-0.792
			c0.769,0,1.363,0.256,1.788,0.768c0.424,0.512,0.636,1.208,0.636,2.088v0.396L1076.763,355.168L1076.763,355.168z
			 M1079.858,354.208c-0.009-0.088-0.019-0.168-0.03-0.24c-0.012-0.072-0.027-0.142-0.048-0.21
			c-0.021-0.068-0.046-0.142-0.078-0.222c-0.111-0.272-0.292-0.488-0.54-0.648c-0.248-0.16-0.527-0.24-0.84-0.24
			s-0.592,0.08-0.84,0.24c-0.248,0.16-0.429,0.376-0.54,0.648c-0.063,0.16-0.107,0.304-0.132,0.432
			c-0.025,0.128-0.041,0.312-0.049,0.552h3.12C1079.875,354.4,1079.866,354.296,1079.858,354.208z"/>
		<path d="M1088.87,353.116c-0.16-0.16-0.312-0.272-0.456-0.336c-0.145-0.064-0.332-0.096-0.563-0.096
			c-0.217,0-0.411,0.04-0.588,0.12c-0.177,0.08-0.323,0.192-0.443,0.336s-0.214,0.312-0.282,0.504s-0.103,0.4-0.103,0.624v3.624
			h-0.863v-5.904h0.863v0.72c0.159-0.248,0.391-0.442,0.689-0.582c0.3-0.14,0.622-0.21,0.966-0.21c0.28,0,0.534,0.04,0.763,0.12
			s0.445,0.224,0.653,0.432L1088.87,353.116z"/>
		<path d="M1090.754,355.168c0,0.645,0.147,1.144,0.444,1.497c0.296,0.354,0.728,0.531,1.296,0.531c0.344,0,0.63-0.054,0.857-0.162
			c0.229-0.108,0.457-0.278,0.689-0.51l0.588,0.516c-0.152,0.153-0.302,0.286-0.45,0.4c-0.147,0.114-0.306,0.209-0.474,0.287
			c-0.168,0.078-0.354,0.136-0.559,0.177s-0.431,0.061-0.679,0.061c-0.392,0-0.745-0.06-1.062-0.18s-0.587-0.304-0.812-0.552
			c-0.224-0.248-0.396-0.562-0.521-0.942s-0.188-0.83-0.188-1.35c0-0.96,0.217-1.704,0.648-2.232s1.022-0.792,1.775-0.792
			c0.769,0,1.363,0.256,1.787,0.768s0.637,1.208,0.637,2.088v0.396L1090.754,355.168L1090.754,355.168z M1093.85,354.208
			c-0.008-0.088-0.018-0.168-0.029-0.24c-0.013-0.072-0.027-0.142-0.049-0.21c-0.02-0.068-0.046-0.142-0.077-0.222
			c-0.111-0.272-0.292-0.488-0.54-0.648c-0.248-0.16-0.527-0.24-0.84-0.24s-0.593,0.08-0.841,0.24
			c-0.247,0.16-0.428,0.376-0.54,0.648c-0.062,0.16-0.106,0.304-0.132,0.432c-0.024,0.128-0.04,0.312-0.048,0.552h3.12
			C1093.866,354.4,1093.857,354.296,1093.85,354.208z"/>
		<path d="M1099.916,357.772c-0.292,0.128-0.642,0.192-1.05,0.192c-0.376,0-0.723-0.062-1.038-0.186
			c-0.316-0.124-0.592-0.312-0.828-0.564s-0.42-0.568-0.552-0.948c-0.132-0.38-0.198-0.822-0.198-1.326s0.066-0.944,0.198-1.32
			s0.314-0.69,0.552-0.942c0.237-0.252,0.512-0.442,0.828-0.57s0.662-0.192,1.038-0.192c0.407,0,0.758,0.064,1.05,0.192
			s0.59,0.356,0.895,0.684l-0.589,0.552c-0.224-0.248-0.436-0.42-0.636-0.516c-0.2-0.096-0.438-0.144-0.72-0.144
			c-0.288,0-0.548,0.056-0.78,0.168c-0.23,0.112-0.428,0.28-0.588,0.504c-0.136,0.192-0.234,0.41-0.294,0.654
			c-0.06,0.244-0.09,0.554-0.09,0.93s0.03,0.686,0.09,0.93c0.06,0.244,0.158,0.462,0.294,0.654c0.16,0.224,0.355,0.392,0.588,0.504
			c0.232,0.112,0.492,0.168,0.78,0.168c0.28,0,0.52-0.05,0.72-0.15s0.412-0.274,0.636-0.522l0.589,0.564
			C1100.506,357.416,1100.208,357.644,1099.916,357.772z"/>
		<path d="M1106.234,357.892v-3.648c0-0.52-0.129-0.91-0.386-1.17c-0.256-0.26-0.606-0.39-1.056-0.39s-0.806,0.132-1.074,0.396
			c-0.268,0.264-0.4,0.652-0.4,1.164v3.648h-0.864v-8.544h0.864v3.288c0.424-0.48,0.976-0.72,1.654-0.72
			c0.674,0,1.194,0.196,1.566,0.588s0.558,0.924,0.558,1.596v3.792H1106.234z"/>
		<path d="M1109.738,355.168c0,0.645,0.146,1.144,0.443,1.497c0.297,0.354,0.729,0.531,1.297,0.531c0.344,0,0.63-0.054,0.856-0.162
			c0.229-0.108,0.458-0.278,0.69-0.51l0.588,0.516c-0.152,0.153-0.303,0.286-0.45,0.4s-0.306,0.209-0.474,0.287
			c-0.168,0.078-0.354,0.136-0.56,0.177s-0.43,0.061-0.678,0.061c-0.392,0-0.746-0.06-1.062-0.18
			c-0.316-0.12-0.588-0.304-0.812-0.552s-0.397-0.562-0.521-0.942c-0.125-0.38-0.188-0.83-0.188-1.35
			c0-0.96,0.216-1.704,0.648-2.232c0.432-0.528,1.022-0.792,1.774-0.792c0.77,0,1.364,0.256,1.788,0.768s0.636,1.208,0.636,2.088
			v0.396L1109.738,355.168L1109.738,355.168z M1112.834,354.208c-0.008-0.088-0.018-0.168-0.03-0.24
			c-0.012-0.072-0.026-0.142-0.048-0.21c-0.02-0.068-0.046-0.142-0.078-0.222c-0.11-0.272-0.292-0.488-0.54-0.648
			c-0.248-0.16-0.526-0.24-0.84-0.24c-0.312,0-0.592,0.08-0.84,0.24c-0.248,0.16-0.428,0.376-0.54,0.648
			c-0.062,0.16-0.107,0.304-0.132,0.432c-0.025,0.128-0.04,0.312-0.048,0.552h3.12
			C1112.851,354.4,1112.842,354.296,1112.834,354.208z"/>
		<path d="M1118.857,353.116c-0.16-0.16-0.312-0.272-0.456-0.336c-0.145-0.064-0.332-0.096-0.563-0.096
			c-0.217,0-0.412,0.04-0.588,0.12c-0.177,0.08-0.324,0.192-0.444,0.336s-0.214,0.312-0.281,0.504
			c-0.068,0.192-0.103,0.4-0.103,0.624v3.624h-0.864v-5.904h0.864v0.72c0.159-0.248,0.391-0.442,0.689-0.582
			c0.3-0.14,0.621-0.21,0.966-0.21c0.28,0,0.534,0.04,0.763,0.12s0.445,0.224,0.653,0.432L1118.857,353.116z"/>
		<path d="M1123.544,357.772c-0.292,0.128-0.642,0.192-1.05,0.192c-0.376,0-0.723-0.062-1.038-0.186
			c-0.316-0.124-0.592-0.312-0.828-0.564s-0.42-0.568-0.552-0.948c-0.132-0.38-0.198-0.822-0.198-1.326s0.066-0.944,0.198-1.32
			s0.314-0.69,0.552-0.942c0.237-0.252,0.512-0.442,0.828-0.57c0.315-0.128,0.662-0.192,1.038-0.192c0.408,0,0.758,0.064,1.05,0.192
			s0.59,0.356,0.896,0.684l-0.59,0.552c-0.224-0.248-0.436-0.42-0.636-0.516c-0.2-0.096-0.438-0.144-0.72-0.144
			c-0.288,0-0.548,0.056-0.78,0.168c-0.23,0.112-0.428,0.28-0.588,0.504c-0.136,0.192-0.234,0.41-0.294,0.654
			c-0.06,0.244-0.09,0.554-0.09,0.93s0.03,0.686,0.09,0.93c0.06,0.244,0.158,0.462,0.294,0.654c0.16,0.224,0.356,0.392,0.588,0.504
			c0.232,0.112,0.492,0.168,0.78,0.168c0.28,0,0.52-0.05,0.72-0.15s0.412-0.274,0.636-0.522l0.59,0.564
			C1124.134,357.416,1123.836,357.644,1123.544,357.772z"/>
		<path d="M1129.862,357.892v-3.648c0-0.52-0.128-0.91-0.386-1.17c-0.256-0.26-0.606-0.39-1.056-0.39s-0.806,0.132-1.074,0.396
			c-0.268,0.264-0.4,0.652-0.4,1.164v3.648h-0.864v-8.544h0.864v3.288c0.424-0.48,0.976-0.72,1.655-0.72
			c0.673,0,1.193,0.196,1.565,0.588s0.558,0.924,0.558,1.596v3.792H1129.862z"/>
		<path d="M1133.365,355.168c0,0.645,0.146,1.144,0.443,1.497c0.297,0.354,0.729,0.531,1.297,0.531c0.344,0,0.63-0.054,0.856-0.162
			c0.229-0.108,0.458-0.278,0.69-0.51l0.588,0.516c-0.152,0.153-0.303,0.286-0.45,0.4s-0.306,0.209-0.474,0.287
			c-0.168,0.078-0.354,0.136-0.56,0.177s-0.43,0.061-0.678,0.061c-0.392,0-0.746-0.06-1.062-0.18
			c-0.316-0.12-0.588-0.304-0.812-0.552s-0.397-0.562-0.521-0.942c-0.125-0.38-0.188-0.83-0.188-1.35
			c0-0.96,0.216-1.704,0.648-2.232c0.432-0.528,1.022-0.792,1.774-0.792c0.77,0,1.364,0.256,1.788,0.768s0.636,1.208,0.636,2.088
			v0.396L1133.365,355.168L1133.365,355.168z M1136.461,354.208c-0.008-0.088-0.018-0.168-0.03-0.24
			c-0.012-0.072-0.026-0.142-0.048-0.21c-0.02-0.068-0.046-0.142-0.078-0.222c-0.11-0.272-0.292-0.488-0.54-0.648
			c-0.248-0.16-0.526-0.24-0.84-0.24c-0.312,0-0.592,0.08-0.84,0.24c-0.248,0.16-0.428,0.376-0.54,0.648
			c-0.062,0.16-0.107,0.304-0.132,0.432c-0.024,0.128-0.04,0.312-0.048,0.552h3.12
			C1136.479,354.4,1136.469,354.296,1136.461,354.208z"/>
	</g>
</g>
</svg>
