<?xml version="1.0" encoding="utf-8"?>
<!-- Generator: Adobe Illustrator 16.0.0, SVG Export Plug-In . SVG Version: 6.00 Build 0)  -->
<!DOCTYPE svg PUBLIC "-//W3C//DTD SVG 1.1//EN" "http://www.w3.org/Graphics/SVG/1.1/DTD/svg11.dtd">
<svg version="1.1" xmlns="http://www.w3.org/2000/svg" xmlns:xlink="http://www.w3.org/1999/xlink" x="0px" y="0px" width="401px"
	 height="423px" viewBox="0 0 401 423" enable-background="new 0 0 401 423" xml:space="preserve">
<symbol  id="Arbres_1" viewBox="-41.326 -55.933 80.273 111.745">
</symbol>
<g id="Calque_7" display="none">
	<linearGradient id="SVGID_1_" gradientUnits="userSpaceOnUse" x1="428.3042" y1="465.6992" x2="428.3042" y2="-306.0688">
		<stop  offset="0" style="stop-color:#5E3F2F"/>
		<stop  offset="1" style="stop-color:#000000"/>
	</linearGradient>
	<polygon display="inline" fill="url(#SVGID_1_)" points="-698.645,465.699 1537.22,326.227 1555.252,-306.069 -336.059,-295.833 
		-671.944,-294.159 	"/>
</g>
<g id="Calque_1" display="none">
	<g display="inline">
		
			<use xlink:href="#Arbres_1"  width="80.273" height="111.745" x="-41.326" y="-55.933" transform="matrix(7.5363 0 0 -7.5363 614.2812 -125.0747)" overflow="visible"/>
		<g>
			
				<use xlink:href="#Arbres_1"  width="80.273" height="111.745" x="-41.326" y="-55.933" transform="matrix(7.5363 0 0 -7.5363 478.6426 -142.9883)" overflow="visible"/>
			
				<use xlink:href="#Arbres_1"  width="80.273" height="111.745" x="-41.326" y="-55.933" transform="matrix(7.5363 0 0 -7.5363 1238.1309 -137.4951)" overflow="visible"/>
			
				<use xlink:href="#Arbres_1"  width="80.273" height="111.745" x="-41.326" y="-55.933" transform="matrix(7.5363 0 0 -7.5363 1329.1602 -131.1069)" overflow="visible"/>
			
				<use xlink:href="#Arbres_1"  width="80.273" height="111.745" x="-41.326" y="-55.933" transform="matrix(7.5363 0 0 -7.5363 1569.4668 -164.4473)" overflow="visible"/>
			
				<use xlink:href="#Arbres_1"  width="80.273" height="111.745" x="-41.326" y="-55.933" transform="matrix(7.5363 0 0 -7.5363 1285.583 -231.6201)" overflow="visible"/>
			
				<use xlink:href="#Arbres_1"  width="80.273" height="111.745" x="-41.326" y="-55.933" transform="matrix(7.5363 0 0 -7.5363 834.5957 -228.6191)" overflow="visible"/>
		</g>
	</g>
	<g display="inline">
		
			<use xlink:href="#Arbres_1"  width="80.273" height="111.745" x="-41.326" y="-55.933" transform="matrix(7.5363 0 0 -7.5363 253.9131 -109.7817)" overflow="visible"/>
		<g>
			
				<use xlink:href="#Arbres_1"  width="80.273" height="111.745" x="-41.326" y="-55.933" transform="matrix(7.5363 0 0 -7.5363 118.2744 -127.6948)" overflow="visible"/>
			
				<use xlink:href="#Arbres_1"  width="80.273" height="111.745" x="-41.326" y="-55.933" transform="matrix(7.5363 0 0 -7.5363 877.7627 -122.2021)" overflow="visible"/>
			
				<use xlink:href="#Arbres_1"  width="80.273" height="111.745" x="-41.326" y="-55.933" transform="matrix(7.5363 0 0 -7.5363 968.792 -115.814)" overflow="visible"/>
			
				<use xlink:href="#Arbres_1"  width="80.273" height="111.745" x="-41.326" y="-55.933" transform="matrix(7.5363 0 0 -7.5363 1209.0986 -149.1543)" overflow="visible"/>
			
				<use xlink:href="#Arbres_1"  width="80.273" height="111.745" x="-41.326" y="-55.933" transform="matrix(7.5363 0 0 -7.5363 925.2148 -216.3271)" overflow="visible"/>
			
				<use xlink:href="#Arbres_1"  width="80.273" height="111.745" x="-41.326" y="-55.933" transform="matrix(7.5363 0 0 -7.5363 474.2275 -213.3262)" overflow="visible"/>
		</g>
	</g>
	
		<use xlink:href="#Arbres_1"  width="80.273" height="111.745" x="-41.326" y="-55.933" transform="matrix(1.6456 0 0 -1.6456 622.6455 -399.4829)" display="inline" overflow="visible"/>
	
		<use xlink:href="#Arbres_1"  width="80.273" height="111.745" x="-41.326" y="-55.933" transform="matrix(1.6456 0 0 -1.6456 676.5996 -391.3364)" display="inline" overflow="visible"/>
	
		<use xlink:href="#Arbres_1"  width="80.273" height="111.745" x="-41.326" y="-55.933" transform="matrix(6.6398 0 0 -6.6398 79.7383 -159.5024)" display="inline" overflow="visible"/>
	
		<use xlink:href="#Arbres_1"  width="80.273" height="111.745" x="-41.326" y="-55.933" transform="matrix(7.5363 0 0 -7.5363 585.2461 -67.5347)" display="inline" overflow="visible"/>
	<polygon display="inline" fill="#666666" points="-237.477,315 1754.117,315 1850.816,657 -48.428,657 	"/>
</g>
<g id="Calque_2" display="none">
</g>
<g id="Calque_8">
	<rect x="115" y="73" fill="#9090A3" width="260" height="115"/>
	<path fill="#E8E8E8" d="M-99,34v315h319v-28h107v28h74V34H-99z M333,154.971c0,7.54-4.477,14.029-10,14.029H153
		c-5.523,0-10-6.489-10-14.029v-42.32c0-7.54,4.477-13.651,10-13.651h170c5.523,0,10,6.112,10,13.651V154.971z"/>
	
		<rect x="247.43" y="106.791" transform="matrix(0.979 -0.204 0.204 0.979 -21.2605 58.6424)" fill="#EFBB95" width="52.716" height="51.29"/>
	
		<rect x="260.624" y="131.752" transform="matrix(0.979 -0.2039 0.2039 0.979 -22.0568 56.5707)" fill="#EAEAEA" width="5.699" height="7.122"/>
	
		<rect x="281.546" y="127.39" transform="matrix(0.979 -0.2039 0.2039 0.979 -20.7278 60.7455)" fill="#EAEAEA" width="5.699" height="7.123"/>
	<rect x="262.415" y="134.215" transform="matrix(0.9787 -0.2052 0.2052 0.9787 -22.1207 56.8677)" width="1.514" height="1.783"/>
	<rect x="283.337" y="129.854" transform="matrix(0.9787 -0.2053 0.2053 0.9787 -20.7903 61.1077)" width="1.513" height="1.783"/>
	
		<rect x="258.617" y="130.386" transform="matrix(0.8491 -0.5283 0.5283 0.8491 -30.3319 158.8725)" fill="#EFBB95" width="8.55" height="4.274"/>
	
		<rect x="280.933" y="125.735" transform="matrix(-0.9894 -0.1452 0.1452 -0.9894 548.8301 295.7954)" fill="#EFBB95" width="8.55" height="4.275"/>
	<polygon points="267.107,152.747 267.297,152.46 269.315,149.377 284.658,146.178 288.522,148.283 	"/>
	<path fill="#FFDA6A" d="M242.753,112.708l3.197,15.341l51.606-10.755l-3.197-15.343L242.753,112.708z"/>
	<polygon fill="#4F4F4F" points="265.771,160.302 255.662,200.249 308.441,202.104 295.525,154.101 	"/>
	<rect x="225" y="326" width="97" height="97"/>
	<rect x="-99" y="169" fill="#EA0000" width="500" height="43"/>
	<path opacity="0.2" fill="#3D92E8" d="M333,154.971c0,7.54-4.477,14.029-10,14.029H153c-5.523,0-10-6.489-10-14.029v-42.32
		c0-7.54,4.477-13.651,10-13.651h170c5.523,0,10,6.112,10,13.651V154.971z"/>
	<rect x="348" y="23" fill="#636466" width="21" height="11"/>
	
		<radialGradient id="SVGID_2_" cx="359.0005" cy="11.5" r="10.7761" gradientTransform="matrix(1.05 0 0 1 -18.4502 0)" gradientUnits="userSpaceOnUse">
		<stop  offset="0" style="stop-color:#CBDFF3"/>
		<stop  offset="0.0643" style="stop-color:#C2DBF1"/>
		<stop  offset="0.1714" style="stop-color:#A8D1ED"/>
		<stop  offset="0.3079" style="stop-color:#7FC1E6"/>
		<stop  offset="0.4669" style="stop-color:#46ABDD"/>
		<stop  offset="0.5674" style="stop-color:#1E9BD6"/>
		<stop  offset="0.8652" style="stop-color:#0075BD"/>
		<stop  offset="0.9944" style="stop-color:#005B96"/>
	</radialGradient>
	<rect x="348" fill="url(#SVGID_2_)" width="21" height="23"/>
</g>
<g id="Calque_3" display="none">
	<path display="inline" fill="#A8A8A8" d="M1994.806,78.916l-193.944-0.173l-79.623-82.15l-315.245,51.246l-74.424,114.471
		l-200.13,64.368l29.551,176.348l100.37-16.318l34.882-55.488l148.63-24.158l29.022,45.098l258.051-41.944l20.644-55.149
		l133.194-21.646l55.744,42.729l83.477-13.569L1994.806,78.916z M1365.896,190.687l42.759-110.918l138.321-25.214l0.382,1.33
		l14.281,95.218L1365.896,190.687z M1581.097,144.363l-14.943-95.138l151.176-28.941l69.442,91.236L1581.097,144.363z"/>
	
		<rect x="1769.317" y="259.433" transform="matrix(0.9852 -0.1713 0.1713 0.9852 -29.4811 320.1916)" display="inline" fill="#020202" width="143.022" height="143.022"/>
	
		<rect x="1316.805" y="332.117" transform="matrix(0.9852 -0.1713 0.1713 0.9852 -48.6163 243.7456)" display="inline" fill="#020202" width="143.024" height="143.021"/>
	<polygon display="inline" fill="none" stroke="#666666" stroke-miterlimit="10" points="1555.38,43.62 1602.723,320.924 
		1719.683,300.858 1753.946,236.786 1816.033,225.047 1790.595,92.846 1717.329,11.29 	"/>
	<polygon display="inline" fill="none" stroke="#666666" stroke-miterlimit="10" points="1555.38,43.62 1602.723,320.924 
		1485.623,338.957 1434.332,289.102 1369.762,300.816 1346.203,165.624 1407.864,68.032 	"/>
	<polygon display="inline" opacity="0.2" fill="#03ABFF" points="1566.153,49.226 1717.329,20.284 1786.771,111.521 
		1581.097,144.363 1566.199,49.52 	"/>
	<polygon display="inline" opacity="0.2" fill="#03ABFF" points="1408.655,79.769 1546.977,54.555 1561.64,151.103 
		1365.896,190.687 	"/>
	
		<line display="inline" fill="none" stroke="#000000" stroke-miterlimit="10" x1="1375.331" y1="215.87" x2="1419.325" y2="206.609"/>
	
		<line display="inline" fill="none" stroke="#000000" stroke-miterlimit="10" x1="1591.566" y1="168.299" x2="1636.213" y2="162.995"/>
</g>
<g id="Calque_6" display="none">
	<g display="inline">
		<g>
			<polygon fill="#19151C" points="478.848,866 515,866 515,823.33 515,781.938 501.392,745 465.174,745 			"/>
			
				<ellipse transform="matrix(-0.973 0.2306 -0.2306 -0.973 1103.2507 1365.45)" fill="#19151C" cx="471.827" cy="747.2" rx="9.608" ry="12.565"/>
			<polygon fill="#19151C" points="507.585,613.543 442.016,621.549 440.414,673.657 445.71,695.768 469.116,752 503.609,752 
				511.185,643.658 			"/>
			<path opacity="0.5" fill="#FFFFFF" d="M444.725,682.377l5.509,23.679l17.715,42.006c0,0-1.755,5.964-1.2,10.885
				s4.338,7.841,4.338,7.841l11.21,98.179l1.379,1.232l-5.938-101.752l-15.029-54.819L444.725,682.377L444.725,682.377z"/>
			<path opacity="0.5" fill="#FFFFFF" d="M490.305,882h-2.957l-0.555,6.975l-55.837,16.19L430,905.649v3.419
				c0,0,52.142-7.3,52.419-7.207c0.278,0.093,9.532-11.871,9.532-11.871L490.305,882z"/>
			<rect x="484" y="862" fill="#FFFFFF" width="21" height="17"/>
			<polygon points="509.522,874 481,874 481,880.98 424,897.98 424,909 511,909 			"/>
			<rect x="490" y="871" fill="#FFFFFF" width="21" height="17"/>
			<polygon fill="#19151C" points="484.761,876 523,876 523,832.199 523,790.808 507.305,755 471.087,755 			"/>
			
				<ellipse transform="matrix(-0.973 0.2307 -0.2307 -0.973 1116.9927 1381.5532)" fill="#19151C" cx="477.74" cy="756.069" rx="9.608" ry="12.566"/>
			<polygon fill="#19151C" points="513.498,622.413 443.74,630.049 446.327,682.527 451.623,705.201 475.029,762 509.522,762 
				517.098,653.094 			"/>
			<polygon points="515.435,884 488,884 488,889.851 431,906.851 431,919 516.913,919 			"/>
			<polygon fill="#92BEFF" points="508.414,453.768 520.608,478.898 523.196,523.615 515.804,549.484 508.414,577.201 
				506.565,601.593 517.098,623.767 513.498,622.413 443.74,630.049 440.044,633.744 443.74,591.984 448.656,504.897 
				474.414,464.115 			"/>
			<polyline opacity="0.5" fill="#383838" points="466.453,545.334 514.098,511.333 512.847,514.418 466.148,546.512 			"/>
			<polyline opacity="0.5" fill="#383838" points="443.517,539.442 444.481,538.935 477.167,479.137 480.52,476.404 480.52,476.404 
				445.371,540.167 444.323,540.679 			"/>
			<polyline fill="#92BEFF" points="444.006,539.946 444.973,539.443 480.52,476.404 514.098,511.333 466.453,545.334 			"/>
			<polygon fill="#78B3F9" points="469.609,468.55 514.19,457.656 509.016,448.787 474.29,461.281 			"/>
			<polygon opacity="0.5" fill="#383838" points="470.417,468.672 511.178,459.466 510.713,458.508 470.772,468.266 			"/>
			<polygon fill="#EFBB95" points="507.268,449.416 508.053,431.701 515.372,404.9 510.504,383.498 453.138,399.282 454.93,416.293 
				451.202,427.539 453.854,429.748 456.705,428.965 456.382,434.291 458.375,439.685 461.72,440.966 459.653,447.109 
				464.42,451.084 475.522,448.787 476.261,460.572 			"/>
			<polygon fill="#1D56D8" stroke="#EAEA53" stroke-miterlimit="10" points="509.02,498.291 484.353,481.217 476.23,492.951 
				479.087,514.367 500.284,510.91 			"/>
			<g>
				<path d="M482.39,489.603c0.399,0.188,0.903,0.46,1.499,0.872c0.732,0.508,1.15,1.051,1.278,1.592
					c0.127,0.49,0.025,1.037-0.328,1.548c-0.36,0.521-0.796,0.822-1.292,0.919c-0.681,0.146-1.467-0.082-2.19-0.582
					c-0.222-0.154-0.419-0.305-0.561-0.465l-1.591,2.299l-0.741-0.514L482.39,489.603z M481.215,492.881
					c0.133,0.155,0.325,0.314,0.572,0.485c0.894,0.618,1.739,0.562,2.287-0.23c0.524-0.757,0.242-1.495-0.576-2.062
					c-0.323-0.224-0.588-0.368-0.739-0.424L481.215,492.881z"/>
				<path d="M487.932,498.729c-1.054,1.522-2.57,1.456-3.566,0.767c-1.115-0.772-1.409-2.185-0.507-3.487
					c0.955-1.379,2.417-1.562,3.557-0.773C488.599,496.055,488.805,497.468,487.932,498.729z M484.634,496.508
					c-0.625,0.902-0.577,1.943,0.155,2.449c0.715,0.496,1.718,0.194,2.361-0.734c0.482-0.697,0.747-1.825-0.139-2.438
					C486.125,495.172,485.176,495.725,484.634,496.508z"/>
				<path d="M491.609,495.43l0.749,0.518l-4.185,6.045l-0.749-0.518L491.609,495.43z"/>
				<path d="M493.92,498.163c-0.168,0.262-0.498,0.337-0.796,0.131c-0.264-0.183-0.31-0.518-0.132-0.773
					c0.182-0.264,0.52-0.333,0.792-0.144C494.065,497.571,494.103,497.899,493.92,498.163z M489.432,502.863l2.853-4.12l0.749,0.519
					l-2.853,4.121L489.432,502.863z"/>
				<path d="M494.466,506.122c-0.267-0.034-0.795-0.198-1.348-0.581c-1.243-0.859-1.468-2.264-0.596-3.523
					c0.877-1.268,2.382-1.586,3.728-0.655c0.442,0.306,0.758,0.688,0.892,0.931l-0.572,0.462c-0.107-0.226-0.324-0.514-0.732-0.797
					c-0.945-0.654-1.939-0.309-2.534,0.552c-0.66,0.953-0.455,1.964,0.362,2.529c0.427,0.295,0.785,0.379,1.062,0.434
					L494.466,506.122z"/>
				<path d="M496.933,505.211c-0.684,1.025-0.326,1.888,0.423,2.406c0.537,0.371,0.925,0.503,1.288,0.578l-0.244,0.625
					c-0.346-0.064-0.892-0.24-1.547-0.693c-1.268-0.878-1.449-2.238-0.589-3.479c0.861-1.243,2.271-1.716,3.471-0.885
					c1.345,0.931,0.883,2.362,0.359,3.119c-0.105,0.152-0.206,0.262-0.267,0.331L496.933,505.211z M499.5,506.194
					c0.338-0.472,0.646-1.353-0.196-1.936c-0.759-0.525-1.573-0.058-1.993,0.421L499.5,506.194z"/>
			</g>
			<polygon fill="#2B2B2B" points="457.881,438.332 462.339,437.049 461.758,435.011 457.132,436.322 			"/>
			<path fill="#FFFFFF" d="M457.148,414.922c0.446,3.039,3.269,2.206,4.752,1.988c1.481-0.217,3.04-0.295,2.592-3.334
				c-0.446-3.035-1.722-3.527-3.203-3.31C459.806,410.484,456.7,411.887,457.148,414.922z"/>
			<path d="M457.167,415.955c0.325,0.977,0.761,1.609,1.539,1.352c0.778-0.26,0.702-1.012,0.377-1.988s-0.745-1.718-1.523-1.459
				C456.782,414.118,456.842,414.979,457.167,415.955z"/>
			<path fill="#0548A8" d="M451.852,398.284L442.906,384c0,0,24.362-1.369,35.48-10.484c0,0,19.31,0,31.136-9.855L511,381.95
				L451.852,398.284z"/>
			<polygon fill="#F9BA48" points="460.837,397.553 474.01,399.25 479.557,407.25 481.62,416.406 485.156,417.18 486.656,410.222 
				490.906,407.366 494.656,412.774 491.899,419 490.798,424 496.656,428.5 509.406,432 517.098,404.75 510.504,383.498 			"/>
			<polygon points="436.3,403.738 512.212,384.603 511.124,380.761 435.808,401.998 			"/>
			<polygon fill="#F2A711" points="448.073,384.783 445.209,388.758 450,397.141 450,391.074 			"/>
			<polygon opacity="0.5" fill="#383838" points="466.148,546.512 466.453,545.334 456,557.001 433.563,538.573 456.167,558.001 			
				"/>
			<polyline opacity="0.5" fill="#383838" points="466.566,541.136 473.098,523.626 489.956,460.879 490.125,462.875 
				474.01,523.692 468.148,541.512 			"/>
			
				<rect x="470.179" y="407.017" transform="matrix(0.512 0.859 -0.859 0.512 604.0245 -204.2251)" width="23.163" height="45.001"/>
			<polygon fill="#EFBB95" stroke="#161616" stroke-miterlimit="10" points="469.551,413.605 489.186,412.579 497.972,430.531 
				486.892,460.55 469.819,458.402 469.336,444.64 474.137,427.448 468.476,413.77 			"/>
			<polygon points="475.007,412.89 473.485,413.019 479.156,425.926 480.647,425.267 			"/>
			<polygon points="480.222,412.739 478.47,412.812 483.991,425.189 485.481,424.53 			"/>
			<polygon points="484.782,412.55 483.319,412.609 489.071,426.054 490.562,425.395 			"/>
			<polygon fill="#92BEFF" points="433.563,538.573 446.855,504.475 467.261,458.059 489.956,460.879 473.305,523.798 
				465.375,546.479 456,557.001 			"/>
		</g>
		<path d="M470.638,696.702l12.721-37.63c-0.256-0.26-0.512-0.26-0.512-0.26l7.065-18.618c0.983-1.384,2.601-1.352,2.601-1.352
			c1.06-1.614-0.094-2.004,0.629-2.874c0.723-0.871,1.693,0.572,1.693,0.572c2.016,2.911,4.305,2.483,4.305,2.483
			c1.414-0.379,2.375-2.714,2.375-2.714c2.922-4.584,3.295-1.63,3.295-1.63l-1.432,4.234c-1.975,5.59,3.929,6.387,3.929,6.387
			l-0.156,0.461c0,0,11.637-0.181,13.462-0.507c1.825-0.327,4.134,0.195,5.159,0.971c1.024,0.776,1.228,1.443,1.228,1.443
			l-1.015,3.002l0.846,0.286l-4.76,14.083c-0.644,0.638-0.897-0.645-0.897-0.645c-0.693,0.276-1.82-0.702-2.485-1.526
			c-0.664-0.824-1.922-0.909-1.922-0.909s-8.96-1.144-10.141-1.457c-1.18-0.311-2.313,0.248-2.757,2.07
			c-0.445,1.821-2.548,7.028-3.246,8.337c-0.699,1.305-1.466,0.531-1.466,0.531c-8.024-3.656-9.933,3.76-9.933,3.76l-7.596,22.471
			c-1.006,1.204-4.372,1.01-6.736,1.154c-2.363,0.142-4.385-1.74-4.385-1.74L470.638,696.702z M500.208,660.1
			c1.646,1.003,1.805,3.111,1.483,3.403c-0.323,0.293-0.754-0.411-0.754-0.411c-2.969-3.235-5.637-1.615-5.637-1.615
			c-1.405,1.579-1.502,4.111-0.879,5.772c0.621,1.661,2.391,1.971,3.881,2.452c1.489,0.479,2.037-1.01,2.037-1.01
			s1.372-3.664,1.758-4.738c0.386-1.075,0.507-2.952-1.239-4.391c-1.746-1.439-3.335-0.371-3.335-0.371
			S498.562,659.097,500.208,660.1z"/>
		<polygon fill="#7F5441" points="511.406,666.289 485.675,695.881 469.609,688 485.675,633.744 		"/>
		
			<rect x="495.943" y="637.415" transform="matrix(-0.7248 -0.689 0.689 -0.7248 414.4312 1460.6234)" fill="#5B3C2F" width="6" height="20.245"/>
		<circle fill="#CEC40B" cx="494.469" cy="652.188" r="2.25"/>
	</g>
</g>
<g id="Calque_5" display="none">
	<polygon display="inline" points="719,438 719,392 734.418,392.25 745.337,410.472 959.824,375 1111,375 1131.439,436.564 	"/>
</g>
<g id="Calque_9" display="none">
	<linearGradient id="SVGID_3_" gradientUnits="userSpaceOnUse" x1="368.6602" y1="125.9414" x2="1281" y2="125.9414">
		<stop  offset="0.0056" style="stop-color:#005B96"/>
		<stop  offset="0.1348" style="stop-color:#0075BD"/>
		<stop  offset="0.4326" style="stop-color:#1E9BD6"/>
		<stop  offset="0.5331" style="stop-color:#46ABDD"/>
		<stop  offset="0.6921" style="stop-color:#7FC1E6"/>
		<stop  offset="0.8286" style="stop-color:#A8D1ED"/>
		<stop  offset="0.9357" style="stop-color:#C2DBF1"/>
		<stop  offset="1" style="stop-color:#CBDFF3"/>
	</linearGradient>
	<polygon display="inline" opacity="0.4" fill="url(#SVGID_3_)" points="368.66,0.085 1281,-42.117 1281,294 369,23 	"/>
</g>
</svg>
