<?xml version="1.0" encoding="utf-8"?>
<!-- Generator: Adobe Illustrator 16.0.0, SVG Export Plug-In . SVG Version: 6.00 Build 0)  -->
<!DOCTYPE svg PUBLIC "-//W3C//DTD SVG 1.1//EN" "http://www.w3.org/Graphics/SVG/1.1/DTD/svg11.dtd">
<svg version="1.1" xmlns="http://www.w3.org/2000/svg" xmlns:xlink="http://www.w3.org/1999/xlink" x="0px" y="0px"
	 width="412.439px" height="61.564px" viewBox="0 0 412.439 61.564" enable-background="new 0 0 412.439 61.564"
	 xml:space="preserve">
<symbol  id="Arbres_1" viewBox="-41.326 -55.933 80.273 111.745">
</symbol>
<g id="Calque_7" display="none">
	<linearGradient id="SVGID_1_" gradientUnits="userSpaceOnUse" x1="-290.6958" y1="90.6992" x2="-290.6958" y2="-681.0688">
		<stop  offset="0" style="stop-color:#5E3F2F"/>
		<stop  offset="1" style="stop-color:#000000"/>
	</linearGradient>
	<polygon display="inline" fill="url(#SVGID_1_)" points="-1417.645,90.699 818.22,-48.773 836.252,-681.069 -1055.059,-670.833 
		-1390.944,-669.159 	"/>
</g>
<g id="Calque_1" display="none">
	<g display="inline">
		
			<use xlink:href="#Arbres_1"  width="80.273" height="111.745" x="-41.326" y="-55.933" transform="matrix(7.5363 0 0 -7.5363 -104.7188 -500.0747)" overflow="visible"/>
		<g>
			
				<use xlink:href="#Arbres_1"  width="80.273" height="111.745" x="-41.326" y="-55.933" transform="matrix(7.5363 0 0 -7.5363 -240.3574 -517.9883)" overflow="visible"/>
			
				<use xlink:href="#Arbres_1"  width="80.273" height="111.745" x="-41.326" y="-55.933" transform="matrix(7.5363 0 0 -7.5363 519.1309 -512.4951)" overflow="visible"/>
			
				<use xlink:href="#Arbres_1"  width="80.273" height="111.745" x="-41.326" y="-55.933" transform="matrix(7.5363 0 0 -7.5363 610.1602 -506.1069)" overflow="visible"/>
			
				<use xlink:href="#Arbres_1"  width="80.273" height="111.745" x="-41.326" y="-55.933" transform="matrix(7.5363 0 0 -7.5363 850.4668 -539.4473)" overflow="visible"/>
			
				<use xlink:href="#Arbres_1"  width="80.273" height="111.745" x="-41.326" y="-55.933" transform="matrix(7.5363 0 0 -7.5363 566.583 -606.6201)" overflow="visible"/>
			
				<use xlink:href="#Arbres_1"  width="80.273" height="111.745" x="-41.326" y="-55.933" transform="matrix(7.5363 0 0 -7.5363 115.5957 -603.6191)" overflow="visible"/>
		</g>
	</g>
	<g display="inline">
		
			<use xlink:href="#Arbres_1"  width="80.273" height="111.745" x="-41.326" y="-55.933" transform="matrix(7.5363 0 0 -7.5363 -465.0869 -484.7817)" overflow="visible"/>
		<g>
			
				<use xlink:href="#Arbres_1"  width="80.273" height="111.745" x="-41.326" y="-55.933" transform="matrix(7.5363 0 0 -7.5363 -600.7256 -502.6948)" overflow="visible"/>
			
				<use xlink:href="#Arbres_1"  width="80.273" height="111.745" x="-41.326" y="-55.933" transform="matrix(7.5363 0 0 -7.5363 158.7627 -497.2021)" overflow="visible"/>
			
				<use xlink:href="#Arbres_1"  width="80.273" height="111.745" x="-41.326" y="-55.933" transform="matrix(7.5363 0 0 -7.5363 249.792 -490.814)" overflow="visible"/>
			
				<use xlink:href="#Arbres_1"  width="80.273" height="111.745" x="-41.326" y="-55.933" transform="matrix(7.5363 0 0 -7.5363 490.0986 -524.1543)" overflow="visible"/>
			
				<use xlink:href="#Arbres_1"  width="80.273" height="111.745" x="-41.326" y="-55.933" transform="matrix(7.5363 0 0 -7.5363 206.2148 -591.3271)" overflow="visible"/>
			
				<use xlink:href="#Arbres_1"  width="80.273" height="111.745" x="-41.326" y="-55.933" transform="matrix(7.5363 0 0 -7.5363 -244.7725 -588.3262)" overflow="visible"/>
		</g>
	</g>
	
		<use xlink:href="#Arbres_1"  width="80.273" height="111.745" x="-41.326" y="-55.933" transform="matrix(1.6456 0 0 -1.6456 -96.3545 -774.4829)" display="inline" overflow="visible"/>
	
		<use xlink:href="#Arbres_1"  width="80.273" height="111.745" x="-41.326" y="-55.933" transform="matrix(1.6456 0 0 -1.6456 -42.4004 -766.3364)" display="inline" overflow="visible"/>
	
		<use xlink:href="#Arbres_1"  width="80.273" height="111.745" x="-41.326" y="-55.933" transform="matrix(6.6398 0 0 -6.6398 -639.2617 -534.5024)" display="inline" overflow="visible"/>
	
		<use xlink:href="#Arbres_1"  width="80.273" height="111.745" x="-41.326" y="-55.933" transform="matrix(7.5363 0 0 -7.5363 -133.7539 -442.5347)" display="inline" overflow="visible"/>
	<polygon display="inline" fill="#666666" points="-956.477,-60 1035.117,-60 1131.816,282 -767.428,282 	"/>
</g>
<g id="Calque_2" display="none">
</g>
<g id="Calque_8" display="none">
	<rect x="-604" y="-302" display="inline" fill="#9090A3" width="260" height="115"/>
	<path display="inline" fill="#E8E8E8" d="M-818-341v315h319v-28h107v28h74v-315H-818z M-386-220.029c0,7.54-4.477,14.029-10,14.029
		h-170c-5.523,0-10-6.489-10-14.029v-42.32c0-7.54,4.477-13.651,10-13.651h170c5.523,0,10,6.112,10,13.651V-220.029z"/>
	
		<rect x="-471.57" y="-268.209" transform="matrix(0.979 -0.204 0.204 0.979 40.1229 -95.9314)" display="inline" fill="#EFBB95" width="52.716" height="51.29"/>
	
		<rect x="-458.376" y="-243.248" transform="matrix(0.979 -0.2039 0.2039 0.979 39.3053 -97.9275)" display="inline" fill="#EAEAEA" width="5.699" height="7.122"/>
	
		<rect x="-437.454" y="-247.61" transform="matrix(0.979 -0.2039 0.2039 0.979 40.6342 -93.7527)" display="inline" fill="#EAEAEA" width="5.699" height="7.123"/>
	
		<rect x="-456.585" y="-240.785" transform="matrix(0.9787 -0.2052 0.2052 0.9787 39.5212 -98.6231)" display="inline" width="1.514" height="1.783"/>
	
		<rect x="-435.663" y="-245.146" transform="matrix(0.9787 -0.2053 0.2053 0.9787 40.8807 -94.4866)" display="inline" width="1.513" height="1.783"/>
	
		<rect x="-460.383" y="-244.614" transform="matrix(0.8491 -0.5283 0.5283 0.8491 59.2566 -277.5333)" display="inline" fill="#EFBB95" width="8.55" height="4.274"/>
	
		<rect x="-438.067" y="-249.265" transform="matrix(-0.9894 -0.1452 0.1452 -0.9894 -827.1106 -554.6149)" display="inline" fill="#EFBB95" width="8.55" height="4.275"/>
	<polygon display="inline" points="-451.893,-222.253 -451.703,-222.54 -449.685,-225.623 -434.342,-228.822 -430.478,-226.717 	"/>
	<path display="inline" fill="#FFDA6A" d="M-476.247-262.292l3.197,15.341l51.606-10.755l-3.197-15.343L-476.247-262.292z"/>
	<polygon display="inline" fill="#4F4F4F" points="-453.229,-214.698 -463.338,-174.751 -410.559,-172.896 -423.475,-220.899 	"/>
	<rect x="-494" y="-49" display="inline" width="97" height="97"/>
	<rect x="-818" y="-206" display="inline" fill="#EA0000" width="500" height="43"/>
	<path display="inline" opacity="0.2" fill="#3D92E8" d="M-386-220.029c0,7.54-4.477,14.029-10,14.029h-170
		c-5.523,0-10-6.489-10-14.029v-42.32c0-7.54,4.477-13.651,10-13.651h170c5.523,0,10,6.112,10,13.651V-220.029z"/>
	<rect x="-371" y="-352" display="inline" fill="#636466" width="21" height="11"/>
	
		<radialGradient id="SVGID_2_" cx="-359.9995" cy="-363.5" r="10.7761" gradientTransform="matrix(1.05 0 0 1 17.4998 0)" gradientUnits="userSpaceOnUse">
		<stop  offset="0" style="stop-color:#CBDFF3"/>
		<stop  offset="0.0643" style="stop-color:#C2DBF1"/>
		<stop  offset="0.1714" style="stop-color:#A8D1ED"/>
		<stop  offset="0.3079" style="stop-color:#7FC1E6"/>
		<stop  offset="0.4669" style="stop-color:#46ABDD"/>
		<stop  offset="0.5674" style="stop-color:#1E9BD6"/>
		<stop  offset="0.8652" style="stop-color:#0075BD"/>
		<stop  offset="0.9944" style="stop-color:#005B96"/>
	</radialGradient>
	<rect x="-371" y="-375" display="inline" fill="url(#SVGID_2_)" width="21" height="23"/>
</g>
<g id="Calque_3" display="none">
	<path display="inline" fill="#A8A8A8" d="M1275.806-296.084l-193.944-0.173l-79.623-82.15l-315.245,51.246L612.569-212.69
		l-200.13,64.368L441.99,28.025l100.37-16.318l34.882-55.488l148.63-24.158l29.022,45.098l258.051-41.944l20.644-55.149
		l133.194-21.646l55.744,42.729l83.477-13.569L1275.806-296.084z M646.896-184.313l42.759-110.918l138.321-25.214l0.382,1.33
		l14.281,95.218L646.896-184.313z M862.097-230.637l-14.943-95.138l151.176-28.941l69.442,91.236L862.097-230.637z"/>
	
		<rect x="1050.317" y="-115.567" transform="matrix(0.9852 -0.1713 0.1713 0.9852 24.1244 191.498)" display="inline" fill="#020202" width="143.022" height="143.022"/>
	
		<rect x="597.805" y="-42.883" transform="matrix(0.9852 -0.1713 0.1713 0.9852 4.9869 115.059)" display="inline" fill="#020202" width="143.024" height="143.021"/>
	<polygon display="inline" fill="none" stroke="#666666" stroke-miterlimit="10" points="836.38,-331.38 883.723,-54.076 
		1000.683,-74.142 1034.946,-138.214 1097.033,-149.953 1071.595,-282.154 998.329,-363.71 	"/>
	<polygon display="inline" fill="none" stroke="#666666" stroke-miterlimit="10" points="836.38,-331.38 883.723,-54.076 
		766.623,-36.043 715.332,-85.898 650.762,-74.184 627.203,-209.376 688.864,-306.968 	"/>
	<polygon display="inline" opacity="0.2" fill="#03ABFF" points="847.153,-325.774 998.329,-354.716 1067.771,-263.479 
		862.097,-230.637 847.199,-325.48 	"/>
	<polygon display="inline" opacity="0.2" fill="#03ABFF" points="689.655,-295.231 827.977,-320.445 842.64,-223.897 
		646.896,-184.313 	"/>
	
		<line display="inline" fill="none" stroke="#000000" stroke-miterlimit="10" x1="656.331" y1="-159.13" x2="700.325" y2="-168.391"/>
	
		<line display="inline" fill="none" stroke="#000000" stroke-miterlimit="10" x1="872.566" y1="-206.701" x2="917.213" y2="-212.005"/>
</g>
<g id="Calque_6" display="none">
	<g display="inline">
		<g>
			<polygon fill="#19151C" points="-240.152,491 -204,491 -204,448.33 -204,406.938 -217.608,370 -253.826,370 			"/>
			
				<ellipse transform="matrix(-0.973 0.2306 -0.2306 -0.973 -401.8492 791.3694)" fill="#19151C" cx="-247.173" cy="372.2" rx="9.608" ry="12.565"/>
			<polygon fill="#19151C" points="-211.415,238.543 -276.984,246.549 -278.586,298.657 -273.29,320.768 -249.884,377 -215.391,377 
				-207.815,268.658 			"/>
			<path opacity="0.5" fill="#FFFFFF" d="M-274.275,307.377l5.509,23.679l17.715,42.006c0,0-1.755,5.964-1.2,10.885
				s4.338,7.841,4.338,7.841l11.21,98.179l1.379,1.232l-5.938-101.752l-15.029-54.819L-274.275,307.377L-274.275,307.377z"/>
			<path opacity="0.5" fill="#FFFFFF" d="M-228.695,507h-2.957l-0.555,6.975l-55.837,16.19l-0.957,0.484v3.419
				c0,0,52.142-7.3,52.419-7.207c0.278,0.093,9.532-11.871,9.532-11.871L-228.695,507z"/>
			<rect x="-235" y="487" fill="#FFFFFF" width="21" height="17"/>
			<polygon points="-209.478,499 -238,499 -238,505.98 -295,522.98 -295,534 -208,534 			"/>
			<rect x="-229" y="496" fill="#FFFFFF" width="21" height="17"/>
			<polygon fill="#19151C" points="-234.239,501 -196,501 -196,457.199 -196,415.808 -211.695,380 -247.913,380 			"/>
			
				<ellipse transform="matrix(-0.973 0.2307 -0.2307 -0.973 -388.1171 807.5114)" fill="#19151C" cx="-241.26" cy="381.069" rx="9.608" ry="12.566"/>
			<polygon fill="#19151C" points="-205.502,247.413 -275.26,255.049 -272.673,307.527 -267.377,330.201 -243.971,387 -209.478,387 
				-201.902,278.094 			"/>
			<polygon points="-203.565,509 -231,509 -231,514.851 -288,531.851 -288,544 -202.087,544 			"/>
			<polygon fill="#92BEFF" points="-210.586,78.768 -198.392,103.898 -195.804,148.615 -203.196,174.484 -210.586,202.201 
				-212.435,226.593 -201.902,248.767 -205.502,247.413 -275.26,255.049 -278.956,258.744 -275.26,216.984 -270.344,129.897 
				-244.586,89.115 			"/>
			<polyline opacity="0.5" fill="#383838" points="-252.547,170.334 -204.902,136.333 -206.153,139.418 -252.852,171.512 			"/>
			<polyline opacity="0.5" fill="#383838" points="-275.483,164.442 -274.519,163.935 -241.833,104.137 -238.48,101.404 
				-238.48,101.404 -273.629,165.167 -274.677,165.679 			"/>
			<polyline fill="#92BEFF" points="-274.994,164.946 -274.027,164.443 -238.48,101.404 -204.902,136.333 -252.547,170.334 			"/>
			<polygon fill="#78B3F9" points="-249.391,93.55 -204.81,82.656 -209.984,73.787 -244.71,86.281 			"/>
			<polygon opacity="0.5" fill="#383838" points="-248.583,93.672 -207.822,84.466 -208.287,83.508 -248.228,93.266 			"/>
			<polygon fill="#EFBB95" points="-211.732,74.416 -210.947,56.701 -203.628,29.9 -208.496,8.498 -265.862,24.282 -264.07,41.293 
				-267.798,52.539 -265.146,54.748 -262.295,53.965 -262.618,59.291 -260.625,64.685 -257.28,65.966 -259.347,72.109 
				-254.58,76.084 -243.478,73.787 -242.739,85.572 			"/>
			<polygon fill="#1D56D8" stroke="#EAEA53" stroke-miterlimit="10" points="-209.98,123.291 -234.647,106.217 -242.77,117.951 
				-239.913,139.367 -218.716,135.91 			"/>
			<g>
				<path d="M-236.61,114.603c0.399,0.188,0.903,0.46,1.499,0.872c0.732,0.508,1.15,1.051,1.278,1.592
					c0.127,0.49,0.025,1.037-0.328,1.548c-0.36,0.521-0.796,0.822-1.292,0.919c-0.681,0.146-1.467-0.082-2.19-0.582
					c-0.222-0.154-0.419-0.305-0.561-0.465l-1.591,2.299l-0.741-0.514L-236.61,114.603z M-237.785,117.881
					c0.133,0.155,0.325,0.314,0.572,0.485c0.894,0.618,1.739,0.562,2.287-0.23c0.524-0.757,0.242-1.495-0.576-2.062
					c-0.323-0.224-0.588-0.368-0.739-0.424L-237.785,117.881z"/>
				<path d="M-231.068,123.729c-1.054,1.522-2.57,1.456-3.566,0.767c-1.115-0.772-1.409-2.185-0.507-3.487
					c0.955-1.379,2.417-1.562,3.557-0.773C-230.401,121.055-230.195,122.468-231.068,123.729z M-234.366,121.508
					c-0.625,0.902-0.577,1.943,0.155,2.449c0.715,0.496,1.718,0.194,2.361-0.734c0.482-0.697,0.747-1.825-0.139-2.438
					C-232.875,120.172-233.824,120.725-234.366,121.508z"/>
				<path d="M-227.391,120.43l0.749,0.518l-4.185,6.045l-0.749-0.518L-227.391,120.43z"/>
				<path d="M-225.08,123.163c-0.168,0.262-0.498,0.337-0.796,0.131c-0.264-0.183-0.31-0.518-0.132-0.773
					c0.182-0.264,0.52-0.333,0.792-0.144C-224.935,122.571-224.897,122.899-225.08,123.163z M-229.568,127.863l2.853-4.12
					l0.749,0.519l-2.853,4.121L-229.568,127.863z"/>
				<path d="M-224.534,131.122c-0.267-0.034-0.795-0.198-1.348-0.581c-1.243-0.859-1.468-2.264-0.596-3.523
					c0.877-1.268,2.382-1.586,3.728-0.655c0.442,0.306,0.758,0.688,0.892,0.931l-0.572,0.462c-0.107-0.226-0.324-0.514-0.732-0.797
					c-0.945-0.654-1.939-0.309-2.534,0.552c-0.66,0.953-0.455,1.964,0.362,2.529c0.427,0.295,0.785,0.379,1.062,0.434
					L-224.534,131.122z"/>
				<path d="M-222.067,130.211c-0.684,1.025-0.326,1.888,0.423,2.406c0.537,0.371,0.925,0.503,1.288,0.578l-0.244,0.625
					c-0.346-0.064-0.892-0.24-1.547-0.693c-1.268-0.878-1.449-2.238-0.589-3.479c0.861-1.243,2.271-1.716,3.471-0.885
					c1.345,0.931,0.883,2.362,0.359,3.119c-0.105,0.152-0.206,0.262-0.267,0.331L-222.067,130.211z M-219.5,131.194
					c0.338-0.472,0.646-1.353-0.196-1.936c-0.759-0.525-1.573-0.058-1.993,0.421L-219.5,131.194z"/>
			</g>
			<polygon fill="#2B2B2B" points="-261.119,63.332 -256.661,62.049 -257.242,60.011 -261.868,61.322 			"/>
			<path fill="#FFFFFF" d="M-261.852,39.922c0.446,3.039,3.269,2.206,4.752,1.988c1.481-0.217,3.04-0.295,2.592-3.334
				c-0.446-3.035-1.722-3.527-3.203-3.31C-259.194,35.484-262.3,36.887-261.852,39.922z"/>
			<path d="M-261.833,40.955c0.325,0.977,0.761,1.609,1.539,1.352c0.778-0.26,0.702-1.012,0.377-1.988s-0.745-1.718-1.523-1.459
				C-262.218,39.118-262.158,39.979-261.833,40.955z"/>
			<path fill="#0548A8" d="M-267.148,23.284L-276.094,9c0,0,24.362-1.369,35.48-10.484c0,0,19.31,0,31.136-9.855L-208,6.95
				L-267.148,23.284z"/>
			<polygon fill="#F9BA48" points="-258.163,22.553 -244.99,24.25 -239.443,32.25 -237.38,41.406 -233.844,42.18 -232.344,35.222 
				-228.094,32.366 -224.344,37.774 -227.101,44 -228.202,49 -222.344,53.5 -209.594,57 -201.902,29.75 -208.496,8.498 			"/>
			<polygon points="-282.7,28.738 -206.788,9.603 -207.876,5.761 -283.192,26.998 			"/>
			<polygon fill="#F2A711" points="-270.927,9.783 -273.791,13.758 -269,22.141 -269,16.074 			"/>
			<polygon opacity="0.5" fill="#383838" points="-252.852,171.512 -252.547,170.334 -263,182.001 -285.437,163.573 
				-262.833,183.001 			"/>
			<polyline opacity="0.5" fill="#383838" points="-252.434,166.136 -245.902,148.626 -229.044,85.879 -228.875,87.875 
				-244.99,148.692 -250.852,166.512 			"/>
			<rect x="-248.821" y="32.017" transform="matrix(0.512 0.859 -0.859 0.512 -68.9366 230.3837)" width="23.163" height="45.001"/>
			<polygon fill="#EFBB95" stroke="#161616" stroke-miterlimit="10" points="-249.449,38.605 -229.814,37.579 -221.028,55.531 
				-232.108,85.55 -249.181,83.402 -249.664,69.64 -244.863,52.448 -250.524,38.77 			"/>
			<polygon points="-243.993,37.89 -245.515,38.019 -239.844,50.926 -238.353,50.267 			"/>
			<polygon points="-238.778,37.739 -240.53,37.812 -235.009,50.189 -233.519,49.53 			"/>
			<polygon points="-234.218,37.55 -235.681,37.609 -229.929,51.054 -228.438,50.395 			"/>
			<polygon fill="#92BEFF" points="-285.437,163.573 -272.145,129.475 -251.739,83.059 -229.044,85.879 -245.695,148.798 
				-253.625,171.479 -263,182.001 			"/>
		</g>
		<path d="M-248.362,321.702l12.721-37.63c-0.256-0.26-0.512-0.26-0.512-0.26l7.065-18.618c0.983-1.384,2.601-1.352,2.601-1.352
			c1.06-1.614-0.094-2.004,0.629-2.874c0.723-0.871,1.693,0.572,1.693,0.572c2.016,2.911,4.305,2.483,4.305,2.483
			c1.414-0.379,2.375-2.714,2.375-2.714c2.922-4.584,3.295-1.63,3.295-1.63l-1.432,4.234c-1.975,5.59,3.929,6.387,3.929,6.387
			l-0.156,0.461c0,0,11.637-0.181,13.462-0.507c1.825-0.327,4.134,0.195,5.159,0.971c1.024,0.776,1.228,1.443,1.228,1.443
			l-1.015,3.002l0.846,0.286l-4.76,14.083c-0.644,0.638-0.897-0.645-0.897-0.645c-0.693,0.276-1.82-0.702-2.485-1.526
			c-0.664-0.824-1.922-0.909-1.922-0.909s-8.96-1.144-10.141-1.457c-1.18-0.311-2.313,0.248-2.757,2.07
			c-0.445,1.821-2.548,7.028-3.246,8.337c-0.699,1.305-1.466,0.531-1.466,0.531c-8.024-3.656-9.933,3.76-9.933,3.76l-7.596,22.471
			c-1.006,1.204-4.372,1.01-6.736,1.154c-2.363,0.142-4.385-1.74-4.385-1.74L-248.362,321.702z M-218.792,285.1
			c1.646,1.003,1.805,3.111,1.483,3.403c-0.323,0.293-0.754-0.411-0.754-0.411c-2.969-3.235-5.637-1.615-5.637-1.615
			c-1.405,1.579-1.502,4.111-0.879,5.772c0.621,1.661,2.391,1.971,3.881,2.452c1.489,0.479,2.037-1.01,2.037-1.01
			s1.372-3.664,1.758-4.738c0.386-1.075,0.507-2.952-1.239-4.391c-1.746-1.439-3.335-0.371-3.335-0.371
			S-220.438,284.097-218.792,285.1z"/>
		<polygon fill="#7F5441" points="-207.594,291.289 -233.325,320.881 -249.391,313 -233.325,258.744 		"/>
		
			<rect x="-223.057" y="262.415" transform="matrix(-0.7248 -0.689 0.689 -0.7248 -567.3224 318.4556)" fill="#5B3C2F" width="6" height="20.245"/>
		<circle fill="#CEC40B" cx="-224.531" cy="277.188" r="2.25"/>
	</g>
</g>
<g id="Calque_5">
	<polygon points="0,63 0,17 15.418,17.25 26.337,35.472 240.824,0 392,0 412.439,61.564 	"/>
</g>
<g id="Calque_9" display="none">
	<linearGradient id="SVGID_3_" gradientUnits="userSpaceOnUse" x1="-350.3398" y1="-249.0586" x2="562" y2="-249.0586">
		<stop  offset="0.0056" style="stop-color:#005B96"/>
		<stop  offset="0.1348" style="stop-color:#0075BD"/>
		<stop  offset="0.4326" style="stop-color:#1E9BD6"/>
		<stop  offset="0.5331" style="stop-color:#46ABDD"/>
		<stop  offset="0.6921" style="stop-color:#7FC1E6"/>
		<stop  offset="0.8286" style="stop-color:#A8D1ED"/>
		<stop  offset="0.9357" style="stop-color:#C2DBF1"/>
		<stop  offset="1" style="stop-color:#CBDFF3"/>
	</linearGradient>
	<polygon display="inline" opacity="0.4" fill="url(#SVGID_3_)" points="-350.34,-374.915 562,-417.117 562,-81 -350,-352 	"/>
</g>
</svg>
