<?xml version="1.0" encoding="utf-8"?>
<!-- Generator: Adobe Illustrator 16.0.0, SVG Export Plug-In . SVG Version: 6.00 Build 0)  -->
<!DOCTYPE svg PUBLIC "-//W3C//DTD SVG 1.1//EN" "http://www.w3.org/Graphics/SVG/1.1/DTD/svg11.dtd">
<svg version="1.1" id="Calque_1" xmlns="http://www.w3.org/2000/svg" xmlns:xlink="http://www.w3.org/1999/xlink" x="0px" y="0px"
	 width="1280px" height="800px" viewBox="0 0 1280 800" enable-background="new 0 0 1280 800" xml:space="preserve">
<symbol  id="Arbres_1">
</symbol>
<symbol  id="Arbres_2" viewBox="-40.139 -55.873 80.278 111.745">
	<g>
		<g>
			<g>
				<g>
					<path fill="#2D5447" d="M-19.566-51.631c0,0-0.895,12.676-0.634,14.744c0.256,2.066,0.256,5.99,0.256,5.99l0.564,5.287
						c0,0,0.467,2.981,0.158,3.688c-0.306,0.709-0.565,2.566-0.565,2.566s-0.289,5.092-0.238,6.244
						c0.049,1.152-0.526,4.795-0.526,4.795l-0.325,2.938c0,0-0.1,0.621-0.031,2.232c0.043,0.979,0.207,7.073-0.498,6.412
						c-0.705-0.662-1.081-7.787-1.081-7.787s-0.282-0.68-0.173-2.07c0.11-1.391,0.223-2.664,0.223-2.664l-0.138-4.207l0.736-6.497
						l0.02-3.467l-0.318-7.376c0,0-0.822-7.354-0.684-8.051c0.141-0.699-1.128-11.867-1.128-11.867S-23.401-52.178-19.566-51.631z"
						/>
					<path fill="#92523B" d="M-19.931-51.541c0,0-1.088,11.379-1.014,13.067l1.313,14.877l-0.562,2.64l-0.318,8.327
						c0,0-0.073,3.546-0.396,3.865c-0.326,0.322-0.603,4.338-0.577,4.953c0,0,0.054,3.846-0.204,3.088
						c-0.259-0.76-0.33-5.065-0.252-5.84c0.078-0.771,0.106-2.775,0.078-3.391c-0.024-0.613-0.31-1.988-0.117-2.769
						c0.192-0.774,1-8.201,0.841-9.271c-0.159-1.07-0.071-4.308-0.071-4.308s-0.768-9.975-0.798-10.739
						c-0.034-0.771-0.11-5.83-0.292-6.763c-1.648-8.47-1.712-7.196,0.542-7.739C-20.198-51.916-19.931-51.541-19.931-51.541z"/>
					<g>
						<path fill="#2D5447" d="M-2.447-22.803l-1.177,1.437c1.341-0.211-0.314,1.246-0.314,1.246
							c-1.098,0.664-1.378-0.021-1.44,0.522c-0.125,1.044-2.517,2.181-1.959,1.624c-0.325,0.323-0.719,0.958-0.719,0.958
							s-0.473,0.135-1.23,0.82c-0.085,0.075-0.162,0.102-0.235,0.108l-0.275,1.146c0,0,0.887-0.347,1.224-0.36
							c0.337-0.015,0.291-1.089,0.826-1.729s0.756-0.801,0.756-0.801l-0.128,2.312c0,0,1-0.353,1.084-0.972
							c0.088-0.619,1.495-1.91,1.495-1.91l-0.807,2.191l1.203-0.824c0,0,0.3-0.938,1.086-0.973c0.787-0.033-0.504,1.407-0.504,1.407
							s-1.607,1.918-2.705,2.582c-0.696,0.42-3.034,1.685-7.463,2.896l0.026,0.329c0,0-0.426,1.301-1.702,1.69l-0.085,0.256
							l0.283,0.354c0,0,0.45-0.021,0.886-0.349c0.436-0.323,0.839-1.42,0.839-1.42l0.854,1.502l0.984-0.657
							c0,0-0.257-0.761,0.291-1.092c0.55-0.332,0.723,1.044,0.723,1.044s0.41-0.938,0.713-1.723c0.305-0.781,0.192,1.84,0.192,1.84
							l0.733-1.262c-0.026-0.617,0.86-0.963,0.86-0.963l-0.476,2.021l1.296-1.284c0.985-0.66,0.581,0.436,0.581,0.436l1.296-1.287
							c1.786-0.388-0.702,2.028-0.702,2.028L-7.45-8.829c0.674-0.029,1.486,0.555,0.377,0.906c-1.113,0.356-2.143-0.06-2.143-0.06
							c-0.648,0.643-4.545,1.736-4.545,1.736c-0.765,0.032-0.798,0.733-1.269,0.612c0.037,0.855-0.693,1.374-1.089,1.898
							c0.82,0,1.528-0.057,1.724-0.232c0.541-0.484,1.196-0.972,1.196-0.972l-0.727,1.416l0.351,0.293c0,0,0.443-0.174,0.971-0.967
							c0.529-0.794,1.535-0.989,1.535-0.989l-0.933,1.888l1.112-0.356c0,0,0.747-0.955,1.527-1.144
							c0.779-0.188-0.721,1.57-0.721,1.57l0.977-0.812c0.88-0.5,0.801,0.272,0.801,0.272l-1.944,1.931l-3.003,0.901
							c-1.336,0.364-5.265,3.307-5.265,3.307s-0.093,0.175-0.154,0.594l1.974-0.229l0.628,1.512c0,0,0.749-0.954,1.058-1.584
							c0.312-0.629,1.211-0.668,1.211-0.668l-0.594,1.873c0,0,0.436-0.327,1.196-0.977c0.759-0.648,1.436-0.676,1.436-0.676
							l-1.178,1.434c0,0,0.555-0.178,1.786-0.385c1.229-0.205,0.699,0.586,0.13,0.457c-0.568-0.129-1.545,0.684-1.545,0.684
							s-1.074,1.276-2.19,1.479c-1.118,0.203-3.175,2.139-3.175,2.139s-1.841,3.025-1.682,4.096c0.157,1.07-0.72,2.957-0.72,2.957
							l-0.812-3.197l-0.601-1.828c-1.341-1.637-4.125-4.952-4.766-5.098c-0.854-0.194-2.956-1.948-2.956-1.948
							s0.675-0.031,1.19,0.178c0.517,0.209,1.885,0.611,1.885,0.611l-1.081-1.57c0,0,2.641-0.757,2.657,0.295
							c0.011,0.701,1.041,1.263,1.729,1.563c-0.27-0.674-0.283-1.619-0.282-1.896c-1.565-1.645-4.24-4.334-5.263-4.608
							c-1.477-0.397-3.672-1.688-3.672-1.688l-0.749-1.66c0,0,0.656-0.49,1.713,0.539l0.826,0.889l-1.216-2.102
							c0,0,0.906,0.113,1.271,0.715c0.362,0.6,0.825,0.889,0.825,0.889l-0.052-1.229l0.925,0.574l0.615,1.205l0.653-0.488
							l1.487,1.161c0.044-0.054,0.093-0.094,0.154-0.104l-0.589-1.385c-0.662-0.152-1.282-0.377-1.659-0.707
							c-1.172-1.027-2.843-3.264-2.843-3.264s-3.037-2.484-3.954-2.906c-0.92-0.423,0.396-1.248,1.462-0.064l1.402,1.173
							c0,0-1.078-1.495-0.629-1.514c0.446-0.019,1.421,1.63,1.421,1.63l1.62,1.007c0,0-0.769-2.119-0.305-1.833
							c0.462,0.289,1.209,1.951,1.209,1.951l0.696,0.381c-0.313-0.959-0.524-1.778-0.364-1.879c0.185-0.114,0.436,0.371,0.653,0.937
							c-0.017-0.797,0.02-1.637,0.284-1.178c0.006-0.017,0.013-0.033,0.022-0.048c0.367-0.539,1.275,2.613,1.275,2.613l0.348,0.834
							l0.32,0.199c0,0,0-0.023,0-0.062c-0.155-0.751-0.256-1.507-0.028-1.492c0.028,0.004,0.057,0.014,0.085,0.027
							c0.037-0.396,0.097-0.636,0.201-0.331c0.259,0.759,0.727,1.199,0.727,1.199l-0.162,0.822c0.004,0.006,0.009,0.014,0.011,0.02
							l0.675-1.789c0,0,0.425,0.543,0.377,1.375c0.041,0.127,0.085,0.261,0.127,0.396c0.104-0.539,0.097-1.195-0.175-1.957
							l-1.487-1.451l-2.953-1.609l-2.307-1.284c0,0,1.777,0.487,3.498,1.065c-0.291-0.34-0.575-0.701-0.766-1.01
							c-0.545-0.9-4.115-1.438-4.115-1.438s-2.251-1.288-3.641-2.151c-1.387-0.863-1.755-1.54-1.755-1.54l2.231,0.827l2.093,1.524
							l-0.038-0.923l2.251,1.287c-1.061-1.104-0.776-2.274,0.298-0.935c0.224,0.28,0.597,0.448,1.038,0.549
							c-0.152-0.504-0.205-1.045-0.137-1.434l-0.783-0.275c0,0-0.362-0.601-0.386-1.062c-0.019-0.461-0.852-0.213-0.852-0.213
							s-1.415-0.151-1.764-0.442c0.603,0.504-1.105-0.566-2.109-1.144c-0.384-0.221-0.141-0.301-1.292-0.867
							c0,0-2.815-1.848-1.148-1.729l-0.364-0.512c0,0-2.719-2.962-1.818-3c0.898-0.04,1.641,1.467,1.641,1.467
							s-0.502-1.209,0.39-1.402c0.893-0.191,1.871,1.612,1.871,1.612l1.415,1.478c0,0-1.131-2.721-0.224-2.604
							c0.766,0.096,0.631,1.658,1.189,2.299c0.097-0.275,0.384-0.463,0.891-0.428l-1.297-1.328c0,0-2.717-2.964-1.819-3
							c0.899-0.039,1.642,1.467,1.642,1.467s-0.505-1.209,0.391-1.402c0.892-0.19,1.87,1.613,1.87,1.613l1.415,1.479
							c0,0-1.13-2.724-0.225-2.609c0.907,0.115,0.549,2.286,1.572,2.549c1.027,0.264,2.185,0.982,2.185,0.982
							s-0.048-0.126-0.11-0.31c-0.149-0.008-0.295-0.069-0.427-0.225c-0.766-0.892-0.972-3.135-0.091-2.942l-0.888-2.038
							c0,0-1.869-4.535-1.287-4.562c0.58-0.022,1.115,2.263,1.115,2.263s-0.371-1.832,0.201-2.088
							c0.572-0.255,1.271,2.484,1.271,2.484l0.971,2.268c0,0-0.832-4.121-0.24-3.914c0.591,0.203,0.439,3.443,1.111,3.877
							c0.676,0.433,1.449,1.553,1.449,1.553s-0.667-3.666-0.264-2.758c0.402,0.906,1.351,4.326,1.713,4.312
							c0.362-0.019-0.653-5.054,0.968-1.197c0.319,0.76,0.551,1.328,0.722,1.76c0.142-0.67,0.473-0.502,0.473-0.502l1.067-0.317
							c0,0,0.145-0.582,0.655-2.452c0.644-2.354,0.848-1.987,0.939-1.112l0.195-0.073l0.386,1.102
							c0.173-0.746,0.357-1.736,0.544-2.304c0.337-1.008,0.263,1.479,0.263,1.479s-0.181,0.313,0.337-0.014
							c0.516-0.326,0.555-2.168,1.002-2.236c0.444-0.068-0.133,3.002-0.133,3.002l0.815-2.537c0,0,0.634-3.225,1.044-2.717
							c0.413,0.506,0.062,2.688,0.062,2.688s0.492-2.7,0.92-2.483c0.306,0.156-0.403,2.789-0.838,4.289
							c0.287,0.389,0.481,1.129,0.605,1.84c0.02-0.01,0.041-0.027,0.062-0.037c0.703-0.271,0.996-2.947,1.599-3.012
							c0.32-0.035,0.388,0.66,0.385,1.319c0.185,0.166,0.377,0.398,0.554,0.642l0.28-0.228c0,0,0.29-2.479,0.833-2.092
							c0.544,0.389,0.018,2.111,0.018,2.111s0.729-2.138,1.302-1.974c0.362,0.103-0.4,1.757-1.012,2.957l1.116-0.536
							c0,0,0.737-1.144,1.633-1.854c2.949-2.334,0.948,0.266,0.948,0.266l-1.577,1.732l1.004,0.143l1.291-1.729
							c2.562-2.083,0.743,1.022,0.743,1.022l-1.795,1.421l-2.058,2.295c-0.868,0.604-1.944,0.834-2.682,0.922
							c-0.086,0.188-0.233,0.401-0.42,0.614c-0.153,0.426-0.605,0.953-0.605,0.953c-0.356,0.171-0.736,0.316-1.121,0.441
							c0.145,1.562-1.421,1.842-1.013,1.261c-0.275,0.393-0.866,0.796-0.866,0.796s-0.674,0.049-0.765,0.728
							c-0.089,0.678-0.591,0.662-0.591,0.662l-1.146,0.657c0.082,0.191,0.164,0.379,0.24,0.572l1.597,0.361
							c0.085-0.185,0.433-0.701,1.484-2.035c2.135-2.711,1.046,0.725,1.604,0.699c0.564-0.025,1.702-2.383,2.237-3.021
							c0.536-0.641-0.145,1.854-0.145,1.854s1.089-0.818,2.089-1.171c0.999-0.351,0.457-2.479,1.35-2.674
							c0.894-0.19,0,2.617,0,2.617l1.289-1.596c0,0,0.821-1.881,1.727-1.769c0.905,0.113,0.51,1.363,0.51,1.363
							s0.608-1.565,1.507-1.604C0.007-25.988-2.447-22.803-2.447-22.803z"/>
					</g>
				</g>
				<path fill="#2F8F64" d="M-16.096,5.973c0,0-2.375,0.729-2.74,2.006c-0.364,1.279-1.278,2.193-1.278,2.924l-0.182,2.191
					l-0.762-3.293l-1.43-1.271l-2.558-3.287l-2.737-1.278l2.191,0.729l-0.185-0.912c0,0,0.891,0.529,1.724,0.812l1.017,1.015
					c0,0,0.183-1.096,0.729-0.365l0.183,1.644c0,0,0.75,0.154,1.146,0.985l0.863-0.985c0,0-1.77-0.465-1.096-1.461l0.73-1.827
					c0,0,0.73-0.181,0.549,0.549c0,0,0.182,1.097,1.095,0.182c0,0,1.826-1.275,1.826-0.363l0.181,1.278l1.828-0.729l1.093,0.364
					L-16.096,5.973z"/>
				<path fill="#2F8F64" d="M-20.639,0.135c0,0,2.35-0.37,1.803,0.543c0,0-0.913,1.276,1.095,0c0,0,2.557-2.191,3.833-2.191
					c0,0,2.924-0.365,3.653-1.278c0,0-1.46-0.183-2.19,0.186c-0.731,0.365-2.193,0.18-2.193,0.18s-0.546-1.459-1.825,0.549
					l-1.095,1.097c0,0-1.461-1.097-2.007,0C-20.115,0.312-20.639,0.135-20.639,0.135z"/>
				<path fill="#2F8F64" d="M-24.863-0.054c0,0-0.163-2.275,0.649-1.595l1.438,1.877c0,0,2.069-0.527,1.087-0.951l-1.08-1.211
					l-1.18-1.771c0,0-0.83-1.326-0.548,0.366c0.283,1.689-0.549,0.546-0.549,0.546l-0.366-0.912l-0.545,0.912
					c0,0-1.096-1.461-1.645-0.729c0,0-1.276-1.826-1.276-0.731l-1.642-0.091l2.918,1.736C-27.601-2.607-25.591-2.242-24.863-0.054z"
					/>
				<path fill="#2F8F64" d="M-24.68-16.303c0,0,1.827,0,2.192,1.459c0,0,0.547,1.465,0.729,0.552l0.913,0.547
					c0,0,0.104,2.422-1.135,1.024c-1.238-1.393,0.222,0.437,0.222,0.437l-1.643-0.914l0.183,1.461l-1.462-0.914l-1.46-1.277
					l-2.372-0.914c0,0-2.556-0.546-3.104-1.094c-0.549-0.547,0.365-0.547,0.365-0.547l1.46,0.364c0,0,1.279,0.729,1.279,0.183
					l0.237-1.742c0,0,1.039,0.646,1.403,1.561c0,0,1.28,2.007,1.28,0.911c0-1.095,0.911,0,0.911,0v-1.096H-24.68z"/>
				<path fill="#2F8F64" d="M-23.218-5.166c0,0,0.058-1.435-1.105-2.021c-1.16-0.588-1.088,0.379-1.088,0.379l-0.729-0.914
					l-0.912-1.641c0,0-0.226-0.574-0.206,0.625l-1.461-0.896l-0.891-1.008l0.185,1.459l-1.462-0.729c0,0,2.353,3.768,4.097,3.983
					c0,0,0.491-1.607,1.666-0.422c1.176,1.185-0.102,0.455-0.102,0.455v0.547l0.729-0.184L-23.218-5.166z"/>
				<path fill="#2F8F64" d="M-16.282-12.104c0,0,2.008,0.914,3.287,0.365l4.381-1.826c0,0,2.01-0.729,2.74-1.279
					c0.729-0.546,1.095-0.546-1.826,0.187l-2.098-0.283l-0.822,0.648l-0.403-1.362l-1.058,1.726l-1.097-0.184
					c0,0-0.731,0.184-0.549,1.098L-16.282-12.104z"/>
				<path fill="#2F8F64" d="M-12.995-7.174c0,0,3.835-0.729,4.565-1.643c0.729-0.912-1.217-0.371-1.217-0.371l-0.793-0.725h-0.73
					v1.096c0,0-0.729,0.549-1.825,0.549l-0.548-0.729l-0.731,0.908C-14.274-8.089-16.668-5.555-12.995-7.174z"/>
				<path fill="#2F8F64" d="M-29.246-19.407l-0.546-0.73c0,0-1.825,0-2.374-0.182c-0.547-0.181-2.555-1.643-2.555-1.643
					l-1.645-1.645c0,0-3.285-2.191-1.096-1.28c2.191,0.915,3.834,2.012,3.834,2.012l-0.363-1.279l1.094,0.365l0.914-0.549
					c0,0,0.467,1.307,1.645,1.827c1.174,0.521,0.546,0.183,0.546,0.183l3.469,0.549c0,0-2.823-1.051-3.694-1.713l-3.609-3.398
					c0,0-0.911-2.01,1.827,0.73l1.645,0.545l-0.183-0.91c0,0,1.092,1.824,2.736,1.64c0,0,3.287,1.646,3.834,2.376l-0.182,1.274
					c0,0-0.193,0.89,1.271,0.811c0,0-2.003,0.766-2.823-0.296l-2.491-0.242c0,0-0.799,0.25-0.155,0.464c0,0,1.095,2.188,2.556,2.188
					c1.46,0-1.096,0-2.375-0.549L-29.246-19.407z"/>
				<g>
					<path fill="#2F8F64" d="M-14.82-24.519l1.277,0.913l-1.643,1.096c-0.184,0.912-3.651,4.017-3.651,4.017
						c-0.729-2.556,0.365-1.462,1.461-1.825c1.094-0.364,0.181-2.19,0.181-2.19L-14.82-24.519z"/>
					<path fill="#2F8F64" d="M-10.191-26.277l-1.524,1.939c0,0-3.104,0.184-3.653-0.549c-0.547-0.729,1.46-0.181,2.739-0.729
						c1.278-0.545,1.278-1.644,1.278-2.19c0-0.549-0.276-2.286,0.41-0.958c0,0,0.686,0.047,1.051-0.502
						c0.365-0.549,0.699,0.693,0.911-0.182C-8.979-29.447-9.033-26.939-10.191-26.277z"/>
				</g>
				<path fill="#2F8F64" d="M-20.662-21.779c0,0,3.103-1.646,3.467-2.559c0,0,0.185-1.46,0.73-1.46c0.549,0,1.871,0.509,2.578-0.752
					l0.526-4.727c0,0-0.643-0.17-0.914,0.729c-0.269,0.902-1.664,1.009-1.664,1.009l-0.526-0.642l-0.365,1.277l-1.069-0.92
					l-0.391,2.746c0,0-0.364,0.729-0.911,0.914c-0.549,0.18-0.549,2.006-0.549,2.006S-21.941-23.425-20.662-21.779z"/>
				<path fill="#2F8F64" d="M-22.67-21.961l-4.382-6.026l-1.278-3.287c0,0,0.914,0,1.644,1.461c0.73,1.46,0.182-1.277,1.096,0.549
					l1.277,0.911c0,0,1.278,0.915,1.644,2.925l0.912,0.181C-21.758-25.25-21.21-19.407-22.67-21.961z"/>
				<path fill="#2F8F64" d="M-18.471-13.93c0,0,3.47,0.365,5.477-1.278c2.01-1.642,6.573-4.93,6.573-4.93l3.104-3.103l-3.286,1.826
					l0.685-0.931l-1.962,1.66L-9.707-20.5l-1.276,1.641c0,0-1.096,0.549-1.461-0.182c0,0-1.644,0-0.914,1.643l-2.371,0.914
					C-15.731-16.484-20.662-15.754-18.471-13.93z"/>
			</g>
			<g>
				<g>
					<path fill="#2D5447" d="M3.251-54.138c0,0,2.218,15.311,1.764,18.934c-0.457,3.62-0.454,10.5-0.454,10.5l-0.996,9.267
						c0,0-0.821,5.227-0.279,6.464c0.542,1.238,0.998,4.497,0.998,4.497S4.791,4.449,4.703,6.469
						c-0.088,2.019,0.928,8.403,0.928,8.403l0.572,5.152c0,0,0.175,1.088,0.054,3.916c-0.074,1.713-0.362,12.396,0.88,11.235
						C8.376,34.015,9.04,21.528,9.04,21.528s0.497-1.19,0.305-3.627c-0.192-2.438-0.394-4.674-0.394-4.674l0.246-7.375L7.901-5.536
						l-0.036-6.071l0.56-12.93c0,0,1.449-12.889,1.202-14.113c-0.244-1.225,0.914-14.262,0.914-14.262S10.187-57.109,3.251-54.138z"
						/>
					<path fill="#92523B" d="M4.737-54.138c0,0,1.715,13.192,1.587,16.153L4.009-11.908l0.99,4.631L5.56,7.313
						c0,0,0.13,6.214,0.699,6.778c0.571,0.563,1.061,7.602,1.015,8.678c0,0-0.093,6.742,0.362,5.411
						c0.454-1.327,0.581-8.878,0.442-10.234c-0.142-1.354-0.187-4.863-0.142-5.939c0.049-1.078,0.548-3.484,0.21-4.851
						C7.808,5.795,6.386-7.222,6.666-9.098c0.278-1.877,0.127-7.549,0.127-7.549s1.348-17.481,1.408-18.828
						c0.057-1.349,0.045-10.251,0.512-11.85c0.465-1.601,1.328-7.771-1.423-8.43C4.539-56.41,4.737-54.138,4.737-54.138z"/>
					<g>
						<path fill="#2D5447" d="M36.613-13.201l-0.646,0.897c2.938-0.205-2.021,3.032-2.021,3.032c-2.029,0.993-1.6,1.132-2.275,1.517
							c-1.77,1.013-4.78,2.89-3.717,2.005c-0.616,0.511-3.11,0.775-3.11,0.775S23.376-5.408,23.341-4.6
							c-0.036,0.81-0.676,1.861-0.676,1.861l-1.381,0.48c0.124,0.682,0.028,1.63-0.241,2.512c0.778-0.176,1.436-0.47,1.831-0.962
							c1.889-2.348,2.395-0.303,0.522,1.644l3.97-2.258l-0.07,1.614l3.688-2.674l3.933-1.448c0,0-0.648,1.186-3.094,2.7
							c-2.446,1.513-6.416,3.771-6.416,3.771s-6.291,0.941-7.252,2.517c-0.33,0.544-0.828,1.172-1.341,1.768
							c3.028-1.01,6.16-1.865,6.16-1.865l-4.067,2.253l-5.199,2.823l-2.623,2.543c-0.479,1.336-0.489,2.488-0.308,3.432
							c0.072-0.23,0.145-0.457,0.217-0.674c-0.095-1.469,0.671-2.43,0.671-2.43l1.188,3.137c0.005-0.012,0.015-0.023,0.02-0.037
							l-0.288-1.438c0,0,0.829-0.773,1.282-2.104c0.184-0.534,0.291-0.109,0.356,0.581c0.048-0.026,0.098-0.044,0.149-0.046
							c0.399-0.025,0.223,1.298-0.051,2.621c0,0.058,0,0.102,0,0.102l0.563-0.35l0.614-1.46c0,0,1.599-5.531,2.246-4.585
							c0.016,0.022,0.025,0.054,0.038,0.08c0.47-0.82,0.531,0.666,0.501,2.066c0.385-0.986,0.826-1.841,1.153-1.638
							c0.281,0.176-0.09,1.61-0.643,3.291l1.224-0.668c0,0,1.316-2.912,2.133-3.416s-0.536,3.217-0.536,3.217l2.855-1.769
							c0,0,1.712-2.896,2.505-2.86c0.792,0.035-1.107,2.652-1.107,2.652l2.471-2.051c1.876-2.078,4.194-0.63,2.576,0.107
							c-1.622,0.741-6.968,5.099-6.968,5.099s-2.949,3.92-5.011,5.72c-0.665,0.58-1.757,0.97-2.928,1.237l-1.033,2.429
							c0.108,0.016,0.195,0.087,0.271,0.182l2.618-2.039l1.154,0.859l1.084-2.114l1.629-1.007l-0.089,2.155
							c0,0,0.816-0.504,1.457-1.558c0.64-1.049,2.236-1.25,2.236-1.25l-2.143,3.685l1.457-1.558
							c1.862-1.809,3.018-0.946,3.018-0.946l-1.316,2.909c0,0-3.869,2.261-6.479,2.959c-1.8,0.48-6.516,5.191-9.271,8.074
							c0.003,0.487-0.025,2.146-0.495,3.324c1.21-0.525,3.022-1.512,3.042-2.74c0.033-1.846,4.685-0.518,4.685-0.518l-1.904,2.753
							c0,0,2.412-0.708,3.322-1.073c0.908-0.363,2.097-0.312,2.097-0.312s-3.704,3.077-5.209,3.418
							c-1.13,0.254-6.032,6.067-8.398,8.936l-1.056,3.203l-1.433,5.604c0,0-1.544-3.305-1.264-5.182
							c0.279-1.878-2.967-7.176-2.967-7.176s-3.624-3.396-5.592-3.751c-1.97-0.354-3.857-2.595-3.857-2.595
							s-1.727-1.425-2.729-1.197c-1.002,0.226-1.933-1.164,0.235-0.799c2.165,0.362,3.144,0.674,3.144,0.674l-2.074-2.519
							c0,0,1.188,0.051,2.53,1.189c1.339,1.137,2.108,1.71,2.108,1.71l-1.05-3.284c0,0,1.585,0.07,2.134,1.169
							c0.549,1.104,1.865,2.78,1.865,2.78l1.106-2.648l3.479,0.398c-0.11-0.733-0.276-1.037-0.276-1.037s-6.921-5.154-9.275-5.797
							l-5.29-1.576l-3.427-3.387c0,0-0.14-1.355,1.409-0.48l1.725,1.424c0,0-2.645-3.082-1.27-2.754
							c1.374,0.332,2.69,2.008,2.69,2.008l1.959,0.621l-1.644-3.307c0,0,1.771,0.346,2.703,1.736
							c0.933,1.386,1.712,1.692,1.712,1.692l0.62-0.516l-1.282-2.482c0,0,1.154,0.857,2.108,1.709
							c0.348,0.31,1.594,0.408,3.037,0.408c-0.699-0.917-1.984-1.829-1.919-3.329c-0.829,0.217-0.886-1.015-2.236-1.072
							c0,0-6.863-1.914-8.005-3.043c0,0-1.818,0.729-3.775,0.106c-1.957-0.625-0.523-1.643,0.664-1.592l-2.319-1.449
							c0,0-4.383-4.237-1.234-3.561l2.282,2.256c0,0-0.71-1.918,1.026-0.765l2.284,2.257l-0.84-3.543c0,0,1.562,0.606,1.515,1.684
							l1.295,2.217c0,0-0.201-4.598,0.338-3.225c0.535,1.371,1.26,3.022,1.26,3.022s0.301-2.418,1.268-1.834
							c0.968,0.58,0.514,1.91,0.514,1.91l1.736,1.154l1.503-2.635c0,0,0.71,1.92,1.48,2.494c0.77,0.569,1.562,0.604,1.562,0.604
							l0.495-0.617l-0.141-0.43c-2.265-0.678-3.009-2.984-3.009-2.984l0.048-0.573c-7.804-2.133-11.923-4.343-13.151-5.08
							c-1.933-1.162-4.768-4.521-4.768-4.521s-2.27-2.527-0.886-2.469c1.389,0.061,1.912,1.703,1.912,1.703l2.122,1.438
							l-1.424-3.838c0,0,2.482,2.263,2.636,3.351c0.151,1.088,1.91,1.702,1.91,1.702l-0.221-4.057c0,0,0.385,0.285,1.327,1.406
							c0.945,1.121,0.863,3.006,1.456,3.031c0.596,0.024,2.158,0.633,2.158,0.633l-0.484-2.006c-0.13-0.019-0.268-0.061-0.413-0.193
							c-1.339-1.206-2.171-1.443-2.171-1.443s-0.696-1.108-1.268-1.672c0.984,0.972-3.23-1.016-3.448-2.848
							c-0.115-0.953-0.608,0.243-2.544-0.921c0,0-2.913-2.555-0.549-2.182l-2.075-2.519c0,0-4.322-5.584-2.739-5.515
							c1.586,0.069,2.657,2.812,2.657,2.812s-0.698-2.187,0.898-2.388s3.041,3.098,3.041,3.098l2.243,2.773
							c0-0.009,0.002-0.016,0.005-0.021c-0.136-0.436-1.482-4.865,0.011-4.545c1.574,0.34,0.619,4.076,2.378,4.693
							c1.761,0.612,3.686,2.045,3.686,2.045s-1.203-4.369-0.258-3.248c0.943,1.121,2.949,5.255,3.939,5.297
							c0.987,0.043-0.934-5.977,2.83-1.227c1.854,2.335,2.467,3.245,2.615,3.567l2.813-0.637c0.137-0.334,0.279-0.668,0.423-0.998
							l-2.02-1.154c0,0-0.492,0.146-0.651-1.042c-0.153-1.177-1.092-1.267-1.092-1.267s-0.246-0.961-0.73-1.646
							c0.725,1.023-2.284-1.381-3.09-2.032c-0.725-0.228-1.436-0.498-2.106-0.822c0,0-1.056-1.215-1.148-1.991
							c-0.411-0.304-0.809-0.585-1.152-0.823c-1.257-0.194-2.884-0.614-4.233-1.551l-3.626-4.021l-3.158-2.486
							c0,0-3.209-5.445,1.304-1.793l2.276,3.031l1.769-0.252l-2.781-3.033c0,0-3.524-4.56,1.672-0.467
							c1.579,1.241,2.879,3.244,2.879,3.244l1.967,0.946c-1.076-2.111-2.42-5.01-1.783-5.188c1.011-0.283,2.295,3.461,2.295,3.461
							s-0.925-3.024,0.03-3.703c0.956-0.68,1.468,3.669,1.468,3.669l0.489,0.396c0.319-0.424,0.659-0.832,0.979-1.118
							c-0.006-1.158,0.118-2.38,0.682-2.318c1.062,0.113,1.573,4.808,2.816,5.281c0.036,0.014,0.072,0.037,0.112,0.053
							c0.219-1.243,0.553-2.548,1.058-3.232c-0.766-2.631-2.012-7.225-1.474-7.498c0.756-0.384,1.625,4.352,1.625,4.352
							s-0.618-3.825,0.107-4.713c0.725-0.89,1.843,4.759,1.843,4.759l1.432,4.449c0,0-1.016-5.38-0.231-5.263
							c0.786,0.119,0.857,3.351,1.766,3.925c0.911,0.571,0.594,0.022,0.594,0.022s-0.13-4.356,0.462-2.59
							c0.331,0.988,0.656,2.727,0.959,4.031l0.68-1.924l0.345,0.119c0.162-1.53,0.521-2.167,1.656,1.958
							c0.899,3.273,1.151,4.3,1.151,4.3l1.883,0.553c0,0,0.58-0.295,0.832,0.881c0.3-0.758,0.71-1.757,1.273-3.084
							c2.855-6.758,1.063,2.072,1.703,2.097c0.64,0.028,2.31-5.972,3.019-7.56s-0.466,4.838-0.466,4.838s1.367-1.968,2.554-2.723
							c1.187-0.761,0.919-6.437,1.961-6.795c1.041-0.362-0.425,6.86-0.425,6.86l1.71-3.976c0,0,1.233-4.802,2.238-4.354
							c1.008,0.449,0.356,3.658,0.356,3.658s0.941-4.008,1.964-3.965c1.025,0.045-2.267,7.997-2.267,7.997l-1.565,3.577
							c1.554-0.338,1.191,3.592-0.158,5.153c-0.232,0.27-0.489,0.38-0.753,0.396c-0.11,0.322-0.192,0.543-0.192,0.543
							s2.041-1.262,3.847-1.725c1.806-0.463,1.176-4.267,2.771-4.467c1.597-0.201-0.395,4.569-0.395,4.569l2.493-2.59
							c0,0,1.724-3.164,3.297-2.826c1.574,0.338,0.688,2.457,0.688,2.457s1.305-2.641,2.89-2.572
							c1.585,0.067-3.204,5.256-3.204,5.256l-2.284,2.332c0.894-0.062,1.396,0.264,1.566,0.75c0.983-1.125,0.749-3.862,2.099-4.032
							c1.597-0.201-0.396,4.569-0.396,4.569l2.493-2.591c0,0,1.724-3.161,3.298-2.825c1.572,0.335,0.687,2.457,0.687,2.457
							s1.306-2.641,2.889-2.571C41.402-18.393,36.613-13.201,36.613-13.201z"/>
					</g>
				</g>
				<path fill="#2F8F64" d="M2.421,32.129l-5.111-2.92c0,0-4.141-2.191-5.114-2.437c0,0-4.381-1.703-2.677-1.703l-2.334-1.278
					c0,0-0.344-0.911,0.63-0.425l2.434,1.461h1.461c0,0-2.19-1.947-0.974-1.705c1.217,0.244,2.434,1.218,2.434,1.218l1.217,0.244
					l-0.43-1.312l1.403,0.58l2.437,0.486l1.459,1.704l-1.945,0.242c0,0-0.733,1.218,1.457,1.947
					C0.961,28.964,4.612,33.345,2.421,32.129z"/>
				<path fill="#2F8F64" d="M3.638,39.92c0,0,1.461,1.217,2.19,2.922c0.73,1.703,1.947-1.462,1.947-1.462s2.896-1.725,1.447,0.599
					l3.667-3.032L7.533,45.03c0,0-1.218,2.923-1.461,4.141c-0.243,1.217,0,3.407-1.46-0.244l-2.921-5.843l-1.948-1.947
					c0,0-3.166-1.459-4.383-1.947c-1.217-0.486-3.407-2.678-3.407-2.678s-0.243-1.947,1.217-0.244
					c1.461,1.705,2.19,1.461,2.19,1.461l0.974-0.244l1.95,1.219l3.407,0.975c0,0-0.974-1.949,0-1.463
					C2.665,38.703,3.638,39.92,3.638,39.92z"/>
				<path fill="#2F8F64" d="M5.686,31.645c0,0,0.143-2.436,2.09-2.924c1.947-0.486-0.243,1.852-0.243,1.852l2.015-0.721
					c0,0,4.005-2.248,2.822-0.959c-1.187,1.288-2.518,3.129-2.518,3.129s-2.764,1.777-1.566,0.334
					c1.194-1.444-2.827,0.285-2.827,0.285L5.686,31.645z"/>
				<path fill="#2F8F64" d="M13.377,27.991c0,0,4.382-2.921,6.085-3.406c1.704-0.487,5.111-1.949,5.599-2.681
					c0.486-0.729,1.384-1.393-0.245-0.729c-1.623,0.662-2.433,0.973-2.433,0.973l1.217-1.947l-2.434,2.191l-0.487-1.461l-1.217,2.19
					l-1.947-0.729l-2.435,2.191l-5.356,2.188l0.243,1.218C9.966,27.991,13.861,24.828,13.377,27.991z"/>
				<path fill="#2F8F64" d="M8.155,21c0,0-4.372-0.457-4.021,0.761l-0.627-1.675l-1.467,0.61l-1.713-0.61c0,0,0-1.371,0.486-0.761
					l1.47-0.153c0,0-1.47-0.152-1.956-1.22c-0.489-1.065,0.979,0,0.979,0l-0.979-1.523c0,0-0.489-1.067,1.223,0.304
					c1.713,1.373,0.49-1.22,0.49-1.22s0.489-0.913,0.978,0.153c0.489,1.065,1.468,0.763,2.446,0.151
					c0.979-0.606,2.202-3.352,1.957-1.372l-1.034,1.968c0,0,2.259-1.356,2.259-1.968c0-0.607,1.466,0.307-0.49,2.137
					c0,0,1.713,0.456,0.244,1.37L7.592,18.9l1.296-0.488c0,0,0.116,0.412-1.223,1.064l-0.489,0.916
					C7.176,20.393,9.927,19.422,8.155,21z"/>
				<path fill="#2F8F64" d="M-1.959,18.252l-3.167-2.678l-1.461,0.729c0,0-2.19-2.435-2.434-1.459
					c-0.243,0.973,3.651,3.406,3.651,3.406L-1.959,18.252L-1.959,18.252z"/>
				<path fill="#2F8F64" d="M-9.751,16.548l-3.164-1.946l-1.46-1.704l-0.73,0.974l-2.677-2.189c0,0-2.438,0,0,1.704
					C-15.351,15.088-9.751,16.548-9.751,16.548z"/>
				<path fill="#2F8F64" d="M-14.619,14.846c0,0-4.628,0.973-2.193-0.486L-14.619,14.846z"/>
				<path fill="#2F8F64" d="M-6.83,8.76c0,0-6.571-1.217-7.302-1.947c-0.731-0.729-4.383-1.947-1.95-1.947h4.628l8.275,4.14
					L-6.83,8.76z"/>
				<path fill="#2F8F64" d="M-2.204,8.76l-11.441-8.521c0,0-2.192-0.729-2.681-1.703c-0.486-0.973-2.921-0.973-3.164-2.19
					l-0.73-1.946c0,0-1.864-0.038-2.92-1.218l-0.487-1.703l-3.164-3.654c0,0,0-0.729,1.947,0.73c0,0-1.218-4.381,1.947,0.243
					l2.677,2.681c0,0-0.243-3.408,0.487-1.947l1.218,1.947l3.896,1.703l1.217,0.488l0.243-0.976l1.947,2.921l1.217,5.112
					c0,0,1.704,1.459,2.921,1.217c1.217-0.245,0.973,1.702,0.973,1.702s6.089,1.95,3.168,2.192l-1.95-0.242
					C-4.883,5.596,0.717,10.707-2.204,8.76z"/>
				<path fill="#2F8F64" d="M4.51,8.575L1.297,6.396c0,0-1.514-0.738,0.17-0.8c1.682-0.062,0.529-0.138,0.529-0.138l-0.63-0.967
					c0,0-2.896-1.696-1.919-1.573c0.974,0.123,1.106-0.103,1.106-0.103l-1.392-1.711c0,0-1.39-1.713-0.322-1.238l-0.77-1.496
					c0,0-0.368-1.413,0.837-0.407l1.745,1.621l-1.323-3.62c0,0-0.367-1.411,0.892,0.523c1.261,1.937,1.269,2.688,1.269,2.688
					L1.31-5.115c0,0,0.698-0.939,1.077,1.229l0.467,2.518c0,0,1.384,0.959,1.499-0.771C4.467-3.868,5.35-4.099,5.028-0.994
					L4.737,0.783c0,0,2.312-3.438,1.46-0.192c0,0,0.659-0.361,0.022,2.256c0,0,1.401,0.688,0.954,2.205L6.726,6.568
					c0,0-1.818-2.246-2.018-0.119l1.706,2.196c0,0-1.337-0.783-0.653,1.114c0,0-2.312-0.906-2.08-0.023L2.251,8.6
					C2.252,8.6,2.104,7.316,4.51,8.575z"/>
				<path fill="#2F8F64" d="M10.21,5.961c0,0,5.845-0.914,7.121-2.011c1.279-1.094,2.922-3.649,2.922-5.112
					c0,0-0.933-1.304-1.015-0.378l-0.993-1.811c0,0-0.73,0.912-0.914,1.642c-0.182,0.729-1.825-0.729-1.825-0.729s-0.913,0,0,2.008
					c0.914,2.008-0.532,1.088-1.279,0c-0.743-1.086-0.911-0.184-0.365,1.097c0.549,1.276-0.546,1.643-0.546,1.643
					s-1.826-2.191-1.461-0.914C12.22,2.672,12.4,2.857,12.4,2.857s-0.18,1.459-1.274,1.823C10.029,5.047,10.21,5.961,10.21,5.961z"
					/>
				<path fill="#2F8F64" d="M10.394,9.062c0,0,2.19-1.094,2.374-1.824c0.182-0.729-0.914-0.547-0.914-0.547L10.394,9.062z"/>
				<path fill="#2F8F64" d="M13.861,8.152c0,0,3.104-0.184-0.182,1.095c-3.285,1.276-1.644,0-1.644,0L13.861,8.152z"/>
				<path fill="#2F8F64" d="M6.666-9.098c0,0-7.41-0.461-9.233-2.834c-1.829-2.375-4.384-10.59-4.384-10.59l-0.547-4.383
					c0,0,0.547-2.373,0.911,0.364c0,0,1.947,4.232,2.615,3.212c0,0,0.631-1.718,1.475,1.006c0.841,2.723-0.255-0.383-0.255-0.383
					l0.73-0.549c0,0,0.365-3.103,1.277,1.098l1.644-1.098l-0.182,5.661c0,0,0.73,6.025,1.096,4.746c0,0,0.545-4.199,1.095-2.922
					c0.547,1.279,0.364,3.471,0.364,3.471s2.191-2.01,2.374,0.183l-0.731,0.911l2.01,0.366l-0.548,0.729L6.666-9.098z"/>
				<path fill="#2F8F64" d="M-19.976-20.453c0,0,2.13,3.65,3.65,3.895c1.522,0.244,3.818-0.278,4.314,1.169
					c0.494,1.45,1.043,1.752,2.26,2.239c1.218,0.486,3.65,2.68,3.65,2.68s1.948,2.922,1.461,0.486c0,0-0.729-3.41-2.19-4.141
					c-1.46-0.729-1.703,0-1.703,0l-0.974-3.406c0,0-1.219-0.73-0.974,0.729c0.243,1.46-1.461-3.406-1.461-3.406
					s-1.703,0.243-1.217,1.702c0.488,1.462-2.191-2.433-2.191-2.433l-2.188-0.486c0,0,0.486,1.461,0.971,2.19
					c0.486,0.729-1.739-1.692-3.164-2.436c-1.424-0.743-2.921-0.973-3.895-2.436C-23.627-24.105-21.922-21.426-19.976-20.453z"/>
				<path fill="#2F8F64" d="M11.67-6.273c0,0,10.771-5.112,12.965-6.936c2.19-1.827,5.659-4.934,5.659-4.934
					s0.182-0.729-1.824,0.731c0,0,2.188-2.375,0.911-2.738c0,0-1.096,1.643-3.65,3.652c-2.556,2.008-3.105,1.096-3.105,1.096
					l0.365-2.01c0,0-1.095,2.374-3.104,3.649c0,0,0.366,1.097-1.276,2.011C16.965-10.837,11.67-6.273,11.67-6.273z"/>
				<path fill="#2F8F64" d="M20.983-7.005c0,0,6.573,0.915,10.224-1.458l5.295-5.661l2.372-2.736c0,0,0-0.185-2.007,1.643
					l-1.095,0.55c0,0,0.549-2.558,0-1.646c0,0-1.645,1.646-2.739,3.834c-1.096,2.191-2.191,1.825-2.191,1.825h-1.825
					c0,0,1.643-2.92,1.46-3.833c-0.182-0.912-1.095,2.19-1.095,2.19l-1.825,2.373l-3.651,0.73L22.991-8.1
					c0,0-4.183,1.043-5.104,1.984L20.983-7.005z"/>
				<path fill="#2F8F64" d="M20.8,2.492c0,0,4.381,0,5.111-0.549l2.374-1.462l-1.824,0.366l-0.184-0.73L23.54,1.395
					c0,0-0.914,0-0.364-0.913l-1.098,0.366l-2.373,2.01l-0.729,0.73L20.8,2.492z"/>
				<path fill="#2F8F64" d="M10.94-14.125c0,0,0.549-3.832,1.279-4.382c0.73-0.545,3.651-3.104,3.286-2.008
					c-0.365,1.097-1.461,3.104-1.461,3.104L10.94-14.125z"/>
				<path fill="#2F8F64" d="M16.6-21.244c0,0-0.365-2.922,0.73-4.017c1.095-1.096,1.825-3.469,1.825-3.469s0.914,0.182,0.549,1.643
					L16.6-21.244z"/>
			</g>
		</g>
	</g>
</symbol>
<g id="Calque_7">
	
		<linearGradient id="SVGID_1_" gradientUnits="userSpaceOnUse" x1="325.8032" y1="363.3013" x2="325.8032" y2="1135.0688" gradientTransform="matrix(1 0 0 -1 102.5 1020)">
		<stop  offset="0" style="stop-color:#5E3F2F"/>
		<stop  offset="1" style="stop-color:#000000"/>
	</linearGradient>
	<polygon fill="url(#SVGID_1_)" points="-698.645,656.699 1537.22,517.227 1555.252,-115.069 -336.059,-104.833 -671.944,-103.159 	
		"/>
</g>
<g id="Calque_1_2_">
	
		<use xlink:href="#Arbres_2"  width="80.278" height="111.745" x="-40.139" y="-55.873" transform="matrix(6.6394 0 0 -6.6394 61.5889 -3.5679)" overflow="visible"/>
	<g>
		
			<use xlink:href="#Arbres_2"  width="80.278" height="111.745" x="-40.139" y="-55.873" transform="matrix(7.5358 0 0 -7.5358 234.6973 46.2075)" overflow="visible"/>
		<g>
			
				<use xlink:href="#Arbres_2"  width="80.278" height="111.745" x="-40.139" y="-55.873" transform="matrix(7.5358 0 0 -7.5358 905.999 -60.3379)" overflow="visible"/>
			
				<use xlink:href="#Arbres_2"  width="80.278" height="111.745" x="-40.139" y="-55.873" transform="matrix(7.5358 0 0 -7.5358 99.0586 28.2944)" overflow="visible"/>
			
				<use xlink:href="#Arbres_2"  width="80.278" height="111.745" x="-40.139" y="-55.873" transform="matrix(7.5358 0 0 -7.5358 858.5469 33.7871)" overflow="visible"/>
			
				<use xlink:href="#Arbres_2"  width="80.278" height="111.745" x="-40.139" y="-55.873" transform="matrix(7.5358 0 0 -7.5358 949.5762 40.1753)" overflow="visible"/>
			
				<use xlink:href="#Arbres_2"  width="80.278" height="111.745" x="-40.139" y="-55.873" transform="matrix(7.5358 0 0 -7.5358 1189.8828 6.835)" overflow="visible"/>
			
				<use xlink:href="#Arbres_2"  width="80.278" height="111.745" x="-40.139" y="-55.873" transform="matrix(7.5358 0 0 -7.5358 455.0117 -57.3369)" overflow="visible"/>
		</g>
	</g>
	<g>
		
			<use xlink:href="#Arbres_2"  width="80.278" height="111.745" x="-40.139" y="-55.873" transform="matrix(7.5358 0 0 -7.5358 595.0654 30.9146)" overflow="visible"/>
		<g>
			
				<use xlink:href="#Arbres_2"  width="80.278" height="111.745" x="-40.139" y="-55.873" transform="matrix(7.5358 0 0 -7.5358 1266.3672 -75.6309)" overflow="visible"/>
			
				<use xlink:href="#Arbres_2"  width="80.278" height="111.745" x="-40.139" y="-55.873" transform="matrix(7.5358 0 0 -7.5358 900.7529 84.9058)" overflow="visible"/>
			
				<use xlink:href="#Arbres_2"  width="80.278" height="111.745" x="-40.139" y="-55.873" transform="matrix(7.5358 0 0 -7.5358 459.4268 13.001)" overflow="visible"/>
			
				<use xlink:href="#Arbres_2"  width="80.278" height="111.745" x="-40.139" y="-55.873" transform="matrix(7.5358 0 0 -7.5358 1218.915 18.4941)" overflow="visible"/>
			
				<use xlink:href="#Arbres_2"  width="80.278" height="111.745" x="-40.139" y="-55.873" transform="matrix(7.5358 0 0 -7.5358 1309.9443 24.8823)" overflow="visible"/>
			
				<use xlink:href="#Arbres_2"  width="80.278" height="111.745" x="-40.139" y="-55.873" transform="matrix(7.5358 0 0 -7.5358 1550.251 -8.458)" overflow="visible"/>
		</g>
	</g>
	
		<use xlink:href="#Arbres_2"  width="80.278" height="111.745" x="-40.139" y="-55.873" transform="matrix(1.6455 0 0 -1.6455 610.4365 -243.8525)" overflow="visible"/>
	
		<use xlink:href="#Arbres_2"  width="80.278" height="111.745" x="-40.139" y="-55.873" transform="matrix(1.6455 0 0 -1.6455 664.3916 -235.7061)" overflow="visible"/>
	
		<use xlink:href="#Arbres_2"  width="80.278" height="111.745" x="-40.139" y="-55.873" transform="matrix(7.5358 0 0 -7.5358 566.0303 88.4546)" overflow="visible"/>
	<polygon display="none" fill="#666666" points="-247.728,470.53 1743.866,470.53 1840.565,812.53 -58.679,812.53 	"/>
</g>
<g id="Calque_1_1_">
	<g>
		
			<use xlink:href="#Arbres_1"  width="-32766" height="-32766" x="16383" y="16383" transform="matrix(-0.0257 0 0 0.0257 605.3164 66.3813)" overflow="visible"/>
		<g>
			
				<use xlink:href="#Arbres_1"  width="-32766" height="-32766" x="16383" y="16383" transform="matrix(-0.0257 0 0 0.0257 469.6777 48.4678)" overflow="visible"/>
			
				<use xlink:href="#Arbres_1"  width="-32766" height="-32766" x="16383" y="16383" transform="matrix(-0.0257 0 0 0.0257 1229.166 53.9609)" overflow="visible"/>
			
				<use xlink:href="#Arbres_1"  width="-32766" height="-32766" x="16383" y="16383" transform="matrix(-0.0257 0 0 0.0257 1320.1953 60.3491)" overflow="visible"/>
			
				<use xlink:href="#Arbres_1"  width="-32766" height="-32766" x="16383" y="16383" transform="matrix(-0.0257 0 0 0.0257 1560.502 27.0088)" overflow="visible"/>
			
				<use xlink:href="#Arbres_1"  width="-32766" height="-32766" x="16383" y="16383" transform="matrix(-0.0257 0 0 0.0257 1276.6182 -40.1641)" overflow="visible"/>
			
				<use xlink:href="#Arbres_1"  width="-32766" height="-32766" x="16383" y="16383" transform="matrix(-0.0257 0 0 0.0257 825.6309 -37.1631)" overflow="visible"/>
		</g>
	</g>
	<g>
		
			<use xlink:href="#Arbres_1"  width="-32766" height="-32766" x="16383" y="16383" transform="matrix(-0.0257 0 0 0.0257 244.9487 81.6743)" overflow="visible"/>
		<g>
			
				<use xlink:href="#Arbres_1"  width="-32766" height="-32766" x="16383" y="16383" transform="matrix(-0.0257 0 0 0.0257 109.3101 63.7612)" overflow="visible"/>
			
				<use xlink:href="#Arbres_1"  width="-32766" height="-32766" x="16383" y="16383" transform="matrix(-0.0257 0 0 0.0257 868.7979 69.2539)" overflow="visible"/>
			
				<use xlink:href="#Arbres_1"  width="-32766" height="-32766" x="16383" y="16383" transform="matrix(-0.0257 0 0 0.0257 959.8271 75.6421)" overflow="visible"/>
			
				<use xlink:href="#Arbres_1"  width="-32766" height="-32766" x="16383" y="16383" transform="matrix(-0.0257 0 0 0.0257 1200.1338 42.3018)" overflow="visible"/>
			
				<use xlink:href="#Arbres_1"  width="-32766" height="-32766" x="16383" y="16383" transform="matrix(-0.0257 0 0 0.0257 916.25 -24.8711)" overflow="visible"/>
			
				<use xlink:href="#Arbres_1"  width="-32766" height="-32766" x="16383" y="16383" transform="matrix(-0.0257 0 0 0.0257 465.2627 -21.8701)" overflow="visible"/>
		</g>
	</g>
	
		<use xlink:href="#Arbres_1"  width="-32766" height="-32766" x="16383" y="16383" transform="matrix(-0.0056 0 0 0.0056 620.6885 -208.3833)" overflow="visible"/>
	
		<use xlink:href="#Arbres_1"  width="-32766" height="-32766" x="16383" y="16383" transform="matrix(-0.0056 0 0 0.0056 674.6426 -200.2368)" overflow="visible"/>
	
		<use xlink:href="#Arbres_1"  width="-32766" height="-32766" x="16383" y="16383" transform="matrix(-0.0226 0 0 0.0226 71.8403 31.8994)" overflow="visible"/>
	
		<use xlink:href="#Arbres_1"  width="-32766" height="-32766" x="16383" y="16383" transform="matrix(-0.0257 0 0 0.0257 576.2812 123.9214)" overflow="visible"/>
	<polygon fill="#666666" points="-237.477,506 1754.117,506 1850.816,848 -48.428,848 	"/>
</g>
<g id="Calque_2" display="none">
</g>
<g id="Calque_8" display="none">
	<rect x="115" y="264" display="inline" fill="#9090A3" width="260" height="115"/>
	<path display="inline" fill="#E8E8E8" d="M-99,225v315h319v-28h107v28h74V225H-99z M333,345.971c0,7.54-4.477,14.029-10,14.029H153
		c-5.523,0-10-6.489-10-14.029v-42.32c0-7.54,4.477-13.651,10-13.651h170c5.523,0,10,6.112,10,13.651V345.971z"/>
	
		<rect x="247.433" y="297.805" transform="matrix(-0.979 0.204 -0.204 -0.979 607.8104 584.2457)" display="inline" fill="#EFBB95" width="52.717" height="51.292"/>
	
		<rect x="260.621" y="322.761" transform="matrix(-0.979 0.2039 -0.2039 -0.979 587.9479 592.0609)" display="inline" fill="#EAEAEA" width="5.699" height="7.122"/>
	
		<rect x="281.543" y="318.4" transform="matrix(-0.979 0.2039 -0.2039 -0.979 628.4587 579.1699)" display="inline" fill="#EAEAEA" width="5.699" height="7.123"/>
	
		<rect x="262.419" y="325.197" transform="matrix(-0.9787 0.2051 -0.2051 -0.9787 587.6385 591.2668)" display="inline" width="1.514" height="1.783"/>
	
		<rect x="283.339" y="320.852" transform="matrix(-0.9787 0.2053 -0.2053 -0.9787 628.1915 578.311)" display="inline" width="1.513" height="1.783"/>
	
		<rect x="258.636" y="321.377" transform="matrix(-0.8491 0.5283 -0.5283 -0.8491 657.0419 459.3228)" display="inline" fill="#EFBB95" width="8.55" height="4.274"/>
	
		<rect x="280.942" y="316.73" transform="matrix(0.9894 0.1452 -0.1452 0.9894 49.3345 -38.0424)" display="inline" fill="#EFBB95" width="8.55" height="4.275"/>
	<polygon display="inline" points="267.107,343.747 267.297,343.46 269.315,340.377 284.658,337.178 288.522,339.283 	"/>
	<path display="inline" fill="#FFDA6A" d="M242.753,303.708l3.197,15.341l51.605-10.755l-3.197-15.343L242.753,303.708z"/>
	<polygon display="inline" fill="#4F4F4F" points="265.771,351.302 255.662,391.249 308.441,393.104 295.525,345.101 	"/>
	<rect x="225" y="517" display="inline" width="97" height="97"/>
	<rect x="-99" y="360" display="inline" fill="#EA0000" width="500" height="43"/>
	<path display="inline" opacity="0.2" fill="#3D92E8" enable-background="new    " d="M333,345.971c0,7.54-4.477,14.029-10,14.029
		H153c-5.523,0-10-6.489-10-14.029v-42.32c0-7.54,4.477-13.651,10-13.651h170c5.523,0,10,6.112,10,13.651V345.971z"/>
	<rect x="348" y="214" display="inline" fill="#636466" width="21" height="11"/>
	
		<radialGradient id="SVGID_2_" cx="272.834" cy="817.5" r="10.7761" gradientTransform="matrix(1.05 0 0 -1 72.0248 1020)" gradientUnits="userSpaceOnUse">
		<stop  offset="0" style="stop-color:#CBDFF3"/>
		<stop  offset="0.0643" style="stop-color:#C2DBF1"/>
		<stop  offset="0.1714" style="stop-color:#A8D1ED"/>
		<stop  offset="0.3079" style="stop-color:#7FC1E6"/>
		<stop  offset="0.4669" style="stop-color:#46ABDD"/>
		<stop  offset="0.5674" style="stop-color:#1E9BD6"/>
		<stop  offset="0.8652" style="stop-color:#0075BD"/>
		<stop  offset="0.9944" style="stop-color:#005B96"/>
	</radialGradient>
	<rect x="348" y="191" display="inline" fill="url(#SVGID_2_)" width="21" height="23"/>
</g>
<g id="Calque_3">
	<path fill="#A8A8A8" d="M1734.954,339.125l-133.676-0.119l-54.88-56.622l-217.281,35.321l-51.297,78.899l-137.938,44.365
		l20.368,121.548l69.18-11.248l24.042-38.245l102.442-16.65l20.003,31.084l177.861-28.91l14.229-38.011l91.804-14.92l38.422,29.451
		l57.536-9.353L1734.954,339.125z M1301.48,416.162l29.471-76.45l95.338-17.378l0.263,0.916l9.843,65.629L1301.48,416.162z
		 M1449.806,384.233l-10.299-65.573l104.197-19.948l47.863,62.884L1449.806,384.233z"/>
	
		<rect x="1579.515" y="463.516" transform="matrix(-0.9852 0.1713 -0.1713 -0.9852 3321.3755 739.0024)" fill="#020202" width="98.576" height="98.575"/>
	
		<rect x="1267.633" y="513.607" transform="matrix(-0.9852 0.1713 -0.1713 -0.9852 2710.8027 891.8751)" fill="#020202" width="98.577" height="98.575"/>
	<polygon fill="none" stroke="#666666" stroke-miterlimit="10" points="1432.081,314.797 1464.712,505.928 1545.326,492.098 
		1568.942,447.936 1611.735,439.845 1594.202,348.726 1543.703,292.513 	"/>
	<polygon fill="none" stroke="#666666" stroke-miterlimit="10" points="1432.081,314.797 1464.712,505.928 1384.001,518.356 
		1348.648,483.994 1304.145,492.068 1287.906,398.888 1330.406,331.623 	"/>
	<polygon opacity="0.2" fill="#03ABFF" enable-background="new    " points="1439.506,318.661 1543.703,298.712 1591.566,361.598 
		1449.806,384.233 1439.538,318.863 	"/>
	<polygon opacity="0.2" fill="#03ABFF" enable-background="new    " points="1330.951,339.712 1426.289,322.334 1436.396,388.879 
		1301.48,416.162 	"/>
	<line fill="none" stroke="#000000" stroke-miterlimit="10" x1="1307.982" y1="433.52" x2="1338.306" y2="427.137"/>
	<line fill="none" stroke="#000000" stroke-miterlimit="10" x1="1457.022" y1="400.731" x2="1487.795" y2="397.075"/>
</g>
<g id="Calque_6" display="none">
	<g display="inline">
		<g>
			<polygon fill="#19151C" points="478.848,1057 515,1057 515,1014.33 515,972.938 501.392,936 465.174,936 			"/>
			
				<ellipse transform="matrix(0.2306 0.973 -0.973 0.2306 1275.9917 262.7253)" fill="#19151C" cx="471.861" cy="938.236" rx="12.564" ry="9.608"/>
			<polygon fill="#19151C" points="507.585,804.543 442.016,812.549 440.414,864.657 445.71,886.768 469.116,943 503.609,943 
				511.185,834.658 			"/>
			<path opacity="0.5" fill="#FFFFFF" enable-background="new    " d="M444.725,873.377l5.51,23.679l17.715,42.007
				c0,0-1.755,5.964-1.2,10.885s4.338,7.841,4.338,7.841l11.21,98.179l1.379,1.232l-5.938-101.752l-15.029-54.819L444.725,873.377
				L444.725,873.377z"/>
			<path opacity="0.5" fill="#FFFFFF" enable-background="new    " d="M490.305,1073h-2.957l-0.555,6.975l-55.837,16.19
				l-0.957,0.483v3.42c0,0,52.142-7.301,52.419-7.207c0.278,0.093,9.532-11.871,9.532-11.871L490.305,1073z"/>
			<rect x="484" y="1053" fill="#FFFFFF" width="21" height="17"/>
			<polygon points="509.521,1065 481,1065 481,1071.98 424,1088.98 424,1100 511,1100 			"/>
			<rect x="490" y="1062" fill="#FFFFFF" width="21" height="17"/>
			<polygon fill="#19151C" points="484.761,1067 523,1067 523,1023.199 523,981.808 507.305,946 471.087,946 			"/>
			
				<ellipse transform="matrix(0.2307 0.973 -0.973 0.2307 1289.0767 263.7822)" fill="#19151C" cx="477.719" cy="947.119" rx="12.566" ry="9.607"/>
			<polygon fill="#19151C" points="513.498,813.413 443.74,821.049 446.327,873.527 451.623,896.201 475.029,953 509.521,953 
				517.098,844.094 			"/>
			<polygon points="515.435,1075 488,1075 488,1080.851 431,1097.851 431,1110 516.913,1110 			"/>
			<polygon fill="#92BEFF" points="508.414,644.768 520.608,669.898 523.196,714.615 515.804,740.484 508.414,768.201 
				506.565,792.593 517.098,814.767 513.498,813.413 443.74,821.049 440.044,824.744 443.74,782.984 448.656,695.896 
				474.414,655.115 			"/>
			<polyline opacity="0.5" fill="#383838" enable-background="new    " points="466.453,736.334 514.098,702.333 512.847,705.418 
				466.148,737.512 			"/>
			<polyline opacity="0.5" fill="#383838" enable-background="new    " points="443.517,730.442 444.48,729.935 477.167,670.137 
				480.52,667.404 480.52,667.404 445.371,731.167 444.323,731.679 			"/>
			<polyline fill="#92BEFF" points="444.006,730.946 444.973,730.443 480.52,667.404 514.098,702.333 466.453,736.334 			"/>
			<polygon fill="#78B3F9" points="469.609,659.55 514.19,648.656 509.016,639.787 474.29,652.281 			"/>
			<polygon opacity="0.5" fill="#383838" enable-background="new    " points="470.417,659.672 511.178,650.466 510.713,649.508 
				470.771,659.266 			"/>
			<polygon fill="#EFBB95" points="507.268,640.416 508.053,622.701 515.372,595.9 510.504,574.498 453.138,590.282 454.93,607.293 
				451.202,618.539 453.854,620.748 456.705,619.965 456.382,625.291 458.375,630.685 461.72,631.966 459.653,638.109 
				464.42,642.084 475.521,639.787 476.261,651.572 			"/>
			<polygon fill="#1D56D8" stroke="#EAEA53" stroke-miterlimit="10" points="509.02,689.291 484.354,672.217 476.23,683.951 
				479.087,705.367 500.284,701.91 			"/>
			<g>
				<path d="M482.39,680.604c0.399,0.188,0.903,0.46,1.499,0.871c0.732,0.509,1.15,1.052,1.278,1.593
					c0.127,0.489,0.025,1.036-0.328,1.548c-0.36,0.521-0.796,0.822-1.292,0.919c-0.681,0.146-1.467-0.082-2.189-0.582
					c-0.223-0.154-0.42-0.305-0.562-0.465l-1.591,2.299l-0.741-0.514L482.39,680.604z M481.215,683.881
					c0.133,0.155,0.325,0.314,0.572,0.485c0.894,0.618,1.739,0.562,2.287-0.23c0.523-0.757,0.242-1.495-0.576-2.062
					c-0.323-0.225-0.588-0.368-0.739-0.424L481.215,683.881z"/>
				<path d="M487.932,689.729c-1.054,1.522-2.569,1.456-3.565,0.768c-1.115-0.772-1.409-2.186-0.507-3.487
					c0.955-1.379,2.417-1.562,3.557-0.772C488.599,687.055,488.805,688.468,487.932,689.729z M484.634,687.508
					c-0.625,0.902-0.577,1.943,0.155,2.449c0.715,0.496,1.718,0.194,2.361-0.734c0.481-0.696,0.746-1.824-0.14-2.438
					S485.176,686.725,484.634,687.508z"/>
				<path d="M491.609,686.43l0.749,0.519l-4.186,6.045l-0.749-0.519L491.609,686.43z"/>
				<path d="M493.92,689.163c-0.168,0.262-0.498,0.337-0.796,0.131c-0.264-0.183-0.31-0.518-0.132-0.772
					c0.182-0.265,0.52-0.334,0.792-0.145C494.065,688.571,494.104,688.899,493.92,689.163z M489.432,693.863l2.854-4.12l0.749,0.519
					l-2.854,4.121L489.432,693.863z"/>
				<path d="M494.466,697.122c-0.267-0.034-0.795-0.198-1.348-0.581c-1.243-0.859-1.468-2.264-0.597-3.523
					c0.878-1.268,2.383-1.586,3.729-0.654c0.442,0.306,0.758,0.688,0.892,0.931l-0.571,0.462c-0.107-0.226-0.324-0.514-0.732-0.797
					c-0.945-0.654-1.938-0.309-2.534,0.552c-0.659,0.953-0.455,1.964,0.362,2.529c0.427,0.295,0.785,0.379,1.062,0.434
					L494.466,697.122z"/>
				<path d="M496.933,696.211c-0.684,1.025-0.325,1.888,0.424,2.406c0.536,0.371,0.925,0.503,1.288,0.578l-0.244,0.625
					c-0.347-0.064-0.893-0.24-1.547-0.693c-1.269-0.878-1.449-2.238-0.59-3.479c0.861-1.243,2.271-1.717,3.472-0.886
					c1.345,0.932,0.883,2.362,0.358,3.119c-0.104,0.152-0.206,0.263-0.267,0.331L496.933,696.211z M499.5,697.194
					c0.338-0.473,0.646-1.354-0.196-1.937c-0.759-0.524-1.573-0.058-1.993,0.421L499.5,697.194z"/>
			</g>
			<polygon fill="#2B2B2B" points="457.881,629.332 462.339,628.049 461.758,626.011 457.132,627.322 			"/>
			<path fill="#FFFFFF" d="M457.148,605.922c0.445,3.039,3.269,2.206,4.752,1.988c1.48-0.217,3.04-0.295,2.592-3.334
				c-0.446-3.035-1.723-3.527-3.203-3.311C459.806,601.484,456.7,602.887,457.148,605.922z"/>
			<path d="M457.167,606.955c0.325,0.977,0.761,1.609,1.539,1.352c0.778-0.26,0.702-1.012,0.377-1.987
				c-0.325-0.977-0.745-1.719-1.523-1.459C456.782,605.118,456.842,605.979,457.167,606.955z"/>
			<path fill="#0548A8" d="M451.852,589.284L442.906,575c0,0,24.361-1.369,35.479-10.484c0,0,19.311,0,31.136-9.854L511,572.95
				L451.852,589.284z"/>
			<polygon fill="#F9BA48" points="460.837,588.553 474.01,590.25 479.557,598.25 481.62,607.406 485.156,608.18 486.656,601.222 
				490.906,598.366 494.656,603.774 491.899,610 490.798,615 496.656,619.5 509.406,623 517.098,595.75 510.504,574.498 			"/>
			<polygon points="436.3,594.738 512.212,575.604 511.124,571.761 435.808,592.998 			"/>
			<polygon fill="#F2A711" points="448.073,575.783 445.209,579.758 450,588.141 450,582.074 			"/>
			<polygon opacity="0.5" fill="#383838" enable-background="new    " points="466.148,737.512 466.453,736.334 456,748.001 
				433.562,729.573 456.167,749.001 			"/>
			<polyline opacity="0.5" fill="#383838" enable-background="new    " points="466.566,732.136 473.098,714.626 489.956,651.879 
				490.125,653.875 474.01,714.692 468.148,732.512 			"/>
			
				<rect x="470.142" y="598.013" transform="matrix(-0.512 -0.859 0.859 -0.512 195.3399 1352.0049)" width="23.164" height="45.001"/>
			<polygon fill="#EFBB95" stroke="#161616" stroke-miterlimit="10" points="469.551,604.605 489.186,603.579 497.972,621.531 
				486.892,651.55 469.819,649.402 469.336,635.64 474.137,618.448 468.476,604.77 			"/>
			<polygon points="475.007,603.89 473.485,604.019 479.156,616.926 480.646,616.267 			"/>
			<polygon points="480.222,603.739 478.47,603.812 483.991,616.189 485.48,615.53 			"/>
			<polygon points="484.782,603.55 483.319,603.609 489.071,617.054 490.562,616.395 			"/>
			<polygon fill="#92BEFF" points="433.562,729.573 446.855,695.475 467.261,649.059 489.956,651.879 473.305,714.798 
				465.375,737.479 456,748.001 			"/>
		</g>
		<path d="M470.638,887.702l12.722-37.63c-0.256-0.26-0.513-0.26-0.513-0.26l7.065-18.618c0.982-1.384,2.601-1.353,2.601-1.353
			c1.061-1.613-0.094-2.004,0.629-2.874c0.724-0.871,1.693,0.572,1.693,0.572c2.016,2.911,4.305,2.483,4.305,2.483
			c1.414-0.38,2.375-2.715,2.375-2.715c2.923-4.584,3.296-1.63,3.296-1.63l-1.433,4.234c-1.975,5.59,3.929,6.387,3.929,6.387
			l-0.155,0.461c0,0,11.637-0.181,13.462-0.507c1.824-0.327,4.134,0.195,5.158,0.971c1.024,0.776,1.229,1.443,1.229,1.443
			l-1.015,3.002l0.846,0.286l-4.76,14.083c-0.645,0.638-0.897-0.645-0.897-0.645c-0.692,0.275-1.82-0.702-2.484-1.526
			s-1.923-0.909-1.923-0.909s-8.96-1.144-10.141-1.457c-1.18-0.311-2.312,0.248-2.757,2.07c-0.445,1.82-2.548,7.027-3.246,8.337
			c-0.699,1.305-1.466,0.531-1.466,0.531c-8.024-3.656-9.934,3.76-9.934,3.76l-7.596,22.471c-1.006,1.204-4.372,1.01-6.736,1.154
			c-2.362,0.142-4.385-1.74-4.385-1.74L470.638,887.702z M500.208,851.1c1.646,1.003,1.805,3.111,1.483,3.403
			c-0.323,0.293-0.754-0.411-0.754-0.411c-2.97-3.234-5.638-1.615-5.638-1.615c-1.405,1.579-1.502,4.111-0.879,5.772
			c0.621,1.661,2.392,1.971,3.881,2.452c1.489,0.479,2.037-1.01,2.037-1.01s1.372-3.664,1.758-4.738
			c0.387-1.075,0.507-2.952-1.238-4.391c-1.746-1.439-3.335-0.371-3.335-0.371S498.562,850.097,500.208,851.1z"/>
		<polygon fill="#7F5441" points="511.406,857.289 485.675,886.881 469.609,879 485.675,824.744 		"/>
		
			<rect x="495.955" y="828.391" transform="matrix(0.7248 0.689 -0.689 0.7248 715.036 -112.9959)" fill="#5B3C2F" width="6" height="20.245"/>
		<circle fill="#CEC40B" cx="494.469" cy="843.188" r="2.25"/>
	</g>
</g>
<g id="Calque_5" display="none">
	<polygon display="inline" points="719,629 719,583 734.418,583.25 745.337,601.472 959.824,566 1111,566 1131.439,627.564 	"/>
</g>
<g id="Calque_9" display="none">
	
		<linearGradient id="SVGID_3_" gradientUnits="userSpaceOnUse" x1="266.1602" y1="703.0586" x2="1178.5" y2="703.0586" gradientTransform="matrix(1 0 0 -1 102.5 1020)">
		<stop  offset="0.0056" style="stop-color:#005B96"/>
		<stop  offset="0.1348" style="stop-color:#0075BD"/>
		<stop  offset="0.4326" style="stop-color:#1E9BD6"/>
		<stop  offset="0.5331" style="stop-color:#46ABDD"/>
		<stop  offset="0.6921" style="stop-color:#7FC1E6"/>
		<stop  offset="0.8286" style="stop-color:#A8D1ED"/>
		<stop  offset="0.9357" style="stop-color:#C2DBF1"/>
		<stop  offset="1" style="stop-color:#CBDFF3"/>
	</linearGradient>
	<polygon display="inline" opacity="0.4" fill="url(#SVGID_3_)" enable-background="new    " points="368.66,191.085 1281,148.883 
		1281,485 369,214 	"/>
</g>
</svg>
