<?xml version="1.0" encoding="utf-8"?>
<!-- Generator: Adobe Illustrator 16.0.0, SVG Export Plug-In . SVG Version: 6.00 Build 0)  -->
<!DOCTYPE svg PUBLIC "-//W3C//DTD SVG 1.1//EN" "http://www.w3.org/Graphics/SVG/1.1/DTD/svg11.dtd">
<svg version="1.1" xmlns="http://www.w3.org/2000/svg" xmlns:xlink="http://www.w3.org/1999/xlink" x="0px" y="0px" width="103px"
	 height="245.34px" viewBox="0 0 103 245.34" enable-background="new 0 0 103 245.34" xml:space="preserve">
<symbol  id="Arbres_1" viewBox="-41.326 -55.933 80.273 111.745">
</symbol>
<g id="Calque_7" display="none">
	<linearGradient id="SVGID_1_" gradientUnits="userSpaceOnUse" x1="4.3042" y1="102.0391" x2="4.3042" y2="-669.729">
		<stop  offset="0" style="stop-color:#5E3F2F"/>
		<stop  offset="1" style="stop-color:#000000"/>
	</linearGradient>
	<polygon display="inline" fill="url(#SVGID_1_)" points="-1122.645,102.039 1113.22,-37.434 1131.252,-669.729 -760.059,-659.493 
		-1095.944,-657.819 	"/>
</g>
<g id="Calque_1" display="none">
	<g display="inline">
		
			<use xlink:href="#Arbres_1"  width="80.273" height="111.745" x="-41.326" y="-55.933" transform="matrix(7.5363 0 0 -7.5363 190.2812 -488.7349)" overflow="visible"/>
		<g>
			
				<use xlink:href="#Arbres_1"  width="80.273" height="111.745" x="-41.326" y="-55.933" transform="matrix(7.5363 0 0 -7.5363 54.6426 -506.6484)" overflow="visible"/>
			
				<use xlink:href="#Arbres_1"  width="80.273" height="111.745" x="-41.326" y="-55.933" transform="matrix(7.5363 0 0 -7.5363 814.1309 -501.1553)" overflow="visible"/>
			
				<use xlink:href="#Arbres_1"  width="80.273" height="111.745" x="-41.326" y="-55.933" transform="matrix(7.5363 0 0 -7.5363 905.1602 -494.7671)" overflow="visible"/>
			
				<use xlink:href="#Arbres_1"  width="80.273" height="111.745" x="-41.326" y="-55.933" transform="matrix(7.5363 0 0 -7.5363 1145.4668 -528.1074)" overflow="visible"/>
			
				<use xlink:href="#Arbres_1"  width="80.273" height="111.745" x="-41.326" y="-55.933" transform="matrix(7.5363 0 0 -7.5363 861.583 -595.2803)" overflow="visible"/>
			
				<use xlink:href="#Arbres_1"  width="80.273" height="111.745" x="-41.326" y="-55.933" transform="matrix(7.5363 0 0 -7.5363 410.5957 -592.2793)" overflow="visible"/>
		</g>
	</g>
	<g display="inline">
		
			<use xlink:href="#Arbres_1"  width="80.273" height="111.745" x="-41.326" y="-55.933" transform="matrix(7.5363 0 0 -7.5363 -170.0869 -473.4419)" overflow="visible"/>
		<g>
			
				<use xlink:href="#Arbres_1"  width="80.273" height="111.745" x="-41.326" y="-55.933" transform="matrix(7.5363 0 0 -7.5363 -305.7256 -491.355)" overflow="visible"/>
			
				<use xlink:href="#Arbres_1"  width="80.273" height="111.745" x="-41.326" y="-55.933" transform="matrix(7.5363 0 0 -7.5363 453.7627 -485.8623)" overflow="visible"/>
			
				<use xlink:href="#Arbres_1"  width="80.273" height="111.745" x="-41.326" y="-55.933" transform="matrix(7.5363 0 0 -7.5363 544.792 -479.4741)" overflow="visible"/>
			
				<use xlink:href="#Arbres_1"  width="80.273" height="111.745" x="-41.326" y="-55.933" transform="matrix(7.5363 0 0 -7.5363 785.0986 -512.8145)" overflow="visible"/>
			
				<use xlink:href="#Arbres_1"  width="80.273" height="111.745" x="-41.326" y="-55.933" transform="matrix(7.5363 0 0 -7.5363 501.2148 -579.9873)" overflow="visible"/>
			
				<use xlink:href="#Arbres_1"  width="80.273" height="111.745" x="-41.326" y="-55.933" transform="matrix(7.5363 0 0 -7.5363 50.2275 -576.9863)" overflow="visible"/>
		</g>
	</g>
	
		<use xlink:href="#Arbres_1"  width="80.273" height="111.745" x="-41.326" y="-55.933" transform="matrix(1.6456 0 0 -1.6456 198.6455 -763.1431)" display="inline" overflow="visible"/>
	
		<use xlink:href="#Arbres_1"  width="80.273" height="111.745" x="-41.326" y="-55.933" transform="matrix(1.6456 0 0 -1.6456 252.5996 -754.9966)" display="inline" overflow="visible"/>
	
		<use xlink:href="#Arbres_1"  width="80.273" height="111.745" x="-41.326" y="-55.933" transform="matrix(6.6398 0 0 -6.6398 -344.2617 -523.1626)" display="inline" overflow="visible"/>
	
		<use xlink:href="#Arbres_1"  width="80.273" height="111.745" x="-41.326" y="-55.933" transform="matrix(7.5363 0 0 -7.5363 161.2461 -431.1948)" display="inline" overflow="visible"/>
	<polygon display="inline" fill="#666666" points="-661.477,-48.66 1330.117,-48.66 1426.816,293.34 -472.428,293.34 	"/>
</g>
<g id="Calque_2" display="none">
</g>
<g id="Calque_8" display="none">
	<rect x="-309" y="-290.66" display="inline" fill="#9090A3" width="260" height="115"/>
	<path display="inline" fill="#E8E8E8" d="M-523-329.66v315h319v-28h107v28h74v-315H-523z M-91-208.689
		c0,7.54-4.477,14.029-10,14.029h-170c-5.523,0-10-6.489-10-14.029v-42.32c0-7.54,4.477-13.651,10-13.651h170
		c5.523,0,10,6.112,10,13.651V-208.689z"/>
	
		<rect x="-176.57" y="-256.869" transform="matrix(0.979 -0.204 0.204 0.979 44.0139 -35.5085)" display="inline" fill="#EFBB95" width="52.716" height="51.29"/>
	
		<rect x="-163.376" y="-231.908" transform="matrix(0.979 -0.2039 0.2039 0.979 43.1915 -37.5328)" display="inline" fill="#EAEAEA" width="5.699" height="7.122"/>
	
		<rect x="-142.454" y="-236.27" transform="matrix(0.979 -0.2039 0.2039 0.979 44.5205 -33.358)" display="inline" fill="#EAEAEA" width="5.699" height="7.123"/>
	
		<rect x="-161.585" y="-229.446" transform="matrix(0.9787 -0.2052 0.2052 0.9787 43.4701 -37.8582)" display="inline" width="1.514" height="1.783"/>
	
		<rect x="-140.663" y="-233.806" transform="matrix(0.9787 -0.2053 0.2053 0.9787 44.8361 -33.6831)" display="inline" width="1.513" height="1.783"/>
	
		<rect x="-165.383" y="-233.274" transform="matrix(0.8491 -0.5283 0.5283 0.8491 97.7855 -119.9874)" display="inline" fill="#EFBB95" width="8.55" height="4.274"/>
	
		<rect x="-143.067" y="-237.925" transform="matrix(-0.9894 -0.1452 0.1452 -0.9894 -241.8822 -489.2277)" display="inline" fill="#EFBB95" width="8.55" height="4.275"/>
	<polygon display="inline" points="-156.893,-210.913 -156.703,-211.2 -154.685,-214.283 -139.342,-217.482 -135.478,-215.377 	"/>
	<path display="inline" fill="#FFDA6A" d="M-181.247-250.952l3.197,15.341l51.606-10.755l-3.197-15.343L-181.247-250.952z"/>
	<polygon display="inline" fill="#4F4F4F" points="-158.229,-203.358 -168.338,-163.411 -115.559,-161.557 -128.475,-209.56 	"/>
	<rect x="-199" y="-37.66" display="inline" width="97" height="97"/>
	<rect x="-523" y="-194.66" display="inline" fill="#EA0000" width="500" height="43"/>
	<path display="inline" opacity="0.2" fill="#3D92E8" d="M-91-208.689c0,7.54-4.477,14.029-10,14.029h-170
		c-5.523,0-10-6.489-10-14.029v-42.32c0-7.54,4.477-13.651,10-13.651h170c5.523,0,10,6.112,10,13.651V-208.689z"/>
	<rect x="-76" y="-340.66" display="inline" fill="#636466" width="21" height="11"/>
	
		<radialGradient id="SVGID_2_" cx="-64.9995" cy="-352.1602" r="10.7761" gradientTransform="matrix(1.05 0 0 1 2.7498 0)" gradientUnits="userSpaceOnUse">
		<stop  offset="0" style="stop-color:#CBDFF3"/>
		<stop  offset="0.0643" style="stop-color:#C2DBF1"/>
		<stop  offset="0.1714" style="stop-color:#A8D1ED"/>
		<stop  offset="0.3079" style="stop-color:#7FC1E6"/>
		<stop  offset="0.4669" style="stop-color:#46ABDD"/>
		<stop  offset="0.5674" style="stop-color:#1E9BD6"/>
		<stop  offset="0.8652" style="stop-color:#0075BD"/>
		<stop  offset="0.9944" style="stop-color:#005B96"/>
	</radialGradient>
	<rect x="-76" y="-363.66" display="inline" fill="url(#SVGID_2_)" width="21" height="23"/>
</g>
<g id="Calque_3" display="none">
	<path display="inline" fill="#A8A8A8" d="M1570.806-284.744l-193.944-0.173l-79.623-82.15l-315.245,51.246l-74.424,114.471
		l-200.13,64.368L736.99,39.365l100.37-16.318l34.882-55.488l148.63-24.158l29.022,45.098l258.051-41.944l20.644-55.149
		l133.194-21.646l55.744,42.729l83.477-13.569L1570.806-284.744z M941.896-172.974l42.759-110.918l138.321-25.214l0.382,1.33
		l14.281,95.218L941.896-172.974z M1157.097-219.297l-14.943-95.138l151.176-28.941l69.442,91.236L1157.097-219.297z"/>
	
		<rect x="1345.317" y="-104.227" transform="matrix(0.9852 -0.1713 0.1713 0.9852 26.5416 242.1938)" display="inline" fill="#020202" width="143.022" height="143.022"/>
	
		<rect x="892.805" y="-31.543" transform="matrix(0.9852 -0.1713 0.1713 0.9852 7.4037 165.7522)" display="inline" fill="#020202" width="143.024" height="143.021"/>
	<polygon display="inline" fill="none" stroke="#666666" stroke-miterlimit="10" points="1131.38,-320.04 1178.723,-42.736 
		1295.683,-62.802 1329.946,-126.874 1392.033,-138.613 1366.595,-270.814 1293.329,-352.37 	"/>
	<polygon display="inline" fill="none" stroke="#666666" stroke-miterlimit="10" points="1131.38,-320.04 1178.723,-42.736 
		1061.623,-24.703 1010.332,-74.559 945.762,-62.844 922.203,-198.036 983.864,-295.628 	"/>
	<polygon display="inline" opacity="0.2" fill="#03ABFF" points="1142.153,-314.435 1293.329,-343.376 1362.771,-252.14 
		1157.097,-219.297 1142.199,-314.141 	"/>
	<polygon display="inline" opacity="0.2" fill="#03ABFF" points="984.655,-283.892 1122.977,-309.105 1137.64,-212.558 
		941.896,-172.974 	"/>
	
		<line display="inline" fill="none" stroke="#000000" stroke-miterlimit="10" x1="951.331" y1="-147.79" x2="995.325" y2="-157.051"/>
	
		<line display="inline" fill="none" stroke="#000000" stroke-miterlimit="10" x1="1167.566" y1="-195.361" x2="1212.213" y2="-200.665"/>
</g>
<g id="Calque_6">
	<g>
		<g>
			<polygon fill="#19151C" points="54.848,502.34 91,502.34 91,459.67 91,418.278 77.392,381.34 41.174,381.34 			"/>
			
				<ellipse transform="matrix(-0.973 0.2306 -0.2306 -0.973 182.8143 745.7123)" fill="#19151C" cx="47.827" cy="383.54" rx="9.608" ry="12.565"/>
			<polygon fill="#19151C" points="83.585,249.883 18.016,257.889 16.414,309.997 21.71,332.107 45.116,388.34 79.609,388.34 
				87.185,279.998 			"/>
			<path opacity="0.5" fill="#FFFFFF" d="M20.725,318.717l5.509,23.679l17.715,42.006c0,0-1.755,5.964-1.2,10.885
				s4.338,7.841,4.338,7.841l11.21,98.179l1.379,1.232l-5.938-101.752L38.71,345.967L20.725,318.717L20.725,318.717z"/>
			<path opacity="0.5" fill="#FFFFFF" d="M66.305,518.34h-2.957l-0.555,6.975l-55.837,16.19L6,541.989v3.419
				c0,0,52.142-7.3,52.419-7.207c0.278,0.093,9.532-11.871,9.532-11.871L66.305,518.34z"/>
			<rect x="60" y="498.34" fill="#FFFFFF" width="21" height="17"/>
			<polygon points="85.522,510.34 57,510.34 57,517.32 0,534.32 0,545.34 87,545.34 			"/>
			<rect x="66" y="507.34" fill="#FFFFFF" width="21" height="17"/>
			<polygon fill="#19151C" points="60.761,512.34 99,512.34 99,468.539 99,427.147 83.305,391.34 47.087,391.34 			"/>
			
				<ellipse transform="matrix(-0.973 0.2307 -0.2307 -0.973 196.5436 761.84)" fill="#19151C" cx="53.74" cy="392.409" rx="9.608" ry="12.566"/>
			<polygon fill="#19151C" points="89.498,258.753 19.74,266.389 22.327,318.867 27.623,341.541 51.029,398.34 85.522,398.34 
				93.098,289.434 			"/>
			<polygon points="91.435,520.34 64,520.34 64,526.19 7,543.19 7,555.34 92.913,555.34 			"/>
			<polygon fill="#92BEFF" points="84.414,90.107 96.608,115.238 99.196,159.955 91.804,185.824 84.414,213.541 82.565,237.933 
				93.098,260.106 89.498,258.753 19.74,266.389 16.044,270.084 19.74,228.324 24.656,141.237 50.414,100.455 			"/>
			<polyline opacity="0.5" fill="#383838" points="42.453,181.674 90.098,147.673 88.847,150.758 42.148,182.852 			"/>
			<polyline opacity="0.5" fill="#383838" points="19.517,175.782 20.481,175.274 53.167,115.477 56.52,112.744 56.52,112.744 
				21.371,176.507 20.323,177.019 			"/>
			<polyline fill="#92BEFF" points="20.006,176.286 20.973,175.783 56.52,112.744 90.098,147.673 42.453,181.674 			"/>
			<polygon fill="#78B3F9" points="45.609,104.89 90.19,93.996 85.016,85.127 50.29,97.621 			"/>
			<polygon opacity="0.5" fill="#383838" points="46.417,105.012 87.178,95.806 86.713,94.848 46.772,104.605 			"/>
			<polygon fill="#EFBB95" points="83.268,85.756 84.053,68.041 91.372,41.24 86.504,19.838 29.138,35.622 30.93,52.633 
				27.202,63.879 29.854,66.088 32.705,65.305 32.382,70.631 34.375,76.024 37.72,77.306 35.653,83.449 40.42,87.424 51.522,85.127 
				52.261,96.912 			"/>
			<polygon fill="#1D56D8" stroke="#EAEA53" stroke-miterlimit="10" points="85.02,134.631 60.353,117.557 52.23,129.291 
				55.087,150.707 76.284,147.25 			"/>
			<g>
				<path d="M58.39,125.942c0.399,0.188,0.903,0.46,1.499,0.872c0.732,0.508,1.15,1.051,1.278,1.592
					c0.127,0.49,0.025,1.037-0.328,1.548c-0.36,0.521-0.796,0.822-1.292,0.919c-0.681,0.146-1.467-0.082-2.19-0.582
					c-0.222-0.154-0.419-0.305-0.561-0.465l-1.591,2.299l-0.741-0.514L58.39,125.942z M57.215,129.221
					c0.133,0.155,0.325,0.314,0.572,0.485c0.894,0.618,1.739,0.562,2.287-0.23c0.524-0.757,0.242-1.495-0.576-2.062
					c-0.323-0.224-0.588-0.368-0.739-0.424L57.215,129.221z"/>
				<path d="M63.932,135.068c-1.054,1.522-2.57,1.456-3.566,0.767c-1.115-0.772-1.409-2.185-0.507-3.487
					c0.955-1.379,2.417-1.562,3.557-0.773C64.599,132.395,64.805,133.808,63.932,135.068z M60.634,132.848
					c-0.625,0.902-0.577,1.943,0.155,2.449c0.715,0.496,1.718,0.194,2.361-0.734c0.482-0.697,0.747-1.825-0.139-2.438
					C62.125,131.512,61.176,132.064,60.634,132.848z"/>
				<path d="M67.609,131.77l0.749,0.518l-4.185,6.045l-0.749-0.518L67.609,131.77z"/>
				<path d="M69.92,134.503c-0.168,0.262-0.498,0.337-0.796,0.131c-0.264-0.183-0.31-0.518-0.132-0.773
					c0.182-0.264,0.52-0.333,0.792-0.144C70.065,133.911,70.103,134.239,69.92,134.503z M65.432,139.203l2.853-4.12l0.749,0.519
					l-2.853,4.121L65.432,139.203z"/>
				<path d="M70.466,142.462c-0.267-0.034-0.795-0.198-1.348-0.581c-1.243-0.859-1.468-2.264-0.596-3.523
					c0.877-1.268,2.382-1.586,3.728-0.655c0.442,0.306,0.758,0.688,0.892,0.931l-0.572,0.462c-0.107-0.226-0.324-0.514-0.732-0.797
					c-0.945-0.654-1.939-0.309-2.534,0.552c-0.66,0.953-0.455,1.964,0.362,2.529c0.427,0.295,0.785,0.379,1.062,0.434
					L70.466,142.462z"/>
				<path d="M72.933,141.551c-0.684,1.025-0.326,1.888,0.423,2.406c0.537,0.371,0.925,0.503,1.288,0.578L74.4,145.16
					c-0.346-0.064-0.892-0.24-1.547-0.693c-1.268-0.878-1.449-2.238-0.589-3.479c0.861-1.243,2.271-1.716,3.471-0.885
					c1.345,0.931,0.883,2.362,0.359,3.119c-0.105,0.152-0.206,0.262-0.267,0.331L72.933,141.551z M75.5,142.534
					c0.338-0.472,0.646-1.353-0.196-1.936c-0.759-0.525-1.573-0.058-1.993,0.421L75.5,142.534z"/>
			</g>
			<polygon fill="#2B2B2B" points="33.881,74.672 38.339,73.389 37.758,71.351 33.132,72.662 			"/>
			<path fill="#FFFFFF" d="M33.148,51.262c0.446,3.039,3.269,2.206,4.752,1.988c1.481-0.217,3.04-0.295,2.592-3.334
				c-0.446-3.035-1.722-3.527-3.203-3.31C35.806,46.824,32.7,48.227,33.148,51.262z"/>
			<path d="M33.167,52.295c0.325,0.977,0.761,1.609,1.539,1.352c0.778-0.26,0.702-1.012,0.377-1.988s-0.745-1.718-1.523-1.459
				C32.782,50.458,32.842,51.318,33.167,52.295z"/>
			<path fill="#0548A8" d="M27.852,34.624L18.906,20.34c0,0,24.362-1.369,35.48-10.484c0,0,19.31,0,31.136-9.855L87,18.29
				L27.852,34.624z"/>
			<polygon fill="#F9BA48" points="36.837,33.893 50.01,35.59 55.557,43.59 57.62,52.746 61.156,53.52 62.656,46.562 66.906,43.706 
				70.656,49.114 67.899,55.34 66.798,60.34 72.656,64.84 85.406,68.34 93.098,41.09 86.504,19.838 			"/>
			<polygon points="12.3,40.078 88.212,20.942 87.124,17.101 11.808,38.338 			"/>
			<polygon fill="#F2A711" points="24.073,21.123 21.209,25.098 26,33.48 26,27.414 			"/>
			<polygon opacity="0.5" fill="#383838" points="42.148,182.852 42.453,181.674 32,193.341 9.563,174.913 32.167,194.341 			"/>
			<polyline opacity="0.5" fill="#383838" points="42.566,177.476 49.098,159.966 65.956,97.219 66.125,99.215 50.01,160.032 
				44.148,177.852 			"/>
			<rect x="46.179" y="43.357" transform="matrix(0.512 0.859 -0.859 0.512 84.7544 -17.4778)" width="23.163" height="45.001"/>
			<polygon fill="#EFBB95" stroke="#161616" stroke-miterlimit="10" points="45.551,49.945 65.186,48.919 73.972,66.871 
				62.892,96.89 45.819,94.742 45.336,80.979 50.137,63.788 44.476,50.109 			"/>
			<polygon points="51.007,49.229 49.485,49.358 55.156,62.266 56.647,61.606 			"/>
			<polygon points="56.222,49.079 54.47,49.151 59.991,61.529 61.481,60.87 			"/>
			<polygon points="60.782,48.89 59.319,48.949 65.071,62.394 66.562,61.734 			"/>
			<polygon fill="#92BEFF" points="9.563,174.913 22.855,140.814 43.261,94.398 65.956,97.219 49.305,160.138 41.375,182.819 
				32,193.341 			"/>
		</g>
		<path d="M46.638,333.042l12.721-37.63c-0.256-0.26-0.512-0.26-0.512-0.26l7.065-18.618c0.983-1.384,2.601-1.352,2.601-1.352
			c1.06-1.614-0.094-2.004,0.629-2.874c0.723-0.871,1.693,0.572,1.693,0.572c2.016,2.911,4.305,2.483,4.305,2.483
			c1.414-0.379,2.375-2.714,2.375-2.714c2.922-4.584,3.295-1.63,3.295-1.63l-1.432,4.234c-1.975,5.59,3.929,6.387,3.929,6.387
			l-0.156,0.461c0,0,11.637-0.181,13.462-0.507c1.825-0.327,4.134,0.195,5.159,0.971c1.024,0.776,1.228,1.443,1.228,1.443
			l-1.015,3.002l0.846,0.286l-4.76,14.083c-0.644,0.638-0.897-0.645-0.897-0.645c-0.693,0.276-1.82-0.702-2.485-1.526
			c-0.664-0.824-1.922-0.909-1.922-0.909s-8.96-1.144-10.141-1.457c-1.18-0.311-2.313,0.248-2.757,2.07
			c-0.445,1.821-2.548,7.028-3.246,8.337c-0.699,1.305-1.466,0.531-1.466,0.531c-8.024-3.656-9.933,3.76-9.933,3.76l-7.596,22.471
			c-1.006,1.204-4.372,1.01-6.736,1.154c-2.363,0.142-4.385-1.74-4.385-1.74L46.638,333.042z M76.208,296.439
			c1.646,1.003,1.805,3.111,1.483,3.403c-0.323,0.293-0.754-0.411-0.754-0.411c-2.969-3.235-5.637-1.615-5.637-1.615
			c-1.405,1.579-1.502,4.111-0.879,5.772c0.621,1.661,2.391,1.971,3.881,2.452c1.489,0.479,2.037-1.01,2.037-1.01
			s1.372-3.664,1.758-4.738c0.386-1.075,0.507-2.952-1.239-4.391c-1.746-1.439-3.335-0.371-3.335-0.371
			S74.562,295.437,76.208,296.439z"/>
		<polygon fill="#7F5441" points="87.406,302.629 61.675,332.221 45.609,324.34 61.675,270.084 		"/>
		
			<rect x="71.943" y="273.755" transform="matrix(-0.7248 -0.689 0.689 -0.7248 -66.324 541.2623)" fill="#5B3C2F" width="6" height="20.245"/>
		<circle fill="#CEC40B" cx="70.469" cy="288.527" r="2.25"/>
	</g>
</g>
<g id="Calque_5" display="none">
	<polygon display="inline" points="295,74.34 295,28.34 310.418,28.59 321.337,46.812 535.824,11.34 687,11.34 707.439,72.904 	"/>
</g>
<g id="Calque_9" display="none">
	<linearGradient id="SVGID_3_" gradientUnits="userSpaceOnUse" x1="-55.3398" y1="-237.7188" x2="857" y2="-237.7188">
		<stop  offset="0.0056" style="stop-color:#005B96"/>
		<stop  offset="0.1348" style="stop-color:#0075BD"/>
		<stop  offset="0.4326" style="stop-color:#1E9BD6"/>
		<stop  offset="0.5331" style="stop-color:#46ABDD"/>
		<stop  offset="0.6921" style="stop-color:#7FC1E6"/>
		<stop  offset="0.8286" style="stop-color:#A8D1ED"/>
		<stop  offset="0.9357" style="stop-color:#C2DBF1"/>
		<stop  offset="1" style="stop-color:#CBDFF3"/>
	</linearGradient>
	<polygon display="inline" opacity="0.4" fill="url(#SVGID_3_)" points="-55.34,-363.575 857,-405.777 857,-69.66 -55,-340.66 	"/>
</g>
</svg>
