<?xml version="1.0" encoding="utf-8"?>
<!-- Generator: Adobe Illustrator 15.0.0, SVG Export Plug-In  -->
<!DOCTYPE svg PUBLIC "-//W3C//DTD SVG 1.1//EN" "http://www.w3.org/Graphics/SVG/1.1/DTD/svg11.dtd" [
	<!ENTITY ns_flows "http://ns.adobe.com/Flows/1.0/">
]>
<svg version="1.1"
	 xmlns="http://www.w3.org/2000/svg" xmlns:xlink="http://www.w3.org/1999/xlink" xmlns:a="http://ns.adobe.com/AdobeSVGViewerExtensions/3.0/"
	 x="0px" y="0px" width="84px" height="65px" viewBox="0.499 0.5 84 65"
	 overflow="visible" enable-background="new 0.499 0.5 84 65" xml:space="preserve">
<defs>
</defs>
<path fill="#FFEC00" d="M39.931,38.309c-5.126,0-10.232-0.771-14.863-2.588c-9.171-3.6-19.105-8.355-23.251-16.336
	c-1.952-3.756-1.265-8.736-0.879-10.702c1.161-5.921,4.789-7.036,10.626-8.168c0.399-0.076,0.784,0.183,0.861,0.582
	c0.077,0.398-0.184,0.784-0.582,0.861c-5.526,1.072-8.457,1.87-9.464,7.007c-0.741,3.78-0.464,7.422,0.741,9.743
	c3.922,7.55,13.567,12.146,22.484,15.646c12.232,4.801,27.949,2.025,38.1-2.856c8.259-3.972,17.661-12.538,18.788-21.961
	c0.296-2.475-0.549-3.833-1.719-5.712c-0.293-0.471-0.598-0.96-0.898-1.491c-0.199-0.354-0.075-0.802,0.278-1.001
	c0.354-0.2,0.801-0.075,1.001,0.278c0.29,0.512,0.583,0.984,0.865,1.438c1.177,1.89,2.289,3.675,1.931,6.662
	c-1.192,9.974-11,18.971-19.609,23.111C57.727,36.001,48.8,38.308,39.931,38.309z"/>
<path fill="#FFAE55" d="M39.931,38.809L39.931,38.809c-5.55,0-10.612-0.882-15.045-2.623c-9.257-3.633-19.29-8.443-23.513-16.571
	c-2.024-3.896-1.322-9.011-0.926-11.029c1.219-6.214,5.155-7.425,11.021-8.562C12.156-0.109,12.789,0.345,12.915,1
	c0.129,0.668-0.309,1.317-0.977,1.447C6.482,3.506,3.817,4.229,2.87,9.06c-0.72,3.672-0.46,7.192,0.694,9.416
	c3.846,7.403,13.392,11.945,22.223,15.411c4.16,1.632,8.923,2.46,14.16,2.46c7.954,0,16.534-1.933,23.541-5.302
	c8.14-3.914,17.404-12.334,18.508-21.57c0.275-2.3-0.489-3.528-1.646-5.387c-0.301-0.483-0.607-0.976-0.91-1.51
	c-0.334-0.593-0.125-1.348,0.467-1.683c0.575-0.325,1.358-0.104,1.682,0.466c0.277,0.49,0.558,0.941,0.827,1.376
	c1.199,1.926,2.41,3.87,2.031,7.031c-1.215,10.16-11.162,19.305-19.889,23.502C57.242,36.79,48.265,38.808,39.931,38.809z M11.703,1
	C5.506,2.198,2.491,3.354,1.428,8.778c-0.375,1.915-1.046,6.759,0.833,10.375c4.07,7.834,13.906,12.536,22.99,16.102
	c4.317,1.694,9.256,2.554,14.68,2.554c8.189,0,17.008-1.983,24.194-5.439c8.49-4.083,18.16-12.934,19.33-22.72
	c0.337-2.812-0.68-4.446-1.858-6.337c-0.306-0.493-0.593-0.957-0.876-1.458c-0.063-0.11-0.207-0.154-0.32-0.089
	c-0.113,0.063-0.152,0.208-0.089,0.32c0.295,0.521,0.594,1.001,0.882,1.464c1.183,1.901,2.113,3.396,1.796,6.044
	c-1.149,9.61-10.69,18.324-19.068,22.353c-7.137,3.432-15.875,5.401-23.974,5.401c-5.362,0-10.249-0.851-14.525-2.53
	c-9.004-3.534-18.747-8.184-22.746-15.881c-1.255-2.418-1.55-6.183-0.788-10.069c1.067-5.442,4.277-6.319,9.859-7.402
	c0.127-0.025,0.21-0.148,0.186-0.275C11.912,1.08,11.815,1,11.703,1z"/>
<path fill="#FFEC00" d="M41.129,36.774c-0.207,1.88-0.833,4.064-0.394,5.969c0.365,1.583,2.075,3.777,2.986,1.398
	c0.88-2.3-1.131-5.723-2.684-7.367"/>
<path fill="#FFAE55" d="M42.686,45.69c-0.031,0-0.061-0.001-0.09-0.003c-1.175-0.082-2.095-1.738-2.347-2.832
	c-0.345-1.494-0.087-3.076,0.162-4.607c0.085-0.523,0.168-1.037,0.223-1.529l0.415,0.045l0.354-0.334
	c1.598,1.691,3.767,5.329,2.787,7.889C43.761,45.436,43.152,45.69,42.686,45.69z M41.454,38.051
	c-0.019,0.119-0.038,0.238-0.058,0.357c-0.233,1.436-0.475,2.92-0.174,4.222c0.243,1.053,1.008,2.028,1.442,2.059
	c0.187,0.023,0.41-0.259,0.59-0.727C43.897,42.28,42.745,39.78,41.454,38.051z"/>
<ellipse fill="#FFEC00" cx="42.259" cy="53.58" rx="7.301" ry="11.387"/>
<path fill="#FFAE55" d="M42.259,65.467c-4.301,0-7.801-5.333-7.801-11.887s3.5-11.887,7.801-11.887s7.8,5.333,7.8,11.887
	S46.561,65.467,42.259,65.467z M42.259,42.692c-3.75,0-6.801,4.884-6.801,10.887s3.051,10.887,6.801,10.887
	c3.75,0,6.8-4.884,6.8-10.887S46.009,42.692,42.259,42.692z"/>
<polygon opacity="0.57" fill="#FFFFFF" points="38.15,55.444 45.067,44.901 45.067,52.782 38.127,61.248 "/>
</svg>
