<?xml version="1.0" encoding="utf-8"?>
<!-- Generator: Adobe Illustrator 15.0.0, SVG Export Plug-In  -->
<!DOCTYPE svg PUBLIC "-//W3C//DTD SVG 1.1//EN" "http://www.w3.org/Graphics/SVG/1.1/DTD/svg11.dtd" [
	<!ENTITY ns_flows "http://ns.adobe.com/Flows/1.0/">
]>
<svg version="1.1"
	 xmlns="http://www.w3.org/2000/svg" xmlns:xlink="http://www.w3.org/1999/xlink" xmlns:a="http://ns.adobe.com/AdobeSVGViewerExtensions/3.0/"
	 x="0px" y="0px" width="1920px" height="1080px" viewBox="-180.279 0.497 1920 1080"
	 overflow="visible" enable-background="new -180.279 0.497 1920 1080" xml:space="preserve">
<defs>
</defs>
<path display="none" fill="#BAB5B5" stroke="#564F4F" stroke-width="5" stroke-linecap="round" stroke-linejoin="round" stroke-miterlimit="10" d="
	M190.219,911.164c0,0,102.155-908.664,384.604-908.664h561.053v951.77L190.219,911.164"/>
<path display="none" fill="#A09A9A" d="M540.661,725.694c0,0,599.164-408.065,599.164-591.648s209.809,341.901,209.809,341.901
	l-76.66,311.456c0,0-619.633,20.451-630.581,20.451S540.661,725.694,540.661,725.694z"/>
<rect x="463.689" y="89.022" display="none" fill="#CEC2C2" width="253.089" height="334.123"/>
<rect x="488.299" y="165.356" display="none" opacity="0.82" fill="#9B9B97" width="22.603" height="203.867"/>
<rect x="488.299" y="113.918" display="none" opacity="0.82" fill="#9B9B97" width="203.869" height="22.603"/>
<rect x="528.522" y="381.053" display="none" opacity="0.82" fill="#9B9B97" width="123.423" height="11.301"/>
<rect x="562.717" y="397.087" display="none" opacity="0.82" fill="#9B9B97" width="98.242" height="11.301"/>
<circle display="none" fill="#DDDDDB" cx="592.308" cy="202.607" r="47.825"/>
<path display="none" fill="#DDDDDB" d="M636.692,346.451c0,8.913-7.227,16.14-16.14,16.14h-56.49c-8.914,0-16.14-7.227-16.14-16.14
	v-85.446c0-8.914,7.226-16.14,16.14-16.14h56.49c8.914,0,16.14,7.226,16.14,16.14V346.451z"/>
<path display="none" opacity="0.33" fill="#B2AAAA" d="M716.778,89.022h-68.35c69.57,51.287-184.739,334.123-184.739,334.123
	h253.089V89.022z"/>
<g display="none">
	<polygon display="inline" fill="#C4BFBF" points="3.976,1076.994 283,831.543 1557.942,831.543 1557.942,1076.994 	"/>
	<path display="inline" fill="#564F4F" d="M1556.442,833.043v242.451H7.953l275.614-242.451H1556.442 M1559.442,830.043H282.435
		L0,1078.494h1559.442V830.043L1559.442,830.043z"/>
</g>
<rect x="809.449" y="628.289" fill="#171717" stroke="#020200" stroke-miterlimit="10" width="54.668" height="10.473"/>
<polygon fill="#171717" points="768.394,665.78 773.001,655.308 788.083,637.614 870.611,637.614 885.192,652.198 891.975,663.269 
	"/>
<path fill="#0C0C0C" d="M856.96,663.979l35.015-0.71l-6.783-11.07l-11.559-11.563C872.586,648.831,864.734,657.378,856.96,663.979z"
	/>
<polygon fill="#2D2D2D" points="772.57,665.695 774.678,656.565 794.2,637.614 788.083,637.614 773.001,655.308 768.394,665.78 "/>
<path d="M767.099,666.645l5.266-11.879l15.331-17.988h83.262l14.95,14.984l7.546,12.314L767.099,666.645z M773.72,655.759
	l-4.03,9.159l120.81-2.458l-5.97-9.741l-14.265-14.266h-81.796L773.72,655.759z"/>
<path fill="none" stroke="#171717" stroke-width="3" stroke-linecap="round" stroke-linejoin="round" stroke-miterlimit="10" d="
	M704.717,441.938c3.771-0.483,8.161-4.061,8.948,1.076c0.535,3.501-4.76,9.645-7.298,11.219c-4.278-8.499,7.457-12.415,13.457-8.438
	c7.669,5.083-4.382,17.291-10.55,16.166c0.208-6.755,9.548-8.594,14.917-8.221c1.138,7.117-3.809,8.389-9.361,11.066
	c2.181-2.034,10.047-7.593,13.34-4.052c3.748,4.027-4.647,9.341-8.324,9.639c2.283-14.554,28.956-1.365,6.641,5.083
	c3.694-12.329,23.596-4.546,5.748,6.755c4.904-2.527,9.979-7.048,15.598-3.082c7.125,5.03,1.958,17.273-5.083,19.806
	c-1.394-6.811,3.027-8.155,8.359-7.233c17.887,3.095,10.039,11.584,9.384,24.227c-0.697,13.477,12.022,5.328,17.771,12.01
	c2.971,3.456,3.146,13.186,3.983,17.738c1.791,9.738,2.383,19.871,3.588,29.701c1.208,9.861,3.968,18.598,3.101,28.621
	c-0.821,9.416,0.919,11.577,5.585,19.493c7.549,12.808,14.748,27.259,30.288,31.796"/>
<path fill="#191615" d="M747.185,663.269c0,0,23.389-215.89-126-221.264c-182.902-17.941-138.077,221.264-138.077,221.264"/>
<path fill="#383433" d="M594.96,437.355c0,0-32.118,5.552-37.704,15.121c-5.585,9.57,24.019,32.798,24.019,32.798l28.039-11.488
	l-22.63,18.299l18.042,60.068l14.578-112.438L594.96,437.355z"/>
<path d="M720.094,577.75c2.986,11.955,0.822,9.975,12.778,18.909c11.957,8.937-0.783,9.497-0.227,17.314
	c0.561,7.82,0.561,8.938-5.846,12.849c-6.405,3.909-10.911,5.025-8.79,10.792c2.121,5.769-5.472,10.99-7.076,14.344
	c-0.771,1.611-7.583,6.581-14.444,11.311h50.695c0,0,9.439-87.262-22.07-152.211C721.849,537.907,718.378,570.883,720.094,577.75z"
	/>
<linearGradient id="SVGID_1_" gradientUnits="userSpaceOnUse" x1="589.2192" y1="321.9326" x2="676.3002" y2="405.0327">
	<stop  offset="0" style="stop-color:#FFD8BF"/>
	<stop  offset="1" style="stop-color:#EFA57F"/>
</linearGradient>
<ellipse fill="url(#SVGID_1_)" cx="621.183" cy="352.435" rx="76.964" ry="89.57"/>
<path opacity="0.49" fill="#FCEEE8" d="M609.481,263.895c-36.953,6.562-65.262,43.704-65.262,88.541
	c0,42.56,25.515,78.16,59.708,87.281c-2.631-1.231-53.026-25.547-53.026-82.122C550.902,317.614,586.983,282.134,609.481,263.895z"
	/>
<path fill="#D89577" d="M673.319,331.776v17.928l6.682,5.655l-0.838,17.754c0,0-2.696,38.298-22.546,58.826
	c24.669-14.922,41.53-44.913,41.53-79.505c0-26.05-9.564-49.496-24.818-65.862C673.503,287.04,683.305,313.385,673.319,331.776z"/>
<path d="M621.185,262.866c42.504,0,76.962,40.102,76.962,89.569c0,49.468-34.458,89.57-76.962,89.57
	c-42.507,0-76.966-40.102-76.966-89.57C544.219,302.968,578.678,262.866,621.185,262.866 M621.185,257.839
	c-45.211,0-81.992,42.436-81.992,94.596c0,52.161,36.781,94.597,81.992,94.597c45.209,0,81.989-42.436,81.989-94.597
	C703.174,300.275,666.394,257.839,621.185,257.839L621.185,257.839z"/>
<rect x="562.033" y="332.607" transform="matrix(0.9552 -0.2959 0.2959 0.9552 -73.9399 185.3996)" fill="#B7B1AC" width="27.138" height="8.79"/>
<path d="M592.816,338.742l-30.43,9.425l-3.997-12.905l30.431-9.425L592.816,338.742z M563.943,345.213l25.921-8.028l-2.6-8.397
	l-25.925,8.031L563.943,345.213z"/>
<path fill="#DDDDDD" d="M564.123,337.945c0.486,0.105,0.578,1.332,0.804,1.789c0.231,0.477,0.611,1.556,1.031,1.909
	c0.4,0.338,0.437,0.304,0.439-0.31c0.003-0.464-0.237-0.935-0.249-1.421c-0.013-0.525,0.164-1.112,0.102-1.626
	c-0.051-0.442-0.603-0.998-0.126-1.202c1.132-0.487,1.993,2.186,2.302,2.764c0.271,0.515,0.615,1.538,1.064,1.978
	c0.691,0.676,1.489-0.14,1.461-1.05c-0.021-0.609-2.563-4.246-0.59-4.121c1.009,0.065,1.069,1.425,1.516,1.993
	c0.341,0.436,0.403,0.494,0.942,0.312c0.861-0.291,0.779-0.947,0.809-1.738c0.028-0.858-0.294-3.103,0.98-1.423
	c0.539,0.715,1.356,1.986,2.361,1.278c1.212-0.855,1.119-4.868,3.473-3.511c0.859,0.498,1.686,1.01,2.627,1.428
	c0.779,0.346,1.585,0.909,1.606-0.248c0.021-1.198-1.076-1.695-0.42-2.916c0.561-1.047,1.254-0.987,2.076-0.25
	c0.489,0.438,1.063,1.257,1.395,1.816c0.42,0.704,0.357,1.601,1.075,2.108c0.155-0.076,0.31-0.167,0.463-0.248l-2.002-6.47
	l-25.925,8.031l1.307,4.21C562.846,340.149,563.125,337.728,564.123,337.945z"/>
<rect x="653.792" y="332.607" transform="matrix(-0.9552 -0.2959 0.2959 -0.9552 1205.1307 856.3716)" fill="#B7B1AC" width="27.139" height="8.79"/>
<path d="M654.143,325.837l30.43,9.425l-3.996,12.905l-30.431-9.425L654.143,325.837z M681.624,336.819l-25.927-8.031l-2.599,8.397
	l25.921,8.028L681.624,336.819z"/>
<path fill="#DDDDDD" d="M678.839,337.945c-0.486,0.105-0.578,1.332-0.804,1.789c-0.23,0.477-0.609,1.556-1.03,1.909
	c-0.401,0.338-0.437,0.304-0.44-0.31c-0.002-0.464,0.237-0.935,0.249-1.421c0.012-0.525-0.165-1.112-0.102-1.626
	c0.052-0.442,0.603-0.998,0.128-1.202c-1.132-0.487-1.994,2.186-2.302,2.764c-0.272,0.515-0.616,1.538-1.065,1.978
	c-0.691,0.676-1.489-0.14-1.459-1.05c0.02-0.609,2.562-4.246,0.588-4.121c-1.01,0.065-1.069,1.425-1.516,1.993
	c-0.341,0.436-0.403,0.494-0.941,0.312c-0.862-0.291-0.779-0.947-0.809-1.738c-0.029-0.858,0.295-3.103-0.981-1.423
	c-0.539,0.715-1.356,1.986-2.363,1.278c-1.212-0.855-1.117-4.868-3.471-3.511c-0.86,0.498-1.687,1.01-2.626,1.428
	c-0.779,0.346-1.585,0.909-1.607-0.248c-0.022-1.198,1.077-1.695,0.419-2.916c-0.561-1.047-1.254-0.987-2.076-0.25
	c-0.489,0.438-1.063,1.257-1.394,1.816c-0.422,0.704-0.359,1.601-1.077,2.108c-0.154-0.076-0.309-0.167-0.462-0.248l2.001-6.47
	l25.927,8.031l-1.307,4.21C680.116,340.149,679.838,337.728,678.839,337.945z"/>
<path id="bouche_1_" d="M630.757,426.996H611.61c-0.925,0-1.676-0.75-1.676-1.676c0-0.925,0.75-1.675,1.676-1.675h19.147
	c0.925,0,1.677,0.75,1.677,1.675C632.434,426.246,631.683,426.996,630.757,426.996z"/>
<rect x="537.287" y="348.725" transform="matrix(0.8912 0.4535 -0.4535 0.8912 219.3187 -211.6204)" fill="#3A1E13" width="27.229" height="5.517"/>
<path fill="#2B160E" d="M561.968,360.681l-25.015-12.729l2.882-5.665l25.014,12.729L561.968,360.681z M538.081,347.585
	l23.521,11.968l2.121-4.17l-23.521-11.969L538.081,347.585z"/>
<rect x="676.945" y="348.725" transform="matrix(-0.8912 0.4535 -0.4535 -0.8912 1465.422 351.552)" fill="#3A1E13" width="27.229" height="5.517"/>
<path fill="#2B160E" d="M676.611,355.016l25.014-12.729l2.881,5.665l-25.015,12.729L676.611,355.016z M701.258,343.414
	l-23.522,11.969l2.123,4.17l23.52-11.968L701.258,343.414z"/>
<path fill="#3A1E13" d="M611.61,377.982h-49.852v-28.696h49.852V377.982z M565.109,374.63h43.149v-21.994h-43.149V374.63z"/>
<path fill="#2B160E" d="M612.028,378.4h-50.688v-29.534h50.688V378.4z M562.177,377.563h49.014v-27.858h-49.014V377.563z
	 M608.677,375.049H564.69v-22.831h43.987V375.049z M565.528,374.211h42.312v-21.155h-42.312V374.211z"/>
<path fill="#3A1E13" d="M679.582,377.982H629.73v-28.696h49.852V377.982z M633.082,374.63h43.149v-21.994h-43.149V374.63z"/>
<path fill="#2B160E" d="M680.001,378.4h-50.69v-29.534h50.69V378.4z M630.149,377.563h49.013v-27.858h-49.013V377.563z
	 M676.649,375.049h-43.986v-22.831h43.986V375.049z M633.5,374.211h42.312v-21.155H633.5V374.211z"/>
<rect x="606.995" y="360.874" transform="matrix(-1 0.0036 -0.0036 -1 1242.5366 725.0038)" fill="#3A1E13" width="27.228" height="5.518"/>
<path fill="#2B160E" d="M606.562,360.508l28.068-0.105l0.022,6.356l-28.066,0.105L606.562,360.508z M633.795,361.245l-26.392,0.098
	l0.017,4.679l26.39-0.098L633.795,361.245z"/>
<path fill="#FFFFFF" d="M641.897,354.152c-0.496,0.875-0.89,1.817-1.138,2.829c-1.66,6.763,3.225,13.774,10.909,15.662
	c7.686,1.888,15.265-2.06,16.923-8.821c0.101-0.401,0.172-0.798,0.225-1.198L641.897,354.152z"/>
<path d="M649.875,363.198c-1.735,0-3.139-1.406-3.139-3.139c0-0.247,0.087-0.467,0.142-0.698c-0.048-0.002-0.094-0.015-0.142-0.015
	c-2.367,0-4.287,1.92-4.287,4.288c0,2.367,1.92,4.287,4.287,4.287c2.369,0,4.287-1.92,4.287-4.287c0-0.224-0.032-0.44-0.066-0.654
	C650.616,363.105,650.258,363.198,649.875,363.198z"/>
<path fill="#FFFFFF" d="M602.592,354.152c0.496,0.875,0.89,1.817,1.139,2.829c1.659,6.763-3.225,13.774-10.91,15.662
	c-7.687,1.888-15.264-2.06-16.923-8.821c-0.1-0.401-0.172-0.798-0.224-1.198L602.592,354.152z"/>
<path d="M594.615,363.198c1.735,0,3.138-1.406,3.138-3.139c0-0.247-0.087-0.467-0.14-0.698c0.047-0.002,0.093-0.015,0.14-0.015
	c2.368,0,4.288,1.92,4.288,4.288c0,2.367-1.919,4.287-4.288,4.287c-2.367,0-4.287-1.92-4.287-4.287c0-0.224,0.033-0.44,0.066-0.654
	C593.874,363.105,594.231,363.198,594.615,363.198z"/>
<path fill="#B7B1AC" d="M621.184,411.24c3.946,3.047,12.604,2.701,12.604,2.701s7.756-0.763,6.3-6.234
	c-1.454-5.47-5.053-12.674-8.862-13.089c-3.81-0.416-10.042,0.554-10.042,0.554s-6.233-0.969-10.042-0.554
	c-3.809,0.416-7.41,7.619-8.865,13.089c-1.454,5.471,6.302,6.234,6.302,6.234S617.237,414.288,621.184,411.24z"/>
<path d="M629.03,394.514c0.775,0,1.523,0.031,2.196,0.104c3.809,0.416,7.409,7.619,8.862,13.089c1.456,5.471-6.3,6.234-6.3,6.234
	s-0.297,0.012-0.809,0.012c-2.24,0-8.581-0.23-11.796-2.713c-3.216,2.482-9.556,2.713-11.797,2.713c-0.51,0-0.808-0.012-0.808-0.012
	s-7.756-0.763-6.302-6.234c1.455-5.47,5.056-12.674,8.865-13.089c0.673-0.073,1.42-0.104,2.196-0.104
	c3.62,0,7.847,0.658,7.847,0.658S625.411,394.514,629.03,394.514 M629.03,391.163L629.03,391.163c-3.113,0-6.56,0.442-7.846,0.622
	c-1.286-0.18-4.734-0.622-7.847-0.622c-0.948,0-1.809,0.042-2.56,0.124c-6.181,0.674-10.287,10.099-11.739,15.56
	c-0.768,2.885,0.1,4.973,0.962,6.216c2.412,3.476,7.296,4.121,8.25,4.214l0.094,0.011l0.101,0.003c0,0,0.347,0.015,0.941,0.015
	c2.951,0,7.982-0.312,11.797-2.161c3.814,1.849,8.846,2.161,11.796,2.161c0.596,0,0.943-0.015,0.943-0.015l0.093-0.003l0.1-0.011
	c0.956-0.093,5.84-0.738,8.25-4.214c0.862-1.243,1.729-3.332,0.961-6.216c-1.45-5.46-5.556-14.884-11.738-15.559
	C630.84,391.205,629.978,391.163,629.03,391.163L629.03,391.163L629.03,391.163z"/>
<path fill="#DDDDDD" d="M640.089,407.708c-1.454-5.47-5.053-12.674-8.862-13.089c-3.81-0.416-10.042,0.554-10.042,0.554
	s-6.233-0.969-10.042-0.554c-3.537,0.386-6.892,6.625-8.518,11.895c2.018-1.171,2.343-2.948,3.877-4.651
	c0.579-0.643,1.288-0.92,1.821-1.672c0.448-0.631,0.559-1.266,1.195-1.668c0.119,1.573-1.837,3.432-1.095,4.899
	c0.731-0.916,0.729-2.303,1.252-3.354c0.472-0.951,1.397-1.336,1.829-2.222c0.103,2.631-1.33,5.014-1.242,7.627
	c1.203-0.296,1.502-3.432,1.972-4.514c0.617-1.422,1.784-2.408,2.468-3.82c0.951,2.178-0.074,5.473-0.381,7.741
	c-0.197,1.46,0.171,2.817-0.042,4.204c0.991-2.262,0.842-4.752,1.692-6.771c0.513-1.216,0.553-3.77,1.913-4.355
	c0.792,1.983-0.256,4.069-0.243,6.111c0.007,1.051-0.184,2.891,0.597,3.654c1.149-1.943,0.25-3.983,0.267-5.996
	c0.012-1.588,1.117-1.268,1.801-2.382c0.166-0.27,0.157-1.038,0.292-1.381c1.184,0.243,0.949,3.86,0.954,4.923
	c0.008,1.998,0.593,3.192,2.324,4.248c0.29-0.938,0.59-2.349,0.334-3.32c-0.242-0.92-0.988-1.27-1.279-2.099
	c-0.236-0.675-0.089-3.572,0.538-3.941c1.162-0.686,1.595,2.189,2.022,2.958c0.887,1.597,1.942,2.794,2.63,4.58
	c-0.033-1.451-0.149-2.745-0.597-4.121c-0.279-0.864-0.64-1.416-0.519-2.371c2.07-1.18,2.321,0.952,2.649,2.414
	c0.52,2.307,2.374,3.187,3.357,5.203c-0.051-2.075-0.278-3.5-1.23-5.324c-0.268-0.515-2.148-3.312-0.484-3.17
	c0.991,0.084,2.397,2.899,2.914,3.591c0.662,0.884,1.31,1.944,2.041,2.83c0.202-0.604-0.875-1.764-0.328-2.202
	c0.864-0.69,1.064,2.133,1.149,2.379c0.37,1.093,1.765,3.245,3.021,3.186C640.091,407.719,640.091,407.715,640.089,407.708z"/>
<path d="M654.609,232.956c-8.606,0-17.066,1.793-25.165,5.333c-4.949-1.283-24.301-5.952-43.84-5.952
	c-13.344,0-24.003,2.214-31.68,6.583c-25.295,14.392-43.848,69.805-17.642,116.863l4.213,7.562v-24.907
	c-0.83,2.231-1.563,4.427-2.184,6.42c-18.573-41.815-2.711-87.802,18.928-100.113c6.653-3.786,16.197-5.705,28.365-5.705
	c21.234,0,43.013,5.962,43.231,6.021l1.18,0.328l1.113-0.511c7.552-3.464,15.451-5.22,23.481-5.22
	c35.878,0,64.771,33.503,64.771,61.243c0,24.01-9.661,36.367-15.827,41.807c-0.089-0.788-0.223-1.551-0.378-2.302v10.937
	c5.555-3.482,22.908-17.03,22.908-50.441C726.083,270.125,694.201,232.956,654.609,232.956z"/>
<path fill="#B7B1AC" d="M612.028,272.413c0,0,18.959,43.987,74.676,50.69c0,0,16.057,9.809,13.332,26.183
	c0,0,22.695-11.102,22.695-48.385c0-37.285-47.338-80.015-93.001-59.068c0,0-49.851-13.825-74.149,0
	c-24.297,13.824-41.539,67.125-16.371,112.32c0,0,10.181-30.33,16.955-37.673C562.939,309.137,566.259,277.021,612.028,272.413z"/>
<path fill="#DDDDDD" d="M624.831,244.061c0,0-119.987-37.616-86.52,100.797l-0.794-32.507l4.659,9.216l-2.983-29.44
	c0,0,0.186-53.786,70.288-44.849l-8.656-4.748L624.831,244.061z"/>
<path fill="#DDDDDD" d="M632.434,244.312c0,0,40.615-8.589,58.125,13.527c17.51,22.115,43.749,39.963,12.616,82.566l6.57-26.1
	c0,0,2.095-21.365-22.622-53.622l-14.034-2.845l5.445-2.392L651.933,250l4.684-2.513h-30.028L632.434,244.312z"/>
<path fill="#9B9692" d="M618,272.832c0,0,22.622,41.893,68.703,44.825L618,272.832z"/>
<path fill="#9B9692" d="M606.562,270.737c0,0-46.581,5.446-56.324,46.92C550.238,317.657,549.461,264.453,606.562,270.737z"/>
<path fill-rule="evenodd" clip-rule="evenodd" fill="#E6E6E6" d="M677.383,448.919c0,0,0.523,51.667,46.885,129.308
	c41.334,39.098,92.721-68.145,92.721-68.145s-25.137-68.703-75.964-112.83c0,0-6.982,30.163-23.393,29.744
	c0,0,9.289,37.075,24.159,44.825c14.873,7.751-5.655,19.689-3.561,32.047C738.23,503.868,718.332,460.998,677.383,448.919z"/>
<path fill-rule="evenodd" clip-rule="evenodd" fill="#D8D8D8" d="M741.155,397.367l-0.179,0.089
	c-0.253,1.025-1.569,6.152-4.098,11.87l10.307,17.199c0,0,13.667,8.429,14.925,13.456c1.257,5.027,2.932,8.514,0,10.332
	c-2.932,1.817,3.352,8.52,5.445,5.587c2.095-2.933,8.798,2.514,8.798,2.514l6.703,7.398c0,0,5.026,6.007,5.026,8.102
	c0,2.094,0,6.618,0,6.618l-2.932,3.993l7.541-3.993l4.607,5.829l2.514,5.667l3.352,7.86l-3.352,4.189l-3.35,11.311
	c0,0-20.11,31.838-26.813,31.42c-6.702-0.421-7.122,6.282-10.472,12.567c-3.351,6.283-7.227,10.891-11.993,7.54
	c-4.764-3.351-26.129-28.067-27.805-30.582c-1.524-2.285-24.201-48.322-31.421-83.435c-1.235-0.567-2.498-1.103-3.781-1.615
	c-0.243,8.755-0.357,20.984-0.406,34.395c6.023,22.558,17.722,54.408,40.496,92.547c41.334,39.098,92.721-68.145,92.721-68.145
	S791.895,441.498,741.155,397.367z"/>
<path fill-rule="evenodd" clip-rule="evenodd" fill="#CCCCCC" d="M816.989,510.082c0,0-25.137-68.703-75.964-112.83
	c0,0-0.535,2.3-1.647,5.613c15.379,19.34,65.248,83.311,70.908,106.658c0,0-8.796,2.514-9.215,5.446
	c-0.42,2.934-42.624,83.657-72.475,52.786c-23.5-24.306-38.817-89.693-44.272-116.414c-2.245-0.899-4.554-1.717-6.941-2.422
	c0,0,0.523,51.667,46.885,129.308C765.602,617.324,816.989,510.082,816.989,510.082z"/>
<path fill-rule="evenodd" clip-rule="evenodd" fill="#F2F2F2" d="M747.185,504.218c1.38,2.234,3.195-5.307,3.195-5.307l-4.608-6.883
	c0,0,9.496-17.694,4.608-21.046c-4.164-2.853-24.397-20.988-29.285-44.384c-1.107,0.277-2.255,0.429-3.463,0.398
	c0,0,9.289,37.075,24.159,44.825c14.873,7.751-5.655,19.689-3.561,32.047c0,0-16.09-34.629-49.088-50.406
	c-0.471,0.977-0.735,1.532-0.735,1.532s46.192,46.433,44.516,53.414l4.75,4.189v8.378h3.628c0,0,2.793-8.66,0-11.452
	c-2.79-2.792,1.243-6.98,1.243-6.98S745.805,501.984,747.185,504.218z"/>
<path d="M741.025,397.252c50.827,44.127,75.964,112.83,75.964,112.83s-36.762,76.722-73.11,76.722
	c-6.627,0-13.239-2.549-19.611-8.577c-46.362-77.64-46.885-129.308-46.885-129.308c40.949,12.079,60.848,54.949,60.848,54.949
	c-2.094-12.358,18.434-24.296,3.561-32.047c-14.87-7.75-24.159-44.825-24.159-44.825c0.112,0.003,0.226,0.004,0.339,0.004
	C734.138,427,741.025,397.252,741.025,397.252 M741.025,393.901c-0.348,0-0.697,0.054-1.036,0.163
	c-1.117,0.365-1.964,1.287-2.229,2.432c-1.758,7.554-8.743,27.152-19.789,27.152l-0.254-0.003c-0.028,0-0.058,0-0.085,0
	c-1.016,0-1.979,0.46-2.616,1.256c-0.654,0.817-0.889,1.894-0.636,2.909c0.395,1.573,9.84,38.632,25.863,46.982
	c2.019,1.054,3.208,2.158,3.533,3.288c0.625,2.185-1.523,5.834-3.605,9.364c-1.221,2.076-2.509,4.267-3.528,6.566
	c-8.189-13.479-27.305-39.159-58.312-48.305c-0.311-0.092-0.63-0.137-0.948-0.137c-0.72,0-1.432,0.232-2.021,0.677
	c-0.847,0.641-1.34,1.645-1.33,2.707c0.021,2.147,1.065,53.465,47.36,130.992c0.156,0.264,0.35,0.507,0.573,0.719
	c6.66,6.297,14.033,9.493,21.914,9.493c38.022,0,74.594-75.417,76.131-78.627c0.39-0.814,0.437-1.75,0.127-2.6
	c-0.256-0.694-26.022-70.025-76.915-114.208C742.604,394.185,741.821,393.901,741.025,393.901L741.025,393.901z"/>
<path d="M729.052,454.585c-1.38,0-2.198-0.062-2.252-0.066l0.283-3.339c1.404,0.118,34.362,2.509,40.082-28.26l3.296,0.612
	C765.088,452.427,737.227,454.585,729.052,454.585z"/>
<path fill="#383433" d="M657.02,442.07c0,0,32.119,5.552,37.703,15.123c5.586,9.568-24.018,32.797-24.018,32.797l-28.038-11.487
	l22.63,18.299l-18.043,60.068l-14.578-112.438L657.02,442.07z"/>
<path fill-rule="evenodd" clip-rule="evenodd" fill="#2A2A2A" d="M709.214,343.956c-0.315-0.058-0.628-0.116-0.943-0.173
	c-1.897-0.102-3.661,0.289-5.394,0.922c-1.468,0.533-3.295,1.38-4.034,2.828c-0.41,0.802-0.468,2.237-0.691,3.244
	c-0.691,3.116-1.093,6.291-1.811,9.389c-0.695,3.012-1.232,6.229-1.85,9.332c-0.205,1.033-0.649,2.294-0.614,3.112
	c0.01,0.312,0.387,0.79,0.61,1.186c1.241,2.158,2.27,3.634,4.553,5.03c0.742,0.455,2.165,1.219,2.928,0.829
	c0.421-0.221,0.564-1.083,0.785-1.91c1.331-4.985,2.465-10.436,3.424-15.542c1.143-6.08,2.621-12.153,3.49-18.067
	C709.584,344.032,709.282,344.075,709.214,343.956z"/>
<g>
	<path fill-rule="evenodd" clip-rule="evenodd" fill="#2A2A2A" d="M658.27,465.7c-0.333,0-0.668-0.005-1.006-0.015l-0.076-0.002
		l-7.285-1.329l-0.111-0.05c-7.967-3.592-14.3-7.585-19.36-12.207l-0.76-0.694l0.716-0.74c0.345-0.356,0.77-0.578,1.111-0.755
		c10.734-5.661,21.569-11.372,32.282-16.977l0.642-0.336l0.52,0.506c1.528,1.487,4.59,2.994,7.485,2.993
		c0.662,0,1.281-0.08,1.841-0.237c2.649-0.748,4.632-3.011,6.551-5.2l0.41-0.467c4.412-5.009,8.704-10.501,12.491-15.348
		c3.758-4.812,8.11-10.399,12.207-15.828c1.028-1.359,1.928-2.616,2.537-4.241c0.736-1.963,1.032-3.812,0.88-5.493
		c-0.277-2.966-1.756-5.295-4.656-7.328l-0.54-0.378l0.135-0.645c1.21-5.791,2.442-11.551,3.674-17.311
		c1.354-6.332,2.708-12.663,4.033-19.034l0.209-1.008l1.001,0.239c7.731,1.843,14.058,5.388,18.293,10.25
		c4.645,5.327,6.449,11.907,5.362,19.558l-0.465,2.543c-4.49,21.124-10.601,37.21-18.688,49.207
		c-2.64,3.914-5.858,7.228-8.97,10.432l-0.85,0.875c-3.335,3.452-6.909,6.819-10.62,10.006c-3.673,3.152-7.421,6.37-11.449,8.91
		c-4.047,2.557-8.184,5.169-12.807,7.007C667.625,464.745,663.08,465.7,658.27,465.7C658.27,465.7,658.27,465.7,658.27,465.7z"/>
	<path d="M712.969,344.788c7.688,1.833,13.779,5.352,17.771,9.935c4.02,4.61,6.279,10.645,5.126,18.76
		c-0.154,0.835-0.307,1.67-0.459,2.505c-4.122,19.389-9.957,36.104-18.533,48.827c-2.827,4.19-6.325,7.675-9.709,11.17
		c-3.304,3.419-6.884,6.792-10.553,9.943c-3.64,3.124-7.349,6.312-11.331,8.823c-4.045,2.555-8.089,5.113-12.643,6.924
		c-4.316,1.717-8.973,3.025-14.369,3.025c-0.323,0-0.649-0.004-0.977-0.014c-2.364-0.432-4.727-0.861-7.09-1.293
		c-7.366-3.321-13.856-7.247-19.097-12.033c0.255-0.264,0.625-0.443,0.943-0.61c10.649-5.616,21.484-11.327,32.195-16.931
		c1.839,1.79,5.155,3.277,8.183,3.277c0.729,0,1.441-0.086,2.112-0.275c3.14-0.886,5.365-3.614,7.44-5.968
		c4.333-4.92,8.441-10.163,12.529-15.394c4.005-5.128,8.208-10.529,12.217-15.841c0.997-1.318,2.003-2.699,2.675-4.492
		c0.711-1.898,1.122-3.919,0.94-5.934c-0.337-3.607-2.268-6.087-5.078-8.057C707.801,368.978,710.439,356.956,712.969,344.788
		 M711.43,342.365l-0.419,2.016c-1.324,6.368-2.701,12.805-4.032,19.03c-1.212,5.664-2.464,11.521-3.675,17.314l-0.27,1.29
		l1.08,0.757c2.677,1.877,3.983,3.914,4.234,6.605c0.137,1.524-0.139,3.224-0.822,5.046c-0.562,1.499-1.418,2.692-2.397,3.987
		c-4.093,5.423-8.442,11.007-12.198,15.816c-3.778,4.835-8.062,10.316-12.454,15.303l-0.412,0.469
		c-1.822,2.079-3.706,4.229-6.07,4.896c-0.471,0.133-0.999,0.2-1.569,0.2c-2.628,0-5.404-1.363-6.788-2.71l-1.038-1.011
		l-1.284,0.672c-10.644,5.569-21.306,11.188-32.201,16.934l-0.079,0.041c-0.384,0.2-0.91,0.475-1.368,0.947l-1.433,1.479
		l1.521,1.389c5.14,4.693,11.559,8.743,19.624,12.379l0.223,0.1l0.24,0.044l3.592,0.655l3.498,0.638l0.15,0.027l0.152,0.004
		c0.348,0.01,0.693,0.015,1.035,0.015c6.406,0,11.69-1.807,15.108-3.167c4.708-1.872,8.886-4.51,12.925-7.062l0.046-0.03
		c4.088-2.578,7.865-5.82,11.518-8.956l0.047-0.041c3.735-3.208,7.332-6.596,10.689-10.071l0.847-0.873
		c3.143-3.236,6.392-6.582,9.082-10.569c8.16-12.106,14.319-28.307,18.831-49.529l0.006-0.029l0.005-0.029
		c0.151-0.833,0.304-1.666,0.458-2.5l0.007-0.041l0.006-0.042c1.13-7.951-0.754-14.8-5.599-20.356
		c-4.373-5.02-10.879-8.673-18.815-10.565L711.43,342.365L711.43,342.365z"/>
</g>
<path fill-rule="evenodd" clip-rule="evenodd" fill="#2A2A2A" d="M627.232,439.126c-0.05,0.267-0.098,0.536-0.148,0.802
	c0.236,3.06,0.716,5.948,1.056,8.937c11.101-5.695,22.1-11.914,33.109-17.646c0.341-0.176,0.752-0.275,0.989-0.601
	c-1.729-1.314-3.662-2.82-5.434-4.215c-0.59-0.465-1.224-1.172-1.841-1.41c-1.25-0.485-3.137,0.046-4.233,0.448
	c-1.28,0.472-2.355,1.003-3.405,1.527c-5.662,2.825-10.972,5.692-16.459,8.572C629.251,436.389,627.91,437.258,627.232,439.126z"/>
<linearGradient id="SVGID_2_" gradientUnits="userSpaceOnUse" x1="678.9463" y1="384.4795" x2="681.9554" y2="384.6163" gradientTransform="matrix(0.9838 0.1795 -0.1795 0.9838 106.7903 -137.9395)">
	<stop  offset="0" style="stop-color:#353535"/>
	<stop  offset="1" style="stop-color:#000000"/>
</linearGradient>
<polygon fill-rule="evenodd" clip-rule="evenodd" fill="url(#SVGID_2_)" points="709.667,344.136 712.969,344.788 705.261,381.134 
	701.968,379.655 "/>
<linearGradient id="SVGID_3_" gradientUnits="userSpaceOnUse" x1="691.1846" y1="602.9287" x2="694.1937" y2="603.0655" gradientTransform="matrix(0.6082 1.0859 -0.9245 0.5179 781.6251 -623.2358)">
	<stop  offset="0" style="stop-color:#353535"/>
	<stop  offset="1" style="stop-color:#000000"/>
</linearGradient>
<polygon fill-rule="evenodd" clip-rule="evenodd" fill="url(#SVGID_3_)" points="662.049,430.713 664.051,434.392 629.072,452.477 
	627.735,448.219 "/>
<path fill-rule="evenodd" clip-rule="evenodd" fill="#171717" d="M730.74,354.723c-3.992-4.583-10.083-8.102-17.771-9.935
	c-0.249,1.199-0.506,2.384-0.757,3.58c6.667,0.863,14.457,5.278,20.737,18.545c0,0,1.206,19.23-11.417,43.253
	c-12.622,24.024-33.947,47.24-68.063,49.642c0,0-10.795-1.911-18.597-10.547c-0.939,0.494-1.889,0.994-2.824,1.487
	c-0.318,0.167-0.688,0.347-0.943,0.61c5.241,4.786,11.731,8.712,19.097,12.033c2.363,0.432,4.727,0.861,7.09,1.293
	c5.814,0.169,10.772-1.191,15.346-3.011c4.554-1.811,8.598-4.369,12.643-6.924c3.982-2.511,7.691-5.699,11.331-8.823
	c3.669-3.151,7.25-6.524,10.553-9.943c3.384-3.495,6.882-6.98,9.709-11.17c8.576-12.723,14.411-29.438,18.533-48.827
	c0.152-0.835,0.305-1.67,0.459-2.505C737.019,365.367,734.76,359.333,730.74,354.723z"/>
<path fill-rule="evenodd" clip-rule="evenodd" d="M709.214,343.956c-0.315-0.058-0.628-0.116-0.943-0.173
	c-1.897-0.102-3.661,0.289-5.394,0.922c-1.468,0.533-3.295,1.38-4.034,2.828c-0.41,0.802-0.468,2.237-0.691,3.244
	c-0.037,0.171-0.061,0.343-0.099,0.515c1.271-0.738,5.497-2.934,10.929-3.09c0.251-1.362,0.488-2.719,0.685-4.065
	C709.584,344.032,709.282,344.075,709.214,343.956z"/>
<path fill-rule="evenodd" clip-rule="evenodd" d="M632.661,446.496c-1.802-2.553-3.315-5.574-4.324-9.141
	c-0.446,0.486-0.839,1.038-1.105,1.771c-0.05,0.267-0.098,0.536-0.148,0.802c0.236,3.06,0.716,5.948,1.056,8.937
	C629.65,448.089,631.154,447.288,632.661,446.496z"/>
<path fill-rule="evenodd" clip-rule="evenodd" fill="#3B3B3B" d="M715.035,384.768c0.794-6.383-3.016-10.383-7.826-12.804
	c-0.651,3.056-1.308,6.103-1.948,9.17c2.81,1.97,4.741,4.45,5.078,8.057c0.182,2.015-0.229,4.035-0.94,5.934
	c-0.672,1.793-1.679,3.174-2.675,4.492c-4.009,5.312-8.212,10.712-12.217,15.841c-4.087,5.23-8.195,10.473-12.529,15.394
	c-2.075,2.354-4.3,5.083-7.44,5.968c-3.457,0.974-8.013-0.781-10.294-3.002c-2.17,1.137-4.355,2.288-6.537,3.431
	c4.097,3.916,9.271,6.677,15.316,5.402C688.943,439.288,713.235,399.19,715.035,384.768z"/>
<path fill-rule="evenodd" clip-rule="evenodd" fill="#3B3B3B" d="M694.488,373.796c1.241,2.158,2.27,3.634,4.553,5.03
	c0.742,0.455,2.165,1.219,2.928,0.829c0.421-0.221,0.564-1.083,0.785-1.91c0.601-2.25,1.156-4.599,1.679-6.964
	c-3.518-1.29-7.162-1.895-9.79-2.061c-0.052,0.258-0.099,0.521-0.151,0.777c-0.205,1.033-0.649,2.294-0.614,3.112
	C693.887,372.922,694.264,373.399,694.488,373.796z"/>
<path fill-rule="evenodd" clip-rule="evenodd" fill="#2A2A2A" d="M709.214,343.956c-0.315-0.058-0.628-0.116-0.943-0.173
	c-1.897-0.102-3.661,0.289-5.394,0.922c-1.468,0.533-3.295,1.38-4.034,2.828c-0.41,0.802-0.468,2.237-0.691,3.244
	c-0.691,3.116-1.093,6.291-1.811,9.389c-0.695,3.012-1.232,6.229-1.85,9.332c-0.205,1.033-0.649,2.294-0.614,3.112
	c0.01,0.312,0.387,0.79,0.61,1.186c1.241,2.158,2.27,3.634,4.553,5.03c0.742,0.455,2.165,1.219,2.928,0.829
	c0.421-0.221,0.564-1.083,0.785-1.91c1.331-4.985,2.465-10.436,3.424-15.542c1.143-6.08,2.621-12.153,3.49-18.067
	C709.584,344.032,709.282,344.075,709.214,343.956z"/>
<path fill-rule="evenodd" clip-rule="evenodd" fill="#3B3B3B" d="M654.963,424.994c-1.25-0.485-3.137,0.046-4.233,0.448
	c-0.467,0.172-0.882,0.357-1.304,0.542c1.339,2.472,3.258,5.595,5.685,8.488c2.045-1.092,4.093-2.186,6.138-3.252
	c0.341-0.176,0.752-0.275,0.989-0.601c-1.729-1.314-3.662-2.82-5.434-4.215C656.214,425.938,655.581,425.232,654.963,424.994z"/>
<g>
	<linearGradient id="SVGID_4_" gradientUnits="userSpaceOnUse" x1="680.624" y1="395.4238" x2="741.2437" y2="395.4238">
		<stop  offset="0" style="stop-color:#FFD8BF"/>
		<stop  offset="1" style="stop-color:#EFA57F"/>
	</linearGradient>
	<path fill="url(#SVGID_4_)" d="M715.992,423.927c-0.345,0-0.668-0.178-0.852-0.476c-4.805-7.816-24.292-14.671-26.857-14.995
		c-3.603-0.453-6.959-9.027-7.596-10.741c-0.083-0.223-0.083-0.467-0.002-0.69c0.878-2.412,2.331-3.135,3.535-3.268
		c-0.212-0.238-0.397-0.501-0.548-0.794c-0.517-1.008-0.53-2.215-0.039-3.588c0.76-2.125,2.369-3.249,4.651-3.249
		c0.674,0,1.374,0.101,2.07,0.268l-0.455-0.399c-0.168-0.148-0.282-0.348-0.323-0.569c-0.419-2.251-0.143-3.98,0.821-5.139
		c1.24-1.492,3.247-1.665,4.648-1.665c0.612,0,1.212,0.039,1.751,0.073c0.123,0.008,0.243,0.016,0.358,0.023
		c-0.011-0.012-0.023-0.024-0.035-0.036c-4.144-4.231-2.424-9.271-0.936-11.344c0.188-0.262,0.49-0.417,0.812-0.417
		c24.357,0,38.951,19.038,44.095,27.223c0.157,0.25,0.196,0.557,0.105,0.838c-2.044,6.364-9.894,27.259-25.094,28.939
		C716.065,423.925,716.028,423.927,715.992,423.927z"/>
	<path d="M697.005,367.921c23.795,0.002,38.091,18.564,43.239,26.755c-2.126,6.621-9.726,26.646-24.252,28.251
		c-4.945-8.044-24.629-15.09-27.584-15.463c-3.184-0.4-6.783-10.097-6.783-10.097c0.715-1.965,1.814-2.634,3.044-2.634
		c2.638,0,5.874,3.083,7.189,3.083c0.302,0,0.503-0.163,0.572-0.563c0.506-2.956-10.055-1.396-7.857-7.541
		c0.688-1.925,2.098-2.586,3.71-2.586c3.532,0,8.032,3.174,8.032,3.174l-5.756-5.057c-0.912-4.903,1.902-5.622,4.486-5.622
		c1.07,0,2.101,0.124,2.811,0.124c1.088,0,1.421-0.291-0.021-1.763c-4.651-4.749-0.838-10.061-0.838-10.061
		C697,367.921,697,367.921,697.005,367.921 M697.005,365.921L697.005,365.921h-0.01c-0.645,0-1.249,0.311-1.625,0.834
		c-1.455,2.027-3.109,6.598-0.376,10.867c-0.971,0.001-3.712,0.036-5.367,2.026c-1.089,1.31-1.463,3.152-1.116,5.481
		c-0.076-0.002-0.152-0.003-0.229-0.003c-2.704,0-4.69,1.389-5.593,3.912c-0.549,1.535-0.559,2.922-0.029,4.128
		c-1.063,0.491-2.182,1.5-2.916,3.517c-0.162,0.446-0.161,0.935,0.004,1.38c1.209,3.257,4.449,10.887,8.409,11.385
		c3.099,0.391,21.746,7.395,26.13,14.526c0.366,0.596,1.014,0.953,1.703,0.953c0.073,0,0.146-0.004,0.22-0.012
		c15.367-1.698,23.257-21.285,25.937-29.627c0.181-0.562,0.104-1.175-0.211-1.676C736.705,385.287,721.853,365.923,697.005,365.921
		L697.005,365.921z"/>
</g>
<path fill="#D89577" d="M695.776,370.721c6.717,1.132,29.843,6.314,43.993,25.384c0.179-0.525,0.339-1.005,0.475-1.428
	c-0.177-0.281-0.366-0.577-0.563-0.883c-0.068-0.101-0.141-0.209-0.208-0.313c-0.15-0.226-0.302-0.456-0.465-0.693
	c-0.086-0.128-0.175-0.257-0.265-0.39c-0.167-0.243-0.341-0.492-0.52-0.743c-0.084-0.121-0.168-0.239-0.255-0.361
	c-0.264-0.367-0.537-0.743-0.825-1.126c-0.054-0.073-0.113-0.148-0.168-0.222c-0.24-0.319-0.488-0.643-0.745-0.971
	c-0.108-0.139-0.222-0.28-0.332-0.421c-0.221-0.276-0.446-0.555-0.678-0.835c-0.119-0.146-0.238-0.294-0.363-0.441
	c-0.274-0.328-0.553-0.659-0.844-0.99c-0.082-0.096-0.162-0.191-0.246-0.287c-0.371-0.421-0.752-0.845-1.145-1.271
	c-0.113-0.121-0.229-0.242-0.343-0.364c-0.294-0.314-0.597-0.628-0.903-0.943c-0.144-0.149-0.292-0.297-0.44-0.445
	c-0.308-0.309-0.624-0.618-0.943-0.926c-0.138-0.13-0.272-0.262-0.41-0.394c-0.456-0.43-0.923-0.859-1.402-1.285
	c-0.054-0.048-0.112-0.095-0.167-0.144c-0.43-0.378-0.871-0.753-1.319-1.125c-0.161-0.132-0.325-0.262-0.483-0.393
	c-0.366-0.295-0.735-0.587-1.112-0.877c-0.175-0.135-0.352-0.27-0.529-0.403c-0.429-0.321-0.866-0.639-1.311-0.952
	c-0.12-0.083-0.237-0.17-0.356-0.253c-0.562-0.389-1.14-0.771-1.728-1.144c-0.149-0.094-0.3-0.183-0.449-0.275
	c-0.451-0.279-0.909-0.553-1.374-0.821c-0.203-0.118-0.408-0.232-0.614-0.348c-0.448-0.249-0.902-0.49-1.362-0.728
	c-0.193-0.1-0.385-0.201-0.581-0.299c-0.648-0.324-1.307-0.638-1.981-0.935c-0.038-0.017-0.077-0.032-0.116-0.048
	c-0.635-0.278-1.285-0.541-1.943-0.794c-0.214-0.082-0.433-0.159-0.649-0.238c-0.504-0.184-1.013-0.359-1.528-0.527
	c-0.24-0.077-0.478-0.155-0.72-0.229c-0.57-0.174-1.149-0.336-1.734-0.49c-0.173-0.045-0.341-0.095-0.517-0.139
	c-0.753-0.188-1.52-0.355-2.299-0.504c-0.19-0.036-0.387-0.064-0.578-0.098c-0.6-0.107-1.208-0.202-1.824-0.286
	c-0.27-0.036-0.541-0.067-0.813-0.099c-0.581-0.066-1.168-0.122-1.761-0.165c-0.258-0.02-0.512-0.042-0.772-0.056
	c-0.841-0.048-1.693-0.08-2.562-0.08c0,0-0.798,1.125-1.218,2.792C695.778,370.716,695.778,370.719,695.776,370.721z"/>
<path fill="#D89577" d="M704.282,395.791c-1.25-2.042-7.977-4.88-10.461-5.802l0.583-1.571c0.97,0.359,9.531,3.597,11.309,6.497
	L704.282,395.791z"/>
<path opacity="0.49" fill="#FCEEE8" d="M685.337,394.797c-1.494-0.257-2.871,0.255-3.713,2.57c0,0,3.599,9.696,6.783,10.097
	C681.398,399.826,683.679,396.179,685.337,394.797z"/>
<path opacity="0.49" fill="#FCEEE8" d="M684.573,389.711c-0.857,2.399,0.235,3.617,1.851,4.395l0,0
	c-3.064-4.948,3.453-6.766,3.491-6.776C687.674,386.841,685.489,387.155,684.573,389.711z"/>
<path opacity="0.49" fill="#FCEEE8" d="M694.532,379.634c-2.425,0.102-4.826,1.027-3.974,5.609l1.729,1.518
	C691.03,382.417,694.531,379.635,694.532,379.634z"/>
<path fill="#FCEEE8" d="M695.018,409.557c0.019,0.006,0.038,0.014,0.056,0.022c0.409,0.158,0.832,0.325,1.26,0.497
	c0.156,0.063,0.313,0.127,0.473,0.192c0.33,0.136,0.667,0.275,1.004,0.418c0.219,0.093,0.44,0.188,0.664,0.284
	c0.329,0.143,0.661,0.288,0.997,0.438c0.222,0.099,0.445,0.199,0.671,0.302c0.277,0.127,0.557,0.257,0.837,0.388
	c0.354,0.167,0.709,0.336,1.065,0.509c0.243,0.118,0.485,0.236,0.727,0.357c0.262,0.13,0.521,0.261,0.782,0.394
	c0.229,0.118,0.458,0.239,0.688,0.359c0.421,0.222,0.841,0.448,1.258,0.678c0.192,0.107,0.385,0.213,0.577,0.321
	c0.273,0.156,0.546,0.31,0.813,0.469c0.191,0.11,0.375,0.224,0.561,0.336c0.434,0.26,0.862,0.526,1.28,0.795
	c0.173,0.112,0.345,0.223,0.514,0.336c0.254,0.169,0.509,0.337,0.756,0.509c0.251,0.176,0.497,0.354,0.741,0.532
	c0.307,0.223,0.603,0.448,0.891,0.674c0.159,0.123,0.312,0.247,0.464,0.371c0.304,0.246,0.593,0.496,0.875,0.746
	c0.194,0.171,0.387,0.343,0.569,0.517c0.183,0.172,0.353,0.347,0.522,0.52c0.141,0.144,0.275,0.289,0.408,0.433
	c0.222,0.243,0.43,0.486,0.628,0.73c0.152,0.189,0.303,0.379,0.44,0.57c0.119,0.167,0.23,0.334,0.337,0.501
	c0.037,0.057,0.08,0.113,0.114,0.169c1.007-0.111,1.976-0.318,2.915-0.596C716.167,413.35,703.077,409.02,695.018,409.557z"/>
<polygon fill="#FCEEE8" points="597.808,527.75 594.96,464.7 612.136,461.766 666.596,473.787 652.421,534.241 "/>
<polygon fill="#E2D6D3" points="653.942,470.994 645.893,487.742 623.959,512.876 636.497,532.35 652.421,534.241 666.596,473.787 
	"/>
<text transform="matrix(0.9416 0.3367 -0.3367 0.9416 620.8311 485.2227)"><tspan x="0" y="0" font-family="'NeverSayNever'" font-size="5.027">Remember...</tspan><tspan x="0" y="6.032" font-family="'NeverSayNever'" font-size="5.027">for my beloved </tspan></text>
<polygon fill="#FFFFFF" points="612.136,461.766 594.96,464.7 595.985,487.407 612.771,461.907 "/>
<path fill="#282825" d="M611.339,462.075l54.605,12.055l-13.99,59.661l-53.806-6.392l-2.827-62.589L611.339,462.075 M611.381,460.3
	l-17.87,3.054l2.964,65.602l56.821,6.752l14.75-62.901L611.381,460.3L611.381,460.3z"/>
<path d="M645.276,506.172c-0.034,0-0.068-0.009-0.1-0.024c-0.109-0.061-11.074-5.951-17.237-6.259
	c-0.115-0.007-0.204-0.105-0.198-0.219c0.006-0.112,0.098-0.2,0.209-0.2c0.003,0,0.007,0,0.011,0
	c6.258,0.312,16.962,6.064,17.415,6.308c0.102,0.055,0.139,0.183,0.085,0.285C645.421,506.133,645.35,506.172,645.276,506.172z"/>
<g>
	<linearGradient id="SVGID_5_" gradientUnits="userSpaceOnUse" x1="585.1621" y1="542.9326" x2="653.4497" y2="542.9326">
		<stop  offset="0" style="stop-color:#FFD8BF"/>
		<stop  offset="1" style="stop-color:#EFA57F"/>
	</linearGradient>
	<path fill="url(#SVGID_5_)" d="M610.669,582.369c-0.248,0-0.496-0.092-0.688-0.274l-21.535-20.448
		c-0.132-0.126-0.227-0.284-0.275-0.459l-2.972-10.762c-0.064-0.231-0.042-0.477,0.06-0.693
		c3.018-6.392,18.388-38.278,24.676-38.278c5.339,0,9.768-7.393,9.812-7.468c0.181-0.307,0.51-0.491,0.86-0.491
		c0.039,0,0.078,0.002,0.116,0.007c0.483,0.056,4.77,0.621,6.598,3.056c0.682,0.909,0.941,1.991,0.75,3.131
		c-0.063,0.377-0.015,0.536,0.007,0.562c0.186,0.22,1.339,0.228,2.028,0.232c2.209,0.014,5.547,0.034,6.658,3.783
		c0.406,1.372,0.952,1.372,1.351,1.372c0.375,0,0.819-0.087,1.289-0.179c0.556-0.108,1.13-0.221,1.724-0.221
		c2.744,0,3.604,2.558,3.946,4.826c1.769,0.231,5.737,1.014,7.381,3.479c0.737,1.105,0.911,2.428,0.508,3.84
		c0.273,1.478,1.407,8.715-1.143,15.384c-2.782,7.276-38.964,38.058-40.503,39.365C611.129,582.29,610.899,582.369,610.669,582.369z
		"/>
	<path d="M620.607,504.496c0,0,7.182,0.838,6.477,5.027c-0.705,4.19,7.045-0.628,8.721,5.028c0.496,1.673,1.34,2.087,2.31,2.087
		c0.953,0,2.027-0.4,3.013-0.4c1.402,0,2.623,0.81,3.056,4.737c0,0,9.636,0.697,7.75,6.353c0,0,1.676,7.961-1.047,15.082
		c-2.722,7.121-40.216,38.96-40.216,38.96l-21.535-20.448l-2.972-10.762c0,0,17.799-37.705,23.772-37.705
		C615.906,512.455,620.607,504.496,620.607,504.496 M620.607,502.496c-0.701,0-1.359,0.369-1.722,0.983
		c-1.156,1.943-5.013,6.976-8.951,6.976c-1.595,0-4.914,0-15.877,19.886c-5.167,9.373-9.659,18.87-9.704,18.965
		c-0.205,0.433-0.247,0.925-0.119,1.386l2.972,10.762c0.097,0.351,0.287,0.668,0.551,0.918l21.535,20.448
		c0.385,0.365,0.88,0.55,1.377,0.55c0.46,0,0.92-0.157,1.294-0.476c3.878-3.293,37.966-32.384,40.79-39.771
		c2.526-6.604,1.569-13.735,1.232-15.695c0.507-2.02-0.083-3.516-0.699-4.44c-1.65-2.473-5.224-3.438-7.344-3.802
		c-0.41-2.072-1.503-4.948-4.815-4.948c-0.691,0-1.341,0.127-1.916,0.24c-0.421,0.083-0.819,0.16-1.097,0.16
		c-0.05,0-0.085-0.003-0.108-0.005c-0.046-0.06-0.161-0.236-0.284-0.65c-1.321-4.46-5.413-4.485-7.61-4.499
		c-0.299-0.002-0.684-0.004-1.003-0.022c0.122-1.271-0.216-2.476-0.988-3.503c-2.078-2.769-6.755-3.388-7.281-3.449
		C620.762,502.5,620.684,502.496,620.607,502.496L620.607,502.496z"/>
</g>
<path fill="#D89577" d="M650.886,542.409c2.723-7.121,1.047-15.082,1.047-15.082c0.648-1.946-0.078-3.294-1.294-4.238
	c-6.832,14.814-23.178,46.757-41.325,56.99l1.355,1.29C610.669,581.369,648.164,549.53,650.886,542.409z"/>
<path fill="#FCEEE8" d="M591.05,542.933c0,0,21.614-26.475,29.82-38.399c-0.161-0.024-0.262-0.038-0.262-0.038
	s-4.702,7.959-10.673,7.959c-4.614,0-16.281,22.496-21.352,32.73L591.05,542.933z"/>
<path fill="#E6E6E6" d="M532.417,461.766c0,0-37.999,19.271-45.54,25.136c-7.541,5.864-49.434,114.785-49.434,120.649
	c0,5.865,14.43,68.264,183.163-20.747c0,0-34.52-23.656-31.341-42.929c0,0-78.091,37.702-89.821,36.865
	c0,0,4.189-30.163,1.256-36.865c-2.932-6.702-0.837-32.257,2.933-33.933C507.405,508.267,532.417,461.766,532.417,461.766z"/>
<path fill="#D8D8D8" d="M611.446,579.678c-4.273,1.439-9.093,3.304-10.622,4.831c-2.932,2.933-23.46,13.407-25.554,11.731
	c-2.095-1.675-12.568,4.189-12.568,4.189l-16.757,7.121l-23.04,8.797l-5.446-2.512l-18.013,5.444c0,0-24.298,0-20.108-2.933
	c4.189-2.932,1.257-10.89-7.541-7.958c-8.798,2.933-19.689,3.77-20.108,1.676c-0.419-2.096-5.865-9.218-4.608-11.731
	c1.256-2.512,7.121-8.178,7.121-8.178l5.866-12.766l-1.256-7.961l7.959-11.733l3.352-12.565c0,0,10.892-24.715,11.729-26.39
	c0.7-1.401,12.77-25.433,16.018-38.632c-4.932,2.791-9.013,5.254-10.99,6.792c-7.541,5.864-49.434,114.785-49.434,120.649
	c0,5.865,14.43,68.264,183.163-20.747C620.607,586.804,616.602,584.056,611.446,579.678z"/>
<path fill="#CCCCCC" d="M615.249,582.797c-24.533,11.537-94.071,43.187-118.735,43.187c-30.163,0-54.733-4.565-54.459-19.271
	c0.219-11.851,38.984-94.097,54.028-125.587c-4.12,2.369-7.472,4.427-9.204,5.776c-7.541,5.864-49.434,114.785-49.434,120.649
	c0,5.865,14.43,68.264,183.163-20.747C620.607,586.804,618.442,585.32,615.249,582.797z"/>
<path fill="#F2F2F2" d="M589.267,543.875c0,0-78.091,37.702-89.821,36.865c0,0,4.189-30.163,1.256-36.865
	c-2.932-6.702-0.837-32.257,2.933-33.933c3.77-1.675,28.782-48.176,28.782-48.176s-4.813,2.442-11.343,5.845
	c-8.794,14.548-21.771,36.499-22.048,39.818c-0.419,5.025-9.386,33.207-3.352,40.585c6.036,7.38-0.812,26.443-2.081,28.955
	c-1.27,2.514,1.662,10.453-3.365,9.834c-5.027-0.617-7.121,3.353-7.121,3.353l2.094,6.503l3.771-3.771c0,0,3.77-1.693,6.702-2.731
	c2.933-1.037,8.379-3.353,8.379-3.353l43.987-16.955l37.703-16.339c0,0,10.479,26.004,25.694,38.054
	c3.009-1.54,6.056-3.115,9.169-4.76C620.607,586.804,586.087,563.147,589.267,543.875z"/>
<path d="M532.417,461.766h0.008 M532.417,461.766c0,0-25.012,46.501-28.782,48.176c-3.771,1.676-5.865,27.231-2.933,33.933
	c2.933,6.702-1.256,36.865-1.256,36.865c0.128,0.01,0.265,0.012,0.411,0.012c13.033,0,89.41-36.877,89.41-36.877
	c-3.179,19.272,31.341,42.929,31.341,42.929c-68.939,36.369-112.12,47.46-139.083,47.46c-39.031,0-44.08-23.243-44.08-26.713
	c0-5.864,41.893-114.785,49.434-120.649C494.419,481.036,532.417,461.766,532.417,461.766 M532.417,458.415
	c-0.096,0-0.19,0.003-0.287,0.011c-0.462,0.04-0.897,0.174-1.287,0.381c-2.252,1.142-38.395,19.516-46.023,25.448
	c-3.884,3.022-13.507,23.792-28.601,61.733c-5.739,14.43-22.126,56.713-22.126,61.562c0,2.365,1.503,10.028,8.365,17.008
	c8.52,8.663,21.663,13.056,39.065,13.056c33.143,0,80.463-16.096,140.647-47.846c1.038-0.547,1.713-1.598,1.781-2.769
	c0.068-1.173-0.482-2.294-1.45-2.96c-9.111-6.253-32.25-25.559-29.93-39.622c0.203-1.233-0.297-2.478-1.298-3.227
	c-0.591-0.442-1.297-0.668-2.008-0.668c-0.496,0-0.994,0.11-1.457,0.334c-27.605,13.327-70.118,32.556-84.479,36.005
	c1.143-9.318,3.053-28.362,0.443-34.33c-2.328-5.319-0.705-26.074,1.675-29.748c1.476-0.819,4.31-3.734,16.906-25.903
	c6.289-11.067,12.238-22.084,12.945-23.398c0.301-0.502,0.475-1.089,0.475-1.717c0-1.84-1.48-3.334-3.318-3.351
	C532.442,458.415,532.429,458.415,532.417,458.415L532.417,458.415z"/>
<linearGradient id="SVGID_6_" gradientUnits="userSpaceOnUse" x1="308.0034" y1="603.3984" x2="204.5188" y2="536.4084">
	<stop  offset="0" style="stop-color:#323232"/>
	<stop  offset="1" style="stop-color:#2B2B2B"/>
</linearGradient>
<path fill="url(#SVGID_6_)" d="M353.544,622.906l20.505-74.182c0,0,7.245-46.431-7.837-46.431c-15.083,0-42.82,0-42.82,0
	s-11.46-8.441-11.46-34.983c0,0-2.415-8.145-8.145-8.145c-4.67,0-21.108,0-26.986,0c-1.322,0-2.107,0-2.107,0
	c-5.878,0-22.315,0-26.986,0c-5.73,0-8.145,8.145-8.145,8.145c0,26.542-11.46,34.983-11.46,34.983s-27.749,0-42.82,0
	c-15.082,0-7.837,46.431-7.837,46.431l29.549,74.182l-33.172,36.27h100.871h2.107h100.871L353.544,622.906z"/>
<path fill="#4F4F4F" d="M247.708,459.166c-5.73,0-8.145,8.145-8.145,8.145c0,26.542-11.46,34.983-11.46,34.983s-27.749,0-42.82,0
	c-15.082,0-7.837,46.431-7.837,46.431l29.549,74.182l-33.172,36.27h7.124l32.822-38.2c0,0-28.996-63.491-30.996-74.826
	c-2-11.334,2.5-38.658,2.5-38.658s34.495,2.5,48.493,0c13.998-2.5,10.499-36.495,12.998-41.613c1.131-2.315,2.77-4.742,4.229-6.712
	C249.635,459.166,248.499,459.166,247.708,459.166z"/>
<path opacity="0.37" fill="#1E1E1D" d="M250.337,659.176h24.356h2.107h100.871l-24.128-36.27l20.505-74.182
	c0,0,7.245-46.431-7.837-46.431c-6.226,0-14.605,0-22.302,0C376.334,558.25,264.987,647.751,250.337,659.176z"/>
<linearGradient id="SVGID_7_" gradientUnits="userSpaceOnUse" x1="312.7051" y1="424.4453" x2="312.7051" y2="242.7469" gradientTransform="matrix(1 0 0 -1 244 1176.9941)">
	<stop  offset="0" style="stop-color:#5E3F2F"/>
	<stop  offset="0.6442" style="stop-color:#4F3529"/>
	<stop  offset="0.9387" style="stop-color:#4F3529"/>
</linearGradient>
<rect x="137.134" y="702.856" fill="url(#SVGID_7_)" stroke="#3D251A" stroke-width="3" stroke-miterlimit="10" width="839.141" height="258.118"/>
<rect x="117.061" y="660.717" fill="#3D251A" stroke="#3D251A" stroke-width="3" stroke-miterlimit="10" width="877.822" height="39.655"/>
<polygon fill="#684536" points="219.55,709.788 968.114,709.788 968.114,761.068 "/>
<polygon opacity="0.33" fill="#3D251A" points="153.802,821.636 153.802,948.329 968.114,948.329 "/>
<rect x="117.061" y="660.717" opacity="0.43" fill="#684536" width="877.822" height="5.933"/>
<linearGradient id="SVGID_8_" gradientUnits="userSpaceOnUse" x1="1188.4839" y1="310.2139" x2="1541.7462" y2="1012.7015">
	<stop  offset="0" style="stop-color:#E6E6E6"/>
	<stop  offset="1" style="stop-color:#999999"/>
</linearGradient>
<rect x="1023.823" y="3.188" display="none" fill="url(#SVGID_8_)" width="561.958" height="1076.664"/>
<path display="none" fill="#8C8C8C" d="M1590.721,1082.544h-571.839V0.497h571.839V1082.544z M1028.76,1077.16h552.082V5.88H1028.76
	V1077.16z"/>
<polygon display="none" opacity="0.33" fill="#AFAEAE" points="1042.651,1062.787 1565.683,364.664 1565.683,1060.406 "/>
</svg>
