<?xml version="1.0" encoding="utf-8"?>
<!-- Generator: Adobe Illustrator 15.0.0, SVG Export Plug-In  -->
<!DOCTYPE svg PUBLIC "-//W3C//DTD SVG 1.1//EN" "http://www.w3.org/Graphics/SVG/1.1/DTD/svg11.dtd" [
	<!ENTITY ns_flows "http://ns.adobe.com/Flows/1.0/">
]>
<svg version="1.1"
	 xmlns="http://www.w3.org/2000/svg" xmlns:xlink="http://www.w3.org/1999/xlink" xmlns:a="http://ns.adobe.com/AdobeSVGViewerExtensions/3.0/"
	 x="0px" y="0px" width="169px" height="166px" viewBox="177.131 15.343 169 166"
	 overflow="visible" enable-background="new 177.131 15.343 169 166" xml:space="preserve">
<defs>
</defs>
<g>
	<defs>
		<rect id="SVGID_1_" x="177.131" y="15.343" width="169" height="166"/>
	</defs>
	<clipPath id="SVGID_2_">
		<use xlink:href="#SVGID_1_"  overflow="visible"/>
	</clipPath>
	<linearGradient id="SVGID_3_" gradientUnits="userSpaceOnUse" x1="240.9849" y1="442.7124" x2="240.9849" y2="364.4559">
		<stop  offset="0" style="stop-color:#D1D1D1"/>
		<stop  offset="1" style="stop-color:#E5E5E5"/>
	</linearGradient>
	<path clip-path="url(#SVGID_2_)" fill="url(#SVGID_3_)" d="M240.984,0C107.893,0,0,107.892,0,240.986V481.97h481.969V240.986
		C481.969,107.892,374.079,0,240.984,0z"/>
	<polygon opacity="0.52" clip-path="url(#SVGID_2_)" fill="#F4F3F2" points="311.657,353.578 311.657,71.72 35.151,227.201 
		35.151,353.578 	"/>
	<linearGradient id="SVGID_4_" gradientUnits="userSpaceOnUse" x1="240.9844" y1="34.3882" x2="240.9844" y2="40.8205">
		<stop  offset="0" style="stop-color:#5E3F2F"/>
		<stop  offset="0.6442" style="stop-color:#4F3529"/>
		<stop  offset="0.9387" style="stop-color:#4F3529"/>
	</linearGradient>
	<path clip-path="url(#SVGID_2_)" fill="url(#SVGID_4_)" d="M98.67,46.511h284.629c-6.742-4.942-13.748-9.543-20.998-13.776H119.668
		C112.418,36.968,105.412,41.569,98.67,46.511z"/>
	<g clip-path="url(#SVGID_2_)">
		<path fill="#3D251A" d="M117.571,33.975h246.828c-1.404-0.838-2.814-1.669-4.238-2.479H121.808
			C120.385,32.306,118.975,33.136,117.571,33.975z"/>
		<path fill="#3D251A" d="M381.598,45.271H100.37c-1.139,0.819-2.276,1.641-3.4,2.479h288.028
			C383.875,46.913,382.739,46.091,381.598,45.271z"/>
	</g>
	<path clip-path="url(#SVGID_2_)" fill="#CCCCCC" d="M240.984,3.307c32.088,0,63.215,6.284,92.514,18.677
		c28.303,11.971,53.721,29.109,75.551,50.938c21.828,21.829,38.967,47.248,50.938,75.549c12.393,29.301,18.676,60.428,18.676,92.516
		v237.678H3.306V240.986c0-32.088,6.284-63.215,18.676-92.516c11.971-28.302,29.109-53.72,50.938-75.549
		c21.829-21.829,47.248-38.967,75.55-50.938C177.771,9.59,208.897,3.307,240.984,3.307 M240.984,0C107.893,0,0,107.892,0,240.986
		V481.97h481.969V240.986C481.969,107.892,374.079,0,240.984,0L240.984,0z"/>
	<linearGradient id="SVGID_5_" gradientUnits="userSpaceOnUse" x1="240.9844" y1="36.1021" x2="240.9844" y2="20.6834">
		<stop  offset="0" style="stop-color:#262626"/>
		<stop  offset="1" style="stop-color:#000000"/>
	</linearGradient>
	<path clip-path="url(#SVGID_2_)" fill="url(#SVGID_5_)" d="M360.161,31.495C325.014,11.457,284.338,0,240.984,0
		s-84.029,11.457-119.177,31.495H360.161z"/>
	<path clip-path="url(#SVGID_2_)" fill="#CCCCCC" d="M240.984,3.307c32.088,0,63.215,6.284,92.514,18.677
		c28.303,11.971,53.721,29.109,75.551,50.938c21.828,21.829,38.967,47.248,50.938,75.549c12.393,29.301,18.676,60.428,18.676,92.516
		v237.678H3.306V240.986c0-32.088,6.284-63.215,18.676-92.516c11.971-28.302,29.109-53.72,50.938-75.549
		c21.829-21.829,47.248-38.967,75.55-50.938C177.771,9.59,208.897,3.307,240.984,3.307 M240.984,0C107.893,0,0,107.892,0,240.986
		V481.97h481.969V240.986C481.969,107.892,374.079,0,240.984,0L240.984,0z"/>
	<linearGradient id="SVGID_6_" gradientUnits="userSpaceOnUse" x1="390.3179" y1="77.7817" x2="390.3179" y2="210.1977">
		<stop  offset="0" style="stop-color:#5E3F2F"/>
		<stop  offset="0.6442" style="stop-color:#4F3529"/>
		<stop  offset="0.9387" style="stop-color:#4F3529"/>
	</linearGradient>
	<path clip-path="url(#SVGID_2_)" fill="url(#SVGID_6_)" d="M454.784,71.72H325.708l0,0h-8.816v291.715h8.816v-282.9h129.221v282.9
		h8.816V90.927C461.032,84.375,458.042,77.966,454.784,71.72z"/>
	<linearGradient id="SVGID_7_" gradientUnits="userSpaceOnUse" x1="390.3179" y1="84.7363" x2="390.3179" y2="80.4801">
		<stop  offset="0" style="stop-color:#4F3529"/>
		<stop  offset="1" style="stop-color:#3F2A22"/>
	</linearGradient>
	<polygon clip-path="url(#SVGID_2_)" fill="url(#SVGID_7_)" points="454.928,80.535 450.52,84.667 325.708,84.667 325.708,80.535 	
		"/>
</g>
<path fill="#006633" d="M288.868,178.445c0,0,7.41-68.395-39.917-70.097c-57.943-5.685-43.743,70.097-43.743,70.097"/>
<path fill="#1D1D1B" d="M205.208,179.078c-0.299,0-0.565-0.212-0.623-0.517c-0.019-0.101-1.878-10.193-1.494-22.567
	c0.356-11.464,2.767-27.298,12.229-37.625c7.781-8.493,19.109-12.078,33.673-10.652c11.206,0.407,20.313,4.571,27.068,12.375
	c9.091,10.502,12.258,25.839,13.313,36.855c1.142,11.901,0.132,21.471,0.122,21.565c-0.037,0.349-0.353,0.598-0.698,0.562
	c-0.348-0.037-0.599-0.351-0.561-0.698c0.01-0.095,1.005-9.559-0.128-21.335c-1.039-10.826-4.142-25.881-13.01-36.123
	c-6.519-7.53-15.324-11.547-26.173-11.937c-0.013-0.001-0.026-0.002-0.039-0.004c-14.151-1.387-25.131,2.059-32.632,10.245
	c-9.195,10.034-11.546,25.542-11.898,36.783c-0.384,12.241,1.454,22.223,1.472,22.321c0.064,0.345-0.162,0.676-0.506,0.74
	C205.286,179.075,205.247,179.078,205.208,179.078z"/>
<path fill="#004C33" d="M240.644,106.875c0,0-10.175,1.759-11.944,4.79c-1.77,3.031,7.609,10.391,7.609,10.391l8.883-3.64
	l-7.169,5.797l5.715,19.03l4.618-35.621L240.644,106.875z"/>
<path fill="#004C33" d="M280.286,151.352c0.946,3.788,0.261,3.16,4.048,5.991c3.788,2.83-0.248,3.009-0.071,5.484
	c0.177,2.478,0.177,2.832-1.852,4.07c-2.029,1.239-3.457,1.593-2.784,3.419c0.671,1.828-1.734,3.482-2.242,4.545
	c-0.244,0.51-2.403,2.084-4.575,3.583h16.059c0,0,2.99-27.645-6.991-48.221C280.841,138.73,279.742,149.177,280.286,151.352z"/>
<linearGradient id="SVGID_8_" gradientUnits="userSpaceOnUse" x1="238.8252" y1="70.3091" x2="266.4125" y2="96.6353">
	<stop  offset="0" style="stop-color:#FFD8BF"/>
	<stop  offset="1" style="stop-color:#EFA57F"/>
</linearGradient>
<ellipse fill="url(#SVGID_8_)" cx="248.951" cy="79.972" rx="24.382" ry="28.376"/>
<path opacity="0.49" fill="#FCEEE8" d="M245.243,51.923c-11.707,2.079-20.674,13.846-20.674,28.049
	c0,13.483,8.083,24.761,18.916,27.65c-0.834-0.39-16.799-8.093-16.799-26.016C226.686,68.941,238.116,57.701,245.243,51.923z"/>
<path fill="#D89577" d="M265.467,73.428v5.68l2.116,1.792l-0.265,5.624c0,0-0.854,12.132-7.143,18.636
	c7.815-4.727,13.157-14.228,13.157-25.188c0-8.252-3.029-15.68-7.862-20.865C265.526,59.255,268.631,67.602,265.467,73.428z"/>
<path d="M248.951,51.597c13.465,0,24.381,12.705,24.381,28.375c0,15.672-10.916,28.376-24.381,28.376
	c-13.466,0-24.382-12.704-24.382-28.376C224.569,64.301,235.485,51.597,248.951,51.597 M248.951,50.004
	c-14.323,0-25.975,13.444-25.975,29.968c0,16.525,11.652,29.969,25.975,29.969s25.974-13.444,25.974-29.969
	C274.925,63.449,263.274,50.004,248.951,50.004L248.951,50.004z"/>
<rect x="230.16" y="73.194" transform="matrix(0.9872 -0.1592 0.1592 0.9872 -8.8857 38.2891)" fill="#B7B1AC" width="8.598" height="2.785"/>
<path d="M239.782,75.896l-9.963,1.606l-0.681-4.225l9.963-1.606L239.782,75.896z M230.438,76.645l8.487-1.369l-0.443-2.749
	l-8.489,1.369L230.438,76.645z"/>
<path fill="#DDDDDD" d="M230.816,74.373c0.148,0.055,0.123,0.443,0.173,0.597c0.052,0.16,0.123,0.515,0.239,0.645
	c0.11,0.124,0.123,0.115,0.151-0.078c0.022-0.145-0.032-0.304-0.015-0.457c0.019-0.166,0.101-0.342,0.104-0.506
	c0.004-0.141-0.144-0.339,0.014-0.383c0.376-0.103,0.528,0.774,0.6,0.97c0.062,0.173,0.125,0.509,0.246,0.667
	c0.187,0.243,0.473,0.022,0.505-0.265c0.021-0.192-0.616-1.446-0.002-1.319c0.314,0.065,0.272,0.495,0.387,0.692
	c0.088,0.152,0.105,0.173,0.282,0.14c0.283-0.053,0.287-0.263,0.331-0.509c0.046-0.269,0.045-0.986,0.371-0.403
	c0.137,0.249,0.337,0.683,0.684,0.506c0.418-0.215,0.566-1.478,1.245-0.947c0.248,0.194,0.484,0.392,0.761,0.564
	c0.229,0.143,0.457,0.356,0.515-0.006c0.06-0.375-0.262-0.58-0.002-0.933c0.222-0.304,0.438-0.254,0.663,0.014
	c0.133,0.159,0.277,0.441,0.356,0.631c0.101,0.239,0.042,0.518,0.244,0.709c0.052-0.017,0.105-0.039,0.156-0.058l-0.341-2.118
	l-8.489,1.369l0.224,1.378C230.318,75.007,230.513,74.26,230.816,74.373z"/>
<rect x="259.281" y="73.691" transform="matrix(-0.8758 -0.4826 0.4826 -0.8758 458.1897 268.056)" fill="#B7B1AC" width="8.597" height="2.784"/>
<path d="M260.193,70.774l8.838,4.871l-2.064,3.749l-8.839-4.871L260.193,70.774z M268.016,75.939l-7.53-4.15l-1.344,2.439
	l7.53,4.149L268.016,75.939z"/>
<path fill="#DDDDDD" d="M267.081,76.11c-0.157,0.001-0.264,0.376-0.363,0.503c-0.103,0.133-0.289,0.444-0.442,0.526
	c-0.146,0.079-0.154,0.066-0.116-0.124c0.029-0.144,0.133-0.275,0.168-0.425c0.037-0.163,0.02-0.356,0.072-0.511
	c0.045-0.134,0.251-0.271,0.117-0.365c-0.32-0.224-0.759,0.55-0.892,0.71c-0.118,0.143-0.29,0.438-0.457,0.546
	c-0.257,0.166-0.453-0.139-0.386-0.419c0.045-0.188,1.066-1.154,0.445-1.241c-0.316-0.045-0.422,0.374-0.598,0.521
	c-0.133,0.113-0.156,0.127-0.312,0.037c-0.249-0.145-0.181-0.344-0.14-0.591c0.046-0.268,0.29-0.944-0.213-0.504
	c-0.214,0.188-0.549,0.53-0.816,0.245c-0.32-0.343-0.035-1.582-0.852-1.311c-0.299,0.099-0.588,0.206-0.906,0.275
	c-0.264,0.058-0.55,0.181-0.483-0.18c0.07-0.373,0.443-0.457,0.317-0.878c-0.107-0.36-0.326-0.386-0.628-0.21
	c-0.18,0.104-0.411,0.322-0.549,0.474c-0.177,0.191-0.213,0.474-0.469,0.585c-0.043-0.033-0.085-0.071-0.128-0.106l1.035-1.88
	l7.53,4.15l-0.674,1.223C267.336,76.876,267.405,76.107,267.081,76.11z"/>
<rect x="222.372" y="78.798" transform="matrix(0.8912 0.4535 -0.4535 0.8912 60.7853 -94.1418)" fill="#3A1E13" width="8.626" height="1.747"/>
<path fill="#2B160E" d="M230.191,82.584l-7.924-4.032l0.913-1.795l7.924,4.033L230.191,82.584z M222.624,78.436l7.452,3.792
	l0.671-1.321l-7.451-3.792L222.624,78.436z"/>
<rect x="266.615" y="78.797" transform="matrix(-0.8912 0.4535 -0.4535 -0.8912 548.5231 27.7994)" fill="#3A1E13" width="8.626" height="1.747"/>
<path fill="#2B160E" d="M266.51,80.79l7.925-4.033l0.912,1.795l-7.925,4.032L266.51,80.79z M274.319,77.115l-7.452,3.792
	l0.673,1.321l7.449-3.792L274.319,77.115z"/>
<path fill="#3A1E13" d="M245.917,88.066h-15.793v-9.091h15.793V88.066z M231.187,87.004h13.669v-6.967h-13.669V87.004z"/>
<path fill="#2B160E" d="M246.05,88.198h-16.058v-9.356h16.058V88.198z M230.257,87.933h15.528v-8.825h-15.528V87.933z
	 M244.989,87.137h-13.935v-7.233h13.935V87.137z M231.319,86.872h13.405v-6.702h-13.405V86.872z"/>
<path fill="#3A1E13" d="M267.452,88.066h-15.793v-9.091h15.793V88.066z M252.72,87.004h13.669v-6.967H252.72V87.004z"/>
<path fill="#2B160E" d="M267.583,88.198h-16.058v-9.356h16.058V88.198z M251.791,87.933h15.528v-8.825h-15.528V87.933z
	 M266.522,87.137h-13.935v-7.233h13.935V87.137z M252.853,86.872h13.404v-6.702h-13.404V86.872z"/>
<rect x="244.456" y="82.646" transform="matrix(-1 0.0036 -0.0036 -1 497.838 166.1383)" fill="#3A1E13" width="8.626" height="1.748"/>
<path fill="#2B160E" d="M244.319,82.53l8.892-0.034l0.007,2.014l-8.891,0.034L244.319,82.53z M252.946,82.764l-8.361,0.031
	l0.005,1.482l8.36-0.031L252.946,82.764z"/>
<path fill="#FFFFFF" d="M263.578,86.524c0.157-0.277,0.282-0.576,0.36-0.896c0.525-2.143-1.021-4.364-3.456-4.961
	c-2.435-0.598-4.836,0.652-5.361,2.794c-0.032,0.127-0.055,0.253-0.071,0.38L263.578,86.524z"/>
<path d="M258.812,83.676c-0.445-0.323-0.542-0.945-0.22-1.389c0.046-0.064,0.109-0.104,0.166-0.153
	c-0.012-0.01-0.021-0.021-0.033-0.03c-0.606-0.441-1.457-0.306-1.897,0.301c-0.441,0.606-0.306,1.456,0.301,1.897
	c0.607,0.44,1.457,0.305,1.897-0.301c0.042-0.057,0.074-0.119,0.105-0.18C259.02,83.791,258.911,83.748,258.812,83.676z"/>
<circle fill="#C9BA63" stroke="#000000" stroke-miterlimit="10" cx="289.287" cy="65.343" r="13.42"/>
<path fill="#FFFFFF" d="M234.997,86.524c-0.157-0.277-0.282-0.576-0.361-0.896c-0.526-2.143,1.021-4.364,3.457-4.961
	c2.435-0.598,4.835,0.652,5.361,2.794c0.032,0.127,0.055,0.253,0.071,0.38L234.997,86.524z"/>
<path d="M239.693,83.513c0.494-0.24,0.7-0.834,0.461-1.328c-0.034-0.071-0.089-0.122-0.137-0.18
	c0.014-0.007,0.025-0.018,0.038-0.024c0.675-0.327,1.488-0.044,1.815,0.63c0.327,0.675,0.044,1.488-0.63,1.815
	c-0.675,0.327-1.488,0.044-1.814-0.631c-0.031-0.064-0.052-0.13-0.072-0.195C239.469,83.589,239.584,83.566,239.693,83.513z"/>
<path fill="#B7B1AC" d="M248.951,98.602c1.25,0.965,3.993,0.855,3.993,0.855s2.458-0.241,1.996-1.974
	c-0.46-1.733-1.601-4.016-2.808-4.147c-1.207-0.132-3.181,0.175-3.181,0.175s-1.975-0.307-3.182-0.175
	c-1.207,0.131-2.348,2.414-2.808,4.147c-0.461,1.733,1.996,1.974,1.996,1.974S247.701,99.567,248.951,98.602z"/>
<path d="M251.437,93.303c0.246,0,0.483,0.01,0.696,0.034c1.207,0.131,2.347,2.414,2.808,4.147c0.461,1.733-1.996,1.974-1.996,1.974
	s-0.094,0.004-0.256,0.004c-0.709,0-2.719-0.073-3.737-0.859c-1.019,0.786-3.027,0.859-3.738,0.859
	c-0.161,0-0.256-0.004-0.256-0.004s-2.457-0.241-1.996-1.974c0.46-1.733,1.602-4.016,2.808-4.147
	c0.213-0.023,0.45-0.034,0.696-0.034c1.146,0,2.486,0.208,2.486,0.208S250.29,93.303,251.437,93.303 M251.437,92.242L251.437,92.242
	c-0.986,0-2.078,0.14-2.485,0.197c-0.408-0.057-1.5-0.197-2.486-0.197c-0.301,0-0.573,0.014-0.811,0.039
	c-1.958,0.214-3.259,3.2-3.719,4.929c-0.243,0.914,0.032,1.575,0.305,1.969c0.765,1.102,2.312,1.306,2.614,1.335l0.03,0.004
	l0.032,0.001c0,0,0.109,0.004,0.298,0.004c0.935,0,2.529-0.099,3.738-0.684c1.208,0.585,2.802,0.684,3.737,0.684
	c0.188,0,0.298-0.004,0.298-0.004l0.03-0.001l0.032-0.004c0.303-0.029,1.851-0.233,2.614-1.335c0.273-0.395,0.547-1.055,0.304-1.969
	c-0.459-1.729-1.76-4.715-3.718-4.929C252.01,92.255,251.737,92.242,251.437,92.242L251.437,92.242L251.437,92.242z"/>
<path fill="#DDDDDD" d="M254.94,97.483c-0.46-1.733-1.601-4.016-2.808-4.147c-1.207-0.132-3.181,0.175-3.181,0.175
	s-1.975-0.307-3.182-0.175c-1.121,0.122-2.184,2.098-2.698,3.768c0.639-0.371,0.742-0.934,1.228-1.473
	c0.183-0.204,0.408-0.292,0.577-0.531c0.142-0.2,0.177-0.401,0.378-0.529c0.038,0.499-0.583,1.088-0.347,1.553
	c0.232-0.29,0.231-0.729,0.397-1.062c0.149-0.302,0.443-0.424,0.58-0.704c0.032,0.834-0.421,1.588-0.394,2.417
	c0.381-0.094,0.476-1.088,0.625-1.43c0.196-0.451,0.565-0.763,0.782-1.21c0.301,0.69-0.023,1.734-0.121,2.452
	c-0.062,0.463,0.054,0.892-0.013,1.332c0.314-0.717,0.267-1.505,0.537-2.146c0.162-0.385,0.175-1.195,0.606-1.38
	c0.25,0.629-0.082,1.289-0.077,1.937c0.002,0.333-0.058,0.916,0.189,1.157c0.364-0.615,0.079-1.262,0.084-1.899
	c0.004-0.503,0.354-0.402,0.571-0.754c0.053-0.085,0.049-0.329,0.092-0.437c0.375,0.077,0.3,1.223,0.302,1.559
	c0.002,0.634,0.188,1.012,0.736,1.346c0.091-0.296,0.187-0.744,0.105-1.051c-0.077-0.292-0.313-0.403-0.405-0.665
	c-0.075-0.214-0.028-1.132,0.17-1.248c0.368-0.218,0.505,0.693,0.641,0.937c0.281,0.506,0.616,0.885,0.833,1.451
	c-0.01-0.46-0.047-0.87-0.189-1.307c-0.088-0.272-0.203-0.447-0.165-0.75c0.656-0.373,0.736,0.302,0.839,0.765
	c0.165,0.731,0.752,1.009,1.063,1.648c-0.016-0.658-0.088-1.109-0.39-1.686c-0.085-0.164-0.681-1.05-0.153-1.005
	c0.314,0.027,0.759,0.918,0.923,1.138c0.21,0.28,0.415,0.616,0.646,0.896c0.064-0.191-0.277-0.558-0.104-0.697
	c0.273-0.219,0.337,0.676,0.364,0.753c0.117,0.346,0.559,1.028,0.957,1.009C254.94,97.487,254.94,97.485,254.94,97.483z"/>
<path d="M259.54,42.122c-2.727,0-5.407,0.568-7.972,1.689c-1.568-0.406-7.699-1.885-13.889-1.885c-4.228,0-7.604,0.702-10.036,2.086
	c-8.014,4.559-13.891,22.113-5.589,37.022l1.335,2.396v-7.89c-0.263,0.707-0.496,1.402-0.692,2.033
	c-5.884-13.247-0.859-27.815,5.996-31.716c2.108-1.199,5.132-1.807,8.986-1.807c6.727,0,13.627,1.889,13.696,1.907l0.374,0.104
	l0.353-0.162c2.393-1.097,4.895-1.654,7.439-1.654c11.367,0,20.519,10.614,20.519,19.402c0,7.606-3.06,11.521-5.014,13.244
	c-0.029-0.25-0.071-0.491-0.12-0.729v3.465c1.761-1.104,7.258-5.395,7.258-15.98C282.183,53.897,272.083,42.122,259.54,42.122z"/>
<path fill="#B7B1AC" d="M246.05,54.622c0,0,6.006,13.935,23.657,16.059c0,0,5.087,3.107,4.224,8.294c0,0,7.189-3.517,7.189-15.328
	c0-11.812-14.997-25.349-29.462-18.713c0,0-15.793-4.379-23.491,0c-7.697,4.38-13.159,21.266-5.186,35.583
	c0,0,3.226-9.607,5.372-11.935C230.499,66.256,231.551,56.082,246.05,54.622z"/>
<path fill="#DDDDDD" d="M250.106,45.64c0,0-38.012-11.917-27.409,31.932l-0.251-10.298l1.476,2.92l-0.945-9.327
	c0,0,0.059-17.04,22.267-14.208l-2.742-1.504L250.106,45.64z"/>
<path fill="#DDDDDD" d="M252.515,45.719c0,0,12.866-2.721,18.414,4.285c5.546,7.006,13.859,12.66,3.996,26.157l2.081-8.269
	c0,0,0.664-6.769-7.165-16.987l-4.446-0.901l1.725-0.758l-8.427-1.726l1.483-0.796h-9.513L252.515,45.719z"/>
<path fill="#9B9692" d="M247.942,54.754c0,0,7.167,13.271,21.765,14.201L247.942,54.754z"/>
<path fill="#9B9692" d="M244.319,54.09c0,0-14.757,1.726-17.844,14.865C226.475,68.955,226.229,52.1,244.319,54.09z"/>
<path fill="#004C33" d="M260.304,108.369c0,0,10.174,1.759,11.944,4.791c1.771,3.031-7.608,10.391-7.608,10.391l-8.883-3.64
	l7.169,5.797l-5.715,19.029l-4.618-35.62L260.304,108.369z"/>
<path fill-rule="evenodd" clip-rule="evenodd" d="M276.838,77.287c-0.1-0.019-0.198-0.037-0.299-0.055
	c-0.602-0.032-1.16,0.091-1.707,0.292c-0.467,0.169-1.045,0.438-1.279,0.896c-0.13,0.254-0.148,0.708-0.22,1.027
	c-0.011,0.055-0.019,0.109-0.03,0.164c0.402-0.234,1.74-0.93,3.463-0.979c0.079-0.432,0.153-0.861,0.217-1.288
	C276.956,77.311,276.86,77.324,276.838,77.287z"/>
<path d="M247.228,104.929c-0.116,0-0.233-0.005-0.352-0.018c-0.382-0.035-0.718-0.149-1.042-0.26
	c-0.285-0.097-0.553-0.188-0.826-0.216c-0.262-0.026-0.452-0.26-0.426-0.521c0.026-0.261,0.26-0.451,0.521-0.426
	c0.381,0.039,0.715,0.153,1.037,0.263c0.285,0.097,0.554,0.188,0.825,0.214c0.477,0.046,0.953-0.045,1.457-0.14l0.3-0.055
	c1.261-0.226,3.376-0.922,3.304-2.103c-0.016-0.262,0.183-0.487,0.445-0.504c0.263-0.019,0.487,0.185,0.503,0.445
	c0.133,2.174-3.093,2.919-4.085,3.096l-0.292,0.054C248.158,104.843,247.706,104.929,247.228,104.929z"/>
<path fill="#BE1622" d="M316.173,178.443c0,0,4.952-68.394-26.671-70.096c-38.716-5.684-29.228,70.096-29.228,70.096"/>
<path fill="#1D1D1B" d="M260.274,179.077c-0.2,0-0.377-0.212-0.416-0.517c-0.012-0.101-1.255-10.194-0.998-22.567
	c0.238-11.464,1.849-27.298,8.172-37.625c5.199-8.493,12.768-12.078,22.5-10.652c7.487,0.407,13.572,4.57,18.085,12.375
	c6.074,10.502,8.19,25.839,8.897,36.855c0.761,11.9,0.088,21.471,0.081,21.566c-0.025,0.347-0.235,0.597-0.468,0.562
	c-0.231-0.038-0.399-0.351-0.374-0.698c0.007-0.094,0.673-9.558-0.085-21.335c-0.694-10.826-2.768-25.881-8.692-36.124
	c-4.356-7.53-10.24-11.546-17.488-11.937c-0.009-0.001-0.018-0.002-0.026-0.002c-9.456-1.389-16.793,2.058-21.805,10.243
	c-6.144,10.035-7.714,25.543-7.95,36.784c-0.256,12.241,0.972,22.222,0.984,22.321c0.042,0.345-0.109,0.675-0.338,0.739
	C260.326,179.074,260.3,179.077,260.274,179.077z"/>
<linearGradient id="SVGID_9_" gradientUnits="userSpaceOnUse" x1="279.1968" y1="78.6279" x2="302.3636" y2="100.7357">
	<stop  offset="0" style="stop-color:#FFD8BF"/>
	<stop  offset="1" style="stop-color:#EFA57F"/>
</linearGradient>
<ellipse fill="url(#SVGID_9_)" cx="287.7" cy="86.743" rx="21.377" ry="22.942"/>
<path fill="#D89577" d="M302.182,81.451v4.592l1.855,1.449l-0.231,4.548c0,0-0.75,9.811-6.264,15.068
	c6.853-3.823,11.535-11.505,11.535-20.365c0-6.673-2.655-12.678-6.894-16.87C302.233,69.992,304.957,76.74,302.182,81.451z"/>
<path d="M287.702,63.8c11.806,0,21.376,10.272,21.376,22.943s-9.57,22.942-21.376,22.942c-11.807,0-21.379-10.271-21.379-22.942
	S275.895,63.8,287.702,63.8 M287.702,62.512c-12.56,0-22.775,10.87-22.775,24.23c0,13.36,10.216,24.23,22.775,24.23
	c12.557,0,22.772-10.87,22.772-24.23C310.474,73.382,300.258,62.512,287.702,62.512L287.702,62.512z"/>
<path d="M286.191,107.012c-0.104,0-0.206-0.005-0.312-0.014c-0.338-0.03-0.634-0.122-0.92-0.212
	c-0.248-0.078-0.481-0.152-0.719-0.173c-0.261-0.024-0.453-0.257-0.429-0.518c0.023-0.262,0.259-0.453,0.517-0.429
	c0.338,0.031,0.631,0.122,0.915,0.212c0.248,0.078,0.483,0.151,0.718,0.173c0.416,0.035,0.831-0.037,1.272-0.113l0.263-0.045
	c1.404-0.231,2.893-0.83,2.842-1.601c-0.018-0.262,0.181-0.488,0.442-0.506c0.259-0.018,0.487,0.181,0.507,0.442
	c0.122,1.84-2.753,2.456-3.638,2.603l-0.255,0.043C287.008,106.942,286.612,107.012,286.191,107.012z"/>
<rect x="271.974" y="81.632" transform="matrix(0.9872 -0.1592 0.1592 0.9872 -9.6672 44.9331)" fill="#E8D972" width="7.148" height="2.315"/>
<path d="M279.972,83.878l-8.282,1.335l-0.566-3.513l8.282-1.335L279.972,83.878z M272.206,84.501l7.055-1.138l-0.368-2.286
	l-7.057,1.138L272.206,84.501z"/>
<path fill="#FCEEAC" d="M272.52,82.612c0.122,0.045,0.102,0.369,0.143,0.496c0.043,0.133,0.104,0.428,0.199,0.536
	c0.092,0.103,0.103,0.095,0.126-0.065c0.019-0.121-0.026-0.252-0.013-0.38c0.017-0.137,0.084-0.284,0.087-0.42
	c0.003-0.118-0.12-0.282,0.011-0.318c0.313-0.085,0.439,0.644,0.498,0.806c0.053,0.145,0.104,0.424,0.205,0.555
	c0.155,0.202,0.394,0.018,0.42-0.22c0.018-0.16-0.512-1.202-0.001-1.097c0.259,0.054,0.226,0.411,0.321,0.576
	c0.073,0.126,0.087,0.144,0.234,0.116c0.234-0.044,0.237-0.218,0.274-0.423c0.039-0.223,0.038-0.82,0.309-0.335
	c0.113,0.207,0.28,0.568,0.567,0.42c0.349-0.178,0.472-1.228,1.035-0.787c0.207,0.161,0.403,0.325,0.633,0.469
	c0.19,0.119,0.38,0.295,0.429-0.005c0.049-0.312-0.219-0.482-0.003-0.776c0.186-0.252,0.364-0.211,0.551,0.011
	c0.111,0.132,0.231,0.367,0.298,0.525c0.083,0.199,0.034,0.431,0.201,0.589c0.045-0.014,0.089-0.032,0.131-0.047l-0.283-1.761
	l-7.057,1.138l0.185,1.146C272.105,83.14,272.268,82.519,272.52,82.612z"/>
<rect x="296.182" y="82.045" transform="matrix(-0.8758 -0.4827 0.4827 -0.8758 522.1143 300.7647)" fill="#E8D972" width="7.148" height="2.315"/>
<path d="M296.94,79.621l7.347,4.049l-1.717,3.116l-7.347-4.049L296.94,79.621z M303.445,83.915l-6.261-3.45l-1.117,2.027l6.26,3.449
	L303.445,83.915z"/>
<path fill="#FCEEAC" d="M302.666,84.057c-0.131,0.001-0.219,0.313-0.302,0.419c-0.085,0.111-0.241,0.369-0.368,0.438
	c-0.121,0.066-0.129,0.055-0.097-0.103c0.024-0.12,0.11-0.229,0.14-0.354c0.032-0.135,0.017-0.296,0.061-0.425
	c0.037-0.111,0.209-0.225,0.097-0.303c-0.267-0.186-0.631,0.458-0.74,0.59c-0.099,0.119-0.241,0.364-0.38,0.454
	c-0.215,0.138-0.377-0.115-0.321-0.349c0.037-0.156,0.887-0.958,0.37-1.032c-0.264-0.037-0.351,0.311-0.496,0.434
	c-0.111,0.095-0.13,0.106-0.26,0.03c-0.206-0.121-0.15-0.285-0.116-0.491c0.038-0.223,0.242-0.785-0.177-0.419
	c-0.178,0.155-0.456,0.44-0.678,0.204c-0.267-0.285-0.029-1.315-0.708-1.09c-0.249,0.083-0.49,0.17-0.755,0.229
	c-0.219,0.048-0.456,0.15-0.4-0.149c0.059-0.31,0.368-0.38,0.264-0.729c-0.089-0.3-0.271-0.321-0.522-0.175
	c-0.149,0.087-0.341,0.268-0.456,0.394c-0.146,0.159-0.178,0.394-0.391,0.486c-0.035-0.027-0.07-0.059-0.105-0.088l0.86-1.562
	l6.261,3.45l-0.562,1.017C302.877,84.693,302.935,84.054,302.666,84.057z"/>
<path fill="#FFFFFF" d="M272.658,92.42c-0.127-0.226-0.229-0.468-0.294-0.729c-0.426-1.739,0.831-3.544,2.809-4.03
	s3.929,0.53,4.355,2.27c0.025,0.104,0.044,0.206,0.058,0.309L272.658,92.42z"/>
<path fill="#36A9E1" d="M275.895,90.106c0.361-0.263,0.441-0.768,0.18-1.128c-0.038-0.051-0.09-0.084-0.137-0.124
	c0.011-0.008,0.019-0.018,0.027-0.024c0.493-0.358,1.184-0.248,1.542,0.245c0.358,0.493,0.248,1.183-0.245,1.541
	s-1.184,0.249-1.541-0.245c-0.033-0.046-0.059-0.096-0.084-0.146C275.727,90.199,275.815,90.164,275.895,90.106z"/>
<path d="M272.515,92.488c-0.028-0.06-0.673-1.456-0.069-2.854c0.415-0.964,1.316-1.678,2.678-2.124
	c3.913-0.712,4.611,2.665,4.618,2.698l-0.312,0.061c-0.024-0.127-0.652-3.104-4.228-2.453c-1.251,0.411-2.088,1.065-2.465,1.943
	c-0.547,1.268,0.059,2.579,0.064,2.592L272.515,92.488z"/>
<path d="M273.196,88.979c-0.111-0.188-0.266-0.36-0.43-0.542c-0.136-0.151-0.276-0.307-0.393-0.476
	c-0.057-0.081-0.111-0.164-0.167-0.249c-0.108-0.167-0.222-0.34-0.341-0.481l0.241-0.205c0.134,0.156,0.251,0.338,0.366,0.513
	c0.053,0.082,0.106,0.163,0.16,0.241c0.105,0.153,0.232,0.295,0.368,0.444c0.167,0.186,0.339,0.377,0.468,0.592L273.196,88.979z"/>
<path d="M276.032,87.66l-0.312-0.052c0.036-0.216,0.029-0.447,0.021-0.691c-0.006-0.203-0.012-0.413,0.008-0.618
	c0.009-0.098,0.021-0.198,0.034-0.298c0.024-0.198,0.05-0.401,0.049-0.586h0.317c0,0.205-0.025,0.418-0.053,0.625
	c-0.012,0.097-0.023,0.195-0.032,0.29c-0.019,0.185-0.013,0.375-0.007,0.578C276.065,87.156,276.073,87.414,276.032,87.66z"/>
<path d="M277.994,88.035l-0.194-0.25c0.171-0.135,0.322-0.31,0.481-0.495c0.132-0.154,0.27-0.313,0.424-0.451
	c0.072-0.066,0.149-0.133,0.228-0.199c0.15-0.128,0.306-0.261,0.43-0.397l0.233,0.213c-0.136,0.15-0.3,0.29-0.457,0.425
	c-0.076,0.064-0.151,0.128-0.223,0.193c-0.139,0.125-0.262,0.269-0.395,0.422C278.359,87.685,278.191,87.88,277.994,88.035z"/>
<path fill="#FFFFFF" d="M300.687,91.473c0.129-0.226,0.23-0.468,0.294-0.729c0.427-1.74-0.83-3.545-2.808-4.03
	c-1.978-0.486-3.928,0.53-4.354,2.27c-0.025,0.103-0.044,0.206-0.058,0.309L300.687,91.473z"/>
<path fill="#36A9E1" d="M297.452,89.159c-0.362-0.263-0.441-0.768-0.179-1.128c0.037-0.052,0.088-0.084,0.134-0.124
	c-0.009-0.008-0.017-0.018-0.026-0.025c-0.493-0.357-1.184-0.248-1.541,0.245c-0.357,0.493-0.249,1.183,0.244,1.541
	c0.493,0.358,1.184,0.249,1.541-0.244c0.034-0.047,0.061-0.097,0.086-0.146C297.621,89.251,297.531,89.217,297.452,89.159z"/>
<path d="M300.832,91.54c0.027-0.059,0.671-1.455,0.069-2.853c-0.416-0.964-1.316-1.678-2.679-2.123
	c-3.912-0.713-4.61,2.665-4.617,2.698l0.312,0.061c0.024-0.127,0.652-3.104,4.229-2.453c1.249,0.41,2.086,1.065,2.464,1.942
	c0.547,1.269-0.059,2.579-0.064,2.593L300.832,91.54z"/>
<path d="M300.15,88.031c0.11-0.188,0.267-0.359,0.43-0.542c0.136-0.15,0.276-0.307,0.395-0.476c0.055-0.081,0.11-0.165,0.164-0.248
	c0.109-0.167,0.222-0.34,0.343-0.481l-0.242-0.205c-0.133,0.156-0.251,0.337-0.365,0.513c-0.054,0.082-0.106,0.163-0.16,0.241
	c-0.106,0.153-0.234,0.294-0.368,0.444c-0.168,0.186-0.341,0.377-0.468,0.592L300.15,88.031z"/>
<path d="M297.314,86.712l0.312-0.052c-0.036-0.216-0.028-0.447-0.021-0.692c0.007-0.203,0.014-0.413-0.007-0.618
	c-0.01-0.098-0.022-0.198-0.034-0.298c-0.025-0.198-0.051-0.402-0.051-0.586l-0.316,0c0,0.205,0.026,0.419,0.053,0.626
	c0.012,0.097,0.024,0.194,0.033,0.29c0.018,0.185,0.012,0.375,0.005,0.578C297.281,86.208,297.273,86.466,297.314,86.712z"/>
<path d="M295.353,87.087l0.194-0.25c-0.172-0.135-0.322-0.31-0.481-0.496c-0.134-0.154-0.27-0.313-0.424-0.451
	c-0.072-0.066-0.15-0.133-0.229-0.199c-0.15-0.128-0.306-0.261-0.43-0.397l-0.234,0.213c0.138,0.15,0.301,0.29,0.459,0.425
	c0.075,0.064,0.15,0.128,0.223,0.193c0.138,0.124,0.263,0.269,0.395,0.422C294.989,86.738,295.156,86.933,295.353,87.087z"/>
<path d="M288.262,97.527c-0.356,0-0.714-0.05-1.027-0.093c-0.229-0.032-0.443-0.062-0.624-0.07l-0.109-0.005
	c-1.105-0.051-2.619-0.12-3.364-1.028c-0.35-0.427-0.476-0.974-0.377-1.625c0.04-0.259,0.28-0.436,0.542-0.398
	c0.259,0.041,0.437,0.283,0.397,0.542c-0.058,0.379-0.001,0.666,0.173,0.879c0.477,0.581,1.798,0.642,2.672,0.682l0.111,0.005
	c0.224,0.01,0.459,0.043,0.71,0.078c0.833,0.116,1.443,0.169,1.713-0.203c0.099-0.136,0.127-0.292,0.085-0.477
	c-0.072-0.314-0.347-0.656-0.669-0.83c-0.23-0.125-0.316-0.414-0.191-0.644c0.125-0.231,0.413-0.317,0.644-0.192
	c0.562,0.305,1.012,0.876,1.143,1.455c0.104,0.454,0.02,0.885-0.241,1.247C289.457,97.387,288.86,97.527,288.262,97.527z"/>
<path d="M277.423,58.823c5.847,0,11.742,1.636,11.742,1.636c2.22-1.019,4.452-1.471,6.621-1.471c9.71,0,18.13,9.08,18.13,17.19
	c0,9.806-5.896,12.804-6.035,12.873c0.007-0.008,0.012-0.016,0.019-0.024c0.361-0.483,0.49-0.439,0.62-0.957
	c0.095-0.369,0.046-0.987-0.007-1.36c-0.18-1.26-0.654-2.56-1.017-3.779c-0.403-1.359-0.986-1.895-2.178-2.629
	c-2.02-1.248-3.823-1.758-4.678-4.219c-0.536-1.542-0.889-2.494-2.216-3.632c-1.069-0.918-2.251-1.861-3.609-2.29
	c-2.444-0.77-5.132-0.718-7.664-0.847c-2.006-0.104-4.077-0.198-6.11-0.198c-0.511,0-1.019,0.006-1.523,0.019
	c-1.063,0.028-1.596,0.191-2.398,0.872c-0.859,0.729-1.578,1.576-2.385,2.356c-1.889,1.826-4.378,2.915-6.25,4.762
	c-1.026,1.013-1.892,2.328-2.151,3.767c-0.226,1.249,0.242,2.619-0.042,3.852c-0.176,0.761-0.801,1.245-1.021,1.958
	c-0.2,0.65-0.073,1.46-0.072,2.135c0,0.394-0.062,0.879-0.06,1.328c-0.04,0.118-0.062,0.185-0.062,0.185
	c-6.698-12.027-2.109-26.212,4.355-29.891C271.588,59.232,274.5,58.823,277.423,58.823 M277.423,57.556
	c-3.618,0-6.517,0.606-8.618,1.801c-3.597,2.047-6.559,6.899-7.729,12.664c-1.319,6.498-0.292,13.226,2.893,18.945l1.398,2.51
	l0.91-2.725l0.061-0.174l0.069-0.204l-0.001-0.215c-0.001-0.189,0.014-0.412,0.028-0.626c0.015-0.229,0.031-0.466,0.03-0.695
	c0-0.215-0.01-0.43-0.021-0.638c-0.021-0.405-0.042-0.864,0.037-1.124c0.048-0.153,0.177-0.344,0.327-0.566
	c0.254-0.376,0.57-0.845,0.717-1.479c0.191-0.834,0.125-1.659,0.064-2.388c-0.045-0.56-0.088-1.088-0.01-1.524
	c0.186-1.035,0.823-2.132,1.795-3.09c0.863-0.852,1.891-1.54,2.979-2.268c1.107-0.74,2.249-1.505,3.263-2.484
	c0.32-0.31,0.624-0.626,0.917-0.932c0.473-0.492,0.918-0.957,1.404-1.37c0.549-0.464,0.79-0.549,1.613-0.571
	c0.473-0.013,0.975-0.019,1.49-0.019c2.061,0,4.201,0.101,6.046,0.195c0.473,0.025,0.951,0.042,1.433,0.061
	c2.008,0.076,4.084,0.154,5.914,0.73c1.148,0.362,2.237,1.244,3.166,2.042c1.056,0.906,1.328,1.602,1.844,3.086
	c0.844,2.428,2.491,3.346,4.086,4.233c0.367,0.204,0.747,0.416,1.125,0.649c1.021,0.63,1.339,0.939,1.629,1.913
	c0.086,0.291,0.178,0.585,0.271,0.882c0.287,0.91,0.582,1.851,0.705,2.715c0.058,0.405,0.056,0.767,0.032,0.872
	c-0.003,0.014-0.005,0.025-0.009,0.035c-0.008,0.009-0.017,0.019-0.026,0.028c-0.085,0.093-0.214,0.232-0.371,0.442l-0.014,0.018
	l-0.014,0.02l-3.171,4.256l4.761-2.376c0.274-0.137,6.734-3.48,6.734-14.007c0-4.257-2.168-8.944-5.799-12.538
	c-3.802-3.762-8.758-5.92-13.597-5.92c-2.3,0-4.562,0.471-6.728,1.399C287.55,58.735,282.51,57.556,277.423,57.556L277.423,57.556z"
	/>
<path fill="#E8D972" d="M289.166,60.458c0,0-13.267-3.68-19.733,0c-6.465,3.679-11.054,17.863-4.355,29.891
	c0,0,2.709-8.071,4.512-10.026c0.488-0.53,0.912-1.546,1.508-2.768c1.319-0.586,2.578-1.348,3.576-2.074
	c1.229-0.892,2.502-1.949,3.989-2.432c0.924-0.299,1.463-0.201,2.294-0.74c0.562-0.364,1.099-0.607,1.682-0.893
	c0.876-0.428,1.978-0.585,2.788-1.045c2.072,3.343,7.688,10.365,18.902,11.714c0,0,4.272,2.611,3.549,6.968
	c0,0,6.04-2.955,6.04-12.876C313.917,66.255,301.318,54.884,289.166,60.458z"/>
<path fill="#FCEEAC" d="M264.645,88.229c-0.992-2.61-1.268-5.582-1.268-8.406c0-2.432-0.531-5.13,0.84-7.218
	c1.425-2.171,1.721-4.09,2.225-6.569c0.37-1.819,0.988-3.764,2.538-4.901c1.781-1.308,4.049-1.085,6.095-1.42
	c1.438-0.235,3.219-0.649,4.668-0.424c1.422,0.221,2.408,0.84,3.91,0.851c1.448,0.012,1.608,0.112,2.72,0.608
	c0.705,0.314,1.598,0.067,2.219,0.554c-1.956,0.77-5.284-0.089-7.373-0.316c-2.639-0.287-4.988,0.927-7.159,2.312
	c0.019-0.686,0.498-1.167,1.01-1.588c-0.906,0.457-2.08,0.89-2.832,1.597c-0.667,0.628-1.16,1.603-1.76,2.324
	c-1.246,1.491-2.506,2.708-3.403,4.461c-1.347,2.631-2.175,6.188-2.218,9.152c-0.03,2.068-1.559,4.654-0.739,6.661"/>
<path fill="#FCEEAC" d="M292.946,61.09c2.571-0.261,4.765-0.655,7.266,0.101c2.741,0.828,4.437,2.777,6.464,4.755
	c1.819,1.777,3.967,4.133,4.739,6.607c0.682,2.185,0.592,4.679,0.114,6.883c-0.031-1.437-0.546-3.266-0.916-4.668
	c-0.349-1.32-0.844-2.687-1.512-3.884c-0.727-1.301-1.835-2.784-2.999-3.76c-1.313-1.1-3.098-1.216-4.399-2.24
	c1.815-0.604-1.427-2.259-2.091-2.555c-2.217-0.989-4.456-1.347-6.878-1.345"/>
<path fill="#C9BA63" d="M286.61,69.538c0.581,1.602,1.73,3.25,2.855,4.574c1.534,1.807,3.218,2.744,5.427,3.562
	c2.993,1.11,5.994,1.895,9.246,1.661c-1.036-0.354-2.447-0.257-3.579-0.637c-0.977-0.327-1.868-1.012-2.723-1.563
	c-1.623-1.047-3.234-2.42-4.158-4.087c0.013,0.528-0.06,1.04,0.131,1.523c-1.639-1.089-2.715-2.833-4.307-3.962
	c-0.866-0.614-1.943-1.015-2.683-1.706"/>
<g>
	<path fill="#FFFFFF" d="M340.131,21.343v154h-157v-154H340.131 M346.131,15.343h-169v166h169V15.343L346.131,15.343z"/>
</g>
</svg>
