<?xml version="1.0" encoding="utf-8"?>
<!-- Generator: Adobe Illustrator 15.0.0, SVG Export Plug-In  -->
<!DOCTYPE svg PUBLIC "-//W3C//DTD SVG 1.1//EN" "http://www.w3.org/Graphics/SVG/1.1/DTD/svg11.dtd" [
	<!ENTITY ns_flows "http://ns.adobe.com/Flows/1.0/">
]>
<svg version="1.1"
	 xmlns="http://www.w3.org/2000/svg" xmlns:xlink="http://www.w3.org/1999/xlink" xmlns:a="http://ns.adobe.com/AdobeSVGViewerExtensions/3.0/"
	 x="0px" y="0px" width="25px" height="25px" viewBox="-0.105 -1.914 25 25"
	 overflow="visible" enable-background="new -0.105 -1.914 25 25" xml:space="preserve">
<defs>
</defs>
<path fill="#025274" d="M13.21,20.556l11.53-14.746L12.682,0L12.51,0.357l-0.26-0.299l-0.116,0.101L12.058,0L0,5.811l11.67,14.924
	l0.168-0.131l0.328,0.569l0.344-0.197l0.344,0.197L13.21,20.556z M16.902,7.983L13.811,2.01l6.122,5.305l-6.022,10.438L16.902,7.983
	z M12.51,19.621L8.972,8.061l3.539-6.84l3.539,6.84L12.51,19.621z M8.119,7.983l2.99,9.771L5.087,7.315l6.122-5.305L8.119,7.983z
	 M16.042,15.646l4.904-8.501l-5.93-5.139l8.491,4.091L16.042,15.646z M1.231,6.097l9.123-4.396l-6.28,5.443l5.694,9.87L1.231,6.097z
	"/>
</svg>
