<?xml version="1.0" encoding="utf-8"?>
<!-- Generator: Adobe Illustrator 15.0.0, SVG Export Plug-In  -->
<!DOCTYPE svg PUBLIC "-//W3C//DTD SVG 1.1//EN" "http://www.w3.org/Graphics/SVG/1.1/DTD/svg11.dtd" [
	<!ENTITY ns_flows "http://ns.adobe.com/Flows/1.0/">
]>
<svg version="1.1"
	 xmlns="http://www.w3.org/2000/svg" xmlns:xlink="http://www.w3.org/1999/xlink" xmlns:a="http://ns.adobe.com/AdobeSVGViewerExtensions/3.0/"
	 x="0px" y="0px" width="25px" height="25px" viewBox="0 -0.997 25 25" overflow="visible" enable-background="new 0 -0.997 25 25"
	 xml:space="preserve">
<defs>
</defs>
<path fill="#025274" d="M23.422,8.881l-1.35-6.7C21.916,1.454,21.032,0.052,19.268,0h-6.698h-6.7
	c-1.817,0.052-2.7,1.454-2.857,2.181l-1.297,6.7C0.885,9.036,0,9.867,0,10.75v5.558c0,0.829,0.727,1.504,1.04,1.763v4.052
	c0.571,0.52,1.142,0.883,1.869,0.883s1.506-0.363,1.974-0.883v-3.894l3.479,0.26h4.207h4.205l3.48-0.26v3.894
	c0.468,0.52,1.245,0.883,1.973,0.883c0.727,0,1.299-0.363,1.817-0.883v-4.052c0.363-0.259,1.092-0.934,1.092-1.763V10.75
	C25.137,9.867,24.253,9.035,23.422,8.881z M3.116,13.606c-0.947,0-1.713-0.793-1.713-1.766c0-0.977,0.766-1.765,1.713-1.765
	s1.714,0.789,1.714,1.765C4.831,12.813,4.062,13.606,3.116,13.606z M18.957,16.514l-3.999,0.208h-2.389h-2.39l-4.051-0.208v-0.778
	h6.441h6.388V16.514z M19.009,14.75h-6.439h-0.052H6.128v-0.987h6.389h0.052h6.439V14.75z M6.128,12.725v-0.728l4.051-0.259h2.39
	h2.389l3.999,0.259v0.728h-6.388H6.128z M19.892,7.841l-7.322-0.31l-7.323,0.31C3.947,7.895,3.272,7.477,3.429,6.283l0.363-2.024
	c0.468-2.079,2.699-2.39,4.984-2.39h3.792h3.791c2.285,0,4.518,0.311,4.933,2.39l0.364,2.024
	C21.864,7.477,21.189,7.895,19.892,7.841z M21.916,13.606c-0.945,0-1.714-0.793-1.714-1.766c0-0.977,0.769-1.765,1.714-1.765
	c0.947,0,1.715,0.789,1.715,1.765C23.631,12.813,22.863,13.606,21.916,13.606z"/>
</svg>
