<?xml version="1.0" encoding="utf-8"?>
<!-- Generator: Adobe Illustrator 15.0.0, SVG Export Plug-In  -->
<!DOCTYPE svg PUBLIC "-//W3C//DTD SVG 1.1//EN" "http://www.w3.org/Graphics/SVG/1.1/DTD/svg11.dtd" [
	<!ENTITY ns_flows "http://ns.adobe.com/Flows/1.0/">
]>
<svg version="1.1"
	 xmlns="http://www.w3.org/2000/svg" xmlns:xlink="http://www.w3.org/1999/xlink" xmlns:a="http://ns.adobe.com/AdobeSVGViewerExtensions/3.0/"
	 x="0px" y="0px" width="25px" height="25px" viewBox="-2.666 0 25 25" overflow="visible" enable-background="new -2.666 0 25 25"
	 xml:space="preserve">
<defs>
</defs>
<path fill="#025274" d="M9.878,17.832c-4.325,0-8.057-1.734-9.851-4.25C0.018,13.763,0,13.94,0,14.122C0,19.578,4.423,24,9.878,24
	s9.878-4.422,9.878-9.878c0-0.182-0.018-0.359-0.027-0.539C17.935,16.098,14.204,17.832,9.878,17.832z"/>
<path fill="#025274" d="M9.878,7.427c4.325,0,8.057,1.734,9.851,4.25c0.01-0.181,0.027-0.358,0.027-0.54
	c0-5.456-4.423-9.878-9.878-9.878S0,5.681,0,11.137c0,0.182,0.018,0.359,0.027,0.539C1.822,9.161,5.553,7.427,9.878,7.427z"/>
<ellipse fill="#025274" cx="4.003" cy="14.445" rx="0.853" ry="0.969"/>
<ellipse fill="#025274" cx="15.225" cy="14.445" rx="0.854" ry="0.969"/>
<circle fill="#025274" cx="9.879" cy="2.062" r="2.063"/>
</svg>
