<?xml version="1.0" encoding="utf-8"?>
<!-- Generator: Adobe Illustrator 15.0.0, SVG Export Plug-In  -->
<!DOCTYPE svg PUBLIC "-//W3C//DTD SVG 1.1//EN" "http://www.w3.org/Graphics/SVG/1.1/DTD/svg11.dtd" [
	<!ENTITY ns_flows "http://ns.adobe.com/Flows/1.0/">
]>
<svg version="1.1"
	 xmlns="http://www.w3.org/2000/svg" xmlns:xlink="http://www.w3.org/1999/xlink" xmlns:a="http://ns.adobe.com/AdobeSVGViewerExtensions/3.0/"
	 x="0px" y="0px" width="35px" height="26px" viewBox="0 0 35 26" overflow="visible" enable-background="new 0 0 35 26"
	 xml:space="preserve">
<defs>
</defs>
<polygon fill="#009FE3" points="35.11,12.974 30.963,0 30.161,0 29.788,0 29.001,0 25.021,12.394 21.062,0 20.259,0 19.89,0 
	19.104,0 15.123,12.394 11.163,0 9.987,0 14.149,12.974 14.938,12.974 15.308,12.974 16.112,12.974 20.073,0.58 24.052,12.974 
	24.839,12.974 25.208,12.974 26.01,12.974 29.974,0.58 33.95,12.974 "/>
<path fill="#009FE3" d="M7.59,11.783c-0.763,0.762-1.891,1.182-3.241,1.182H0V0h4.349C5.7,0,6.828,0.419,7.59,1.184
	c1.312,1.311,1.261,3.368,1.261,5.116C8.851,8.049,8.903,10.47,7.59,11.783 M6.854,1.966C6.121,1.218,5.14,0.985,4.121,0.985H1.048
	v10.994h3.072c1.019,0,2-0.232,2.733-0.983C7.87,9.963,7.797,7.711,7.797,6.303C7.797,4.894,7.87,3.003,6.854,1.966"/>
<polygon fill="#025274" points="35.11,25.948 30.963,12.974 30.161,12.974 29.788,12.974 29.001,12.974 25.021,25.368 
	21.062,12.974 20.259,12.974 19.89,12.974 19.104,12.974 15.123,25.368 11.163,12.974 9.987,12.974 14.149,25.948 14.938,25.948 
	15.308,25.948 16.112,25.948 20.073,13.554 24.052,25.948 24.839,25.948 25.208,25.948 26.01,25.948 29.974,13.554 33.95,25.948 "/>
<path fill="#025274" d="M7.59,24.756c-0.763,0.763-1.891,1.182-3.241,1.182H0V12.974h4.349c1.351,0,2.479,0.419,3.241,1.184
	c1.312,1.311,1.261,3.368,1.261,5.116C8.851,21.023,8.903,23.444,7.59,24.756 M6.854,14.94c-0.733-0.749-1.714-0.981-2.733-0.981
	H1.048v10.994h3.072c1.019,0,2-0.232,2.733-0.983c1.017-1.033,0.943-3.285,0.943-4.693C7.797,17.867,7.87,15.977,6.854,14.94"/>
</svg>
