<?xml version="1.0" encoding="utf-8"?>
<!-- Generator: Adobe Illustrator 15.0.0, SVG Export Plug-In  -->
<!DOCTYPE svg PUBLIC "-//W3C//DTD SVG 1.1//EN" "http://www.w3.org/Graphics/SVG/1.1/DTD/svg11.dtd" [
	<!ENTITY ns_flows "http://ns.adobe.com/Flows/1.0/">
]>
<svg version="1.1"
	 xmlns="http://www.w3.org/2000/svg" xmlns:xlink="http://www.w3.org/1999/xlink" xmlns:a="http://ns.adobe.com/AdobeSVGViewerExtensions/3.0/"
	 x="0px" y="0px" width="124px" height="124px" viewBox="0 2.248 124 124"
	 overflow="visible" enable-background="new 0 2.248 124 124" xml:space="preserve">
<defs>
</defs>
<g>
	<defs>
		<circle id="SVGID_1_" cx="62.408" cy="63.656" r="62.408"/>
	</defs>
	<clipPath id="SVGID_4_">
		<use xlink:href="#SVGID_1_"  overflow="visible"/>
	</clipPath>
	<g clip-path="url(#SVGID_4_)">
		<linearGradient id="SVGID_5_" gradientUnits="userSpaceOnUse" x1="62.4082" y1="114.6484" x2="62.4082" y2="94.3826">
			<stop  offset="0" style="stop-color:#D1D1D1"/>
			<stop  offset="1" style="stop-color:#E5E5E5"/>
		</linearGradient>
		<path fill="url(#SVGID_5_)" d="M62.408,0C27.942,0,0,27.94,0,62.407v62.407h124.815V62.407C124.816,27.94,96.875,0,62.408,0z"/>
		<polygon opacity="0.52" fill="#F4F3F2" points="80.711,106.586 80.711,33.593 9.104,73.858 9.104,106.586 		"/>
		<linearGradient id="SVGID_6_" gradientUnits="userSpaceOnUse" x1="62.4082" y1="8.9048" x2="62.4082" y2="10.5709">
			<stop  offset="0" style="stop-color:#5E3F2F"/>
			<stop  offset="0.6442" style="stop-color:#4F3529"/>
			<stop  offset="0.9387" style="stop-color:#4F3529"/>
		</linearGradient>
		<path fill="url(#SVGID_6_)" d="M25.553,12.045h73.71c-1.745-1.28-3.56-2.473-5.438-3.568H30.991
			C29.114,9.572,27.299,10.765,25.553,12.045z"/>
		<g>
			<path fill="#3D251A" d="M30.447,8.797h63.921c-0.364-0.216-0.729-0.432-1.098-0.642H31.544
				C31.177,8.366,30.811,8.582,30.447,8.797z"/>
			<path fill="#3D251A" d="M98.824,11.723H25.993c-0.294,0.212-0.589,0.425-0.881,0.643h74.592
				C99.412,12.148,99.119,11.936,98.824,11.723z"/>
		</g>
		<path fill="#CCCCCC" d="M62.408,0.856c8.31,0,16.369,1.627,23.959,4.836c7.328,3.1,13.91,7.538,19.563,13.191
			s10.09,12.235,13.19,19.565c3.211,7.588,4.839,15.648,4.839,23.958v61.554H0.857V62.407c0-8.31,1.627-16.37,4.836-23.958
			c3.1-7.33,7.539-13.913,13.191-19.565S31.12,8.792,38.45,5.693C46.038,2.483,54.098,0.856,62.408,0.856 M62.408,0
			C27.942,0,0,27.94,0,62.407v62.407h124.815V62.407C124.816,27.94,96.875,0,62.408,0L62.408,0z"/>
		<linearGradient id="SVGID_8_" gradientUnits="userSpaceOnUse" x1="62.4082" y1="9.3486" x2="62.4082" y2="5.3559">
			<stop  offset="0" style="stop-color:#262626"/>
			<stop  offset="1" style="stop-color:#000000"/>
		</linearGradient>
		<path fill="url(#SVGID_8_)" d="M93.271,8.156C84.168,2.967,73.634,0,62.408,0C51.181,0,40.647,2.967,31.544,8.156H93.271z"/>
		<path fill="#CCCCCC" d="M62.408,0.856c8.31,0,16.369,1.627,23.959,4.836c7.328,3.1,13.91,7.538,19.563,13.191
			s10.09,12.235,13.19,19.565c3.211,7.588,4.839,15.648,4.839,23.958v61.554H0.857V62.407c0-8.31,1.627-16.37,4.836-23.958
			c3.1-7.33,7.539-13.913,13.191-19.565S31.12,8.792,38.45,5.693C46.038,2.483,54.098,0.856,62.408,0.856 M62.408,0
			C27.942,0,0,27.94,0,62.407v62.407h124.815V62.407C124.816,27.94,96.875,0,62.408,0L62.408,0z"/>
	</g>
	<g clip-path="url(#SVGID_4_)">
		<path fill="#BFA450" d="M97.222,42.591c0,8.734-7.08,15.815-15.814,15.815s-15.814-7.081-15.814-15.815s7.08-15.815,15.814-15.815
			S97.222,33.856,97.222,42.591"/>
		<rect x="43.658" y="143.602" fill="#E9E0D6" width="5.086" height="67.393"/>
		<rect x="72.269" y="143.602" fill="#E9E0D6" width="5.086" height="67.393"/>
		<rect x="33.485" y="77.48" fill="#666666" width="55.313" height="66.121"/>
		<path fill="#E9E0D6" d="M88.798,46.562c0,14.969-12.381,27.103-27.656,27.103c-15.274,0-27.657-12.134-27.657-27.103
			s12.383-27.104,27.657-27.104C76.417,19.458,88.798,31.593,88.798,46.562"/>
		<rect x="33.485" y="46.326" fill="#E9E0D6" width="55.313" height="31.154"/>
		<rect x="33.485" y="137.879" fill="#CCCCCC" width="55.313" height="5.723"/>
		<polygon fill="#4D4D4D" points="70.361,77.48 77.513,90.619 69.013,93.256 77.513,95.068 60.824,127.08 60.824,77.48 		"/>
		<polygon fill="#4D4D4D" points="51.395,77.48 43.976,90.619 52.743,93.256 43.976,95.068 60.824,127.08 60.824,77.48 		"/>
		<path fill="#CCCCCC" d="M51.605,77.48c0,21.191,9.218,49.6,9.218,49.6v-49.6H51.605z"/>
		<path fill="#CCCCCC" d="M70.361,77.48c0,21.191-9.537,49.6-9.537,49.6v-49.6H70.361z"/>
		<path fill="#363943" d="M51.525,206.264c-1.265-5.316-3.183-9.256-5.36-9.256h-0.187c-3.209,1.152-5.901,8.066-6.735,18.438
			h12.282h1.374C52.632,211.988,52.157,208.777,51.525,206.264"/>
		<path fill="#363943" d="M80.136,206.264c-1.266-5.316-3.184-9.256-5.361-9.256h-0.186c-3.209,1.152-5.902,8.066-6.736,18.438
			h12.283h1.373C81.242,211.988,80.767,208.777,80.136,206.264"/>
		<path fill="#E9E0D6" d="M88.164,77.088c0,4.734-12.24,8.57-27.34,8.57c-15.098,0-27.338-3.836-27.338-8.57s12.24-8.57,27.338-8.57
			C75.923,68.518,88.164,72.354,88.164,77.088"/>
		<rect x="33.485" y="77.48" fill="#FBB03B" width="55.313" height="1.906"/>
		<path fill="#FBB03B" d="M63.732,82.43c0,1.564-1.268,2.832-2.832,2.832c-1.562,0-2.83-1.268-2.83-2.832
			c0-1.562,1.268-2.83,2.83-2.83C62.464,79.6,63.732,80.867,63.732,82.43"/>
		<path fill="#E9E0D6" d="M69.726,39.034c-5.402-6.948-26.307,1.854-36.216,6.578c-0.011,0.316-0.024,0.631-0.024,0.95
			c0,14.969,12.383,27.104,27.657,27.104c15.074,0,27.32-11.82,27.643-26.516C82.681,46.518,74.068,44.619,69.726,39.034"/>
		<path fill="#FFDA6A" d="M61.142,19.458c-14.949,0-27.121,11.625-27.632,26.154c9.909-4.725,30.814-13.526,36.216-6.577
			c4.342,5.584,12.955,7.484,19.059,8.116c0.004-0.196,0.014-0.391,0.014-0.589C88.798,31.592,76.417,19.458,61.142,19.458"/>
		<polyline fill="none" stroke="#666666" stroke-width="10" stroke-miterlimit="10" points="85.621,82.719 95.789,104.26 
			96.783,130.434 		"/>
		<polygon fill="#666666" points="88.798,143.602 33.485,143.602 30.307,177.934 31.737,177.934 33.485,167.973 35.234,177.934 
			91.978,177.934 		"/>
		<path fill="#F2F2F2" d="M78.792,56.569c0,3.634-2.471,6.58-5.52,6.58s-5.52-2.946-5.52-6.58c0-3.634,2.471-6.581,5.52-6.581
			S78.792,52.935,78.792,56.569"/>
		<path fill="#00A1BF" d="M76.861,58.379c0,1.726-1.174,3.125-2.621,3.125c-1.449,0-2.623-1.399-2.623-3.125
			s1.174-3.125,2.623-3.125C75.687,55.253,76.861,56.653,76.861,58.379"/>
		<path fill="#F2F2F2" d="M74.101,56.405c0,1-0.68,1.81-1.518,1.81c-0.84,0-1.518-0.81-1.518-1.81s0.678-1.81,1.518-1.81
			C73.421,54.595,74.101,55.405,74.101,56.405"/>
		<path fill="#F2F2F2" d="M53.996,56.569c0,3.634-2.47,6.581-5.519,6.581s-5.52-2.947-5.52-6.581c0-3.634,2.471-6.58,5.52-6.58
			S53.996,52.935,53.996,56.569"/>
		<path fill="#00A1BF" d="M52.064,58.379c0,1.726-1.173,3.125-2.621,3.125s-2.622-1.399-2.622-3.125s1.174-3.125,2.622-3.125
			S52.064,56.653,52.064,58.379"/>
		<path fill="#F2F2F2" d="M49.305,56.404c0,1-0.679,1.81-1.518,1.81c-0.838,0-1.518-0.811-1.518-1.81s0.68-1.809,1.518-1.809
			C48.626,54.595,49.305,55.405,49.305,56.404"/>
		<line fill="none" stroke="#000000" stroke-miterlimit="10" x1="53.831" y1="70.805" x2="66.546" y2="70.805"/>
		
			<line fill="none" stroke="#FBB03B" stroke-width="3" stroke-miterlimit="10" x1="93.593" y1="125.984" x2="100.035" y2="125.854"/>
		<polygon fill="#B04733" points="102.15,153.139 93.757,153.139 91.341,153.139 91.341,128.979 102.15,128.979 		"/>
		<g opacity="0.2">
			<g>
				<defs>
					<rect id="SVGID_3_" x="93.033" y="132.838" width="2.871" height="20.301"/>
				</defs>
				<clipPath id="SVGID_9_">
					<use xlink:href="#SVGID_3_"  overflow="visible"/>
				</clipPath>
				<polygon clip-path="url(#SVGID_9_)" points="95.427,132.838 95.904,153.139 93.033,153.139 				"/>
			</g>
		</g>
		<g opacity="0.2">
			<g>
				<defs>
					<rect id="SVGID_2_" x="96.529" y="132.838" width="3.947" height="20.301"/>
				</defs>
				<clipPath id="SVGID_10_">
					<use xlink:href="#SVGID_2_"  overflow="visible"/>
				</clipPath>
				<polygon clip-path="url(#SVGID_10_)" points="96.529,132.838 97.882,153.139 100.476,153.139 				"/>
			</g>
		</g>
		
			<rect x="60.692" y="63.187" transform="matrix(0.7262 -0.6875 0.6875 0.7262 -57.4824 72.5033)" fill="#B04733" width="3.179" height="90.46"/>
		<path fill="#E9E0D6" d="M101.507,135.678c-0.158,4.311-2.316,7.377-4.822,6.848s-4.41-4.453-4.252-8.764
			c0.156-4.311,2.314-7.375,4.82-6.846C99.759,127.443,101.664,131.367,101.507,135.678"/>
		<polyline fill="none" stroke="#666666" stroke-width="10" stroke-miterlimit="10" points="36.665,85.66 25.221,110.541 
			26.069,140.74 		"/>
		<path fill="#E9E0D6" d="M30.935,144.58c-0.158,4.311-2.316,7.375-4.821,6.846c-2.506-0.527-4.41-4.453-4.253-8.762
			c0.157-4.311,2.316-7.377,4.822-6.848S31.092,140.27,30.935,144.58"/>
	</g>
</g>
</svg>
