<?xml version="1.0" encoding="utf-8"?>
<!-- Generator: Adobe Illustrator 15.0.0, SVG Export Plug-In  -->
<!DOCTYPE svg PUBLIC "-//W3C//DTD SVG 1.1//EN" "http://www.w3.org/Graphics/SVG/1.1/DTD/svg11.dtd" [
	<!ENTITY ns_flows "http://ns.adobe.com/Flows/1.0/">
]>
<svg version="1.1"
	 xmlns="http://www.w3.org/2000/svg" xmlns:xlink="http://www.w3.org/1999/xlink" xmlns:a="http://ns.adobe.com/AdobeSVGViewerExtensions/3.0/"
	 x="0px" y="0px" width="204px" height="66px" viewBox="-47.537 -2.065 204 66"
	 overflow="visible" enable-background="new -47.537 -2.065 204 66" xml:space="preserve">
<defs>
</defs>
<path fill="#33384F" d="M61.354,24.974c0,1.827-1.48,3.308-3.308,3.308H36.88c-1.826,0-3.307-1.481-3.307-3.308V3.807
	c0-1.827,1.481-3.307,3.307-3.307h21.167c1.827,0,3.308,1.48,3.308,3.307V24.974z"/>
<path fill="#FFFFFF" d="M58.046,28.781H36.88c-2.099,0-3.807-1.708-3.807-3.808V3.807C33.073,1.708,34.781,0,36.88,0h21.167
	c2.1,0,3.808,1.708,3.808,3.807v21.167C61.854,27.073,60.146,28.781,58.046,28.781z M36.88,1c-1.548,0-2.807,1.259-2.807,2.807
	v21.167c0,1.548,1.259,2.808,2.807,2.808h21.167c1.548,0,2.808-1.259,2.808-2.808V3.807c0-1.548-1.26-2.807-2.808-2.807H36.88z"/>
<path fill="#FFFFFF" d="M91.12,59.869H69.953c-2.099,0-3.807-1.708-3.807-3.807V34.896c0-2.1,1.708-3.808,3.807-3.808H91.12
	c2.099,0,3.807,1.708,3.807,3.808v21.167C94.926,58.161,93.218,59.869,91.12,59.869z M69.953,32.088
	c-1.548,0-2.807,1.26-2.807,2.808v21.167c0,1.548,1.259,2.807,2.807,2.807H91.12c1.548,0,2.807-1.259,2.807-2.807V34.896
	c0-1.548-1.259-2.808-2.807-2.808H69.953z"/>
<path fill="#FFFFFF" d="M24.974,59.869H3.808c-2.1,0-3.808-1.708-3.808-3.807V34.896c0-2.1,1.708-3.808,3.808-3.808h21.167
	c2.099,0,3.807,1.708,3.807,3.808v21.167C28.781,58.161,27.073,59.869,24.974,59.869z M3.808,32.088C2.259,32.088,1,33.348,1,34.896
	v21.167c0,1.548,1.259,2.807,2.808,2.807h21.167c1.548,0,2.807-1.259,2.807-2.807V34.896c0-1.548-1.259-2.808-2.807-2.808H3.808z"/>
<path fill="#33384F" d="M61.354,56.062c0,1.826-1.48,3.307-3.308,3.307H36.88c-1.827,0-3.307-1.48-3.307-3.307V34.896
	c0-1.827,1.48-3.308,3.307-3.308h21.167c1.827,0,3.308,1.48,3.308,3.308V56.062z"/>
<path fill="#FFFFFF" d="M58.046,59.869H36.88c-2.099,0-3.807-1.708-3.807-3.807V34.896c0-2.1,1.708-3.808,3.807-3.808h21.167
	c2.1,0,3.808,1.708,3.808,3.808v21.167C61.854,58.161,60.146,59.869,58.046,59.869z M36.88,32.088c-1.548,0-2.807,1.26-2.807,2.808
	v21.167c0,1.548,1.259,2.807,2.807,2.807h21.167c1.548,0,2.808-1.259,2.808-2.807V34.896c0-1.548-1.26-2.808-2.808-2.808H36.88z"/>
<polygon fill="#FFFFFF" points="43.072,18.194 47.463,10.587 51.855,18.194 "/>
<polygon fill="#FFFFFF" points="51.855,41.676 47.463,49.282 43.072,41.676 "/>
<polygon fill="#FFFFFF" points="18.195,49.87 10.588,45.479 18.195,41.087 "/>
<polygon fill="#FFFFFF" points="76.733,41.087 84.339,45.479 76.733,49.87 "/>
</svg>
