<?xml version="1.0" encoding="utf-8"?>
<!-- Generator: Adobe Illustrator 15.0.0, SVG Export Plug-In  -->
<!DOCTYPE svg PUBLIC "-//W3C//DTD SVG 1.1//EN" "http://www.w3.org/Graphics/SVG/1.1/DTD/svg11.dtd" [
	<!ENTITY ns_flows "http://ns.adobe.com/Flows/1.0/">
]>
<svg version="1.1"
	 xmlns="http://www.w3.org/2000/svg" xmlns:xlink="http://www.w3.org/1999/xlink" xmlns:a="http://ns.adobe.com/AdobeSVGViewerExtensions/3.0/"
	 x="0px" y="0px" width="25px" height="25px" viewBox="0 -0.94 25 25" overflow="visible" enable-background="new 0 -0.94 25 25"
	 xml:space="preserve">
<defs>
</defs>
<path fill="#025274" d="M25.035,18.017c0-0.331-0.25-0.853-0.423-1.008c-0.841-0.76-2.397-1.078-4.062-2.009
	c-1.667-0.931-1.814-0.638-2.106-0.49c-0.296,0.146-1.564,2.127-2.175,2.76c-0.387,0.403-0.944,0.344-1.158,0.279
	c-4.788-1.559-8.619-7.597-8.619-7.597c-0.442-0.44,0-0.926,0-0.926c0.848-0.866,1.224-1.26,1.712-1.912
	C9.087,5.936,6.541,1.58,6.199,0.649C5.855-0.282,3.994,0.062,3.994,0.062c-3.64,0.555-4.52,5.374-3.722,7.249
	c4.878,11.494,16.44,19.081,22.914,14.408l0,0C23.186,21.719,25.035,20.723,25.035,18.017z"/>
</svg>
