<?xml version="1.0" encoding="utf-8"?>
<!-- Generator: Adobe Illustrator 15.0.0, SVG Export Plug-In  -->
<!DOCTYPE svg PUBLIC "-//W3C//DTD SVG 1.1//EN" "http://www.w3.org/Graphics/SVG/1.1/DTD/svg11.dtd" [
	<!ENTITY ns_flows "http://ns.adobe.com/Flows/1.0/">
]>
<svg version="1.1"
	 xmlns="http://www.w3.org/2000/svg" xmlns:xlink="http://www.w3.org/1999/xlink" xmlns:a="http://ns.adobe.com/AdobeSVGViewerExtensions/3.0/"
	 x="0px" y="0px" width="124px" height="124px" viewBox="0 2.248 124 124"
	 overflow="visible" enable-background="new 0 2.248 124 124" xml:space="preserve">
<defs>
</defs>
<g>
	<defs>
		<circle id="SVGID_1_" cx="62.408" cy="63.656" r="62.408"/>
	</defs>
	<clipPath id="SVGID_14_">
		<use xlink:href="#SVGID_1_"  overflow="visible"/>
	</clipPath>
	<g clip-path="url(#SVGID_14_)">
		<linearGradient id="SVGID_15_" gradientUnits="userSpaceOnUse" x1="62.4082" y1="114.6484" x2="62.4082" y2="94.3826">
			<stop  offset="0" style="stop-color:#D1D1D1"/>
			<stop  offset="1" style="stop-color:#E5E5E5"/>
		</linearGradient>
		<path fill="url(#SVGID_15_)" d="M62.408,0C27.942,0,0,27.94,0,62.407v62.407h124.815V62.407C124.816,27.94,96.875,0,62.408,0z"/>
		<polygon opacity="0.52" fill="#F4F3F2" points="80.711,106.586 80.711,33.593 9.104,73.858 9.104,106.586 		"/>
		<linearGradient id="SVGID_16_" gradientUnits="userSpaceOnUse" x1="62.4082" y1="8.9048" x2="62.4082" y2="10.5709">
			<stop  offset="0" style="stop-color:#5E3F2F"/>
			<stop  offset="0.6442" style="stop-color:#4F3529"/>
			<stop  offset="0.9387" style="stop-color:#4F3529"/>
		</linearGradient>
		<path fill="url(#SVGID_16_)" d="M25.553,12.045h73.71c-1.745-1.28-3.56-2.473-5.438-3.568H30.991
			C29.114,9.572,27.299,10.765,25.553,12.045z"/>
		<g>
			<path fill="#3D251A" d="M30.447,8.797h63.921c-0.364-0.216-0.729-0.432-1.098-0.642H31.544
				C31.177,8.366,30.811,8.582,30.447,8.797z"/>
			<path fill="#3D251A" d="M98.824,11.723H25.993c-0.294,0.212-0.589,0.425-0.881,0.643h74.592
				C99.412,12.148,99.119,11.936,98.824,11.723z"/>
		</g>
		<path fill="#CCCCCC" d="M62.408,0.856c8.31,0,16.369,1.627,23.959,4.836c7.328,3.1,13.91,7.538,19.563,13.191
			s10.09,12.235,13.19,19.565c3.211,7.588,4.839,15.648,4.839,23.958v61.554H0.857V62.407c0-8.31,1.627-16.37,4.836-23.958
			c3.1-7.33,7.539-13.913,13.191-19.565S31.12,8.792,38.45,5.693C46.038,2.483,54.098,0.856,62.408,0.856 M62.408,0
			C27.942,0,0,27.94,0,62.407v62.407h124.815V62.407C124.816,27.94,96.875,0,62.408,0L62.408,0z"/>
		<linearGradient id="SVGID_17_" gradientUnits="userSpaceOnUse" x1="62.4082" y1="9.3486" x2="62.4082" y2="5.3559">
			<stop  offset="0" style="stop-color:#262626"/>
			<stop  offset="1" style="stop-color:#000000"/>
		</linearGradient>
		<path fill="url(#SVGID_17_)" d="M93.271,8.156C84.168,2.967,73.634,0,62.408,0C51.181,0,40.647,2.967,31.544,8.156H93.271z"/>
		<path fill="#CCCCCC" d="M62.408,0.856c8.31,0,16.369,1.627,23.959,4.836c7.328,3.1,13.91,7.538,19.563,13.191
			s10.09,12.235,13.19,19.565c3.211,7.588,4.839,15.648,4.839,23.958v61.554H0.857V62.407c0-8.31,1.627-16.37,4.836-23.958
			c3.1-7.33,7.539-13.913,13.191-19.565S31.12,8.792,38.45,5.693C46.038,2.483,54.098,0.856,62.408,0.856 M62.408,0
			C27.942,0,0,27.94,0,62.407v62.407h124.815V62.407C124.816,27.94,96.875,0,62.408,0L62.408,0z"/>
	</g>
	<g display="none" clip-path="url(#SVGID_14_)">
		<polygon fill="#F9BA48" points="62,34.4 81.931,34.4 82.414,52.917 77.916,59.57 68.92,65.124 62.045,66.74 55.042,65.126 
			46.046,59.575 41.548,52.917 42.03,34.4 		"/>
		<g opacity="0.2">
			<g>
				<defs>
					<rect id="SVGID_13_" x="41.619" y="34.4" width="40.762" height="5.367"/>
				</defs>
				<clipPath id="SVGID_18_" display="inline">
					<use xlink:href="#SVGID_13_"  display="none" overflow="visible"/>
				</clipPath>
				<polygon clip-path="url(#SVGID_18_)" points="77.052,38.043 62.469,39.768 46.48,38.043 41.619,34.4 82.381,34.4 				"/>
			</g>
		</g>
		<path fill="#0548A8" d="M82.454,32.058l3.454-11.713c0,0-10.495,4.158-23.438,0c0,0-13.548,4.076-22.872-0.156l2.093,11.869
			H82.454z"/>
		<rect x="41.619" y="32.058" width="40.762" height="2.342"/>
		<polygon fill="#EFBB95" points="45.075,39.32 41.548,52.964 42.474,62.943 48.413,70.678 48.53,81.567 62,88.907 75.588,81.099 
			75.588,70.678 81.506,62.943 82.442,52.964 78.399,39.32 62,42.443 		"/>
		<polygon fill="#92BEFF" points="62,136.307 62,86.721 48.497,78.458 12.498,87.368 2.262,126.755 2.262,136.307 		"/>
		<polygon fill="#92BEFF" points="62,136.307 62,86.721 75.588,78.458 111.527,87.368 121.739,126.755 121.739,136.307 		"/>
		<g opacity="0.5">
			<g>
				<defs>
					<rect id="SVGID_12_" x="28.266" y="111.943" width="0.468" height="24.363"/>
				</defs>
				<clipPath id="SVGID_19_" display="inline">
					<use xlink:href="#SVGID_12_"  display="none" overflow="visible"/>
				</clipPath>
				
					<line clip-path="url(#SVGID_19_)" fill="none" stroke="#383838" stroke-width="2" stroke-miterlimit="10" x1="28.5" y1="111.943" x2="28.5" y2="136.307"/>
			</g>
		</g>
		<g opacity="0.5">
			<g>
				<defs>
					<rect id="SVGID_11_" x="94.564" y="111.943" width="0.469" height="24.363"/>
				</defs>
				<clipPath id="SVGID_20_" display="inline">
					<use xlink:href="#SVGID_11_"  display="none" overflow="visible"/>
				</clipPath>
				
					<line clip-path="url(#SVGID_20_)" fill="none" stroke="#383838" stroke-width="2" stroke-miterlimit="10" x1="94.798" y1="111.943" x2="94.798" y2="136.307"/>
			</g>
		</g>
		<g opacity="0.2">
			<g>
				<defs>
					<rect id="SVGID_10_" x="45.387" y="39.32" width="33.324" height="3.982"/>
				</defs>
				<clipPath id="SVGID_21_" display="inline">
					<use xlink:href="#SVGID_10_"  display="none" overflow="visible"/>
				</clipPath>
				<polygon clip-path="url(#SVGID_21_)" fill="#020202" points="45.387,39.32 63.016,43.303 78.711,39.32 62.993,41.312 				"/>
			</g>
		</g>
		<polygon points="77.052,37.446 62.469,38.888 46.48,37.446 41.619,34.4 82.381,34.4 		"/>
		<g opacity="0.3">
			<g>
				<defs>
					<rect id="SVGID_9_" x="41.619" y="33.698" width="40.762" height="0.703"/>
				</defs>
				<clipPath id="SVGID_22_" display="inline">
					<use xlink:href="#SVGID_9_"  display="none" overflow="visible"/>
				</clipPath>
				<rect x="41.619" y="33.698" clip-path="url(#SVGID_22_)" fill="#FFFFFF" width="40.762" height="0.703"/>
			</g>
		</g>
		<polygon points="57.246,89.25 60.257,93.437 62,93.437 62,84.3 		"/>
		<polygon fill="#F9BA48" points="62.411,22.746 65.105,23.039 67.155,24.21 66.334,30.008 62.411,32.995 58.545,30.008 
			57.725,24.21 59.775,23.039 		"/>
		<g opacity="0.5">
			<g>
				<defs>
					<rect id="SVGID_8_" x="43.502" y="75.568" width="18.57" height="13.358"/>
				</defs>
				<clipPath id="SVGID_23_" display="inline">
					<use xlink:href="#SVGID_8_"  display="none" overflow="visible"/>
				</clipPath>
				<polygon clip-path="url(#SVGID_23_)" points="43.502,80.011 48.049,75.568 61.851,84.795 62.072,85.574 61.226,88.556 
					60.539,88.927 				"/>
			</g>
		</g>
		<polygon fill="#92BEFF" points="43.926,79.589 48.461,75.162 61.981,84.3 60.888,88.458 		"/>
		<polygon points="66.75,89.25 63.731,93.437 62,93.437 62,84.3 		"/>
		<g opacity="0.5">
			<g>
				<defs>
					<rect id="SVGID_6_" x="61.851" y="75.631" width="18.715" height="13.296"/>
				</defs>
				<clipPath id="SVGID_24_" display="inline">
					<use xlink:href="#SVGID_6_"  display="none" overflow="visible"/>
				</clipPath>
				<polygon clip-path="url(#SVGID_24_)" points="80.566,80.058 76.031,75.631 61.981,84.3 61.851,84.795 62.918,88.556 
					63.605,88.927 				"/>
			</g>
		</g>
		<polygon fill="#92BEFF" points="80.019,79.589 75.485,75.162 61.965,84.3 63.058,88.458 		"/>
		<polygon points="62,129.572 54.973,122.896 60.258,93.437 62,93.437 		"/>
		<polygon points="62,129.572 69.029,122.896 63.744,93.437 62,93.437 		"/>
		<g opacity="0.5">
			<g>
				<defs>
					<rect id="SVGID_5_" x="60.215" y="93.437" width="3.57" height="0.233"/>
				</defs>
				<clipPath id="SVGID_25_" display="inline">
					<use xlink:href="#SVGID_5_"  display="none" overflow="visible"/>
				</clipPath>
				<polygon clip-path="url(#SVGID_25_)" fill="#FFFFFF" points="60.215,93.67 63.786,93.67 63.731,93.437 60.258,93.437 				"/>
			</g>
		</g>
		<g opacity="0.5">
			<g>
				<defs>
					<rect id="SVGID_4_" x="58.545" y="30.008" width="3.866" height="2.987"/>
				</defs>
				<clipPath id="SVGID_26_" display="inline">
					<use xlink:href="#SVGID_4_"  display="none" overflow="visible"/>
				</clipPath>
				<polygon clip-path="url(#SVGID_26_)" points="58.545,30.008 62.411,32.995 58.896,30.887 				"/>
			</g>
		</g>
		<g opacity="0.5">
			<g>
				<defs>
					<rect id="SVGID_3_" x="62.411" y="30.014" width="3.921" height="2.981"/>
				</defs>
				<clipPath id="SVGID_27_" display="inline">
					<use xlink:href="#SVGID_3_"  display="none" overflow="visible"/>
				</clipPath>
				<polygon clip-path="url(#SVGID_27_)" points="66.332,30.014 62.411,32.995 66.1,30.887 				"/>
			</g>
		</g>
		<rect x="51.224" y="48.457" fill="#F7F7F7" width="7.262" height="3.749"/>
		<rect x="66.217" y="48.457" fill="#F7F7F7" width="7.263" height="3.749"/>
		<rect x="54.035" y="49.394" width="1.875" height="1.875"/>
		<rect x="68.794" y="49.394" width="1.874" height="1.875"/>
		<polygon fill="#F7F7F7" points="56.457,34.4 47.848,37.569 53.411,38.071 59.033,34.4 		"/>
		<g opacity="0.6">
			<g>
				<defs>
					<rect id="SVGID_2_" x="48.413" y="70.678" width="27.175" height="4.953"/>
				</defs>
				<clipPath id="SVGID_28_" display="inline">
					<use xlink:href="#SVGID_2_"  display="none" overflow="visible"/>
				</clipPath>
				<polygon clip-path="url(#SVGID_28_)" points="48.413,70.678 61.851,74.383 75.588,70.678 61.965,75.631 				"/>
			</g>
		</g>
		<line fill="none" stroke="#000000" stroke-miterlimit="10" x1="61.883" y1="59.232" x2="61.883" y2="52.205"/>
		<line fill="none" stroke="#000000" stroke-miterlimit="10" x1="58.955" y1="62.396" x2="64.343" y2="62.396"/>
	</g>
	<g clip-path="url(#SVGID_14_)">
		<path fill="#191615" d="M104.087,149.856c0,0,6.999-64.613-37.713-66.222c-54.74-5.368-41.325,66.222-41.325,66.222"/>
		<path fill="#383433" d="M58.527,82.241c0,0-9.613,1.662-11.284,4.527c-1.671,2.863,7.188,9.814,7.188,9.814l8.395-3.438
			l-6.775,5.477l5.401,17.979l4.36-33.652L58.527,82.241z"/>
		<path d="M95.978,124.261c0.894,3.578,0.246,2.987,3.826,5.661c3.577,2.673-0.233,2.843-0.069,5.183
			c0.168,2.34,0.168,2.676-1.748,3.847c-1.916,1.17-3.267,1.503-2.631,3.229c0.635,1.728-1.641,3.289-2.121,4.293
			c-0.229,0.483-2.267,1.97-4.322,3.386h15.175c0,0,2.825-26.117-6.604-45.558C96.503,112.337,95.464,122.206,95.978,124.261z"/>
		
			<linearGradient id="SVGID_29_" gradientUnits="userSpaceOnUse" x1="-508.1929" y1="316.8008" x2="-482.1288" y2="291.9282" gradientTransform="matrix(1 0 0 -1 564 364.4961)">
			<stop  offset="0" style="stop-color:#FFD8BF"/>
			<stop  offset="1" style="stop-color:#EFA57F"/>
		</linearGradient>
		<ellipse fill="url(#SVGID_29_)" cx="65.375" cy="56.825" rx="23.035" ry="26.81"/>
		<path opacity="0.49" fill="#FCEEE8" enable-background="new    " d="M61.872,30.327C50.814,32.29,42.34,43.407,42.34,56.826
			c0,12.737,7.636,23.393,17.871,26.124c-0.787-0.369-15.872-7.646-15.872-24.579C44.339,46.405,55.138,35.785,61.872,30.327z"/>
		<path fill="#D89577" d="M80.978,50.642v5.366l2.001,1.694l-0.252,5.312c0,0-0.808,11.463-6.746,17.606
			c7.383-4.466,12.43-13.442,12.43-23.796c0-7.796-2.862-14.813-7.43-19.712C81.032,37.254,83.967,45.138,80.978,50.642z"/>
		<path d="M65.375,30.018c12.724,0,23.036,12.002,23.036,26.808c0,14.806-10.312,26.81-23.036,26.81
			c-12.721,0-23.034-12.003-23.034-26.81C42.34,42.02,52.654,30.018,65.375,30.018 M65.375,28.513
			c-13.53,0-24.539,12.701-24.539,28.312c0,15.613,11.008,28.312,24.539,28.312c13.532,0,24.54-12.7,24.54-28.312
			S78.907,28.513,65.375,28.513L65.375,28.513z"/>
		<g id="sourcil-gauche_2_">
			
				<rect x="47.672" y="50.893" transform="matrix(-0.9965 0.0838 -0.0838 -0.9965 107.6599 99.8965)" fill="#B7B1AC" width="8.122" height="2.63"/>
			<path d="M56.655,53.821l-9.503,0.8l-0.341-4.029l9.503-0.798L56.655,53.821z M47.797,53.858l8.092-0.682l-0.221-2.622
				l-8.094,0.682L47.797,53.858z"/>
			<path fill="#DDDDDD" d="M48.318,51.744c0.134,0.062,0.083,0.427,0.118,0.575c0.036,0.155,0.08,0.494,0.179,0.625
				c0.095,0.124,0.107,0.116,0.149-0.062c0.03-0.136-0.01-0.289,0.019-0.433c0.028-0.154,0.12-0.315,0.134-0.468
				c0.014-0.132-0.112-0.33,0.04-0.36c0.362-0.07,0.442,0.767,0.496,0.956c0.046,0.168,0.081,0.489,0.185,0.647
				c0.157,0.242,0.443,0.053,0.494-0.212c0.034-0.181-0.476-1.406,0.092-1.243c0.292,0.084,0.22,0.484,0.314,0.678
				c0.074,0.151,0.087,0.172,0.255,0.153c0.272-0.029,0.289-0.228,0.35-0.457c0.063-0.248,0.113-0.926,0.378-0.353
				c0.111,0.244,0.268,0.667,0.607,0.525c0.41-0.172,0.641-1.351,1.242-0.804c0.219,0.201,0.427,0.405,0.675,0.587
				c0.207,0.151,0.406,0.368,0.486,0.031c0.083-0.349-0.207-0.564,0.063-0.879c0.232-0.27,0.433-0.208,0.624,0.061
				c0.113,0.16,0.229,0.436,0.292,0.621c0.076,0.232,0,0.49,0.179,0.686c0.051-0.013,0.103-0.029,0.15-0.042l-0.17-2.021
				l-8.094,0.682l0.11,1.314C47.801,52.307,48.039,51.617,48.318,51.744z"/>
		</g>
		<g id="sourcil-droit_2_">
			
				<rect x="75.136" y="50.891" transform="matrix(0.9979 0.0647 -0.0647 0.9979 3.5427 -5.0134)" fill="#B7B1AC" width="8.122" height="2.63"/>
			<path d="M74.569,49.881l9.516,0.617l-0.262,4.034l-9.517-0.615L74.569,49.881z M83.335,51.157l-8.108-0.526l-0.168,2.625
				l8.104,0.526L83.335,51.157z"/>
			<path fill="#DDDDDD" d="M82.602,51.679c-0.134,0.064-0.076,0.428-0.107,0.576c-0.034,0.155-0.07,0.495-0.168,0.628
				c-0.094,0.126-0.105,0.12-0.149-0.058c-0.032-0.137,0.003-0.289-0.026-0.433c-0.033-0.153-0.125-0.312-0.144-0.465
				c-0.017-0.132,0.106-0.332-0.048-0.358c-0.361-0.063-0.426,0.774-0.477,0.963c-0.043,0.17-0.07,0.492-0.17,0.651
				c-0.154,0.246-0.445,0.063-0.5-0.203c-0.035-0.18,0.449-1.414-0.117-1.24c-0.291,0.088-0.211,0.488-0.302,0.685
				c-0.067,0.151-0.083,0.173-0.251,0.157c-0.271-0.025-0.294-0.221-0.357-0.45c-0.067-0.246-0.131-0.923-0.385-0.345
				c-0.107,0.246-0.257,0.674-0.598,0.537c-0.413-0.165-0.667-1.338-1.257-0.78c-0.214,0.205-0.422,0.412-0.664,0.6
				c-0.203,0.155-0.397,0.375-0.485,0.04c-0.09-0.347,0.194-0.569-0.08-0.877c-0.238-0.266-0.436-0.2-0.623,0.073
				c-0.109,0.162-0.223,0.44-0.281,0.625c-0.071,0.234,0.013,0.492-0.163,0.69c-0.05-0.013-0.103-0.028-0.154-0.041l0.132-2.023
				l8.108,0.526l-0.084,1.316C83.127,52.231,82.878,51.546,82.602,51.679z"/>
		</g>
		
			<rect x="40.266" y="55.717" transform="matrix(-0.8912 -0.4535 0.4535 -0.8912 58.2153 127.0463)" fill="#3A1E13" width="8.15" height="1.651"/>
		<path fill="#2B160E" d="M47.653,59.294l-7.487-3.811l0.862-1.694l7.485,3.81L47.653,59.294z M40.502,55.374l7.04,3.583
			l0.635-1.249l-7.039-3.583L40.502,55.374z"/>
		
			<rect x="82.064" y="55.712" transform="matrix(0.8913 -0.4534 0.4534 0.8913 -16.2721 45.2045)" fill="#3A1E13" width="8.15" height="1.652"/>
		<path fill="#2B160E" d="M81.966,57.598l7.483-3.81l0.863,1.695l-7.488,3.81L81.966,57.598z M89.34,54.126l-7.039,3.583
			l0.636,1.249l7.04-3.583L89.34,54.126z"/>
		<g>
			<path fill="#3A1E13" d="M62.509,64.472h-14.92v-8.589H62.51L62.509,64.472L62.509,64.472z M48.592,63.469h12.914v-6.583H48.592
				V63.469z"/>
			<path fill="#2B160E" d="M62.634,64.596h-15.17v-8.839h15.17V64.596z M47.715,64.347h14.668v-8.338H47.715V64.347z M61.631,63.594
				H48.466V56.76h13.165V63.594z M48.717,63.344h12.665v-6.333H48.717V63.344z"/>
		</g>
		<g>
			<path fill="#3A1E13" d="M82.853,64.472H67.934v-8.589h14.919V64.472z M68.935,63.469h12.914v-6.583H68.935V63.469z"/>
			<path fill="#2B160E" d="M82.979,64.596H67.807v-8.839h15.172V64.596L82.979,64.596z M68.058,64.347h14.669v-8.338H68.058V64.347z
				 M81.975,63.594H68.81V56.76h13.165V63.594z M69.061,63.344h12.663v-6.333H69.061V63.344z"/>
		</g>
		<g>
			
				<rect x="61.128" y="59.352" transform="matrix(1 -0.0036 0.0036 1 -0.2159 0.2348)" fill="#3A1E13" width="8.148" height="1.651"/>
			<path fill="#2B160E" d="M60.999,59.242l8.402-0.031l0.004,1.901l-8.398,0.031L60.999,59.242z M69.151,59.463l-7.899,0.029
				l0.005,1.399l7.898-0.029L69.151,59.463z"/>
		</g>
		<g>
			<path fill="#B7B1AC" d="M65.375,74.426c1.183,0.913,3.772,0.808,3.772,0.808s2.322-0.228,1.887-1.864
				c-0.436-1.638-1.515-3.793-2.652-3.918c-1.141-0.125-3.007,0.167-3.007,0.167s-1.865-0.291-3.003-0.167
				c-1.143,0.125-2.219,2.28-2.655,3.918c-0.437,1.637,1.886,1.864,1.886,1.864S64.192,75.339,65.375,74.426z"/>
			<path d="M67.722,69.42c0.233,0,0.456,0.009,0.658,0.031c1.139,0.125,2.218,2.28,2.653,3.918c0.436,1.637-1.887,1.864-1.887,1.864
				s-0.09,0.006-0.24,0.006c-0.674,0-2.568-0.069-3.533-0.812c-0.961,0.744-2.86,0.812-3.53,0.812c-0.151,0-0.241-0.006-0.241-0.006
				s-2.322-0.228-1.886-1.864c0.437-1.638,1.513-3.793,2.655-3.918c0.199-0.021,0.423-0.031,0.656-0.031
				c1.082,0,2.347,0.197,2.347,0.197S66.64,69.42,67.722,69.42 M67.722,68.417L67.722,68.417c-0.931,0-1.964,0.132-2.349,0.186
				c-0.387-0.054-1.416-0.186-2.348-0.186c-0.285,0-0.543,0.013-0.767,0.037c-1.851,0.201-3.079,3.021-3.514,4.658
				c-0.23,0.861,0.032,1.486,0.289,1.858c0.721,1.042,2.183,1.234,2.469,1.263h0.028l0.029,0.002c0,0,0.104,0.004,0.281,0.004
				c0.883,0,2.391-0.094,3.53-0.646c1.142,0.553,2.647,0.646,3.534,0.646c0.176,0,0.278-0.004,0.278-0.004l0.026-0.002h0.029
				c0.287-0.028,1.75-0.221,2.474-1.263c0.256-0.372,0.515-0.998,0.286-1.86c-0.436-1.633-1.663-4.455-3.514-4.657
				C68.263,68.43,68.007,68.417,67.722,68.417L67.722,68.417L67.722,68.417z"/>
			<path fill="#DDDDDD" d="M71.034,73.369c-0.436-1.638-1.515-3.793-2.652-3.918c-1.141-0.125-3.007,0.167-3.007,0.167
				s-1.865-0.291-3.003-0.167c-1.06,0.116-2.064,1.983-2.55,3.561c0.604-0.35,0.698-0.883,1.16-1.393
				c0.171-0.192,0.384-0.276,0.542-0.5c0.135-0.19,0.17-0.38,0.36-0.5c0.035,0.472-0.55,1.026-0.327,1.468
				c0.217-0.275,0.215-0.689,0.374-1.005c0.142-0.285,0.417-0.4,0.548-0.664c0.03,0.787-0.4,1.5-0.373,2.282
				c0.36-0.088,0.449-1.026,0.592-1.352c0.185-0.427,0.531-0.72,0.739-1.144c0.281,0.651-0.024,1.64-0.116,2.317
				c-0.06,0.438,0.053,0.844-0.013,1.258c0.295-0.676,0.251-1.422,0.507-2.025c0.154-0.363,0.168-1.129,0.573-1.305
				c0.236,0.594-0.077,1.219-0.073,1.83c0.002,0.314-0.056,0.865,0.18,1.095c0.344-0.582,0.074-1.193,0.08-1.796
				c0.004-0.475,0.334-0.379,0.539-0.713c0.047-0.08,0.045-0.311,0.088-0.413c0.354,0.073,0.283,1.155,0.285,1.473
				c0.002,0.601,0.178,0.957,0.694,1.272c0.087-0.281,0.177-0.704,0.101-0.993c-0.073-0.276-0.295-0.382-0.383-0.63
				c-0.072-0.2-0.026-1.068,0.161-1.18c0.347-0.205,0.478,0.655,0.604,0.887c0.264,0.478,0.58,0.837,0.785,1.371
				c-0.01-0.437-0.045-0.823-0.178-1.233c-0.082-0.26-0.19-0.425-0.156-0.71c0.621-0.352,0.695,0.285,0.795,0.722
				c0.154,0.69,0.709,0.954,1.005,1.558c-0.015-0.62-0.087-1.049-0.368-1.592c-0.082-0.156-0.645-0.992-0.146-0.949
				c0.297,0.024,0.719,0.867,0.873,1.074c0.197,0.266,0.393,0.58,0.61,0.847c0.062-0.181-0.262-0.528-0.099-0.658
				c0.258-0.206,0.318,0.637,0.345,0.71c0.11,0.328,0.526,0.973,0.903,0.954C71.034,73.373,71.034,73.37,71.034,73.369z"/>
		</g>
		<path d="M75.379,21.066c-2.576,0-5.107,0.537-7.531,1.596c-1.48-0.384-7.272-1.781-13.121-1.781c-3.994,0-7.185,0.662-9.481,1.971
			c-7.571,4.307-13.123,20.892-5.28,34.977l1.261,2.264v-7.456c-0.248,0.668-0.468,1.325-0.653,1.923
			c-5.56-12.517-0.812-26.28,5.667-29.965c1.99-1.133,4.848-1.708,8.488-1.708c6.355,0,12.873,1.785,12.938,1.801l0.354,0.1
			l0.332-0.153c2.262-1.038,4.627-1.562,7.028-1.562c10.737,0,19.386,10.027,19.386,18.329c0,7.187-2.891,10.884-4.738,12.512
			c-0.023-0.236-0.063-0.464-0.111-0.689v3.273c1.662-1.043,6.857-5.097,6.857-15.097C96.772,32.191,87.229,21.066,75.379,21.066z"
			/>
		<path fill="#B7B1AC" d="M62.634,32.876c0,0,5.676,13.164,22.353,15.171c0,0,4.805,2.936,3.989,7.836c0,0,6.791-3.322,6.791-14.481
			c0-11.159-14.169-23.948-27.833-17.68c0,0-14.921-4.137-22.194,0C38.468,27.86,33.307,43.813,40.84,57.34
			c0,0,3.047-9.077,5.074-11.276C47.943,43.866,48.936,34.255,62.634,32.876z"/>
		<path fill="#DDDDDD" d="M66.468,24.39c0,0-35.914-11.259-25.897,30.168l-0.237-9.729l1.395,2.758l-0.893-8.811
			c0,0,0.056-16.098,21.036-13.424l-2.59-1.42L66.468,24.39z"/>
		<path fill="#DDDDDD" d="M68.741,24.464c0,0,12.156-2.57,17.397,4.049c5.241,6.619,13.093,11.961,3.774,24.712l1.967-7.812
			c0,0,0.628-6.394-6.77-16.048l-4.201-0.852l1.631-0.715l-7.963-1.63l1.404-0.753h-8.988L68.741,24.464z"/>
		<path fill="#9B9692" d="M64.422,33.002c0,0,6.77,12.537,20.562,13.416L64.422,33.002z"/>
		<path fill="#9B9692" d="M60.999,32.374c0,0-13.941,1.631-16.857,14.044C44.141,46.418,43.909,30.493,60.999,32.374z"/>
		<path fill="#383433" d="M77.101,83.651c0,0,9.612,1.662,11.284,4.526c1.671,2.864-7.189,9.817-7.189,9.817l-8.39-3.438
			l6.771,5.476l-5.4,17.98L69.815,84.36L77.101,83.651z"/>
		<path d="M92.72,54.288c-0.094-0.018-0.187-0.034-0.28-0.051c-0.568-0.03-1.098,0.086-1.613,0.274
			c-0.439,0.16-0.986,0.414-1.207,0.847c-0.125,0.24-0.143,0.67-0.209,0.972c-0.01,0.052-0.017,0.104-0.029,0.155
			c0.381-0.223,1.645-0.879,3.271-0.926c0.074-0.406,0.146-0.812,0.205-1.217C92.834,54.312,92.743,54.323,92.72,54.288z"/>
		<path d="M67.993,81.028c-3.084,0-6.4-0.627-6.4-2.006c0-0.226,0.183-0.405,0.407-0.405c0.224,0,0.407,0.181,0.407,0.405
			c0,0.355,1.9,1.191,5.588,1.191c0.226,0,0.406,0.184,0.406,0.406C68.399,80.846,68.218,81.028,67.993,81.028z"/>
		<path fill="#FFFFFF" d="M80.124,61.262c0,0-2.983,2.466-7.096,0C68.918,58.795,79.325,55.351,80.124,61.262z"/>
		<path d="M75.233,58.957c0.026,0.081,0.053,0.167,0.053,0.258c0,0.452-0.369,0.817-0.818,0.817c-0.29,0-0.53-0.157-0.677-0.383
			c-0.087,0.177-0.142,0.371-0.142,0.582c0,0.72,0.584,1.306,1.305,1.306c0.722,0,1.305-0.585,1.305-1.306
			C76.258,59.604,75.819,59.084,75.233,58.957z"/>
		<path fill="#FFFFFF" d="M52.812,61.262c0,0,2.982,2.466,7.095,0C64.019,58.795,53.611,55.351,52.812,61.262z"/>
		<path d="M57.706,58.957c-0.029,0.081-0.054,0.167-0.054,0.258c0,0.452,0.365,0.817,0.816,0.817c0.289,0,0.531-0.157,0.677-0.383
			c0.086,0.177,0.142,0.371,0.142,0.582c0,0.72-0.583,1.306-1.305,1.306c-0.723,0-1.308-0.585-1.308-1.306
			C56.675,59.604,57.118,59.084,57.706,58.957z"/>
		<path fill="#E6E6E6" d="M89.17,91.901c0,0-1.561,16.028,0.088,22.449c1.646,6.42,2.771,21.133,2.771,21.133l1.695,4.613
			l4.662,4.817l16.456,16.731c0,0,5.756-4.83,7.584-10.109l-16.455-22.368l-4.14-25.493C101.833,103.676,93.612,93.062,89.17,91.901
			z"/>
		<g>
			<path fill="#D8D8D8" d="M117.987,158.528l-2.576-3.407l-13.318-14.577l-3.659-1.689l-1.249-2.262l2.357-0.137
				c0,0,0.214-3.114-0.203-2.543c-0.418,0.572-2.447,1.318-3.708,0.734c-1.261-0.582-0.078-5.795-0.078-5.795l-1.788-3.084
				l1.143-2.478l-1.168-5.747l-0.513-4.218l1.517-3.282c0,0,1.99-4.284,1.267-5.691c-0.729-1.406,1.521-5.42,1.521-5.42
				l-6.711-5.166l-0.223-1.085c-0.413-0.366-0.884-0.643-1.426-0.78c0,0-1.561,16.028,0.088,22.449
				c1.646,6.42,2.771,21.133,2.771,21.133l1.695,4.613l4.662,4.817l16.456,16.731C114.842,161.647,116.303,160.42,117.987,158.528z"
				/>
			<path fill="#F2F2F2" d="M99.864,103.993c-0.422,0.916,3.885,25.681,3.885,25.681l17.9,23.666c0.301-0.59,0.563-1.192,0.777-1.803
				l-16.455-22.368l-4.14-25.493c0,0-8.287-6.89-10.444-10.069C91.513,96.095,100.206,103.255,99.864,103.993z"/>
			<path fill="#CCCCCC" d="M122.426,151.537l-1.023-1.388c-1.767,2.998-5.522,8.149-5.522,8.149l-21.549-21.394
				c0,0-1.492-16.207-2.29-22.289c-0.801-6.088-1.508-21.983-1.508-21.983l0,0l-1.385-0.698c-0.466,0.719-1.498,16.153,0.108,22.416
				c1.646,6.42,2.771,21.133,2.771,21.133l1.696,4.613l4.662,4.817l16.456,16.731C114.842,161.647,120.598,156.817,122.426,151.537z
				"/>
			<path d="M114.806,162.403l-16.817-17.097l-4.744-4.909l-1.771-4.871c-0.012-0.147-1.141-14.739-2.757-21.039
				c-1.686-6.58-0.426-22.254-0.016-22.893l0.22-0.338l0.389,0.104c0.218,0.057,0.429,0.135,0.634,0.228
				c4.054,1.876,12.453,11.22,12.443,12.049l4.11,25.312l16.549,22.496l-0.097,0.274c-1.854,5.362-7.51,10.154-7.75,10.354
				L114.806,162.403z M94.204,139.794l4.582,4.734l16.087,16.354c1.271-1.149,5.364-5.067,6.93-9.254l-16.358-22.239l-4.17-25.723
				c0.045-2.441-8.88-9.723-11.796-11.07c-0.024-0.012-0.046-0.021-0.071-0.031c-1.474,2.354-1.041,16.067,0.391,21.646
				c1.597,6.223,2.68,19.872,2.781,21.152L94.204,139.794z"/>
		</g>
		<path fill="#E6E6E6" d="M34.831,91.901c0,0,1.559,16.028-0.087,22.449c-1.646,6.42-2.771,21.133-2.771,21.133l-1.694,4.613
			l-4.663,4.817L9.158,161.647c0,0-5.756-4.83-7.583-10.109L18.03,129.17l4.14-25.493C22.169,103.676,30.388,93.062,34.831,91.901z"
			/>
		<g>
			<path fill="#D8D8D8" d="M6.012,158.528l2.577-3.407l13.318-14.577l3.659-1.689l1.252-2.262l-2.359-0.137
				c0,0-0.215-3.114,0.203-2.543c0.416,0.572,2.446,1.318,3.708,0.734c1.261-0.582,0.077-5.795,0.077-5.795l1.79-3.084l-1.146-2.478
				l1.17-5.747l0.513-4.218l-1.517-3.282c0,0-1.992-4.284-1.265-5.691c0.728-1.406-1.525-5.42-1.525-5.42l6.714-5.166l0.224-1.085
				c0.412-0.366,0.884-0.643,1.424-0.78c0,0,1.559,16.028-0.087,22.449c-1.646,6.42-2.771,21.133-2.771,21.133l-1.694,4.613
				l-4.663,4.817L9.158,161.647C9.158,161.647,7.698,160.42,6.012,158.528z"/>
			<path fill="#F2F2F2" d="M24.136,103.993c0.423,0.916-3.885,25.681-3.885,25.681l-17.9,23.666
				c-0.301-0.59-0.564-1.192-0.776-1.803l16.455-22.368l4.14-25.493c0,0,8.286-6.89,10.444-10.069
				C32.486,96.095,23.795,103.255,24.136,103.993z"/>
			<path fill="#CCCCCC" d="M1.575,151.537l1.021-1.388c1.767,2.998,5.524,8.149,5.524,8.149l21.549-21.394
				c0,0,1.492-16.207,2.292-22.289c0.798-6.088,1.504-21.983,1.504-21.983l0,0l1.386-0.698c0.465,0.719,1.497,16.153-0.108,22.416
				c-1.646,6.42-2.771,21.133-2.771,21.133l-1.694,4.613l-4.663,4.817L9.158,161.647C9.158,161.647,3.402,156.817,1.575,151.537z"/>
			<path d="M8.799,162.073c-0.24-0.199-5.895-4.991-7.75-10.354l-0.095-0.274l16.549-22.496l4.109-25.312
				c-0.008-0.829,8.392-10.173,12.443-12.049c0.203-0.093,0.418-0.171,0.635-0.228l0.388-0.104l0.219,0.338
				c0.412,0.639,1.671,16.312-0.016,22.893c-1.616,6.3-2.744,20.892-2.755,21.039l-1.77,4.871l-4.747,4.909L9.194,162.403
				L8.799,162.073z M31.424,135.364c0.101-1.279,1.184-14.93,2.78-21.151c1.433-5.579,1.865-19.294,0.391-21.647
				c-0.024,0.011-0.047,0.021-0.069,0.032c-2.918,1.349-11.842,8.628-11.8,11.07l-4.169,25.724L2.199,151.63
				c1.564,4.188,5.657,8.104,6.93,9.254l16.086-16.354l4.582-4.735L31.424,135.364z"/>
		</g>
	</g>
</g>
</svg>
